<svg width="36" height="27" viewBox="0 0 36 27" fill="none" xmlns="http://www.w3.org/2000/svg">
<path d="M0.696 13.2841C0.696 16.9641 1.656 20.0041 3.608 22.4681C5.56 24.9001 8.088 26.1161 11.192 26.1161C14.296 26.1161 16.856 24.9001 18.808 22.4361C20.76 19.9721 21.752 16.9001 21.752 13.2201C21.752 9.57212 20.792 6.53212 18.84 4.10012C16.888 1.63612 14.36 0.420124 11.256 0.420124C8.152 0.420124 5.624 1.66812 3.64 4.13212C1.688 6.59612 0.696 9.63612 0.696 13.2841ZM17.688 13.2841C17.688 15.8761 17.112 18.0841 15.928 19.8441C14.744 21.6041 13.208 22.5001 11.256 22.5001C9.304 22.5001 7.736 21.6041 6.552 19.8121C5.368 18.0201 4.792 15.8121 4.792 13.2201C4.792 10.6281 5.368 8.45212 6.52 6.69212C7.704 4.93212 9.24 4.03612 11.192 4.03612C13.144 4.03612 14.712 4.93212 15.896 6.72412C17.08 8.51612 17.688 10.6921 17.688 13.2841ZM24.3015 5.38012L26.1255 8.38812L31.7575 4.99612V25.8281H35.6935V0.772123H31.9495L24.3015 5.38012Z" fill="url(#paint0_linear_12792_126797)"/>
<path d="M3.608 22.4681L2.04029 23.7101L2.04827 23.72L3.608 22.4681ZM18.808 22.4361L20.3757 23.6781L18.808 22.4361ZM18.84 4.10012L17.2723 5.34208L17.2803 5.35202L18.84 4.10012ZM3.64 4.13212L2.08222 2.87781L2.07725 2.88398L2.07232 2.8902L3.64 4.13212ZM15.928 19.8441L17.5874 20.9605L15.928 19.8441ZM6.552 19.8121L8.22067 18.7096L6.552 19.8121ZM6.52 6.69212L4.86056 5.57577L4.85351 5.58624L4.8466 5.59681L6.52 6.69212ZM15.896 6.72412L14.2273 7.82664L14.2273 7.82664L15.896 6.72412ZM-1.304 13.2841C-1.304 17.3321 -0.239138 20.8327 2.04032 23.7101L5.17568 21.2262C3.55114 19.1755 2.696 16.5962 2.696 13.2841H-1.304ZM2.04827 23.72C4.3778 26.6224 7.47826 28.1161 11.192 28.1161V24.1161C8.69774 24.1161 6.7422 23.1779 5.16773 21.2162L2.04827 23.72ZM11.192 28.1161C14.9011 28.1161 18.0407 26.6255 20.3757 23.6781L17.2403 21.1942C15.6713 23.1748 13.6909 24.1161 11.192 24.1161V28.1161ZM20.3757 23.6781C22.6499 20.8073 23.752 17.2779 23.752 13.2201H19.752C19.752 16.5224 18.8701 19.1369 17.2403 21.1942L20.3757 23.6781ZM23.752 13.2201C23.752 9.20499 22.6873 5.69837 20.3997 2.84823L17.2803 5.35202C18.8967 7.36588 19.752 9.93926 19.752 13.2201H23.752ZM20.4077 2.8582C18.0772 -0.0835068 14.9724 -1.57988 11.256 -1.57988V2.42012C13.7476 2.42012 15.6988 3.35575 17.2723 5.34205L20.4077 2.8582ZM11.256 -1.57988C7.52224 -1.57988 4.43029 -0.0383549 2.08222 2.87781L5.19778 5.38644C6.81771 3.3746 8.78176 2.42012 11.256 2.42012V-1.57988ZM2.07232 2.8902C-0.198176 5.75624 -1.304 9.25147 -1.304 13.2841H2.696C2.696 10.0208 3.57418 7.43601 5.20768 5.37405L2.07232 2.8902ZM15.688 13.2841C15.688 15.5838 15.1783 17.3755 14.2686 18.7278L17.5874 20.9605C19.0458 18.7927 19.688 16.1684 19.688 13.2841H15.688ZM14.2686 18.7278C13.4034 20.0137 12.4531 20.5001 11.256 20.5001V24.5001C13.9629 24.5001 16.0846 23.1945 17.5874 20.9605L14.2686 18.7278ZM11.256 20.5001C10.0515 20.5001 9.07831 20.0077 8.22067 18.7096L4.88333 20.9146C6.39369 23.2006 8.55647 24.5001 11.256 24.5001V20.5001ZM8.22067 18.7096C7.29992 17.316 6.792 15.5154 6.792 13.2201H2.792C2.792 16.1089 3.43609 18.7242 4.88333 20.9146L8.22067 18.7096ZM6.792 13.2201C6.792 10.9265 7.29929 9.15344 8.1934 7.78744L4.8466 5.59681C3.43671 7.7508 2.792 10.3298 2.792 13.2201H6.792ZM8.17944 7.80848C9.04456 6.5225 9.99494 6.03612 11.192 6.03612V2.03612C8.48506 2.03612 6.36344 3.34175 4.86056 5.57577L8.17944 7.80848ZM11.192 6.03612C12.3965 6.03612 13.3697 6.52858 14.2273 7.82664L17.5647 5.62161C16.0543 3.33566 13.8915 2.03612 11.192 2.03612V6.03612ZM14.2273 7.82664C15.1601 9.2384 15.688 11.0152 15.688 13.2841H19.688C19.688 10.3691 18.9999 7.79385 17.5647 5.62161L14.2273 7.82664ZM24.3015 5.38012L23.2693 3.66704L21.5514 4.70212L22.5913 6.41713L24.3015 5.38012ZM26.1255 8.38812L24.4153 9.42513L25.4492 11.1301L27.1574 10.1014L26.1255 8.38812ZM31.7575 4.99612H33.7575V1.45686L30.7256 3.28286L31.7575 4.99612ZM31.7575 25.8281H29.7575V27.8281H31.7575V25.8281ZM35.6935 25.8281V27.8281H37.6935V25.8281H35.6935ZM35.6935 0.772123H37.6935V-1.22788H35.6935V0.772123ZM31.9495 0.772123V-1.22788H31.3935L30.9173 -0.940962L31.9495 0.772123ZM22.5913 6.41713L24.4153 9.42513L27.8357 7.35112L26.0117 4.34312L22.5913 6.41713ZM27.1574 10.1014L32.7894 6.70939L30.7256 3.28286L25.0936 6.67486L27.1574 10.1014ZM29.7575 4.99612V25.8281H33.7575V4.99612H29.7575ZM31.7575 27.8281H35.6935V23.8281H31.7575V27.8281ZM37.6935 25.8281V0.772123H33.6935V25.8281H37.6935ZM35.6935 -1.22788H31.9495V2.77212H35.6935V-1.22788ZM30.9173 -0.940962L23.2693 3.66704L25.3337 7.09321L32.9817 2.48521L30.9173 -0.940962Z" fill="white"/>
<defs>
<linearGradient id="paint0_linear_12792_126797" x1="-1" y1="-16.3385" x2="35.0812" y2="-15.3794" gradientUnits="userSpaceOnUse">
<stop stop-color="#A10C74"/>
<stop offset="1" stop-color="#FE826C"/>
</linearGradient>
</defs>
</svg>
