<svg width="179" height="54" viewBox="0 0 179 54" fill="none" xmlns="http://www.w3.org/2000/svg">
<rect x="0.359375" y="0.585938" width="39.9182" height="39.9182" rx="5.79458" fill="#FFF2F3"/>
<path d="M16.848 21.3338H14.552V43.2578H16.848V21.3338ZM35.8825 43.2578V34.0178C35.8825 30.4338 33.8105 28.0258 30.2265 28.0258C27.9585 28.0258 26.2505 29.0338 25.0745 31.0498V28.3058H22.9185V43.2578H25.1025V34.7458C25.1025 33.4018 25.5225 32.2818 26.3625 31.3858C27.2025 30.4618 28.2665 30.0138 29.5545 30.0138C32.2425 30.0138 33.6985 31.7778 33.6985 34.5498V43.2578H35.8825ZM55.3648 24.3778V43.2578H60.5488V18.2018H56.2928L47.7808 23.1938L50.0848 27.3858L55.3648 24.3778ZM79.3053 38.1058C79.3053 35.1298 77.0333 33.4338 72.7133 32.5378C71.2093 32.2178 70.4733 31.7058 70.4733 30.9698C70.4733 30.2978 71.2413 29.7218 72.2653 29.7218C73.7053 29.7218 74.7293 30.2658 75.3693 31.3538L78.9853 29.2098C77.8653 27.1298 75.5613 25.7538 72.3933 25.7538C70.6013 25.7538 69.0653 26.2658 67.7533 27.2898C66.4733 28.2818 65.8333 29.5938 65.8333 31.1618C65.8333 33.9458 67.8493 35.8018 71.9133 36.6978C74.0893 37.1778 74.6333 37.6898 74.6333 38.3618C74.6333 39.0338 73.8013 39.6098 72.5533 39.6098C70.6973 39.6098 69.4173 38.9058 68.7133 37.5298L65.0333 39.7058C66.4093 42.3298 68.9053 43.6418 72.4893 43.6418C76.7133 43.6418 79.3053 41.4018 79.3053 38.1058ZM93.7038 39.0338C93.3518 39.1298 92.9678 39.1618 92.5518 39.1618C90.5998 39.1618 89.5758 38.3938 89.5758 36.4418V30.4898H93.7998V26.1698H89.5758V20.8258H84.6478V26.1698H81.5118V30.4898H84.5838V37.0498C84.5838 41.0498 86.9198 43.4818 91.3678 43.4818C92.1998 43.4818 92.9678 43.3858 93.7038 43.1618V39.0338ZM113.096 43.2578H118.28V33.1138L127.464 18.2018H121.544L115.688 28.2178L109.896 18.2018H103.912L113.096 33.3378V43.2578ZM143.262 36.0898C143.294 35.7058 143.326 35.0978 143.326 34.2978C143.326 31.7698 142.526 29.6898 140.958 28.1218C139.39 26.5538 137.342 25.7538 134.814 25.7538C132.35 25.7538 130.206 26.6178 128.414 28.3778C126.654 30.1378 125.758 32.2178 125.758 34.6818C125.758 37.3058 126.654 39.4498 128.446 41.1458C130.27 42.8098 132.478 43.6418 135.134 43.6418C138.622 43.6418 141.054 42.3618 142.494 39.7698L138.878 37.4018C138.11 38.6498 136.574 39.4498 135.07 39.4498C132.926 39.4498 131.134 38.1698 130.846 36.0898H143.262ZM130.974 32.7938C131.07 32.1218 131.454 31.4498 132.126 30.8098C132.798 30.1378 133.662 29.8178 134.686 29.8178C136.958 29.8178 138.206 31.2898 138.334 32.7938H130.974ZM152.316 43.5778C154.588 43.5778 156.284 42.7458 157.436 41.1138L157.5 41.1458V43.2578H162.108V32.6658C162.108 28.1858 159.196 25.7858 154.684 25.7858C150.94 25.7858 148.316 27.1298 146.844 29.8498L150.652 32.1218C151.516 30.5858 152.764 29.8178 154.46 29.8178C156.252 29.8178 157.212 30.7458 157.212 31.9298C157.212 32.7618 156.764 33.1778 155.868 33.1778H154.172C152.252 33.1778 150.652 33.4658 149.084 34.2018C147.548 34.9378 146.556 36.4098 146.556 38.4258V38.4898C146.556 40.0258 147.1 41.2738 148.22 42.2018C149.34 43.1298 150.716 43.5778 152.316 43.5778ZM153.756 39.9298C152.476 39.9298 151.58 39.3538 151.58 38.2018C151.58 36.9218 152.732 36.2498 154.172 36.2498H157.18V36.6338C157.18 38.5218 155.9 39.9298 153.756 39.9298ZM178.004 26.1058C177.748 26.0098 177.428 25.9778 177.012 25.9778C174.74 25.9778 172.916 27.2258 172.18 28.7938H172.148V26.1698H167.188V43.2578H172.18V36.0258C172.18 32.9538 173.588 30.9378 176.82 30.9378C177.236 30.9378 177.62 30.9698 178.004 31.0338V26.1058Z" fill="#FF7680"/>
</svg>
