<svg width="26" height="26" viewBox="0 0 26 26" fill="none" xmlns="http://www.w3.org/2000/svg">
<path d="M3.08779 13.5237L12.2534 22.7118C12.6506 23.11 13.2998 23.111 13.697 22.7138L22.9065 13.5257C23.0016 13.4309 23.077 13.3183 23.1285 13.1942C23.1799 13.0702 23.2064 12.9372 23.2064 12.803C23.2064 12.6687 23.1799 12.5357 23.1285 12.4117C23.077 12.2876 23.0016 12.175 22.9065 12.0802L13.697 2.89206C13.6021 2.79731 13.4895 2.72219 13.3656 2.671C13.2417 2.61981 13.1089 2.59356 12.9748 2.59375C12.8407 2.59394 12.708 2.62057 12.5842 2.6721C12.4604 2.72364 12.348 2.79908 12.2534 2.8941L3.08779 12.0822C2.99309 12.1768 2.91796 12.2892 2.8667 12.4128C2.81545 12.5365 2.78906 12.6691 2.78906 12.803C2.78906 12.9368 2.81545 13.0694 2.8667 13.1931C2.91796 13.3167 2.99309 13.4291 3.08779 13.5237ZM9.93497 10.7612H15.0395V8.71935L18.1022 11.7821L15.0395 14.8448V12.803H11.9768V16.8865H9.93497V10.7612Z" fill="url(#paint0_linear_12869_50807)"/>
<defs>
<linearGradient id="paint0_linear_12869_50807" x1="2.78906" y1="-5.91342" x2="20.3334" y2="-5.5359" gradientUnits="userSpaceOnUse">
<stop stop-color="#A10C74"/>
<stop offset="1" stop-color="#FE826C"/>
</linearGradient>
</defs>
</svg>
