<svg width="44" height="44" viewBox="0 0 44 44" fill="none" xmlns="http://www.w3.org/2000/svg">
<path d="M10.4033 22.728C10.4033 24.568 10.8833 26.088 11.8593 27.32C12.8353 28.536 14.0993 29.144 15.6513 29.144C17.2033 29.144 18.4833 28.536 19.4593 27.304C20.4353 26.072 20.9313 24.536 20.9313 22.696C20.9313 20.872 20.4513 19.352 19.4753 18.136C18.4993 16.904 17.2353 16.296 15.6833 16.296C14.1313 16.296 12.8673 16.92 11.8753 18.152C10.8993 19.384 10.4033 20.904 10.4033 22.728ZM18.8993 22.728C18.8993 24.024 18.6113 25.128 18.0193 26.008C17.4273 26.888 16.6593 27.336 15.6833 27.336C14.7073 27.336 13.9233 26.888 13.3313 25.992C12.7393 25.096 12.4513 23.992 12.4513 22.696C12.4513 21.4 12.7393 20.312 13.3153 19.432C13.9073 18.552 14.6753 18.104 15.6513 18.104C16.6273 18.104 17.4113 18.552 18.0033 19.448C18.5953 20.344 18.8993 21.432 18.8993 22.728ZM29.5181 16.472L23.5501 24.248V26.232H29.9981V29H31.9341V26.232H33.7901V24.456H31.9341V16.472H29.5181ZM29.9981 18.696V24.456H25.5661L29.9981 18.696Z" fill="url(#paint0_linear_12792_132852)"/>
<rect x="0.5" y="0.5" width="43" height="43" rx="21.5" stroke="url(#paint1_linear_12792_132852)" stroke-dasharray="5 5"/>
<defs>
<linearGradient id="paint0_linear_12792_132852" x1="7" y1="5.12093e-05" x2="32.7719" y2="0.69325" gradientUnits="userSpaceOnUse">
<stop stop-color="#A10C74"/>
<stop offset="1" stop-color="#FE826C"/>
</linearGradient>
<linearGradient id="paint1_linear_12792_132852" x1="-2.03193e-06" y1="-18.3332" x2="37.8086" y2="-17.5197" gradientUnits="userSpaceOnUse">
<stop stop-color="#A10C74"/>
<stop offset="1" stop-color="#FE826C"/>
</linearGradient>
</defs>
</svg>
