<svg width="281" height="54" viewBox="0 0 281 54" fill="none" xmlns="http://www.w3.org/2000/svg">
<rect x="0.429688" y="0.585938" width="39.9182" height="39.9182" rx="5.79458" fill="#CEF2E7"/>
<path d="M16.4143 37.6578H28.3703L30.7503 43.2578H33.1863L23.7223 21.3338H21.1183L11.6543 43.2578H14.0063L16.4143 37.6578ZM17.2823 35.5578L22.3783 23.7138L27.4743 35.5578H17.2823ZM41.7978 22.3138C42.4418 22.3138 42.9738 22.3698 43.3658 22.5098V20.6618C42.8058 20.4658 42.2458 20.3818 41.7138 20.3818C38.9418 20.3818 37.1218 22.1738 37.1218 25.5338V28.3058H34.3498V30.2098H37.1218V43.2578H39.3058V30.2098H43.2258V28.3058H39.3058V25.4778C39.3058 23.1538 40.4538 22.3138 41.7978 22.3138ZM51.9723 43.3698C52.6163 43.3698 53.2043 43.2858 53.6803 43.1458V41.3258C53.3723 41.4098 52.9243 41.4378 52.3363 41.4378C50.7123 41.4378 49.9003 40.7378 49.9003 39.3378V30.2378H53.6803V28.3058H49.9003V23.9938H47.7443V28.3058H44.9723V30.2378H47.7443V39.3938C47.7443 42.0538 49.1443 43.3698 51.9723 43.3698ZM70.8483 36.4538C70.8763 36.3138 70.8763 36.0618 70.8763 35.7258C70.8763 33.4578 70.2603 31.6378 69.0283 30.2098C67.7963 28.7818 66.0603 28.0538 63.8203 28.0538C61.7763 28.0538 60.0403 28.8098 58.6403 30.3498C57.2403 31.8898 56.5403 33.6818 56.5403 35.7538C56.5403 37.9098 57.2683 39.7578 58.7243 41.2698C60.1803 42.7538 61.9723 43.5098 64.1283 43.5098C66.8163 43.5098 69.1963 42.1098 70.4563 39.6458L68.8323 38.5818C67.9643 40.3738 66.2003 41.5778 64.1003 41.5778C62.6443 41.5778 61.4123 41.1018 60.4043 40.1218C59.3963 39.1418 58.8363 37.9098 58.7523 36.4538H70.8483ZM58.7803 34.6058C58.9763 33.3178 59.5363 32.2258 60.4883 31.3298C61.4403 30.4058 62.5603 29.9578 63.8203 29.9578C66.6203 29.9578 68.3563 31.8058 68.6643 34.6058H58.7803ZM75.2001 28.3058V43.2578H77.3841V35.9498C77.3841 34.4098 77.7481 33.1218 78.5041 32.0298C79.2601 30.9378 80.4361 30.3778 82.0601 30.3778C82.2561 30.3778 82.5361 30.4058 82.9001 30.4338V28.1098C82.7881 28.0818 82.5361 28.0818 82.1721 28.0818C80.2681 28.0818 78.3921 29.1178 77.3561 31.2738V28.3058H75.2001ZM118.043 25.2738C117.339 23.1938 115.995 21.4658 114.011 20.0258C112.027 18.5858 109.595 17.8498 106.747 17.8498C103.259 17.8498 100.283 19.0978 97.755 21.5618C95.227 24.0258 93.979 27.0978 93.979 30.7778C93.979 34.4578 95.163 37.5298 97.531 39.9298C99.899 42.3298 102.971 43.5458 106.715 43.5458C110.267 43.5458 113.083 42.4578 115.195 40.2818C117.339 38.0738 118.395 35.3538 118.395 32.0898V30.7138H105.147V34.2978H114.139C113.531 37.5938 110.907 39.9298 106.683 39.9298C104.187 39.9298 102.139 39.0338 100.507 37.2738C98.875 35.5138 98.075 33.3058 98.075 30.6818C98.075 28.0578 98.907 25.8818 100.539 24.1218C102.203 22.3618 104.251 21.4978 106.715 21.4978C110.683 21.4978 113.243 23.6738 114.555 26.8738L118.043 25.2738ZM132.268 26.1058C132.044 26.0418 131.756 26.0098 131.34 26.0098C129.26 26.0098 127.692 26.9698 126.636 28.8898V26.1698H122.924V43.2578H126.732V34.5858C126.732 31.6098 128.268 29.9138 131.18 29.9138C131.596 29.9138 131.948 29.9458 132.268 30.0098V26.1058ZM145.574 31.6738C145.574 32.6338 145.03 33.1138 143.974 33.1138H141.862C138.854 33.1138 134.758 34.3618 134.758 38.3298V38.5218C134.758 39.9938 135.302 41.2098 136.39 42.1378C137.478 43.0658 138.854 43.5458 140.518 43.5458C142.822 43.5458 144.486 42.6818 145.542 40.9218V43.2578H149.286V32.3778C149.286 31.1938 149.094 30.1698 148.71 29.3058C147.654 26.9698 145.51 25.8178 142.31 25.8178C138.822 25.8178 136.39 27.2578 135.046 30.1698L137.958 31.8338C138.822 30.0098 140.262 29.1138 142.214 29.1138C144.358 29.1138 145.574 30.2658 145.574 31.6738ZM145.542 36.3458C145.542 38.9058 143.878 40.5058 141.286 40.5058C139.654 40.5058 138.566 39.5778 138.566 38.1698C138.566 37.4338 138.918 36.8578 139.59 36.4418C140.294 36.0258 141.062 35.8018 141.862 35.8018H145.542V36.3458ZM153.676 34.6818C153.676 37.0498 154.476 39.1298 156.076 40.8898C157.676 42.6498 159.692 43.5138 162.092 43.5138C162.988 43.5138 164.012 43.2898 165.164 42.8098C166.348 42.3298 167.212 41.5938 167.82 40.6018V43.2578H171.532V17.2098H167.724V28.6018C167.148 27.6738 166.316 27.0018 165.196 26.5538C164.108 26.0738 163.116 25.8498 162.188 25.8498C159.66 25.8498 157.58 26.7458 156.012 28.5378C154.444 30.3298 153.676 32.3778 153.676 34.6818ZM162.668 29.2738C164.172 29.2738 165.388 29.7858 166.348 30.8418C167.308 31.8978 167.788 33.1778 167.788 34.6818C167.788 36.1858 167.308 37.4658 166.348 38.5218C165.42 39.5458 164.172 40.0578 162.668 40.0578C161.164 40.0578 159.916 39.5458 158.956 38.5218C158.028 37.4658 157.548 36.1858 157.548 34.6818C157.548 33.1778 158.028 31.8978 158.956 30.8418C159.916 29.7858 161.164 29.2738 162.668 29.2738ZM177.09 26.1698V36.6658C177.09 40.7618 179.362 43.6098 183.49 43.6098C185.666 43.6098 187.394 42.7138 188.706 40.9538V43.2578H192.418V26.1698H188.61V35.6738C188.61 38.2658 187.074 39.9938 184.674 39.9938C182.146 39.9938 180.898 38.2978 180.898 35.7378V26.1698H177.09ZM207.932 31.6738C207.932 32.6338 207.388 33.1138 206.332 33.1138H204.22C201.212 33.1138 197.116 34.3618 197.116 38.3298V38.5218C197.116 39.9938 197.66 41.2098 198.748 42.1378C199.836 43.0658 201.212 43.5458 202.876 43.5458C205.18 43.5458 206.844 42.6818 207.9 40.9218V43.2578H211.644V32.3778C211.644 31.1938 211.452 30.1698 211.068 29.3058C210.012 26.9698 207.868 25.8178 204.668 25.8178C201.18 25.8178 198.748 27.2578 197.404 30.1698L200.316 31.8338C201.18 30.0098 202.62 29.1138 204.572 29.1138C206.716 29.1138 207.932 30.2658 207.932 31.6738ZM207.9 36.3458C207.9 38.9058 206.236 40.5058 203.644 40.5058C202.012 40.5058 200.924 39.5778 200.924 38.1698C200.924 37.4338 201.276 36.8578 201.948 36.4418C202.652 36.0258 203.42 35.8018 204.22 35.8018H207.9V36.3458ZM226.374 29.5938V26.1698H222.182V20.8898H218.374V26.1698H215.238V29.5938H218.374V37.7538C218.374 41.4658 220.55 43.4498 224.294 43.4498C225.03 43.4498 225.734 43.3218 226.342 43.0978V39.8658C225.926 39.9618 225.51 39.9938 225.126 39.9938C223.174 39.9938 222.182 39.1938 222.182 37.1458V29.5938H226.374ZM231.142 22.3938C232.134 23.3858 233.67 23.3858 234.662 22.3938C235.654 21.4018 235.654 19.8658 234.662 18.8738C233.67 17.8498 232.134 17.8498 231.142 18.8738C230.15 19.8658 230.15 21.4018 231.142 22.3938ZM234.822 26.1698H231.014V43.2578H234.822V26.1698ZM248.432 25.8178C245.936 25.8178 243.792 26.6818 242.032 28.3778C240.272 30.0738 239.376 32.1858 239.376 34.6818C239.376 37.1778 240.24 39.2898 242 40.9858C243.76 42.6818 245.904 43.5458 248.4 43.5458C250.928 43.5458 253.04 42.6818 254.768 40.9858C256.528 39.2578 257.392 37.1458 257.392 34.6178C257.392 32.1218 256.528 30.0418 254.768 28.3458C253.008 26.6498 250.896 25.8178 248.432 25.8178ZM244.688 30.8418C245.648 29.7858 246.896 29.2738 248.4 29.2738C249.904 29.2738 251.152 29.7858 252.08 30.8418C253.04 31.8978 253.52 33.1778 253.52 34.6818C253.52 36.1858 253.04 37.4658 252.112 38.5218C251.184 39.5778 249.936 40.0898 248.432 40.0898C246.928 40.0898 245.68 39.5458 244.72 38.4898C243.76 37.4018 243.28 36.1218 243.28 34.6178C243.28 33.1138 243.76 31.8658 244.688 30.8418ZM277.341 43.2578V32.7298C277.341 28.6338 275.133 25.8178 270.941 25.8178C268.765 25.8178 267.037 26.7138 265.725 28.4738V26.1698H262.013V43.2578H265.821V33.7538C265.821 31.1618 267.357 29.4338 269.757 29.4338C272.285 29.4338 273.533 31.1298 273.533 33.6898V43.2578H277.341Z" fill="#09BF89"/>
</svg>
