<svg width="104" height="102" viewBox="0 0 104 102" fill="none" xmlns="http://www.w3.org/2000/svg">
<g clip-path="url(#clip0_12792_132807)">
<path d="M90.7407 43.1853C85.5985 50.2235 79.3796 56.4064 72.3131 61.506C65.3842 66.5081 57.773 70.4871 49.7131 73.3207C33.8933 79.0144 16.7256 79.7898 0.462978 75.5453C16.5668 78.0376 33.0499 75.5863 47.7387 68.5149C62.043 61.8806 74.0053 51.0656 82.0491 37.4954L90.7407 43.1853Z" fill="#013C3C"/>
<path d="M73.0042 36.2904L97.0038 24.1551L95.5003 51.0043L73.0042 36.2904Z" fill="#013C3C"/>
<path d="M90.2008 50.029C87.6541 54.0874 84.6069 57.8088 81.1313 61.1056C77.6743 64.4478 73.8872 67.4301 69.8282 70.0065C67.8034 71.3235 65.6791 72.4442 63.5424 73.5609C62.4678 74.0968 61.3435 74.5345 60.244 75.0213L58.638 75.7656L56.9243 76.3383C55.7832 76.7023 54.6423 77.1074 53.4928 77.455L49.9857 78.2606C49.4045 78.3709 48.8112 78.5182 48.234 78.6162L46.4446 78.8368C45.257 78.9674 44.0734 79.0856 42.8816 79.1875C44.0322 78.8084 45.1693 78.4567 46.2929 78.1324L47.9947 77.6377C48.5468 77.4496 49.0947 77.2329 49.6508 77.0325L52.9589 75.8345L56.1429 74.4323C60.4198 72.5692 64.5375 70.3596 68.4551 67.8254C72.4046 65.3233 76.1959 62.5793 79.8072 59.609C83.4334 56.5959 86.9025 53.3984 90.2008 50.029Z" fill="url(#paint0_linear_12792_132807)"/>
<path d="M1.34022 72.1134C9.65618 71.6914 17.7213 71.1192 25.7788 69.9443C29.7954 69.3733 33.7695 68.5566 37.7143 67.6211C41.6715 66.5815 45.5661 65.3163 49.379 63.8315C45.9716 66.2521 42.2402 68.1797 38.2952 69.5571C34.3441 70.9013 30.2809 71.8892 26.1543 72.509C22.0287 73.0839 17.8669 73.3571 13.7019 73.3264C9.55183 73.3193 5.41225 72.9131 1.34022 72.1134Z" fill="url(#paint1_linear_12792_132807)"/>
</g>
<defs>
<linearGradient id="paint0_linear_12792_132807" x1="61.5324" y1="22.0782" x2="90.7094" y2="32.199" gradientUnits="userSpaceOnUse">
<stop stop-color="#A10C74"/>
<stop offset="1" stop-color="#FE826C"/>
</linearGradient>
<linearGradient id="paint1_linear_12792_132807" x1="11.3615" y1="41.428" x2="46.0529" y2="54.341" gradientUnits="userSpaceOnUse">
<stop stop-color="#A10C74"/>
<stop offset="1" stop-color="#FE826C"/>
</linearGradient>
<clipPath id="clip0_12792_132807">
<rect width="82.9492" height="78.8371" fill="white" transform="translate(24.7109 0.546875) rotate(18.0861)"/>
</clipPath>
</defs>
</svg>
