<svg width="59" height="45" viewBox="0 0 59 45" fill="none" xmlns="http://www.w3.org/2000/svg">
<rect y="0.828125" width="33" height="33" rx="4.82945" fill="white" fill-opacity="0.4"/>
<path d="M13.696 26.2841C13.696 29.9641 14.656 33.0041 16.608 35.4681C18.56 37.9001 21.088 39.1161 24.192 39.1161C27.296 39.1161 29.856 37.9001 31.808 35.4361C33.76 32.9721 34.752 29.9001 34.752 26.2201C34.752 22.5721 33.792 19.5321 31.84 17.1001C29.888 14.6361 27.36 13.4201 24.256 13.4201C21.152 13.4201 18.624 14.6681 16.64 17.1321C14.688 19.5961 13.696 22.6361 13.696 26.2841ZM30.688 26.2841C30.688 28.8761 30.112 31.0841 28.928 32.8441C27.744 34.6041 26.208 35.5001 24.256 35.5001C22.304 35.5001 20.736 34.6041 19.552 32.8121C18.368 31.0201 17.792 28.8121 17.792 26.2201C17.792 23.6281 18.368 21.4521 19.52 19.6921C20.704 17.9321 22.24 17.0361 24.192 17.0361C26.144 17.0361 27.712 17.9321 28.896 19.7241C30.08 21.5161 30.688 23.6921 30.688 26.2841ZM56.0215 31.7881C56.0215 28.9721 54.5815 27.0201 51.7015 25.9001V25.8681C54.2295 24.6521 55.4775 22.7321 55.4775 20.1401C55.4775 18.2521 54.7095 16.6841 53.2055 15.3721C51.7015 14.0601 49.6535 13.4201 47.0935 13.4201C42.8375 13.4201 39.8615 15.7241 38.7095 19.0521L42.1335 20.6201C43.1575 18.2201 44.7895 17.0041 47.0295 17.0041C49.8455 17.0041 51.4775 18.5081 51.4775 20.5561C51.4775 21.5801 51.0615 22.4761 50.1975 23.2121C49.3655 23.9481 48.3095 24.3001 47.0295 24.3001H44.5655V27.8521H47.2535C48.6295 27.8521 49.7495 28.2361 50.6135 29.0041C51.5095 29.7401 51.9575 30.6681 51.9575 31.7241C51.9575 32.7481 51.5095 33.6441 50.5815 34.4121C49.6535 35.1481 48.5335 35.5321 47.1895 35.5321C44.6615 35.5321 42.8375 34.2841 41.7495 31.8201L38.3575 33.4841C39.8615 37.2281 42.7735 39.1161 47.1255 39.1161C49.7175 39.1161 51.8295 38.4121 53.4935 37.0041C55.1895 35.5641 56.0215 33.8361 56.0215 31.7881Z" fill="url(#paint0_linear_12792_126805)"/>
<path d="M16.608 35.4681L15.0403 36.7101L15.0483 36.72L16.608 35.4681ZM31.808 35.4361L33.3757 36.6781L31.808 35.4361ZM31.84 17.1001L30.2723 18.3421L30.2803 18.352L31.84 17.1001ZM16.64 17.1321L15.0822 15.8778L15.0772 15.884L15.0723 15.8902L16.64 17.1321ZM28.928 32.8441L30.5874 33.9605L28.928 32.8441ZM19.552 32.8121L21.2207 31.7096L19.552 32.8121ZM19.52 19.6921L17.8606 18.5758L17.8535 18.5862L17.8466 18.5968L19.52 19.6921ZM28.896 19.7241L27.2273 20.8266L27.2273 20.8266L28.896 19.7241ZM11.696 26.2841C11.696 30.3321 12.7609 33.8327 15.0403 36.7101L18.1757 34.2262C16.5511 32.1755 15.696 29.5962 15.696 26.2841H11.696ZM15.0483 36.72C17.3778 39.6224 20.4783 41.1161 24.192 41.1161V37.1161C21.6977 37.1161 19.7422 36.1779 18.1677 34.2162L15.0483 36.72ZM24.192 41.1161C27.9011 41.1161 31.0407 39.6255 33.3757 36.6781L30.2403 34.1942C28.6713 36.1748 26.6909 37.1161 24.192 37.1161V41.1161ZM33.3757 36.6781C35.6499 33.8073 36.752 30.2779 36.752 26.2201H32.752C32.752 29.5224 31.8701 32.1369 30.2403 34.1942L33.3757 36.6781ZM36.752 26.2201C36.752 22.205 35.6873 18.6984 33.3997 15.8482L30.2803 18.352C31.8967 20.3659 32.752 22.9393 32.752 26.2201H36.752ZM33.4077 15.8582C31.0772 12.9165 27.9724 11.4201 24.256 11.4201V15.4201C26.7476 15.4201 28.6988 16.3558 30.2723 18.3421L33.4077 15.8582ZM24.256 11.4201C20.5222 11.4201 17.4303 12.9616 15.0822 15.8778L18.1978 18.3864C19.8177 16.3746 21.7818 15.4201 24.256 15.4201V11.4201ZM15.0723 15.8902C12.8018 18.7562 11.696 22.2515 11.696 26.2841H15.696C15.696 23.0208 16.5742 20.436 18.2077 18.3741L15.0723 15.8902ZM28.688 26.2841C28.688 28.5838 28.1783 30.3755 27.2686 31.7278L30.5874 33.9605C32.0458 31.7927 32.688 29.1684 32.688 26.2841H28.688ZM27.2686 31.7278C26.4034 33.0137 25.4531 33.5001 24.256 33.5001V37.5001C26.9629 37.5001 29.0846 36.1945 30.5874 33.9605L27.2686 31.7278ZM24.256 33.5001C23.0515 33.5001 22.0783 33.0077 21.2207 31.7096L17.8833 33.9146C19.3937 36.2006 21.5565 37.5001 24.256 37.5001V33.5001ZM21.2207 31.7096C20.2999 30.316 19.792 28.5154 19.792 26.2201H15.792C15.792 29.1089 16.4361 31.7242 17.8833 33.9146L21.2207 31.7096ZM19.792 26.2201C19.792 23.9265 20.2993 22.1534 21.1934 20.7874L17.8466 18.5968C16.4367 20.7508 15.792 23.3298 15.792 26.2201H19.792ZM21.1794 20.8085C22.0446 19.5225 22.9949 19.0361 24.192 19.0361V15.0361C21.4851 15.0361 19.3634 16.3417 17.8606 18.5758L21.1794 20.8085ZM24.192 19.0361C25.3965 19.0361 26.3697 19.5286 27.2273 20.8266L30.5647 18.6216C29.0543 16.3357 26.8915 15.0361 24.192 15.0361V19.0361ZM27.2273 20.8266C28.1601 22.2384 28.688 24.0152 28.688 26.2841H32.688C32.688 23.3691 31.9999 20.7938 30.5647 18.6216L27.2273 20.8266ZM51.7015 25.9001H49.7015V27.2683L50.9766 27.7641L51.7015 25.9001ZM51.7015 25.8681L50.8346 24.0658L49.7015 24.6108V25.8681H51.7015ZM38.7095 19.0521L36.8195 18.3979L36.2254 20.1143L37.8768 20.8705L38.7095 19.0521ZM42.1335 20.6201L41.3008 22.4385L43.1674 23.2933L43.9731 21.405L42.1335 20.6201ZM50.1975 23.2121L48.9006 21.6896L48.8863 21.7018L48.8724 21.7141L50.1975 23.2121ZM44.5655 24.3001V22.3001H42.5655V24.3001H44.5655ZM44.5655 27.8521H42.5655V29.8521H44.5655V27.8521ZM50.6135 29.0041L49.2848 30.4989L49.3139 30.5248L49.344 30.5496L50.6135 29.0041ZM50.5815 34.4121L51.8243 35.9791L51.8406 35.9662L51.8566 35.9529L50.5815 34.4121ZM41.7495 31.8201L43.5791 31.0123L42.738 29.1075L40.8687 30.0245L41.7495 31.8201ZM38.3575 33.4841L37.4767 31.6885L35.8094 32.5064L36.5016 34.2296L38.3575 33.4841ZM53.4935 37.0041L54.7854 38.5309L54.788 38.5287L53.4935 37.0041ZM58.0215 31.7881C58.0215 30.0232 57.5635 28.399 56.5533 27.024C55.5538 25.6636 54.1238 24.6962 52.4264 24.0361L50.9766 27.7641C52.1592 28.224 52.8892 28.7927 53.3297 29.3923C53.7595 29.9772 54.0215 30.7371 54.0215 31.7881H58.0215ZM53.7015 25.9001V25.8681H49.7015V25.9001H53.7015ZM52.5684 27.6705C54.0889 26.9391 55.3427 25.9371 56.2091 24.6182C57.0805 23.2917 57.4775 21.7697 57.4775 20.1401H53.4775C53.4775 21.1025 53.2505 21.8365 52.8659 22.422C52.4763 23.0151 51.8421 23.5811 50.8346 24.0658L52.5684 27.6705ZM57.4775 20.1401C57.4775 17.6153 56.4131 15.5162 54.5202 13.865L51.8908 16.8793C53.0059 17.8521 53.4775 18.8889 53.4775 20.1401H57.4775ZM54.5202 13.865C52.5498 12.1461 49.9815 11.4201 47.0935 11.4201V15.4201C49.3255 15.4201 50.8532 15.9741 51.8908 16.8793L54.5202 13.865ZM47.0935 11.4201C42.0147 11.4201 38.2599 14.2367 36.8195 18.3979L40.5995 19.7063C41.4631 17.2115 43.6603 15.4201 47.0935 15.4201V11.4201ZM37.8768 20.8705L41.3008 22.4385L42.9662 18.8017L39.5422 17.2337L37.8768 20.8705ZM43.9731 21.405C44.3851 20.4392 44.8568 19.8591 45.3154 19.5197C45.7534 19.1954 46.2941 19.0041 47.0295 19.0041V15.0041C45.5249 15.0041 44.1296 15.4208 42.9356 16.3046C41.7622 17.1731 40.9059 18.4011 40.2939 19.8352L43.9731 21.405ZM47.0295 19.0041C48.095 19.0041 48.7153 19.2876 49.0307 19.5499C49.3157 19.7869 49.4775 20.1025 49.4775 20.5561H53.4775C53.4775 18.9618 52.8233 17.5014 51.5883 16.4744C50.3837 15.4726 48.78 15.0041 47.0295 15.0041V19.0041ZM49.4775 20.5561C49.4775 20.9569 49.3476 21.3088 48.9006 21.6896L51.4944 24.7346C52.7754 23.6434 53.4775 22.2033 53.4775 20.5561H49.4775ZM48.8724 21.7141C48.4745 22.0661 47.9213 22.3001 47.0295 22.3001V26.3001C48.6977 26.3001 50.2565 25.8302 51.5226 24.7101L48.8724 21.7141ZM47.0295 22.3001H44.5655V26.3001H47.0295V22.3001ZM42.5655 24.3001V27.8521H46.5655V24.3001H42.5655ZM44.5655 29.8521H47.2535V25.8521H44.5655V29.8521ZM47.2535 29.8521C48.238 29.8521 48.8542 30.1162 49.2848 30.4989L51.9422 27.5093C50.6448 26.356 49.021 25.8521 47.2535 25.8521V29.8521ZM49.344 30.5496C49.8124 30.9343 49.9575 31.3103 49.9575 31.7241H53.9575C53.9575 30.026 53.2066 28.546 51.883 27.4587L49.344 30.5496ZM49.9575 31.7241C49.9575 32.0638 49.848 32.4231 49.3064 32.8713L51.8566 35.9529C53.171 34.8652 53.9575 33.4325 53.9575 31.7241H49.9575ZM49.3387 32.8451C48.7936 33.2775 48.1211 33.5321 47.1895 33.5321V37.5321C48.9459 37.5321 50.5134 37.0188 51.8243 35.9791L49.3387 32.8451ZM47.1895 33.5321C46.2677 33.5321 45.5865 33.3098 45.0573 32.9484C44.5197 32.5814 44.0062 31.9795 43.5791 31.0123L39.9199 32.628C40.5808 34.1248 41.5233 35.3789 42.8017 36.2518C44.0885 37.1305 45.5833 37.5321 47.1895 37.5321V33.5321ZM40.8687 30.0245L37.4767 31.6885L39.2383 35.2797L42.6304 33.6157L40.8687 30.0245ZM36.5016 34.2296C37.3815 36.4198 38.7266 38.1855 40.5908 39.3857C42.4452 40.5796 44.6605 41.1161 47.1255 41.1161V37.1161C45.2385 37.1161 43.8218 36.7086 42.7562 36.0225C41.7004 35.3428 40.8375 34.2924 40.2134 32.7386L36.5016 34.2296ZM47.1255 41.1161C50.1003 41.1161 52.6969 40.2981 54.7854 38.5309L52.2016 35.4774C50.9621 36.5262 49.3347 37.1161 47.1255 37.1161V41.1161ZM54.788 38.5287C56.8922 36.7421 58.0215 34.4729 58.0215 31.7881H54.0215C54.0215 33.1993 53.4868 34.3862 52.199 35.4795L54.788 38.5287Z" fill="white"/>
<defs>
<linearGradient id="paint0_linear_12792_126805" x1="12" y1="-3.33847" x2="52.3694" y2="-2.13766" gradientUnits="userSpaceOnUse">
<stop stop-color="#A10C74"/>
<stop offset="1" stop-color="#FE826C"/>
</linearGradient>
</defs>
</svg>
