<svg width="54" height="45" viewBox="0 0 54 45" fill="none" xmlns="http://www.w3.org/2000/svg">
<rect y="0.828125" width="33" height="33" rx="4.82945" fill="white" fill-opacity="0.4"/>
<path d="M13.696 26.2841C13.696 29.9641 14.656 33.0041 16.608 35.4681C18.56 37.9001 21.088 39.1161 24.192 39.1161C27.296 39.1161 29.856 37.9001 31.808 35.4361C33.76 32.9721 34.752 29.9001 34.752 26.2201C34.752 22.5721 33.792 19.5321 31.84 17.1001C29.888 14.6361 27.36 13.4201 24.256 13.4201C21.152 13.4201 18.624 14.6681 16.64 17.1321C14.688 19.5961 13.696 22.6361 13.696 26.2841ZM30.688 26.2841C30.688 28.8761 30.112 31.0841 28.928 32.8441C27.744 34.6041 26.208 35.5001 24.256 35.5001C22.304 35.5001 20.736 34.6041 19.552 32.8121C18.368 31.0201 17.792 28.8121 17.792 26.2201C17.792 23.6281 18.368 21.4521 19.52 19.6921C20.704 17.9321 22.24 17.0361 24.192 17.0361C26.144 17.0361 27.712 17.9321 28.896 19.7241C30.08 21.5161 30.688 23.6921 30.688 26.2841ZM37.3015 18.3801L39.1255 21.3881L44.7575 17.9961V38.8281H48.6935V13.7721H44.9495L37.3015 18.3801Z" fill="url(#paint0_linear_12792_126795)"/>
<path d="M16.608 35.4681L15.0403 36.7101L15.0483 36.72L16.608 35.4681ZM31.808 35.4361L33.3757 36.6781L31.808 35.4361ZM31.84 17.1001L30.2723 18.3421L30.2803 18.352L31.84 17.1001ZM16.64 17.1321L15.0822 15.8778L15.0772 15.884L15.0723 15.8902L16.64 17.1321ZM28.928 32.8441L30.5874 33.9605L28.928 32.8441ZM19.552 32.8121L21.2207 31.7096L19.552 32.8121ZM19.52 19.6921L17.8606 18.5758L17.8535 18.5862L17.8466 18.5968L19.52 19.6921ZM28.896 19.7241L27.2273 20.8266L27.2273 20.8266L28.896 19.7241ZM11.696 26.2841C11.696 30.3321 12.7609 33.8327 15.0403 36.7101L18.1757 34.2262C16.5511 32.1755 15.696 29.5962 15.696 26.2841H11.696ZM15.0483 36.72C17.3778 39.6224 20.4783 41.1161 24.192 41.1161V37.1161C21.6977 37.1161 19.7422 36.1779 18.1677 34.2162L15.0483 36.72ZM24.192 41.1161C27.9011 41.1161 31.0407 39.6255 33.3757 36.6781L30.2403 34.1942C28.6713 36.1748 26.6909 37.1161 24.192 37.1161V41.1161ZM33.3757 36.6781C35.6499 33.8073 36.752 30.2779 36.752 26.2201H32.752C32.752 29.5224 31.8701 32.1369 30.2403 34.1942L33.3757 36.6781ZM36.752 26.2201C36.752 22.205 35.6873 18.6984 33.3997 15.8482L30.2803 18.352C31.8967 20.3659 32.752 22.9393 32.752 26.2201H36.752ZM33.4077 15.8582C31.0772 12.9165 27.9724 11.4201 24.256 11.4201V15.4201C26.7476 15.4201 28.6988 16.3558 30.2723 18.3421L33.4077 15.8582ZM24.256 11.4201C20.5222 11.4201 17.4303 12.9616 15.0822 15.8778L18.1978 18.3864C19.8177 16.3746 21.7818 15.4201 24.256 15.4201V11.4201ZM15.0723 15.8902C12.8018 18.7562 11.696 22.2515 11.696 26.2841H15.696C15.696 23.0208 16.5742 20.436 18.2077 18.3741L15.0723 15.8902ZM28.688 26.2841C28.688 28.5838 28.1783 30.3755 27.2686 31.7278L30.5874 33.9605C32.0458 31.7927 32.688 29.1684 32.688 26.2841H28.688ZM27.2686 31.7278C26.4034 33.0137 25.4531 33.5001 24.256 33.5001V37.5001C26.9629 37.5001 29.0846 36.1945 30.5874 33.9605L27.2686 31.7278ZM24.256 33.5001C23.0515 33.5001 22.0783 33.0077 21.2207 31.7096L17.8833 33.9146C19.3937 36.2006 21.5565 37.5001 24.256 37.5001V33.5001ZM21.2207 31.7096C20.2999 30.316 19.792 28.5154 19.792 26.2201H15.792C15.792 29.1089 16.4361 31.7242 17.8833 33.9146L21.2207 31.7096ZM19.792 26.2201C19.792 23.9265 20.2993 22.1534 21.1934 20.7874L17.8466 18.5968C16.4367 20.7508 15.792 23.3298 15.792 26.2201H19.792ZM21.1794 20.8085C22.0446 19.5225 22.9949 19.0361 24.192 19.0361V15.0361C21.4851 15.0361 19.3634 16.3417 17.8606 18.5758L21.1794 20.8085ZM24.192 19.0361C25.3965 19.0361 26.3697 19.5286 27.2273 20.8266L30.5647 18.6216C29.0543 16.3357 26.8915 15.0361 24.192 15.0361V19.0361ZM27.2273 20.8266C28.1601 22.2384 28.688 24.0152 28.688 26.2841H32.688C32.688 23.3691 31.9999 20.7938 30.5647 18.6216L27.2273 20.8266ZM37.3015 18.3801L36.2693 16.667L34.5514 17.7021L35.5913 19.4171L37.3015 18.3801ZM39.1255 21.3881L37.4153 22.4251L38.4492 24.1301L40.1574 23.1014L39.1255 21.3881ZM44.7575 17.9961H46.7575V14.4569L43.7256 16.2829L44.7575 17.9961ZM44.7575 38.8281H42.7575V40.8281H44.7575V38.8281ZM48.6935 38.8281V40.8281H50.6935V38.8281H48.6935ZM48.6935 13.7721H50.6935V11.7721H48.6935V13.7721ZM44.9495 13.7721V11.7721H44.3935L43.9173 12.059L44.9495 13.7721ZM35.5913 19.4171L37.4153 22.4251L40.8357 20.3511L39.0117 17.3431L35.5913 19.4171ZM40.1574 23.1014L45.7894 19.7094L43.7256 16.2829L38.0936 19.6749L40.1574 23.1014ZM42.7575 17.9961V38.8281H46.7575V17.9961H42.7575ZM44.7575 40.8281H48.6935V36.8281H44.7575V40.8281ZM50.6935 38.8281V13.7721H46.6935V38.8281H50.6935ZM48.6935 11.7721H44.9495V15.7721H48.6935V11.7721ZM43.9173 12.059L36.2693 16.667L38.3337 20.0932L45.9817 15.4852L43.9173 12.059Z" fill="white"/>
<defs>
<linearGradient id="paint0_linear_12792_126795" x1="12" y1="-3.33847" x2="48.0812" y2="-2.37939" gradientUnits="userSpaceOnUse">
<stop stop-color="#A10C74"/>
<stop offset="1" stop-color="#FE826C"/>
</linearGradient>
</defs>
</svg>
