<svg width="170" height="47" viewBox="0 0 170 47" fill="none" xmlns="http://www.w3.org/2000/svg">
<rect x="0.0859375" y="0.390625" width="169" height="46" rx="6" fill="#F6F6F6"/>
<path d="M26.4459 16.3486H30.9099V28.3906H33.1239V16.3486H37.6059V14.2966H26.4459V16.3486ZM42.9069 18.7426C42.7809 18.7066 42.6189 18.6886 42.3849 18.6886C41.2149 18.6886 40.3329 19.2286 39.7389 20.3086V18.7786H37.6509V28.3906H39.7929V23.5126C39.7929 21.8386 40.6569 20.8846 42.2949 20.8846C42.5289 20.8846 42.7269 20.9026 42.9069 20.9386V18.7426ZM44.7893 16.6546C45.3473 17.2126 46.2113 17.2126 46.7693 16.6546C47.3273 16.0966 47.3273 15.2326 46.7693 14.6746C46.2113 14.0986 45.3473 14.0986 44.7893 14.6746C44.2313 15.2326 44.2313 16.0966 44.7893 16.6546ZM46.8593 18.7786H44.7173V28.3906H46.8593V18.7786ZM59.7531 23.5486C59.7531 22.2706 59.3211 21.1186 58.4391 20.1106C57.5751 19.1026 56.4411 18.5986 55.0371 18.5986C54.4791 18.5986 53.8851 18.7426 53.2551 19.0306C52.6251 19.3006 52.1751 19.6966 51.8691 20.2006V13.7386H49.7271V28.3906H51.8151V26.9146C52.1211 27.4186 52.5891 27.8146 53.2191 28.1026C53.8491 28.3906 54.4431 28.5346 54.9831 28.5346C56.3691 28.5346 57.5031 28.0486 58.4031 27.0586C59.3031 26.0686 59.7531 24.8986 59.7531 23.5486ZM52.6251 21.4066C53.1651 20.8126 53.8671 20.5246 54.7131 20.5246C55.5591 20.5246 56.2611 20.8126 56.7831 21.4066C57.3231 22.0006 57.5931 22.7206 57.5931 23.5666C57.5931 24.4126 57.3231 25.1326 56.7831 25.7266C56.2611 26.3026 55.5591 26.5906 54.7131 26.5906C53.8671 26.5906 53.1651 26.3026 52.6251 25.7266C52.1031 25.1326 51.8331 24.4126 51.8331 23.5666C51.8331 22.7206 52.1031 22.0006 52.6251 21.4066ZM67.4691 21.8746C67.4691 22.4146 67.1631 22.6846 66.5691 22.6846H65.3811C63.6891 22.6846 61.3851 23.3866 61.3851 25.6186V25.7266C61.3851 26.5546 61.6911 27.2386 62.3031 27.7606C62.9151 28.2826 63.6891 28.5526 64.6251 28.5526C65.9211 28.5526 66.8571 28.0666 67.4511 27.0766V28.3906H69.5571V22.2706C69.5571 21.6046 69.4491 21.0286 69.2331 20.5426C68.6391 19.2286 67.4331 18.5806 65.6331 18.5806C63.6711 18.5806 62.3031 19.3906 61.5471 21.0286L63.1851 21.9646C63.6711 20.9386 64.4811 20.4346 65.5791 20.4346C66.7851 20.4346 67.4691 21.0826 67.4691 21.8746ZM67.4511 24.5026C67.4511 25.9426 66.5151 26.8426 65.0571 26.8426C64.1391 26.8426 63.5271 26.3206 63.5271 25.5286C63.5271 25.1146 63.7251 24.7906 64.1031 24.5566C64.4991 24.3226 64.9311 24.1966 65.3811 24.1966H67.4511V24.5026ZM72.3326 28.3906H74.4746V13.7386H72.3326V28.3906ZM82.4484 28.3906H84.6624V14.2966H82.4484V28.3906ZM86.8092 16.3486H91.2732V28.3906H93.4872V16.3486H97.9692V14.2966H86.8092V16.3486ZM114.146 18.6706C114.146 17.4646 113.732 16.4206 112.904 15.5746C112.094 14.7286 110.852 14.2966 109.214 14.2966H104.228V28.3906H106.442V23.1706H108.944C110.582 23.1706 111.842 22.7386 112.76 21.8926C113.678 21.0286 114.146 19.9486 114.146 18.6706ZM109.016 16.3486C110.06 16.3486 110.798 16.5826 111.23 17.0506C111.68 17.5186 111.896 18.0766 111.896 18.7246C111.896 20.0206 110.978 21.1366 109.016 21.1366H106.442V16.3486H109.016ZM121.381 21.8746C121.381 22.4146 121.075 22.6846 120.481 22.6846H119.293C117.601 22.6846 115.297 23.3866 115.297 25.6186V25.7266C115.297 26.5546 115.603 27.2386 116.215 27.7606C116.827 28.2826 117.601 28.5526 118.537 28.5526C119.833 28.5526 120.769 28.0666 121.363 27.0766V28.3906H123.469V22.2706C123.469 21.6046 123.361 21.0286 123.145 20.5426C122.551 19.2286 121.345 18.5806 119.545 18.5806C117.583 18.5806 116.215 19.3906 115.459 21.0286L117.097 21.9646C117.583 20.9386 118.393 20.4346 119.491 20.4346C120.697 20.4346 121.381 21.0826 121.381 21.8746ZM121.363 24.5026C121.363 25.9426 120.427 26.8426 118.969 26.8426C118.051 26.8426 117.439 26.3206 117.439 25.5286C117.439 25.1146 117.637 24.7906 118.015 24.5566C118.411 24.3226 118.843 24.1966 119.293 24.1966H121.363V24.5026ZM131.501 18.7426C131.375 18.7066 131.213 18.6886 130.979 18.6886C129.809 18.6886 128.927 19.2286 128.333 20.3086V18.7786H126.245V28.3906H128.387V23.5126C128.387 21.8386 129.251 20.8846 130.889 20.8846C131.123 20.8846 131.321 20.9026 131.501 20.9386V18.7426ZM133.311 28.3906H135.453V23.6926H135.507L139.521 28.3906H142.347L137.775 23.1346L142.113 18.7786H139.197L135.471 22.5586H135.453V13.7386H133.311V28.3906Z" fill="url(#paint0_linear_12869_50880)"/>
<defs>
<linearGradient id="paint0_linear_12869_50880" x1="26.0859" y1="-0.442653" x2="125.735" y2="9.20643" gradientUnits="userSpaceOnUse">
<stop stop-color="#A10C74"/>
<stop offset="1" stop-color="#FE826C"/>
</linearGradient>
</defs>
</svg>
