<svg width="157" height="157" viewBox="0 0 157 157" fill="none" xmlns="http://www.w3.org/2000/svg">
<g clip-path="url(#clip0_12792_131598)">
<path d="M105.798 106.477C97.0936 106.011 88.5183 104.175 80.388 101.038C72.4145 97.9638 64.9257 93.7588 58.1517 88.5526C44.7452 78.4062 34.7237 64.4455 29.4023 48.5028C36.1052 63.3559 47.157 75.8282 61.1005 84.2749C74.4677 92.6381 90.0593 96.7569 105.82 96.0885L105.798 106.477Z" fill="#A51174"/>
<path d="M101.887 87.8437L125.156 101.327L101.84 114.724L101.887 87.8437Z" fill="#A51174"/>
<path d="M99.7679 109.752C94.9774 109.833 90.1959 109.312 85.5364 108.2C80.8489 107.128 76.2828 105.583 71.9083 103.588C69.6996 102.611 67.6009 101.443 65.4989 100.262C64.4633 99.6542 63.4828 98.9511 62.4747 98.2957L60.9744 97.3563L59.5591 96.2332C58.6311 95.4758 57.6689 94.741 56.7502 93.9677L54.1607 91.4691C53.7509 91.0423 53.3036 90.6256 52.9064 90.1955L51.7448 88.8166C50.9871 87.8929 50.2419 86.9658 49.5059 86.0228C50.4517 86.7799 51.3671 87.5407 52.2522 88.3051L53.5957 89.4608C54.0547 89.8208 54.5353 90.1615 55.0068 90.518L57.8164 92.6357L60.7294 94.538C64.6251 97.1043 68.7244 99.3481 72.9862 101.247C77.2386 103.19 81.6074 104.869 86.0674 106.273C90.5715 107.667 95.1443 108.828 99.7679 109.752Z" fill="url(#paint0_linear_12792_131598)"/>
<path d="M32.7559 47.3584C37.6492 54.0956 42.5313 60.5406 47.9143 66.6502C50.5853 69.7038 53.4391 72.5877 56.3764 75.3821C59.4076 78.1302 62.5937 80.7026 65.9192 83.0867C62.031 81.5532 58.3791 79.4791 55.0714 76.9257C51.7882 74.349 48.7424 71.484 45.9704 68.3649C43.2366 65.2221 40.7358 61.8842 38.4878 58.3779C36.2283 54.8968 34.3088 51.2067 32.7559 47.3584Z" fill="url(#paint1_linear_12792_131598)"/>
</g>
<defs>
<linearGradient id="paint0_linear_12792_131598" x1="107.537" y1="70.4736" x2="114.984" y2="100.445" gradientUnits="userSpaceOnUse">
<stop stop-color="#A10C74"/>
<stop offset="1" stop-color="#FE826C"/>
</linearGradient>
<linearGradient id="paint1_linear_12792_131598" x1="63.9363" y1="39.0037" x2="72.0551" y2="75.1191" gradientUnits="userSpaceOnUse">
<stop stop-color="#A10C74"/>
<stop offset="1" stop-color="#FE826C"/>
</linearGradient>
<clipPath id="clip0_12792_131598">
<rect width="82.9492" height="78.8371" fill="white" transform="translate(105.477 27.875) rotate(75)"/>
</clipPath>
</defs>
</svg>
