<svg width="51" height="51" viewBox="0 0 51 51" fill="none" xmlns="http://www.w3.org/2000/svg">
<path fill-rule="evenodd" clip-rule="evenodd" d="M25.5612 4.25011C15.767 4.21683 7.76708 12.0091 7.44733 21.7629L7.4375 22.3683C7.60029 27.1492 9.2269 31.7065 12.0919 35.4612L12.7647 36.3393C15.4993 39.8163 18.7491 42.8683 22.3981 45.3838L23.2766 45.9753L23.4048 46.0759C24.6555 46.9746 26.3442 46.9746 27.5948 46.0759L27.7016 45.9882C30.5969 44.1105 33.2669 41.9042 35.6585 39.413C40.5208 34.2661 43.4514 28.4989 43.562 22.6418L43.5623 22.4244C43.5955 12.6053 35.8272 4.5808 26.1034 4.25997L25.5612 4.25011ZM25.5503 7.47467C33.5796 7.50212 40.0987 13.9176 40.3408 21.9069L40.3477 22.6114C40.2547 27.5219 37.6836 32.5815 33.334 37.1857C31.1162 39.4958 28.6296 41.5493 25.9326 43.2958L25.7528 43.4309C25.6076 43.5569 25.3921 43.5569 25.2469 43.4309L25.0722 43.299C21.0544 40.6759 17.5282 37.364 14.6548 33.515C12.3403 30.4815 10.9687 26.8545 10.6927 23.0709L10.6521 22.3123C10.6794 14.2635 17.0751 7.72439 25.0398 7.48157L25.5503 7.47467ZM25.4998 15.7277C21.6995 15.7277 18.6187 18.818 18.6187 22.6301C18.6187 26.4422 21.6995 29.5325 25.4998 29.5325C29.3002 29.5325 32.381 26.4422 32.381 22.6301C32.381 18.818 29.3002 15.7277 25.4998 15.7277ZM25.4998 18.9523C27.5248 18.9523 29.1664 20.5989 29.1664 22.6301C29.1664 24.6613 27.5248 26.3079 25.4998 26.3079C23.4749 26.3079 21.8333 24.6613 21.8333 22.6301C21.8333 20.5989 23.4749 18.9523 25.4998 18.9523Z" fill="url(#paint0_linear_3788_20169)"/>
<defs>
<linearGradient id="paint0_linear_3788_20169" x1="7.4375" y1="-13.4582" x2="38.4832" y2="-12.8904" gradientUnits="userSpaceOnUse">
<stop stop-color="#A10C74"/>
<stop offset="1" stop-color="#FE826C"/>
</linearGradient>
</defs>
</svg>
