<svg width="44" height="44" viewBox="0 0 44 44" fill="none" xmlns="http://www.w3.org/2000/svg">
<path d="M12.4033 22.728C12.4033 24.568 12.8833 26.088 13.8593 27.32C14.8353 28.536 16.0993 29.144 17.6513 29.144C19.2033 29.144 20.4833 28.536 21.4593 27.304C22.4353 26.072 22.9313 24.536 22.9313 22.696C22.9313 20.872 22.4513 19.352 21.4753 18.136C20.4993 16.904 19.2353 16.296 17.6833 16.296C16.1313 16.296 14.8673 16.92 13.8753 18.152C12.8993 19.384 12.4033 20.904 12.4033 22.728ZM20.8993 22.728C20.8993 24.024 20.6113 25.128 20.0193 26.008C19.4273 26.888 18.6593 27.336 17.6833 27.336C16.7073 27.336 15.9233 26.888 15.3313 25.992C14.7393 25.096 14.4513 23.992 14.4513 22.696C14.4513 21.4 14.7393 20.312 15.3153 19.432C15.9073 18.552 16.6753 18.104 17.6513 18.104C18.6273 18.104 19.4113 18.552 20.0033 19.448C20.5953 20.344 20.8993 21.432 20.8993 22.728ZM25.1661 18.776L26.0781 20.28L28.8941 18.584V29H30.8621V16.472H28.9901L25.1661 18.776Z" fill="url(#paint0_linear_12792_132846)"/>
<rect x="0.5" y="0.5" width="43" height="43" rx="21.5" stroke="url(#paint1_linear_12792_132846)" stroke-dasharray="5 5"/>
<defs>
<linearGradient id="paint0_linear_12792_132846" x1="9.5" y1="5.12093e-05" x2="30.9813" y2="0.481546" gradientUnits="userSpaceOnUse">
<stop stop-color="#A10C74"/>
<stop offset="1" stop-color="#FE826C"/>
</linearGradient>
<linearGradient id="paint1_linear_12792_132846" x1="-2.03193e-06" y1="-18.3332" x2="37.8086" y2="-17.5197" gradientUnits="userSpaceOnUse">
<stop stop-color="#A10C74"/>
<stop offset="1" stop-color="#FE826C"/>
</linearGradient>
</defs>
</svg>
