<svg width="107" height="110" viewBox="0 0 107 110" fill="none" xmlns="http://www.w3.org/2000/svg">
<g clip-path="url(#clip0_12792_126815)">
<path d="M21.0703 78.0244C29.7111 79.1704 38.4777 78.9469 47.0469 77.3624C55.4505 75.8099 63.586 73.0572 71.2035 69.1887C86.2503 61.687 98.6732 49.8125 106.842 35.1236C97.5162 48.4869 84.355 58.7086 69.0936 64.4408C54.414 70.1971 38.3304 71.3717 22.9627 67.8098L21.0703 78.0244Z" fill="#A51174"/>
<path d="M28.3382 60.4286L2.98285 69.3925L23.4307 86.8575L28.3382 60.4286Z" fill="#A51174"/>
<path d="M26.3857 82.3574C31.0791 83.3206 35.8748 83.6893 40.6595 83.4547C45.4642 83.2651 50.2369 82.5881 54.904 81.4341C57.2551 80.8804 59.533 80.1191 61.8166 79.3462C62.9465 78.9397 64.0398 78.4294 65.1514 77.9709L66.7992 77.3242L68.3972 76.4812C69.4489 75.9078 70.53 75.3629 71.5756 74.7722L74.5812 72.7936C75.0626 72.4497 75.579 72.1226 76.0487 71.773L77.4446 70.6319C78.3596 69.8636 79.2628 69.0897 80.16 68.2986C79.0909 68.8684 78.0509 69.4474 77.0401 70.0356L75.5066 70.9239C74.9892 71.1931 74.454 71.4394 73.9249 71.7029L70.7731 73.2665L67.5594 74.5993C63.2574 76.4037 58.8149 77.8535 54.2761 78.9345C49.7383 80.0606 45.135 80.9053 40.4926 81.4635C35.8089 82.0028 31.1004 82.3012 26.3857 82.3574Z" fill="url(#paint0_linear_12792_126815)"/>
<path d="M103.741 33.3842C97.6899 39.1041 91.7036 44.5389 85.2867 49.5518C82.0987 52.0607 78.7622 54.3693 75.3603 56.5745C71.8745 58.7168 68.2688 60.6579 64.5609 62.3883C68.6651 61.5977 72.6368 60.2322 76.3584 58.3321C80.0602 56.4047 83.5819 54.1501 86.8813 51.5953C90.1475 49.0102 93.2207 46.1905 96.0764 43.1585C98.9388 40.1535 101.505 36.8804 103.741 33.3842Z" fill="url(#paint1_linear_12792_126815)"/>
</g>
<defs>
<linearGradient id="paint0_linear_12792_126815" x1="25.9894" y1="42.3203" x2="13.1452" y2="70.4051" gradientUnits="userSpaceOnUse">
<stop stop-color="#A10C74"/>
<stop offset="1" stop-color="#FE826C"/>
</linearGradient>
<linearGradient id="paint1_linear_12792_126815" x1="74.6346" y1="19.4259" x2="59.9986" y2="53.4263" gradientUnits="userSpaceOnUse">
<stop stop-color="#A10C74"/>
<stop offset="1" stop-color="#FE826C"/>
</linearGradient>
<clipPath id="clip0_12792_126815">
<rect width="82.9492" height="78.8371" fill="white" transform="matrix(-0.432412 0.901676 0.901676 0.432412 35.8672 0.828125)"/>
</clipPath>
</defs>
</svg>
