<svg width="25" height="28" viewBox="0 0 25 28" fill="none" xmlns="http://www.w3.org/2000/svg">
<path d="M5.86558 3.48894L5.6134 3.92069L5.86558 3.48894C5.10581 3.04518 4.42898 3.30283 4.11561 3.48305L4.36049 3.90885L4.1156 3.48306C3.80211 3.66335 3.2394 4.11861 3.2394 4.99846V22.5562C3.2394 23.4361 3.80211 23.8913 4.11561 24.0716C4.42898 24.2518 5.10582 24.5095 5.86558 24.0657L20.8956 15.2869L20.6434 14.8551L20.8956 15.2869C21.6493 14.8466 21.7617 14.1363 21.7617 13.7773C21.7617 13.4184 21.6493 12.708 20.8956 12.2678L5.86558 3.48894ZM24.5 13.7773C24.5 15.2874 23.7586 16.79 22.2749 17.6567L7.24487 26.4355C4.25624 28.1812 0.501047 26.0233 0.501047 22.5562V4.99846C0.501047 1.53138 4.25624 -0.626493 7.24487 1.11913L22.2749 9.89801C23.7586 10.7646 24.5 12.2673 24.5 13.7773Z" stroke="url(#paint0_linear_12799_132920)"/>
<defs>
<linearGradient id="paint0_linear_12799_132920" x1="35.4162" y1="-1.27248e-06" x2="34.8547" y2="23.675" gradientUnits="userSpaceOnUse">
<stop stop-color="#A10C74"/>
<stop offset="1" stop-color="#FE826C"/>
</linearGradient>
</defs>
</svg>
