<svg width="19" height="18" viewBox="0 0 19 18" fill="none" xmlns="http://www.w3.org/2000/svg">
<path d="M15.0372 11.4932C14.8056 11.7176 14.6992 12.0421 14.752 12.3604L15.5468 16.759C15.6138 17.1318 15.4565 17.5091 15.1445 17.7245C14.8387 17.948 14.4319 17.9748 14.0984 17.796L10.1388 15.7308C10.0011 15.6575 9.84825 15.6182 9.6918 15.6137H9.44952C9.36548 15.6262 9.28323 15.6531 9.20813 15.6942L5.2476 17.7692C5.05181 17.8676 4.83009 17.9024 4.61284 17.8676C4.08358 17.7674 3.73044 17.2632 3.81716 16.7313L4.61284 12.3327C4.66559 12.0117 4.5592 11.6854 4.32765 11.4574L1.09932 8.32831C0.829326 8.06636 0.735453 7.67299 0.858828 7.31806C0.978628 6.96403 1.28438 6.70566 1.65362 6.64754L6.09692 6.00295C6.43486 5.96808 6.73168 5.76246 6.88367 5.45849L8.84158 1.44432C8.88807 1.35491 8.94797 1.27266 9.02039 1.20293L9.10085 1.14035C9.14287 1.09386 9.19114 1.05541 9.24479 1.02412L9.34223 0.988363L9.49422 0.925781H9.8706C10.2068 0.960648 10.5027 1.1618 10.6573 1.4622L12.6412 5.45849C12.7842 5.75084 13.0623 5.95378 13.3832 6.00295L17.8265 6.64754C18.202 6.70118 18.5158 6.96045 18.6401 7.31806C18.7572 7.67657 18.6562 8.06994 18.3808 8.32831L15.0372 11.4932Z" fill="#C7C7C7"/>
</svg>
