<svg width="19" height="18" viewBox="0 0 19 18" fill="none" xmlns="http://www.w3.org/2000/svg">
<path d="M15.0045 11.4932C14.7729 11.7176 14.6665 12.0421 14.7193 12.3604L15.5141 16.759C15.5811 17.1318 15.4238 17.5091 15.1117 17.7245C14.806 17.948 14.3992 17.9748 14.0657 17.796L10.1061 15.7308C9.96842 15.6575 9.81554 15.6182 9.65908 15.6137H9.4168C9.33276 15.6262 9.25051 15.6531 9.17542 15.6942L5.21488 17.7692C5.01909 17.8676 4.79737 17.9024 4.58013 17.8676C4.05086 17.7674 3.69772 17.2632 3.78444 16.7313L4.58013 12.3327C4.63287 12.0117 4.52648 11.6854 4.29493 11.4574L1.06661 8.32831C0.796611 8.06636 0.702738 7.67299 0.826113 7.31806C0.945913 6.96403 1.25167 6.70566 1.6209 6.64754L6.06421 6.00295C6.40215 5.96808 6.69897 5.76246 6.85095 5.45849L8.80887 1.44432C8.85535 1.35491 8.91525 1.27266 8.98767 1.20293L9.06813 1.14035C9.11015 1.09386 9.15843 1.05541 9.21207 1.02412L9.30952 0.988363L9.4615 0.925781H9.83789C10.174 0.960648 10.47 1.1618 10.6246 1.4622L12.6085 5.45849C12.7515 5.75084 13.0296 5.95378 13.3505 6.00295L17.7938 6.64754C18.1693 6.70118 18.4831 6.96045 18.6074 7.31806C18.7245 7.67657 18.6235 8.06994 18.3481 8.32831L15.0045 11.4932Z" fill="#EBAA00"/>
</svg>
