<svg width="44" height="44" viewBox="0 0 44 44" fill="none" xmlns="http://www.w3.org/2000/svg">
<path d="M10.9189 22.728C10.9189 24.568 11.3989 26.088 12.3749 27.32C13.3509 28.536 14.6149 29.144 16.1669 29.144C17.7189 29.144 18.9989 28.536 19.9749 27.304C20.9509 26.072 21.4469 24.536 21.4469 22.696C21.4469 20.872 20.9669 19.352 19.9909 18.136C19.0149 16.904 17.7509 16.296 16.1989 16.296C14.6469 16.296 13.3829 16.92 12.3909 18.152C11.4149 19.384 10.9189 20.904 10.9189 22.728ZM19.4149 22.728C19.4149 24.024 19.1269 25.128 18.5349 26.008C17.9429 26.888 17.1749 27.336 16.1989 27.336C15.2229 27.336 14.4389 26.888 13.8469 25.992C13.2549 25.096 12.9669 23.992 12.9669 22.696C12.9669 21.4 13.2549 20.312 13.8309 19.432C14.4229 18.552 15.1909 18.104 16.1669 18.104C17.1429 18.104 17.9269 18.552 18.5189 19.448C19.1109 20.344 19.4149 21.432 19.4149 22.728ZM33.0417 25.48C33.0417 24.072 32.3217 23.096 30.8817 22.536V22.52C32.1457 21.912 32.7697 20.952 32.7697 19.656C32.7697 18.712 32.3857 17.928 31.6337 17.272C30.8817 16.616 29.8577 16.296 28.5777 16.296C26.4497 16.296 24.9617 17.448 24.3857 19.112L26.0977 19.896C26.6097 18.696 27.4257 18.088 28.5457 18.088C29.9537 18.088 30.7697 18.84 30.7697 19.864C30.7697 20.376 30.5617 20.824 30.1297 21.192C29.7137 21.56 29.1857 21.736 28.5457 21.736H27.3137V23.512H28.6577C29.3457 23.512 29.9057 23.704 30.3377 24.088C30.7857 24.456 31.0097 24.92 31.0097 25.448C31.0097 25.96 30.7857 26.408 30.3217 26.792C29.8577 27.16 29.2977 27.352 28.6257 27.352C27.3617 27.352 26.4497 26.728 25.9057 25.496L24.2097 26.328C24.9617 28.2 26.4177 29.144 28.5937 29.144C29.8897 29.144 30.9457 28.792 31.7777 28.088C32.6257 27.368 33.0417 26.504 33.0417 25.48Z" fill="url(#paint0_linear_12792_132850)"/>
<rect x="0.5" y="0.5" width="43" height="43" rx="21.5" stroke="url(#paint1_linear_12792_132850)" stroke-dasharray="5 5"/>
<defs>
<linearGradient id="paint0_linear_12792_132850" x1="7.5" y1="5.12093e-05" x2="32.414" y2="0.647838" gradientUnits="userSpaceOnUse">
<stop stop-color="#A10C74"/>
<stop offset="1" stop-color="#FE826C"/>
</linearGradient>
<linearGradient id="paint1_linear_12792_132850" x1="-2.03193e-06" y1="-18.3332" x2="37.8086" y2="-17.5197" gradientUnits="userSpaceOnUse">
<stop stop-color="#A10C74"/>
<stop offset="1" stop-color="#FE826C"/>
</linearGradient>
</defs>
</svg>
