<svg width="42" height="42" viewBox="0 0 42 42" fill="none" xmlns="http://www.w3.org/2000/svg">
<path d="M4.75472 0.5H37.2453C39.5951 0.5 41.5 2.4049 41.5 4.75472V37.2453C41.5 39.5951 39.5951 41.5 37.2453 41.5H4.75472C2.4049 41.5 0.5 39.5951 0.5 37.2453V4.75472C0.5 2.4049 2.4049 0.5 4.75472 0.5Z" stroke="url(#paint0_linear_12792_132845)"/>
<path d="M17.2912 19.6319C16.9007 19.2415 16.2676 19.2415 15.8771 19.632L15.8014 19.7076C15.4109 20.0982 15.4109 20.7314 15.8015 21.1219L19.176 24.4958C19.5665 24.8863 20.1996 24.8863 20.5901 24.4958L29.8186 15.2673C30.2091 14.8767 30.2091 14.2436 29.8186 13.8531L29.743 13.7775C29.3525 13.3869 28.7193 13.3869 28.3288 13.7775L20.5901 21.5162C20.1996 21.9066 19.5665 21.9067 19.176 21.5162L17.2912 19.6319ZM30.4614 20.9473C29.9092 20.9473 29.4675 21.3966 29.4028 21.9451C29.2458 23.2758 28.7762 24.5556 28.0266 25.6775C27.091 27.0777 25.7613 28.1689 24.2055 28.8133C22.6498 29.4578 20.9379 29.6264 19.2863 29.2978C17.6347 28.9693 16.1177 28.1584 14.9269 26.9677C13.7362 25.777 12.9253 24.2599 12.5968 22.6084C12.2683 20.9568 12.4369 19.2449 13.0813 17.6891C13.7257 16.1334 14.817 14.8036 16.2171 13.8681C17.6173 12.9326 19.2634 12.4332 20.9473 12.4332C21.543 12.4283 22.1369 12.4875 22.7188 12.6094C23.0738 12.6838 23.4481 12.5913 23.7046 12.335L23.8709 12.1688C24.3909 11.6494 24.1878 10.7715 23.4705 10.6116C22.6428 10.4271 21.7977 10.324 20.9473 10.3047C18.8424 10.3047 16.7848 10.9289 15.0346 12.0983C13.2844 13.2677 11.9203 14.9299 11.1148 16.8746C10.3093 18.8193 10.0985 20.9591 10.5092 23.0236C10.9198 25.0881 11.9334 26.9844 13.4218 28.4728C14.9103 29.9612 16.8066 30.9748 18.8711 31.3855C20.9355 31.7961 23.0754 31.5854 25.0201 30.7798C26.9648 29.9743 28.6269 28.6102 29.7964 26.8601C30.78 25.3879 31.3779 23.6982 31.543 21.9459C31.5949 21.396 31.1423 20.9473 30.59 20.9473H30.4614Z" fill="url(#paint1_linear_12792_132845)"/>
<defs>
<linearGradient id="paint0_linear_12792_132845" x1="-1.93957e-06" y1="-17.4999" x2="36.09" y2="-16.7233" gradientUnits="userSpaceOnUse">
<stop stop-color="#A10C74"/>
<stop offset="1" stop-color="#FE826C"/>
</linearGradient>
<linearGradient id="paint1_linear_12792_132845" x1="10.3047" y1="1.43586" x2="28.5948" y2="1.82943" gradientUnits="userSpaceOnUse">
<stop stop-color="#A10C74"/>
<stop offset="1" stop-color="#FE826C"/>
</linearGradient>
</defs>
</svg>
