<svg width="44" height="44" viewBox="0 0 44 44" fill="none" xmlns="http://www.w3.org/2000/svg">
<path d="M10.8408 22.728C10.8408 24.568 11.3208 26.088 12.2968 27.32C13.2728 28.536 14.5368 29.144 16.0888 29.144C17.6408 29.144 18.9208 28.536 19.8968 27.304C20.8728 26.072 21.3688 24.536 21.3688 22.696C21.3688 20.872 20.8888 19.352 19.9128 18.136C18.9368 16.904 17.6728 16.296 16.1208 16.296C14.5688 16.296 13.3048 16.92 12.3128 18.152C11.3368 19.384 10.8408 20.904 10.8408 22.728ZM19.3368 22.728C19.3368 24.024 19.0488 25.128 18.4568 26.008C17.8648 26.888 17.0968 27.336 16.1208 27.336C15.1448 27.336 14.3608 26.888 13.7688 25.992C13.1768 25.096 12.8888 23.992 12.8888 22.696C12.8888 21.4 13.1768 20.312 13.7528 19.432C14.3448 18.552 15.1128 18.104 16.0888 18.104C17.0648 18.104 17.8488 18.552 18.4408 19.448C19.0328 20.344 19.3368 21.432 19.3368 22.728ZM24.2596 29H33.0756V27.224H27.0436L29.9556 24.808C31.0596 23.896 31.8436 23.112 32.3076 22.456C32.7716 21.784 33.0116 20.984 33.0116 20.072C33.0116 18.952 32.6116 18.04 31.8116 17.352C31.0116 16.648 29.9876 16.296 28.7556 16.296C27.6836 16.296 26.7556 16.568 25.9716 17.128C25.2036 17.688 24.6916 18.424 24.4356 19.336L26.1956 20.072C26.6916 18.76 27.5396 18.104 28.7396 18.104C30.1316 18.104 30.9796 19.016 30.9796 20.216C30.9796 20.776 30.8196 21.272 30.4996 21.72C30.1796 22.152 29.5876 22.744 28.7396 23.464L24.2596 27.288V29Z" fill="url(#paint0_linear_12792_132848)"/>
<rect x="0.5" y="0.5" width="43" height="43" rx="21.5" stroke="url(#paint1_linear_12792_132848)" stroke-dasharray="5 5"/>
<defs>
<linearGradient id="paint0_linear_12792_132848" x1="7.5" y1="5.12093e-05" x2="32.414" y2="0.647838" gradientUnits="userSpaceOnUse">
<stop stop-color="#A10C74"/>
<stop offset="1" stop-color="#FE826C"/>
</linearGradient>
<linearGradient id="paint1_linear_12792_132848" x1="-2.03193e-06" y1="-18.3332" x2="37.8086" y2="-17.5197" gradientUnits="userSpaceOnUse">
<stop stop-color="#A10C74"/>
<stop offset="1" stop-color="#FE826C"/>
</linearGradient>
</defs>
</svg>
