<svg width="223" height="173" viewBox="0 0 223 173" fill="none" xmlns="http://www.w3.org/2000/svg">
<g filter="url(#filter0_d_12869_50895)">
<rect x="81.7891" y="-79.9609" width="243.533" height="87.9829" rx="6" transform="rotate(32.3586 81.7891 -79.9609)" fill="#F6F6F6" shape-rendering="crispEdges"/>
<path d="M138.112 17.3738L133.45 24.733C132.342 26.4816 130.556 27.0124 128.838 25.9238C127.196 24.8833 126.803 23.0149 127.969 21.1751L132.593 13.8767L130.723 12.6918L126.05 20.0661C125.174 21.4498 124.846 22.8406 125.073 24.1986C125.299 25.5566 126.185 26.7145 127.69 27.6683C129.195 28.6221 130.621 28.9285 131.961 28.5628C133.316 28.2067 134.453 27.2864 135.368 25.8419L139.983 18.5588L138.112 17.3738ZM146.1 33.3877C146.784 32.3082 147.036 31.1039 146.83 29.7803C146.64 28.4664 145.952 27.4338 144.766 26.6823C144.31 26.3933 143.756 26.1915 143.079 26.0823C142.402 25.9732 141.77 26.0628 141.148 26.3719L141.948 25.1099L140.184 23.9924L132.506 36.1106L134.315 37.2571L137.6 32.0722C137.61 32.6962 137.803 33.266 138.19 33.8313C138.588 34.3813 138.992 34.7864 139.402 35.0465C140.573 35.7883 141.791 35.9847 143.081 35.6301C144.371 35.2756 145.378 34.5281 146.1 33.3877ZM141.225 27.7633C141.999 27.5506 142.747 27.683 143.461 28.1358C144.176 28.5886 144.615 29.2076 144.738 29.9888C144.876 30.7795 144.719 31.5322 144.266 32.2469C143.813 32.9615 143.2 33.4252 142.426 33.6379C141.676 33.8451 140.929 33.7127 140.215 33.2599C139.5 32.8071 139.061 32.1881 138.913 31.4125C138.79 30.6314 138.948 29.8787 139.4 29.164C139.853 28.4494 140.467 27.9857 141.225 27.7633ZM148.982 41.1375C149.97 41.7637 150.93 42.031 151.862 41.9394C152.793 41.8479 153.6 41.5495 154.243 41.0402L153.105 39.3388C152.089 40.1015 151.071 40.1601 150.053 39.5146C149.368 39.0811 148.945 38.4717 148.797 37.6961C148.649 36.9206 148.816 36.1527 149.298 35.3924C149.77 34.6474 150.383 34.1837 151.138 34.0014C151.908 33.8287 152.625 33.9418 153.294 34.3657C154.328 35.0208 154.709 35.9658 154.433 37.1756L156.427 37.4589C156.855 35.7061 156.144 33.87 154.319 32.714C153.118 31.9529 151.854 31.7276 150.518 32.0533C149.183 32.3789 148.146 33.1071 147.423 34.2475C146.662 35.4487 146.437 36.7123 146.732 38.0288C147.028 39.3452 147.781 40.3764 148.982 41.1375ZM163.512 38.5385C162.326 37.787 161.047 37.5521 159.7 37.8281C158.353 38.1041 157.291 38.8379 156.54 40.0238C155.789 41.2098 155.563 42.4735 155.889 43.8092C156.215 45.1449 156.973 46.2009 158.159 46.9524C159.36 47.7134 160.624 47.9387 161.956 47.6531C163.312 47.3619 164.359 46.6185 165.12 45.4173C165.871 44.2313 166.087 42.9829 165.761 41.6472C165.435 40.3115 164.682 39.2803 163.512 38.5385ZM160.22 39.7985C160.994 39.5857 161.741 39.7182 162.456 40.171C163.171 40.6238 163.609 41.2428 163.732 42.0239C163.871 42.8147 163.713 43.5674 163.261 44.282C162.808 44.9967 162.194 45.4603 161.435 45.6827C160.677 45.9051 159.929 45.7727 159.215 45.3199C158.5 44.8671 158.071 44.2329 157.933 43.4421C157.804 42.6361 157.961 41.8834 158.414 41.1688C158.867 40.4541 159.471 40.0057 160.22 39.7985ZM171.541 55.2393L174.412 50.7082C175.192 49.4767 176.397 49.0891 177.507 49.7924C178.708 50.5535 178.749 51.6661 177.968 52.8977L175.068 57.4744L176.878 58.6208L180.057 53.6032C181.29 51.657 181.15 49.6927 179.188 48.45C177.987 47.6889 176.927 47.6137 175.512 47.9961C175.579 46.7811 175.022 45.8103 173.851 45.0685C172.878 44.4519 171.803 44.367 170.624 44.8139L171.318 43.7191L169.554 42.6016L164.41 50.721L166.219 51.8674L169.08 47.3516C169.861 46.12 171.075 45.7173 172.17 46.4109C173.371 47.172 173.408 48.3246 172.637 49.541L169.747 54.1025L171.541 55.2393ZM185.556 50.2258C185.729 50.9958 186.458 51.4583 187.228 51.2856C187.998 51.1129 188.461 50.383 188.288 49.613C188.125 48.8278 187.395 48.3654 186.616 48.5533C185.846 48.726 185.383 49.4558 185.556 50.2258ZM186.168 53.1279L184.358 51.9815L179.214 60.1009L181.023 61.2473L186.168 53.1279ZM190.729 67.3968L193.898 62.3944C195.131 60.4482 194.93 58.4454 192.938 57.1834C191.904 56.5283 190.813 56.4338 189.66 56.8751L190.354 55.7803L188.59 54.6628L183.446 62.7822L185.255 63.9286L188.116 59.4128C188.897 58.1812 190.147 57.8225 191.287 58.5451C192.488 59.3062 192.571 60.4877 191.8 61.7041L188.919 66.2504L190.729 67.3968ZM196.42 71.0878C196.845 71.3576 197.384 71.5498 198.061 71.6589C198.737 71.768 199.36 71.6936 199.947 71.4053L199.138 72.6825C198.107 74.3094 196.519 74.4962 195.105 73.6002C193.964 72.8777 193.479 71.7604 193.639 70.2636L191.585 70.1765C191.289 72.2907 192.137 73.9788 194.114 75.2312C195.391 76.0405 196.651 76.3058 197.898 76.0521C199.146 75.7984 200.187 75.0301 200.996 73.7529L206.073 65.74L204.309 64.6224L203.529 65.854C203.529 65.2148 203.33 64.6202 202.958 64.0646C202.585 63.509 202.191 63.0887 201.75 62.8093C200.549 62.0482 199.306 61.8574 198.022 62.2368C196.752 62.6258 195.78 63.3525 195.096 64.4321C194.383 65.5572 194.132 66.7616 194.357 68.0547C194.581 69.3478 195.279 70.3653 196.42 71.0878ZM201.76 68.6117C201.307 69.3263 200.694 69.79 199.92 70.0027C199.171 70.2099 198.439 70.0871 197.724 69.6343C197.009 69.1815 196.586 68.5722 196.438 67.7966C196.315 67.0154 196.472 66.2627 196.925 65.5481C197.378 64.8335 197.991 64.3698 198.731 64.1778C199.48 63.9706 200.227 64.1031 200.942 64.5559C201.656 65.0087 202.095 65.6277 202.228 66.3936C202.361 67.1596 202.213 67.8971 201.76 68.6117Z" fill="url(#paint0_linear_12869_50895)"/>
</g>
<defs>
<filter id="filter0_d_12869_50895" x="-1.30469" y="-101.961" width="324.812" height="276.664" filterUnits="userSpaceOnUse" color-interpolation-filters="sRGB">
<feFlood flood-opacity="0" result="BackgroundImageFix"/>
<feColorMatrix in="SourceAlpha" type="matrix" values="0 0 0 0 0 0 0 0 0 0 0 0 0 0 0 0 0 0 127 0" result="hardAlpha"/>
<feOffset dy="14"/>
<feGaussianBlur stdDeviation="18"/>
<feComposite in2="hardAlpha" operator="out"/>
<feColorMatrix type="matrix" values="0 0 0 0 0 0 0 0 0 0 0 0 0 0 0 0 0 0 0.08 0"/>
<feBlend mode="normal" in2="BackgroundImageFix" result="effect1_dropShadow_12869_50895"/>
<feBlend mode="normal" in="SourceGraphic" in2="effect1_dropShadow_12869_50895" result="shape"/>
</filter>
<linearGradient id="paint0_linear_12869_50895" x1="137.228" y1="-0.635408" x2="203.017" y2="48.7629" gradientUnits="userSpaceOnUse">
<stop stop-color="#A10C74"/>
<stop offset="1" stop-color="#FE826C"/>
</linearGradient>
</defs>
</svg>
