<svg width="276" height="54" viewBox="0 0 276 54" fill="none" xmlns="http://www.w3.org/2000/svg">
<rect x="0.859375" y="0.585938" width="39.9182" height="39.9182" rx="5.79458" fill="#F9F8E6"/>
<path d="M12.784 21.3338L19.644 43.2578H22.164L28.044 24.4418L33.896 43.2578H36.472L43.36 21.3338H41.036L35.268 40.0378H35.212L29.388 21.3338H26.784L20.988 39.9258H20.932L15.192 21.3338H12.784ZM60.1169 43.2578V34.0178C60.1169 30.4338 58.0449 28.0258 54.4609 28.0258C52.2489 28.0258 50.5409 29.0058 49.3369 30.9938V20.4658H47.1529V43.2578H49.3369V34.7458C49.3369 33.4018 49.7569 32.2818 50.5969 31.3858C51.4369 30.4618 52.5009 30.0138 53.7889 30.0138C56.4769 30.0138 57.9329 31.7778 57.9329 34.5498V43.2578H60.1169ZM64.8723 22.9578C64.8723 23.8538 65.6003 24.5818 66.4963 24.5818C67.4203 24.5818 68.1483 23.8538 68.1483 22.9578C68.1483 22.0338 67.4203 21.3058 66.4963 21.3058C65.6003 21.3058 64.8723 22.0338 64.8723 22.9578ZM67.6163 28.3058H65.4043V43.2578H67.6163V28.3058ZM75.313 20.4378H73.101V43.2578H75.313V20.4378ZM94.0137 36.4538C94.0417 36.3138 94.0417 36.0618 94.0417 35.7258C94.0417 33.4578 93.4257 31.6378 92.1937 30.2098C90.9617 28.7818 89.2257 28.0538 86.9857 28.0538C84.9417 28.0538 83.2057 28.8098 81.8057 30.3498C80.4057 31.8898 79.7057 33.6818 79.7057 35.7538C79.7057 37.9098 80.4337 39.7578 81.8897 41.2698C83.3457 42.7538 85.1377 43.5098 87.2937 43.5098C89.9817 43.5098 92.3617 42.1098 93.6217 39.6458L91.9977 38.5818C91.1297 40.3738 89.3657 41.5778 87.2657 41.5778C85.8097 41.5778 84.5777 41.1018 83.5697 40.1218C82.5617 39.1418 82.0017 37.9098 81.9177 36.4538H94.0137ZM81.9457 34.6058C82.1417 33.3178 82.7017 32.2258 83.6537 31.3298C84.6057 30.4058 85.7257 29.9578 86.9857 29.9578C89.7857 29.9578 91.5217 31.8058 91.8297 34.6058H81.9457ZM107.482 43.2578H111.418V18.2018H107.482V43.2578ZM133.122 43.2578V32.7298C133.122 28.6338 130.914 25.8178 126.722 25.8178C124.546 25.8178 122.818 26.7138 121.506 28.4738V26.1698H117.794V43.2578H121.602V33.7538C121.602 31.1618 123.138 29.4338 125.538 29.4338C128.066 29.4338 129.314 31.1298 129.314 33.6898V43.2578H133.122ZM159.346 43.5458C162.514 43.5458 165.33 42.5218 167.218 40.9858C169.106 39.4498 170.322 37.7538 170.93 35.9938L167.346 34.3618C166.738 35.9938 165.682 37.3378 164.21 38.3618C162.77 39.3538 161.17 39.8658 159.442 39.8658C157.138 39.8658 155.122 39.0018 153.426 37.3058C151.73 35.5778 150.898 33.3698 150.898 30.6818C150.898 27.9618 151.762 25.7858 153.458 24.0898C155.154 22.3938 157.17 21.5298 159.442 21.5298C163.378 21.5298 166.002 23.7698 167.25 27.0018L170.802 25.3698C170.258 23.5778 169.042 21.8818 167.25 20.3778C165.458 18.8418 162.674 17.8498 159.506 17.8498C156.018 17.8498 153.042 19.0978 150.514 21.5618C147.986 24.0258 146.738 27.0978 146.738 30.8098C146.738 34.7458 148.274 38.1058 150.674 40.2498C153.074 42.3298 156.146 43.5458 159.346 43.5458ZM182.961 25.8178C180.465 25.8178 178.321 26.6818 176.561 28.3778C174.801 30.0738 173.905 32.1858 173.905 34.6818C173.905 37.1778 174.769 39.2898 176.529 40.9858C178.289 42.6818 180.433 43.5458 182.929 43.5458C185.457 43.5458 187.569 42.6818 189.297 40.9858C191.057 39.2578 191.921 37.1458 191.921 34.6178C191.921 32.1218 191.057 30.0418 189.297 28.3458C187.537 26.6498 185.425 25.8178 182.961 25.8178ZM179.217 30.8418C180.177 29.7858 181.425 29.2738 182.929 29.2738C184.433 29.2738 185.681 29.7858 186.609 30.8418C187.569 31.8978 188.049 33.1778 188.049 34.6818C188.049 36.1858 187.569 37.4658 186.641 38.5218C185.713 39.5778 184.465 40.0898 182.961 40.0898C181.457 40.0898 180.209 39.5458 179.249 38.4898C178.289 37.4018 177.809 36.1218 177.809 34.6178C177.809 33.1138 178.289 31.8658 179.217 30.8418ZM196.542 43.2578H200.35V17.2098H196.542V43.2578ZM206.088 43.2578H209.896V17.2098H206.088V43.2578ZM231.346 35.8338C231.378 35.5458 231.41 35.1618 231.41 34.6498C231.41 31.9938 230.674 29.8818 229.202 28.2498C227.73 26.6178 225.682 25.8178 223.09 25.8178C220.626 25.8178 218.578 26.6818 216.946 28.4098C215.314 30.1378 214.482 32.2178 214.482 34.6818C214.482 37.2098 215.346 39.3538 217.042 41.0498C218.77 42.7458 220.914 43.5778 223.442 43.5778C226.514 43.5778 229.298 42.1058 230.738 39.4498L227.986 37.6258C227.058 39.3858 225.522 40.2818 223.378 40.2818C222.066 40.2818 220.914 39.8658 219.922 39.0338C218.93 38.1698 218.418 37.1138 218.386 35.8338H231.346ZM223.09 29.0818C225.522 29.0818 227.41 30.5538 227.538 32.9538H218.578C218.93 30.6178 220.754 29.0818 223.09 29.0818ZM243.098 43.3858C243.994 43.3858 244.986 43.1618 246.106 42.6818C247.226 42.2018 248.09 41.4978 248.698 40.5058V43.1938C248.698 46.6178 246.49 48.4098 243.514 48.4098C241.114 48.4098 239.322 47.1938 238.138 44.7938L234.97 46.6178C236.538 50.0738 239.418 51.8018 243.578 51.8018C246.266 51.8018 248.41 51.0018 250.042 49.4338C251.674 47.8658 252.506 45.7218 252.506 43.0338V26.1698H248.794V28.7618C248.186 27.8018 247.322 27.0978 246.234 26.6178C245.146 26.1378 244.154 25.8818 243.226 25.8818C240.698 25.8818 238.65 26.7778 237.082 28.5698C235.546 30.3618 234.778 32.3778 234.778 34.6498C234.778 37.0178 235.546 39.0658 237.114 40.7938C238.682 42.5218 240.698 43.3858 243.098 43.3858ZM248.762 34.5858C248.762 36.0898 248.282 37.3698 247.322 38.4258C246.394 39.4498 245.178 39.9618 243.674 39.9618C242.17 39.9618 240.954 39.4498 239.994 38.4258C239.066 37.3698 238.586 36.0898 238.586 34.5858C238.586 33.0818 239.066 31.8018 239.994 30.8098C240.922 29.7858 242.17 29.2738 243.674 29.2738C245.178 29.2738 246.426 29.7858 247.354 30.8098C248.282 31.8338 248.762 33.0818 248.762 34.5858ZM273.97 35.8338C274.002 35.5458 274.034 35.1618 274.034 34.6498C274.034 31.9938 273.298 29.8818 271.826 28.2498C270.354 26.6178 268.306 25.8178 265.714 25.8178C263.25 25.8178 261.202 26.6818 259.57 28.4098C257.938 30.1378 257.106 32.2178 257.106 34.6818C257.106 37.2098 257.97 39.3538 259.666 41.0498C261.394 42.7458 263.538 43.5778 266.066 43.5778C269.138 43.5778 271.922 42.1058 273.362 39.4498L270.61 37.6258C269.682 39.3858 268.146 40.2818 266.002 40.2818C264.69 40.2818 263.538 39.8658 262.546 39.0338C261.554 38.1698 261.042 37.1138 261.01 35.8338H273.97ZM265.714 29.0818C268.146 29.0818 270.034 30.5538 270.162 32.9538H261.202C261.554 30.6178 263.378 29.0818 265.714 29.0818Z" fill="#E9CD3D"/>
</svg>
