<svg width="245" height="71" viewBox="0 0 245 71" fill="none" xmlns="http://www.w3.org/2000/svg">
<path d="M5.62348 33.7229C5.62348 39.2077 7.0543 43.7387 9.96362 47.4111C12.873 51.0358 16.6408 52.8482 21.2671 52.8482C25.8934 52.8482 29.7089 51.0358 32.6182 47.3634C35.5275 43.691 37.0061 39.1124 37.0061 33.6276C37.0061 28.1905 35.5752 23.6595 32.6659 20.0348C29.7566 16.3624 25.9888 14.55 21.3625 14.55C16.7362 14.55 12.9683 16.4101 10.0113 20.0825C7.10199 23.7549 5.62348 28.2858 5.62348 33.7229ZM30.9489 33.7229C30.9489 37.5861 30.0904 40.877 28.3258 43.5002C26.5611 46.1234 24.2718 47.4588 21.3625 47.4588C18.4531 47.4588 16.1161 46.1234 14.3515 43.4525C12.5868 40.7816 11.7283 37.4908 11.7283 33.6276C11.7283 29.7643 12.5868 26.5212 14.3038 23.898C16.0684 21.2748 18.3577 19.9394 21.2671 19.9394C24.1764 19.9394 26.5134 21.2748 28.2781 23.9457C30.0427 26.6166 30.9489 29.8597 30.9489 33.7229ZM39.852 21.9425L42.5706 26.4258L50.9647 21.3702V52.4189H56.8311V15.0746H51.2509L39.852 21.9425Z" fill="white"/>
<path d="M9.96362 47.4111L9.06962 48.1193L9.07417 48.125L9.96362 47.4111ZM32.6182 47.3634L33.5122 48.0716L32.6182 47.3634ZM32.6659 20.0348L31.7719 20.743L31.7765 20.7487L32.6659 20.0348ZM10.0113 20.0825L9.12295 19.3672L9.11733 19.3743L10.0113 20.0825ZM28.3258 43.5002L29.2721 44.1368L29.2721 44.1368L28.3258 43.5002ZM14.3515 43.4525L15.303 42.8238L15.303 42.8238L14.3515 43.4525ZM14.3038 23.898L13.3575 23.2614L13.3534 23.2674L13.3495 23.2734L14.3038 23.898ZM28.2781 23.9457L27.3265 24.5744L27.3265 24.5744L28.2781 23.9457ZM4.48296 33.7229C4.48296 39.4176 5.97357 44.2112 9.06964 48.1193L10.8576 46.7029C8.13502 43.2662 6.764 38.9979 6.764 33.7229H4.48296ZM9.07417 48.125C12.1988 52.018 16.2931 53.9887 21.2671 53.9887V51.7077C16.9885 51.7077 13.5471 50.0537 10.8531 46.6972L9.07417 48.125ZM21.2671 53.9887C26.2384 53.9887 30.3845 52.0197 33.5122 48.0716L31.7242 46.6552C29.0333 50.0519 25.5483 51.7077 21.2671 51.7077V53.9887ZM33.5122 48.0716C36.6053 44.1672 38.1466 39.3278 38.1466 33.6276H35.8655C35.8655 38.8969 34.4498 43.2147 31.7242 46.6552L33.5122 48.0716ZM38.1466 33.6276C38.1466 27.9811 36.6561 23.1841 33.5554 19.3209L31.7765 20.7487C34.4944 24.135 35.8655 28.3998 35.8655 33.6276H38.1466ZM33.5599 19.3266C30.4348 15.3817 26.338 13.4095 21.3625 13.4095V15.6905C25.6396 15.6905 29.0784 17.343 31.7719 20.743L33.5599 19.3266ZM21.3625 13.4095C16.377 13.4095 12.2876 15.4369 9.12298 19.3672L10.8997 20.7978C13.6491 17.3832 17.0953 15.6905 21.3625 15.6905V13.4095ZM9.11733 19.3743C6.02638 23.276 4.48296 28.0665 4.48296 33.7229H6.764C6.764 28.5052 8.1776 24.2339 10.9053 20.7907L9.11733 19.3743ZM29.8084 33.7229C29.8084 37.4195 28.9877 40.4729 27.3795 42.8636L29.2721 44.1368C31.1932 41.2811 32.0895 37.7528 32.0895 33.7229H29.8084ZM27.3795 42.8636C25.7966 45.2164 23.8413 46.3183 21.3625 46.3183V48.5993C24.7023 48.5993 27.3256 47.0303 29.2721 44.1368L27.3795 42.8636ZM21.3625 46.3183C18.8794 46.3183 16.8816 45.213 15.303 42.8238L13.3999 44.0812C15.3507 47.0337 18.0268 48.5993 21.3625 48.5993V46.3183ZM15.303 42.8238C13.6885 40.3801 12.8688 37.3215 12.8688 33.6276H10.5878C10.5878 37.66 11.4851 41.1832 13.3999 44.0812L15.303 42.8238ZM12.8688 33.6276C12.8688 29.9345 13.6881 26.9211 15.258 24.5226L13.3495 23.2734C11.4854 26.1212 10.5878 29.5942 10.5878 33.6276H12.8688ZM15.2501 24.5346C16.8329 22.1818 18.7883 21.0799 21.2671 21.0799V18.7989C17.9272 18.7989 15.304 20.3679 13.3575 23.2614L15.2501 24.5346ZM21.2671 21.0799C23.7501 21.0799 25.7479 22.1852 27.3265 24.5744L29.2297 23.317C27.2789 20.3644 24.6027 18.7989 21.2671 18.7989V21.0799ZM27.3265 24.5744C28.9479 27.0284 29.8084 30.044 29.8084 33.7229H32.0895C32.0895 29.6755 31.1376 26.2047 29.2297 23.317L27.3265 24.5744ZM39.852 21.9425L39.2634 20.9656L38.2838 21.5559L38.8768 22.5339L39.852 21.9425ZM42.5706 26.4258L41.5954 27.0171L42.1849 27.9894L43.159 27.4028L42.5706 26.4258ZM50.9647 21.3702H52.1052V19.3519L50.3763 20.3932L50.9647 21.3702ZM50.9647 52.4189H49.8242V53.5595H50.9647V52.4189ZM56.8311 52.4189V53.5595H57.9716V52.4189H56.8311ZM56.8311 15.0746H57.9716V13.9341H56.8311V15.0746ZM51.2509 15.0746V13.9341H50.9338L50.6623 14.0977L51.2509 15.0746ZM38.8768 22.5339L41.5954 27.0171L43.5458 25.8344L40.8273 21.3512L38.8768 22.5339ZM43.159 27.4028L51.5531 22.3472L50.3763 20.3932L41.9822 25.4488L43.159 27.4028ZM49.8242 21.3702V52.4189H52.1052V21.3702H49.8242ZM50.9647 53.5595H56.8311V51.2784H50.9647V53.5595ZM57.9716 52.4189V15.0746H55.6905V52.4189H57.9716ZM56.8311 13.9341H51.2509V16.2152H56.8311V13.9341ZM50.6623 14.0977L39.2634 20.9656L40.4406 22.9195L51.8395 16.0515L50.6623 14.0977Z" fill="#1A987C"/>
<path d="M84.3281 0.773438L84.3281 70.432" stroke="#D4D4D4" stroke-width="1.4821"/>
<g clip-path="url(#clip0_2203_14198)">
<path d="M99.1484 22.4331C99.1484 16.4113 103.289 13.4004 111.572 13.4004C119.874 13.4004 124.026 16.4113 124.026 22.4331V28.2203H115.367V22.432C115.367 20.5025 114.112 19.5307 111.603 19.5164H111.542C109.053 19.5164 107.809 20.4882 107.809 22.432V26.3341C107.809 28.2493 110.512 30.5953 115.919 33.3723C121.326 36.1342 124.029 39.445 124.029 43.3047V48.7415C124.029 54.7784 119.888 57.7969 111.606 57.7969C103.303 57.7818 99.152 54.7633 99.152 48.7415V42.9532H107.811V48.7415C107.811 50.686 109.076 51.6579 111.605 51.6571C114.114 51.6571 115.369 50.6852 115.369 48.7415V43.8289C115.369 41.7541 112.666 39.3278 107.259 36.5501C101.852 33.7874 99.1484 30.4257 99.1484 26.4652V22.4331Z" fill="#1A987C"/>
<path d="M211.847 13.3691V36.626C211.847 38.5003 210.591 40.2005 208.561 41.4254C207.328 42.1482 205.988 42.6711 204.591 42.9743V57.8443H196.668V42.9743C192.43 42.0045 189.412 39.5273 189.412 36.6213V13.3691H197.494V36.5879C197.494 37.6364 198.899 38.4871 200.634 38.4871C202.369 38.4871 203.776 37.6364 203.776 36.5879V13.3691H211.847Z" fill="#1A987C"/>
<path d="M227.538 13.3691C221.505 13.3691 216.613 16.0917 216.613 19.4529V57.8526H224.478V42.9767C225.49 43.1383 226.514 43.218 227.54 43.215C230.222 43.2698 232.876 42.6577 235.263 41.4337C237.24 40.334 238.462 38.8124 238.462 37.1312V19.4529C238.462 16.0917 233.571 13.3691 227.538 13.3691ZM230.598 32.3652C230.598 32.3748 230.598 32.3831 230.598 32.3926C230.598 32.4022 230.598 32.4105 230.598 32.42V37.3719C230.598 38.312 229.226 39.0734 227.538 39.0734C226.787 39.0897 226.043 38.9185 225.375 38.5753C225.131 38.4732 224.919 38.3077 224.761 38.096C224.603 37.8844 224.505 37.6344 224.477 37.3719V19.3171C224.477 18.377 225.848 17.6156 227.538 17.6156C228.289 17.5997 229.032 17.7709 229.7 18.1137C229.943 18.2157 230.155 18.3812 230.313 18.5929C230.471 18.8045 230.569 19.0546 230.598 19.3171V32.3652Z" fill="#1A987C"/>
<path d="M154.566 13.3691V19.4089H145.349V57.8502H137.426V19.4089H128.209V13.3691H154.566Z" fill="#1A987C"/>
<path d="M184.609 22.0105C184.313 17.2159 178.795 13.3936 172.03 13.3936C165.265 13.3936 159.745 17.2159 159.451 22.0105H159.437V28.3099L155.934 26.8325C155.939 29.0566 155.945 31.2808 155.952 33.5049L159.437 34.9466V48.6596C159.437 53.6436 165.074 57.6828 172.03 57.6828C178.985 57.6828 184.624 53.6436 184.624 48.6596V42.7962H175.559V48.9491C175.559 50.3443 173.98 51.4751 172.034 51.4751C170.086 51.4751 168.508 50.3443 168.508 48.9491V41.6619C168.508 41.6476 168.508 41.6345 168.508 41.6214C168.508 41.6083 168.508 41.6011 168.508 41.5916C168.508 41.5821 168.508 41.5725 168.508 41.5618C168.508 41.5511 168.508 41.5356 168.508 41.5213V39.0287C169.668 39.2685 170.849 39.3882 172.034 39.3861V39.3861C177.803 39.3861 182.662 36.6063 184.153 32.815H184.166V32.7781C184.467 32.0087 184.623 31.1902 184.625 30.3641V22.0117L184.609 22.0105ZM172.03 33.2368C171.537 33.2381 171.046 33.1613 170.576 33.0092L169.819 32.6899L168.507 32.0751V23.364C168.507 23.3509 168.507 23.3378 168.507 23.3235C168.507 23.3092 168.507 23.2973 168.507 23.283V22.2178C168.507 20.8225 170.086 19.6906 172.033 19.6906C173.98 19.6906 175.558 20.8214 175.558 22.2178V23.2818C175.558 23.2961 175.558 23.308 175.558 23.3223C175.558 23.3366 175.558 23.3497 175.558 23.3628V30.7096C175.557 32.1072 173.979 33.2368 172.031 33.2368H172.03Z" fill="url(#paint0_linear_2203_14198)"/>
</g>
<defs>
<linearGradient id="paint0_linear_2203_14198" x1="159.893" y1="28.6291" x2="186.655" y2="35.0207" gradientUnits="userSpaceOnUse">
<stop stop-color="#89C739"/>
<stop offset="0.414" stop-color="#6DBE4D"/>
<stop offset="1" stop-color="#1A987C"/>
</linearGradient>
<clipPath id="clip0_2203_14198">
<rect width="143.022" height="44.4629" fill="white" transform="translate(99.1504 13.3711)"/>
</clipPath>
</defs>
</svg>
