<svg width="258" height="68" viewBox="0 0 258 68" fill="none" xmlns="http://www.w3.org/2000/svg">
<path d="M9.69134 45.3188L8.84091 45.9925L8.84524 45.9979L9.69134 45.3188ZM31.2416 45.2734L32.092 45.9471L31.2416 45.2734ZM31.287 19.277L30.4366 19.9507L30.4409 19.9561L31.287 19.277ZM9.73671 19.3223L8.89164 18.6419L8.8863 18.6486L9.73671 19.3223ZM27.1584 41.5985L28.0586 42.2041L27.1584 41.5985ZM13.8653 41.5532L14.7705 40.9551L13.8653 41.5532ZM13.8199 22.9519L12.9197 22.3462L12.9122 22.3577L13.8199 22.9519ZM27.113 22.9972L26.2078 23.5953V23.5953L27.113 22.9972ZM4.47784 32.2979C4.47784 37.7149 5.89579 42.2748 8.84093 45.9925L10.5417 44.6451C7.95187 41.3759 6.64768 37.3157 6.64768 32.2979H4.47784ZM8.84524 45.9979C11.8175 49.7011 15.7122 51.5758 20.4438 51.5758V49.4059C16.3738 49.4059 13.1001 47.8326 10.5374 44.6397L8.84524 45.9979ZM20.4438 51.5758C25.1728 51.5758 29.1168 49.7028 32.092 45.9471L30.3912 44.5997C27.8314 47.8309 24.5164 49.4059 20.4438 49.4059V51.5758ZM32.092 45.9471C35.0343 42.233 36.5005 37.6295 36.5005 32.2071H34.3306C34.3306 37.2197 32.9839 41.3269 30.3912 44.5997L32.092 45.9471ZM36.5005 32.2071C36.5005 26.8359 35.0826 22.2727 32.1331 18.5979L30.4409 19.9561C33.0263 23.1773 34.3306 27.2342 34.3306 32.2071H36.5005ZM32.1374 18.6033C29.1646 14.8507 25.2675 12.9746 20.5345 12.9746V15.1445C24.6031 15.1445 27.8743 16.7164 30.4366 19.9507L32.1374 18.6033ZM20.5345 12.9746C15.7921 12.9746 11.902 14.9032 8.89167 18.6419L10.5817 20.0028C13.1971 16.7546 16.4754 15.1445 20.5345 15.1445V12.9746ZM8.8863 18.6486C5.94602 22.3602 4.47784 26.9172 4.47784 32.2979H6.64768C6.64768 27.3345 7.99238 23.2714 10.5871 19.996L8.8863 18.6486ZM28.5688 32.2979C28.5688 35.8142 27.7881 38.7188 26.2582 40.9929L28.0586 42.2041C29.886 39.4876 30.7386 36.1313 30.7386 32.2979H28.5688ZM26.2582 40.9929C24.7525 43.2311 22.8925 44.2792 20.5345 44.2792V46.4491C23.7116 46.4491 26.2069 44.9565 28.0586 42.2041L26.2582 40.9929ZM20.5345 44.2792C18.1725 44.2792 16.2721 43.2278 14.7705 40.9551L12.9601 42.1512C14.8158 44.9598 17.3615 46.4491 20.5345 46.4491V44.2792ZM14.7705 40.9551C13.2346 38.6305 12.4549 35.721 12.4549 32.2071H10.2851C10.2851 36.043 11.1386 39.3944 12.9601 42.1512L14.7705 40.9551ZM12.4549 32.2071C12.4549 28.6941 13.2343 25.8276 14.7277 23.546L12.9122 22.3577C11.139 25.0667 10.2851 28.3704 10.2851 32.2071H12.4549ZM14.7201 23.5574C16.2258 21.3193 18.0858 20.2712 20.4438 20.2712V18.1013C17.2668 18.1013 14.7714 19.5939 12.9197 22.3463L14.7201 23.5574ZM20.4438 20.2712C22.8058 20.2712 24.7062 21.3226 26.2078 23.5953L28.0182 22.3992C26.1625 19.5906 23.6168 18.1013 20.4438 18.1013V20.2712ZM26.2078 23.5953C27.7502 25.9297 28.5688 28.7982 28.5688 32.2979H30.7386C30.7386 28.4477 29.8332 25.1461 28.0182 22.3992L26.2078 23.5953ZM39.9829 50.0825H38.898V51.1674H39.9829V50.0825ZM64.9812 50.0825V51.1674H66.0662V50.0825H64.9812ZM64.9812 45.0466H66.0662V43.9616H64.9812V45.0466ZM47.8771 45.0466L47.1844 44.2116L44.8704 46.1315H47.8771V45.0466ZM56.1343 38.1958L55.4433 37.3594L55.4415 37.3609L56.1343 38.1958ZM62.8035 31.5266L63.6893 32.1531L63.6963 32.143L62.8035 31.5266ZM61.3971 17.0539L60.6803 17.8684L60.6897 17.8765L61.3971 17.0539ZM44.8374 16.4187L44.2068 15.5358L44.1982 15.5421L44.8374 16.4187ZM40.482 22.6797L39.4374 22.3864L39.1781 23.3104L40.0634 23.6806L40.482 22.6797ZM45.4726 24.7666L45.054 25.7676L46.0902 26.2009L46.4874 25.1503L45.4726 24.7666ZM57.6768 29.4396L58.5486 30.0854L58.5542 30.0779L58.5597 30.0702L57.6768 29.4396ZM52.6862 34.3848L51.9841 33.5578L51.9819 33.5597L52.6862 34.3848ZM39.9829 45.228L39.2786 44.4028L38.898 44.7277V45.228H39.9829ZM39.9829 51.1674H64.9812V48.9976H39.9829V51.1674ZM66.0662 50.0825V45.0466H63.8963V50.0825H66.0662ZM64.9812 43.9616H47.8771V46.1315H64.9812V43.9616ZM48.5699 45.8815L56.827 39.0308L55.4415 37.3609L47.1844 44.2116L48.5699 45.8815ZM56.8253 39.0323C59.9816 36.4248 62.2911 34.1298 63.6893 32.1531L61.9178 30.9001C60.6845 32.6436 58.5479 34.7948 55.4433 37.3594L56.8253 39.0323ZM63.6963 32.143C65.1489 30.0394 65.8847 27.5513 65.8847 24.7666H63.7148C63.7148 27.154 63.0896 29.2029 61.9108 30.9102L63.6963 32.143ZM65.8847 24.7666C65.8847 21.2995 64.6308 18.4039 62.1045 16.2313L60.6897 17.8765C62.7003 19.6056 63.7148 21.8821 63.7148 24.7666H65.8847ZM62.1138 16.2394C59.6154 14.0409 56.4431 12.9746 52.7316 12.9746V15.1445C56.0069 15.1445 58.6418 16.0745 60.6804 17.8684L62.1138 16.2394ZM52.7316 12.9746C49.4988 12.9746 46.6391 13.7986 44.2068 15.5359L45.468 17.3016C47.4819 15.8631 49.885 15.1445 52.7316 15.1445V12.9746ZM44.1982 15.5421C41.8245 17.273 40.2294 19.5651 39.4374 22.3864L41.5265 22.9729C42.1864 20.6222 43.4949 18.7403 45.4766 17.2954L44.1982 15.5421ZM40.0634 23.6806L45.054 25.7676L45.8912 23.7657L40.9006 21.6787L40.0634 23.6806ZM46.4874 25.1503C47.1411 23.4211 47.9928 22.2145 48.9947 21.4395C49.9843 20.6739 51.195 20.2712 52.6862 20.2712V18.1013C50.7748 18.1013 49.0819 18.6286 47.667 19.7232C46.2643 20.8083 45.2105 22.3919 44.4578 24.383L46.4874 25.1503ZM52.6862 20.2712C54.4169 20.2712 55.7189 20.8334 56.5832 21.6797C57.4485 22.5272 57.953 23.7349 57.953 25.1749H60.1228C60.1228 23.2123 59.425 21.4257 58.1013 20.1294C56.7765 18.8321 54.9027 18.1013 52.6862 18.1013V20.2712ZM57.953 25.1749C57.953 26.5374 57.5696 27.7232 56.794 28.809L58.5597 30.0702C59.5989 28.6154 60.1228 26.9883 60.1228 25.1749H57.953ZM56.805 28.7939C55.9738 29.9161 54.3724 31.53 51.9841 33.5578L53.3884 35.2119C55.8092 33.1565 57.5652 31.4131 58.5486 30.0854L56.805 28.7939ZM51.9819 33.5597L39.2786 44.4028L40.6873 46.0532L53.3906 35.21L51.9819 33.5597ZM38.898 45.228V50.0825H41.0679V45.228H38.898Z" fill="#1F5287"/>
<path d="M89.3047 0.869141L89.3047 67.1321" stroke="#D4D4D4" stroke-width="1.40985"/>
<g clip-path="url(#clip0_2203_16989)">
<path fill-rule="evenodd" clip-rule="evenodd" d="M212.931 14.8855C213.13 14.4063 213.23 13.8915 213.224 13.3725C213.228 12.8518 213.126 12.3358 212.925 11.8559C212.724 11.376 212.427 10.9424 212.053 10.5814C211.318 9.84458 210.322 9.43066 209.283 9.43066C208.244 9.43066 207.248 9.84458 206.513 10.5814C206.142 10.9435 205.848 11.3778 205.65 11.8577C205.451 12.3376 205.353 12.8531 205.36 13.3725C205.354 13.8913 205.453 14.406 205.651 14.8852C205.849 15.3644 206.142 15.7981 206.513 16.16C206.871 16.5256 207.297 16.817 207.767 17.0175C208.237 17.2179 208.741 17.3236 209.252 17.3283C209.763 17.3331 210.27 17.2368 210.743 17.0451C211.217 16.8534 211.648 16.57 212.013 16.2111L212.067 16.16C212.439 15.7983 212.733 15.3647 212.931 14.8855ZM113.474 25.8796V34.979C113.423 35.9262 113.746 36.8553 114.372 37.5658C114.697 37.889 115.085 38.1403 115.513 38.3037C115.94 38.4671 116.397 38.5389 116.853 38.5144C117.517 38.5081 118.177 38.4224 118.821 38.259L121.469 42.2724C119.451 43.1467 117.28 43.6116 115.082 43.6406C112.375 43.6406 110.275 42.9389 108.782 41.5354C107.288 40.1319 106.541 38.0644 106.541 35.3329V25.8468H103.395V24.5223L112.612 14.1606H113.478V21.1292H121.509V25.8723L113.474 25.8796ZM247.052 39.5105C247.049 39.5737 247.049 39.637 247.052 39.7002V39.5105ZM247.052 39.7002V39.9191C247.056 39.9057 247.058 39.8927 247.06 39.8801V39.9373C247.066 40.1436 247.092 40.3487 247.136 40.5503C247.147 40.618 247.161 40.685 247.18 40.751C247.196 40.8262 247.217 40.9004 247.241 40.9735C247.263 41.0465 247.285 41.1195 247.314 41.1924C247.361 41.3055 247.416 41.4332 247.474 41.5573C247.503 41.6193 247.536 41.6813 247.569 41.7434C248.024 42.5804 248.744 43.2417 249.616 43.6232C250.487 44.0047 251.46 44.0848 252.382 43.8507C253.303 43.6167 254.121 43.0819 254.706 42.3305C255.292 41.5791 255.611 40.6538 255.615 39.7002C255.603 39.4133 255.561 39.1285 255.491 38.8501C255.486 38.8248 255.478 38.7939 255.47 38.7647V38.7647C255.461 38.7267 255.451 38.6914 255.451 38.675V38.6458C255.433 38.5764 255.415 38.5071 255.393 38.4415C255.352 38.3074 255.304 38.1758 255.247 38.0474C255.222 37.9817 255.204 37.938 255.164 37.8577C255.124 37.7774 255.084 37.7008 255.04 37.6242C255.035 37.6125 255.029 37.6015 255.022 37.5913C254.971 37.4965 254.913 37.4053 254.855 37.3177C254.699 37.0909 254.524 36.8784 254.331 36.6829C254.234 36.5849 254.132 36.4923 254.025 36.4056C253.938 36.3326 253.847 36.2633 253.752 36.1976L253.672 36.1429C253.497 36.0247 253.312 35.921 253.12 35.8328L252.93 35.7488L252.734 35.6759C252.659 35.6466 252.583 35.6222 252.505 35.6029L252.312 35.5518C252.121 35.5045 251.926 35.4716 251.73 35.4533H251.683C251.629 35.4497 251.576 35.4497 251.523 35.4533H251.112C251.061 35.4497 251.01 35.4497 250.959 35.4533H250.923C249.899 35.5568 248.947 36.0249 248.238 36.7726C247.529 37.5203 247.111 38.4982 247.06 39.5287V39.7865C247.059 39.7769 247.058 39.7676 247.057 39.7586C247.054 39.7377 247.052 39.7182 247.052 39.7002ZM241.749 43.5604V29.0649C241.749 26.2458 240.961 24.081 239.385 22.5705C238.599 21.8185 237.672 21.2307 236.658 20.8411C235.644 20.4515 234.563 20.268 233.477 20.3011C230.659 20.3011 228.2 21.5404 226.101 24.019V20.7973H218.946V43.5495H226.086V28.8605C227.711 26.3577 229.372 25.1062 231.069 25.1062C233.426 25.1062 234.605 26.6289 234.605 29.6742V43.5604H241.749ZM212.882 24.1758V43.5494H205.531V20.7936H209.219C210.142 20.7916 211.032 21.1386 211.711 21.7655C212.39 22.3925 212.808 23.2531 212.882 24.1758ZM198.332 37.3943C198.332 38.4451 198.71 38.9704 199.467 38.9704C200.042 38.9704 200.93 38.5484 202.133 37.7044V41.5973C199.805 42.9497 197.623 43.626 195.586 43.626C193.394 43.6235 192.091 42.7892 191.679 41.1231C189.249 42.7917 186.811 43.626 184.364 43.626C182.743 43.6626 181.169 43.0751 179.967 41.9841C179.404 41.5186 178.95 40.9356 178.636 40.2758C178.322 39.6159 178.155 38.8953 178.148 38.1641C178.148 36.228 178.771 34.6652 180.018 33.4757C181.264 32.2864 185.039 30.754 191.345 28.8786C191.502 26.3928 190.216 25.1499 187.485 25.1499C184.519 25.1499 181.791 26.3928 179.301 28.8786V23.1687C182.186 21.3665 185.523 20.425 188.922 20.4542C195.195 20.4566 198.332 22.7163 198.332 27.2332V37.3943ZM187.467 39.4922C188.784 39.4922 190.069 38.9315 191.323 37.8102V32.3776C188.988 33.1973 187.385 33.9355 186.514 34.5922C186.105 34.8729 185.771 35.2512 185.543 35.6931C185.315 36.135 185.2 36.6268 185.208 37.1243C185.203 37.432 185.258 37.7378 185.371 38.024C185.484 38.3102 185.652 38.5711 185.867 38.7917C186.069 39.0151 186.316 39.1931 186.592 39.3138C186.868 39.4346 187.166 39.4954 187.467 39.4922ZM175.904 20.7826H162.416C159.113 20.7826 156.597 21.6181 154.868 23.2891C153.139 24.9601 152.274 26.8902 152.271 29.0793C152.249 30.7946 152.903 32.4493 154.09 33.6837C155.302 34.9763 156.91 35.8252 158.658 36.0954C155.901 36.723 154.523 37.8734 154.523 39.5469C154.523 40.9771 155.436 41.9647 157.262 42.5095C153.224 43.5992 151.205 45.528 151.205 48.2961C151.205 50.2882 152.231 51.8873 154.283 53.0939C156.334 54.3005 159.347 54.9083 163.322 54.9182C167.216 54.9182 170.194 54.2676 172.255 52.9662C174.317 51.6648 175.346 49.7675 175.343 47.2745C175.343 45.7129 174.737 44.2535 173.525 42.8963C172.312 41.539 170.165 40.729 167.083 40.4663C163.995 40.2036 162.23 39.9446 161.779 39.6929C161.587 39.6099 161.422 39.4742 161.303 39.3012C161.184 39.1282 161.116 38.9251 161.106 38.7151C161.105 38.5223 161.151 38.3321 161.241 38.162C161.331 37.9918 161.463 37.847 161.623 37.7409C161.967 37.4976 163.422 37.2338 165.988 36.9492C168.554 36.6646 170.494 35.7768 171.808 34.2857C173.053 32.9589 173.755 31.2113 173.776 29.3894C173.746 28.0483 173.357 26.74 172.648 25.6023H175.893L175.904 20.7826ZM163.213 45.2787C166.915 45.2787 168.767 46.1143 168.767 47.7853C168.767 48.5759 168.294 49.2509 167.348 49.8102C166.211 50.4188 164.933 50.7132 163.645 50.664C159.751 50.664 157.804 49.7712 157.804 47.986C157.804 47.1651 158.284 46.5266 159.259 46.0121C160.233 45.4976 161.528 45.2787 163.213 45.2787ZM165.93 31.9981C165.569 32.4043 165.125 32.7283 164.629 32.9486C164.133 33.1688 163.595 33.2801 163.052 33.2751C162.51 33.2816 161.973 33.1768 161.472 32.9673C160.972 32.7577 160.519 32.4478 160.143 32.0565C159.753 31.6855 159.444 31.2383 159.234 30.7425C159.023 30.2467 158.917 29.7129 158.92 29.1742C158.909 28.6288 159.008 28.0868 159.211 27.5808C159.415 27.0747 159.718 26.6152 160.103 26.2298C160.883 25.4651 161.928 25.0321 163.019 25.0212C164.11 25.0103 165.163 25.4224 165.959 26.1714C166.333 26.5262 166.631 26.9553 166.831 27.4314C167.031 27.9076 167.131 28.4203 167.123 28.937C167.143 30.0752 166.714 31.1753 165.93 31.9981ZM136.426 20.301C139.92 20.2962 142.787 21.4734 145.025 23.8328C147.261 26.1946 148.308 29.3506 148.168 33.3007H131.865C132.005 35.3682 132.733 36.9578 134.047 38.0693C135.362 39.1809 137.125 39.7367 139.336 39.7367C141.406 39.6858 143.431 39.1164 145.225 38.0803L147.742 40.9991C145.022 42.9863 141.654 43.9799 137.641 43.9799C133.645 43.9799 130.452 42.9048 128.064 40.7546C125.675 38.6045 124.481 35.7598 124.481 32.2208C124.481 28.7449 125.602 25.8869 127.845 23.6467C130.072 21.4211 132.932 20.3059 136.426 20.301ZM136.925 24.5698C133.995 24.5698 132.355 26.225 132.003 29.5355H141.85C141.476 26.225 139.835 24.5698 136.925 24.5698Z" fill="url(#paint0_linear_2203_16989)"/>
</g>
<defs>
<linearGradient id="paint0_linear_2203_16989" x1="93.1708" y1="9.43066" x2="255.694" y2="57.3653" gradientUnits="userSpaceOnUse">
<stop stop-color="#194479"/>
<stop offset="1" stop-color="#4AB4E7"/>
</linearGradient>
<clipPath id="clip0_2203_16989">
<rect width="152.264" height="49.1369" fill="white" transform="translate(103.402 9.43115)"/>
</clipPath>
</defs>
</svg>
