<svg width="224" height="120" viewBox="0 0 224 120" fill="none" xmlns="http://www.w3.org/2000/svg">
<rect width="223.948" height="119.702" rx="6.61922" fill="white"/>
<path d="M25.4166 75.5296L25.4192 75.5328C28.7877 79.7296 33.1768 81.8416 38.5364 81.8416C43.8944 81.8416 48.3391 79.7306 51.7093 75.4763C55.0603 71.2465 56.7461 65.9887 56.7461 59.7445C56.7461 53.5578 55.1157 48.3509 51.7614 44.1709C48.3927 39.9195 44.0026 37.8071 38.6429 37.8071C33.277 37.8071 28.8906 39.9774 25.473 44.2217L25.473 44.2217L25.4699 44.2257C22.1201 48.454 20.4331 53.6579 20.4331 59.851C20.4331 66.0921 22.064 71.2976 25.4166 75.5296ZM85.7622 46.475L85.7831 46.4895L85.805 46.5023C86.4024 46.8508 87.1712 47.4123 88.1809 48.2094L88.7142 48.6305L89.0998 48.0708L92.4014 43.2782L92.7305 42.8005L92.2854 42.4284C88.6175 39.3628 84.6423 37.8071 80.2682 37.8071C73.6385 37.8071 68.8152 40.6948 65.6711 45.1104C62.5447 49.5012 61.0999 55.3668 61.0999 61.3421C61.0999 68.5465 62.6554 73.8649 65.9725 77.182C69.1362 80.3457 73.0832 81.8949 77.7653 81.8949C82.1181 81.8949 85.8384 80.5129 88.8901 77.795C92.0165 75.0585 93.5788 71.4728 93.5788 67.1997C93.5788 63.049 92.1882 59.6291 89.4422 56.9952C86.7037 54.3684 83.2394 53.0371 79.0966 53.0371C75.4011 53.0371 71.6405 54.4551 69.0652 57.0321C69.5115 53.8254 70.5382 51.0878 72.1565 48.8294C74.1085 46.1785 76.7897 44.8317 80.2682 44.8317C82.4708 44.8317 84.6353 45.691 85.7622 46.475ZM83.3483 62.0738L83.3483 62.0739L83.3568 62.0816C84.8008 63.3811 85.5424 65.169 85.5424 67.4127C85.5424 71.6935 82.2626 74.6573 77.6588 74.6573C75.2918 74.6573 73.3686 73.9562 71.8466 72.6305C70.3499 71.3269 69.5623 69.5397 69.5623 67.253C69.5623 65.1486 70.3333 63.4629 71.9468 62.0938C73.5884 60.7009 75.4658 60.0085 77.6588 60.0085C80.0235 60.0085 81.8846 60.7076 83.3483 62.0738ZM48.7097 59.851C48.7097 64.0713 47.7723 67.6132 45.8893 70.4122C44.0205 73.1901 41.6509 74.5508 38.6429 74.5508C35.6325 74.5508 33.2125 73.1882 31.3461 70.3633C29.4596 67.5081 28.5227 63.9634 28.5227 59.7445C28.5227 55.5278 29.4586 52.0361 31.2921 49.2333C33.1606 46.4576 35.5295 45.098 38.5364 45.098C41.5467 45.098 43.9667 46.4606 45.8331 49.2854C47.7234 52.1465 48.7097 55.6405 48.7097 59.851Z" stroke="#0A4771" stroke-width="1.27342"/>
<path d="M109.49 20.9631L109.49 98.739" stroke="#D4D4D4" stroke-width="1.65481"/>
<path d="M126.906 100.021L120.358 88.8499C120.285 88.7247 120.246 88.5826 120.246 88.4379C120.246 88.2933 120.284 88.1511 120.357 88.0257C120.43 87.9004 120.535 87.7962 120.662 87.7238C120.789 87.6514 120.932 87.6132 121.078 87.613H125.047C125.195 87.6131 125.34 87.6522 125.468 87.7265C125.596 87.8008 125.701 87.9075 125.773 88.0356L128.969 93.6934C129.042 93.8209 129.147 93.927 129.274 94.0008C129.402 94.0747 129.547 94.1136 129.695 94.1136C129.842 94.1136 129.987 94.0747 130.115 94.0008C130.242 93.927 130.348 93.8209 130.42 93.6934L133.66 88.027C133.733 87.9001 133.839 87.7946 133.966 87.7212C134.094 87.6478 134.238 87.6092 134.386 87.6094H138.223C138.369 87.6096 138.513 87.6479 138.639 87.7205C138.766 87.7931 138.871 87.8974 138.944 88.0229C139.017 88.1484 139.055 88.2907 139.055 88.4354C139.054 88.5802 139.016 88.7223 138.942 88.8475L132.374 100.021C132.3 100.147 132.262 100.291 132.262 100.436V107.294C132.261 107.513 132.174 107.722 132.017 107.877C131.861 108.031 131.65 108.118 131.429 108.119H127.85C127.629 108.118 127.418 108.031 127.262 107.877C127.105 107.722 127.018 107.513 127.017 107.294V100.436C127.018 100.291 126.979 100.147 126.906 100.021Z" fill="#0A4771"/>
<path d="M141.938 107.01V88.7153C141.938 88.423 142.056 88.1426 142.265 87.9359C142.474 87.7292 142.757 87.6131 143.052 87.6131H146.059C146.354 87.6131 146.638 87.7292 146.847 87.9359C147.056 88.1426 147.173 88.423 147.173 88.7153V92.982C147.17 93.2178 147.243 93.4484 147.382 93.6399C147.521 93.8313 147.719 93.9737 147.946 94.0459C148.173 94.1181 148.417 94.1164 148.643 94.0411C148.869 93.9658 149.064 93.8208 149.201 93.6274L153.248 88.0687C153.351 87.9264 153.487 87.8105 153.645 87.7307C153.803 87.6508 153.977 87.6092 154.154 87.6094H157.536C157.742 87.6074 157.946 87.6623 158.123 87.768C158.3 87.8738 158.444 88.0262 158.538 88.2083C158.632 88.3903 158.674 88.5947 158.657 88.7987C158.641 89.0027 158.568 89.1981 158.445 89.3631L153.072 96.711C152.936 96.8976 152.862 97.1213 152.861 97.3512C152.859 97.5811 152.929 97.8059 153.062 97.9945L158.997 106.374C159.116 106.539 159.186 106.734 159.201 106.936C159.215 107.138 159.172 107.341 159.077 107.521C158.982 107.701 158.839 107.851 158.664 107.956C158.488 108.061 158.287 108.115 158.082 108.114H154.342C154.158 108.114 153.977 108.07 153.815 107.984C153.653 107.899 153.515 107.775 153.413 107.624L149.226 101.428C149.095 101.229 148.901 101.078 148.675 100.996C148.449 100.915 148.202 100.908 147.972 100.977C147.742 101.046 147.54 101.187 147.397 101.379C147.255 101.57 147.179 101.803 147.18 102.041V107.01C147.18 107.303 147.063 107.583 146.854 107.79C146.645 107.996 146.362 108.113 146.066 108.113H143.056C142.91 108.113 142.764 108.085 142.629 108.03C142.493 107.975 142.37 107.893 142.266 107.791C142.162 107.689 142.08 107.567 142.024 107.433C141.967 107.299 141.938 107.155 141.938 107.01Z" fill="#0A4771"/>
<path d="M166.17 108.111H163.417C163.089 108.111 162.774 107.982 162.542 107.753C162.31 107.523 162.179 107.211 162.179 106.887V88.834C162.179 88.5092 162.31 88.1977 162.542 87.9681C162.774 87.7384 163.089 87.6094 163.417 87.6094H166.17C166.498 87.6094 166.813 87.7384 167.045 87.9681C167.277 88.1977 167.408 88.5092 167.408 88.834V106.882C167.408 107.043 167.377 107.203 167.315 107.352C167.253 107.501 167.162 107.637 167.047 107.751C166.932 107.865 166.795 107.956 166.645 108.018C166.494 108.079 166.333 108.111 166.17 108.111Z" fill="#0A4771"/>
<path d="M171.698 88.9479C171.698 88.5929 171.841 88.2525 172.094 88.0014C172.348 87.7504 172.692 87.6094 173.051 87.6094H179.798C182.101 87.6094 183.979 88.185 185.409 89.3116C186.839 90.4383 187.553 92.0879 187.553 94.2617C187.553 96.4881 186.786 98.1904 185.277 99.3428C183.768 100.468 181.836 101.045 179.48 101.045H178.266C177.907 101.045 177.563 101.186 177.309 101.437C177.056 101.688 176.913 102.029 176.913 102.384V106.778C176.913 107.133 176.77 107.473 176.516 107.724C176.263 107.975 175.919 108.116 175.56 108.116H173.051C172.692 108.116 172.348 107.975 172.094 107.724C171.841 107.473 171.698 107.133 171.698 106.778V88.9479ZM176.913 95.3063C176.913 95.6613 177.056 96.0018 177.309 96.2528C177.563 96.5038 177.907 96.6449 178.266 96.6449H179.401C181.333 96.6449 182.312 95.9101 182.312 94.4711C182.312 92.9256 181.333 92.1443 179.374 92.1443H178.266C177.907 92.1443 177.563 92.2853 177.309 92.5363C177.056 92.7873 176.913 93.1278 176.913 93.4828V95.3063Z" fill="#0A4771"/>
<path d="M190.332 88.9479C190.332 88.5929 190.475 88.2525 190.728 88.0014C190.982 87.7504 191.326 87.6094 191.685 87.6094H198.432C200.736 87.6094 202.614 88.185 204.044 89.3116C205.474 90.4383 206.188 92.0879 206.188 94.2617C206.188 96.4881 205.421 98.1904 203.912 99.3428C202.403 100.468 200.471 101.045 198.115 101.045H196.9C196.541 101.045 196.197 101.186 195.943 101.437C195.689 101.688 195.547 102.029 195.547 102.384V106.778C195.547 107.133 195.404 107.473 195.151 107.724C194.897 107.975 194.553 108.116 194.194 108.116H191.685C191.326 108.116 190.982 107.975 190.729 107.724C190.475 107.473 190.332 107.133 190.332 106.778V88.9479ZM195.547 95.3063C195.547 95.6613 195.689 96.0018 195.943 96.2528C196.197 96.5038 196.541 96.6449 196.9 96.6449H198.035C199.968 96.6449 200.947 95.9101 200.947 94.4711C200.947 92.9256 199.968 92.1443 198.009 92.1443H196.895C196.536 92.1443 196.192 92.2853 195.938 92.5363C195.684 92.7873 195.542 93.1278 195.542 93.4828L195.547 95.3063Z" fill="#0A4771"/>
<path d="M167.776 56.9559C168.384 56.9559 168.966 56.7174 169.396 56.2929C169.826 55.8683 170.068 55.2924 170.069 54.6915V29.7331H174.655C176.469 29.7331 178.242 29.2009 179.75 28.2037C181.259 27.2066 182.434 25.7893 183.128 24.1311C183.823 22.473 184.004 20.6483 183.65 18.888C183.296 17.1277 182.423 15.5108 181.14 14.2417C179.857 12.9725 178.223 12.1083 176.444 11.7581C174.665 11.408 172.821 11.5877 171.145 12.2745C169.469 12.9614 168.036 14.1245 167.028 15.6168C166.021 17.1091 165.483 18.8636 165.483 20.6584V25.1957H160.903V20.6584C160.903 18.8636 160.365 17.1091 159.357 15.6168C158.349 14.1245 156.917 12.9614 155.241 12.2745C153.565 11.5877 151.721 11.408 149.942 11.7581C148.162 12.1083 146.528 12.9725 145.245 14.2417C143.963 15.5108 143.089 17.1277 142.735 18.888C142.381 20.6483 142.563 22.473 143.257 24.1311C143.951 25.7893 145.127 27.2066 146.635 28.2037C148.144 29.2009 149.917 29.7331 151.731 29.7331H156.317V54.6915C156.331 55.284 156.579 55.8477 157.007 56.2619C157.436 56.6761 158.011 56.9081 158.61 56.9081C159.209 56.9081 159.784 56.6761 160.213 56.2619C160.641 55.8477 160.889 55.284 160.903 54.6915V29.7331H165.483V54.6915C165.484 55.2925 165.726 55.8684 166.156 56.2929C166.586 56.7175 167.169 56.9559 167.776 56.9559ZM170.069 20.6584C170.069 19.761 170.338 18.8838 170.842 18.1376C171.345 17.3914 172.062 16.8099 172.9 16.4665C173.738 16.123 174.66 16.0332 175.549 16.2083C176.439 16.3833 177.256 16.8155 177.897 17.45C178.539 18.0846 178.976 18.8931 179.152 19.7732C179.329 20.6534 179.239 21.5657 178.891 22.3948C178.544 23.2239 177.957 23.9325 177.202 24.4311C176.448 24.9296 175.562 25.1957 174.655 25.1957H170.069V20.6584ZM156.312 25.1957H151.726C150.819 25.1957 149.932 24.9296 149.178 24.4311C148.424 23.9325 147.836 23.2239 147.489 22.3948C147.142 21.5657 147.051 20.6534 147.228 19.7732C147.405 18.8931 147.842 18.0846 148.483 17.45C149.125 16.8155 149.942 16.3833 150.831 16.2083C151.721 16.0332 152.643 16.123 153.481 16.4665C154.319 16.8099 155.035 17.3914 155.539 18.1376C156.043 18.8838 156.312 19.761 156.312 20.6584V25.1957Z" fill="#E5BC26"/>
<path d="M188.838 48.7277C188.092 47.8181 187.011 47.2381 185.834 47.1147C184.656 46.9912 183.477 47.3343 182.555 48.0688C177.177 52.3814 170.463 54.7302 163.54 54.7199C157.809 54.72 152.195 53.1099 147.353 50.0768C142.51 47.0438 138.637 42.7125 136.185 37.587C135.926 37.0426 135.56 36.5543 135.109 36.1506C134.658 35.7468 134.131 35.4354 133.557 35.2346C132.984 35.0337 132.376 34.9472 131.769 34.9802C131.161 35.0132 130.567 35.165 130.019 35.4268C128.96 35.9322 128.145 36.8297 127.749 37.9251C127.354 39.0205 127.41 40.2259 127.906 41.2806C134.183 54.5277 147.781 63.7015 163.546 63.7015C172.553 63.715 181.289 60.6572 188.283 55.0432C188.738 54.6754 189.116 54.2225 189.394 53.7103C189.672 53.1981 189.845 52.6368 189.904 52.0584C189.962 51.4799 189.905 50.8957 189.735 50.3392C189.566 49.7826 189.287 49.2645 188.915 48.8147L188.838 48.7277Z" fill="#0A4771"/>
<path d="M196.672 36.1749C196.137 35.9114 195.554 35.755 194.957 35.7144C194.361 35.6739 193.762 35.7501 193.195 35.9387C192.628 36.1272 192.104 36.4245 191.654 36.8134C191.203 37.2023 190.834 37.6753 190.569 38.2053C190.252 38.8315 189.913 39.4439 189.552 40.0423C189.02 40.9218 188.807 41.9548 188.949 42.9703C189.091 43.9858 189.579 44.9229 190.332 45.6267C192.436 47.5862 195.846 47.1404 197.326 44.6874C197.81 43.884 198.264 43.0627 198.687 42.2234C198.957 41.6955 199.119 41.1201 199.164 40.5302C199.208 39.9402 199.135 39.3474 198.948 38.7856C198.761 38.2237 198.463 37.7039 198.073 37.2559C197.682 36.808 197.206 36.4406 196.672 36.1749Z" fill="#E5BC26"/>
<path d="M135.783 36.9429C135.783 36.9429 133.609 48.0395 142.355 57.5979C142.355 57.5979 133.957 53.0961 128.45 42.4318C128.45 42.4318 125.789 39.0028 129.107 35.9987C129.634 35.5518 130.261 35.2364 130.937 35.079C131.343 34.9899 131.759 34.9569 132.175 34.9811C132.63 34.9993 133.081 35.0818 133.513 35.226C134.026 35.4058 134.504 35.6722 134.926 36.0134C135.253 36.2831 135.541 36.5959 135.783 36.9429Z" fill="#E5BC26"/>
<path d="M130.795 35.0916C130.843 37.5086 131.201 39.9098 131.862 42.2374C134.173 50.3544 139.588 55.3706 142.343 57.5786C141.83 57.2871 141.139 56.8732 140.357 56.327C139.467 55.6989 138.614 55.0209 137.803 54.2965C136.674 53.3168 135.855 52.5049 135.509 52.1546C135.056 51.6966 134.207 50.8149 133.234 49.6465C131.959 48.1106 130.801 46.4835 129.769 44.7785C129.536 44.4063 129.304 44.0233 129.073 43.6298C128.795 43.1628 128.532 42.7036 128.285 42.2521C127.959 41.7644 127.718 41.2263 127.572 40.66C127.363 39.929 127.345 39.1573 127.521 38.4177C127.639 37.952 127.837 37.5097 128.106 37.1098C128.141 37.0571 128.171 37.0069 128.171 37.0069C128.326 36.7688 128.502 36.545 128.698 36.3382C129.202 35.8294 129.812 35.4364 130.487 35.1871C130.613 35.1393 130.722 35.1099 130.795 35.0916Z" fill="#EFC337"/>
<path d="M172.783 73.5004H153.67C152.597 73.4975 151.569 73.0747 150.811 72.3243C150.052 71.5739 149.625 70.557 149.622 69.4958C149.625 68.4348 150.053 67.4182 150.811 66.6681C151.57 65.918 152.597 65.4953 153.67 65.4924H172.783C173.854 65.504 174.878 65.9254 175.641 66.6681C176.017 67.039 176.316 67.4797 176.519 67.965C176.723 68.4502 176.827 68.9705 176.827 69.4958C176.824 70.5564 176.397 71.5727 175.64 72.323C174.882 73.0733 173.855 73.4965 172.783 73.5004Z" fill="#0A4771"/>
<path d="M168.443 74.9192H157.962C156.104 74.9192 154.598 76.4095 154.598 78.2478C154.598 80.0861 156.104 81.5764 157.962 81.5764H168.443C170.301 81.5764 171.808 80.0861 171.808 78.2478C171.808 76.4095 170.301 74.9192 168.443 74.9192Z" fill="#0A4771"/>
</svg>
