<svg width="306" height="104" viewBox="0 0 306 104" fill="none" xmlns="http://www.w3.org/2000/svg">
<rect width="305.519" height="103.649" rx="6.79665" fill="#48AD50" fill-opacity="0.12"/>
<path d="M18.9062 67.9507L18.9088 67.954C22.3676 72.2633 26.8744 74.4319 32.3776 74.4319C37.8793 74.4319 42.4431 72.2643 45.9037 67.896C49.3444 63.5528 51.0755 58.1541 51.0755 51.7425C51.0755 45.3899 49.4013 40.0434 45.9571 35.7514C42.4981 31.386 37.9904 29.2171 32.487 29.2171C26.9772 29.2171 22.4732 31.4455 18.9641 35.8036L18.9641 35.8036L18.9609 35.8076C15.5214 40.1494 13.7891 45.4927 13.7891 51.8518C13.7891 58.2602 15.4637 63.6053 18.9062 67.9507ZM53.8729 29.8185H53.2191V30.4723V36.5417V37.1955H53.8729H75.6368L56.468 72.9773L55.9524 73.9398H57.0443H64.8087H65.2034L65.3872 73.5906L85.017 36.2994L85.0923 36.1565V35.9949V30.4723V29.8185H84.4385H53.8729ZM42.8237 51.8518C42.8237 56.1853 41.8611 59.8221 39.9277 62.6961C38.0088 65.5485 35.5756 66.9456 32.487 66.9456C29.3959 66.9456 26.9111 65.5465 24.9946 62.646C23.0575 59.7142 22.0956 56.0745 22.0956 51.7425C22.0956 47.4127 23.0566 43.8274 24.9392 40.9495C26.8577 38.0994 29.2902 36.7034 32.3776 36.7034C35.4687 36.7034 37.9535 38.1025 39.87 41.003C41.811 43.9408 42.8237 47.5284 42.8237 51.8518Z" fill="white" stroke="#2A327E" stroke-width="1.30756"/>
<path d="M101.43 11.894L101.43 91.7547" stroke="#D4D4D4" stroke-width="1.69916"/>
<g clip-path="url(#clip0_2245_28344)">
<path d="M148.409 69.5571H136.107L123.51 49.7657C123.071 48.9591 122.689 48.12 122.365 47.2551H122.214V69.5571H112.475V24.0024H122.21V45.5395H122.361C122.605 44.9461 123.007 44.0991 123.567 42.9986L135.508 23.9851H147.113L132.039 45.7297L148.409 69.5571Z" fill="#2A327E"/>
<path d="M155.581 35.2326C154.128 35.2933 152.711 34.7519 151.632 33.7245C151.139 33.2592 150.747 32.6878 150.481 32.0489C150.216 31.41 150.084 30.7185 150.094 30.0212C150.075 29.325 150.203 28.6331 150.469 27.9955C150.735 27.358 151.132 26.7908 151.632 26.3351C152.765 25.4108 154.157 24.9092 155.589 24.9092C157.022 24.9092 158.414 25.4108 159.546 26.3351C160.042 26.7936 160.435 27.3617 160.698 27.9989C160.961 28.6361 161.087 29.3266 161.068 30.0212C161.087 30.7252 160.961 31.4254 160.699 32.073C160.436 32.7207 160.043 33.3004 159.546 33.772C158.451 34.7758 157.031 35.2985 155.581 35.2326ZM160.194 58.5328C160.194 59.9098 160.506 60.9527 161.129 61.6614C161.448 62.0188 161.837 62.2992 162.269 62.4834C162.701 62.6676 163.165 62.7513 163.63 62.7287C164.156 62.7271 164.681 62.6736 165.197 62.5688L166.768 62.2491V69.3057C165.57 69.6318 164.357 69.8914 163.134 70.0835C161.812 70.2856 160.477 70.3853 159.14 70.3817C157.959 70.3993 156.786 70.1732 155.688 69.7162C154.678 69.2913 153.772 68.6344 153.034 67.7932C152.276 66.9182 151.695 65.8887 151.328 64.7684C150.911 63.481 150.707 62.1273 150.726 60.7669V37.0259H160.194V58.5328Z" fill="#2A327E"/>
<path d="M199.003 69.5565H189.506V51.4807C189.506 46.4421 187.797 43.9214 184.38 43.9185C183.601 43.902 182.829 44.0738 182.124 44.4206C181.418 44.7674 180.797 45.2801 180.308 45.9193C179.212 47.3564 178.645 49.1628 178.713 51.0054V69.5565H169.187V37.0261H178.713V42.19H178.832C181.104 38.2317 184.41 36.2512 188.751 36.2483C195.586 36.2483 199.003 40.7136 199.003 49.6442V69.5565Z" fill="#2A327E"/>
<path d="M223.496 29.0839C222.377 28.5982 221.18 28.3401 219.969 28.3234C216.91 28.3234 215.382 30.0706 215.385 33.5651V37.0221H222.438V44.4244H215.385V69.5525H205.888V44.4287H200.705V37.0264H205.888V32.9904C205.888 29.2885 207.033 26.3025 209.324 24.0324C211.616 21.7681 215.688 20.6316 219.625 20.6316C221.255 20.5899 222.881 20.804 224.452 21.2668L223.496 29.0839Z" fill="#2A327E"/>
<path d="M231.636 35.2326C230.183 35.2933 228.766 34.7519 227.687 33.7245C227.194 33.2592 226.802 32.6878 226.536 32.0489C226.271 31.41 226.139 30.7185 226.149 30.0212C226.13 29.325 226.258 28.6331 226.524 27.9955C226.79 27.358 227.187 26.7908 227.687 26.3351C228.82 25.4108 230.212 24.9092 231.644 24.9092C233.077 24.9092 234.469 25.4108 235.601 26.3351C236.097 26.7936 236.49 27.3617 236.753 27.9989C237.016 28.6361 237.142 29.3266 237.123 30.0212C237.142 30.7252 237.017 31.4254 236.754 32.073C236.491 32.7207 236.098 33.3004 235.601 33.772C234.506 34.7758 233.087 35.2985 231.636 35.2326ZM236.249 58.5328C236.249 59.9098 236.561 60.9527 237.184 61.6614C237.503 62.019 237.892 62.2996 238.324 62.4838C238.756 62.6681 239.22 62.7516 239.686 62.7288C240.211 62.7269 240.736 62.6734 241.252 62.5688L242.819 62.2491V69.3057C241.621 69.6327 240.409 69.8923 239.185 70.0835C237.863 70.2858 236.528 70.3855 235.191 70.3817C234.012 70.399 232.84 70.1729 231.743 69.7162C230.733 69.2925 229.826 68.6354 229.09 67.7933C228.331 66.9182 227.75 65.8888 227.384 64.7684C226.966 63.481 226.762 62.1273 226.781 60.7669V37.0259H236.249V58.5328Z" fill="#2A327E"/>
<path d="M247.165 56.9213C250.563 55.0423 253.212 51.9469 254.637 48.1924C254.87 47.6022 255.167 47.0425 255.522 46.5244C256.081 45.6902 256.829 45.0161 257.697 44.5634C258.566 44.1106 259.528 43.8935 260.496 43.9316C261.355 43.9034 262.208 44.0836 262.991 44.4582C263.773 44.8328 264.463 45.3919 265.007 46.0922C265.253 46.4033 265.475 46.7342 265.671 47.0818L276.149 41.5117C276.149 40.3209 275.7 39.1789 274.901 38.3369C274.102 37.4949 273.018 37.0219 271.888 37.0219H266.623V40.803H266.504C264.634 37.7522 261.821 36.2268 258.065 36.2268C253.863 36.2268 250.476 37.8473 247.903 41.0882C245.331 44.3292 244.044 48.7023 244.044 54.2075C244.042 55.6136 244.153 57.0174 244.377 58.4035L247.165 56.9213Z" fill="#48AD50"/>
<path d="M266.738 53.2523V53.9264C266.738 56.5537 266.13 58.6668 264.913 60.2657C264.353 61.0344 263.628 61.6524 262.798 62.0693C261.967 62.4861 261.055 62.6899 260.136 62.664C259.228 62.7006 258.326 62.5042 257.507 62.0916C256.687 61.6791 255.976 61.0628 255.432 60.2959C255.363 60.2009 255.301 60.0928 255.231 59.9934L246.776 64.9456C247.006 65.2956 247.243 65.6413 247.502 65.9697C249.814 68.8909 252.941 70.3515 256.88 70.3515C261.12 70.3515 264.325 68.5308 266.496 64.8894H266.623V67.4822C266.623 70.5532 265.74 72.9831 263.974 74.7721C262.208 76.5611 259.715 77.4571 256.494 77.4599C253.098 77.4116 249.777 76.4011 246.878 74.5344L247.834 82.9868C250.267 84.2342 253.562 84.8594 257.721 84.8623C264.011 84.8623 267.861 83.2029 271.179 79.8885C274.496 76.5741 276.153 71.8985 276.153 65.8617V47.7427L266.738 53.2523Z" fill="#2A327E"/>
<path d="M273.184 34.0058C273.184 34.0058 263.904 31.8711 268.427 16.8245C268.427 16.8245 278.539 23.9718 276.629 31.7458C276.629 31.7458 279.601 25.225 285.195 24.5984C288.358 24.2804 291.473 23.5652 294.475 22.468C294.475 22.468 290.907 39.3944 279.007 36.1361C279.007 36.1361 285.978 34.5762 288.648 29.1141C288.648 29.1141 273.537 41.7797 270.195 24.3607C270.199 24.3478 269.128 26.1065 273.184 34.0058Z" fill="#48AD50"/>
</g>
<defs>
<clipPath id="clip0_2245_28344">
<rect width="182" height="70" fill="white" transform="translate(112.475 16.8245)"/>
</clipPath>
</defs>
</svg>
