<svg width="255" height="122" viewBox="0 0 255 122" fill="none" xmlns="http://www.w3.org/2000/svg">
<rect width="254.362" height="122" rx="8" fill="white"/>
<path d="M26.2678 77.2422L25.0614 78.1979L25.0676 78.2056L26.2678 77.2422ZM56.8388 77.1778L58.0452 78.1335L56.8388 77.1778ZM56.9032 40.2996L55.6968 41.2553L55.7029 41.2629L56.9032 40.2996ZM26.3322 40.3639L25.1334 39.3987L25.1258 39.4082L26.3322 40.3639ZM51.0464 71.9647L52.3234 72.8237L52.3234 72.8237L51.0464 71.9647ZM32.189 71.9003L33.4731 71.0519L33.4731 71.0519L32.189 71.9003ZM32.1246 45.5127L30.8476 44.6536L30.8422 44.6617L30.8369 44.6698L32.1246 45.5127ZM50.9821 45.5771L49.698 46.4255L49.698 46.4255L50.9821 45.5771ZM18.872 58.7709C18.872 66.4554 20.8835 72.9241 25.0615 78.1979L27.4742 76.2865C23.8002 71.6489 21.9501 65.8891 21.9501 58.7709H18.872ZM25.0676 78.2056C29.2841 83.4589 34.809 86.1183 41.5212 86.1183V83.0402C35.7475 83.0402 31.1035 80.8082 27.4681 76.2788L25.0676 78.2056ZM41.5212 86.1183C48.2297 86.1183 53.8245 83.4613 58.0452 78.1335L55.6325 76.2221C52.0012 80.8058 47.2985 83.0402 41.5212 83.0402V86.1183ZM58.0452 78.1335C62.2191 72.8648 64.299 66.3343 64.299 58.6422H61.2209C61.2209 65.7529 59.3105 71.5794 55.6325 76.2221L58.0452 78.1335ZM64.299 58.6422C64.299 51.0226 62.2877 44.5493 58.1035 39.3362L55.7029 41.2629C59.3706 45.8325 61.2209 51.5876 61.2209 58.6422H64.299ZM58.1096 39.3439C53.8924 34.0205 48.3641 31.3591 41.6499 31.3591V34.4372C47.4216 34.4372 52.0621 36.6671 55.6968 41.2553L58.1096 39.3439ZM41.6499 31.3591C34.9223 31.3591 29.4039 34.095 25.1334 39.3987L27.531 41.3292C31.2411 36.7214 35.8916 34.4372 41.6499 34.4372V31.3591ZM25.1258 39.4082C20.9548 44.6733 18.872 51.1378 18.872 58.7709H21.9501C21.9501 51.7298 23.8577 45.966 27.5386 41.3196L25.1258 39.4082ZM53.0472 58.7709C53.0472 63.7591 51.9397 67.8796 49.7694 71.1056L52.3234 72.8237C54.9158 68.9702 56.1253 64.209 56.1253 58.7709H53.0472ZM49.7694 71.1056C47.6335 74.2806 44.9949 75.7675 41.6499 75.7675V78.8456C46.1568 78.8456 49.6967 76.7283 52.3234 72.8237L49.7694 71.1056ZM41.6499 75.7675C38.2992 75.7675 35.6032 74.276 33.4731 71.0519L30.9049 72.7487C33.5373 76.733 37.1487 78.8456 41.6499 78.8456V75.7675ZM33.4731 71.0519C31.2943 67.7543 30.1882 63.6269 30.1882 58.6422H27.1101C27.1101 64.0837 28.321 68.838 30.9049 72.7487L33.4731 71.0519ZM30.1882 58.6422C30.1882 53.6586 31.2938 49.5922 33.4123 46.3556L30.8369 44.6698C28.3215 48.5128 27.1101 53.1994 27.1101 58.6422H30.1882ZM33.4016 46.3718C35.5375 43.1968 38.1762 41.7099 41.5212 41.7099V38.6318C37.0143 38.6318 33.4743 40.7491 30.8476 44.6536L33.4016 46.3718ZM41.5212 41.7099C44.8719 41.7099 47.5678 43.2014 49.698 46.4255L52.2662 44.7287C49.6337 40.7444 46.0224 38.6318 41.5212 38.6318V41.7099ZM49.698 46.4255C51.886 49.7371 53.0472 53.8063 53.0472 58.7709H56.1253C56.1253 53.3091 54.8408 48.6254 52.2662 44.7287L49.698 46.4255ZM101.162 80.5889L102.082 81.8229L102.089 81.8175L102.096 81.8121L101.162 80.5889ZM96.914 57.8055H95.3749V58.8835L96.388 59.2519L96.914 57.8055ZM96.914 57.7411L96.4273 56.281L95.3749 56.6318V57.7411H96.914ZM100.068 36.631L99.1555 37.8707L99.1631 37.8763L99.1708 37.8818L100.068 36.631ZM75.9326 36.631L75.0205 35.3914L75.0205 35.3914L75.9326 36.631ZM79.1506 57.7411H80.6897V56.5822L79.5759 56.262L79.1506 57.7411ZM79.1506 57.8055L79.6847 59.2489L80.6897 58.8771V57.8055H79.1506ZM74.7742 80.5889L73.8543 81.8229L73.8543 81.8229L74.7742 80.5889ZM81.3389 52.7854L80.362 53.9747L80.385 53.9936L80.4087 54.0116L81.3389 52.7854ZM80.3735 63.9197L81.2905 65.1557L81.2905 65.1557L80.3735 63.9197ZM95.4981 63.984L94.5746 65.2153L94.5961 65.2314L94.6181 65.2467L95.4981 63.984ZM95.4981 75.4401L96.3963 76.6899L96.4033 76.6848L95.4981 75.4401ZM80.4378 75.3758L79.4957 76.5927L79.505 76.5999L79.5144 76.607L80.4378 75.3758ZM87.968 86.1183C93.5205 86.1183 98.2341 84.691 102.082 81.8229L100.242 79.355C97.0098 81.7644 92.9704 83.0402 87.968 83.0402V86.1183ZM102.096 81.8121C106.002 78.829 108.043 74.8438 108.043 69.9695H104.965C104.965 73.8482 103.401 76.9426 100.228 79.3657L102.096 81.8121ZM108.043 69.9695C108.043 66.7698 107.147 63.961 105.306 61.6304C103.48 59.3183 100.811 57.5851 97.44 56.3591L96.388 59.2519C99.3882 60.3428 101.514 61.7954 102.89 63.538C104.252 65.2621 104.965 67.3769 104.965 69.9695H108.043ZM98.4531 57.8055V57.7411H95.3749V57.8055H98.4531ZM97.4007 59.2012C103.201 57.2677 106.756 52.6535 106.756 46.5425H103.677C103.677 51.2439 101.053 54.7391 96.4273 56.281L97.4007 59.2012ZM106.756 46.5425C106.756 41.8477 104.766 38.106 100.964 35.3802L99.1708 37.8818C102.191 40.0475 103.677 42.8704 103.677 46.5425H106.756ZM100.98 35.3914C97.2733 32.6639 92.9536 31.3591 87.968 31.3591V34.4372C92.3789 34.4372 96.0399 35.578 99.1555 37.8707L100.98 35.3914ZM87.968 31.3591C83.1111 31.3591 78.727 32.6639 75.0205 35.3914L76.8448 37.8707C79.9604 35.578 83.6857 34.4372 87.968 34.4372V31.3591ZM75.0205 35.3914C71.2393 38.1738 69.2448 41.9049 69.2448 46.5425H72.3229C72.3229 42.942 73.8038 40.1084 76.8448 37.8707L75.0205 35.3914ZM69.2448 46.5425C69.2448 52.6249 72.9074 57.5476 78.7254 59.2203L79.5759 56.262C75.0962 54.9741 72.3229 51.2726 72.3229 46.5425H69.2448ZM77.6116 57.7411V57.8055H80.6897V57.7411H77.6116ZM78.6166 56.3621C75.2125 57.6216 72.5266 59.3895 70.6938 61.7539C68.8475 64.1356 67.9576 67.0061 67.9576 70.2913H71.0357C71.0357 67.5911 71.7548 65.4093 73.1265 63.6398C74.5117 61.8529 76.6528 60.3707 79.6847 59.2489L78.6166 56.3621ZM67.9576 70.2913C67.9576 74.9744 69.936 78.9019 73.8543 81.8229L75.694 79.355C72.5328 76.9984 71.0357 73.975 71.0357 70.2913H67.9576ZM73.8543 81.8229C77.7034 84.6922 82.4821 86.1183 87.968 86.1183V83.0402C83.0275 83.0402 78.9245 81.7632 75.694 79.355L73.8543 81.8229ZM80.1748 47.3148C80.1748 44.0038 83.0374 41.2594 87.968 41.2594V38.1813C81.9573 38.1813 77.0967 41.7441 77.0967 47.3148H80.1748ZM87.968 41.2594C92.8475 41.2594 95.8255 44.079 95.8255 47.3148H98.9036C98.9036 41.7976 93.9009 38.1813 87.968 38.1813V41.2594ZM95.8255 47.3148C95.8255 50.5506 92.8475 53.3702 87.968 53.3702V56.4483C93.9009 56.4483 98.9036 52.832 98.9036 47.3148H95.8255ZM87.968 53.3702C85.6991 53.3702 83.8447 52.7545 82.2691 51.5592L80.4087 54.0116C82.566 55.6481 85.088 56.4483 87.968 56.4483V53.3702ZM82.3158 51.5961C80.8364 50.381 80.1748 49.0012 80.1748 47.3148H77.0967C77.0967 50.0049 78.2372 52.2293 80.362 53.9747L82.3158 51.5961ZM78.952 69.6477C78.952 67.7784 79.6664 66.3607 81.2905 65.1557L79.4564 62.6837C77.0903 64.4392 75.8739 66.7544 75.8739 69.6477H78.952ZM81.2905 65.1557C82.9707 63.9091 85.2055 63.2061 87.968 63.2061V60.128C84.6806 60.128 81.7666 60.9697 79.4564 62.6837L81.2905 65.1557ZM87.968 63.2061C90.6476 63.2061 92.8204 63.8996 94.5746 65.2153L96.4215 62.7528C94.0568 60.9792 91.2095 60.128 87.968 60.128V63.2061ZM94.6181 65.2467C96.3725 66.4695 97.1127 67.9493 97.1127 69.6477H100.191C100.191 66.841 98.8714 64.4591 96.3781 62.7214L94.6181 65.2467ZM97.1127 69.6477C97.1127 71.4152 96.367 72.9051 94.5929 74.1954L96.4033 76.6848C98.8769 74.8858 100.191 72.5142 100.191 69.6477H97.1127ZM94.5998 74.1904C92.8343 75.4594 90.6483 76.1537 87.968 76.1537V79.2318C91.2088 79.2318 94.0429 78.3814 96.3963 76.6899L94.5998 74.1904ZM87.968 76.1537C85.2884 76.1537 83.1156 75.4602 81.3613 74.1445L79.5144 76.607C81.8792 78.3806 84.7264 79.2318 87.968 79.2318V76.1537ZM81.38 74.1588C79.7038 72.861 78.952 71.3558 78.952 69.6477H75.8739C75.8739 72.4449 77.1816 74.8012 79.4957 76.5927L81.38 74.1588Z" fill="#07ADAA"/>
<path d="M130 14L130 108" stroke="#D4D4D4" stroke-width="2"/>
<path d="M241.354 31.5689C241.348 31.3959 241.34 31.2229 241.328 31.0499C240.924 24.7785 235.887 19.5 229.393 19.5C222.675 19.5 217.229 24.9004 217.229 31.563C217.229 38.2256 222.675 43.626 229.393 43.626C229.859 43.626 230.317 43.5945 230.771 43.5434C230.382 46.9189 228.921 50.2099 225.383 52.455L225.438 52.5081C228.049 51.2066 230.566 49.9465 232.902 48.0651C237.804 44.1175 241.558 38.0349 241.354 31.5689Z" fill="black"/>
<path d="M218.772 57.1842C218.772 57.1842 208.373 33.8623 208.276 33.6736C205.233 24.9566 210.29 23.205 210.29 23.205H187.937C187.937 23.205 182.881 24.9566 185.923 33.6736C186.019 33.8623 186.124 34.0491 186.211 34.2398L210.133 86.4551C221.371 81.6739 225.53 69.3003 218.772 57.1842Z" fill="black"/>
<path d="M165.352 23.205H143C157.267 25.7823 162.205 40.4757 162.205 40.4757L162.298 40.4993L183.1 86.4551C194.338 81.6719 198.497 69.2983 191.739 57.1842L182 35.2955C179.231 30.7994 174.013 24.7718 165.352 23.205Z" fill="black"/>
<path d="M169.191 100.941H169.233C169.51 100.001 170.46 97.0367 170.821 95.7274C170.924 95.3499 170.934 95.2064 170.934 95.0727C170.934 94.8879 170.821 94.7661 170.347 94.7661C170.295 94.7661 170.254 94.7346 170.254 94.6953C170.254 94.6442 170.305 94.6245 170.428 94.6245C170.953 94.6245 171.388 94.656 171.479 94.656C171.55 94.656 171.994 94.6245 172.313 94.6245C172.406 94.6245 172.458 94.6442 172.458 94.6855C172.458 94.7366 172.426 94.768 172.365 94.768C172.323 94.768 172.127 94.7779 172.014 94.8191C171.705 94.9312 171.54 95.3617 171.344 95.924C170.89 97.2215 169.849 100.473 169.447 101.619C169.179 102.376 169.128 102.498 169.015 102.498C168.912 102.498 168.85 102.364 168.705 101.967L166.686 96.2838H166.666C166.295 97.2648 164.882 101.008 164.511 101.957C164.346 102.386 164.295 102.5 164.17 102.5C164.067 102.5 164.015 102.388 163.809 101.692L161.974 95.6291C161.809 95.0865 161.674 94.9332 161.407 94.8309C161.272 94.7798 161.014 94.77 160.943 94.77C160.891 94.77 160.85 94.7602 160.85 94.6992C160.85 94.6481 160.911 94.6284 161.014 94.6284C161.549 94.6284 162.116 94.6599 162.231 94.6599C162.324 94.6599 162.778 94.6284 163.294 94.6284C163.439 94.6284 163.48 94.6599 163.48 94.6992C163.48 94.7602 163.429 94.77 163.377 94.77C163.294 94.77 163.1 94.77 162.975 94.8309C162.913 94.8624 162.84 94.943 162.84 95.0767C162.84 95.2104 162.933 95.5682 163.036 96.0164C163.191 96.6711 164.263 100.422 164.418 100.965H164.438L166.622 95.1376C166.777 94.7189 166.818 94.6678 166.88 94.6678C166.951 94.6678 167.015 94.8014 167.137 95.1474L169.191 100.941Z" fill="black"/>
<path d="M175.005 99.3879C175.005 100.369 175.005 101.177 175.056 101.607C175.088 101.904 175.149 102.128 175.459 102.17C175.603 102.189 175.829 102.211 175.922 102.211C175.984 102.211 176.006 102.242 176.006 102.272C176.006 102.323 175.954 102.354 175.841 102.354C175.274 102.354 174.624 102.323 174.572 102.323C174.521 102.323 173.871 102.354 173.561 102.354C173.448 102.354 173.397 102.335 173.397 102.272C173.397 102.24 173.417 102.211 173.48 102.211C173.573 102.211 173.696 102.191 173.789 102.17C173.996 102.128 174.047 101.904 174.089 101.607C174.14 101.179 174.14 100.371 174.14 99.3879V97.589C174.14 95.9947 174.14 95.7076 174.12 95.3813C174.101 95.0333 173.998 94.8603 173.77 94.8092C173.657 94.7777 173.522 94.7679 173.45 94.7679C173.409 94.7679 173.367 94.7482 173.367 94.707C173.367 94.646 173.419 94.6244 173.532 94.6244C173.873 94.6244 174.521 94.6558 174.572 94.6558C174.624 94.6558 175.274 94.6244 175.583 94.6244C175.696 94.6244 175.748 94.644 175.748 94.707C175.748 94.7482 175.706 94.7679 175.665 94.7679C175.593 94.7679 175.53 94.7777 175.407 94.7994C175.129 94.8505 175.046 95.0235 175.026 95.3813C175.007 95.7076 175.007 95.9947 175.007 97.589V99.3879H175.005Z" fill="black"/>
<path d="M178.017 102.22C177.872 102.149 177.862 102.107 177.862 101.83C177.862 101.319 177.904 100.91 177.914 100.747C177.924 100.635 177.946 100.584 177.997 100.584C178.059 100.584 178.068 100.615 178.068 100.696C178.068 100.788 178.068 100.932 178.1 101.073C178.255 101.83 178.935 102.115 179.627 102.115C180.616 102.115 181.101 101.41 181.101 100.755C181.101 100.049 180.802 99.6402 179.916 98.9148L179.452 98.5373C178.36 97.6487 178.112 97.0137 178.112 96.3197C178.112 95.2267 178.937 94.4796 180.245 94.4796C180.647 94.4796 180.947 94.5209 181.204 94.5818C181.401 94.6231 181.482 94.633 181.565 94.633C181.649 94.633 181.668 94.6526 181.668 94.7037C181.668 94.7548 181.627 95.093 181.627 95.787C181.627 95.9501 181.607 96.0229 181.555 96.0229C181.494 96.0229 181.484 95.9718 181.472 95.8892C181.462 95.7673 181.401 95.4901 181.337 95.378C181.274 95.266 180.996 94.8354 180.049 94.8354C179.337 94.8354 178.78 95.2758 178.78 96.0209C178.78 96.6028 179.048 96.9724 180.037 97.7391L180.326 97.9633C181.543 98.9148 181.831 99.5478 181.831 100.366C181.831 100.784 181.666 101.561 180.955 102.062C180.511 102.369 179.956 102.491 179.399 102.491C178.913 102.495 178.439 102.424 178.017 102.22Z" fill="black"/>
<path d="M184.554 97.5871C184.554 95.9927 184.554 95.7057 184.534 95.3794C184.515 95.0314 184.431 94.8682 184.09 94.7975C184.007 94.7778 183.833 94.766 183.74 94.766C183.698 94.766 183.656 94.7463 183.656 94.705C183.656 94.6441 183.708 94.6225 183.821 94.6225C184.059 94.6225 184.336 94.6225 184.562 94.6323L184.984 94.652C185.056 94.652 187.107 94.652 187.345 94.6421C187.542 94.6323 187.706 94.6107 187.789 94.591C187.841 94.5812 187.883 94.5399 187.934 94.5399C187.966 94.5399 187.976 94.5812 187.976 94.6323C187.976 94.7031 187.924 94.8269 187.892 95.112C187.883 95.2142 187.861 95.6644 187.841 95.7863C187.831 95.8374 187.809 95.8984 187.77 95.8984C187.708 95.8984 187.686 95.8473 187.686 95.7647C187.686 95.6939 187.676 95.519 187.625 95.3971C187.553 95.2339 187.45 95.11 186.893 95.0491C186.719 95.0294 185.595 95.0176 185.482 95.0176C185.44 95.0176 185.421 95.0491 185.421 95.1199V97.941C185.421 98.0118 185.43 98.0432 185.482 98.0432C185.617 98.0432 186.883 98.0432 187.121 98.0236C187.369 98.0039 187.514 97.9823 187.605 97.88C187.676 97.7975 187.718 97.7464 187.76 97.7464C187.791 97.7464 187.811 97.766 187.811 97.8289C187.811 97.8899 187.76 98.0648 187.728 98.401C187.708 98.6055 187.686 98.9829 187.686 99.0557C187.686 99.1382 187.686 99.2503 187.615 99.2503C187.563 99.2503 187.544 99.209 187.544 99.1579C187.544 99.0557 187.544 98.9534 187.502 98.8198C187.46 98.6762 187.367 98.5032 186.967 98.462C186.689 98.4305 185.668 98.4108 185.492 98.4108C185.44 98.4108 185.421 98.4423 185.421 98.4816V99.382C185.421 99.73 185.411 100.915 185.421 101.13C185.452 101.836 185.607 101.967 186.616 101.967C186.883 101.967 187.337 101.967 187.605 101.855C187.873 101.743 187.998 101.539 188.069 101.12C188.089 101.008 188.11 100.967 188.162 100.967C188.223 100.967 188.223 101.049 188.223 101.12C188.223 101.202 188.14 101.896 188.089 102.111C188.017 102.376 187.934 102.376 187.532 102.376C186.759 102.376 186.192 102.356 185.789 102.345C185.387 102.325 185.139 102.313 184.984 102.313C184.965 102.313 184.788 102.313 184.572 102.323C184.366 102.323 184.128 102.343 183.973 102.343C183.86 102.343 183.809 102.323 183.809 102.26C183.809 102.229 183.829 102.199 183.892 102.199C183.985 102.199 184.108 102.18 184.201 102.158C184.408 102.117 184.459 101.893 184.501 101.596C184.552 101.167 184.552 100.359 184.552 99.3761V97.5871H184.554Z" fill="black"/>
<path d="M196.391 99.3881C196.391 100.369 196.391 101.177 196.443 101.608C196.475 101.904 196.536 102.129 196.845 102.17C196.99 102.19 197.216 102.211 197.309 102.211C197.371 102.211 197.393 102.243 197.393 102.272C197.393 102.323 197.341 102.355 197.228 102.355C196.661 102.355 196.011 102.323 195.959 102.323C195.908 102.323 195.258 102.355 194.948 102.355C194.835 102.355 194.784 102.335 194.784 102.272C194.784 102.241 194.804 102.211 194.867 102.211C194.96 102.211 195.083 102.192 195.176 102.17C195.382 102.129 195.434 101.904 195.476 101.608C195.527 101.179 195.527 100.371 195.527 99.3881V95.063L194.001 95.0827C193.362 95.0925 193.115 95.1652 192.95 95.409C192.837 95.582 192.805 95.6548 192.776 95.7255C192.744 95.8081 192.714 95.8278 192.673 95.8278C192.641 95.8278 192.621 95.7963 192.621 95.7354C192.621 95.6331 192.827 94.7544 192.847 94.6718C192.867 94.6109 192.909 94.4772 192.95 94.4772C193.022 94.4772 193.125 94.5794 193.404 94.5991C193.703 94.6305 194.094 94.6502 194.219 94.6502H198.084C198.413 94.6502 198.651 94.6305 198.816 94.5991C198.97 94.5794 199.064 94.5479 199.105 94.5479C199.157 94.5479 199.157 94.6089 199.157 94.6698C199.157 94.9765 199.125 95.6823 199.125 95.7944C199.125 95.8868 199.093 95.928 199.054 95.928C199.002 95.928 198.982 95.8966 198.97 95.755L198.961 95.643C198.929 95.3363 198.683 95.1004 197.692 95.0807L196.393 95.0611V99.3881H196.391Z" fill="black"/>
<path d="M202.338 94.8787C202.461 94.5406 202.503 94.4796 202.564 94.4796C202.626 94.4796 202.667 94.5307 202.79 94.8472C202.945 95.2365 204.564 99.4574 205.193 101.012C205.563 101.923 205.863 102.086 206.079 102.147C206.233 102.198 206.388 102.208 206.491 102.208C206.553 102.208 206.594 102.218 206.594 102.269C206.594 102.33 206.501 102.351 206.388 102.351C206.233 102.351 205.48 102.351 204.769 102.332C204.572 102.322 204.459 102.322 204.459 102.261C204.459 102.22 204.491 102.2 204.531 102.19C204.592 102.17 204.654 102.078 204.592 101.915L203.633 99.4004C203.613 99.3591 203.591 99.3394 203.539 99.3394H201.323C201.272 99.3394 201.24 99.3709 201.22 99.422L200.602 101.231C200.509 101.486 200.457 101.732 200.457 101.915C200.457 102.119 200.673 102.212 200.849 102.212H200.953C201.024 102.212 201.056 102.231 201.056 102.273C201.056 102.334 200.994 102.355 200.901 102.355C200.653 102.355 200.211 102.324 200.096 102.324C199.981 102.324 199.416 102.355 198.931 102.355C198.796 102.355 198.734 102.336 198.734 102.273C198.734 102.231 198.776 102.212 198.828 102.212C198.899 102.212 199.044 102.202 199.127 102.192C199.601 102.131 199.807 101.742 199.993 101.231L202.338 94.8787ZM203.409 98.9678C203.46 98.9678 203.46 98.9364 203.45 98.8971L202.471 96.1369C202.419 95.9836 202.368 95.9836 202.316 96.1369L201.409 98.8971C201.389 98.9482 201.409 98.9678 201.44 98.9678H203.409Z" fill="black"/>
<path d="M208.935 99.4078C208.935 100.91 208.977 101.564 209.161 101.749C209.326 101.912 209.593 101.985 210.398 101.985C210.945 101.985 211.397 101.975 211.645 101.678C211.78 101.515 211.883 101.26 211.913 101.065C211.922 100.983 211.944 100.931 212.006 100.931C212.057 100.931 212.067 100.973 212.067 101.085C212.067 101.197 211.996 101.81 211.913 102.107C211.841 102.343 211.809 102.382 211.262 102.382C210.521 102.382 209.984 102.363 209.552 102.351C209.119 102.331 208.798 102.319 208.501 102.319C208.459 102.319 208.285 102.329 208.079 102.329C207.873 102.339 207.647 102.349 207.492 102.349C207.379 102.349 207.327 102.329 207.327 102.266C207.327 102.235 207.347 102.205 207.411 102.205C207.504 102.205 207.627 102.186 207.72 102.164C207.926 102.123 207.978 101.899 208.019 101.602C208.071 101.173 208.071 100.365 208.071 99.3822V97.5834C208.071 95.989 208.071 95.702 208.051 95.3757C208.031 95.0277 207.948 94.8645 207.607 94.7937C207.524 94.7741 207.349 94.7623 207.256 94.7623C207.214 94.7623 207.173 94.7426 207.173 94.7014C207.173 94.6404 207.224 94.6188 207.337 94.6188C207.801 94.6188 208.451 94.6502 208.503 94.6502C208.555 94.6502 209.308 94.6188 209.617 94.6188C209.73 94.6188 209.782 94.6384 209.782 94.7014C209.782 94.7426 209.74 94.7623 209.698 94.7623C209.627 94.7623 209.482 94.7721 209.357 94.7937C209.058 94.8449 208.977 95.0179 208.955 95.3757C208.935 95.702 208.935 95.989 208.935 97.5834V99.4078V99.4078Z" fill="black"/>
<path d="M214.172 97.5872C214.172 95.9928 214.172 95.7058 214.153 95.3794C214.133 95.0315 214.049 94.8683 213.709 94.7975C213.625 94.7779 213.451 94.7661 213.358 94.7661C213.316 94.7661 213.274 94.7464 213.274 94.7051C213.274 94.6442 213.326 94.6226 213.439 94.6226C213.903 94.6226 214.511 94.654 214.573 94.654C214.666 94.654 215.263 94.6226 215.572 94.6226C215.685 94.6226 215.736 94.6422 215.736 94.7051C215.736 94.7464 215.695 94.7661 215.653 94.7661C215.582 94.7661 215.518 94.7759 215.395 94.7975C215.118 94.8486 215.035 95.0216 215.015 95.3794C214.995 95.7058 214.995 95.9928 214.995 97.5872V98.2006H215.037C215.211 98.0059 217.078 96.1245 217.449 95.7274C217.739 95.4306 218.006 95.1652 218.006 94.9922C218.006 94.8703 217.955 94.8074 217.871 94.7779C217.82 94.7582 217.778 94.7366 217.778 94.6953C217.778 94.6442 217.83 94.6245 217.901 94.6245C218.107 94.6245 218.426 94.656 218.674 94.656C218.726 94.656 219.406 94.6245 219.663 94.6245C219.776 94.6245 219.818 94.6442 219.818 94.6953C219.818 94.7464 219.798 94.7661 219.715 94.7661C219.56 94.7661 219.344 94.8172 219.138 94.9096C218.716 95.0944 218.488 95.35 218.024 95.7884C217.766 96.0341 215.972 97.772 215.756 98.0276C216.024 98.3244 218.169 100.522 218.591 100.91C219.457 101.708 219.632 101.871 220.127 102.075C220.395 102.187 220.694 102.209 220.766 102.209C220.837 102.209 220.9 102.229 220.9 102.27C220.9 102.321 220.849 102.353 220.674 102.353H220.149C219.86 102.353 219.665 102.353 219.437 102.333C218.89 102.282 218.633 102.058 218.191 101.71C217.727 101.332 215.542 98.9909 215.047 98.3873H214.995V99.39C214.995 100.371 214.995 101.179 215.047 101.609C215.078 101.906 215.14 102.13 215.449 102.172C215.594 102.191 215.758 102.213 215.851 102.213C215.913 102.213 215.935 102.244 215.935 102.274C215.935 102.325 215.883 102.357 215.77 102.357C215.265 102.357 214.668 102.325 214.585 102.325C214.501 102.325 213.905 102.357 213.596 102.357C213.483 102.357 213.431 102.337 213.431 102.274C213.431 102.243 213.451 102.213 213.514 102.213C213.607 102.213 213.73 102.193 213.824 102.172C214.03 102.13 214.081 101.906 214.123 101.609C214.174 101.181 214.174 100.373 214.174 99.39V97.5872H214.172Z" fill="black"/>
<path d="M222.791 99.3879C222.791 100.369 222.791 101.177 222.842 101.607C222.874 101.904 222.935 102.128 223.245 102.17C223.389 102.189 223.615 102.211 223.709 102.211C223.77 102.211 223.792 102.242 223.792 102.272C223.792 102.323 223.74 102.354 223.627 102.354C223.06 102.354 222.41 102.323 222.359 102.323C222.307 102.323 221.657 102.354 221.348 102.354C221.235 102.354 221.183 102.335 221.183 102.272C221.183 102.24 221.203 102.211 221.266 102.211C221.359 102.211 221.482 102.191 221.576 102.17C221.782 102.128 221.833 101.904 221.875 101.607C221.926 101.179 221.926 100.371 221.926 99.3879V97.589C221.926 95.9947 221.926 95.7076 221.907 95.3813C221.887 95.0333 221.784 94.8603 221.556 94.8092C221.443 94.7777 221.308 94.7679 221.237 94.7679C221.195 94.7679 221.153 94.7482 221.153 94.707C221.153 94.646 221.205 94.6244 221.318 94.6244C221.659 94.6244 222.307 94.6558 222.359 94.6558C222.41 94.6558 223.06 94.6244 223.37 94.6244C223.483 94.6244 223.534 94.644 223.534 94.707C223.534 94.7482 223.492 94.7679 223.451 94.7679C223.379 94.7679 223.316 94.7777 223.193 94.7994C222.916 94.8505 222.832 95.0235 222.813 95.3813C222.793 95.7076 222.793 95.9947 222.793 97.589V99.3879H222.791Z" fill="black"/>
<path d="M226.463 97.5871C226.463 95.9927 226.463 95.7057 226.444 95.3794C226.424 95.0314 226.341 94.8682 226 94.7975C225.916 94.7778 225.742 94.766 225.649 94.766C225.607 94.766 225.565 94.7463 225.565 94.705C225.565 94.6441 225.617 94.6225 225.73 94.6225C225.968 94.6225 226.245 94.6225 226.471 94.6323L226.894 94.652C226.965 94.652 229.017 94.652 229.255 94.6421C229.451 94.6323 229.615 94.6107 229.699 94.591C229.75 94.5812 229.792 94.5399 229.843 94.5399C229.875 94.5399 229.885 94.5812 229.885 94.6323C229.885 94.7031 229.833 94.8269 229.802 95.112C229.792 95.2142 229.77 95.6644 229.75 95.7863C229.74 95.8374 229.718 95.8984 229.679 95.8984C229.617 95.8984 229.595 95.8473 229.595 95.7647C229.595 95.6939 229.586 95.519 229.534 95.3971C229.463 95.2339 229.36 95.11 228.803 95.0491C228.628 95.0294 227.504 95.0176 227.391 95.0176C227.35 95.0176 227.33 95.0491 227.33 95.1199V97.941C227.33 98.0118 227.34 98.0432 227.391 98.0432C227.526 98.0432 228.793 98.0432 229.031 98.0236C229.278 98.0039 229.423 97.9823 229.514 97.88C229.586 97.7975 229.627 97.7464 229.669 97.7464C229.701 97.7464 229.72 97.766 229.72 97.8289C229.72 97.8899 229.669 98.0648 229.637 98.401C229.617 98.6055 229.595 98.9829 229.595 99.0557C229.595 99.1382 229.595 99.2503 229.524 99.2503C229.473 99.2503 229.453 99.209 229.453 99.1579C229.453 99.0557 229.453 98.9534 229.411 98.8198C229.369 98.6762 229.276 98.5032 228.876 98.462C228.598 98.4305 227.577 98.4108 227.401 98.4108C227.35 98.4108 227.33 98.4423 227.33 98.4816V99.382C227.33 99.73 227.32 100.915 227.33 101.13C227.361 101.836 227.516 101.967 228.525 101.967C228.793 101.967 229.247 101.967 229.514 101.855C229.782 101.743 229.907 101.539 229.978 101.12C229.998 101.008 230.02 100.967 230.071 100.967C230.133 100.967 230.133 101.049 230.133 101.12C230.133 101.202 230.049 101.896 229.998 102.111C229.927 102.376 229.843 102.376 229.441 102.376C228.668 102.376 228.101 102.356 227.698 102.345C227.296 102.325 227.048 102.313 226.894 102.313C226.874 102.313 226.697 102.313 226.481 102.323C226.275 102.323 226.037 102.343 225.883 102.343C225.77 102.343 225.718 102.323 225.718 102.26C225.718 102.229 225.738 102.199 225.801 102.199C225.894 102.199 226.017 102.18 226.111 102.158C226.317 102.117 226.368 101.893 226.41 101.596C226.461 101.167 226.461 100.359 226.461 99.3761V97.5871H226.463Z" fill="black"/>
<path d="M232.088 102.22C231.944 102.149 231.934 102.107 231.934 101.83C231.934 101.319 231.975 100.91 231.985 100.747C231.995 100.635 232.017 100.584 232.068 100.584C232.13 100.584 232.14 100.615 232.14 100.696C232.14 100.788 232.14 100.932 232.171 101.073C232.326 101.83 233.006 102.115 233.698 102.115C234.687 102.115 235.173 101.41 235.173 100.755C235.173 100.049 234.873 99.6402 233.987 98.9148L233.523 98.5373C232.431 97.6487 232.183 97.0137 232.183 96.3197C232.183 95.2267 233.008 94.4796 234.316 94.4796C234.719 94.4796 235.018 94.5209 235.276 94.5818C235.472 94.6231 235.553 94.633 235.637 94.633C235.72 94.633 235.74 94.6526 235.74 94.7037C235.74 94.7548 235.698 95.093 235.698 95.787C235.698 95.9501 235.678 96.0229 235.627 96.0229C235.565 96.0229 235.555 95.9718 235.543 95.8892C235.533 95.7673 235.472 95.4901 235.409 95.378C235.345 95.266 235.068 94.8354 234.12 94.8354C233.408 94.8354 232.851 95.2758 232.851 96.0209C232.851 96.6028 233.119 96.9724 234.108 97.7391L234.398 97.9633C235.615 98.9148 235.902 99.5478 235.902 100.366C235.902 100.784 235.738 101.561 235.026 102.062C234.582 102.369 234.027 102.491 233.47 102.491C232.986 102.495 232.51 102.424 232.088 102.22Z" fill="black"/>
</svg>
