<svg width="222" height="109" viewBox="0 0 222 109" fill="none" xmlns="http://www.w3.org/2000/svg">
<rect width="221.704" height="108.094" rx="6.79665" fill="#FFCC01" fill-opacity="0.07"/>
<path d="M25.5034 70.1459L25.506 70.1492C28.9648 74.4585 33.4716 76.6271 38.9748 76.6271C44.4764 76.6271 49.0402 74.4595 52.5009 70.0912C55.9416 65.748 57.6726 60.3492 57.6726 53.9377C57.6726 47.5851 55.9985 42.2386 52.5543 37.9466C49.0953 33.5812 44.5875 31.4123 39.0841 31.4123C33.5744 31.4123 29.0704 33.6407 25.5613 37.9988L25.5613 37.9988L25.5581 38.0028C22.1185 42.3446 20.3863 47.6879 20.3863 54.047C20.3863 60.4554 22.0609 65.8005 25.5034 70.1459ZM67.043 65.9023L66.5036 65.4528L66.0937 66.0228L62.5942 70.8892L62.2454 71.3742L62.6971 71.7652C66.4707 75.0319 70.7211 76.6818 75.4278 76.6818C82.3405 76.6818 87.2957 73.7335 90.4994 69.2014C93.6833 64.6974 95.1099 58.6736 95.1099 52.516C95.1099 45.1185 93.5127 39.6575 90.1066 36.2515C86.8581 33.003 82.8054 31.4123 77.9977 31.4123C73.525 31.4123 69.702 32.8336 66.5127 35.7379C63.363 38.6013 61.7604 42.2793 61.7604 46.7747C61.7604 51.0339 63.1863 54.6011 66.0078 57.3075C68.8224 60.0071 72.4355 61.3717 76.7401 61.3717C80.4841 61.3717 84.3618 59.8448 87.0339 57.1487C86.4298 61.3601 84.8572 64.8431 81.744 67.371C80.0096 68.7474 77.9147 69.4689 75.4278 69.4689C72.7283 69.4689 69.9187 68.2987 67.043 65.9023ZM49.4208 54.047C49.4208 58.3805 48.4583 62.0173 46.5248 64.8913C44.6059 67.7437 42.1728 69.1408 39.0841 69.1408C35.9931 69.1408 33.5082 67.7417 31.5918 64.8412C29.6547 61.9094 28.6927 58.2697 28.6927 53.9377C28.6927 49.6079 29.6537 46.0226 31.5364 43.1447C33.4549 40.2946 35.8874 38.8986 38.9748 38.8986C42.0658 38.8986 44.5507 40.2977 46.4671 43.1982C48.4081 46.136 49.4208 49.7236 49.4208 54.047ZM78.107 54.2134C75.6507 54.2134 73.6342 53.4268 72.2365 52.0912C70.8416 50.7583 70.0122 48.8309 70.0122 46.4466C70.0122 44.0986 70.8627 42.2136 72.2698 40.9119C73.6821 39.6053 75.7022 38.8439 78.107 38.8439C80.602 38.8439 82.6756 39.5964 84.1182 40.9146C85.5538 42.2265 86.4206 44.1491 86.4206 46.6107C86.4206 48.83 85.6256 50.6172 83.9679 52.0758C82.2833 53.5036 80.3569 54.2134 78.107 54.2134Z" fill="white" stroke="#E1AE00" stroke-width="1.30756"/>
<path d="M108.956 14.1167L108.956 93.9774" stroke="#D4D4D4" stroke-width="1.69916"/>
<path d="M148.822 31.2859C153.957 31.2859 158.119 27.1615 158.119 22.0737C158.119 16.986 153.957 12.8616 148.822 12.8616C143.687 12.8616 139.525 16.986 139.525 22.0737C139.525 27.1615 143.687 31.2859 148.822 31.2859Z" fill="#FFCC01"/>
<path d="M179.436 53.1247C184.571 53.1247 188.734 49.0003 188.734 43.9126C188.734 38.8249 184.571 34.7004 179.436 34.7004C174.302 34.7004 170.139 38.8249 170.139 43.9126C170.139 49.0003 174.302 53.1247 179.436 53.1247Z" fill="#FFCC01"/>
<path d="M176.171 25.9455C180.087 25.9455 183.261 22.8 183.261 18.9198C183.261 15.0397 180.087 11.8942 176.171 11.8942C172.255 11.8942 169.08 15.0397 169.08 18.9198C169.08 22.8 172.255 25.9455 176.171 25.9455Z" fill="#FFCC01"/>
<path d="M151.536 54.2682C155.452 54.2682 158.627 51.1227 158.627 47.2425C158.627 43.3623 155.452 40.2168 151.536 40.2168C147.62 40.2168 144.446 43.3623 144.446 47.2425C144.446 51.1227 147.62 54.2682 151.536 54.2682Z" fill="#FFCC01"/>
<path d="M148.822 31.2859C153.957 31.2859 158.119 27.1615 158.119 22.0737C158.119 16.986 153.957 12.8616 148.822 12.8616C143.687 12.8616 139.525 16.986 139.525 22.0737C139.525 27.1615 143.687 31.2859 148.822 31.2859Z" fill="#FFCC01"/>
<path d="M179.436 53.1247C184.571 53.1247 188.734 49.0003 188.734 43.9126C188.734 38.8249 184.571 34.7004 179.436 34.7004C174.302 34.7004 170.139 38.8249 170.139 43.9126C170.139 49.0003 174.302 53.1247 179.436 53.1247Z" fill="#FFCC01"/>
<path d="M176.171 25.9455C180.087 25.9455 183.261 22.8 183.261 18.9198C183.261 15.0397 180.087 11.8942 176.171 11.8942C172.255 11.8942 169.08 15.0397 169.08 18.9198C169.08 22.8 172.255 25.9455 176.171 25.9455Z" fill="#FFCC01"/>
<path d="M151.536 54.2682C155.452 54.2682 158.627 51.1227 158.627 47.2425C158.627 43.3623 155.452 40.2168 151.536 40.2168C147.62 40.2168 144.446 43.3623 144.446 47.2425C144.446 51.1227 147.62 54.2682 151.536 54.2682Z" fill="#FFCC01"/>
<path d="M125.456 68.8584H131.56C135.495 68.8584 138.418 69.3415 140.329 70.3076C142.241 71.2738 143.816 72.8448 145.054 75.0206C146.293 77.1964 146.912 79.7367 146.911 82.6417C146.911 84.7087 146.565 86.608 145.873 88.3395C145.181 90.0711 144.224 91.5084 143.003 92.6513C141.784 93.7936 140.463 94.5836 139.041 95.0214C137.619 95.4591 135.156 95.678 131.652 95.678H125.456V68.8584ZM130.571 73.7811V90.7008H132.963C135.316 90.7008 137.024 90.4331 138.088 89.8976C139.152 89.362 140.02 88.4616 140.692 87.1963C141.366 85.9309 141.704 84.3732 141.704 82.5232C141.704 79.6739 140.9 77.4657 139.293 75.8986C137.845 74.4876 135.52 73.7818 132.318 73.7811H130.571Z" fill="#FFCC01"/>
<path d="M153.297 74.1667C155.138 74.1667 156.63 72.6881 156.63 70.8642C156.63 69.0402 155.138 67.5616 153.297 67.5616C151.457 67.5616 149.964 69.0402 149.964 70.8642C149.964 72.6881 151.457 74.1667 153.297 74.1667Z" fill="#FFCC01"/>
<path d="M150.819 75.8258H150.73V95.6624H155.757V79.9851C155.752 76.0434 151.49 75.8345 150.819 75.8258Z" fill="#FFCC01"/>
<path d="M172.858 81.1468V85.5431C172.858 87.4158 172.753 88.6374 172.544 89.2079C172.261 89.9746 171.828 90.5561 171.244 90.9524C170.66 91.3487 169.95 91.5462 169.114 91.5449C168.277 91.5449 167.572 91.3445 167.001 90.9437C166.417 90.5257 165.981 89.9351 165.756 89.2565C165.499 88.5338 165.37 87.2426 165.369 85.3828V81.681C165.302 76.7272 162.344 75.9307 160.973 75.8258H160.287V84.0822C160.287 87.2552 160.483 89.443 160.875 90.6455C161.427 92.3842 162.381 93.7395 163.737 94.7115C165.093 95.6835 166.869 96.1692 169.064 96.1685C171.09 96.1685 172.758 95.7521 174.068 94.9194C175.379 94.0866 176.374 92.8938 177.053 91.341C177.605 90.0659 177.882 87.6959 177.882 84.2308V75.8258H176.984C175.598 75.9938 173.087 76.8933 172.858 81.1468Z" fill="#FFCC01"/>
<path d="M160.298 75.8258C160.298 75.8258 161.024 95.2613 169.075 96.1733C169.075 96.1733 162.489 96.9669 160.691 89.8859C160.443 88.1099 160.312 86.3199 160.299 84.527L160.298 75.8258Z" fill="#FFCC01"/>
<path d="M177.883 75.8258C177.883 75.8258 177.589 96.3298 169.069 96.1735C169.069 96.1735 176.013 96.8738 177.5 89.7917C177.5 89.7917 178.06 87.7578 177.885 81.105L177.883 75.8258Z" fill="#FFCC01"/>
<path d="M195.598 81.1468V85.5431C195.598 87.4158 195.494 88.6374 195.285 89.2079C195.002 89.9746 194.569 90.5561 193.985 90.9524C193.4 91.3487 192.69 91.5462 191.854 91.5449C191.017 91.5449 190.313 91.3445 189.742 90.9437C189.157 90.5257 188.722 89.9351 188.497 89.2565C188.239 88.5338 188.108 87.2426 188.105 85.3828V81.681C188.038 76.7272 185.08 75.9307 183.709 75.8258H183.023V84.0822C183.023 87.2552 183.219 89.443 183.611 90.6455C184.163 92.3842 185.117 93.7395 186.473 94.7115C187.828 95.6835 189.604 96.1692 191.8 96.1685C193.826 96.1685 195.492 95.7521 196.799 94.9194C198.106 94.0866 199.104 92.8938 199.794 91.341C200.346 90.0659 200.622 87.6959 200.622 84.2308V75.8258H199.724C198.339 75.9938 195.828 76.8933 195.598 81.1468Z" fill="#FFCC01"/>
<path d="M183.034 75.8258C183.034 75.8258 183.76 95.2613 191.811 96.1733C191.811 96.1733 185.225 96.9669 183.427 89.8859C183.179 88.1099 183.048 86.3199 183.035 84.527L183.034 75.8258Z" fill="#FFCC01"/>
<path d="M200.628 75.8258C200.628 75.8258 200.334 96.3298 191.814 96.1735C191.814 96.1735 198.758 96.8738 200.245 89.7917C200.245 89.7917 200.805 87.7578 200.63 81.105L200.628 75.8258Z" fill="#FFCC01"/>
<path d="M125.456 68.8617C125.456 68.8617 144.448 70.1245 146.911 82.645C146.911 82.645 147.091 78.8811 145.44 75.7534C145.44 75.7534 143.146 70.0225 136.801 69.2367C136.799 69.2367 134.083 68.5946 125.456 68.8617Z" fill="#FFCC01"/>
<path d="M148.822 31.2859C153.957 31.2859 158.119 27.1615 158.119 22.0737C158.119 16.986 153.957 12.8616 148.822 12.8616C143.687 12.8616 139.525 16.986 139.525 22.0737C139.525 27.1615 143.687 31.2859 148.822 31.2859Z" fill="#FFCC01"/>
<path d="M179.436 53.1247C184.571 53.1247 188.734 49.0003 188.734 43.9126C188.734 38.8249 184.571 34.7004 179.436 34.7004C174.302 34.7004 170.139 38.8249 170.139 43.9126C170.139 49.0003 174.302 53.1247 179.436 53.1247Z" fill="#FFCC01"/>
<path d="M176.171 25.9455C180.087 25.9455 183.261 22.8 183.261 18.9198C183.261 15.0397 180.087 11.8942 176.171 11.8942C172.255 11.8942 169.08 15.0397 169.08 18.9198C169.08 22.8 172.255 25.9455 176.171 25.9455Z" fill="#FFCC01"/>
<path d="M151.536 54.2682C155.452 54.2682 158.627 51.1227 158.627 47.2425C158.627 43.3623 155.452 40.2168 151.536 40.2168C147.62 40.2168 144.446 43.3623 144.446 47.2425C144.446 51.1227 147.62 54.2682 151.536 54.2682Z" fill="#FFCC01"/>
</svg>
