<svg width="379" height="104" viewBox="0 0 379 104" fill="none" xmlns="http://www.w3.org/2000/svg">
<rect width="378.382" height="103.649" rx="6.79665" fill="#F1502D" fill-opacity="0.1"/>
<path d="M14.1011 43.3085L13.5395 43.6468L13.8794 44.2074L16.9962 49.3473L17.3341 49.9046L17.8925 49.5683L26.5249 44.3692V78.8084V79.4622H27.1787H33.9042H34.558V78.8084V35.9947V35.3409H33.9042H27.5068H27.325L27.1694 35.4347L14.1011 43.3085ZM46.6741 73.4731L46.6767 73.4763C50.1355 77.7857 54.6423 79.9543 60.1455 79.9543C65.6471 79.9543 70.2109 77.7867 73.6716 73.4184C77.1123 69.0751 78.8434 63.6764 78.8434 57.2648C78.8434 50.9122 77.1692 45.5657 73.725 41.2737C70.266 36.9083 65.7582 34.7394 60.2548 34.7394C54.7451 34.7394 50.2411 36.9678 46.732 41.3259L46.7288 41.33C43.2892 45.6717 41.557 51.015 41.557 57.3742C41.557 63.7825 43.2316 69.1276 46.6741 73.4731ZM70.5916 57.3742C70.5916 61.7076 69.629 65.3444 67.6955 68.2185C65.7766 71.0709 63.3435 72.468 60.2548 72.468C57.1638 72.468 54.6789 71.0689 52.7625 68.1683C50.8254 65.2365 49.8634 61.5968 49.8634 57.2648C49.8634 52.935 50.8245 49.3496 52.7072 46.4716C54.6257 43.6216 57.0581 42.2257 60.1455 42.2257C63.2365 42.2257 65.7214 43.6248 67.6378 46.5254C69.5788 49.4631 70.5916 53.0508 70.5916 57.3742Z" fill="white" stroke="#EE392E" stroke-width="1.30756"/>
<path d="M95.1812 11.8942L95.1812 91.7548" stroke="#D4D4D4" stroke-width="1.69916"/>
<path d="M134.047 28.8116C135.361 27.2865 136.937 26.1207 138.998 25.7455C141.323 25.322 140.929 25.1532 140.936 27.1272C140.952 31.7813 140.982 36.4355 140.926 41.0892C140.894 43.7596 140.56 46.4033 139.291 48.8493C136.472 54.2863 131.949 57.5203 125.581 58.3143C116.853 59.4022 108.506 53.8178 106.615 45.4945C104.62 36.7147 110.461 27.8103 120.082 25.9533C124.866 25.0299 129.307 25.9314 133.367 28.5075C133.504 28.5945 133.645 28.675 133.789 28.7517C133.835 28.7761 133.895 28.7774 134.047 28.8116H134.047ZM123.604 33.6598C118.672 33.6572 114.687 37.3764 114.672 41.9959C114.656 46.6325 118.631 50.4164 123.522 50.4211C128.428 50.4262 132.417 46.6672 132.421 42.0349C132.424 37.4377 128.45 33.6619 123.604 33.6598Z" fill="url(#paint0_linear_2245_34222)"/>
<path d="M136.767 56.9515C139.121 56.9416 140.939 58.6252 140.952 60.83C140.967 63.0994 139.206 64.9137 136.862 64.9286C134.59 64.9432 132.565 63.0977 132.562 60.9139C132.558 58.6834 134.385 56.9622 136.766 56.9519L136.767 56.9515Z" fill="#E4AD23"/>
<path d="M136.862 67.0381C134.576 67.0527 132.423 65.8321 131.282 64.0436C129.593 67.944 125.104 70.1856 120.665 69.1406C118.223 68.5658 116.258 67.1062 115.053 65.2107C114.546 63.9613 113.406 62.9763 111.872 62.6221C109.362 62.0426 106.964 63.4024 106.355 65.752C106.071 66.8471 106.269 67.9697 106.813 68.9046C109.1 73.1352 113.223 76.4475 118.437 77.675C127.64 79.8412 137.118 74.7511 139.932 66.2741C139.025 66.7555 137.98 67.0313 136.861 67.0386L136.862 67.0381Z" fill="url(#paint1_linear_2245_34222)"/>
<path d="M193.649 36.5979H200.09C203.618 36.5979 206.128 36.8961 207.625 37.495C209.123 38.0939 210.327 39.0854 211.235 40.4745C212.146 41.8612 212.601 43.5038 212.601 45.3999C212.601 47.3929 212.098 49.0579 211.093 50.3973C210.088 51.7367 208.57 52.7506 206.547 53.439L214.111 66.9178H207.466L200.284 54.0776H199.729V66.9178H193.649V36.5979ZM199.729 48.449H201.634C203.566 48.449 204.898 48.208 205.628 47.7259C206.356 47.2438 206.72 46.4436 206.72 45.3278C206.72 44.6668 206.539 44.0903 206.181 43.6007C205.819 43.1112 205.335 42.7608 204.731 42.5471C204.126 42.3333 203.014 42.2265 201.399 42.2265H199.732V48.4515L199.729 48.449Z" fill="#BE1E2D"/>
<path d="M237.929 35.8245C242.446 35.8245 246.333 37.3776 249.583 40.484C252.834 43.5903 254.46 47.375 254.46 51.8407C254.46 56.3063 252.855 60.0091 249.649 63.0731C246.44 66.1372 242.548 67.6705 237.973 67.6705C233.398 67.6705 229.197 66.0975 226.025 62.9514C222.853 59.8053 221.267 56.0678 221.267 51.7388C221.267 48.8412 222.005 46.1747 223.481 43.7419C224.957 41.309 226.988 39.3831 229.574 37.9616C232.157 36.5402 234.942 35.8269 237.926 35.8269L237.929 35.8245ZM237.863 41.473C234.908 41.473 232.424 42.4496 230.409 44.4004C228.394 46.3512 227.389 48.8313 227.389 51.8407C227.389 55.193 228.655 57.8471 231.191 59.7978C233.162 61.3237 235.421 62.0866 237.973 62.0866C240.855 62.0866 243.312 61.0975 245.338 59.1194C247.367 57.1413 248.382 54.701 248.382 51.8009C248.382 48.9008 247.361 46.4729 245.317 44.4725C243.273 42.472 240.789 41.473 237.863 41.473Z" fill="#BE1E2D"/>
<path d="M286.407 36.5979H292.449V66.9178H286.407V36.5979Z" fill="#BE1E2D"/>
<path d="M303.058 36.5979H309.159V56.205C309.159 57.8948 309.313 59.0876 309.625 59.7884C309.936 60.4892 310.449 61.0483 311.166 61.4683C311.883 61.8882 312.747 62.097 313.76 62.097C314.831 62.097 315.754 61.8634 316.527 61.3962C317.301 60.929 317.838 60.3351 318.134 59.6144C318.429 58.8938 318.579 57.5171 318.579 55.4843V36.5979H324.677V54.6742C324.677 57.7233 324.496 59.8406 324.135 61.0235C323.774 62.2064 323.083 63.3445 322.062 64.4454C321.041 65.5462 319.866 66.3589 318.534 66.8882C317.202 67.4175 315.652 67.6809 313.888 67.6809C311.572 67.6809 309.557 67.1764 307.842 66.165C306.128 65.1561 304.9 63.8912 304.162 62.3728C303.424 60.8545 303.055 58.2874 303.055 54.6742V36.5979H303.058Z" fill="#BE1E2D"/>
<path d="M340.737 53.0334L347.157 50.5558C346.519 50.034 345.741 49.4077 344.804 48.6647C342.326 46.6717 340.839 45.3745 340.347 44.7707C339.983 44.3159 339.802 43.8363 339.802 43.3268C339.802 42.8174 340.056 42.3626 340.564 41.9576C341.072 41.5525 341.724 41.3487 342.522 41.3487C344.16 41.3487 345.77 42.3924 347.351 44.4824L351.855 40.7101C350.175 38.8562 348.612 37.5764 347.17 36.8756C345.728 36.1749 344.21 35.8245 342.616 35.8245C340.137 35.8245 338.054 36.5774 336.369 38.0809C334.68 39.5843 333.835 41.3885 333.835 43.4908C333.835 44.9471 334.343 46.4083 335.356 47.872C336.232 49.1344 338.028 50.8565 340.737 53.0334Z" fill="#BE1E2D"/>
<path d="M348.948 52.3052C348.882 52.2406 348.796 52.1611 348.696 52.0717L342.347 54.5219C343.975 55.7992 345.064 56.7734 345.566 57.417C346.103 58.1029 346.37 58.7912 346.37 59.4771C346.37 60.2326 346.014 60.8986 345.304 61.4751C344.595 62.0516 343.718 62.3424 342.674 62.3424C340.674 62.3424 338.905 61.0029 337.369 58.3215L332.26 61.249C333.464 63.5153 334.908 65.1778 336.597 66.2365C338.285 67.2951 340.266 67.8244 342.541 67.8244C345.454 67.8244 347.814 67.0143 349.626 65.3916C351.437 63.7713 352.342 61.7161 352.342 59.2286C352.342 57.9488 352.083 56.7734 351.57 55.6949C351.057 54.6163 350.183 53.4856 348.95 52.3027L348.948 52.3052Z" fill="#BE1E2D"/>
<path d="M269.927 50.8322V36.5979H263.844V53.1805L269.927 50.8322Z" fill="#BE1E2D"/>
<path d="M269.921 52.8452L263.844 55.1911V66.9452H278.778V61.4409H269.921V52.8452Z" fill="#BE1E2D"/>
<path d="M157.044 51.8282C157.044 51.771 157.036 51.7163 157.036 51.6567C157.036 48.8262 158.099 46.4207 160.219 44.4426C162.341 42.4645 164.974 41.473 168.118 41.473C171.724 41.473 174.884 42.8348 177.592 45.5534L181.874 41.5351C179.919 39.5297 177.922 38.1132 175.881 37.2881C173.465 36.3115 170.866 35.8245 168.086 35.8245C162.776 35.8245 158.462 37.5913 155.149 41.1226C152.356 44.0922 150.958 47.5812 150.958 51.5946C150.958 52.4469 151.032 53.2794 151.16 54.0995L157.046 51.8282H157.044Z" fill="#BE1E2D"/>
<path d="M184.088 51.4394H168.023V56.8594H177.273C176.388 58.6461 175.226 59.9583 173.784 60.7958C172.342 61.6332 170.572 62.0532 168.471 62.0532C165.238 62.0532 162.522 61.0368 160.32 59.0015C158.661 57.4682 157.627 55.6815 157.219 53.6412L151.537 55.8355C151.914 57.165 152.468 58.4474 153.209 59.6824C154.722 62.2123 156.777 64.1605 159.376 65.5273C161.975 66.8941 164.93 67.5775 168.243 67.5775C171.339 67.5775 174.04 66.9513 176.341 65.7013C178.642 64.4513 180.516 62.6372 181.963 60.259C183.41 57.8832 184.133 55.3683 184.133 52.7143L184.088 51.4344V51.4394Z" fill="#BE1E2D"/>
<defs>
<linearGradient id="paint0_linear_2245_34222" x1="106.226" y1="41.9625" x2="140.959" y2="41.9625" gradientUnits="userSpaceOnUse">
<stop stop-color="#FFCD27"/>
<stop offset="1" stop-color="#ED312E"/>
</linearGradient>
<linearGradient id="paint1_linear_2245_34222" x1="109.933" y1="16483.6" x2="25296.9" y2="16483.6" gradientUnits="userSpaceOnUse">
<stop stop-color="#FFCD27"/>
<stop offset="1" stop-color="#ED312E"/>
</linearGradient>
</defs>
</svg>
