<svg width="325" height="122" viewBox="0 0 325 122" fill="none" xmlns="http://www.w3.org/2000/svg">
<rect x="0.527344" width="323.85" height="122" rx="6.79665" fill="white"/>
<path d="M31.7597 45.5824L34.8764 50.7222L44.4999 44.9263V80.5223H51.2255V37.7086H44.828L31.7597 45.5824ZM57.0167 45.5824L60.1334 50.7222L69.757 44.9263V80.5223H76.4825V37.7086H70.085L57.0167 45.5824Z" fill="white"/>
<path d="M31.7597 45.5824L31.0849 44.4624L29.9617 45.1391L30.6416 46.2604L31.7597 45.5824ZM34.8764 50.7222L33.7584 51.4002L34.4343 52.5149L35.551 51.8423L34.8764 50.7222ZM44.4999 44.9263H45.8075V42.6124L43.8253 43.8062L44.4999 44.9263ZM44.4999 80.5223H43.1924V81.8299H44.4999V80.5223ZM51.2255 80.5223V81.8299H52.533V80.5223H51.2255ZM51.2255 37.7086H52.533V36.4011H51.2255V37.7086ZM44.828 37.7086V36.4011H44.4645L44.1532 36.5886L44.828 37.7086ZM30.6416 46.2604L33.7584 51.4002L35.9945 50.0443L32.8778 44.9044L30.6416 46.2604ZM35.551 51.8423L45.1745 46.0464L43.8253 43.8062L34.2018 49.6021L35.551 51.8423ZM43.1924 44.9263V80.5223H45.8075V44.9263H43.1924ZM44.4999 81.8299H51.2255V79.2148H44.4999V81.8299ZM52.533 80.5223V37.7086H49.9179V80.5223H52.533ZM51.2255 36.4011H44.828V39.0162H51.2255V36.4011ZM44.1532 36.5886L31.0849 44.4624L32.4345 46.7024L45.5028 38.8286L44.1532 36.5886ZM57.0167 45.5824L56.3419 44.4624L55.2188 45.1391L55.8987 46.2604L57.0167 45.5824ZM60.1334 50.7222L59.0154 51.4002L59.6913 52.5149L60.8081 51.8423L60.1334 50.7222ZM69.757 44.9263H71.0645V42.6124L69.0824 43.8062L69.757 44.9263ZM69.757 80.5223H68.4494V81.8299H69.757V80.5223ZM76.4825 80.5223V81.8299H77.7901V80.5223H76.4825ZM76.4825 37.7086H77.7901V36.4011H76.4825V37.7086ZM70.085 37.7086V36.4011H69.7216L69.4102 36.5886L70.085 37.7086ZM55.8987 46.2604L59.0154 51.4002L61.2515 50.0443L58.1348 44.9044L55.8987 46.2604ZM60.8081 51.8423L70.4316 46.0464L69.0824 43.8062L59.4588 49.6021L60.8081 51.8423ZM68.4494 44.9263V80.5223H71.0645V44.9263H68.4494ZM69.757 81.8299H76.4825V79.2148H69.757V81.8299ZM77.7901 80.5223V37.7086H75.1749V80.5223H77.7901ZM76.4825 36.4011H70.085V39.0162H76.4825V36.4011ZM69.4102 36.5886L56.3419 44.4624L57.6915 46.7024L70.7598 38.8286L69.4102 36.5886Z" fill="#2CA89B"/>
<path d="M98.377 21.0697L98.377 100.93" stroke="#D4D4D4" stroke-width="1.69916"/>
<path d="M138.676 45.2903V77.6578C138.676 84.2394 135.899 88.5001 130.087 88.5001C128.204 88.5001 126.213 87.9597 124.377 86.7196L126.684 81.5929C127.787 82.1333 128.83 82.4035 129.771 82.3481C131.87 82.2441 132.341 80.5676 132.341 77.6509V45.2903H138.676ZM131.762 37.8427C131.762 42.9694 139.309 42.9694 139.309 37.8427C139.309 32.716 131.762 32.716 131.762 37.8427Z" fill="#19244E"/>
<path d="M168.182 58.7274C168.182 66.3897 163.104 72.5903 154.723 72.5903C146.343 72.5903 141.312 66.3828 141.312 58.7274C141.312 51.072 146.443 44.8645 154.669 44.8645C162.895 44.8645 168.182 51.1205 168.182 58.7274ZM147.701 58.7274C147.701 62.7733 150.055 66.5491 154.723 66.5491C159.391 66.5491 161.738 62.7733 161.738 58.7274C161.738 54.6815 159.014 50.8503 154.723 50.8503C150.116 50.8503 147.701 54.7369 147.701 58.7274Z" fill="#19244E"/>
<path d="M177.151 34.2834V49.0123C178.671 46.2619 182.915 44.7516 185.639 44.7516C193.179 44.7516 198.788 49.4973 198.788 58.6699C198.788 67.8426 193.078 72.5883 185.484 72.5883C182.343 72.5883 179.148 71.5075 177.157 68.3275L176.74 71.9994H170.768V34.2834H177.157H177.151ZM177.568 58.6699C177.568 63.471 181.025 66.4916 185.06 66.4916C189.096 66.4916 192.392 63.3117 192.392 58.6699C192.392 54.0282 189.143 50.8967 185.06 50.8967C180.978 50.8967 177.568 54.0282 177.568 58.6699Z" fill="#19244E"/>
<path d="M208.379 37.9009C208.379 43.0276 200.832 43.0276 200.832 37.9009C200.832 32.7742 208.379 32.7742 208.379 37.9009Z" fill="#19244E"/>
<path d="M207.806 45.2925H201.416V71.9999H207.806V45.2925Z" fill="#19244E"/>
<path d="M243.427 61.0481C243.844 64.3389 246.622 66.7152 251.129 66.7152C253.483 66.7152 256.577 65.8007 258.043 64.2349L262.126 68.3848C259.402 71.3015 254.949 72.7009 251.021 72.7009C242.116 72.7009 236.829 67.0338 236.829 58.5124C236.829 49.991 242.17 44.5941 250.55 44.5941C258.931 44.5941 264.587 50.0949 263.592 61.0481H243.427ZM257.464 55.5957C257.047 52.1456 254.424 50.4205 250.759 50.4205C247.301 50.4205 244.477 52.1456 243.528 55.5957H257.458H257.464Z" fill="#19244E"/>
<path d="M294.37 34.2834V71.9994H288.397L287.98 68.3275C285.99 71.5075 282.795 72.5883 279.654 72.5883C272.06 72.5883 266.35 67.4061 266.35 58.6699C266.35 49.4973 271.952 44.7516 279.499 44.7516C282.223 44.7516 286.467 46.2619 287.987 49.0123V34.2834H294.377H294.37ZM272.739 58.6699C272.739 63.3117 275.988 66.4916 280.071 66.4916C284.153 66.4916 287.563 63.471 287.563 58.6699C287.563 53.8689 284.106 50.8967 280.071 50.8967C276.035 50.8967 272.739 53.8689 272.739 58.6699Z" fill="#19244E"/>
<path d="M208.379 37.9009C208.379 43.0276 200.832 43.0276 200.832 37.9009C200.832 32.7742 208.379 32.7742 208.379 37.9009Z" fill="#19244E"/>
<path d="M241.74 41.5037C241.74 46.6304 234.193 46.6304 234.193 41.5037C234.193 36.377 241.74 36.377 241.74 41.5037Z" fill="#32BCAD"/>
<path d="M223.135 51.0047H227.809V55.8405H234.199V45.3931H223.135V51.0047Z" fill="#32BCAD"/>
<path d="M220.505 45.3953V43.989C220.505 41.3563 222.126 39.7144 224.447 39.1948V33.5C218.756 33.9642 214.109 37.6221 214.109 43.9959V45.4023H210.43V51.0139H214.109V71.9988H220.499V45.3953H220.505Z" fill="#19244E"/>
<path d="M234.2 58.4197H227.811V71.9916H234.2V58.4197Z" fill="#19244E"/>
<path d="M175.998 84.3543H180.289L181.143 86.3974H182.018L178.621 78.3987H177.687L174.29 86.3974H175.134L175.998 84.3543ZM176.31 83.5882L178.139 79.267L179.968 83.5882H176.31Z" fill="#414042"/>
<path d="M187.589 86.3974V83.0263C187.589 81.7187 186.845 80.8402 185.559 80.8402C184.745 80.8402 184.132 81.208 183.71 81.9435V80.9424H182.936V86.3974H183.72V83.2919C183.72 82.8016 183.871 82.393 184.172 82.0661C184.473 81.729 184.855 81.5655 185.318 81.5655C186.282 81.5655 186.805 82.2091 186.805 83.2204V86.3974H187.589Z" fill="#414042"/>
<path d="M191.901 78.9912C191.901 79.3181 192.162 79.5837 192.484 79.5837C192.815 79.5837 193.077 79.3181 193.077 78.9912C193.077 78.6541 192.815 78.3885 192.484 78.3885C192.162 78.3885 191.901 78.6541 191.901 78.9912ZM192.886 80.9424H192.092V86.3974H192.886V80.9424Z" fill="#414042"/>
<path d="M199.306 86.3974V83.0263C199.306 81.7187 198.562 80.8402 197.276 80.8402C196.462 80.8402 195.849 81.208 195.427 81.9435V80.9424H194.653V86.3974H195.437V83.2919C195.437 82.8016 195.588 82.393 195.889 82.0661C196.191 81.729 196.572 81.5655 197.035 81.5655C197.999 81.5655 198.522 82.2091 198.522 83.2204V86.3974H199.306Z" fill="#414042"/>
<path d="M200.811 78.9912C200.811 79.3181 201.073 79.5837 201.394 79.5837C201.726 79.5837 201.987 79.3181 201.987 78.9912C201.987 78.6541 201.726 78.3885 201.394 78.3885C201.073 78.3885 200.811 78.6541 200.811 78.9912ZM201.796 80.9424H201.002V86.3974H201.796V80.9424Z" fill="#414042"/>
<path d="M205.443 86.4383C205.674 86.4383 205.885 86.4076 206.056 86.3566V85.6926C205.945 85.7232 205.784 85.7334 205.573 85.7334C204.991 85.7334 204.699 85.478 204.699 84.9673V81.6472H206.056V80.9424H204.699V79.3692H203.925V80.9424H202.931V81.6472H203.925V84.9877C203.925 85.9582 204.428 86.4383 205.443 86.4383Z" fill="#414042"/>
<path d="M207.19 78.9912C207.19 79.3181 207.451 79.5837 207.773 79.5837C208.105 79.5837 208.366 79.3181 208.366 78.9912C208.366 78.6541 208.105 78.3885 207.773 78.3885C207.451 78.3885 207.19 78.6541 207.19 78.9912ZM208.175 80.9424H207.381V86.3974H208.175V80.9424Z" fill="#414042"/>
<path d="M211.691 83.2511C211.128 83.2511 210.636 83.3839 210.204 83.6393C209.782 83.8946 209.57 84.2828 209.57 84.8242V84.8855C209.57 85.3452 209.731 85.7334 210.063 86.0399C210.394 86.3361 210.837 86.4894 211.369 86.4894C212.133 86.4894 212.736 86.142 213.178 85.4372H213.188V86.3974H213.952V82.8731C213.952 82.536 213.902 82.2397 213.791 81.9741C213.469 81.2284 212.816 80.8504 211.831 80.8504C210.766 80.8504 210.033 81.3203 209.631 82.2602L210.274 82.6279C210.606 81.9128 211.118 81.5553 211.811 81.5553C212.726 81.5553 213.178 81.9946 213.178 82.8833V83.2511H211.691ZM213.178 84.099C213.178 84.5995 213.017 84.9979 212.706 85.3146C212.394 85.6313 211.992 85.7845 211.51 85.7845C210.837 85.7845 210.354 85.427 210.354 84.8242C210.384 84.1092 211.068 83.8946 211.681 83.9049H213.178V84.099Z" fill="#414042"/>
<path d="M217.484 86.4383C217.715 86.4383 217.926 86.4076 218.097 86.3566V85.6926C217.986 85.7232 217.825 85.7334 217.614 85.7334C217.032 85.7334 216.74 85.478 216.74 84.9673V81.6472H218.097V80.9424H216.74V79.3692H215.966V80.9424H214.972V81.6472H215.966V84.9877C215.966 85.9582 216.469 86.4383 217.484 86.4383Z" fill="#414042"/>
<path d="M219.231 78.9912C219.231 79.3181 219.492 79.5837 219.814 79.5837C220.145 79.5837 220.407 79.3181 220.407 78.9912C220.407 78.6541 220.145 78.3885 219.814 78.3885C219.492 78.3885 219.231 78.6541 219.231 78.9912ZM220.216 80.9424H219.422V86.3974H220.216V80.9424Z" fill="#414042"/>
<path d="M221.33 80.9424L223.611 86.3974H224.445L226.736 80.9424H225.902L224.033 85.5189L222.194 80.9424H221.33Z" fill="#414042"/>
<path d="M232.408 83.9151C232.418 83.864 232.418 83.7721 232.418 83.6495C232.418 82.822 232.197 82.158 231.755 81.637C231.313 81.116 230.69 80.8504 229.886 80.8504C229.152 80.8504 228.529 81.1262 228.027 81.6881C227.524 82.2499 227.273 82.9037 227.273 83.6597C227.273 84.4463 227.535 85.1205 228.057 85.6721C228.58 86.2136 229.223 86.4894 229.997 86.4894C230.961 86.4894 231.815 85.9786 232.268 85.0796L231.685 84.6914C231.373 85.3452 230.74 85.7845 229.986 85.7845C229.464 85.7845 229.022 85.6108 228.66 85.2533C228.298 84.8958 228.097 84.4463 228.067 83.9151H232.408ZM228.077 83.2409C228.148 82.7709 228.349 82.3725 228.69 82.0456C229.032 81.7085 229.434 81.5451 229.886 81.5451C230.891 81.5451 231.514 82.2193 231.624 83.2409H228.077Z" fill="#414042"/>
<path d="M238.616 78.7563C238.847 78.7563 239.038 78.7767 239.178 78.8278V78.1535C238.977 78.082 238.776 78.0514 238.585 78.0514C237.591 78.0514 236.937 78.7052 236.937 79.931V80.9424H235.943V81.637H236.937V86.3974H237.721V81.637H239.128V80.9424H237.721V79.9106C237.721 79.0627 238.133 78.7563 238.616 78.7563Z" fill="#414042"/>
<path d="M240.187 80.9424V86.3974H240.971V83.7312C240.971 83.1693 241.101 82.6994 241.373 82.301C241.644 81.9026 242.066 81.6983 242.649 81.6983C242.719 81.6983 242.82 81.7085 242.95 81.7187V80.8709C242.91 80.8606 242.82 80.8606 242.689 80.8606C242.006 80.8606 241.333 81.2386 240.961 82.0252V80.9424H240.187Z" fill="#414042"/>
<path d="M246.189 86.4894C246.973 86.4894 247.637 86.2136 248.169 85.6721C248.702 85.1307 248.973 84.4565 248.973 83.6495C248.973 82.8629 248.702 82.2091 248.169 81.6677C247.637 81.1262 246.983 80.8504 246.21 80.8504C245.416 80.8504 244.752 81.1262 244.22 81.6677C243.687 82.2091 243.426 82.8833 243.426 83.6903C243.426 84.4667 243.687 85.1307 244.22 85.6721C244.752 86.2136 245.416 86.4894 246.189 86.4894ZM246.21 85.7845C245.637 85.7845 245.154 85.5802 244.783 85.1614C244.411 84.7425 244.23 84.2318 244.23 83.6495C244.23 83.0672 244.411 82.5666 244.783 82.158C245.154 81.7494 245.617 81.5451 246.189 81.5451C246.762 81.5451 247.235 81.7596 247.606 82.1784C247.978 82.5973 248.169 83.108 248.169 83.6903C248.169 84.2726 247.978 84.763 247.606 85.1716C247.235 85.5802 246.772 85.7845 246.21 85.7845Z" fill="#414042"/>
<path d="M254.785 86.3974V83.2613C254.785 82.7812 254.916 82.3828 255.187 82.0661C255.458 81.7392 255.82 81.5757 256.272 81.5757C257.207 81.5757 257.659 82.2397 257.659 83.2204V86.3974H258.443V83.0263C258.443 81.7187 257.719 80.8504 256.463 80.8504C255.669 80.8504 255.036 81.208 254.574 81.9333C254.243 81.208 253.67 80.8402 252.856 80.8402C252.092 80.8402 251.58 81.1875 251.127 81.8924V80.9424H250.354V86.3974H251.137V83.2919C251.137 82.822 251.268 82.4134 251.539 82.0763C251.811 81.7392 252.172 81.5655 252.625 81.5655C253.549 81.5655 254.011 82.2499 254.011 83.2V86.3974H254.785Z" fill="#414042"/>
<path d="M262.544 81.1404H261.374C261.334 81.1404 261.3 81.1127 261.293 81.078L260.923 79.734C260.91 79.6855 260.937 79.637 260.984 79.6232C260.991 79.6232 260.997 79.6232 261.011 79.6232H265.477C265.517 79.6232 265.551 79.6509 265.558 79.6855L265.914 81.0295C265.928 81.078 265.901 81.1265 265.854 81.1404C265.847 81.1404 265.84 81.1404 265.833 81.1404H264.401C264.354 81.1404 264.313 81.182 264.313 81.2305V86.2048C264.313 86.2532 264.273 86.2948 264.226 86.2948H262.713C262.665 86.2948 262.625 86.2532 262.625 86.2048V81.2305C262.625 81.182 262.585 81.1404 262.538 81.1404" fill="#414042"/>
<path d="M269.566 85.1082H266.923C266.923 85.1082 266.862 85.1221 266.849 85.1498L266.223 86.2444C266.223 86.2444 266.183 86.286 266.149 86.286H264.609C264.562 86.286 264.521 86.2444 264.521 86.1959C264.521 86.182 264.521 86.1682 264.535 86.1543L268.167 79.6559C268.194 79.6143 268.241 79.6005 268.281 79.6212C268.295 79.6282 268.308 79.642 268.315 79.6559L271.94 86.1543C271.967 86.1959 271.947 86.2513 271.907 86.2721C271.893 86.279 271.88 86.286 271.866 86.286H270.326C270.326 86.286 270.266 86.2721 270.252 86.2444L269.627 85.1498C269.627 85.1498 269.586 85.1082 269.553 85.1082M268.833 83.7434L268.308 82.822C268.281 82.7804 268.234 82.7665 268.194 82.7873C268.18 82.7943 268.174 82.8081 268.16 82.822L267.636 83.7434C267.609 83.785 267.622 83.8404 267.663 83.8612C267.676 83.8681 267.689 83.875 267.703 83.875H268.752C268.799 83.875 268.84 83.8335 268.84 83.785C268.84 83.7711 268.84 83.7572 268.826 83.7434" fill="#414042"/>
<path d="M276.13 86.2917H272.336C272.289 86.2917 272.249 86.2501 272.249 86.2016V79.717C272.249 79.6685 272.289 79.627 272.336 79.627H273.85C273.897 79.627 273.937 79.6616 273.937 79.7101V84.6775C273.937 84.7259 273.978 84.7675 274.025 84.7675H276.533C276.581 84.7675 276.621 84.8091 276.621 84.8576C276.621 84.8645 276.621 84.8714 276.621 84.8853L276.224 86.2293C276.211 86.264 276.177 86.2917 276.143 86.2917" fill="#414042"/>
<path d="M277.085 86.1906V79.713C277.085 79.6645 277.125 79.6229 277.172 79.6229H278.995C279.533 79.6229 280.017 79.6922 280.428 79.8308C280.838 79.9624 281.154 80.1841 281.389 80.4958C281.618 80.8007 281.732 81.2025 281.732 81.6875C281.732 82.0546 281.625 82.408 281.43 82.7128C281.262 82.9899 281.019 83.2116 280.724 83.3432C280.676 83.364 280.656 83.4125 280.676 83.461V83.4749L282.25 86.1629C282.277 86.2045 282.264 86.2599 282.223 86.2807C282.21 86.2876 282.197 86.2946 282.176 86.2946H280.414C280.414 86.2946 280.354 86.2738 280.34 86.2461L278.78 83.3017H278.76V86.1906C278.76 86.2391 278.719 86.2807 278.672 86.2807H277.159C277.112 86.2807 277.071 86.2391 277.071 86.1906M278.753 82.8167C278.753 82.8652 278.793 82.9068 278.84 82.9068C279.082 82.9068 279.291 82.8652 279.459 82.8098C279.634 82.7544 279.782 82.6435 279.889 82.498C279.99 82.3526 280.037 82.1655 280.037 81.9369C280.037 81.5905 279.93 81.3549 279.721 81.2302C279.52 81.1124 279.23 81.0501 278.84 81.0432C278.793 81.0432 278.753 81.0847 278.753 81.1332V82.8167Z" fill="#414042"/>
<path d="M287.269 80.0914C287.76 80.3824 288.164 80.7981 288.446 81.2969C288.736 81.8026 288.884 82.3777 288.884 82.9666C288.884 83.5554 288.736 84.1304 288.446 84.6293C287.868 85.6546 286.799 86.2781 285.648 86.2781C284.498 86.2781 283.429 85.6546 282.844 84.6293C282.554 84.1235 282.4 83.5485 282.406 82.9666C282.406 82.3777 282.554 81.8026 282.844 81.2969C283.133 80.7981 283.536 80.3824 284.027 80.0914C285.03 79.5026 286.26 79.5026 287.269 80.0914ZM284.781 81.3593C284.249 81.7126 283.92 82.3153 283.913 82.9666C283.913 83.2852 283.994 83.597 284.148 83.8741C284.296 84.1582 284.512 84.4006 284.781 84.5738C285.305 84.9272 285.985 84.9272 286.516 84.5738C286.778 84.4006 287 84.1582 287.148 83.8741C287.458 83.3129 287.458 82.6201 287.148 82.0521C287 81.768 286.778 81.5325 286.516 81.3593C286.26 81.1861 285.958 81.096 285.648 81.096C285.339 81.096 285.036 81.1861 284.781 81.3593Z" fill="#414042"/>
<path d="M289.555 86.2045V79.713C289.555 79.6645 289.595 79.6229 289.642 79.6229H291.606C292.063 79.6229 292.454 79.6576 292.776 79.7268C293.079 79.7823 293.368 79.9 293.624 80.0732C293.866 80.2395 294.054 80.4681 294.175 80.7383C294.303 81.0154 294.371 81.3549 294.371 81.7567C294.371 82.0616 294.31 82.3664 294.175 82.6435C294.048 82.9068 293.866 83.1285 293.637 83.3086C293.395 83.5026 293.119 83.6481 292.824 83.7381C292.501 83.8421 292.171 83.8906 291.835 83.8906H291.33C291.283 83.8906 291.243 83.9321 291.243 83.9806V86.2114C291.243 86.2599 291.203 86.3015 291.155 86.3015H289.642C289.595 86.3015 289.555 86.2599 289.555 86.2114M291.243 81.1332V82.3872C291.243 82.4357 291.283 82.4772 291.33 82.4772H291.727C292.037 82.4772 292.272 82.4149 292.44 82.2902C292.602 82.1655 292.689 81.9923 292.689 81.7567C292.689 81.5281 292.608 81.3549 292.44 81.2302C292.272 81.1055 292.037 81.0501 291.727 81.0501H291.33C291.283 81.0501 291.243 81.0917 291.243 81.1401" fill="#414042"/>
</svg>
