<svg width="115" height="115" viewBox="0 0 115 115" fill="none" xmlns="http://www.w3.org/2000/svg">
<g clip-path="url(#clip0_1851_15928)">
<path d="M95.3219 67.9109C87.5509 71.8592 79.2068 74.5574 70.5973 75.906C62.1548 77.23 53.5668 77.3327 45.0972 76.2111C28.4136 74.1272 12.7545 67.0477 0.174598 55.9016C13.406 65.4133 29.2134 70.6887 45.5121 71.0321C61.2701 71.5912 76.8321 67.3625 90.1472 58.9031L95.3219 67.9109Z" fill="#013C3C"/>
<path d="M82.6255 53.7281L109.519 53.7706L96.0246 77.0311L82.6255 53.7281Z" fill="#013C3C"/>
<path d="M91.7417 73.7612C87.6338 76.2272 83.2322 78.1663 78.6407 79.5327C74.0453 80.9481 69.3184 81.8932 64.5328 82.3532C62.1312 82.611 59.7297 82.6487 57.319 82.6774C56.1182 82.6687 54.9175 82.5501 53.7168 82.4865L51.9478 82.4232L50.1605 82.1582C48.9782 81.9663 47.7775 81.811 46.5952 81.6007L43.1033 80.7316C42.5351 80.5668 41.9394 80.4296 41.3803 80.2557L39.6849 79.6424C38.5668 79.2213 37.4579 78.791 36.3491 78.3424C37.5467 78.5251 38.7198 78.7262 39.8686 78.9457L41.6099 79.2748C42.1874 79.3571 42.774 79.4118 43.3606 79.4849L46.8526 79.914L50.3265 80.1049C54.9834 80.3796 59.6554 80.2732 64.2957 79.7868C68.95 79.3434 73.5728 78.6128 78.1375 77.5989C82.7347 76.5535 87.2754 75.2726 91.7417 73.7612Z" fill="#0FA76F"/>
<path d="M2.51278 53.2343C10.119 56.6222 17.5696 59.7627 25.2862 62.3623C29.1262 63.6713 33.0396 64.7419 36.9805 65.6933C40.9796 66.5576 45.0252 67.1923 49.0972 67.5943C44.9632 68.2103 40.7634 68.2401 36.6222 67.6825C32.4905 67.0927 28.4203 66.1344 24.4601 64.8192C20.5211 63.4643 16.6865 61.8241 12.9865 59.9115C9.28914 58.0265 5.78179 55.7905 2.51278 53.2343Z" fill="#0FA76F"/>
</g>
<defs>
<clipPath id="clip0_1851_15928">
<rect width="82.9492" height="78.8371" fill="white" transform="translate(55.7461) rotate(45)"/>
</clipPath>
</defs>
</svg>
