<svg width="22" height="22" viewBox="0 0 22 22" fill="none" xmlns="http://www.w3.org/2000/svg">
<path d="M6.86143 8.62531L5.37162 10.1151L10.1604 14.9031L20.8031 4.26048L19.3132 2.77067L10.1604 11.9235L6.86143 8.62531ZM19.7388 10.6476C19.7388 12.3316 19.2394 13.9777 18.3039 15.3778C17.3684 16.778 16.0386 17.8692 14.4829 18.5137C12.9271 19.1581 11.2152 19.3267 9.56366 18.9982C7.91208 18.6696 6.39501 17.8588 5.20429 16.668C4.01357 15.4773 3.20268 13.9602 2.87416 12.3087C2.54564 10.6571 2.71425 8.94519 3.35866 7.38944C4.00308 5.83369 5.09435 4.50396 6.49449 3.56842C7.89463 2.63288 9.54075 2.13353 11.2247 2.13353C12.0164 2.12696 12.8049 2.2337 13.5664 2.45051L15.2686 0.749911C13.9689 0.287867 12.6037 0.036397 11.2247 0.00500488C9.11976 0.00500488 7.06212 0.629185 5.31194 1.79861C3.56177 2.96804 2.19768 4.6302 1.39216 6.57488C0.586643 8.51957 0.375883 10.6595 0.786531 12.7239C1.19718 14.7884 2.21079 16.6847 3.69919 18.1731C5.18759 19.6615 7.08393 20.6751 9.1484 21.0858C11.2129 21.4964 13.3528 21.2857 15.2974 20.4802C17.2421 19.6747 18.9043 18.3106 20.0737 16.5604C21.2431 14.8102 21.8673 12.7526 21.8673 10.6476H19.7388Z" fill="#0483BC"/>
</svg>
