<svg width="105" height="68" viewBox="0 0 105 68" fill="none" xmlns="http://www.w3.org/2000/svg">
<g clip-path="url(#clip0_2789_13749)">
<path d="M104.904 24.2632C104.811 23.5867 104.555 22.9432 104.157 22.3892C103.759 21.8352 103.231 21.3875 102.62 21.0856C102.084 20.8377 101.498 20.7188 100.908 20.7383C100.318 20.7578 99.7409 20.9152 99.2225 21.1979C97.17 21.2891 95.0988 21.3546 93.0486 21.3921C92.1636 21.4108 91.288 21.4225 90.4263 21.4342H89.5974V12.3459C89.6007 11.4477 89.4105 10.5593 89.0397 9.74155C88.669 8.92378 88.1264 8.19584 87.4492 7.60748C86.1275 6.41879 84.4253 5.80806 82.3868 5.80806C81.9784 5.80813 81.5705 5.83471 81.1656 5.88762C80.7324 5.9432 80.3044 6.03398 79.8859 6.15905C79.367 6.30791 78.8734 6.53431 78.4219 6.83062C77.8946 7.17824 77.4618 7.65164 77.1622 8.20831C76.8627 8.76499 76.7058 9.38751 76.7056 10.02C76.7043 10.8103 76.9447 11.582 77.3945 12.2312C77.3945 12.2569 77.4108 12.2874 77.4201 12.3248C77.4326 12.4508 77.4381 12.5773 77.4365 12.7039V21.3219L76.8224 21.2915V12.3459C76.8258 11.4474 76.6355 10.5588 76.2643 9.74095C75.8931 8.9231 75.3498 8.19532 74.6718 7.60748C73.3408 6.41879 71.6362 5.80806 69.6001 5.80806C69.1917 5.80813 68.7838 5.83471 68.3788 5.88762C67.9457 5.9432 67.5177 6.03398 67.0992 6.15905C66.5801 6.30933 66.086 6.53563 65.6328 6.83062C65.1064 7.17878 64.6745 7.65241 64.3758 8.20905C64.0771 8.76569 63.9209 9.38793 63.9212 10.02C63.9203 10.8088 64.1589 11.5792 64.6054 12.2289C64.6054 12.2546 64.6218 12.285 64.6334 12.3225C64.6458 12.4484 64.6513 12.575 64.6498 12.7015V21.3196C64.2762 21.3055 63.9493 21.2868 63.6621 21.2611H63.4963C62.9102 21.2423 62.3731 21.2096 61.8991 21.1675H61.752H61.6049C60.6281 21.1486 59.6744 21.4662 58.9031 22.0671C58.1317 22.668 57.5894 23.5158 57.3668 24.4691C57.2146 25.0719 57.1555 25.6946 57.1916 26.3153H56.9581C54.8976 26.3295 52.8826 26.9247 51.1439 28.0329C49.4264 29.1151 47.9355 30.5218 46.754 32.1746C46.803 31.159 46.8264 30.1201 46.8264 29.0648C46.8316 25.9132 46.4138 22.7753 45.5841 19.7354C44.7768 16.7308 43.4232 13.9012 41.5912 11.3888C39.713 8.85562 37.2849 6.78328 34.4903 5.32837C31.5855 3.77699 28.1483 3.00013 24.2675 3.00013C20.8726 2.96198 17.5047 3.60895 14.3646 4.9025C11.4332 6.12837 8.79432 7.96259 6.62155 10.2844C4.44778 12.644 2.77196 15.4193 1.69461 18.4438C0.540579 21.6985 -0.0332426 25.1312 -0.000637859 28.5851C-0.0232355 31.905 0.555093 35.2015 1.70628 38.3146C2.15731 39.5314 2.70387 40.7105 3.34081 41.8409C3.83939 42.7286 4.39392 43.5837 5.00103 44.4008C5.42901 44.9768 5.88896 45.5284 6.37871 46.0528C6.69831 46.4111 7.05439 46.735 7.44115 47.0192C7.91587 47.3598 8.44716 47.6134 9.0103 47.7679C10.2854 48.108 11.6401 47.9759 12.8258 47.3959V48.6688C12.8057 50.6203 12.9959 52.5683 13.3932 54.4789C13.7594 56.2703 14.4821 57.9694 15.5181 59.4747C16.5934 60.9847 18.0573 62.1743 19.7538 62.9167C21.365 63.6351 23.2728 64.0001 25.4257 64.0001C27.2917 63.9781 29.1332 63.5719 30.836 62.8068C32.6786 61.9818 34.375 60.8619 35.8587 59.4911C37.5073 57.9653 38.9621 56.2418 40.1902 54.3596C41.2271 52.7856 42.1286 51.126 42.8848 49.3989C43.0934 50.6313 43.4332 51.8378 43.8982 52.9977C44.7077 55.0722 45.9187 56.9656 47.4615 58.5691C48.9357 60.0826 50.6975 61.2848 52.643 62.1048C54.5644 62.9171 56.6287 63.3356 58.7141 63.3356C60.654 63.3607 62.5856 63.078 64.4373 62.4979C65.6172 62.1174 66.7519 61.6081 67.8208 60.9793C68.6743 61.7988 69.6902 62.4293 70.8026 62.8302C72.0146 63.2615 73.2923 63.4777 74.5784 63.469C76.6288 63.5033 78.6457 62.9452 80.388 61.8614C80.6215 61.714 80.855 61.5619 81.0698 61.3934C81.8229 62.0159 82.6766 62.505 83.594 62.8395C84.8068 63.2702 86.0854 63.4856 87.3721 63.476C89.4175 63.5081 91.4291 62.951 93.1677 61.8708C94.6464 60.9312 95.9437 59.7319 96.9972 58.3304C98.0048 56.9893 98.8309 55.5203 99.4536 53.9618C99.9882 52.6391 100.439 51.2839 100.803 49.9043C100.932 49.5002 100.999 49.0789 101.002 48.6548V48.4793C100.999 47.6542 100.826 46.8385 100.495 46.0832C100.208 45.4197 99.8209 44.8048 99.3462 44.2604C98.8679 43.7095 98.3022 43.2415 97.672 42.8751C96.8946 42.4117 96.0079 42.1645 95.1034 42.1591C94.4543 42.1645 93.8133 42.3043 93.2206 42.5697C92.628 42.835 92.0964 43.2202 91.6592 43.7011C90.863 44.5248 90.3469 45.6105 90.0784 47.0192C89.943 47.6673 89.7795 48.3576 89.5857 49.0806V32.8765L92.3551 32.8648C94.5314 32.8648 97.0906 32.8134 99.958 32.7432C100.662 32.7227 101.35 32.533 101.965 32.1902C102.581 31.8473 103.105 31.3612 103.493 30.7729C103.96 30.0918 104.314 29.3396 104.542 28.5453C104.743 27.8509 104.877 27.1386 104.941 26.4183C105.022 25.7013 105.009 24.9769 104.904 24.2632V24.2632ZM56.2436 42.8634V42.6996H56.3393C56.309 42.7558 56.274 42.8096 56.2436 42.8634Z" fill="#F8F8F8"/>
<path d="M42.3018 20.6364C43.0559 23.3988 43.436 26.2501 43.432 29.114C43.4502 32.2598 43.1868 35.4009 42.6451 38.4995C42.1744 41.1698 41.4583 43.7908 40.5062 46.329C39.685 48.5165 38.6263 50.6069 37.3492 52.5626C36.2625 54.2331 34.9739 55.7625 33.5127 57.1161C32.2662 58.2757 30.8394 59.2241 29.2886 59.924C27.9431 60.5332 26.4871 60.8589 25.0108 60.8811C23.2642 60.8811 21.7418 60.5979 20.5018 60.0434C19.2607 59.4994 18.1904 58.6275 17.4056 57.5209C16.5916 56.3288 16.0254 54.9847 15.7407 53.5688C15.3899 51.8758 15.2224 50.1499 15.241 48.4209V21.3056C15.2628 20.8948 15.2275 20.4829 15.1359 20.0818C15.0273 19.7509 14.9698 19.4053 14.9654 19.0569C14.9677 18.7516 15.052 18.4526 15.2093 18.1911C15.3667 17.9297 15.5914 17.7155 15.8598 17.5711C16.3667 17.2802 16.943 17.133 17.527 17.1452C18.8626 17.1452 19.9718 17.5079 20.8217 18.2262C21.2373 18.5493 21.5737 18.9633 21.8052 19.4366C22.0366 19.9099 22.1571 20.4299 22.1574 20.957V48.7719C22.1574 50.59 22.4306 51.9589 22.97 52.8457C23.437 53.6296 24.2496 54.0157 25.4218 54.0157C26.2661 53.9909 27.0861 53.7273 27.7872 53.2552C28.7447 52.6223 29.5946 51.8394 30.3044 50.9363C31.2194 49.7794 32.0026 48.5236 32.6394 47.1924C33.416 45.6001 34.0649 43.9483 34.5798 42.2528C35.1711 40.3155 35.6129 38.3355 35.9015 36.3304C36.2203 34.122 36.3764 31.893 36.3685 29.6615C36.3793 27.4497 36.1253 25.2445 35.6119 23.0933C35.1734 21.1959 34.3906 19.3955 33.3026 17.7817C32.2885 16.3102 30.942 15.0996 29.3727 14.2483C27.7942 13.3896 25.8701 12.952 23.6565 12.952C21.9763 12.9282 20.3012 13.1417 18.6805 13.5861C17.3714 13.9513 16.1312 14.53 15.0098 15.299C14.0096 15.9988 13.1329 16.8608 12.4156 17.8495C11.7132 18.8259 11.1431 19.8912 10.7203 21.0178C10.2867 22.1638 9.98049 23.3542 9.80734 24.5675C9.63077 25.7872 9.54104 27.018 9.5388 28.2506C9.51681 29.7255 9.68556 31.1971 10.0408 32.6286C10.329 33.7541 10.7198 34.8507 11.2084 35.9045C11.5319 36.6207 11.9311 37.3 12.3992 37.9309C12.5977 38.1789 12.7355 38.3521 12.8336 38.4714C13.0421 38.4499 13.2527 38.4815 13.4457 38.5633C13.6388 38.6452 13.8082 38.7745 13.938 38.9394C14.2092 39.3042 14.3484 39.7507 14.3327 40.2053C14.3265 40.786 14.21 41.3602 13.9894 41.8971C13.7746 42.4476 13.4786 42.9626 13.1114 43.4251C12.758 43.8723 12.3364 44.2608 11.8622 44.5763C11.3882 44.9027 10.8284 45.0811 10.2533 45.0888C10.0114 45.0885 9.77043 45.0571 9.53647 44.9952C9.27075 44.9193 9.02137 44.7948 8.80093 44.6278C8.57118 44.449 8.36067 44.2467 8.1728 44.0241C7.75771 43.5825 7.36791 43.1177 7.00528 42.6319C6.47543 41.9188 5.99186 41.1724 5.55755 40.3972C5.00244 39.4064 4.52541 38.3737 4.13084 37.3085C3.66431 36.036 3.30196 34.7275 3.04738 33.3961C2.75445 31.8363 2.61214 30.2519 2.6224 28.6647C2.59173 25.5773 3.10148 22.5084 4.1285 19.5975C5.0672 16.9481 6.53106 14.5165 8.43199 12.4489C10.3184 10.4382 12.6089 8.85113 15.1523 7.79243C17.9176 6.65672 20.883 6.09089 23.8713 6.12873C27.2571 6.12873 30.225 6.79094 32.6955 8.09429C35.0955 9.34175 37.1805 11.1206 38.7923 13.296C40.4026 15.5057 41.5924 17.9941 42.3018 20.6364V20.6364Z" fill="url(#paint0_linear_2789_13749)"/>
<path d="M72.6541 44.7354C72.2154 44.1996 71.6214 43.8137 70.9542 43.6309C70.2722 43.4452 69.5447 43.5343 68.9274 43.879C68.2432 44.2463 67.7925 44.9366 67.5871 45.9381C67.3832 46.9928 67.0838 48.0266 66.6927 49.0269C66.3198 49.9948 65.8025 50.9006 65.1586 51.7131C64.5398 52.4909 63.764 53.1288 62.8819 53.5851C61.879 54.0755 60.7728 54.3163 59.6572 54.287C58.9077 54.3 58.1607 54.195 57.4436 53.9758C56.8582 53.7876 56.3065 53.5072 55.8091 53.1452C55.339 52.8008 54.9281 52.3819 54.5925 51.905C54.3957 51.6244 54.2185 51.3304 54.0625 51.0252C55.486 50.5374 56.8251 49.8309 58.032 48.9309C59.3404 47.9546 60.4938 46.7854 61.4529 45.4631C62.3625 44.2097 63.0715 42.8218 63.5544 41.3495C64.0096 39.9756 64.246 38.5384 64.2549 37.0908C64.2647 36.0321 64.107 34.9786 63.7879 33.9693C63.4923 33.0487 63.0159 32.1967 62.3869 31.4632C61.7628 30.7553 60.989 30.1958 60.1219 29.8253C59.1879 29.4324 58.1832 29.2365 57.1704 29.2496C55.6337 29.265 54.1324 29.7143 52.8389 30.546C51.4044 31.4551 50.1639 32.6401 49.1892 34.0325C48.0766 35.6176 47.2179 37.3671 46.644 39.2178C45.9887 41.3046 45.6633 43.4814 45.6797 45.669C45.6474 47.7838 46.0216 49.8851 46.7818 51.8582C47.4544 53.5716 48.4582 55.135 49.7356 56.4585C50.9374 57.6942 52.3746 58.6753 53.9621 59.3437C55.5262 60.0066 57.2071 60.3488 58.9054 60.3498C60.5333 60.3702 62.1542 60.1333 63.7085 59.6479C65.0193 59.2324 66.2582 58.6168 67.3816 57.8227C68.3916 57.1062 69.2855 56.238 70.0318 55.2488C70.7133 54.3435 71.2987 53.3695 71.7785 52.3426C72.2187 51.4022 72.5637 50.42 72.8082 49.4106C73.0119 48.5741 73.1716 47.7274 73.2869 46.8741C73.3382 46.493 73.3083 46.1054 73.1992 45.7368C73.0902 45.3681 72.9044 45.0269 72.6541 44.7354V44.7354ZM52.8786 45.5871C52.8786 45.5427 52.8786 45.4982 52.8786 45.4538V45.4187C52.8575 44.8405 52.8684 44.2617 52.9113 43.6848C52.9617 42.9396 53.0513 42.1975 53.1798 41.4618C53.3134 40.6736 53.4864 39.8927 53.6982 39.1219C53.883 38.4293 54.1413 37.7586 54.4688 37.1212C54.7225 36.6184 55.066 36.1663 55.4822 35.7874C55.7747 35.5174 56.1586 35.3686 56.5563 35.3709C56.6596 35.37 56.7608 35.3997 56.8472 35.4564C56.9337 35.513 57.0014 35.594 57.042 35.6892C57.2674 36.1446 57.3696 36.6513 57.3385 37.1587C57.341 38.1274 57.2106 39.0919 56.9509 40.0251C56.7022 40.9164 56.3337 41.7697 55.8558 42.5616C55.1105 43.7875 54.0914 44.8232 52.8786 45.5871V45.5871Z" fill="url(#paint1_linear_2789_13749)"/>
<path d="M89.5088 25.824C89.4601 26.3668 89.3592 26.9035 89.2076 27.4269C89.0641 27.937 88.8394 28.4206 88.5421 28.8589C88.0751 29.5328 87.5264 29.6756 87.1574 29.6756C84.3414 29.7458 81.8149 29.7856 79.662 29.7973C77.8173 29.7973 76.0099 29.8113 74.275 29.8136V51.533C74.275 52.4924 74.4408 53.1944 74.7584 53.5617C74.9096 53.7368 75.0991 53.8746 75.3121 53.9643C75.5251 54.054 75.756 54.0932 75.9866 54.0789C76.2386 54.0824 76.4886 54.0344 76.7215 53.9379C76.9543 53.8413 77.1651 53.6982 77.3409 53.5173C77.8355 53.0184 78.2435 52.4403 78.5481 51.8068C78.9182 51.0577 79.2138 50.2739 79.4308 49.4668C79.6643 48.6034 79.8651 47.775 80.0239 47.0052C80.1873 46.1347 80.4722 45.4913 80.8949 45.0537C81.0826 44.8368 81.3132 44.6612 81.572 44.538C81.8308 44.4148 82.1122 44.3466 82.3986 44.3377C82.8267 44.3459 83.2449 44.4678 83.6105 44.691C83.983 44.9079 84.3168 45.1854 84.5982 45.5123C84.8886 45.8445 85.125 46.2204 85.2987 46.6261C85.4827 47.0402 85.5789 47.488 85.5813 47.9412V48.1143C85.5759 48.2875 85.5436 48.4589 85.4856 48.6221C85.151 49.898 84.7345 51.1509 84.2386 52.373C83.7088 53.6994 83.0061 54.9496 82.1488 56.0912C81.2961 57.2254 80.2464 58.1964 79.0502 58.9576C77.7455 59.7555 76.2397 60.1616 74.7117 60.1276C73.7444 60.1389 72.7827 59.9805 71.8699 59.6596C70.9739 59.338 70.1715 58.7985 69.5349 58.0895C68.8553 57.3139 68.3482 56.4022 68.0474 55.415C67.6782 54.179 67.5033 52.893 67.5291 51.6032V29.8113C67.0107 29.8113 66.5507 29.8113 66.128 29.7973C65.5162 29.7973 64.9909 29.7668 64.5682 29.7434C64.1012 29.7224 63.6762 29.699 63.3096 29.6756C62.9282 29.6682 62.5532 29.5757 62.2119 29.4049C61.8706 29.2341 61.5716 28.9892 61.3365 28.6881C60.8563 28.1363 60.5017 27.4864 60.2974 26.7834C60.0938 26.1329 60.068 25.4396 60.2227 24.7757C60.2982 24.4029 60.5047 24.0697 60.8047 23.8365C61.1046 23.6034 61.4781 23.4858 61.8572 23.5051H61.9179C62.434 23.5496 63.0131 23.5847 63.6389 23.6058H63.6739C64.2063 23.6502 64.8624 23.6783 65.6237 23.69L67.5337 23.7251V12.4606C67.5451 12.1155 67.5129 11.7704 67.438 11.4334C67.3884 11.2298 67.3212 11.0309 67.2372 10.839C67.1941 10.7402 67.1409 10.646 67.0784 10.5582C66.906 10.3432 66.8114 10.0759 66.8099 9.8001C66.8098 9.6128 66.8573 9.42857 66.948 9.2648C67.0387 9.10104 67.1696 8.96314 67.3282 8.86412C67.5572 8.7178 67.8067 8.60659 68.0685 8.53419C68.3464 8.45115 68.6307 8.39089 68.9184 8.35401C69.2065 8.31704 69.4966 8.29828 69.787 8.29785C71.1297 8.29785 72.2225 8.66522 73.0281 9.39295C73.4239 9.72844 73.7409 10.1474 73.9564 10.6198C74.1719 11.0922 74.2807 11.6066 74.275 12.126V23.8257C76.2294 23.8257 78.2866 23.8 80.4022 23.7579C82.7068 23.7134 85.0396 23.6362 87.3419 23.5239C87.928 23.0067 88.4044 23.0559 88.7126 23.1986C89.0208 23.3414 89.3641 23.6455 89.4855 24.3686C89.5543 24.8508 89.5621 25.3398 89.5088 25.824V25.824Z" fill="url(#paint2_linear_2789_13749)"/>
<path d="M102.339 25.824C102.29 26.3668 102.189 26.9035 102.038 27.4269C101.894 27.937 101.669 28.4206 101.372 28.8589C100.905 29.5328 100.356 29.6756 99.9875 29.6756C97.1715 29.7458 94.6449 29.7856 92.492 29.7973C90.6473 29.7973 88.84 29.8113 87.1051 29.8136V51.533C87.1051 52.4924 87.2709 53.1944 87.5884 53.5617C87.7396 53.7368 87.9292 53.8746 88.1422 53.9643C88.3552 54.054 88.586 54.0932 88.8167 54.0789C89.0687 54.0824 89.3187 54.0344 89.5516 53.9379C89.7844 53.8413 89.9952 53.6982 90.171 53.5173C90.6656 53.0184 91.0736 52.4403 91.3782 51.8068C91.7483 51.0577 92.0439 50.2739 92.2609 49.4668C92.4944 48.6034 92.6952 47.775 92.854 47.0052C93.0174 46.1347 93.3023 45.4913 93.7249 45.0537C93.9127 44.8368 94.1433 44.6612 94.4021 44.538C94.6609 44.4148 94.9423 44.3466 95.2287 44.3377C95.6568 44.3459 96.0749 44.4678 96.4406 44.691C96.8131 44.9079 97.1469 45.1854 97.4283 45.5123C97.7186 45.8445 97.955 46.2204 98.1288 46.6261C98.3128 47.0402 98.409 47.488 98.4114 47.9412V48.1143C98.406 48.2875 98.3737 48.4589 98.3156 48.6221C97.9811 49.898 97.5646 51.1509 97.0687 52.373C96.5389 53.6994 95.8361 54.9496 94.9789 56.0912C94.1261 57.2254 93.0765 58.1964 91.8803 58.9576C90.5756 59.7555 89.0698 60.1616 87.5417 60.1276C86.5745 60.1389 85.6128 59.9805 84.7 59.6596C83.8039 59.338 83.0016 58.7985 82.3649 58.0895C81.6853 57.3139 81.1783 56.4022 80.8775 55.415C80.5083 54.179 80.3334 52.893 80.3591 51.6032V29.8113C79.8408 29.8113 79.3808 29.8113 78.9581 29.7973C78.3463 29.7973 77.8209 29.7668 77.3983 29.7434C76.9313 29.7224 76.5063 29.699 76.1397 29.6756C75.7583 29.6682 75.3833 29.5757 75.042 29.4049C74.7007 29.2341 74.4017 28.9892 74.1666 28.6881C73.6864 28.1363 73.3318 27.4864 73.1275 26.7834C72.9239 26.1329 72.8981 25.4396 73.0528 24.7757C73.1283 24.4029 73.3348 24.0697 73.6348 23.8365C73.9347 23.6034 74.3082 23.4858 74.6873 23.5051H74.748C75.2641 23.5496 75.8432 23.5847 76.469 23.6058H76.504C77.0364 23.6502 77.6925 23.6783 78.4537 23.69L80.3638 23.7251V12.4606C80.3751 12.1155 80.343 11.7704 80.2681 11.4334C80.2185 11.2298 80.1513 11.0309 80.0673 10.839C80.0242 10.7402 79.971 10.646 79.9085 10.5582C79.7361 10.3432 79.6415 10.0759 79.6399 9.8001C79.6399 9.6128 79.6874 9.42857 79.7781 9.2648C79.8688 9.10104 79.9997 8.96314 80.1583 8.86412C80.3873 8.7178 80.6368 8.60659 80.8985 8.53419C81.1765 8.45115 81.4608 8.39089 81.7485 8.35401C82.0366 8.31704 82.3267 8.29828 82.6171 8.29785C83.9598 8.29785 85.0526 8.66522 85.8582 9.39295C86.2523 9.72933 86.5675 10.1487 86.7814 10.621C86.9953 11.0934 87.1026 11.6073 87.0957 12.126V23.8257C89.0502 23.8257 91.1074 23.8 93.2229 23.7579C95.5276 23.7134 97.8603 23.6362 100.163 23.5239C100.749 23.0067 101.225 23.0559 101.533 23.1986C101.842 23.3414 102.185 23.6455 102.306 24.3686C102.378 24.8504 102.389 25.3394 102.339 25.824V25.824Z" fill="url(#paint3_linear_2789_13749)"/>
</g>
<defs>
<linearGradient id="paint0_linear_2789_13749" x1="2.62473" y1="33.5014" x2="43.4297" y2="33.5014" gradientUnits="userSpaceOnUse">
<stop stop-color="#ED4515"/>
<stop offset="1" stop-color="#F26411"/>
</linearGradient>
<linearGradient id="paint1_linear_2789_13749" x1="45.6843" y1="44.7939" x2="73.3009" y2="44.7939" gradientUnits="userSpaceOnUse">
<stop stop-color="#ED4515"/>
<stop offset="1" stop-color="#F26411"/>
</linearGradient>
<linearGradient id="paint2_linear_2789_13749" x1="60.1246" y1="34.2244" x2="89.5439" y2="34.2244" gradientUnits="userSpaceOnUse">
<stop stop-color="#ED4515"/>
<stop offset="0.87" stop-color="#F26710"/>
</linearGradient>
<linearGradient id="paint3_linear_2789_13749" x1="72.9547" y1="34.2244" x2="102.374" y2="34.2244" gradientUnits="userSpaceOnUse">
<stop stop-color="#ED4515"/>
<stop offset="1" stop-color="#F26411"/>
</linearGradient>
<clipPath id="clip0_2789_13749">
<rect width="105" height="61" fill="white" transform="translate(0 3)"/>
</clipPath>
</defs>
</svg>
