<svg width="60" height="68" viewBox="0 0 60 68" fill="none" xmlns="http://www.w3.org/2000/svg">
<path d="M18.489 15.6411C22.5517 15.6411 25.8452 12.3144 25.8452 8.21069C25.8452 4.10698 22.5517 0.780273 18.489 0.780273C14.4263 0.780273 11.1328 4.10698 11.1328 8.21069C11.1328 12.3144 14.4263 15.6411 18.489 15.6411Z" fill="#FFCC01"/>
<path d="M42.7116 33.2563C46.7743 33.2563 50.0678 29.9296 50.0678 25.8259C50.0678 21.7222 46.7743 18.3955 42.7116 18.3955C38.6489 18.3955 35.3555 21.7222 35.3555 25.8259C35.3555 29.9296 38.6489 33.2563 42.7116 33.2563Z" fill="#FFCC01"/>
<path d="M40.1258 11.3336C43.2243 11.3336 45.736 8.79652 45.736 5.66682C45.736 2.53712 43.2243 0 40.1258 0C37.0274 0 34.5156 2.53712 34.5156 5.66682C34.5156 8.79652 37.0274 11.3336 40.1258 11.3336Z" fill="#FFCC01"/>
<path d="M20.6356 34.1784C23.734 34.1784 26.2458 31.6413 26.2458 28.5116C26.2458 25.3819 23.734 22.8447 20.6356 22.8447C17.5372 22.8447 15.0254 25.3819 15.0254 28.5116C15.0254 31.6413 17.5372 34.1784 20.6356 34.1784Z" fill="#FFCC01"/>
<path d="M18.489 15.6411C22.5517 15.6411 25.8452 12.3144 25.8452 8.21069C25.8452 4.10698 22.5517 0.780273 18.489 0.780273C14.4263 0.780273 11.1328 4.10698 11.1328 8.21069C11.1328 12.3144 14.4263 15.6411 18.489 15.6411Z" fill="#FFCC01"/>
<path d="M42.7116 33.2563C46.7743 33.2563 50.0678 29.9296 50.0678 25.8259C50.0678 21.7222 46.7743 18.3955 42.7116 18.3955C38.6489 18.3955 35.3555 21.7222 35.3555 25.8259C35.3555 29.9296 38.6489 33.2563 42.7116 33.2563Z" fill="#FFCC01"/>
<path d="M40.1258 11.3336C43.2243 11.3336 45.736 8.79652 45.736 5.66682C45.736 2.53712 43.2243 0 40.1258 0C37.0274 0 34.5156 2.53712 34.5156 5.66682C34.5156 8.79652 37.0274 11.3336 40.1258 11.3336Z" fill="#FFCC01"/>
<path d="M20.6356 34.1784C23.734 34.1784 26.2458 31.6413 26.2458 28.5116C26.2458 25.3819 23.734 22.8447 20.6356 22.8447C17.5372 22.8447 15.0254 25.3819 15.0254 28.5116C15.0254 31.6413 17.5372 34.1784 20.6356 34.1784Z" fill="#FFCC01"/>
<path d="M0 45.9468H4.82992C7.94282 45.9468 10.2555 46.3364 11.768 47.1157C13.2805 47.895 14.5267 49.1621 15.5066 50.9171C16.4865 52.6721 16.9762 54.7211 16.9757 57.0642C16.9757 58.7314 16.7019 60.2634 16.1543 61.66C15.6067 63.0567 14.8499 64.2159 13.884 65.1378C12.9191 66.0592 11.874 66.6964 10.7488 67.0495C9.62364 67.4026 7.67471 67.5791 4.90205 67.5791H0V45.9468ZM4.0473 49.9174V63.5646H5.93986C7.8014 63.5646 9.15308 63.3486 9.99491 62.9167C10.8367 62.4847 11.5234 61.7585 12.055 60.7379C12.5887 59.7173 12.8555 58.4609 12.8555 56.9686C12.8555 54.6704 12.2197 52.8893 10.9482 51.6254C9.80281 50.4872 7.96325 49.9179 5.42949 49.9174H4.0473Z" fill="#FFCC01"/>
<path d="M22.0298 50.2285C23.4862 50.2285 24.6669 49.0358 24.6669 47.5647C24.6669 46.0935 23.4862 44.9009 22.0298 44.9009C20.5733 44.9009 19.3926 46.0935 19.3926 47.5647C19.3926 49.0358 20.5733 50.2285 22.0298 50.2285Z" fill="#FFCC01"/>
<path d="M20.0679 51.5664H19.998V67.5664H23.9755V54.9212C23.9709 51.7419 20.5992 51.5735 20.0679 51.5664Z" fill="#FFCC01"/>
<path d="M37.5066 55.8582V59.4042C37.5066 60.9147 37.4238 61.9001 37.2584 62.3602C37.035 62.9787 36.6922 63.4477 36.2299 63.7673C35.7676 64.087 35.2058 64.2463 34.5444 64.2453C33.882 64.2453 33.3248 64.0836 32.8729 63.7603C32.4105 63.4232 32.0656 62.9468 31.8878 62.3994C31.6841 61.8165 31.582 60.775 31.5815 59.2749V56.2891C31.5287 52.2935 29.1878 51.651 28.1035 51.5664H27.5605V58.2259C27.5605 60.7852 27.7157 62.5498 28.0259 63.5198C28.4624 64.9222 29.2171 66.0154 30.29 66.7994C31.363 67.5834 32.7679 67.9751 34.5049 67.9746C36.1078 67.9746 37.4277 67.6387 38.4645 66.967C39.5013 66.2953 40.2885 65.3332 40.8263 64.0807C41.2633 63.0523 41.4817 61.1406 41.4817 58.3458V51.5664H40.7713C39.6753 51.7019 37.6881 52.4274 37.5066 55.8582Z" fill="#FFCC01"/>
<path d="M27.5684 51.5664C27.5684 51.5664 28.1431 67.2428 34.5134 67.9785C34.5134 67.9785 29.3019 68.6186 27.8794 62.9071C27.6831 61.4746 27.5795 60.0308 27.5691 58.5847L27.5684 51.5664Z" fill="#FFCC01"/>
<path d="M41.4796 51.5664C41.4796 51.5664 41.2469 68.1047 34.5059 67.9786C34.5059 67.9786 39.9997 68.5434 41.1764 62.8311C41.1764 62.8311 41.6192 61.1906 41.4812 55.8246L41.4796 51.5664Z" fill="#FFCC01"/>
<path d="M55.4968 55.8582V59.4042C55.4968 60.9147 55.4141 61.9001 55.2486 62.3602C55.0252 62.9787 54.6824 63.4477 54.2201 63.7673C53.7578 64.087 53.196 64.2463 52.5346 64.2453C51.8722 64.2453 51.3151 64.0836 50.8631 63.7603C50.4007 63.4232 50.0558 62.9468 49.8781 62.3994C49.6738 61.8165 49.5704 60.775 49.5678 59.2749V56.2891C49.5151 52.2935 47.1742 51.651 46.0898 51.5664H45.5469V58.2259C45.5469 60.7852 45.702 62.5498 46.0123 63.5198C46.4492 64.9222 47.2039 66.0154 48.2764 66.7994C49.3488 67.5834 50.7538 67.9751 52.4912 67.9746C54.0942 67.9746 55.4128 67.6387 56.447 66.967C57.4811 66.2953 58.271 65.3332 58.8165 64.0807C59.2535 63.0523 59.472 61.1406 59.472 58.3458V51.5664H58.7615C57.6655 51.7019 55.6783 52.4274 55.4968 55.8582Z" fill="#FFCC01"/>
<path d="M45.5566 51.5664C45.5566 51.5664 46.1314 67.2428 52.5017 67.9785C52.5017 67.9785 47.2902 68.6186 45.8677 62.9071C45.6714 61.4746 45.5677 60.0308 45.5574 58.5847L45.5566 51.5664Z" fill="#FFCC01"/>
<path d="M59.4777 51.5664C59.4777 51.5664 59.245 68.1047 52.5039 67.9786C52.5039 67.9786 57.9978 68.5434 59.1744 62.8311C59.1744 62.8311 59.6173 61.1906 59.4792 55.8246L59.4777 51.5664Z" fill="#FFCC01"/>
<path d="M0 45.9489C0 45.9489 15.0273 46.9674 16.9757 57.0663C16.9757 57.0663 17.1184 54.0304 15.8122 51.5076C15.8122 51.5076 13.9964 46.8852 8.97649 46.2514C8.97494 46.2514 6.82564 45.7335 0 45.9489Z" fill="#FFCC01"/>
<path d="M18.489 15.6411C22.5517 15.6411 25.8452 12.3144 25.8452 8.21069C25.8452 4.10698 22.5517 0.780273 18.489 0.780273C14.4263 0.780273 11.1328 4.10698 11.1328 8.21069C11.1328 12.3144 14.4263 15.6411 18.489 15.6411Z" fill="#FFCC01"/>
<path d="M42.7116 33.2563C46.7743 33.2563 50.0678 29.9296 50.0678 25.8259C50.0678 21.7222 46.7743 18.3955 42.7116 18.3955C38.6489 18.3955 35.3555 21.7222 35.3555 25.8259C35.3555 29.9296 38.6489 33.2563 42.7116 33.2563Z" fill="#FFCC01"/>
<path d="M40.1258 11.3336C43.2243 11.3336 45.736 8.79652 45.736 5.66682C45.736 2.53712 43.2243 0 40.1258 0C37.0274 0 34.5156 2.53712 34.5156 5.66682C34.5156 8.79652 37.0274 11.3336 40.1258 11.3336Z" fill="#FFCC01"/>
<path d="M20.6356 34.1784C23.734 34.1784 26.2458 31.6413 26.2458 28.5116C26.2458 25.3819 23.734 22.8447 20.6356 22.8447C17.5372 22.8447 15.0254 25.3819 15.0254 28.5116C15.0254 31.6413 17.5372 34.1784 20.6356 34.1784Z" fill="#FFCC01"/>
</svg>
