<svg width="554" height="555" viewBox="0 0 554 555" fill="none" xmlns="http://www.w3.org/2000/svg">
<path d="M215 291.811V277.384C215 273.494 217.653 270.488 221.458 270.488H225.579C225.815 270.488 225.976 270.651 225.976 270.89V272.335C225.976 272.573 225.815 272.736 225.579 272.736H221.458C219.041 272.736 217.377 274.74 217.377 277.384V283.279H224.624C224.86 283.279 225.021 283.442 225.021 283.68V285.125C225.021 285.364 224.86 285.527 224.624 285.527H217.377V291.817C217.377 294.461 219.041 296.465 221.458 296.465H225.579C225.815 296.465 225.976 296.628 225.976 296.867V298.311C225.976 298.55 225.815 298.713 225.579 298.713H221.458C217.653 298.707 215 295.702 215 291.811Z" fill="#414042"/>
<path d="M229.109 293.103V284.716C229.109 281.055 231.586 278.328 235.298 278.328C238.889 278.328 241.282 280.854 241.486 284.314C241.486 284.556 241.324 284.722 241.072 284.722H239.543C239.297 284.722 239.129 284.598 239.129 284.314C238.961 282.072 237.558 280.57 235.292 280.57C232.899 280.57 231.454 282.279 231.454 284.722V293.109C231.454 295.552 232.941 297.261 235.376 297.261C237.684 297.261 239.129 295.593 239.297 293.109C239.297 292.825 239.465 292.701 239.711 292.701H241.24C241.486 292.701 241.654 292.866 241.654 293.109C241.45 296.811 239.015 299.497 235.382 299.497C231.628 299.497 229.109 296.77 229.109 293.103Z" fill="#414042"/>
<path d="M244.793 293.107V284.718C244.793 281.056 247.278 278.328 251.065 278.328C254.852 278.328 257.337 281.056 257.337 284.718V293.107C257.337 296.769 254.852 299.497 251.065 299.497C247.278 299.503 244.793 296.775 244.793 293.107ZM254.976 293.107V284.718C254.976 282.233 253.509 280.523 251.065 280.523C248.621 280.523 247.154 282.233 247.154 284.718V293.107C247.154 295.592 248.621 297.302 251.065 297.302C253.509 297.302 254.976 295.592 254.976 293.107Z" fill="#414042"/>
<path d="M260.477 293.097C260.477 292.855 260.637 292.689 260.886 292.689H262.399C262.642 292.689 262.809 292.813 262.809 293.097C262.933 295.865 264.322 297.249 267.016 297.249C269.467 297.249 270.689 295.907 270.689 293.996C270.689 289.069 260.684 290.619 260.684 283.823C260.684 280.854 263.01 278.328 266.565 278.328C270.564 278.328 272.57 280.688 272.73 284.314C272.73 284.556 272.564 284.722 272.321 284.722H270.814C270.57 284.722 270.404 284.598 270.404 284.314C270.279 282.155 269.057 280.57 266.689 280.57C264.482 280.57 263.016 281.912 263.016 283.829C263.016 288.549 273.021 287.005 273.021 294.002C273.021 296.971 270.653 299.497 267.016 299.497C263.093 299.491 260.643 296.965 260.477 293.097Z" fill="#414042"/>
<path d="M289.482 278.738V300.925C289.482 304.766 286.963 307.337 283.21 307.337C279.618 307.337 277.105 304.766 276.938 300.925C276.938 300.681 277.099 300.515 277.351 300.515H278.88C279.126 300.515 279.294 300.64 279.294 300.925C279.378 303.537 280.823 305.093 283.216 305.093C285.692 305.093 287.137 303.537 287.137 300.925V296.264C286.148 297.529 284.787 298.348 283.216 298.348C279.462 298.348 276.944 295.611 276.944 291.936V278.738C276.944 278.494 277.105 278.328 277.357 278.328H278.886C279.132 278.328 279.3 278.494 279.3 278.738V291.936C279.3 294.388 280.787 296.104 283.222 296.104C285.656 296.104 287.143 294.388 287.143 291.936V278.738C287.143 278.494 287.311 278.328 287.557 278.328H289.086C289.314 278.328 289.482 278.494 289.482 278.738Z" fill="#414042"/>
<path d="M293.406 293.097C293.406 292.855 293.572 292.689 293.816 292.689H295.33C295.573 292.689 295.739 292.813 295.739 293.097C295.864 295.865 297.247 297.249 299.949 297.249C302.4 297.249 303.623 295.907 303.623 293.996C303.623 289.069 293.614 290.619 293.614 283.823C293.614 280.854 295.941 278.328 299.497 278.328C303.499 278.328 305.505 280.688 305.666 284.314C305.666 284.556 305.505 284.722 305.256 284.722H303.742C303.499 284.722 303.333 284.598 303.333 284.314C303.208 282.155 301.985 280.57 299.616 280.57C297.408 280.57 295.941 281.912 295.941 283.829C295.941 288.549 305.951 287.005 305.951 294.002C305.951 296.971 303.582 299.497 299.943 299.497C296.024 299.491 293.572 296.965 293.406 293.097Z" fill="#414042"/>
<path d="M317.705 296.899V298.31C317.705 298.55 317.543 298.714 317.305 298.714H316.79C313.244 298.714 311.17 296.214 311.17 291.945V280.663H308.697C308.459 280.663 308.297 280.499 308.297 280.259V278.889C308.297 278.649 308.459 278.485 308.697 278.485H311.17V273.245C311.17 273.005 311.333 272.841 311.57 272.841H313.047C313.285 272.841 313.447 273.005 313.447 273.245V278.485H316.836C317.074 278.485 317.236 278.649 317.236 278.889V280.259C317.236 280.499 317.074 280.663 316.836 280.663H313.447V291.945C313.447 294.925 314.606 296.5 316.796 296.5H317.311C317.584 296.495 317.705 296.659 317.705 296.899Z" fill="#414042"/>
<path d="M320.844 293.078V284.783C320.844 281.024 323.262 278.328 327.116 278.328C330.886 278.328 333.388 281.024 333.388 284.622C333.388 288.013 330.886 290.59 327.116 290.59H323.179V293.084C323.179 295.536 324.656 297.252 327.116 297.252C329.409 297.252 330.928 295.578 331.011 293.084C331.011 292.799 331.178 292.674 331.422 292.674H332.941C333.186 292.674 333.352 292.84 333.352 293.084C333.227 296.926 330.732 299.497 327.122 299.497C323.345 299.491 320.844 296.914 320.844 293.078ZM327.116 288.334C329.576 288.334 331.053 286.784 331.053 284.616C331.053 282.247 329.576 280.573 327.116 280.573C324.573 280.573 323.179 282.247 323.179 284.783V288.339H327.116V288.334Z" fill="#414042"/>
<path d="M357.692 284.602V298.312C357.692 298.55 357.525 298.713 357.28 298.713H355.758C355.513 298.713 355.346 298.55 355.346 298.312V284.602C355.346 282.203 354.074 280.524 351.812 280.524C349.549 280.524 348.278 282.203 348.278 284.602V298.312C348.278 298.55 348.111 298.713 347.866 298.713H346.35C346.105 298.713 345.938 298.55 345.938 298.312V284.602C345.938 282.203 344.666 280.524 342.404 280.524C340.141 280.524 338.87 282.203 338.87 284.602V298.312C338.87 298.55 338.702 298.713 338.458 298.713H336.935C336.691 298.713 336.523 298.55 336.523 298.312V284.602C336.523 281.006 338.822 278.328 342.398 278.328C344.535 278.328 346.218 279.565 347.12 281.326C347.985 279.565 349.669 278.328 351.806 278.328C355.388 278.322 357.692 281.006 357.692 284.602Z" fill="#414042"/>
<path d="M286.347 424.415C363.132 424.415 425.378 362.169 425.378 285.384C425.378 208.6 363.132 146.354 286.347 146.354C209.563 146.354 147.316 208.6 147.316 285.384C147.316 362.169 209.563 424.415 286.347 424.415Z" stroke="#154C4C" stroke-width="20" stroke-miterlimit="10"/>
<path d="M286.347 515.143C245.954 515.143 208 504.723 175.016 486.416" stroke="#1B5050" stroke-width="6" stroke-miterlimit="10" stroke-linecap="round"/>
<path d="M516.105 285.385C516.105 341.113 496.261 392.216 463.254 431.997" stroke="#1B5050" stroke-width="6" stroke-miterlimit="10" stroke-linecap="round"/>
<path d="M365.535 69.6367C397.766 81.4676 426.603 100.316 450.21 124.33" stroke="#1B5050" stroke-width="6" stroke-miterlimit="10" stroke-linecap="round"/>
<path d="M59.5312 248.535C68.0536 195.677 94.6085 148.855 132.681 114.577" stroke="#1B5050" stroke-width="6" stroke-miterlimit="10" stroke-linecap="round"/>
<path d="M0 462.82V452.541C0 449.77 1.9098 447.629 4.65152 447.629H7.62472C7.79834 447.629 7.91409 447.745 7.91409 447.911V448.938C7.91409 449.112 7.79834 449.228 7.62472 449.228H4.65152C2.9081 449.228 1.70724 450.653 1.70724 452.541V456.737H6.93025C7.10387 456.737 7.21238 456.852 7.21238 457.019V458.046C7.21238 458.22 7.09663 458.328 6.93025 458.328H1.70724V462.813C1.70724 464.694 2.9081 466.126 4.65152 466.126H7.62472C7.79834 466.126 7.91409 466.242 7.91409 466.416V467.443C7.91409 467.617 7.79834 467.725 7.62472 467.725H4.65152C1.91703 467.732 0 465.591 0 462.82Z" fill="#414042"/>
<path d="M10.4531 467.392V457.597C10.4531 455.029 12.1676 453.112 14.7068 453.112C17.2459 453.112 18.9604 455.022 18.9604 457.597V467.392C18.9604 467.566 18.8447 467.675 18.6783 467.675H17.6221C17.4485 467.675 17.34 467.559 17.34 467.392V457.597C17.34 455.854 16.3417 454.653 14.714 454.653C13.0863 454.653 12.088 455.854 12.088 457.597V467.392C12.088 467.566 11.9723 467.675 11.8059 467.675H10.7497C10.5689 467.675 10.4531 467.566 10.4531 467.392Z" fill="#414042"/>
<path d="M27.3867 466.452V467.45C27.3867 467.624 27.271 467.732 27.1046 467.732H26.7356C24.1965 467.732 22.7062 465.96 22.7062 462.936V454.942H20.9339C20.7603 454.942 20.6445 454.827 20.6445 454.66V453.691C20.6445 453.517 20.7603 453.401 20.9339 453.401H22.7062V449.69C22.7062 449.517 22.822 449.408 22.9884 449.408H24.0446C24.2182 449.408 24.3267 449.524 24.3267 449.69V453.401H26.7573C26.931 453.401 27.0395 453.517 27.0395 453.691V454.66C27.0395 454.834 26.9237 454.942 26.7573 454.942H24.3267V462.936C24.3267 465.048 25.1514 466.162 26.7284 466.162H27.0973C27.2999 466.162 27.3867 466.278 27.3867 466.452Z" fill="#414042"/>
<path d="M29.6211 467.392V457.713C29.6211 455.087 31.5309 453.314 34.1062 453.314H35.365C35.5386 453.314 35.6471 453.43 35.6471 453.597V454.595C35.6471 454.769 35.5313 454.877 35.365 454.877H34.1062C32.4207 454.877 31.2488 455.933 31.2488 457.706V467.385C31.2488 467.558 31.133 467.667 30.9666 467.667H29.9105C29.7368 467.674 29.6211 467.566 29.6211 467.392Z" fill="#414042"/>
<path d="M36.6992 463.449V457.655C36.6992 455.029 38.3848 453.141 41.0686 453.141C43.6946 453.141 45.438 455.021 45.438 457.539C45.438 459.912 43.6946 461.706 41.0686 461.706H38.3269V463.449C38.3269 465.164 39.3541 466.365 41.0686 466.365C42.6673 466.365 43.7235 465.193 43.7814 463.449C43.7814 463.247 43.8971 463.167 44.0635 463.167H45.1197C45.2933 463.167 45.4091 463.283 45.4091 463.449C45.3222 466.133 43.5788 467.934 41.0686 467.934C38.4426 467.934 36.6992 466.133 36.6992 463.449ZM41.0686 460.136C42.7831 460.136 43.8103 459.051 43.8103 457.539C43.8103 455.882 42.7831 454.71 41.0686 454.71C39.2963 454.71 38.3269 455.882 38.3269 457.655V460.136H41.0686Z" fill="#414042"/>
<path d="M56.6964 457.597V463.478C56.6964 466.046 54.953 467.963 52.5874 467.963C51.2129 467.963 50.2725 467.392 49.5853 466.538V473.107C49.5853 473.281 49.4695 473.396 49.3031 473.396H48.247C48.0734 473.396 47.9648 473.281 47.9648 473.107V457.604C47.9648 455.036 49.7083 453.119 52.3342 453.119C54.9602 453.119 56.6964 455.029 56.6964 457.597ZM55.0687 457.597C55.0687 455.883 54.0415 454.682 52.327 454.682C50.6125 454.682 49.5853 455.883 49.5853 457.597V463.478C49.5853 465.193 50.6125 466.394 52.327 466.394C54.0415 466.394 55.0687 465.193 55.0687 463.478V457.597Z" fill="#414042"/>
<path d="M59.5469 467.392V457.713C59.5469 455.087 61.4567 453.314 64.032 453.314H65.2907C65.4644 453.314 65.5729 453.43 65.5729 453.597V454.595C65.5729 454.769 65.4571 454.877 65.2907 454.877H64.032C62.3465 454.877 61.1745 455.933 61.1745 457.706V467.385C61.1745 467.558 61.0588 467.667 60.8924 467.667H59.8362C59.6626 467.674 59.5469 467.566 59.5469 467.392Z" fill="#414042"/>
<path d="M66.6289 463.449V457.655C66.6289 455.029 68.3145 453.141 70.9983 453.141C73.6243 453.141 75.3677 455.021 75.3677 457.539C75.3677 459.912 73.6243 461.706 70.9983 461.706H68.2566V463.449C68.2566 465.164 69.2838 466.365 70.9983 466.365C72.597 466.365 73.6532 465.193 73.7111 463.449C73.7111 463.247 73.8268 463.167 73.9932 463.167H75.0494C75.223 463.167 75.3387 463.283 75.3387 463.449C75.2519 466.133 73.5085 467.934 70.9983 467.934C68.3723 467.934 66.6289 466.133 66.6289 463.449ZM70.9983 460.136C72.7128 460.136 73.74 459.051 73.74 457.539C73.74 455.882 72.7128 454.71 70.9983 454.71C69.2259 454.71 68.2566 455.882 68.2566 457.655V460.136H70.9983Z" fill="#414042"/>
<path d="M77.8828 467.392V457.597C77.8828 455.029 79.5973 453.112 82.1365 453.112C84.6756 453.112 86.3901 455.022 86.3901 457.597V467.392C86.3901 467.566 86.2744 467.675 86.108 467.675H85.0518C84.8782 467.675 84.7697 467.559 84.7697 467.392V457.597C84.7697 455.854 83.7714 454.653 82.1437 454.653C80.516 454.653 79.5177 455.854 79.5177 457.597V467.392C79.5177 467.566 79.402 467.675 79.2356 467.675H78.1794C77.9986 467.675 77.8828 467.566 77.8828 467.392Z" fill="#414042"/>
<path d="M89.2461 463.449V457.655C89.2461 455.029 90.9316 453.141 93.6155 453.141C96.2414 453.141 97.9849 455.021 97.9849 457.539C97.9849 459.912 96.2414 461.706 93.6155 461.706H90.8738V463.449C90.8738 465.164 91.901 466.365 93.6155 466.365C95.2142 466.365 96.2704 465.193 96.3283 463.449C96.3283 463.247 96.444 463.167 96.6104 463.167H97.6666C97.8402 463.167 97.9559 463.283 97.9559 463.449C97.8691 466.133 96.1257 467.934 93.6155 467.934C90.9895 467.934 89.2461 466.133 89.2461 463.449ZM93.6155 460.136C95.33 460.136 96.3572 459.051 96.3572 457.539C96.3572 455.882 95.33 454.71 93.6155 454.71C91.8431 454.71 90.8738 455.882 90.8738 457.655V460.136H93.6155Z" fill="#414042"/>
<path d="M101.989 453.402C102.163 453.402 102.272 453.518 102.272 453.692V463.487C102.272 465.23 103.27 466.431 104.898 466.431C106.525 466.431 107.524 465.23 107.524 463.487V453.692C107.524 453.518 107.639 453.402 107.806 453.402H108.862C109.035 453.402 109.144 453.518 109.144 453.692V463.487C109.144 466.055 107.43 467.972 104.89 467.972C102.351 467.972 100.637 466.062 100.637 463.487V453.692C100.637 453.518 100.752 453.402 100.919 453.402H101.989Z" fill="#414042"/>
<path d="M112.035 467.392V457.713C112.035 455.087 113.945 453.314 116.52 453.314H117.779C117.953 453.314 118.061 453.43 118.061 453.597V454.595C118.061 454.769 117.945 454.877 117.779 454.877H116.52C114.835 454.877 113.663 455.933 113.663 457.706V467.385C113.663 467.558 113.547 467.667 113.381 467.667H112.325C112.151 467.674 112.035 467.566 112.035 467.392Z" fill="#414042"/>
<path d="M119.574 463.479C119.574 463.305 119.69 463.197 119.856 463.197H120.913C121.086 463.197 121.195 463.283 121.195 463.479C121.281 465.417 122.251 466.394 124.139 466.394C125.853 466.394 126.707 465.454 126.707 464.108C126.707 460.65 119.712 461.735 119.712 456.968C119.712 454.885 121.339 453.112 123.821 453.112C126.62 453.112 128.016 454.769 128.132 457.308C128.132 457.482 128.016 457.59 127.843 457.59H126.787C126.613 457.59 126.504 457.503 126.504 457.308C126.418 455.796 125.564 454.682 123.907 454.682C122.367 454.682 121.339 455.622 121.339 456.968C121.339 460.281 128.335 459.196 128.335 464.108C128.335 466.192 126.678 467.964 124.139 467.964C121.404 467.964 119.69 466.191 119.574 463.479Z" fill="#414042"/>
<path d="M131.285 467.392V447.975C131.285 447.802 131.401 447.693 131.575 447.693H132.631C132.804 447.693 132.913 447.809 132.913 447.975V454.486C133.542 453.661 134.483 453.119 135.741 453.119C138.338 453.119 139.966 455.029 139.966 457.691V467.399C139.966 467.573 139.85 467.681 139.677 467.681H138.621C138.447 467.681 138.338 467.565 138.338 467.399V457.691C138.338 455.89 137.34 454.689 135.597 454.689C133.998 454.689 132.913 455.89 132.913 457.691V467.399C132.913 467.573 132.797 467.681 132.631 467.681H131.575C131.401 467.674 131.285 467.565 131.285 467.392Z" fill="#414042"/>
<path d="M143.016 450.428C143.016 449.77 143.471 449.314 144.13 449.314C144.759 449.314 145.244 449.77 145.244 450.428C145.244 451.029 144.759 451.543 144.13 451.543C143.479 451.543 143.016 451.058 143.016 450.428ZM143.334 467.392V453.684C143.334 453.51 143.45 453.394 143.623 453.394H144.679C144.853 453.394 144.962 453.51 144.962 453.684V467.392C144.962 467.566 144.846 467.675 144.679 467.675H143.623C143.45 467.675 143.334 467.566 143.334 467.392Z" fill="#414042"/>
<path d="M156.989 457.597V463.478C156.989 466.046 155.246 467.963 152.88 467.963C151.506 467.963 150.565 467.392 149.878 466.538V473.107C149.878 473.281 149.763 473.396 149.596 473.396H148.54C148.366 473.396 148.258 473.281 148.258 473.107V457.604C148.258 455.036 150.001 453.119 152.627 453.119C155.253 453.119 156.989 455.029 156.989 457.597ZM155.362 457.597C155.362 455.883 154.334 454.682 152.62 454.682C150.905 454.682 149.878 455.883 149.878 457.597V463.478C149.878 465.193 150.905 466.394 152.62 466.394C154.334 466.394 155.362 465.193 155.362 463.478V457.597Z" fill="#414042"/>
<path d="M442.457 438.042H416.514V422.127C416.514 420.025 414.476 418.371 411.865 418.371C411.59 418.371 411.324 418.387 411.049 418.426C410.799 418.387 410.548 418.371 410.297 418.371H375.337C375.235 418.371 375.133 418.371 375.039 418.379C374.929 418.371 374.828 418.371 374.71 418.371C372.107 418.371 370.061 420.018 370.061 422.127V438.042H344.117C339.837 438.042 336.355 441.523 336.355 445.804V480.764C336.355 484.88 339.586 488.251 343.639 488.502V516.452C343.639 520.733 346.759 524.214 350.593 524.214H435.958C439.792 524.214 442.912 520.733 442.912 516.452V488.502C446.966 488.251 450.196 484.888 450.196 480.764V445.796C450.219 441.523 446.738 438.042 442.457 438.042ZM373.942 422.409C374.114 422.315 374.49 422.213 374.898 422.252C375.008 422.26 375.125 422.26 375.235 422.252C375.274 422.252 375.314 422.244 375.353 422.244H410.312C410.407 422.244 410.508 422.252 410.618 422.283C410.893 422.346 411.175 422.346 411.441 422.291C411.935 422.189 412.445 422.307 412.657 422.417V441.523C412.508 441.602 412.241 441.688 411.873 441.688C411.512 441.688 411.238 441.602 411.089 441.523V426.87C411.089 425.804 410.226 424.933 409.152 424.933H377.438C376.372 424.933 375.502 425.796 375.502 426.87V441.523C375.353 441.602 375.086 441.688 374.718 441.688C374.357 441.688 374.083 441.602 373.934 441.523V422.409H373.942ZM407.223 428.799V438.042H379.375V428.799H407.223ZM439.07 516.445C439.07 518.593 437.683 520.341 435.981 520.341H350.609C348.908 520.341 347.52 518.593 347.52 516.445V488.518H377.885V492.046C377.885 496.327 381.366 499.808 385.647 499.808H399.485C403.766 499.808 407.247 496.327 407.247 492.046V488.518H439.07V516.445ZM381.75 492.046V481.117C381.75 478.968 383.499 477.228 385.647 477.228H399.485C401.633 477.228 403.382 478.976 403.382 481.117V492.046C403.382 494.194 401.633 495.942 399.485 495.942H385.647C383.499 495.942 381.75 494.194 381.75 492.046ZM446.354 480.756C446.354 482.904 444.606 484.652 442.465 484.652H407.255V481.124C407.255 476.844 403.774 473.37 399.493 473.37H385.655C381.374 473.37 377.893 476.851 377.893 481.124V484.652H344.141C341.993 484.652 340.244 482.904 340.244 480.756V445.796C340.244 443.648 341.993 441.908 344.141 441.908H370.1C370.17 443.954 372.178 445.545 374.733 445.545C377.289 445.545 379.296 443.954 379.367 441.908H407.247C407.317 443.954 409.325 445.545 411.88 445.545C414.436 445.545 416.444 443.954 416.514 441.908H442.473C444.621 441.908 446.362 443.656 446.362 445.796V480.756H446.354Z" fill="#97CA4E"/>
<path d="M392.571 493.378C396.319 493.378 399.361 490.328 399.361 486.581C399.361 482.833 396.311 479.783 392.571 479.783C388.831 479.783 385.773 482.833 385.773 486.581C385.773 490.328 388.823 493.378 392.571 493.378ZM392.571 481.72C395.252 481.72 397.432 483.899 397.432 486.581C397.432 489.262 395.252 491.442 392.571 491.442C389.89 491.442 387.71 489.262 387.71 486.581C387.71 483.907 389.89 481.72 392.571 481.72Z" fill="#97CA4E"/>
<path d="M356.256 81.1075C365.102 81.1075 372.273 73.9362 372.273 65.0899C372.273 56.2436 365.102 49.0723 356.256 49.0723C347.41 49.0723 340.238 56.2436 340.238 65.0899C340.238 73.9362 347.41 81.1075 356.256 81.1075Z" fill="#154C4C"/>
<path d="M517.697 301.402C526.544 301.402 533.715 294.231 533.715 285.385C533.715 276.539 526.544 269.367 517.697 269.367C508.851 269.367 501.68 276.539 501.68 285.385C501.68 294.231 508.851 301.402 517.697 301.402Z" fill="#154C4C"/>
<path d="M300.416 531.161C309.262 531.161 316.434 523.99 316.434 515.144C316.434 506.297 309.262 499.126 300.416 499.126C291.57 499.126 284.398 506.297 284.398 515.144C284.398 523.99 291.57 531.161 300.416 531.161Z" fill="#154C4C"/>
<path d="M56.3965 275.051C65.2428 275.051 72.4141 267.88 72.4141 259.033C72.4141 250.187 65.2428 243.016 56.3965 243.016C47.5502 243.016 40.3789 250.187 40.3789 259.033C40.3789 267.88 47.5502 275.051 56.3965 275.051Z" fill="#154C4C"/>
<path d="M120.345 417.501C118.793 417.501 117.256 417.054 115.939 416.191L90.1132 399.35C89.243 398.786 88.9999 397.618 89.5644 396.747C90.1289 395.877 91.2971 395.634 92.1674 396.199L117.993 413.04C119.005 413.698 120.204 413.902 121.372 413.612C122.54 413.322 123.513 412.577 124.093 411.526C125.198 409.535 124.548 407.026 122.619 405.811L86.8046 383.27C85.1974 382.259 83.3393 381.726 81.4419 381.726H64.5462V386.179C64.5462 390.389 61.12 393.807 56.9098 393.807C52.6996 393.807 49.2812 390.381 49.2812 386.179V373.321C49.2812 371.345 50.4338 369.526 52.2292 368.679L66.9375 361.756C67.1884 361.639 67.4628 361.576 67.7372 361.576H107.903C108.945 361.576 109.784 362.415 109.784 363.458C109.784 364.501 108.945 365.339 107.903 365.339H68.1527L53.8208 372.082C53.3425 372.302 53.0367 372.788 53.0367 373.313V386.171C53.0367 388.304 54.7694 390.044 56.9098 390.044C59.0424 390.044 60.7829 388.311 60.7829 386.171V379.836C60.7829 378.793 61.6218 377.954 62.6645 377.954H81.4419C84.0527 377.954 86.6008 378.691 88.8117 380.079L124.626 402.62C128.24 404.894 129.456 409.606 127.386 413.345C126.304 415.298 124.446 416.724 122.274 417.265C121.639 417.43 120.988 417.501 120.345 417.501Z" fill="#97CA4E"/>
<path d="M105.388 423.365C103.734 423.365 102.111 422.871 100.7 421.93L82.4714 409.676C81.6089 409.096 81.3816 407.928 81.9617 407.065C82.5419 406.203 83.7101 405.975 84.5725 406.556L102.801 418.81C103.852 419.515 105.114 419.766 106.361 419.508C107.599 419.249 108.666 418.52 109.348 417.453C110.728 415.297 110.108 412.404 107.968 411.009L91.4014 400.205C90.5311 399.64 90.2881 398.472 90.8526 397.602C91.4171 396.732 92.5853 396.489 93.4555 397.053L110.022 407.857C113.895 410.382 115.008 415.603 112.515 419.484C111.276 421.413 109.363 422.722 107.129 423.193C106.541 423.302 105.961 423.365 105.388 423.365Z" fill="#97CA4E"/>
<path d="M92.893 430.586C91.3406 430.586 89.7726 430.155 88.3848 429.261L75.8561 421.193C74.9859 420.629 74.7272 419.469 75.2917 418.591C75.8561 417.712 77.0165 417.469 77.8946 418.026L90.4233 426.094C92.4383 427.395 95.151 426.909 96.5936 424.988C97.3619 423.969 97.6599 422.714 97.4482 421.46C97.2365 420.206 96.5387 419.124 95.4803 418.41L87.3107 412.922C86.4483 412.342 86.221 411.174 86.8011 410.311C87.3813 409.449 88.5495 409.221 89.4119 409.802L97.5815 415.29C99.5023 416.583 100.772 418.551 101.164 420.833C101.549 423.114 101 425.396 99.6042 427.254C97.9656 429.426 95.4489 430.586 92.893 430.586Z" fill="#97CA4E"/>
<path d="M77.5843 435.635C76.126 435.635 74.6599 435.251 73.3427 434.436L71.9864 433.597C71.1004 433.056 70.826 431.895 71.367 431.009C71.908 430.124 73.0683 429.849 73.9543 430.39L75.3106 431.229C77.2628 432.429 79.8266 431.911 81.1594 430.037C81.8572 429.057 82.1159 427.866 81.8886 426.682C81.6612 425.498 80.9791 424.486 79.9677 423.836L76.8944 421.86C76.0241 421.295 75.7654 420.135 76.3299 419.257C76.8944 418.387 78.0547 418.136 78.9328 418.692L82.0062 420.668C83.8957 421.883 85.1658 423.765 85.5892 425.968C86.0125 428.171 85.5265 430.39 84.2328 432.217C82.6491 434.436 80.1402 435.635 77.5843 435.635Z" fill="#97CA4E"/>
<path d="M66.0647 437.455C64.4026 437.455 62.7326 436.914 61.3528 435.8C59.722 434.491 58.7263 432.625 58.5616 430.539C58.3892 428.454 59.0634 426.447 60.459 424.895L61.0862 424.189C63.7519 421.217 68.26 420.833 71.3804 423.303C73.0583 424.651 74.0775 426.588 74.2343 428.658C74.3911 430.728 73.6776 432.79 72.2742 434.326L71.6392 435.024C70.1495 436.624 68.111 437.455 66.0647 437.455ZM66.6998 425.435C65.6571 425.435 64.63 425.867 63.8852 426.69L63.258 427.396C62.5602 428.18 62.223 429.183 62.3093 430.226C62.3955 431.269 62.8894 432.209 63.7127 432.86C65.265 434.107 67.523 433.926 68.8637 432.468L69.4988 431.77C70.2122 430.994 70.565 429.983 70.4866 428.932C70.4082 427.897 69.93 426.964 69.1303 426.306C68.3776 425.71 67.5387 425.435 66.6998 425.435Z" fill="#97CA4E"/>
<path d="M55.5124 432.217C53.8189 432.217 52.1254 431.652 50.7142 430.5C49.1148 429.183 48.1426 427.324 47.9701 425.262C47.8055 423.2 48.4641 421.201 49.8361 419.657L57.7469 410.695C60.4596 407.63 65.054 407.261 68.2215 409.856L67.1238 411.393L68.3155 409.943C69.9306 411.268 70.9028 413.141 71.0518 415.219C71.2086 417.297 70.5265 419.296 69.1231 420.848L61.1104 429.723C59.6364 431.37 57.5823 432.217 55.5124 432.217ZM63.4232 411.887C62.3726 411.887 61.3299 412.326 60.5772 413.181L52.6664 422.142C51.9765 422.918 51.6472 423.922 51.7256 424.957C51.8118 425.992 52.2979 426.932 53.1055 427.591C54.6735 428.885 56.9786 428.712 58.3349 427.199L66.3476 418.324C67.0533 417.548 67.3904 416.536 67.312 415.493C67.2336 414.451 66.7475 413.51 65.94 412.843C65.1324 412.169 64.2778 411.887 63.4232 411.887Z" fill="#97CA4E"/>
<path d="M47.6867 423.836C46.0245 423.836 44.3546 423.303 42.9512 422.205C41.3125 420.919 40.2855 419.077 40.0503 417.015C39.8151 414.953 40.4109 412.922 41.7202 411.307L44.4094 407.991C47.0516 404.737 51.8969 404.173 55.2133 406.736C56.9068 408.046 57.9966 410.021 58.2004 412.154C58.4043 414.286 57.7065 416.427 56.2874 418.034L53.4649 421.233C51.9439 422.95 49.827 423.836 47.6867 423.836ZM50.4621 408.877C49.2861 408.877 48.1179 409.386 47.3338 410.359L44.6446 413.675C43.9782 414.498 43.6725 415.533 43.7901 416.591C43.9077 417.65 44.433 418.591 45.2719 419.241C46.9026 420.519 49.2625 420.308 50.6346 418.748L53.4571 415.549C54.2019 414.71 54.5469 413.628 54.4449 412.515C54.3352 411.393 53.7942 410.406 52.9004 409.716C52.187 409.151 51.3245 408.877 50.4621 408.877Z" fill="#97CA4E"/>
<path d="M39.8108 415.376C38.3133 415.376 36.808 414.905 35.5065 413.941C33.8836 412.733 32.8409 410.93 32.6135 408.962C32.3861 407.002 32.9898 405.003 34.2599 403.498L35.4752 402.055C37.9527 399.123 42.2883 398.645 45.3382 400.973C46.8906 402.157 47.8784 403.874 48.1136 405.818C48.3488 407.755 47.8079 409.668 46.5926 411.189L45.4166 412.655C44.0054 414.443 41.9199 415.376 39.8108 415.376ZM40.9869 403.262C40.0068 403.262 39.0425 403.678 38.3604 404.486L37.1451 405.92C36.5258 406.649 36.2514 407.575 36.3611 408.531C36.4709 409.48 36.957 410.319 37.7253 410.891C39.262 412.036 41.3397 411.769 42.5 410.311L43.6761 408.845C44.2562 408.116 44.515 407.206 44.4052 406.281C44.2876 405.356 43.825 404.533 43.0802 403.968C42.4451 403.49 41.716 403.262 40.9869 403.262Z" fill="#97CA4E"/>
<path d="M36.9139 405.152C36.42 405.152 35.926 404.956 35.5575 404.572L24.9419 393.548C24.3146 392.898 24.2362 391.894 24.7615 391.157L43.8682 364.132C44.221 363.63 44.7933 363.34 45.4049 363.34H64.0019C65.0368 363.34 65.8836 364.179 65.8836 365.222C65.8836 366.264 65.0447 367.103 64.0019 367.103H46.3771L28.7287 392.066L38.2703 401.969C38.9916 402.714 38.968 403.905 38.2232 404.627C37.8547 404.979 37.3843 405.152 36.9139 405.152Z" fill="#97CA4E"/>
<path d="M133.257 399.374C131.156 399.374 129.102 398.363 127.832 396.481C123.034 389.394 112.653 373.729 106.891 365.026C104.993 362.157 105.652 358.276 108.388 356.19L125.37 343.246C126.193 342.611 127.377 342.776 128.005 343.599C128.632 344.422 128.475 345.606 127.652 346.233L110.67 359.177C109.502 360.071 109.219 361.725 110.035 362.948C115.789 371.651 126.17 387.3 130.952 394.372C131.799 395.627 133.477 395.979 134.755 395.172L148.585 386.485C149.471 385.936 150.624 386.195 151.18 387.073C151.737 387.951 151.47 389.111 150.592 389.668L136.754 398.363C135.664 399.053 134.449 399.374 133.257 399.374Z" fill="#97CA4E"/>
<path d="M22.5285 396.058C21.4309 396.058 20.3176 395.783 19.2905 395.203L6.34625 387.888C5.44462 387.378 5.12317 386.226 5.63278 385.324C6.1424 384.423 7.28708 384.101 8.19655 384.611L21.1408 391.926C22.4031 392.631 23.9789 392.286 24.81 391.095L44.2381 363.356C45.077 362.156 44.8653 360.549 43.7442 359.608L25.1079 344.257C24.3082 343.599 24.1906 342.415 24.8492 341.607C25.5078 340.807 26.6917 340.69 27.4992 341.348L46.1433 356.707C48.7855 358.918 49.2794 362.697 47.3193 365.504L27.8912 393.243C26.6211 395.07 24.5983 396.058 22.5285 396.058Z" fill="#97CA4E"/>
<path d="M119.198 403.318C118.72 403.318 118.249 403.138 117.881 402.777C117.136 402.048 117.128 400.856 117.857 400.119L126.301 391.526C127.031 390.782 128.222 390.774 128.959 391.503C129.704 392.232 129.712 393.424 128.983 394.161L120.539 402.754C120.17 403.13 119.684 403.318 119.198 403.318Z" fill="#97CA4E"/>
<path d="M16.2729 386.124C15.9045 386.124 15.536 386.015 15.2145 385.795C14.3599 385.207 14.1404 384.039 14.7284 383.176L24.7561 368.547C25.3441 367.692 26.5123 367.472 27.3747 368.06C28.2293 368.648 28.4488 369.817 27.8608 370.679L17.8331 385.309C17.4647 385.834 16.8688 386.124 16.2729 386.124Z" fill="#97CA4E"/>
<path d="M137.129 388.187C136.502 388.187 135.891 387.873 135.53 387.301L126.043 372.107C125.494 371.229 125.761 370.068 126.639 369.512C127.525 368.963 128.685 369.229 129.234 370.115L138.721 385.31C139.27 386.188 139.003 387.348 138.125 387.905C137.811 388.101 137.466 388.187 137.129 388.187Z" fill="#97CA4E"/>
<path d="M78.403 353.399C60.6449 353.399 46.1875 338.949 46.1875 321.183C46.1875 303.425 60.6371 288.968 78.403 288.968C87.0038 288.968 95.0949 292.316 101.179 298.4C101.916 299.137 101.916 300.328 101.179 301.057C100.442 301.794 99.2502 301.794 98.5211 301.057C93.1505 295.687 86.0002 292.723 78.403 292.723C62.7147 292.723 49.9508 305.487 49.9508 321.175C49.9508 336.864 62.7147 349.628 78.403 349.628C94.0914 349.628 106.855 336.864 106.855 321.175C106.855 319.545 106.714 317.914 106.448 316.33C106.267 315.311 106.957 314.339 107.984 314.158C109.019 313.978 109.984 314.668 110.156 315.695C110.462 317.491 110.619 319.333 110.619 321.175C110.619 338.949 96.169 353.399 78.403 353.399Z" fill="#97CA4E"/>
<path d="M56.7385 317.632C56.5895 317.632 56.4327 317.616 56.2838 317.577C55.2724 317.326 54.6608 316.307 54.9117 315.295C57.6088 304.507 67.2758 296.973 78.4089 296.973C84.8771 296.973 90.9611 299.489 95.532 304.068C96.269 304.805 96.269 305.997 95.532 306.726C94.795 307.463 93.6033 307.463 92.8742 306.726C89.0089 302.861 83.8736 300.736 78.4089 300.736C69.0006 300.736 60.8389 307.102 58.5653 316.205C58.3536 317.059 57.5852 317.632 56.7385 317.632Z" fill="#97CA4E"/>
<path d="M78.43 342.407C77.9753 342.407 77.5363 342.242 77.1913 341.937L57.1203 324.312C56.3363 323.63 56.2657 322.438 56.9478 321.654C57.6299 320.878 58.8216 320.799 59.6056 321.481L78.187 337.797L107.266 300.971C107.909 300.156 109.093 300.023 109.909 300.658C110.724 301.301 110.865 302.485 110.222 303.3L79.9119 341.686C79.5904 342.093 79.12 342.344 78.6104 342.391C78.5398 342.407 78.4849 342.407 78.43 342.407Z" fill="#97CA4E"/>
<path d="M371.73 548.852C371.73 548.682 371.844 548.575 372.007 548.575H373.127C373.297 548.575 373.403 548.66 373.403 548.852C373.488 551.092 374.495 552.602 376.317 552.602C378.167 552.602 379.173 551.205 379.173 548.994V534.583C379.173 534.413 379.287 534.307 379.45 534.307H380.57C380.74 534.307 380.846 534.42 380.846 534.583V548.994C380.846 552.07 379.251 554.168 376.288 554.168C373.545 554.168 371.837 551.985 371.73 548.852Z" fill="#414042"/>
<path d="M383.539 549.773V544.01C383.539 541.494 385.247 539.615 387.849 539.615C390.45 539.615 392.158 541.487 392.158 544.01V549.773C392.158 552.289 390.45 554.167 387.849 554.167C385.247 554.167 383.539 552.296 383.539 549.773ZM390.535 549.773V544.01C390.535 542.302 389.529 541.125 387.849 541.125C386.169 541.125 385.162 542.302 385.162 544.01V549.773C385.162 551.481 386.169 552.658 387.849 552.658C389.522 552.658 390.535 551.481 390.535 549.773Z" fill="#414042"/>
<path d="M403.238 544.011V549.774C403.238 552.29 401.53 554.168 398.957 554.168C396.384 554.168 394.676 552.297 394.676 549.774V534.576C394.676 534.406 394.789 534.3 394.952 534.3H395.987C396.157 534.3 396.264 534.413 396.264 534.576V541.012C396.937 540.176 397.858 539.616 398.95 539.616C401.53 539.616 403.238 541.494 403.238 544.011ZM401.644 544.011C401.644 542.331 400.637 541.154 398.957 541.154C397.277 541.154 396.271 542.331 396.271 544.011V549.774C396.271 551.453 397.277 552.63 398.957 552.63C400.637 552.63 401.644 551.453 401.644 549.774V544.011Z" fill="#414042"/>
<path d="M405.555 549.773C405.555 549.603 405.668 549.496 405.831 549.496H406.866C407.036 549.496 407.142 549.581 407.142 549.773C407.228 551.672 408.177 552.629 410.027 552.629C411.707 552.629 412.544 551.708 412.544 550.389C412.544 547.001 405.689 548.064 405.689 543.393C405.689 541.352 407.284 539.615 409.716 539.615C412.459 539.615 413.827 541.238 413.94 543.726C413.94 543.897 413.827 544.003 413.664 544.003H412.629C412.459 544.003 412.345 543.918 412.345 543.726C412.26 542.245 411.424 541.153 409.801 541.153C408.291 541.153 407.284 542.075 407.284 543.393C407.284 546.64 414.139 545.577 414.139 550.389C414.139 552.431 412.515 554.167 410.027 554.167C407.348 554.167 405.668 552.431 405.555 549.773Z" fill="#414042"/>
<path d="M195.223 120.764V110.475C195.223 107.702 197.141 105.559 199.878 105.559H202.854C203.028 105.559 203.137 105.674 203.137 105.841V106.869C203.137 107.043 203.021 107.159 202.854 107.159H199.878C198.133 107.159 196.931 108.585 196.931 110.475V114.674H202.159C202.333 114.674 202.442 114.79 202.442 114.957V115.985C202.442 116.159 202.326 116.267 202.159 116.267H196.931V120.757C196.931 122.639 198.133 124.073 199.878 124.073H202.854C203.028 124.073 203.137 124.189 203.137 124.362V125.391C203.137 125.564 203.021 125.68 202.854 125.68H199.878C197.134 125.68 195.223 123.537 195.223 120.764Z" fill="#414042"/>
<path d="M213.883 105.898V121.415C213.883 123.985 212.138 125.904 209.51 125.904C206.882 125.904 205.137 123.993 205.137 121.415V115.528C205.137 112.958 206.882 111.039 209.51 111.039C210.625 111.039 211.566 111.611 212.254 112.466V105.891C212.254 105.717 212.37 105.602 212.544 105.602H213.601C213.775 105.616 213.883 105.732 213.883 105.898ZM212.254 115.536C212.254 113.82 211.226 112.618 209.51 112.618C207.794 112.618 206.766 113.82 206.766 115.536V121.422C206.766 123.138 207.794 124.34 209.51 124.34C211.226 124.34 212.254 123.138 212.254 121.422V115.536Z" fill="#414042"/>
<path d="M218.366 111.33C218.54 111.33 218.656 111.446 218.656 111.62V121.423C218.656 123.168 219.655 124.37 221.284 124.37C222.913 124.37 223.913 123.168 223.913 121.423V111.62C223.913 111.446 224.028 111.33 224.195 111.33H225.252C225.426 111.33 225.534 111.446 225.534 111.62V121.423C225.534 123.994 223.818 125.913 221.277 125.913C218.736 125.913 217.02 124.001 217.02 121.423V111.62C217.02 111.446 217.135 111.33 217.309 111.33H218.366Z" fill="#414042"/>
<path d="M228.258 121.423V115.536C228.258 112.966 229.974 111.047 232.544 111.047C235.028 111.047 236.686 112.821 236.831 115.246C236.831 115.42 236.715 115.529 236.548 115.529H235.491C235.317 115.529 235.209 115.442 235.209 115.246C235.093 113.675 234.123 112.618 232.551 112.618C230.893 112.618 229.894 113.82 229.894 115.536V121.423C229.894 123.139 230.922 124.341 232.609 124.341C234.21 124.341 235.209 123.168 235.325 121.423C235.325 121.22 235.44 121.14 235.607 121.14H236.664C236.838 121.14 236.947 121.256 236.947 121.423C236.802 124.022 235.115 125.912 232.602 125.912C230.003 125.912 228.258 123.993 228.258 121.423Z" fill="#414042"/>
<path d="M239.039 121.452C239.039 119.193 240.784 117.339 243.383 117.339H246.157V115.478C246.157 113.82 245.157 112.618 243.47 112.618C241.957 112.618 241.009 113.675 240.9 115.246C240.871 115.449 240.784 115.529 240.61 115.529H239.553C239.379 115.529 239.271 115.413 239.271 115.246C239.416 112.814 241.016 111.047 243.47 111.047C246.099 111.047 247.786 112.958 247.786 115.478V121.452C247.786 123.993 246.07 125.883 243.441 125.883C240.784 125.883 239.039 123.993 239.039 121.452ZM246.157 121.452V118.91H243.383C241.696 118.91 240.668 120.054 240.668 121.452C240.668 123.139 241.696 124.312 243.441 124.312C245.157 124.312 246.157 123.139 246.157 121.452Z" fill="#414042"/>
<path d="M256.241 124.391V125.39C256.241 125.564 256.125 125.68 255.959 125.68H255.589C253.048 125.68 251.556 123.906 251.556 120.879V112.878H249.782C249.609 112.878 249.5 112.762 249.5 112.589V111.618C249.5 111.445 249.616 111.329 249.782 111.329H251.556V107.614C251.556 107.441 251.672 107.332 251.839 107.332H252.896C253.07 107.332 253.178 107.448 253.178 107.614V111.329H255.611C255.785 111.329 255.893 111.445 255.893 111.618V112.589C255.893 112.762 255.778 112.878 255.611 112.878H253.178V120.879C253.178 122.993 254.004 124.108 255.582 124.108H255.951C256.154 124.108 256.241 124.224 256.241 124.391Z" fill="#414042"/>
<path d="M258.445 108.361C258.445 107.702 258.901 107.246 259.56 107.246C260.19 107.246 260.675 107.702 260.675 108.361C260.675 108.962 260.19 109.476 259.56 109.476C258.901 109.476 258.445 108.991 258.445 108.361ZM258.757 125.34V111.619C258.757 111.446 258.873 111.33 259.039 111.33H260.096C260.27 111.33 260.379 111.446 260.379 111.619V125.34C260.379 125.514 260.263 125.623 260.096 125.623H259.039C258.873 125.623 258.757 125.507 258.757 125.34Z" fill="#414042"/>
<path d="M263.309 121.423V115.536C263.309 112.966 265.054 111.047 267.711 111.047C270.368 111.047 272.113 112.958 272.113 115.536V121.423C272.113 123.993 270.368 125.912 267.711 125.912C265.054 125.912 263.309 123.993 263.309 121.423ZM270.455 121.423V115.536C270.455 113.791 269.427 112.589 267.711 112.589C265.995 112.589 264.967 113.791 264.967 115.536V121.423C264.967 123.168 265.995 124.37 267.711 124.37C269.427 124.37 270.455 123.168 270.455 121.423Z" fill="#414042"/>
<path d="M274.969 125.34V115.536C274.969 112.966 276.685 111.047 279.226 111.047C281.768 111.047 283.484 112.958 283.484 115.536V125.34C283.484 125.514 283.368 125.622 283.194 125.622H282.137C281.963 125.622 281.855 125.506 281.855 125.34V115.536C281.855 113.791 280.855 112.589 279.226 112.589C277.597 112.589 276.598 113.791 276.598 115.536V125.34C276.598 125.514 276.482 125.622 276.316 125.622H275.258C275.077 125.622 274.969 125.506 274.969 125.34Z" fill="#414042"/>
<path d="M174.884 51.8156C171.875 52.4557 169.606 55.1346 169.606 58.3348C169.606 59.8128 170.087 61.2183 170.965 62.3664L168.18 78.8557C168.062 79.5617 168.26 80.281 168.721 80.8286C169.183 81.3763 169.863 81.693 170.576 81.693H181.978C182.677 81.693 183.35 81.3895 183.812 80.8616C184.274 80.3337 184.485 79.6277 184.386 78.9349L182.011 61.7462C182.618 60.7234 182.948 59.5489 182.948 58.3414C182.948 55.933 181.661 53.8281 179.741 52.6536V43.726L194.759 50.2386V87.5259C194.759 92.125 198.5 95.8597 203.092 95.8597H271.629C276.229 95.8597 279.963 92.1184 279.963 87.5259V47.9622L315.74 32.4429C316.663 32.0404 317.244 31.1166 317.198 30.1136C317.158 29.1107 316.505 28.2331 315.555 27.9098L234.197 0.130701C233.663 -0.054053 233.082 -0.0408557 232.554 0.157095C204.696 10.7079 158.943 27.5271 154.693 27.7778C153.552 27.791 152.569 28.596 152.331 29.7111C152.1 30.8395 152.687 31.9744 153.743 32.4363L174.891 41.6146V51.8156H174.884ZM173.459 76.83L175.966 61.9903C176.112 61.1391 175.788 60.2747 175.129 59.7205C174.713 59.3708 174.475 58.8693 174.475 58.3282C174.475 57.3319 175.287 56.5203 176.283 56.5203C177.28 56.5203 178.091 57.3319 178.091 58.3282C178.091 58.8825 177.847 59.2784 177.642 59.5159C177.181 60.0438 176.969 60.7498 177.068 61.4426L179.193 76.8234H173.459V76.83ZM275.113 87.5325C275.113 89.4527 273.556 91.0099 271.636 91.0099H203.099C201.185 91.0099 199.622 89.4527 199.622 87.5325V52.3501L233.775 67.1634C234.085 67.2954 234.415 67.3614 234.745 67.3614C235.075 67.3614 235.404 67.2954 235.715 67.1634L275.12 50.0671V87.5325H275.113ZM162.084 30.7669C179.675 25.277 221.924 9.3816 233.451 5.01349L308.052 30.4831L234.745 62.2872L186.333 41.2847L227.209 35.8938C228.991 36.9891 231.657 37.6688 234.745 37.6688C240.38 37.6688 244.629 35.4253 244.629 32.4495C244.629 29.4736 240.38 27.2302 234.745 27.2302C229.882 27.2302 226.061 28.8995 225.098 31.2683L177.669 37.5236L162.084 30.7669ZM227.289 32.4495C227.289 31.3145 230.192 29.6649 234.745 29.6649C239.298 29.6649 242.201 31.3145 242.201 32.4495C242.201 33.5844 239.298 35.2406 234.745 35.2406C230.192 35.234 227.289 33.5844 227.289 32.4495Z" fill="#97CA4E"/>
<path d="M460.033 231.056V232.054C460.033 232.223 459.921 232.335 459.759 232.335H456.429V249.92C456.429 250.089 456.317 250.194 456.155 250.194H455.045C454.877 250.194 454.771 250.081 454.771 249.92V232.335H451.441C451.273 232.335 451.16 232.223 451.16 232.054V231.056C451.16 230.888 451.273 230.775 451.441 230.775H459.759C459.928 230.782 460.033 230.888 460.033 231.056Z" fill="#414042"/>
<path d="M459.84 246.091V240.464C459.84 237.914 461.477 236.08 464.083 236.08C466.634 236.08 468.327 237.907 468.327 240.352C468.327 242.656 466.634 244.398 464.083 244.398H461.421V246.091C461.421 247.756 462.418 248.923 464.083 248.923C465.636 248.923 466.662 247.785 466.718 246.091C466.718 245.895 466.83 245.817 466.992 245.817H468.018C468.186 245.817 468.299 245.93 468.299 246.091C468.214 248.698 466.521 250.447 464.083 250.447C461.533 250.44 459.84 248.698 459.84 246.091ZM464.083 242.874C465.748 242.874 466.746 241.82 466.746 240.352C466.746 238.743 465.748 237.605 464.083 237.605C462.362 237.605 461.421 238.743 461.421 240.464V242.874H464.083Z" fill="#414042"/>
<path d="M470.629 246.112V240.401C470.629 237.907 472.294 236.045 474.788 236.045C477.198 236.045 478.807 237.766 478.947 240.12C478.947 240.288 478.835 240.394 478.666 240.394H477.64C477.472 240.394 477.359 240.309 477.359 240.12C477.247 238.595 476.305 237.569 474.781 237.569C473.172 237.569 472.203 238.736 472.203 240.401V246.112C472.203 247.778 473.2 248.944 474.837 248.944C476.39 248.944 477.359 247.806 477.472 246.112C477.472 245.916 477.584 245.838 477.746 245.838H478.771C478.94 245.838 479.045 245.951 479.045 246.112C478.905 248.635 477.268 250.468 474.83 250.468C472.322 250.468 470.629 248.614 470.629 246.112Z" fill="#414042"/>
<path d="M481.25 249.913V231.056C481.25 230.888 481.362 230.775 481.531 230.775H482.557C482.725 230.775 482.831 230.888 482.831 231.056V237.379C483.442 236.578 484.355 236.052 485.578 236.052C488.1 236.052 489.681 237.906 489.681 240.492V249.92C489.681 250.089 489.568 250.194 489.4 250.194H488.374C488.205 250.194 488.1 250.081 488.1 249.92V240.485C488.1 238.735 487.13 237.569 485.437 237.569C483.885 237.569 482.831 238.735 482.831 240.485V249.913C482.831 250.081 482.718 250.187 482.557 250.187H481.531C481.362 250.194 481.25 250.081 481.25 249.913Z" fill="#414042"/>
<path d="M492.738 249.913V240.401C492.738 237.907 494.403 236.045 496.869 236.045C499.335 236.045 501 237.9 501 240.401V249.913C501 250.082 500.888 250.187 500.726 250.187H499.701C499.532 250.187 499.427 250.075 499.427 249.913V240.401C499.427 238.708 498.457 237.541 496.876 237.541C495.296 237.541 494.326 238.708 494.326 240.401V249.913C494.326 250.082 494.214 250.187 494.052 250.187H493.026C492.844 250.194 492.738 250.082 492.738 249.913Z" fill="#414042"/>
<path d="M503.777 246.112V240.401C503.777 237.907 505.471 236.045 508.049 236.045C510.627 236.045 512.32 237.9 512.32 240.401V246.112C512.32 248.607 510.627 250.468 508.049 250.468C505.471 250.468 503.777 248.614 503.777 246.112ZM510.712 246.112V240.401C510.712 238.708 509.714 237.541 508.049 237.541C506.384 237.541 505.386 238.708 505.386 240.401V246.112C505.386 247.806 506.384 248.972 508.049 248.972C509.714 248.972 510.712 247.806 510.712 246.112Z" fill="#414042"/>
<path d="M515.371 249.913V231.056C515.371 230.888 515.483 230.775 515.652 230.775H516.678C516.846 230.775 516.952 230.888 516.952 231.056V249.913C516.952 250.081 516.839 250.187 516.678 250.187H515.652C515.483 250.194 515.371 250.081 515.371 249.913Z" fill="#414042"/>
<path d="M519.781 246.112V240.401C519.781 237.907 521.474 236.045 524.053 236.045C526.631 236.045 528.324 237.9 528.324 240.401V246.112C528.324 248.607 526.631 250.468 524.053 250.468C521.474 250.468 519.781 248.614 519.781 246.112ZM526.708 246.112V240.401C526.708 238.708 525.711 237.541 524.046 237.541C522.381 237.541 521.383 238.708 521.383 240.401V246.112C521.383 247.806 522.381 248.972 524.046 248.972C525.711 248.972 526.708 247.806 526.708 246.112Z" fill="#414042"/>
<path d="M539.302 240.401V251.663C539.302 254.269 537.609 256.018 535.059 256.018C532.593 256.018 530.9 254.269 530.816 251.663C530.816 251.494 530.928 251.382 531.09 251.382H532.115C532.284 251.382 532.389 251.466 532.389 251.663C532.474 253.44 533.471 254.494 535.052 254.494C536.717 254.494 537.715 253.44 537.715 251.663V248.529C537.047 249.358 536.134 249.913 535.052 249.913C532.502 249.913 530.809 248.051 530.809 245.557V240.401C530.809 237.907 532.502 236.045 535.052 236.045C537.609 236.052 539.302 237.907 539.302 240.401ZM537.722 245.564V240.408C537.722 238.743 536.724 237.576 535.059 237.576C533.394 237.576 532.396 238.743 532.396 240.408V245.564C532.396 247.23 533.394 248.396 535.059 248.396C536.724 248.389 537.722 247.222 537.722 245.564Z" fill="#414042"/>
<path d="M550.559 236.606V251.662C550.559 254.269 548.866 256.018 546.343 256.018C543.934 256.018 542.24 254.269 542.128 251.662C542.128 251.493 542.241 251.381 542.402 251.381H543.428C543.596 251.381 543.702 251.465 543.702 251.662C543.758 253.44 544.728 254.493 546.336 254.493C548.001 254.493 548.971 253.44 548.971 251.662V248.501C548.304 249.358 547.39 249.913 546.336 249.913C543.814 249.913 542.121 248.051 542.121 245.557V236.599C542.121 236.431 542.233 236.318 542.395 236.318H543.421C543.589 236.318 543.695 236.431 543.695 236.599V245.557C543.695 247.222 544.692 248.388 546.329 248.388C547.966 248.388 548.964 247.222 548.964 245.557V236.599C548.964 236.431 549.076 236.318 549.245 236.318H550.271C550.453 236.325 550.559 236.438 550.559 236.606Z" fill="#414042"/>
<path d="M501.136 221.644C487.29 221.495 474.299 215.999 464.553 206.16C454.8 196.312 449.43 183.251 449.43 169.389C449.43 155.527 454.8 142.466 464.553 132.618C474.299 122.779 487.29 117.283 501.136 117.134L501.175 121.242C474.903 121.516 453.53 143.116 453.53 169.389C453.53 195.662 474.903 217.261 501.175 217.536L501.136 221.644Z" fill="#97CA4E"/>
<path d="M520.829 158.907H496.14C495.003 158.907 494.086 157.989 494.086 156.852C494.086 155.716 495.003 154.798 496.14 154.798H518.775V133.002C518.775 131.866 519.692 130.948 520.829 130.948C521.966 130.948 522.883 131.866 522.883 133.002V156.852C522.875 157.989 521.958 158.907 520.829 158.907Z" fill="#97CA4E"/>
<path d="M544.78 168.416H488.605C487.468 168.416 486.551 167.499 486.551 166.362C486.551 165.225 487.468 164.308 488.605 164.308H542.734V156.632C542.734 155.495 543.651 154.578 544.788 154.578C545.925 154.578 546.842 155.495 546.842 156.632V166.362C546.834 167.499 545.917 168.416 544.78 168.416Z" fill="#97CA4E"/>
<path d="M543.267 177.927H487.492C486.355 177.927 485.438 177.009 485.438 175.873C485.438 174.736 486.355 173.818 487.492 173.818H543.267C544.404 173.818 545.321 174.736 545.321 175.873C545.321 177.009 544.396 177.927 543.267 177.927Z" fill="#97CA4E"/>
<path d="M531.933 201.236H523.544C522.407 201.236 521.49 200.318 521.49 199.182V187.845H495.578C494.441 187.845 493.523 186.927 493.523 185.79C493.523 184.654 494.441 183.736 495.578 183.736H523.544C524.681 183.736 525.598 184.654 525.598 185.79V197.127H531.933C533.07 197.127 533.987 198.045 533.987 199.182C533.987 200.318 533.07 201.236 531.933 201.236Z" fill="#97CA4E"/>
<path d="M506.049 219.338C506.049 220.726 504.928 221.847 503.54 221.847C502.152 221.847 501.031 220.726 501.031 219.338C501.031 217.95 502.152 216.829 503.54 216.829C504.928 216.829 506.049 217.95 506.049 219.338Z" fill="#97CA4E"/>
<path d="M503.54 223.901C501.023 223.901 498.977 221.855 498.977 219.338C498.977 216.822 501.023 214.775 503.54 214.775C506.056 214.775 508.103 216.822 508.103 219.338C508.103 221.847 506.056 223.901 503.54 223.901ZM503.54 218.876C503.289 218.876 503.085 219.08 503.085 219.331C503.085 219.581 503.289 219.793 503.54 219.793C503.79 219.793 503.994 219.589 503.994 219.331C503.994 219.08 503.79 218.876 503.54 218.876Z" fill="#97CA4E"/>
<path d="M506.049 119.029C506.049 120.417 504.928 121.538 503.54 121.538C502.152 121.538 501.031 120.417 501.031 119.029C501.031 117.642 502.152 116.521 503.54 116.521C504.928 116.521 506.049 117.65 506.049 119.029Z" fill="#97CA4E"/>
<path d="M503.54 123.593C501.023 123.593 498.977 121.547 498.977 119.03C498.977 116.513 501.023 114.467 503.54 114.467C506.056 114.467 508.103 116.513 508.103 119.03C508.103 121.547 506.056 123.593 503.54 123.593ZM503.54 118.575C503.289 118.575 503.085 118.779 503.085 119.03C503.085 119.281 503.289 119.485 503.54 119.485C503.79 119.485 503.994 119.281 503.994 119.03C503.994 118.779 503.79 118.575 503.54 118.575Z" fill="#97CA4E"/>
<path d="M475.466 181.14C474.525 181.14 473.475 180.968 472.299 180.56C465.917 178.318 459.629 170.094 458.908 165.923C458.633 164.331 457.559 163.876 454.799 163.077C453.851 162.802 452.878 162.52 451.93 162.112C450.895 161.657 450.417 160.45 450.871 159.407C451.326 158.372 452.533 157.894 453.576 158.349C454.274 158.655 455.082 158.89 455.936 159.133C458.586 159.893 462.216 160.944 462.953 165.225C463.416 167.922 468.669 174.931 473.655 176.687C475.639 177.385 476.689 176.899 477.324 176.389C477.215 175.331 475.247 172.61 474.055 170.948C471.475 167.373 469.249 164.292 470.135 161.579C470.409 160.732 471.123 159.595 472.918 159.007C475.646 158.121 477.363 158.231 478.5 158.31C479.574 158.38 479.865 158.396 481.887 155.252C484.647 150.94 489.782 149.787 493.53 148.948C494.886 148.643 496.917 148.188 497.427 147.749C497.372 146.604 496.188 145.075 494.518 143.993C492.817 142.896 490.222 142.072 488.05 143.053C483.698 145.02 479.888 143.601 478.516 141.273C477.552 139.65 477.646 137.219 480.006 135.447C481.613 134.24 482.648 132.343 482.758 131.488C482.546 131.472 482.193 131.488 481.636 131.598C478.116 132.304 474.384 131.998 471.397 130.759C470.346 130.328 469.853 129.128 470.284 128.078C470.715 127.027 471.915 126.533 472.965 126.964C475.192 127.882 478.132 128.109 480.829 127.568C484.647 126.8 486.035 128.517 486.521 129.607C487.846 132.578 485.016 136.812 482.46 138.733C482.138 138.968 482.036 139.156 482.028 139.203C482.044 139.211 482.185 139.422 482.601 139.611C482.961 139.775 484.302 140.238 486.348 139.313C489.469 137.901 493.358 138.364 496.737 140.544C499.693 142.449 501.527 145.248 501.527 147.835C501.527 151.355 497.756 152.202 494.432 152.955C491.037 153.715 487.195 154.586 485.345 157.471C482.499 161.908 481.072 162.598 478.242 162.41C477.269 162.347 476.172 162.277 474.188 162.92C474.133 162.935 474.086 162.959 474.047 162.975C474.141 164.072 476.235 166.965 477.379 168.557C480.257 172.54 483.228 176.656 480.194 179.345C479.175 180.247 477.622 181.14 475.466 181.14Z" fill="#97CA4E"/>
<path d="M471.729 211.796C471.298 211.796 470.859 211.663 470.49 211.381C468.366 209.773 464.924 205.344 467.119 200.138C468.758 196.257 471.29 194.477 473.321 193.05C474.293 192.368 475.132 191.78 475.759 191.059C476.417 190.306 476.927 188.91 477.429 187.554C478.385 184.951 479.577 181.721 482.807 181.603C485.246 181.533 486.939 183.626 488.907 186.072C490.781 188.401 492.898 191.035 495.751 192.078C496.833 192.47 498.135 192.58 499.382 192.674C501.028 192.807 502.729 192.94 504.125 193.763C505.105 194.336 505.426 195.598 504.854 196.57C504.282 197.55 503.019 197.872 502.047 197.299C501.467 196.954 500.244 196.86 499.06 196.766C497.61 196.649 495.963 196.515 494.356 195.935C490.428 194.508 487.817 191.255 485.716 188.652C484.822 187.538 483.466 185.853 482.901 185.712C482.486 185.735 481.647 188.017 481.286 188.989C480.659 190.69 480.016 192.446 478.864 193.771C477.907 194.869 476.778 195.661 475.688 196.429C473.838 197.731 472.09 198.954 470.906 201.753C469.385 205.359 472.936 208.103 472.976 208.127C473.877 208.809 474.058 210.095 473.375 211.004C472.968 211.514 472.348 211.796 471.729 211.796Z" fill="#97CA4E"/>
<path d="M491.476 135.55C490.339 135.55 489.422 134.633 489.422 133.496V126.785C489.422 125.648 490.339 124.73 491.476 124.73C492.613 124.73 493.53 125.648 493.53 126.785V133.496C493.53 134.633 492.613 135.55 491.476 135.55Z" fill="#97CA4E"/>
<path d="M497.292 138.622C496.156 138.622 495.238 137.705 495.238 136.568V126.784C495.238 125.647 496.156 124.729 497.292 124.729C498.429 124.729 499.347 125.647 499.347 126.784V136.568C499.347 137.705 498.429 138.622 497.292 138.622Z" fill="#97CA4E"/>
<path d="M503.394 143.892C502.257 143.892 501.34 142.975 501.34 141.838V126.785C501.34 125.648 502.257 124.73 503.394 124.73C504.531 124.73 505.448 125.648 505.448 126.785V141.838C505.448 142.967 504.523 143.892 503.394 143.892Z" fill="#97CA4E"/>
<path d="M499.675 203.722H489.929C488.792 203.722 487.875 202.804 487.875 201.667C487.875 200.531 488.792 199.613 489.929 199.613H499.675C500.811 199.613 501.729 200.531 501.729 201.667C501.729 202.804 500.811 203.722 499.675 203.722Z" fill="#97CA4E"/>
<path d="M504.556 209.169H496.41C495.273 209.169 494.355 208.252 494.355 207.115C494.355 205.978 495.273 205.061 496.41 205.061H504.556C505.692 205.061 506.61 205.978 506.61 207.115C506.61 208.252 505.692 209.169 504.556 209.169Z" fill="#97CA4E"/>
<path d="M499.083 214.618H490.937C489.8 214.618 488.883 213.701 488.883 212.564C488.883 211.427 489.8 210.51 490.937 210.51H499.083C500.22 210.51 501.137 211.427 501.137 212.564C501.137 213.701 500.22 214.618 499.083 214.618Z" fill="#97CA4E"/>
<path d="M520.899 133.518C517.817 133.518 515.309 131.009 515.309 127.928C515.309 124.847 517.817 122.338 520.899 122.338C523.98 122.338 526.489 124.847 526.489 127.928C526.489 131.009 523.98 133.518 520.899 133.518ZM520.899 125.882C519.77 125.882 518.86 126.799 518.86 127.92C518.86 129.049 519.778 129.959 520.899 129.959C522.02 129.959 522.937 129.041 522.937 127.92C522.937 126.799 522.02 125.882 520.899 125.882Z" fill="#97CA4E"/>
<path d="M544.848 156.6C541.767 156.6 539.258 154.091 539.258 151.01C539.258 147.929 541.767 145.42 544.848 145.42C547.929 145.42 550.438 147.929 550.438 151.01C550.43 154.099 547.929 156.6 544.848 156.6ZM544.848 148.972C543.719 148.972 542.809 149.889 542.809 151.01C542.809 152.139 543.727 153.048 544.848 153.048C545.977 153.048 546.886 152.131 546.886 151.01C546.886 149.889 545.969 148.972 544.848 148.972Z" fill="#97CA4E"/>
<path d="M547.449 181.658C544.368 181.658 541.859 179.149 541.859 176.068C541.859 172.986 544.368 170.478 547.449 170.478C550.531 170.478 553.04 172.986 553.04 176.068C553.04 179.149 550.531 181.658 547.449 181.658ZM547.449 174.029C546.32 174.029 545.411 174.946 545.411 176.068C545.411 177.189 546.328 178.106 547.449 178.106C548.571 178.106 549.488 177.189 549.488 176.068C549.488 174.946 548.578 174.029 547.449 174.029Z" fill="#97CA4E"/>
<path d="M536.223 204.456C533.142 204.456 530.633 201.947 530.633 198.865C530.633 195.784 533.142 193.275 536.223 193.275C539.304 193.275 541.813 195.784 541.813 198.865C541.813 201.955 539.304 204.456 536.223 204.456ZM536.223 196.827C535.094 196.827 534.184 197.744 534.184 198.865C534.184 199.994 535.102 200.904 536.223 200.904C537.344 200.904 538.261 199.987 538.261 198.865C538.261 197.744 537.344 196.827 536.223 196.827Z" fill="#97CA4E"/>
</svg>
