<svg width="935" height="436" viewBox="0 0 935 436" fill="none" xmlns="http://www.w3.org/2000/svg">
<g clip-path="url(#clip0_2421_13336)">
<path d="M847.305 87.9995C847.185 87.284 846.915 86.5976 846.511 85.9796C846.107 85.3615 845.577 84.8237 844.95 84.3971C844.324 83.9705 843.614 83.6633 842.86 83.4931C842.107 83.3229 841.325 83.293 840.559 83.4051C839.793 83.5172 839.058 83.7691 838.396 84.1465C837.734 84.5239 837.159 85.0193 836.702 85.6044C836.245 86.1896 835.916 86.8531 835.734 87.557C835.552 88.2609 835.52 88.9914 835.64 89.7069C836.485 94.8475 837.605 110.939 831.611 117.42C830.395 118.785 828.698 119.7 826.825 120L827.365 89.3305C827.399 88.2609 827.201 87.1959 826.784 86.199C826.368 85.2021 825.741 84.2936 824.941 83.5278C824.141 82.7619 823.184 82.1542 822.127 81.7409C821.07 81.3277 819.935 81.1172 818.79 81.1222C817.644 81.1271 816.511 81.3473 815.458 81.7696C814.406 82.192 813.455 82.8079 812.662 83.5806C811.87 84.3533 811.252 85.2671 810.845 86.2675C810.438 87.268 810.251 88.3346 810.295 89.404L811.838 147.584C809.883 147.329 808.1 146.403 806.836 144.987C800.939 138.506 801.922 122.414 802.816 117.273C802.937 116.557 802.904 115.826 802.722 115.122C802.539 114.417 802.21 113.753 801.753 113.168C801.296 112.582 800.72 112.086 800.057 111.709C799.395 111.331 798.66 111.079 797.893 110.967C797.126 110.855 796.344 110.885 795.589 111.055C794.835 111.226 794.124 111.533 793.497 111.96C792.871 112.387 792.34 112.926 791.936 113.544C791.531 114.163 791.262 114.85 791.142 115.566C790.719 118.099 787.309 140.645 797.854 152.156C799.627 154.102 801.81 155.688 804.266 156.816C806.722 157.943 809.399 158.588 812.133 158.71L812.801 184.037H825.685L826.668 131.116C829.346 130.964 831.964 130.307 834.364 129.186C836.764 128.064 838.896 126.501 840.632 124.589C851.148 113.023 847.728 90.4872 847.305 87.9995Z" fill="#F0F0F0"/>
<path d="M141.581 119.827C141.411 118.808 140.816 117.894 139.928 117.287C139.04 116.68 137.932 116.429 136.847 116.589C135.762 116.749 134.789 117.308 134.142 118.141C133.496 118.975 133.228 120.016 133.399 121.035C133.993 124.659 134.75 136.008 130.589 140.576C129.732 141.534 128.541 142.174 127.227 142.382L127.605 120.771C127.605 120.033 127.45 119.301 127.15 118.619C126.849 117.937 126.408 117.317 125.852 116.795C125.296 116.272 124.635 115.858 123.909 115.576C123.182 115.293 122.404 115.147 121.617 115.147C120.831 115.147 120.052 115.293 119.326 115.576C118.599 115.858 117.939 116.272 117.383 116.795C116.827 117.317 116.386 117.937 116.085 118.619C115.784 119.301 115.629 120.033 115.629 120.771L116.71 161.781C115.342 161.6 114.094 160.949 113.208 159.954C109.036 155.386 109.792 144.037 110.387 140.413C110.471 139.909 110.448 139.394 110.32 138.897C110.191 138.401 109.96 137.933 109.64 137.521C109.319 137.109 108.915 136.76 108.451 136.494C107.986 136.228 107.471 136.051 106.933 135.972C106.396 135.894 105.848 135.915 105.319 136.035C104.791 136.156 104.293 136.373 103.854 136.674C103.415 136.975 103.043 137.355 102.76 137.791C102.477 138.227 102.288 138.711 102.205 139.215C101.913 141.002 99.5131 156.888 106.917 165.009C108.16 166.378 109.689 167.494 111.408 168.289C113.127 169.083 115.002 169.539 116.915 169.628L117.391 187.483H126.427L127.087 150.178C128.965 150.069 130.801 149.604 132.483 148.812C134.166 148.02 135.661 146.917 136.879 145.57C144.273 137.51 141.884 121.614 141.581 119.827Z" fill="#F0F0F0"/>
<path d="M467.495 436C725.685 436 934.989 366.411 934.989 280.569C934.989 194.726 725.685 125.137 467.495 125.137C209.304 125.137 0 194.726 0 280.569C0 366.411 209.304 436 467.495 436Z" fill="url(#paint0_linear_2421_13336)"/>
</g>
<path d="M280.58 10.8086L200.843 114.702V141.209H286.993V178.192H312.86V141.209H337.657V117.481H312.86V10.8086H280.58ZM286.993 40.5228V117.481H227.779L286.993 40.5228Z" fill="#18484C"/>
<path d="M365 94.6177C365 121.685 372.067 144.045 386.436 162.168C400.805 180.056 419.415 189 442.264 189C465.114 189 483.959 180.056 498.328 161.933C512.698 143.809 520 121.214 520 94.147C520 67.3151 512.933 44.9552 498.564 27.0672C484.195 8.94395 465.585 0 442.736 0C419.886 0 401.277 9.17932 386.672 27.3026C372.302 45.4259 365 67.7858 365 94.6177ZM490.084 94.6177C490.084 113.682 485.843 129.923 477.128 142.868C468.412 155.813 457.105 162.403 442.736 162.403C428.366 162.403 416.824 155.813 408.108 142.633C399.392 129.452 395.152 113.212 395.152 94.147C395.152 75.0822 399.392 59.0772 407.872 46.132C416.588 33.1868 427.895 26.5965 442.264 26.5965C456.634 26.5965 468.176 33.1868 476.892 46.3674C485.608 59.548 490.084 75.5529 490.084 94.6177Z" fill="#96CA4C"/>
<path d="M627.08 10.8086L547.343 114.702V141.209H633.493V178.192H659.359V141.209H684.157V117.481H659.359V10.8086H627.08ZM633.493 40.5228V117.481H574.278L633.493 40.5228Z" fill="#18484C"/>
<defs>
<linearGradient id="paint0_linear_2421_13336" x1="467.495" y1="54.6896" x2="467.495" y2="298.759" gradientUnits="userSpaceOnUse">
<stop stop-color="#F1F9EF"/>
<stop offset="0.48" stop-color="#F1F9EF"/>
<stop offset="1" stop-color="#F1F9EF" stop-opacity="0"/>
</linearGradient>
<clipPath id="clip0_2421_13336">
<rect width="935" height="388" fill="white" transform="translate(0 48)"/>
</clipPath>
</defs>
</svg>
