<svg width="38" height="68" viewBox="0 0 38 68" fill="none" xmlns="http://www.w3.org/2000/svg">
<g clip-path="url(#clip0_2789_13759)">
<path d="M29.9364 3.53089C31.3031 1.91687 32.9428 0.683121 35.0859 0.286075C37.5044 -0.162189 37.0949 -0.34077 37.1019 1.74826C37.1183 6.67372 37.1493 11.5992 37.0911 16.5242C37.0578 19.3502 36.7102 22.1481 35.3909 24.7366C32.4591 30.4906 27.7548 33.9131 21.1312 34.7534C12.0535 35.9047 3.37215 29.9948 1.40543 21.1863C-0.66966 11.8947 5.40502 2.47119 15.4122 0.505901C20.3876 -0.471305 25.006 0.482785 29.2294 3.20908C29.3716 3.30109 29.5189 3.3863 29.6681 3.46743C29.7159 3.49327 29.7783 3.49463 29.9369 3.53089H29.9364ZM19.0744 8.66167C13.9456 8.65895 9.80104 12.595 9.78462 17.4837C9.76867 22.3906 13.9024 26.3951 18.9895 26.4C24.0926 26.4055 28.2409 22.4273 28.2451 17.525C28.2489 12.6598 24.1151 8.66394 19.0744 8.66167Z" fill="url(#paint0_linear_2789_13759)"/>
<path d="M32.7666 33.3111C35.2151 33.3007 37.1053 35.0824 37.1194 37.4157C37.1344 39.8175 35.3038 41.7374 32.8656 41.7533C30.5029 41.7687 28.3963 39.8157 28.3926 37.5045C28.3888 35.144 30.2894 33.3224 32.7661 33.3115L32.7666 33.3111Z" fill="#E4AD23"/>
<path d="M32.8641 43.9858C30.4864 44.0012 28.2476 42.7095 27.0606 40.8167C25.3041 44.9445 20.6355 47.3168 16.0185 46.2108C13.478 45.6026 11.4348 44.0579 10.1812 42.0518C9.65341 40.7297 8.46831 39.6872 6.8727 39.3124C4.26183 38.6991 1.76824 40.1382 1.13441 42.6247C0.838838 43.7837 1.04527 44.9716 1.61108 45.9611C3.98971 50.4383 8.27736 53.9437 13.7008 55.2427C23.2726 57.5353 33.1302 52.1484 36.0577 43.1772C35.1142 43.6867 34.0272 43.9786 32.8637 43.9863L32.8641 43.9858Z" fill="url(#paint1_linear_2789_13759)"/>
<path d="M8.6543 62.3057H9.8089C10.4413 62.3057 10.8912 62.3601 11.1596 62.4693C11.428 62.5785 11.6438 62.7594 11.8066 63.0127C11.9698 63.2656 12.0515 63.5652 12.0515 63.9111C12.0515 64.2746 11.9614 64.5782 11.7812 64.8225C11.6011 65.0668 11.329 65.2518 10.9663 65.3773L12.3222 67.8357H11.131L9.84362 65.4938H9.74415V67.8357H8.6543V62.3057V62.3057ZM9.74415 64.4672H10.0857C10.4319 64.4672 10.6707 64.4232 10.8016 64.3353C10.9321 64.2474 10.9973 64.1014 10.9973 63.8979C10.9973 63.7774 10.9649 63.6722 10.9006 63.5829C10.8359 63.4936 10.7491 63.4297 10.6407 63.3907C10.5323 63.3518 10.3329 63.3323 10.0435 63.3323H9.74462V64.4676L9.74415 64.4672Z" fill="#BE1E2D"/>
<path d="M16.5941 62.1646C17.4039 62.1646 18.1006 62.4478 18.6833 63.0144C19.266 63.581 19.5573 64.2713 19.5573 65.0858C19.5573 65.9002 19.2697 66.5756 18.695 67.1344C18.1198 67.6933 17.4222 67.973 16.6021 67.973C15.782 67.973 15.029 67.686 14.4604 67.1122C13.8917 66.5384 13.6074 65.8567 13.6074 65.0672C13.6074 64.5387 13.7397 64.0523 14.0043 63.6086C14.2689 63.1649 14.633 62.8136 15.0965 62.5543C15.5596 62.2951 16.0588 62.165 16.5936 62.165L16.5941 62.1646ZM16.5824 63.1948C16.0527 63.1948 15.6074 63.3729 15.2462 63.7287C14.8849 64.0845 14.7048 64.5369 14.7048 65.0858C14.7048 65.6972 14.9319 66.1813 15.3865 66.5371C15.7398 66.8154 16.1446 66.9545 16.6021 66.9545C17.1186 66.9545 17.5592 66.7741 17.9223 66.4133C18.2859 66.0525 18.4679 65.6074 18.4679 65.0785C18.4679 64.5496 18.2849 64.1067 17.9185 63.7419C17.5521 63.377 17.1069 63.1948 16.5824 63.1948V63.1948Z" fill="#BE1E2D"/>
<path d="M25.2793 62.3057H26.3622V67.8357H25.2793V62.3057Z" fill="#BE1E2D"/>
<path d="M28.2641 62.3057H29.3578V65.8818C29.3578 66.19 29.3854 66.4076 29.4413 66.5354C29.4971 66.6632 29.589 66.7652 29.7176 66.8418C29.8461 66.9184 30.001 66.9565 30.1825 66.9565C30.3744 66.9565 30.54 66.9138 30.6784 66.8286C30.8173 66.7434 30.9135 66.6351 30.9665 66.5037C31.0195 66.3722 31.0463 66.1211 31.0463 65.7504V62.3057H32.1394V65.6026C32.1394 66.1587 32.107 66.5449 32.0423 66.7607C31.9775 66.9764 31.8537 67.184 31.6707 67.3848C31.4877 67.5856 31.2771 67.7338 31.0383 67.8303C30.7995 67.9269 30.5217 67.9749 30.2055 67.9749C29.7903 67.9749 29.4291 67.8829 29.1218 67.6984C28.8145 67.5144 28.5944 67.2837 28.4621 67.0068C28.3298 66.7298 28.2637 66.2616 28.2637 65.6026V62.3057H28.2641Z" fill="#BE1E2D"/>
<path d="M35.0184 65.3033L36.1693 64.8514C36.0548 64.7562 35.9155 64.642 35.7475 64.5065C35.3032 64.143 35.0367 63.9064 34.9485 63.7962C34.8833 63.7133 34.8509 63.6258 34.8509 63.5329C34.8509 63.44 34.8964 63.357 34.9875 63.2832C35.0785 63.2093 35.1953 63.1721 35.3384 63.1721C35.6321 63.1721 35.9206 63.3625 36.204 63.7437L37.0114 63.0556C36.7102 62.7175 36.4301 62.4841 36.1716 62.3563C35.9131 62.2285 35.641 62.1646 35.3553 62.1646C34.911 62.1646 34.5375 62.3019 34.2354 62.5761C33.9328 62.8503 33.7812 63.1794 33.7812 63.5628C33.7812 63.8284 33.8723 64.0949 34.0538 64.3619C34.211 64.5922 34.5328 64.9063 35.0184 65.3033V65.3033Z" fill="#BE1E2D"/>
<path d="M36.4913 65.1705C36.4796 65.1587 36.4641 65.1442 36.4463 65.1279L35.3081 65.5748C35.5999 65.8078 35.7951 65.9855 35.8852 66.1029C35.9814 66.228 36.0292 66.3535 36.0292 66.4786C36.0292 66.6164 35.9654 66.7379 35.8383 66.843C35.7111 66.9482 35.554 67.0012 35.3668 67.0012C35.0083 67.0012 34.6912 66.7569 34.4158 66.2679L33.5 66.8018C33.7158 67.2151 33.9748 67.5184 34.2774 67.7115C34.58 67.9045 34.9351 68.0011 35.3428 68.0011C35.865 68.0011 36.2882 67.8533 36.6129 67.5574C36.9375 67.2618 37.0998 66.887 37.0998 66.4333C37.0998 66.1999 37.0534 65.9855 36.9614 65.7888C36.8695 65.5921 36.7128 65.3858 36.4918 65.1701L36.4913 65.1705Z" fill="#BE1E2D"/>
<path d="M22.3248 64.9019V62.3057H21.2344V65.3302L22.3248 64.9019Z" fill="#BE1E2D"/>
<path d="M22.3238 65.269L21.2344 65.6969V67.8407H23.9114V66.8368H22.3238V65.269Z" fill="#BE1E2D"/>
<path d="M2.0908 65.0835C2.0908 65.073 2.08939 65.0631 2.08939 65.0522C2.08939 64.5359 2.27987 64.0972 2.65989 63.7364C3.04038 63.3756 3.51235 63.1948 4.07581 63.1948C4.72231 63.1948 5.28859 63.4432 5.77417 63.939L6.54172 63.2061C6.19125 62.8403 5.83328 62.582 5.46734 62.4315C5.03431 62.2534 4.56843 62.1646 4.07018 62.1646C3.11826 62.1646 2.34508 62.4868 1.75112 63.1309C1.25053 63.6725 1 64.3089 1 65.0409C1 65.1963 1.01314 65.3482 1.03613 65.4977L2.09127 65.0835H2.0908Z" fill="#BE1E2D"/>
<path d="M6.93846 65.0126H4.05876V66.0012H5.71677C5.55819 66.3271 5.34988 66.5664 5.09138 66.7191C4.83287 66.8719 4.51572 66.9485 4.13898 66.9485C3.55957 66.9485 3.07258 66.7631 2.67802 66.3919C2.38057 66.1122 2.19525 65.7863 2.12206 65.4142L1.10352 65.8144C1.17107 66.0569 1.27054 66.2908 1.40331 66.5161C1.67448 66.9775 2.04277 67.3328 2.50865 67.5821C2.97453 67.8314 3.50421 67.9561 4.09816 67.9561C4.65318 67.9561 5.13735 67.8418 5.54975 67.6139C5.96214 67.3859 6.29806 67.055 6.5575 66.6212C6.81695 66.1879 6.94644 65.7292 6.94644 65.2451L6.93846 65.0117V65.0126Z" fill="#BE1E2D"/>
</g>
<defs>
<linearGradient id="paint0_linear_2789_13759" x1="1.00008" y1="17.4484" x2="37.1254" y2="17.4484" gradientUnits="userSpaceOnUse">
<stop stop-color="#FFCD27"/>
<stop offset="1" stop-color="#ED312E"/>
</linearGradient>
<linearGradient id="paint1_linear_2789_13759" x1="4.85635" y1="17417.5" x2="26201.4" y2="17417.5" gradientUnits="userSpaceOnUse">
<stop stop-color="#FFCD27"/>
<stop offset="1" stop-color="#ED312E"/>
</linearGradient>
<clipPath id="clip0_2789_13759">
<rect width="38" height="68" fill="white"/>
</clipPath>
</defs>
</svg>
