<svg width="152" height="68" viewBox="0 0 152 68" fill="none" xmlns="http://www.w3.org/2000/svg">
<rect width="152" height="68" fill="white"/>
<g clip-path="url(#clip0_2789_13652)">
<path d="M30.0109 48.4458H19.7367L9.21596 31.7645C8.84975 31.0847 8.53041 30.3774 8.26046 29.6484H8.13374V48.4458H0V10.0497H8.13031V28.2025H8.25704C8.46024 27.7023 8.79586 26.9884 9.26391 26.0608L19.2367 10.0352H28.9287L16.3394 28.3627L30.0109 48.4458Z" fill="#2A327E"/>
<path d="M35.9999 19.5156C34.7866 19.5668 33.6027 19.1105 32.7019 18.2445C32.2901 17.8523 31.9624 17.3707 31.7408 16.8322C31.5193 16.2937 31.409 15.7109 31.4176 15.1231C31.4015 14.5364 31.5084 13.9532 31.7305 13.4158C31.9527 12.8784 32.2845 12.4004 32.7019 12.0163C33.6478 11.2372 34.8103 10.8145 36.0068 10.8145C37.2032 10.8145 38.3657 11.2372 39.3116 12.0163C39.7254 12.4028 40.0539 12.8816 40.2735 13.4187C40.4932 13.9557 40.5986 14.5377 40.5822 15.1231C40.5986 15.7165 40.4935 16.3067 40.2741 16.8526C40.0547 17.3985 39.7263 17.8871 39.3116 18.2846C38.3966 19.1306 37.2113 19.5712 35.9999 19.5156V19.5156ZM39.8527 39.1544C39.8527 40.315 40.113 41.194 40.6336 41.7913C40.9002 42.0925 41.225 42.3289 41.5856 42.4842C41.9462 42.6394 42.334 42.71 42.7227 42.6909C43.1617 42.6896 43.5997 42.6444 44.0309 42.5562L45.3426 42.2866V48.2344C44.3426 48.5092 43.3298 48.7281 42.3083 48.8899C41.2036 49.0603 40.0888 49.1443 38.9726 49.1413C37.9862 49.1561 37.0065 48.9656 36.0889 48.5804C35.2461 48.2223 34.4891 47.6685 33.8731 46.9596C33.2397 46.222 32.7548 45.3544 32.4484 44.41C32.0996 43.325 31.9293 42.184 31.945 41.0374V21.0271H39.8527V39.1544Z" fill="#2A327E"/>
<path d="M72.2626 48.4462H64.3309V33.2108C64.3309 28.964 62.9039 26.8394 60.05 26.837C59.3996 26.8231 58.755 26.9678 58.1654 27.2602C57.5759 27.5525 57.0572 27.9846 56.6492 28.5233C55.7335 29.7346 55.2603 31.2571 55.317 32.8102V48.4462H47.3613V21.0277H55.317V25.3801H55.4163C57.3136 22.0438 60.0751 20.3745 63.7007 20.3721C69.4086 20.3721 72.2626 24.1357 72.2626 31.6629V48.4462Z" fill="#2A327E"/>
<path d="M92.7221 14.333C91.7872 13.9236 90.7879 13.7061 89.7769 13.692C87.222 13.692 85.9457 15.1647 85.948 18.11V21.0238H91.8386V27.2628H85.948V48.4422H78.0164V27.2665H73.6875V21.0274H78.0164V17.6256C78.0164 14.5054 78.973 11.9887 80.8863 10.0753C82.8007 8.1668 86.2015 7.20889 89.4892 7.20889C90.8504 7.17375 92.2089 7.3542 93.5201 7.74429L92.7221 14.333Z" fill="#2A327E"/>
<path d="M99.5194 19.5156C98.3061 19.5668 97.1222 19.1105 96.2214 18.2445C95.8097 17.8523 95.4819 17.3707 95.2604 16.8322C95.0388 16.2937 94.9286 15.7109 94.9371 15.1231C94.921 14.5364 95.0279 13.9532 95.25 13.4158C95.4722 12.8784 95.804 12.4004 96.2214 12.0163C97.1673 11.2372 98.3299 10.8145 99.5263 10.8145C100.723 10.8145 101.885 11.2372 102.831 12.0163C103.245 12.4028 103.573 12.8816 103.793 13.4187C104.013 13.9557 104.118 14.5377 104.102 15.1231C104.118 15.7165 104.013 16.3067 103.794 16.8526C103.574 17.3985 103.246 17.8871 102.831 18.2846C101.916 19.1306 100.731 19.5712 99.5194 19.5156V19.5156ZM103.372 39.1544C103.372 40.315 103.633 41.194 104.153 41.7913C104.42 42.0927 104.744 42.3292 105.105 42.4845C105.466 42.6398 105.854 42.7102 106.242 42.691C106.681 42.6894 107.119 42.6443 107.55 42.5562L108.859 42.2867V48.2344C107.859 48.51 106.846 48.7288 105.824 48.89C104.72 49.0605 103.605 49.1445 102.489 49.1413C101.503 49.1559 100.525 48.9653 99.6085 48.5804C98.7651 48.2233 98.0079 47.6694 97.3927 46.9596C96.7592 46.222 96.2743 45.3544 95.968 44.4101C95.6191 43.325 95.4488 42.184 95.4646 41.0374V21.0271H103.372V39.1544Z" fill="#2A327E"/>
<path d="M112.489 37.7955C115.327 36.2118 117.539 33.6028 118.729 30.4383C118.924 29.9409 119.172 29.4691 119.469 29.0324C119.935 28.3293 120.56 27.7612 121.285 27.3796C122.011 26.998 122.814 26.815 123.623 26.8471C124.34 26.8233 125.053 26.9752 125.706 27.2909C126.359 27.6067 126.935 28.0779 127.39 28.6682C127.595 28.9304 127.781 29.2092 127.945 29.5022L136.695 24.8074C136.695 23.8038 136.32 22.8413 135.653 22.1316C134.986 21.4219 134.081 21.0232 133.137 21.0232H128.739V24.2101H128.64C127.078 21.6387 124.729 20.353 121.592 20.353C118.083 20.353 115.254 21.7189 113.106 24.4505C110.957 27.1822 109.883 30.8681 109.883 35.5082C109.881 36.6933 109.973 37.8765 110.16 39.0448L112.489 37.7955Z" fill="#48AD50"/>
<path d="M128.838 34.7029V35.2711C128.838 37.4855 128.33 39.2666 127.314 40.6142C126.846 41.2621 126.24 41.783 125.547 42.1343C124.853 42.4857 124.092 42.6574 123.324 42.6356C122.566 42.6665 121.812 42.5009 121.128 42.1532C120.444 41.8055 119.849 41.2861 119.396 40.6397C119.337 40.5596 119.286 40.4685 119.228 40.3847L112.166 44.5587C112.358 44.8537 112.556 45.1451 112.772 45.4219C114.704 47.884 117.315 49.1151 120.605 49.1151C124.146 49.1151 126.823 47.5805 128.636 44.5113H128.742V46.6967C128.742 49.2851 128.004 51.3332 126.529 52.8411C125.054 54.3489 122.972 55.1041 120.283 55.1065C117.446 55.0658 114.672 54.2141 112.252 52.6407L113.05 59.7649C115.082 60.8162 117.834 61.3432 121.307 61.3456C126.56 61.3456 129.776 59.947 132.547 57.1534C135.317 54.3598 136.701 50.419 136.701 45.3308V30.0591L128.838 34.7029Z" fill="#2A327E"/>
<path d="M134.217 18.4814C134.217 18.4814 126.467 16.6821 130.245 4C130.245 4 138.69 10.0242 137.094 16.5765C137.094 16.5765 139.577 11.0804 144.249 10.5523C146.89 10.2843 149.492 9.68147 151.999 8.75671C151.999 8.75671 149.019 23.0232 139.081 20.277C139.081 20.277 144.903 18.9622 147.132 14.3584C147.132 14.3584 134.512 25.0337 131.721 10.352C131.724 10.3411 130.83 11.8234 134.217 18.4814Z" fill="#48AD50"/>
</g>
<defs>
<clipPath id="clip0_2789_13652">
<rect width="152" height="59" fill="white" transform="translate(0 4)"/>
</clipPath>
</defs>
</svg>
