<svg width="35" height="48" viewBox="0 0 35 48" fill="none" xmlns="http://www.w3.org/2000/svg">
<path d="M31.8833 31.6874V26.7006L29.7997 27.5063V27.4229C29.401 26.8048 28.8797 26.275 28.268 25.8665C27.6564 25.4579 26.9674 25.1792 26.2437 25.0476L21.2291 24.1309V23.7419C22.1726 23.1926 22.9887 22.4491 23.6233 21.5606C24.2578 20.6722 24.6965 19.6591 24.9102 18.5885C25.5873 18.4312 26.191 18.0488 26.6225 17.5037C27.054 16.9586 27.2878 16.2833 27.2855 15.5881V8.05937C27.2877 7.02537 26.9565 6.01821 26.3409 5.18742C25.7253 4.35663 24.8582 3.74652 23.8684 3.44767L23.4794 3.08652C22.1611 1.78671 20.4889 0.904288 18.6719 0.54953C16.8549 0.194772 14.9736 0.383418 13.2632 1.09189C11.5528 1.80036 10.0891 2.99723 9.05513 4.53291C8.02114 6.06859 7.46271 7.87496 7.44961 9.72625V15.5881C7.45079 16.2929 7.69442 16.9757 8.1396 17.5221C8.58477 18.0684 9.20438 18.445 9.89437 18.5885C10.1055 19.6601 10.5431 20.6742 11.178 21.563C11.8128 22.4518 12.6302 23.1946 13.5754 23.7419V24.1309L8.54697 25.0476C7.81242 25.1738 7.11259 25.453 6.49282 25.867C5.87306 26.2809 5.34719 26.8205 4.94929 27.4507V27.5618L2.79624 26.7006V31.6457C2.49172 31.6456 2.19024 31.7063 1.90942 31.8241C1.62859 31.9418 1.37405 32.1144 1.16067 32.3317C0.947289 32.5489 0.779343 32.8065 0.666642 33.0894C0.553942 33.3723 0.498748 33.6749 0.504285 33.9793V37.0492C0.504285 37.657 0.745759 38.24 1.17558 38.6698C1.60541 39.0996 2.18838 39.3411 2.79624 39.3411V42.1192L17.3398 47.8144L31.8833 42.1609V39.3828C32.4911 39.3828 33.0741 39.1413 33.5039 38.7115C33.9337 38.2817 34.1752 37.6987 34.1752 37.0908V33.9793C34.1752 33.3715 33.9337 32.7885 33.5039 32.3587C33.0741 31.9288 32.4911 31.6874 31.8833 31.6874ZM22.6043 25.9783L25.9103 26.5756C26.865 26.7619 27.7137 27.3029 28.2856 28.0897L20.9235 31.0067L22.6043 25.9783ZM15.1172 24.4642C15.8364 24.6895 16.5861 24.802 17.3398 24.7976C18.0978 24.801 18.852 24.6886 19.5761 24.4642L17.3398 26.145L15.1172 24.4642ZM16.1729 27.1729L14.6172 28.7425L13.6032 25.7005L14.0893 25.6172L16.1729 27.1729ZM20.5902 25.6172L21.0763 25.7005L20.0623 28.7425L18.5621 27.1729L20.5902 25.6172ZM24.9935 16.9772V14.3379C25.2241 14.4725 25.4154 14.6652 25.5483 14.8967C25.6812 15.1283 25.7512 15.3906 25.7512 15.6576C25.7512 15.9245 25.6812 16.1869 25.5483 16.4184C25.4154 16.6499 25.2241 16.8426 24.9935 16.9772ZM9.71379 16.9772C9.48321 16.8426 9.29192 16.6499 9.15898 16.4184C9.02604 16.1869 8.95609 15.9245 8.95609 15.6576C8.95609 15.3906 9.02604 15.1283 9.15898 14.8967C9.29192 14.6652 9.48321 14.4725 9.71379 14.3379V16.9772ZM9.71379 11.8237V12.6988C9.44796 12.7764 9.19169 12.8835 8.9498 13.0183V9.72625C8.95344 7.63964 9.78205 5.63913 11.2549 4.16108C12.7278 2.68302 14.7253 1.84736 16.8119 1.83636C17.8455 1.83594 18.8689 2.04078 19.8227 2.43899C20.7765 2.83721 21.6417 3.42086 22.3682 4.1561L23.0488 4.82285H23.2572C23.9658 5 24.5945 5.40969 25.0427 5.98637C25.491 6.56305 25.7329 7.27341 25.7297 8.00381V12.9767C25.4919 12.8337 25.2345 12.7261 24.9657 12.6572V11.7821H22.5626C21.5365 11.781 20.5247 11.5421 19.6064 11.0842C18.6882 10.6263 17.8885 9.96178 17.2703 9.14284L16.6591 8.32329L15.145 9.85126C14.5282 10.4665 13.7959 10.9539 12.9902 11.2852C12.1845 11.6166 11.3212 11.7854 10.45 11.7821L9.71379 11.8237ZM11.2418 17.1855V13.2823C13.1345 13.1183 14.9071 12.2861 16.2424 10.9347L16.548 10.6291C17.3126 11.4736 18.2448 12.1494 19.2852 12.6134C20.3256 13.0774 21.4513 13.3194 22.5904 13.3239H23.4933V17.1439C23.4933 18.7685 22.8479 20.3266 21.6991 21.4754C20.5503 22.6242 18.9922 23.2696 17.3675 23.2696C15.7429 23.2696 14.1848 22.6242 13.036 21.4754C11.8871 20.3266 11.2418 18.7685 11.2418 17.1439V17.1855ZM8.83868 26.5756L12.1447 25.9783L13.756 31.0067L6.35225 28.0897C6.95281 27.2811 7.8446 26.738 8.83868 26.5756ZM2.03226 37.0492V33.9793C2.03226 33.7767 2.11275 33.5824 2.25602 33.4391C2.3993 33.2958 2.59362 33.2153 2.79624 33.2153C3.11316 33.1907 3.43176 33.2318 3.73202 33.3362C4.03228 33.4405 4.30773 33.6058 4.54105 33.8217C4.77438 34.0376 4.96055 34.2994 5.08788 34.5907C5.2152 34.8819 5.28092 35.1964 5.28092 35.5142C5.28092 35.8321 5.2152 36.1466 5.08788 36.4378C4.96055 36.7291 4.77438 36.9909 4.54105 37.2068C4.30773 37.4226 4.03228 37.588 3.73202 37.6923C3.43176 37.7967 3.11316 37.8378 2.79624 37.8131C2.59362 37.8131 2.3993 37.7327 2.25602 37.5894C2.11275 37.4461 2.03226 37.2518 2.03226 37.0492ZM16.5758 45.8697L4.32421 41.1191V39.0216C5.00917 38.7261 5.59261 38.2365 6.00251 37.6132C6.41241 36.9899 6.63084 36.2602 6.63084 35.5142C6.63084 34.7682 6.41241 34.0386 6.00251 33.4153C5.59261 32.792 5.00917 32.3024 4.32421 32.0069V28.9787L16.5758 33.7432V45.8697ZM14.2977 31.2151L17.3398 28.173L20.3818 31.2151L17.3398 32.3958L14.2977 31.2151ZM30.3553 41.1191L18.1037 45.8697V33.7432L30.3553 28.9787V32.0069C29.6753 32.307 29.0972 32.7983 28.6914 33.421C28.2856 34.0437 28.0695 34.771 28.0695 35.5142C28.0695 36.2575 28.2856 36.9848 28.6914 37.6075C29.0972 38.2302 29.6753 38.7215 30.3553 39.0216V41.1191ZM32.6472 37.0492C32.6472 37.2518 32.5668 37.4461 32.4235 37.5894C32.2802 37.7327 32.0859 37.8131 31.8833 37.8131C31.3044 37.7681 30.7639 37.5064 30.3696 37.0802C29.9753 36.6541 29.7563 36.0948 29.7563 35.5142C29.7563 34.9336 29.9753 34.3744 30.3696 33.9483C30.7639 33.5221 31.3044 33.2604 31.8833 33.2153C32.0859 33.2153 32.2802 33.2958 32.4235 33.4391C32.5668 33.5824 32.6472 33.7767 32.6472 33.9793V37.0492Z" fill="#1B494D"/>
</svg>
