<svg width="38" height="48" viewBox="0 0 38 48" fill="none" xmlns="http://www.w3.org/2000/svg">
<path d="M28.1785 34.9016L23.2422 29.5209V22.9814H14.6712V29.5367L9.83008 34.9016H28.1785Z" fill="#FDDCCE"/>
<path d="M27.2898 34.8068L22.8773 33.5212L18.9727 37.9972L12.2111 30.2515L5.0685 32.3625C3.68984 32.7546 2.47771 33.5878 1.6177 34.7345C0.757693 35.8812 0.297219 37.2781 0.306787 38.7114V45.6477C0.30678 45.9533 0.367242 46.256 0.484692 46.5382C0.602142 46.8204 0.774259 47.0765 0.99113 47.2919C1.208 47.5073 1.46534 47.6777 1.74833 47.7932C2.03132 47.9087 2.33437 47.9671 2.64003 47.965H5.8145L6.37003 47.5682H6.65574L7.22714 47.965H30.6865L31.5278 47.3778H32.2103V41.4097C32.2106 39.926 31.7318 38.4819 30.8453 37.2921C29.9587 36.1024 28.7117 35.2308 27.2898 34.8068Z" fill="#417194"/>
<path d="M32.8886 32.3625L25.6984 30.2515L22.3652 34.0767L26.8254 35.3782C28.2013 35.7751 29.4105 36.6095 30.2697 37.7551C31.1289 38.9007 31.5914 40.2952 31.5871 41.7272V47.3619H32.0474V47.9492H35.2219C35.8365 47.9492 36.4259 47.705 36.8605 47.2704C37.2951 46.8358 37.5392 46.2464 37.5392 45.6318V38.6638C37.5462 37.2312 37.0847 35.8355 36.2251 34.6893C35.3655 33.5432 34.1548 32.7094 32.7775 32.3149L32.8886 32.3625Z" fill="#385E7E"/>
<path d="M7.23125 47.9172V44.1078C7.23125 43.9184 7.156 43.7367 7.02205 43.6028C6.8881 43.4688 6.70642 43.3936 6.51699 43.3936C6.32756 43.3936 6.14588 43.4688 6.01194 43.6028C5.87799 43.7367 5.80273 43.9184 5.80273 44.1078V47.9172H7.23125Z" fill="#385E7E"/>
<path d="M32.0516 47.9172V44.1078C32.0516 44.014 32.0331 43.9211 31.9972 43.8345C31.9613 43.7478 31.9087 43.6691 31.8424 43.6028C31.776 43.5364 31.6973 43.4838 31.6106 43.4479C31.524 43.412 31.4311 43.3936 31.3373 43.3936C31.2435 43.3936 31.1506 43.412 31.064 43.4479C30.9773 43.4838 30.8986 43.5364 30.8322 43.6028C30.7659 43.6691 30.7133 43.7478 30.6774 43.8345C30.6415 43.9211 30.623 44.014 30.623 44.1078V47.9172H32.0516Z" fill="#385E7E"/>
<path d="M6.0244 14.4423L5.29427 13.6328H3.70704L2.97691 14.4423L2.00869 20.1246C1.98542 20.2505 1.99011 20.3799 2.02241 20.5037C2.05472 20.6275 2.11385 20.7428 2.19563 20.8412C2.27741 20.9396 2.37983 21.0189 2.49564 21.0733C2.61146 21.1278 2.73782 21.1561 2.8658 21.1563H6.13551C6.26348 21.1561 6.38985 21.1278 6.50566 21.0733C6.62148 21.0189 6.7239 20.9396 6.80568 20.8412C6.88746 20.7428 6.94659 20.6275 6.9789 20.5037C7.0112 20.3799 7.01589 20.2505 6.99262 20.1246L6.0244 14.4423Z" fill="#E5F5FD"/>
<path d="M5.22759 13.1086V5.87082C5.20185 5.69768 5.11477 5.53955 4.98221 5.42524C4.84965 5.31093 4.68044 5.24805 4.5054 5.24805C4.33036 5.24805 4.16114 5.31093 4.02858 5.42524C3.89602 5.53955 3.80894 5.69768 3.7832 5.87082V13.1086H5.22759Z" fill="#417194"/>
<path d="M22.9248 5.29983H14.9886C13.6176 5.30821 12.3055 5.85874 11.339 6.8312C10.3725 7.80366 9.83005 9.11903 9.83008 10.4901V15.5058L10.6872 16.2676H28.1468V10.4901C28.1468 9.80716 28.012 9.13094 27.7502 8.50019C27.4884 7.86945 27.1046 7.29657 26.621 6.8144C26.1374 6.33223 25.5633 5.95025 24.9318 5.69035C24.3002 5.43045 23.6236 5.29774 22.9407 5.29983H22.9248Z" fill="#EFC984"/>
<path d="M22.9289 5.2998H22.1035V16.2835H27.2938L28.0874 15.5216V10.4901C28.0874 9.11901 27.545 7.80363 26.5784 6.83118C25.6119 5.85872 24.2999 5.30819 22.9289 5.2998Z" fill="#EABC6B"/>
<path d="M18.9567 26.7748H19.2107C20.2581 26.1197 21.1304 25.2197 21.7526 24.1523C22.3748 23.085 22.728 21.8824 22.7819 20.6481V11.5215H13.0046V13.9023C13.0046 14.3233 12.8373 14.727 12.5397 15.0247C12.242 15.3224 11.8383 15.4896 11.4173 15.4896H9.83008V18.0609C9.83008 18.3766 9.9555 18.6794 10.1787 18.9027C10.402 19.1259 10.7048 19.2513 11.0205 19.2513C11.1219 19.2549 11.2184 19.2958 11.2916 19.366C11.3648 19.4363 11.4096 19.5311 11.4173 19.6323C11.5384 21.5623 12.3904 23.3736 13.7999 24.6976C15.2094 26.0216 17.0705 26.7587 19.0043 26.759L18.9567 26.7748Z" fill="#FDDCCE"/>
<path d="M26.5713 15.5055C26.1503 15.5055 25.7466 15.3382 25.449 15.0406C25.1513 14.7429 24.9841 14.3392 24.9841 13.9182V11.5215H22.0953V20.3624C22.0378 21.675 21.6405 22.9503 20.9421 24.0632C20.2437 25.1761 19.2683 26.0886 18.1113 26.7113C18.3915 26.7271 18.6724 26.7271 18.9526 26.7113C20.888 26.7114 22.7509 25.9748 24.163 24.6511C25.5751 23.3275 26.4304 21.5161 26.5554 19.5847C26.5593 19.4849 26.6007 19.3902 26.6713 19.3196C26.742 19.249 26.8366 19.2076 26.9364 19.2037C27.0933 19.2059 27.249 19.1765 27.3944 19.1174C27.5398 19.0584 27.6719 18.9708 27.7829 18.8598C27.8939 18.7488 27.9815 18.6168 28.0405 18.4714C28.0996 18.326 28.1289 18.1702 28.1268 18.0133V15.5055H26.5713Z" fill="#FBCBBF"/>
<path d="M22.7875 8.49011V6.76002C22.3666 6.76002 21.9628 6.59279 21.6652 6.29513C21.3675 5.99746 21.2003 5.59374 21.2003 5.17278V1.99831L20.5495 0.871366L19.2162 0.411068C19.0558 0.362977 18.8847 0.362977 18.7242 0.411068L4.16923 5.07755C3.98662 5.12528 3.82642 5.23533 3.71635 5.38866C3.60628 5.54199 3.55325 5.72896 3.56643 5.91725C3.57961 6.10554 3.65817 6.2833 3.78853 6.4198C3.91889 6.5563 4.09285 6.64296 4.28033 6.66478L18.9623 9.14087L22.7875 8.49011Z" fill="#417194"/>
<path d="M22.784 6.76007L20.673 6.50611C19.5347 6.3632 18.3829 6.3632 17.2446 6.50611L9.19727 7.4902V11.0774C9.19655 11.2521 9.26135 11.4207 9.37889 11.55C9.49643 11.6793 9.65816 11.7599 9.83217 11.7757H22.7205L22.784 6.76007Z" fill="#4C81AB"/>
<path d="M33.7468 5.07776L20.541 0.871582V5.07776C20.541 5.49872 20.7082 5.90244 21.0059 6.20011C21.3036 6.49777 21.7073 6.665 22.1283 6.665V8.6173L33.6357 6.64913C33.8232 6.6273 33.9972 6.54064 34.1275 6.40414C34.2579 6.26764 34.3364 6.08988 34.3496 5.90159C34.3628 5.71331 34.3098 5.52633 34.1997 5.373C34.0896 5.21967 33.9294 5.10962 33.7468 5.06189V5.07776Z" fill="#385E7E"/>
<path d="M22.1035 6.66504V11.7759H28.0239C28.2091 11.7759 28.3868 11.7024 28.5177 11.5714C28.6487 11.4404 28.7223 11.2628 28.7223 11.0776V7.4904L22.1035 6.66504Z" fill="#417194"/>
<path d="M6.02203 14.4421H2.99041V12.4422C2.98824 12.3416 3.00647 12.2415 3.04399 12.1481C3.08151 12.0547 3.13755 11.9699 3.20873 11.8987C3.27992 11.8275 3.36477 11.7715 3.45818 11.7339C3.5516 11.6964 3.65164 11.6782 3.75228 11.6803H5.33952C5.44016 11.6782 5.5402 11.6964 5.63362 11.7339C5.72703 11.7715 5.81188 11.8275 5.88307 11.8987C5.95425 11.9699 6.01029 12.0547 6.04781 12.1481C6.08533 12.2415 6.10356 12.3416 6.10139 12.4422V14.4421H6.02203Z" fill="#FFE07E"/>
<path d="M23.2482 27.1401C23.25 29.9206 22.451 32.6427 20.9467 34.9811L18.9785 37.9968L29.9305 31.4892L23.2482 27.1401Z" fill="#4C81AB"/>
<path d="M14.6723 27.1401C14.6752 29.9222 15.4797 32.6444 16.9896 34.9811L18.9578 37.9968L8.00586 31.4892L14.6723 27.1401Z" fill="#4C81AB"/>
<path d="M22.6079 31.3462C21.4089 31.6076 20.1845 31.7353 18.9573 31.7271C17.7301 31.7344 16.5059 31.6067 15.3066 31.3462C15.694 32.6308 16.2604 33.8544 16.9891 34.981L18.9573 37.9967L20.9413 34.981C21.6645 33.8535 22.2256 32.6299 22.6079 31.3462Z" fill="#F4FBFE"/>
</svg>
