<svg width="48" height="43" viewBox="0 0 48 43" fill="none" xmlns="http://www.w3.org/2000/svg">
<path d="M26.8354 5.52001C26.36 5.07887 26.0664 4.47602 26.0123 3.82967C25.9773 3.42121 26.0312 3.01001 26.1704 2.6244C26.3095 2.23878 26.5306 1.8879 26.8184 1.59593C27.1062 1.30396 27.4538 1.07783 27.8374 0.933116C28.2209 0.788401 28.6313 0.728538 29.0402 0.757651C29.6914 0.809551 30.2996 1.10317 30.7453 1.58077C31.0066 1.83402 31.2131 2.13818 31.3522 2.47443C31.4912 2.81068 31.5598 3.17188 31.5537 3.53569C31.5581 3.90412 31.4858 4.26943 31.3416 4.60848C31.1974 4.94753 30.9843 5.25292 30.7159 5.50531C30.4604 5.76771 30.1538 5.97485 29.815 6.11391C29.4762 6.25297 29.1124 6.32098 28.7463 6.31374C28.0299 6.30971 27.3438 6.0247 26.8354 5.52001ZM31.245 7.813V21.5856H26.3357V7.813H31.245Z" fill="#4DBB8F"/>
<path d="M10.666 17.4114C10.2883 17.5174 9.89701 17.5669 9.50481 17.5584C9.23759 17.6021 8.96385 17.5826 8.70552 17.5015C8.44718 17.4204 8.21143 17.2799 8.01713 17.0913C7.82283 16.9027 7.67538 16.6713 7.58659 16.4155C7.4978 16.1597 7.47013 15.8866 7.5058 15.6182V11.8848H10.7395V7.90142H7.5205V7.0783C7.50118 6.12442 7.10565 5.21684 6.4201 4.55331C5.73454 3.88978 4.81453 3.52409 3.86053 3.53592H2.84633V7.94552H0.376953V11.8848H2.72874V16.0004C2.72874 19.5574 4.87474 21.6006 8.6082 21.6006C9.3036 21.6176 9.99753 21.5284 10.666 21.336C11.7684 20.9097 14.1349 19.6456 14.1349 19.6456V14.7069C13.1642 15.8241 11.9862 16.7426 10.666 17.4114Z" fill="#313F49"/>
<path d="M8.79857 25.2017C9.08245 25.1876 9.36104 25.2822 9.5776 25.4663C9.67059 25.558 9.74345 25.6682 9.79153 25.7896C9.83961 25.9111 9.86187 26.0413 9.85688 26.1718V27.6417H9.43061V27.3183C9.35424 27.4447 9.24636 27.549 9.11753 27.6212C8.9887 27.6933 8.84334 27.7308 8.69568 27.7299C8.45906 27.7305 8.22989 27.6472 8.04894 27.4947C7.9511 27.4271 7.87075 27.3372 7.81453 27.2324C7.7583 27.1276 7.72781 27.0109 7.72557 26.892C7.7197 26.7822 7.74074 26.6725 7.78684 26.5726C7.83295 26.4727 7.90273 26.3856 7.99015 26.3188C8.20253 26.1631 8.46205 26.0852 8.72508 26.0983C8.95016 26.0859 9.17423 26.1368 9.37182 26.2453V26.1424C9.37217 26.0675 9.35662 25.9935 9.32622 25.925C9.29581 25.8566 9.25124 25.7954 9.19544 25.7455C9.07769 25.6417 8.92618 25.5842 8.76918 25.5839C8.65177 25.5834 8.53618 25.6128 8.43331 25.6694C8.33043 25.7259 8.24368 25.8078 8.18123 25.9072L7.79907 25.6573C7.90802 25.4972 8.05883 25.37 8.23507 25.2897C8.41131 25.2093 8.60623 25.1789 8.79857 25.2017ZM8.24002 26.9067C8.24047 26.9601 8.25254 27.0127 8.27538 27.0609C8.29823 27.1092 8.33131 27.1519 8.37231 27.186C8.47457 27.2614 8.59804 27.3026 8.72508 27.3036C8.90248 27.298 9.07091 27.2243 9.19544 27.0978C9.26529 27.0379 9.3212 26.9634 9.35929 26.8797C9.39737 26.7959 9.4167 26.7048 9.41592 26.6128C9.24834 26.4962 9.04647 26.4392 8.84267 26.4511C8.68517 26.4457 8.53027 26.4922 8.40171 26.5834C8.35016 26.6197 8.30842 26.6683 8.28021 26.7247C8.252 26.7811 8.23819 26.8437 8.24002 26.9067Z" fill="#076666"/>
<path d="M31.8925 27.3182C31.8932 27.3625 31.8844 27.4064 31.8667 27.447C31.8489 27.4876 31.8227 27.5238 31.7896 27.5534C31.761 27.5826 31.7267 27.6055 31.6887 27.6207C31.6507 27.6359 31.61 27.643 31.5691 27.6416C31.4823 27.6434 31.3981 27.6119 31.334 27.5534C31.2761 27.4887 31.2441 27.405 31.2441 27.3182C31.2441 27.2314 31.2761 27.1477 31.334 27.083C31.3981 27.0245 31.4823 26.9929 31.5691 26.9948C31.61 26.9934 31.6507 27.0005 31.6887 27.0157C31.7267 27.0308 31.761 27.0538 31.7896 27.083C31.8227 27.1125 31.8489 27.1488 31.8667 27.1894C31.8844 27.23 31.8932 27.2739 31.8925 27.3182Z" fill="#076666"/>
<path d="M2.17913 31.0348L1.9047 31.7925H2.46295L2.18851 31.0348H2.17913ZM1.66779 32.4492H1.42854L2.06185 30.7698H2.30579L2.93911 32.4492H2.69985L2.53801 31.9942H1.83198L1.66779 32.4492ZM3.79752 32.4492H3.58173V30.7698H3.84443L4.6607 32.0763H4.67009L4.6607 31.7526V30.7698H4.8765V32.4492H4.65132L3.79752 31.0794H3.78814L3.79752 31.4031V32.4492ZM7.25382 31.6775C7.25382 31.9121 7.18424 32.0989 7.04506 32.2381C6.88869 32.4039 6.68306 32.4867 6.42817 32.4867C6.18423 32.4867 5.97781 32.4023 5.80893 32.2334C5.64005 32.0645 5.55561 31.8566 5.55561 31.6095C5.55561 31.3624 5.64005 31.1544 5.80893 30.9856C5.97781 30.8167 6.18423 30.7322 6.42817 30.7322C6.55171 30.7322 6.6682 30.7541 6.77767 30.7979C6.88713 30.8417 6.97704 30.9035 7.04741 30.9832L6.8926 31.138C6.841 31.0755 6.77376 31.027 6.69088 30.9926C6.60956 30.9566 6.52199 30.9387 6.42817 30.9387C6.24521 30.9387 6.0904 31.002 5.96374 31.1286C5.83864 31.2569 5.77609 31.4172 5.77609 31.6095C5.77609 31.8018 5.83864 31.9621 5.96374 32.0903C6.0904 32.217 6.24521 32.2803 6.42817 32.2803C6.59549 32.2803 6.73466 32.2334 6.84569 32.1396C6.95671 32.0458 7.02083 31.9168 7.03803 31.7526H6.42817V31.5509H7.24209C7.24991 31.5946 7.25382 31.6369 7.25382 31.6775ZM8.94214 30.7698V30.9762H8.17748V31.5086H8.86708V31.7104H8.17748V32.2428H8.94214V32.4492H7.96168V30.7698H8.94214ZM10.6216 32.4492H9.67864V30.7698H9.89444V32.2428H10.6216V32.4492ZM12.4694 32.4492H12.2536V30.7698H12.4694V32.4492ZM13.4694 32.4492H13.2536V30.7698H13.5163L14.3326 32.0763H14.3419L14.3326 31.7526V30.7698H14.5484V32.4492H14.3232L13.4694 31.0794H13.46L13.4694 31.4031V32.4492ZM15.9736 32.4492H15.7485L15.1574 30.7698H15.3966L15.8564 32.1326H15.8657L16.3442 30.7698H16.5835L15.9736 32.4492ZM18.2063 30.7698V30.9762H17.4416V31.5086H18.1312V31.7104H17.4416V32.2428H18.2063V32.4492H17.2258V30.7698H18.2063ZM19.9795 32.0012C19.9795 32.1482 19.9256 32.2663 19.8177 32.3554C19.7082 32.443 19.5753 32.4867 19.4189 32.4867C19.2797 32.4867 19.157 32.4461 19.0507 32.3648C18.9443 32.2835 18.8708 32.1724 18.8302 32.0317L19.0366 31.9473C19.0507 31.9973 19.0702 32.0426 19.0952 32.0833C19.1202 32.124 19.1492 32.1591 19.182 32.1889C19.2164 32.217 19.2539 32.2397 19.2946 32.2569C19.3353 32.2725 19.3783 32.2803 19.4236 32.2803C19.5221 32.2803 19.6027 32.2553 19.6652 32.2053C19.7278 32.1537 19.759 32.0857 19.759 32.0012C19.759 31.9308 19.7332 31.8706 19.6816 31.8206C19.6332 31.7721 19.5425 31.7252 19.4095 31.6799C19.2751 31.6314 19.1914 31.5985 19.1586 31.5813C18.9803 31.4906 18.8912 31.357 18.8912 31.1802C18.8912 31.0567 18.9404 30.9512 19.0389 30.8636C19.139 30.776 19.2618 30.7322 19.4072 30.7322C19.5354 30.7322 19.6464 30.7651 19.7403 30.8308C19.8341 30.8949 19.8966 30.9754 19.9279 31.0724L19.7262 31.1568C19.7074 31.0942 19.6699 31.0426 19.6136 31.002C19.5589 30.9598 19.4916 30.9387 19.4119 30.9387C19.3274 30.9387 19.2563 30.9621 19.1984 31.009C19.1406 31.0528 19.1116 31.1099 19.1116 31.1802C19.1116 31.2381 19.1343 31.2881 19.1797 31.3304C19.2297 31.3726 19.3384 31.4226 19.5057 31.4805C19.6762 31.5383 19.7973 31.6095 19.8693 31.6939C19.9428 31.7768 19.9795 31.8792 19.9795 32.0012ZM21.2343 30.9762V32.4492H21.0185V30.9762H20.5494V30.7698H21.7035V30.9762H21.2343ZM23.9477 31.6095C23.9477 31.8581 23.8648 32.0661 23.699 32.2334C23.5317 32.4023 23.3269 32.4867 23.0845 32.4867C22.8405 32.4867 22.6357 32.4023 22.4699 32.2334C22.3042 32.0661 22.2213 31.8581 22.2213 31.6095C22.2213 31.3609 22.3042 31.1529 22.4699 30.9856C22.6357 30.8167 22.8405 30.7322 23.0845 30.7322C23.3284 30.7322 23.5333 30.8175 23.699 30.9879C23.8648 31.1552 23.9477 31.3624 23.9477 31.6095ZM22.4418 31.6095C22.4418 31.8034 22.5028 31.9637 22.6247 32.0903C22.7483 32.217 22.9015 32.2803 23.0845 32.2803C23.2674 32.2803 23.4199 32.217 23.5419 32.0903C23.6654 31.9652 23.7272 31.805 23.7272 31.6095C23.7272 31.414 23.6654 31.2537 23.5419 31.1286C23.4199 31.002 23.2674 30.9387 23.0845 30.9387C22.9015 30.9387 22.7483 31.002 22.6247 31.1286C22.5028 31.2553 22.4418 31.4156 22.4418 31.6095ZM24.8638 30.9762V31.5673H25.2109C25.2985 31.5673 25.3728 31.5391 25.4338 31.4828C25.4947 31.425 25.5252 31.3538 25.5252 31.2694C25.5252 31.1912 25.4963 31.1232 25.4385 31.0653C25.3822 31.0059 25.311 30.9762 25.225 30.9762H24.8638ZM24.8638 32.4492H24.648V30.7698H25.2203C25.3657 30.7698 25.4893 30.8182 25.5909 30.9152C25.6941 31.0106 25.7457 31.1286 25.7457 31.2694C25.7457 31.3851 25.7074 31.4883 25.6308 31.579C25.5557 31.6681 25.4603 31.7252 25.3446 31.7502L25.3399 31.7573L25.8114 32.4398V32.4492H25.5557L25.103 31.769H24.8638V32.4492ZM27.4865 32.0012C27.4865 32.1482 27.4325 32.2663 27.3246 32.3554C27.2151 32.443 27.0822 32.4867 26.9259 32.4867C26.7867 32.4867 26.6639 32.4461 26.5576 32.3648C26.4513 32.2835 26.3778 32.1724 26.3371 32.0317L26.5435 31.9473C26.5576 31.9973 26.5771 32.0426 26.6022 32.0833C26.6272 32.124 26.6561 32.1591 26.6889 32.1889C26.7234 32.217 26.7609 32.2397 26.8015 32.2569C26.8422 32.2725 26.8852 32.2803 26.9305 32.2803C27.0291 32.2803 27.1096 32.2553 27.1721 32.2053C27.2347 32.1537 27.266 32.0857 27.266 32.0012C27.266 31.9308 27.2402 31.8706 27.1886 31.8206C27.1401 31.7721 27.0494 31.7252 26.9165 31.6799C26.782 31.6314 26.6983 31.5985 26.6655 31.5813C26.4872 31.4906 26.3981 31.357 26.3981 31.1802C26.3981 31.0567 26.4474 30.9512 26.5459 30.8636C26.6459 30.776 26.7687 30.7322 26.9141 30.7322C27.0424 30.7322 27.1534 30.7651 27.2472 30.8308C27.341 30.8949 27.4036 30.9754 27.4349 31.0724L27.2331 31.1568C27.2144 31.0942 27.1768 31.0426 27.1205 31.002C27.0658 30.9598 26.9986 30.9387 26.9188 30.9387C26.8344 30.9387 26.7632 30.9621 26.7054 31.009C26.6475 31.0528 26.6186 31.1099 26.6186 31.1802C26.6186 31.2381 26.6413 31.2881 26.6866 31.3304C26.7366 31.3726 26.8453 31.4226 27.0126 31.4805C27.1831 31.5383 27.3043 31.6095 27.3762 31.6939C27.4497 31.7768 27.4865 31.8792 27.4865 32.0012ZM29.3687 31.769V32.4492H29.1529V30.7698H29.7252C29.8707 30.7698 29.9942 30.8182 30.0958 30.9152C30.1991 31.0121 30.2507 31.1302 30.2507 31.2694C30.2507 31.4117 30.1991 31.5305 30.0958 31.6259C29.9958 31.7213 29.8722 31.769 29.7252 31.769H29.3687ZM29.3687 30.9762V31.5626H29.7299C29.8159 31.5626 29.8871 31.5337 29.9434 31.4758C30.0012 31.4179 30.0302 31.3491 30.0302 31.2694C30.0302 31.1912 30.0012 31.1232 29.9434 31.0653C29.8871 31.0059 29.8159 30.9762 29.7299 30.9762H29.3687ZM31.8655 32.4492H30.9226V30.7698H31.1384V32.2428H31.8655V32.4492ZM33.1463 31.0348L32.8719 31.7925H33.4301L33.1557 31.0348H33.1463ZM32.635 32.4492H32.3957L33.029 30.7698H33.273L33.9063 32.4492H33.667L33.5052 31.9942H32.7992L32.635 32.4492ZM34.9677 30.9762V32.4492H34.752V30.9762H34.2828V30.7698H35.4369V30.9762H34.9677ZM36.3236 31.7291V32.4492H36.1078V30.7698H37.0883V30.9762H36.3236V31.5274H37.0132V31.7291H36.3236ZM39.4003 31.6095C39.4003 31.8581 39.3174 32.0661 39.1517 32.2334C38.9844 32.4023 38.7795 32.4867 38.5371 32.4867C38.2932 32.4867 38.0883 32.4023 37.9226 32.2334C37.7568 32.0661 37.674 31.8581 37.674 31.6095C37.674 31.3609 37.7568 31.1529 37.9226 30.9856C38.0883 30.8167 38.2932 30.7322 38.5371 30.7322C38.7811 30.7322 38.9859 30.8175 39.1517 30.9879C39.3174 31.1552 39.4003 31.3624 39.4003 31.6095ZM37.8944 31.6095C37.8944 31.8034 37.9554 31.9637 38.0774 32.0903C38.2009 32.217 38.3542 32.2803 38.5371 32.2803C38.7201 32.2803 38.8726 32.217 38.9945 32.0903C39.1181 31.9652 39.1798 31.805 39.1798 31.6095C39.1798 31.414 39.1181 31.2537 38.9945 31.1286C38.8726 31.002 38.7201 30.9387 38.5371 30.9387C38.3542 30.9387 38.2009 31.002 38.0774 31.1286C37.9554 31.2553 37.8944 31.4156 37.8944 31.6095ZM40.3164 30.9762V31.5673H40.6636C40.7512 31.5673 40.8254 31.5391 40.8864 31.4828C40.9474 31.425 40.9779 31.3538 40.9779 31.2694C40.9779 31.1912 40.949 31.1232 40.8911 31.0653C40.8348 31.0059 40.7637 30.9762 40.6777 30.9762H40.3164ZM40.3164 32.4492H40.1006V30.7698H40.673C40.8184 30.7698 40.9419 30.8182 41.0436 30.9152C41.1468 31.0106 41.1984 31.1286 41.1984 31.2694C41.1984 31.3851 41.1601 31.4883 41.0834 31.579C41.0084 31.6681 40.913 31.7252 40.7973 31.7502L40.7926 31.7573L41.2641 32.4398V32.4492H41.0084L40.5557 31.769H40.3164V32.4492ZM42.1182 32.4492H41.9024V30.7698H42.1182L42.7022 31.7925H42.7116L43.2956 30.7698H43.5114V32.4492H43.2956V31.4523L43.305 31.1709H43.2956L42.7702 32.0927H42.6436L42.1182 31.1709H42.1088L42.1182 31.4523V32.4492Z" fill="#313F49"/>
<path d="M46.9549 34.7554H0.404297V42.7955H46.9549V34.7554Z" fill="#313F49"/>
<path d="M12.9976 37.5703V38.3877H12.7383V36.3696H13.426C13.6008 36.3696 13.7492 36.4279 13.8714 36.5444C13.9954 36.6609 14.0574 36.8027 14.0574 36.97C14.0574 37.141 13.9954 37.2838 13.8714 37.3984C13.7511 37.513 13.6027 37.5703 13.426 37.5703H12.9976ZM12.9976 36.6176V37.3223H13.4317C13.535 37.3223 13.6205 37.2875 13.6882 37.218C13.7577 37.1485 13.7925 37.0658 13.7925 36.97C13.7925 36.876 13.7577 36.7943 13.6882 36.7247C13.6205 36.6533 13.535 36.6176 13.4317 36.6176H12.9976ZM14.1062 37.6971C14.1062 37.4848 14.1729 37.3091 14.3063 37.1701C14.4416 37.031 14.6116 36.9615 14.8164 36.9615C15.0212 36.9615 15.1904 37.031 15.3238 37.1701C15.4591 37.3091 15.5267 37.4848 15.5267 37.6971C15.5267 37.9114 15.4591 38.087 15.3238 38.2242C15.1904 38.3633 15.0212 38.4328 14.8164 38.4328C14.6116 38.4328 14.4416 38.3633 14.3063 38.2242C14.1729 38.0852 14.1062 37.9095 14.1062 37.6971ZM14.3655 37.6971C14.3655 37.8456 14.4087 37.9659 14.4951 38.0579C14.5816 38.15 14.6887 38.196 14.8164 38.196C14.9442 38.196 15.0513 38.15 15.1377 38.0579C15.2242 37.9659 15.2674 37.8456 15.2674 37.6971C15.2674 37.5506 15.2242 37.4313 15.1377 37.3392C15.0494 37.2452 14.9423 37.1983 14.8164 37.1983C14.6905 37.1983 14.5834 37.2452 14.4951 37.3392C14.4087 37.4313 14.3655 37.5506 14.3655 37.6971ZM17.6908 37.0066L17.2455 38.3877H16.9805L16.6367 37.3279L16.2956 38.3877H16.0335L15.5882 37.0066H15.8587L16.166 38.0495H16.1688L16.5098 37.0066H16.7776L17.1186 38.0495H17.1215L17.4259 37.0066H17.6908ZM18.4522 38.4328C18.2493 38.4328 18.082 38.3633 17.9505 38.2242C17.819 38.0852 17.7532 37.9095 17.7532 37.6971C17.7532 37.4867 17.8171 37.3119 17.9449 37.1729C18.0727 37.032 18.2361 36.9615 18.4353 36.9615C18.6401 36.9615 18.8027 37.0282 18.9229 37.1616C19.0451 37.2932 19.1061 37.4782 19.1061 37.7169L19.1033 37.7451H18.0182C18.0219 37.8804 18.067 37.9893 18.1535 38.072C18.2399 38.1547 18.3432 38.196 18.4635 38.196C18.6288 38.196 18.7585 38.1134 18.8525 37.948L19.0836 38.0607C19.0216 38.1772 18.9351 38.2684 18.8243 38.3341C18.7153 38.3999 18.5913 38.4328 18.4522 38.4328ZM18.0379 37.5309H18.8299C18.8224 37.435 18.7829 37.3561 18.7115 37.2941C18.642 37.2302 18.5481 37.1983 18.4297 37.1983C18.332 37.1983 18.2474 37.2283 18.176 37.2885C18.1065 37.3486 18.0604 37.4294 18.0379 37.5309ZM19.6026 38.3877H19.3433V37.0066H19.5913V37.2321H19.6026C19.6289 37.1588 19.6824 37.0968 19.7632 37.0461C19.8459 36.9934 19.9267 36.9671 20.0056 36.9671C20.0808 36.9671 20.1447 36.9784 20.1973 37.001L20.1184 37.2518C20.0864 37.2387 20.0357 37.2321 19.9662 37.2321C19.8685 37.2321 19.783 37.2715 19.7097 37.3505C19.6383 37.4294 19.6026 37.5215 19.6026 37.6267V38.3877ZM20.9019 38.4328C20.699 38.4328 20.5318 38.3633 20.4002 38.2242C20.2687 38.0852 20.2029 37.9095 20.2029 37.6971C20.2029 37.4867 20.2668 37.3119 20.3946 37.1729C20.5224 37.032 20.6859 36.9615 20.885 36.9615C21.0898 36.9615 21.2524 37.0282 21.3726 37.1616C21.4948 37.2932 21.5558 37.4782 21.5558 37.7169L21.553 37.7451H20.4679C20.4716 37.8804 20.5167 37.9893 20.6032 38.072C20.6896 38.1547 20.793 38.196 20.9132 38.196C21.0786 38.196 21.2082 38.1134 21.3022 37.948L21.5333 38.0607C21.4713 38.1772 21.3849 38.2684 21.274 38.3341C21.165 38.3999 21.041 38.4328 20.9019 38.4328ZM20.4876 37.5309H21.2796C21.2721 37.435 21.2327 37.3561 21.1613 37.2941C21.0917 37.2302 20.9978 37.1983 20.8794 37.1983C20.7817 37.1983 20.6971 37.2283 20.6257 37.2885C20.5562 37.3486 20.5102 37.4294 20.4876 37.5309ZM22.4268 38.196C22.5546 38.196 22.6589 38.15 22.7397 38.0579C22.8242 37.9659 22.8665 37.8456 22.8665 37.6971C22.8665 37.5525 22.8242 37.4331 22.7397 37.3392C22.657 37.2452 22.5527 37.1983 22.4268 37.1983C22.3028 37.1983 22.1985 37.2452 22.114 37.3392C22.0294 37.4331 21.9871 37.5525 21.9871 37.6971C21.9871 37.8437 22.0294 37.963 22.114 38.0551C22.1985 38.1491 22.3028 38.196 22.4268 38.196ZM22.3845 38.4328C22.2042 38.4328 22.0491 38.3614 21.9195 38.2186C21.7917 38.0739 21.7278 37.9001 21.7278 37.6971C21.7278 37.4942 21.7917 37.3204 21.9195 37.1757C22.0491 37.0329 22.2042 36.9615 22.3845 36.9615C22.486 36.9615 22.5781 36.9831 22.6608 37.0263C22.7453 37.0695 22.8102 37.1269 22.8552 37.1983H22.8665L22.8552 37.0066V36.3696H23.1146V38.3877H22.8665V38.196H22.8552C22.8102 38.2674 22.7453 38.3247 22.6608 38.368C22.5781 38.4112 22.486 38.4328 22.3845 38.4328ZM24.78 38.4328C24.6786 38.4328 24.5856 38.4112 24.501 38.368C24.4183 38.3247 24.3544 38.2674 24.3093 38.196H24.2981V38.3877H24.05V36.3696H24.3093V37.0066L24.2981 37.1983H24.3093C24.3544 37.1269 24.4183 37.0695 24.501 37.0263C24.5856 36.9831 24.6786 36.9615 24.78 36.9615C24.9623 36.9615 25.1164 37.0329 25.2423 37.1757C25.3719 37.3204 25.4368 37.4942 25.4368 37.6971C25.4368 37.902 25.3719 38.0758 25.2423 38.2186C25.1164 38.3614 24.9623 38.4328 24.78 38.4328ZM24.7378 38.196C24.8618 38.196 24.9661 38.1491 25.0506 38.0551C25.1352 37.963 25.1775 37.8437 25.1775 37.6971C25.1775 37.5525 25.1352 37.4331 25.0506 37.3392C24.9661 37.2452 24.8618 37.1983 24.7378 37.1983C24.6119 37.1983 24.5066 37.2452 24.4221 37.3392C24.3394 37.4331 24.2981 37.5525 24.2981 37.6971C24.2981 37.8437 24.3394 37.964 24.4221 38.0579C24.5066 38.15 24.6119 38.196 24.7378 38.196ZM26.8535 37.0066L25.9882 38.9965H25.7204L26.0417 38.3003L25.4724 37.0066H25.7542L26.1658 37.9987H26.1714L26.5716 37.0066H26.8535ZM28.262 36.6176V38.3877H28.0027V36.6176H27.439V36.3696H28.8257V36.6176H28.262ZM29.0282 37.9649C29.0282 38.0326 29.0564 38.0889 29.1128 38.134C29.171 38.1791 29.2387 38.2017 29.3157 38.2017C29.4247 38.2017 29.5215 38.1613 29.606 38.0805C29.6925 37.9997 29.7357 37.9048 29.7357 37.7958C29.6549 37.7319 29.5421 37.7 29.3975 37.7C29.2922 37.7 29.2039 37.7253 29.1325 37.7761C29.063 37.8268 29.0282 37.8897 29.0282 37.9649ZM29.3636 36.9615C29.5553 36.9615 29.7066 37.0132 29.8174 37.1165C29.9283 37.218 29.9837 37.358 29.9837 37.5365V38.3877H29.7357V38.196H29.7244C29.6173 38.3539 29.4745 38.4328 29.296 38.4328C29.1438 38.4328 29.016 38.3877 28.9127 38.2975C28.8112 38.2073 28.7605 38.0946 28.7605 37.9593C28.7605 37.8165 28.814 37.7028 28.9211 37.6182C29.0301 37.5337 29.1748 37.4914 29.3552 37.4914C29.5093 37.4914 29.6361 37.5196 29.7357 37.576V37.5168C29.7357 37.4266 29.7 37.3505 29.6286 37.2885C29.5572 37.2246 29.4736 37.1926 29.3777 37.1926C29.233 37.1926 29.1184 37.2537 29.0339 37.3758L28.8056 37.2321C28.9315 37.0517 29.1175 36.9615 29.3636 36.9615ZM30.5355 36.3696V38.3877H30.2762V36.3696H30.5355ZM31.1108 38.3877H30.8515V37.0066H31.0995V37.2321H31.1108C31.1371 37.1588 31.1906 37.0968 31.2714 37.0461C31.3541 36.9934 31.4349 36.9671 31.5138 36.9671C31.589 36.9671 31.6529 36.9784 31.7055 37.001L31.6266 37.2518C31.5946 37.2387 31.5439 37.2321 31.4744 37.2321C31.3766 37.2321 31.2912 37.2715 31.2179 37.3505C31.1465 37.4294 31.1108 37.5215 31.1108 37.6267V38.3877ZM31.7111 37.6971C31.7111 37.4848 31.7778 37.3091 31.9113 37.1701C32.0465 37.031 32.2166 36.9615 32.4214 36.9615C32.6262 36.9615 32.7953 37.031 32.9288 37.1701C33.064 37.3091 33.1317 37.4848 33.1317 37.6971C33.1317 37.9114 33.064 38.087 32.9288 38.2242C32.7953 38.3633 32.6262 38.4328 32.4214 38.4328C32.2166 38.4328 32.0465 38.3633 31.9113 38.2242C31.7778 38.0852 31.7111 37.9095 31.7111 37.6971ZM31.9704 37.6971C31.9704 37.8456 32.0137 37.9659 32.1001 38.0579C32.1865 38.15 32.2936 38.196 32.4214 38.196C32.5492 38.196 32.6563 38.15 32.7427 38.0579C32.8292 37.9659 32.8724 37.8456 32.8724 37.6971C32.8724 37.5506 32.8292 37.4313 32.7427 37.3392C32.6544 37.2452 32.5473 37.1983 32.4214 37.1983C32.2955 37.1983 32.1884 37.2452 32.1001 37.3392C32.0137 37.4313 31.9704 37.5506 31.9704 37.6971ZM34.0299 38.196C34.154 38.196 34.2582 38.1491 34.3428 38.0551C34.4274 37.963 34.4696 37.8437 34.4696 37.6971C34.4696 37.5525 34.4274 37.4331 34.3428 37.3392C34.2582 37.2452 34.154 37.1983 34.0299 37.1983C33.904 37.1983 33.7988 37.2452 33.7143 37.3392C33.6316 37.4331 33.5902 37.5525 33.5902 37.6971C33.5902 37.8437 33.6316 37.964 33.7143 38.0579C33.7988 38.15 33.904 38.196 34.0299 38.196ZM34.0722 38.4328C33.9707 38.4328 33.8777 38.4112 33.7932 38.368C33.7105 38.3247 33.6466 38.2674 33.6015 38.196H33.5902L33.6015 38.3877V38.9965H33.3422V37.0066H33.5902V37.1983H33.6015C33.6466 37.1269 33.7105 37.0695 33.7932 37.0263C33.8777 36.9831 33.9707 36.9615 34.0722 36.9615C34.2545 36.9615 34.4086 37.0329 34.5345 37.1757C34.6641 37.3204 34.7289 37.4942 34.7289 37.6971C34.7289 37.902 34.6641 38.0758 34.5345 38.2186C34.4086 38.3614 34.2545 38.4328 34.0722 38.4328Z" fill="white"/>
<path d="M1.74393 27.2154H1.65574H1.55285C1.48649 27.2402 1.41342 27.2402 1.34706 27.2154C1.27857 27.1279 1.24692 27.0172 1.25887 26.9067V25.7455H1.84682V25.3487H1.25887V24.9518C1.25887 24.7607 0.817913 24.6284 0.817913 24.6284V25.3487H0.376953V25.7455H0.817913V27.0537C0.810235 27.146 0.823423 27.2388 0.8565 27.3253C0.889578 27.4119 0.941696 27.4898 1.009 27.5534C1.07167 27.6127 1.14557 27.6589 1.22635 27.6892C1.30713 27.7195 1.39315 27.7333 1.47935 27.7298C1.61544 27.7543 1.75482 27.7543 1.89091 27.7298L1.74393 27.2154Z" fill="#076666"/>
<path d="M38.358 24.775C38.4294 24.774 38.4982 24.7483 38.5527 24.7023C38.6072 24.6562 38.6441 24.5928 38.6571 24.5226C38.6701 24.4524 38.6584 24.3799 38.6239 24.3174C38.5895 24.2549 38.5345 24.2063 38.4682 24.1798C38.402 24.1533 38.3286 24.1506 38.2606 24.1721C38.1925 24.1936 38.134 24.238 38.095 24.2978C38.0561 24.3575 38.039 24.429 38.0467 24.4999C38.0545 24.5708 38.0866 24.6369 38.1375 24.6868C38.1661 24.7161 38.2005 24.739 38.2385 24.7542C38.2764 24.7694 38.3172 24.7765 38.358 24.775Z" fill="#076666"/>
<path d="M38.5914 25.5983C38.5914 25.4072 38.1504 25.2749 38.1504 25.2749V27.612H38.5914V25.5983Z" fill="#076666"/>
<path d="M25.0265 24.5255C25.0265 24.3197 24.5856 24.2021 24.5856 24.2021V25.5985C24.5037 25.4754 24.3926 25.3744 24.2622 25.3045C24.1156 25.2341 23.9545 25.1988 23.7919 25.2017C23.6405 25.1998 23.4907 25.2318 23.3533 25.2954C23.216 25.359 23.0946 25.4525 22.9981 25.5691C22.7784 25.809 22.6621 26.1259 22.6748 26.451C22.6668 26.7754 22.7824 27.0907 22.9981 27.333C23.1489 27.5123 23.3564 27.6348 23.5862 27.6803C23.8161 27.7257 24.0545 27.6913 24.2622 27.5828C24.3926 27.513 24.5037 27.412 24.5856 27.2889V27.6122H25.0118V24.5255H25.0265ZM24.3945 27.0537C24.3292 27.1296 24.2479 27.1901 24.1564 27.2308C24.0649 27.2715 23.9655 27.2913 23.8653 27.2889C23.7649 27.2935 23.6648 27.2746 23.573 27.2338C23.4811 27.193 23.4001 27.1313 23.3362 27.0537C23.187 26.8892 23.1079 26.673 23.1157 26.451C23.1072 26.2246 23.1861 26.0035 23.3362 25.8337C23.4053 25.7546 23.4915 25.6923 23.5883 25.6516C23.6851 25.6108 23.7899 25.5927 23.8947 25.5985C23.9943 25.5998 24.0925 25.6214 24.1835 25.6618C24.2744 25.7022 24.3562 25.7607 24.4239 25.8337C24.5637 26.0084 24.6367 26.2273 24.6297 26.451C24.6305 26.6745 24.5464 26.8898 24.3945 27.0537Z" fill="#076666"/>
<path d="M46.7044 25.4514C46.619 25.3641 46.5156 25.2964 46.4013 25.2533C46.2871 25.2101 46.1648 25.1925 46.043 25.2015C45.8923 25.197 45.7437 25.238 45.6167 25.3191C45.4859 25.3757 45.3773 25.4738 45.308 25.5984C45.308 25.422 44.9259 25.3044 44.8965 25.2897V27.6268H45.3374V26.3333C45.332 26.1506 45.3949 25.9724 45.5138 25.8336C45.5648 25.7647 45.6313 25.7088 45.7079 25.6705C45.7845 25.6322 45.8691 25.6125 45.9548 25.6131C46.0323 25.6036 46.1111 25.6119 46.1849 25.6373C46.2588 25.6628 46.3259 25.7047 46.3812 25.76C46.4364 25.8152 46.4784 25.8823 46.5038 25.9562C46.5293 26.0301 46.5375 26.1088 46.528 26.1863V27.6562H46.969V26.1863C46.9765 26.0524 46.9569 25.9182 46.9115 25.792C46.866 25.6657 46.7956 25.5499 46.7044 25.4514Z" fill="#076666"/>
<path d="M16.3229 24.775C16.3942 24.774 16.463 24.7483 16.5175 24.7023C16.5721 24.6562 16.609 24.5928 16.6219 24.5226C16.6349 24.4524 16.6232 24.3799 16.5888 24.3174C16.5544 24.2549 16.4993 24.2063 16.4331 24.1798C16.3668 24.1533 16.2934 24.1506 16.2254 24.1721C16.1574 24.1936 16.0989 24.238 16.0599 24.2978C16.0209 24.3575 16.0038 24.429 16.0116 24.4999C16.0193 24.5708 16.0514 24.6369 16.1024 24.6868C16.131 24.7161 16.1654 24.739 16.2033 24.7542C16.2413 24.7694 16.282 24.7765 16.3229 24.775Z" fill="#076666"/>
<path d="M16.1074 25.2749V27.612H16.5484V25.5983C16.5484 25.4072 16.1074 25.2749 16.1074 25.2749Z" fill="#076666"/>
<path d="M19.2459 7.54834C16.1445 7.54834 13.9985 8.63604 12.7932 10.782L13.0283 10.9143C13.6408 11.3315 14.3383 11.6073 15.0705 11.7217C15.8026 11.8361 16.5511 11.7863 17.2616 11.5758C17.7679 11.3237 18.3276 11.1977 18.8931 11.2083C20.0249 11.2083 20.6863 11.8109 20.6863 12.5459C20.6863 13.2808 20.363 13.3837 19.7309 13.3837H19.0254C16.0857 13.3837 12.6315 14.3538 12.6315 17.6169C12.6219 18.1444 12.7229 18.668 12.9279 19.1541C13.133 19.6401 13.4376 20.0779 13.8221 20.4391C14.2114 20.8149 14.6722 21.1087 15.1772 21.3031C15.6821 21.4975 16.221 21.5886 16.7618 21.5708C17.5375 21.5936 18.3083 21.4401 19.0161 21.1219C19.7239 20.8036 20.3503 20.3289 20.848 19.7335V21.5708H25.4193V13.1044C25.434 9.45916 23.0528 7.54834 19.2459 7.54834ZM20.7157 16.3675C20.7234 16.6314 20.6747 16.8938 20.5727 17.1373C20.4707 17.3807 20.3178 17.5995 20.1243 17.7791C19.9309 17.9586 19.7013 18.0948 19.4509 18.1783C19.2005 18.2619 18.9352 18.291 18.6726 18.2637C18.3643 18.2678 18.0663 18.1522 17.8415 17.9411C17.6167 17.73 17.4825 17.4399 17.4673 17.1319C17.4673 16.3381 18.217 15.9707 19.0548 15.9707H20.7157V16.3675Z" fill="#4DBB8F"/>
<path d="M46.2722 0.757812C45.7086 0.764853 45.1523 0.885955 44.6367 1.11381C44.1212 1.34168 43.6572 1.67157 43.2726 2.08362C42.888 2.49567 42.5909 2.98133 42.3991 3.51133C42.2072 4.04132 42.1248 4.60467 42.1566 5.16741V9.38592H42.0537C41.6258 8.80415 41.0616 8.33637 40.4106 8.02369C39.7596 7.71102 39.0418 7.56301 38.3202 7.59268C37.471 7.58854 36.6303 7.76306 35.8529 8.10492C35.0755 8.44678 34.3787 8.94833 33.8077 9.577C33.1785 10.2383 32.6868 11.018 32.3613 11.8709C32.0358 12.7237 31.883 13.6327 31.9116 14.5451C31.8657 16.3763 32.5052 18.1585 33.7048 19.5427C34.263 20.191 34.956 20.7098 35.7354 21.0627C36.5148 21.4155 37.3618 21.5941 38.2173 21.5858C38.9683 21.6048 39.7127 21.4408 40.3862 21.1079C41.0597 20.775 41.6421 20.2832 42.0831 19.675H42.1859V21.5858H46.963V0.757812H46.2722ZM41.4069 16.4854C41.1625 16.7424 40.8684 16.9471 40.5424 17.087C40.2165 17.2268 39.8655 17.2989 39.5108 17.2989C39.1561 17.2989 38.8051 17.2268 38.4791 17.087C38.1532 16.9471 37.8591 16.7424 37.6147 16.4854C37.118 15.9703 36.8405 15.2827 36.8405 14.5672C36.8405 13.8517 37.118 13.1641 37.6147 12.649C37.8591 12.392 38.1532 12.1873 38.4791 12.0474C38.8051 11.9076 39.1561 11.8354 39.5108 11.8354C39.8655 11.8354 40.2165 11.9076 40.5424 12.0474C40.8684 12.1873 41.1625 12.392 41.4069 12.649C41.9036 13.1641 42.1811 13.8517 42.1811 14.5672C42.1811 15.2827 41.9036 15.9703 41.4069 16.4854Z" fill="#313F49"/>
</svg>
