<svg width="45" height="48" viewBox="0 0 45 48" fill="none" xmlns="http://www.w3.org/2000/svg">
<path d="M17.9173 28.1249H0.742188V18.6475C0.746112 17.5565 1.18225 16.5115 1.95508 15.7415C2.72791 14.9714 3.77443 14.5391 4.86541 14.5391H13.7644C14.8554 14.5391 15.9019 14.9714 16.6748 15.7415C17.4476 16.5115 17.8837 17.5565 17.8877 18.6475V28.1249H17.9173Z" fill="#FDDB44"/>
<path d="M17.9196 28.1249H9.33203V14.5391H13.7815C14.8725 14.5391 15.919 14.9714 16.6919 15.7415C17.4647 16.5115 17.9008 17.5565 17.9048 18.6475V28.1249H17.9196Z" fill="#FABF2A"/>
<path d="M9.33118 12.4178C8.36252 12.4208 7.41477 12.1362 6.60793 11.6002C5.80109 11.0642 5.17144 10.3008 4.79872 9.40669C4.42599 8.5126 4.32695 7.52803 4.51412 6.57762C4.7013 5.62721 5.16628 4.75371 5.85019 4.06772C6.5341 3.38173 7.40618 2.9141 8.35602 2.72405C9.30585 2.53399 10.2907 2.63004 11.1859 3.00005C12.0812 3.37006 12.8464 3.99739 13.3849 4.8026C13.9234 5.60781 14.2108 6.55469 14.2108 7.52336C14.2108 8.81888 13.6972 10.0616 12.7825 10.979C11.8678 11.8965 10.6267 12.4139 9.33118 12.4178Z" fill="#FDDB44"/>
<path d="M9.33203 12.4182V2.64404C10.5816 2.71291 11.7573 3.25781 12.6176 4.16675C13.4778 5.0757 13.9572 6.27963 13.9572 7.5311C13.9572 8.78257 13.4778 9.9865 12.6176 10.8954C11.7573 11.8044 10.5816 12.3493 9.33203 12.4182Z" fill="#FABF2A"/>
<path d="M44.4798 28.1249H27.3047V18.6475C27.3086 17.5565 27.7448 16.5115 28.5176 15.7415C29.2904 14.9714 30.3369 14.5391 31.4279 14.5391H40.3269C41.4179 14.5391 42.4644 14.9714 43.2373 15.7415C44.0101 16.5115 44.4462 17.5565 44.4502 18.6475V28.1249H44.4798Z" fill="#F3785B"/>
<path d="M44.4821 28.1249H35.8945V14.5391H40.3441C41.435 14.5391 42.4815 14.9714 43.2544 15.7415C44.0272 16.5115 44.4633 17.5565 44.4673 18.6475L44.4821 28.1249Z" fill="#F0522F"/>
<path d="M35.8906 12.4179C34.9225 12.4179 33.9762 12.1308 33.1713 11.593C32.3665 11.0552 31.7391 10.2908 31.3687 9.39641C30.9982 8.50206 30.9013 7.51795 31.0901 6.56852C31.279 5.61908 31.7451 4.74697 32.4297 4.06247C33.1142 3.37796 33.9863 2.91181 34.9357 2.72295C35.8851 2.5341 36.8692 2.63103 37.7636 3.00148C38.6579 3.37193 39.4224 3.99927 39.9602 4.80416C40.498 5.60905 40.785 6.55534 40.785 7.52338C40.787 8.16668 40.6617 8.80402 40.4165 9.39873C40.1712 9.99344 39.8107 10.5338 39.3558 10.9887C38.901 11.4435 38.3606 11.804 37.7659 12.0493C37.1712 12.2945 36.5339 12.4198 35.8906 12.4179Z" fill="#F3785B"/>
<path d="M35.8945 12.4182V2.64413C36.559 2.60752 37.2239 2.70677 37.8486 2.93582C38.4734 3.16488 39.0449 3.51893 39.5282 3.97633C40.0115 4.43373 40.3965 4.98488 40.6596 5.5961C40.9226 6.20731 41.0583 6.86576 41.0583 7.53119C41.0583 8.19662 40.9226 8.85507 40.6596 9.46628C40.3965 10.0775 40.0115 10.6286 39.5282 11.0861C39.0449 11.5435 38.4734 11.8975 37.8486 12.1266C37.2239 12.3556 36.559 12.4549 35.8945 12.4182Z" fill="#F0522F"/>
<path d="M31.9958 28.1252H13.293V17.743C13.293 16.5629 13.7618 15.4311 14.5962 14.5967C15.4306 13.7622 16.5624 13.2935 17.7425 13.2935H27.4424C28.6225 13.2935 29.7543 13.7622 30.5887 14.5967C31.4232 15.4311 31.892 16.5629 31.892 17.743V28.1252H31.9958Z" fill="#83C7ED"/>
<path d="M31.9916 28.1252H22.6328V13.2935H27.4383C28.6184 13.2935 29.7501 13.7622 30.5846 14.5967C31.419 15.4311 31.8878 16.5629 31.8878 17.743V28.1252H31.9916Z" fill="#309AD6"/>
<path d="M22.641 11.0242C21.5879 11.0242 20.5584 10.7119 19.6828 10.1268C18.8072 9.54175 18.1247 8.71017 17.7217 7.73723C17.3187 6.76428 17.2133 5.69369 17.4187 4.66082C17.6242 3.62795 18.1313 2.6792 18.8759 1.93454C19.6206 1.18988 20.5694 0.682763 21.6022 0.477313C22.6351 0.271862 23.7057 0.377307 24.6786 0.780313C25.6516 1.18332 26.4832 1.86578 27.0682 2.74141C27.6533 3.61703 27.9656 4.64649 27.9656 5.69959C27.9656 7.11176 27.4046 8.46609 26.4061 9.46465C25.4075 10.4632 24.0532 11.0242 22.641 11.0242Z" fill="#83C7ED"/>
<path d="M22.6328 11.0242V0.375C24.045 0.375 25.3993 0.935982 26.3979 1.93454C27.3964 2.93309 27.9574 4.28742 27.9574 5.69959C27.9574 7.11176 27.3964 8.46609 26.3979 9.46464C25.3993 10.4632 24.045 11.0242 22.6328 11.0242Z" fill="#309AD6"/>
<path d="M0.742188 25.9893V29.1336L7.04567 29.801C7.44458 31.3686 8.0744 32.8682 8.91447 34.2505L4.92474 39.234L9.37425 43.6835L14.2984 39.6938C15.6807 40.5338 17.1803 41.1637 18.7479 41.5626L19.4895 47.8364H25.793L26.4604 41.5329C28.0269 41.1307 29.526 40.5011 30.9099 39.6641L35.8341 43.6538L40.2836 39.2043L36.3383 34.3099C37.1784 32.9275 37.8082 31.428 38.2071 29.8603L44.5106 29.1929V25.9893H0.742188Z" fill="#C8C6CD"/>
<path d="M22.6328 25.9893V47.8364H25.792L26.4594 41.5329C28.0259 41.1307 29.525 40.5011 30.9089 39.6641L35.8331 43.6538L40.2826 39.2043L36.3373 34.3099C37.1774 32.9275 37.8072 31.428 38.2061 29.8603L44.5096 29.1929V25.9893H22.6328Z" fill="#AFAEB4"/>
<path d="M13.293 25.9893C13.3892 28.405 14.4165 30.6897 16.1597 32.3649C17.9029 34.04 20.2268 34.9756 22.6444 34.9756C25.062 34.9756 27.3858 34.04 29.129 32.3649C30.8722 30.6897 31.8996 28.405 31.9958 25.9893H13.293Z" fill="#8C8993"/>
<path d="M22.6328 25.9893V35.3332C25.1124 35.3332 27.4906 34.3493 29.2453 32.5974C31 30.8454 31.9877 28.4688 31.9916 25.9893H22.6328Z" fill="#787881"/>
</svg>
