<svg width="1920" height="1322" viewBox="0 0 1920 1322" fill="none" xmlns="http://www.w3.org/2000/svg">
<g opacity="0.34" clip-path="url(#clip0_1851_50965)">
<rect width="1920" height="1322" fill="#F1F9EF"/>
<path opacity="0.6" d="M2423.01 1852.49C2218.73 1511.55 1779.62 1654.52 1499.34 1212.31C1219.05 770.111 936.495 424.887 749.671 245.297C654.476 153.789 541.142 463.801 254.439 462.641C-21.4213 461.535 -504.475 172.914 -504.475 172.914" stroke="#0FA76F" stroke-miterlimit="10"/>
<path opacity="0.6" d="M2413.66 1857.16C2214.14 1524.12 1781.82 1643.57 1505.6 1211.35C1455.15 1132.47 1399.68 1065.39 1349.65 993.258C1284.83 899.566 1228.6 801.812 1165.22 718.539C1077.36 602.93 990.691 521.565 915.128 436.634C854.774 368.839 800.559 304.912 750.549 257.431C654.995 166.226 540.584 481.545 253.423 477.068C-23.2146 472.646 -496.901 173.744 -504.455 174.96" stroke="#0FA76F" stroke-width="0.98" stroke-miterlimit="10"/>
<path opacity="0.6" d="M2404.32 1861.83C2209.46 1536.73 1784.15 1632.71 1511.84 1210.41C1461.09 1131.7 1400.36 1073.52 1349.99 1001.77C1285.23 908.965 1236.77 802.062 1172 717.38C1083.26 601.08 992.886 539.807 917.144 455.236C856.251 387.551 802.793 317.793 751.428 269.317C655.356 178.665 540.148 499.069 252.389 491.276C-24.9263 483.482 -489.344 174.464 -504.413 176.841" stroke="#0FA76F" stroke-width="0.97" stroke-miterlimit="10"/>
<path opacity="0.6" d="M2394.97 1866.5C2204.95 1549.27 1786.34 1621.88 1518.11 1209.33C1467.07 1130.92 1401.07 1081.67 1350.39 1010.34C1285.63 918.415 1245.01 802.364 1178.75 716.162C1089.18 599.171 995.077 557.963 919.155 473.945C857.725 406.37 805.044 330.671 752.304 281.31C655.813 191.045 539.569 516.673 251.371 505.59C-26.8012 494.535 -481.751 175.346 -504.394 178.939" stroke="#0FA76F" stroke-width="0.95" stroke-miterlimit="10"/>
<path opacity="0.6" d="M2385.62 1871.14C2200.35 1561.91 1788.47 1611.1 1524.37 1208.47C1473.01 1130.15 1401.65 1090.02 1350.77 1018.8C1285.87 927.978 1253.2 802.558 1185.53 714.78C1095.08 597.071 997.27 575.983 921.169 492.462C859.18 424.998 807.317 343.356 753.181 293.139C656.291 203.233 539.051 534.112 250.335 519.768C-28.5951 505.369 -474.157 176.065 -504.374 180.846" stroke="#0FA76F" stroke-width="0.94" stroke-miterlimit="10"/>
<path opacity="0.6" d="M2376.27 1875.81C2195.77 1574.56 1790.57 1600.38 1530.63 1207.51C1478.95 1129.37 1402.33 1098.2 1351.12 1027.31C1286.23 937.43 1261.43 802.806 1192.29 713.674C1101 595.274 999.602 594.031 923.203 511.283C860.815 443.709 809.59 356.318 754.099 305.216C656.75 215.697 538.553 551.828 249.319 534.112C-30.4082 516.424 -466.582 176.949 -504.353 182.947" stroke="#0FA76F" stroke-width="0.92" stroke-miterlimit="10"/>
<path opacity="0.6" d="M2366.92 1880.49C2191.16 1587.11 1792.6 1589.71 1536.89 1206.57C1484.89 1128.63 1402.99 1106.41 1351.52 1035.85C1286.6 946.772 1269.6 803.056 1199.04 712.46C1106.92 593.368 1001.82 612.19 925.176 530.05C862.251 462.559 811.862 369.254 754.936 317.24C657.269 228.08 538.036 569.462 248.283 548.429C-32.2015 527.425 -459.007 177.807 -504.313 184.993" stroke="#0FA76F" stroke-width="0.91" stroke-miterlimit="10"/>
<path opacity="0.6" d="M2357.6 1885.13C2186.58 1599.69 1794.6 1579.1 1543.17 1205.57C1490.83 1127.83 1403.65 1114.56 1351.83 1044.33C1286.91 956.308 1277.76 803.305 1205.76 711.244C1112.82 591.462 1004.01 630.321 927.193 548.789C863.75 481.353 814.159 382.134 755.778 329.29C657.692 240.49 537.501 587.151 247.23 562.802C-34.0313 538.48 -451.469 178.637 -504.329 187.094" stroke="#0FA76F" stroke-width="0.89" stroke-miterlimit="10"/>
<path opacity="0.6" d="M2348.24 1889.8C2181.97 1612.29 1796.54 1568.62 1549.43 1204.6C1496.77 1127.05 1404.34 1122.74 1352.26 1052.87C1287.34 965.759 1286 803.553 1212.57 710.165C1118.73 589.664 1006.22 648.588 929.199 567.499C865.217 500.146 816.424 394.984 756.687 341.311C658.223 252.871 537.015 604.782 246.226 577.117C-35.7929 549.479 -443.862 179.603 -504.276 189.166" stroke="#0FA76F" stroke-width="0.88" stroke-miterlimit="10"/>
<path opacity="0.6" d="M2338.9 1894.47C2177.45 1624.87 1798.44 1557.98 1555.69 1203.53C1502.69 1126.14 1405.02 1130.81 1352.62 1061.28C1287.72 975.074 1294.06 803.886 1219.35 708.701C1124.46 587.786 1008.43 666.499 931.215 585.962C866.715 518.692 818.698 407.588 757.566 353.059C658.723 264.894 536.52 622.14 245.212 591.158C-37.5841 560.204 -436.286 180.185 -504.234 190.936" stroke="#0FA76F" stroke-width="0.86" stroke-miterlimit="10"/>
<path opacity="0.6" d="M2329.55 1899.14C2172.78 1637.47 1800.29 1547.51 1561.94 1202.67C1508.61 1125.51 1405.7 1139.1 1353 1070.01C1288.08 984.747 1302.25 804.383 1226.11 707.706C1130.43 586.1 1010.62 684.877 933.226 604.894C868.188 537.568 820.989 420.522 758.402 365.136C659.18 277.276 535.96 639.855 244.154 605.585C-39.3795 571.286 -428.713 181.207 -504.216 193.091" stroke="#0FA76F" stroke-width="0.85" stroke-miterlimit="10"/>
<path opacity="0.6" d="M2320.2 1903.79C2168.18 1650.07 1802.08 1537.09 1568.2 1201.79C1514.52 1124.82 1406.37 1147.37 1353.37 1078.49C1288.47 994.061 1310.52 804.521 1232.78 706.324C1136.17 584.055 1012.73 702.87 935.139 623.411C869.562 556.279 823.18 433.291 759.218 377.076C659.557 289.519 535.401 657.433 242.977 619.79C-41.3543 582.203 -421.299 181.898 -504.476 195.053" stroke="#0FA76F" stroke-width="0.83" stroke-miterlimit="10"/>
<path opacity="0.6" d="M2310.86 1908.56C2163.62 1662.59 1803.84 1526.72 1574.46 1200.73C1520.45 1123.96 1407.04 1155.46 1353.74 1086.92C1288.86 1003.48 1318.64 804.795 1239.65 705.161C1142.18 582.201 1015.03 721.081 937.236 642.175C871.141 575.126 825.616 446.168 760.199 389.096C660.24 301.844 534.967 675.091 242.124 634.16C-42.9043 593.256 -413.641 182.78 -504.172 197.152" stroke="#0FA76F" stroke-width="0.82" stroke-miterlimit="10"/>
<path opacity="0.6" d="M2301.5 1913.13C2158.99 1675.25 1805.55 1516.41 1580.72 1199.77C1526.37 1123.21 1407.73 1163.65 1354.11 1095.44C1289.23 1012.91 1326.84 805.046 1246.48 703.92C1148.15 580.296 1017.26 739.241 939.325 660.86C872.712 593.894 827.945 459.105 761.152 401.065C660.734 314.117 534.485 692.699 241.104 648.451C-44.8614 604.23 -405.971 183.639 -504.137 199.172" stroke="#0FA76F" stroke-width="0.8" stroke-miterlimit="10"/>
<path opacity="0.6" d="M2292.16 1917.77C2154.41 1687.82 1807.21 1506.16 1586.98 1198.8C1532.27 1122.44 1408.43 1171.83 1354.49 1103.95C1289.61 1022.33 1335.04 805.293 1253.18 702.702C1153.98 578.332 1019.43 757.397 941.261 679.569C874.11 612.686 830.16 471.816 761.873 413.086C661.196 326.386 533.909 710.302 239.991 662.738C-46.6526 615.201 -398.474 184.605 -504.193 201.187" stroke="#0FA76F" stroke-width="0.79" stroke-miterlimit="10"/>
<path opacity="0.6" d="M2282.81 1922.38C2149.8 1700.42 1808.82 1495.93 1593.24 1197.83C1538.16 1121.66 1409.1 1179.98 1354.87 1112.49C1290.01 1031.76 1343.23 805.708 1259.93 701.486C1159.89 576.508 1021.62 775.555 943.271 698.252C875.502 631.48 832.449 484.613 762.826 425.053C661.79 338.741 533.467 727.908 239.051 677.027C-48.37 626.173 -390.823 185.296 -504.097 203.316" stroke="#0FA76F" stroke-width="0.77" stroke-miterlimit="10"/>
<path opacity="0.6" d="M2273.46 1927.11C2145.2 1713.03 1810.42 1485.71 1599.54 1196.87C1544.07 1120.89 1409.8 1188.16 1355.23 1120.89C1290.41 1041.07 1351.42 805.819 1266.71 700.16C1165.8 574.491 1023.82 793.604 945.286 716.743C877.059 650.053 834.743 497.216 763.705 436.828C662.331 350.653 532.971 745.293 238.016 691.095C-50.1618 637.229 -383.247 186.126 -504.075 205.251" stroke="#0FA76F" stroke-width="0.76" stroke-miterlimit="10"/>
<path opacity="0.6" d="M2264.13 1931.78C2140.56 1725.6 1811.96 1475.76 1605.78 1195.9C1549.97 1120.17 1410.44 1196.34 1355.61 1129.57C1290.79 1050.64 1359.6 806.207 1273.47 699.111C1171.82 572.723 1026.01 811.956 947.302 735.703C878.516 669.096 837.057 510.29 764.564 449.072C662.911 363.174 532.455 763.175 237.002 705.661C-52.0133 648.174 -375.671 187.011 -504.033 207.352" stroke="#0FA76F" stroke-width="0.74" stroke-miterlimit="10"/>
<path opacity="0.6" d="M2254.79 1936.42C2136.01 1738.21 1813.43 1465.64 1612.04 1194.93C1555.85 1119.42 1411.18 1204.49 1355.99 1138.02C1291.19 1060 1367.83 806.371 1280.25 697.838C1177.66 570.704 1028.23 830.057 949.377 754.357C880.053 687.833 839.412 523.029 765.503 461.01C663.451 375.333 532.019 780.723 236.027 719.893C-53.6854 659.09 -368.034 187.783 -503.951 209.313" stroke="#0FA76F" stroke-width="0.73" stroke-miterlimit="10"/>
<path opacity="0.6" d="M2245.34 1941.1C2131.32 1750.81 1814.8 1455.64 1618.19 1193.96C1561.67 1118.68 1411.88 1212.65 1356.36 1146.54C1291.61 1069.4 1376.04 806.594 1287.02 696.623C1183.55 568.854 1030.42 848.244 951.325 773.042C881.563 706.711 841.699 535.799 766.335 472.979C663.944 387.578 531.456 798.33 234.966 734.183C-55.5242 670.091 -360.485 188.641 -503.976 211.36" stroke="#0FA76F" stroke-width="0.71" stroke-miterlimit="10"/>
<path opacity="0.6" d="M2236.09 1945.77C2126.82 1763.36 1816.28 1445.69 1624.55 1193C1567.65 1117.93 1412.57 1220.8 1356.72 1155.05C1291.98 1078.82 1384.23 806.814 1293.76 695.406C1189.45 566.946 1032.65 866.401 953.319 791.751C882.938 725.421 843.951 548.539 767.193 484.972C664.463 399.82 530.938 815.934 233.91 748.471C-57.3377 681.062 -352.93 189.497 -503.976 213.376" stroke="#0FA76F" stroke-width="0.7" stroke-miterlimit="10"/>
<path opacity="0.6" d="M2226.74 1950.44C2122.23 1775.99 1817.63 1435.79 1630.77 1192.03C1573.42 1117.21 1413.23 1228.98 1357.06 1163.56C1292.34 1088.22 1392.38 807.035 1300.49 694.19C1195.33 565.011 1034.74 884.587 955.29 810.434C884.352 744.242 846.222 561.391 768.028 496.967C665 412.036 530.418 833.457 232.892 762.787C-59.1331 692.034 -345.358 190.299 -503.937 215.559" stroke="#0FA76F" stroke-width="0.68" stroke-miterlimit="10"/>
<path opacity="0.6" d="M2217.43 1955.08C2117.77 1788.56 1818.99 1425.95 1637.11 1191.06C1579.31 1116.44 1414.01 1237.13 1357.52 1172.07C1292.84 1097.62 1400.68 807.255 1307.33 692.973C1201.34 563.076 1037.02 902.771 957.387 829.145C885.91 763.035 848.617 574.159 768.989 508.933C665.581 424.251 529.963 851.144 231.899 777.02C-60.8837 702.951 -337.74 191.099 -503.874 217.383" stroke="#0FA76F" stroke-width="0.67" stroke-miterlimit="10"/>
<path opacity="0.6" d="M2208.04 1959.75C2113.05 1801.17 1820.25 1416.17 1643.39 1189.98C1585.23 1115.67 1414.73 1245.26 1357.9 1180.5C1293.26 1106.91 1408.89 807.395 1314.05 691.648C1207.2 561.087 1039.15 920.848 959.26 847.719C887.225 781.72 850.79 586.818 769.726 520.819C665.979 436.331 529.305 868.64 230.742 791.255C-62.7975 713.98 -330.207 191.958 -503.895 219.485" stroke="#0FA76F" stroke-width="0.65" stroke-miterlimit="10"/>
<path opacity="0.6" d="M2198.69 1964.42C2108.44 1813.77 1821.48 1406.44 1649.58 1189.13C1591 1115.09 1415.36 1253.41 1358.22 1189.13C1293.6 1116.41 1417.04 807.726 1320.82 690.542C1213.19 559.263 1041.34 939.282 961.369 866.54C888.797 800.651 853.198 599.697 770.699 532.897C666.713 448.657 528.903 886.356 229.802 805.654C-64.5352 724.951 -322.636 192.814 -503.858 221.502" stroke="#0FA76F" stroke-width="0.64" stroke-miterlimit="10"/>
<path opacity="0.6" d="M2189.35 1969.06C2103.84 1826.34 1822.6 1396.77 1655.85 1188.16C1596.85 1114.39 1416.06 1261.57 1358.6 1197.64C1294.02 1125.78 1425.25 807.947 1327.58 689.326C1219.03 557.355 1043.51 957.412 963.385 885.222C890.254 819.444 855.512 612.465 771.578 544.891C667.174 460.844 528.407 903.96 228.788 819.942C-66.3266 735.951 -315.059 193.643 -503.836 223.547" stroke="#0FA76F" stroke-width="0.62" stroke-miterlimit="10"/>
<path opacity="0.6" d="M2180 1973.74C2099.25 1838.95 1823.83 1387.15 1662.1 1187.22C1602.67 1113.71 1416.78 1269.72 1358.96 1206.15C1294.42 1135.18 1433.44 808.17 1334.36 688.111C1224.95 555.45 1045.7 975.544 965.377 903.934C891.727 838.267 857.843 625.235 772.454 556.887C667.731 473.034 527.887 921.706 227.75 834.232C-68.122 746.924 -307.486 194.473 -503.758 225.566" stroke="#0FA76F" stroke-width="0.61" stroke-miterlimit="10"/>
<path opacity="0.6" d="M2170.67 1978.41C2094.65 1851.52 1824.95 1377.59 1668.38 1186.25C1608.49 1113.04 1417.48 1277.84 1359.44 1214.66C1294.94 1144.57 1441.76 808.389 1341.22 686.783C1230.97 553.403 1047.98 993.562 967.491 922.533C893.284 856.977 860.257 637.864 773.433 568.77C668.371 485.138 527.491 939.116 226.835 848.436C-69.9137 757.895 -299.99 195.301 -503.795 227.582" stroke="#0FA76F" stroke-width="0.59" stroke-miterlimit="10"/>
<path opacity="0.6" d="M2161.32 1983.19C2090.07 1864.35 1826.05 1368.19 1674.64 1185.4C1614.29 1112.4 1418.16 1286 1359.72 1223.15C1295.26 1154.06 1450.05 808.583 1347.88 685.65C1236.99 551.276 1050.07 1011.78 969.406 941.327C894.64 875.881 862.47 650.716 774.211 580.848C668.83 497.41 526.874 956.721 225.7 862.753C-71.7069 768.785 -292.315 196.075 -503.814 229.572" stroke="#0FA76F" stroke-width="0.58" stroke-miterlimit="10"/>
<path opacity="0.6" d="M2151.97 1987.72C2085.46 1876.73 1827.08 1358.57 1680.9 1184.46C1620.07 1111.91 1418.89 1294.26 1359.99 1231.83C1295.57 1163.45 1458.14 808.97 1354.55 684.6C1242.79 549.534 1052.14 1030.27 971.318 960.176C896.014 894.868 864.701 663.65 774.987 592.981C669.347 509.763 526.274 974.547 224.582 877.263C-73.5022 779.839 -284.742 196.959 -503.736 231.645" stroke="#0FA76F" stroke-width="0.56" stroke-miterlimit="10"/>
<path opacity="0.6" d="M2142.63 1992.39C2080.88 1889.22 1828.1 1349.26 1687.24 1183.35C1625.93 1111.16 1419.69 1302.19 1360.53 1240.2C1296.17 1172.71 1466.51 809.051 1361.49 683.216C1248.89 547.459 1054.53 1048.31 973.51 978.719C897.649 913.521 867.193 676.224 776.043 604.808C670.024 521.756 525.935 991.985 223.725 891.411C-75.2562 790.81 -277.089 197.704 -503.637 233.633" stroke="#0FA76F" stroke-width="0.55" stroke-miterlimit="10"/>
<path opacity="0.6" d="M2133.27 1997.01C2076.27 1901.85 1829.07 1339.86 1693.41 1182.33C1631.62 1110.47 1420.34 1310.32 1360.83 1248.66C1296.5 1182 1474.64 809.219 1368.18 681.92C1254.71 545.472 1056.6 1066.44 975.518 997.322C899.099 932.262 869.52 688.857 776.915 616.722C670.558 533.809 525.432 1009.51 222.803 905.62C-76.9354 801.702 -269.519 198.563 -503.522 235.625" stroke="#0FA76F" stroke-width="0.53" stroke-miterlimit="10"/>
<path opacity="0.6" d="M2123.93 2001.71C2071.67 1914.51 1830.03 1330.63 1699.68 1181.42C1637.33 1110.06 1421.02 1318.5 1361.21 1257.25C1296.93 1191.42 1482.79 809.523 1374.94 680.786C1260.69 543.62 1058.78 1084.71 977.456 1016.12C900.478 951.167 871.816 701.681 777.717 628.772C671.04 546.108 524.838 1027.2 221.611 919.991C-78.9048 812.784 -262.12 199.475 -503.658 237.753" stroke="#0FA76F" stroke-width="0.52" stroke-miterlimit="10"/>
<path opacity="0.6" d="M2114.58 2006.38C2067.08 1927.08 1830.93 1321.4 1705.97 1180.45C1643.09 1109.53 1421.78 1326.62 1361.61 1265.77C1297.39 1200.79 1491.07 809.744 1381.74 679.57C1266.55 541.713 1060.95 1102.92 979.45 1034.8C901.914 969.987 874.009 714.421 778.594 640.766C671.599 558.268 524.341 1044.8 220.496 934.279C-80.7775 823.728 -254.525 200.303 -503.716 239.77" stroke="#0FA76F" stroke-width="0.5" stroke-miterlimit="10"/>
<path opacity="0.6" d="M2105.23 2011.05C2062.48 1939.69 1831.83 1312.25 1712.19 1179.48C1648.75 1109.06 1422.46 1334.75 1361.95 1274.28C1297.77 1210.16 1499.24 809.966 1388.48 678.355C1272.45 539.807 1063.13 1121.14 981.463 1053.51C903.389 988.837 876.441 727.135 779.472 652.762C672.157 570.457 523.823 1062.44 219.54 948.486C-82.4914 834.646 -246.871 201.051 -503.616 241.734" stroke="#0FA76F" stroke-width="0.49" stroke-miterlimit="10"/>
<path opacity="0.6" d="M2095.85 2015.72C2057.97 1952.26 1832.74 1303.13 1718.45 1178.51C1654.43 1108.65 1423.18 1342.85 1362.34 1282.79C1298.2 1219.5 1507.45 810.186 1395.25 677.138C1278.37 537.899 1065.36 1139.35 983.476 1072.19C904.844 1007.57 878.773 739.848 780.328 664.867C672.695 582.727 523.204 1080.15 218.502 962.995C-84.3058 845.839 -239.298 202.1 -503.617 243.971" stroke="#0FA76F" stroke-width="0.47" stroke-miterlimit="10"/>
<path opacity="0.6" d="M2086.56 2020.36C2053.29 1964.86 1833.42 1294.1 1724.71 1177.41C1660.07 1108.15 1423.9 1350.84 1362.71 1291.17C1298.56 1228.87 1515.64 810.462 1402.01 675.922C1284.29 535.964 1067.47 1157.56 985.431 1090.9C906.24 1026.51 881.046 752.561 781.167 676.723C673.294 594.75 522.807 1097.62 217.487 977.173C-86.0784 856.7 -231.702 202.846 -503.556 245.878" stroke="#0FA76F" stroke-width="0.46" stroke-miterlimit="10"/>
<path opacity="0.6" d="M2077.21 2025.03C2048.71 1977.47 1834.32 1285.11 1730.99 1176.55C1665.67 1107.96 1424.63 1358.96 1363.06 1299.79C1299.04 1238.19 1523.84 810.602 1408.77 674.679C1290.19 534.031 1069.64 1175.75 987.504 1109.56C907.776 1045.3 883.438 765.248 782.104 688.664C673.853 606.828 522.309 1115.36 216.471 991.435C-87.872 867.646 -224.128 203.76 -503.536 247.98" stroke="#0FA76F" stroke-width="0.44" stroke-miterlimit="10"/>
<path opacity="0.6" d="M2067.94 2029.7C2044.02 1990.04 1835.1 1276.21 1737.25 1175.61C1671.26 1107.76 1425.35 1367.17 1363.44 1308.27C1299.48 1247.47 1532.05 810.795 1415.53 673.407C1296.11 532.206 1071.82 1194.02 989.518 1128.3C909.212 1064.18 885.771 777.989 782.982 700.796C674.412 619.154 521.871 1132.94 215.436 1005.83C-89.6648 878.7 -216.552 204.588 -503.515 250.025" stroke="#0FA76F" stroke-width="0.43" stroke-miterlimit="10"/>
<path opacity="0.6" d="M2058.51 2034.34C2039.5 2002.53 1835.85 1267.37 1743.51 1174.64C1676.77 1107.65 1426.13 1375.16 1363.82 1316.87C1299.9 1256.89 1540.24 811.097 1422.3 672.272C1302.03 530.242 1073.91 1212.42 991.607 1146.98C910.663 1083.19 888.179 790.672 783.935 712.651C674.966 631.175 521.21 1150.43 214.415 1020.01C-91.4627 889.616 -208.982 205.305 -503.479 251.957" stroke="#0FA76F" stroke-width="0.41" stroke-miterlimit="10"/>
<path opacity="0.6" d="M2049.16 2039.02C2034.91 2015.25 1836.61 1258.58 1749.76 1173.68C1682.25 1107.68 1426.8 1383.45 1364.18 1325.41C1300.4 1266.26 1548.45 811.346 1429.06 671.084C1307.93 528.335 1076.1 1230.61 993.601 1165.69C912.098 1102.12 890.612 803.11 784.792 724.646C675.704 643.06 520.852 1168.04 213.439 1034.33C-93.2758 900.588 -201.407 206.079 -503.458 253.976" stroke="#0FA76F" stroke-width="0.4" stroke-miterlimit="10"/>
<path opacity="0.6" d="M2039.82 2043.69C2030.31 2027.82 1837.37 1249.9 1756.03 1172.71C1687.66 1107.85 1427.58 1391.33 1364.56 1333.89C1300.78 1275.44 1556.64 811.707 1435.84 669.814C1313.85 526.402 1078.29 1248.77 995.596 1184.46C913.576 1120.89 892.926 815.963 785.672 736.725C676.244 655.36 520.336 1185.73 212.425 1048.7C-95.0676 911.562 -193.831 206.993 -503.436 256.022" stroke="#0FA76F" stroke-width="0.38" stroke-miterlimit="10"/>
<path opacity="0.6" d="M2030.47 2048.36C2025.72 2040.43 1838.1 1241.33 1762.28 1171.74C1692.98 1108.18 1428.28 1399.45 1364.93 1342.41C1301.15 1284.84 1564.83 811.955 1442.67 668.598C1319.75 524.495 1080.48 1266.96 997.586 1203.08C915.027 1139.52 895.195 828.676 786.505 748.609C676.68 667.631 519.774 1203.28 211.325 1062.85C-97.1238 922.423 -186.26 207.821 -503.419 258.039" stroke="#0FA76F" stroke-width="0.37" stroke-miterlimit="10"/>
<path opacity="0.6" d="M2021.12 2053C2021.12 2053 1838.86 1232.74 1768.54 1170.77C1698.22 1108.81 1428.98 1407.6 1365.3 1350.92C1301.61 1294.23 1573.05 812.202 1449.35 667.381C1325.65 522.559 1082.68 1285.14 999.582 1221.77C916.485 1158.39 897.49 841.443 787.365 760.603C677.24 679.762 519.219 1220.88 210.271 1077.19C-98.676 933.505 -178.663 208.649 -503.297 260.083" stroke="#0FA76F" stroke-width="0.35" stroke-miterlimit="10"/>
</g>
<defs>
<clipPath id="clip0_1851_50965">
<rect width="1920" height="1322" fill="white"/>
</clipPath>
</defs>
</svg>
