<svg width="48" height="44" viewBox="0 0 48 44" fill="none" xmlns="http://www.w3.org/2000/svg">
<path d="M2.06556 32.2781C2.06978 32.393 2.04939 32.5075 2.00575 32.6139C1.96211 32.7202 1.89623 32.816 1.81253 32.8949C1.73357 32.9729 1.63961 33.0342 1.53633 33.075C1.43305 33.1157 1.32258 33.1352 1.21159 33.1321C0.98794 33.1348 0.772167 33.0496 0.610647 32.8949C0.532119 32.813 0.470697 32.7163 0.429968 32.6104C0.389239 32.5045 0.37002 32.3915 0.373434 32.2781C0.370354 32.1671 0.389785 32.0567 0.430553 31.9534C0.471322 31.8501 0.532585 31.7561 0.610647 31.6772C0.687684 31.5955 0.780928 31.5308 0.884408 31.4872C0.987889 31.4436 1.09933 31.4222 1.21159 31.4241C1.32413 31.4201 1.43619 31.4407 1.53997 31.4844C1.64375 31.5281 1.73676 31.5939 1.81253 31.6772C1.89584 31.7529 1.96163 31.8459 2.00533 31.9497C2.04903 32.0535 2.06958 32.1656 2.06556 32.2781ZM0.594833 32.2781C0.589669 32.3649 0.602451 32.4518 0.632381 32.5334C0.662312 32.6151 0.708747 32.6897 0.76879 32.7525C0.825514 32.813 0.894136 32.8611 0.970341 32.8937C1.04655 32.9264 1.12868 32.9429 1.21159 32.9423C1.29714 32.9452 1.38231 32.9297 1.4614 32.897C1.5405 32.8643 1.61168 32.815 1.6702 32.7525C1.78375 32.6206 1.8462 32.4522 1.8462 32.2781C1.8462 32.104 1.78375 31.9357 1.6702 31.8037C1.54513 31.6893 1.38106 31.6271 1.21159 31.6297C1.04728 31.6295 0.889016 31.6917 0.76879 31.8037C0.708747 31.8666 0.662312 31.9411 0.632381 32.0228C0.602451 32.1044 0.589669 32.1913 0.594833 32.2781ZM3.64698 31.6614V33.1005H3.4414V31.6614H2.98279V31.4558H4.1056V31.6614H3.64698ZM5.71865 31.6614V33.1005H5.51307V31.6614H5.11771V31.4558H6.24052V31.6614H5.71865ZM9.3243 33.1321C9.21035 33.139 9.09623 33.1217 8.98948 33.0812C8.88274 33.0407 8.7858 32.9781 8.70507 32.8973C8.62435 32.8166 8.56168 32.7197 8.52122 32.6129C8.48075 32.5062 8.46341 32.3921 8.47033 32.2781C8.46725 32.1671 8.48668 32.0567 8.52745 31.9534C8.56822 31.8501 8.62948 31.7561 8.70755 31.6772C8.78588 31.5944 8.88027 31.5284 8.98496 31.4834C9.08964 31.4383 9.20242 31.415 9.3164 31.415C9.43037 31.415 9.54315 31.4383 9.64783 31.4834C9.75252 31.5284 9.84691 31.5944 9.92524 31.6772L9.7671 31.8195C9.71475 31.7527 9.64734 31.6993 9.57038 31.6636C9.49342 31.6278 9.4091 31.6108 9.3243 31.6139C9.15484 31.6113 8.99077 31.6735 8.86569 31.7879C8.74563 31.9167 8.67887 32.0862 8.67887 32.2623C8.67887 32.4384 8.74563 32.6079 8.86569 32.7367C8.92357 32.8064 8.99608 32.8625 9.07808 32.901C9.16007 32.9394 9.24954 32.9594 9.34012 32.9594C9.43069 32.9594 9.52016 32.9394 9.60216 32.901C9.68415 32.8625 9.75667 32.8064 9.81454 32.7367L9.97269 32.8949C9.89231 32.9856 9.79579 33.0607 9.68803 33.1163C9.569 33.1454 9.44541 33.1507 9.3243 33.1321ZM12.6453 32.2781C12.6487 32.3915 12.6295 32.5045 12.5888 32.6104C12.548 32.7163 12.4866 32.813 12.4081 32.8949C12.2466 33.0496 12.0308 33.1348 11.8071 33.1321C11.6961 33.1352 11.5857 33.1157 11.4824 33.075C11.3791 33.0342 11.2852 32.9729 11.2062 32.8949C11.1225 32.816 11.0566 32.7202 11.013 32.6139C10.9693 32.5075 10.9489 32.393 10.9532 32.2781C10.9572 32.0529 11.0485 31.838 11.2078 31.6788C11.3671 31.5195 11.5819 31.4282 11.8071 31.4241C11.9194 31.4222 12.0308 31.4436 12.1343 31.4872C12.2378 31.5308 12.331 31.5955 12.4081 31.6772C12.4861 31.7561 12.5474 31.8501 12.5882 31.9534C12.6289 32.0567 12.6484 32.1671 12.6453 32.2781ZM11.1746 32.2781C11.1711 32.4525 11.2331 32.6218 11.3485 32.7525C11.407 32.815 11.4782 32.8643 11.5573 32.897C11.6364 32.9297 11.7216 32.9452 11.8071 32.9423C11.89 32.9429 11.9722 32.9264 12.0484 32.8937C12.1246 32.8611 12.1932 32.813 12.2499 32.7525C12.3635 32.6206 12.4259 32.4522 12.4259 32.2781C12.4259 32.104 12.3635 31.9357 12.2499 31.8037C12.1297 31.6917 11.9714 31.6295 11.8071 31.6297C11.6377 31.6271 11.4736 31.6893 11.3485 31.8037C11.2331 31.9344 11.1711 32.1038 11.1746 32.2781ZM13.9421 33.1005H13.7365V31.519H13.9421L14.5114 32.5153H14.6063L15.1756 31.519H15.397V33.1005H15.0965V31.8511L14.6063 32.7525H14.4639L13.9421 31.8511V33.1005ZM16.6937 33.1005H16.4882V31.519H16.6937L17.2631 32.5153L17.8324 31.519H18.038V33.1005H17.8324V31.8511L17.3105 32.7525H17.184L16.6779 31.8511V33.1005H16.6937ZM19.8566 33.1005C19.7747 33.1041 19.693 33.0905 19.6167 33.0605C19.5404 33.0305 19.4713 32.9849 19.4138 32.9265C19.3566 32.8623 19.313 32.7871 19.2859 32.7056C19.2587 32.624 19.2484 32.5377 19.2557 32.4521V31.4241H19.3505V32.4679C19.3458 32.5254 19.3531 32.5833 19.3722 32.6378C19.3913 32.6923 19.4216 32.7422 19.4612 32.7842C19.4956 32.8259 19.5392 32.8591 19.5886 32.8811C19.638 32.903 19.6919 32.9132 19.7459 32.9107C19.802 32.9112 19.8575 32.9002 19.9092 32.8785C19.9609 32.8567 20.0076 32.8246 20.0464 32.7842C20.1148 32.6935 20.1485 32.5813 20.1413 32.4679V31.4241H20.3627V32.4521C20.3669 32.5388 20.3537 32.6254 20.3238 32.7069C20.2939 32.7884 20.248 32.8631 20.1887 32.9265C20.1413 32.987 20.0815 33.0367 20.0133 33.0722C19.9451 33.1076 19.8701 33.1281 19.7933 33.1321L19.8566 33.1005ZM21.8176 33.1005H21.612V31.519H21.865L22.6557 32.8V31.519H22.8771V33.1005H22.6557L21.8176 31.7562V33.1005ZM24.253 33.1005H24.0474V31.519H24.253V33.1005ZM25.9925 31.6614V33.1005H25.6762V31.6614H25.2176V31.4558H26.3563V31.6614H25.9925ZM28.1275 32.3414V33.1005H27.9219V32.3888L27.2577 31.4558H27.5107L27.9061 32.12L28.3014 31.4558H28.5544L28.1275 32.3414ZM31.2903 32.4363V33.1005H31.0689V31.519H31.6382C31.7733 31.5176 31.9037 31.5686 32.0019 31.6614C32.0474 31.7071 32.0834 31.7614 32.1078 31.8211C32.1322 31.8808 32.1446 31.9448 32.1443 32.0093C32.1465 32.074 32.1349 32.1385 32.1104 32.1985C32.0859 32.2584 32.0489 32.3125 32.0019 32.3572C31.9037 32.4499 31.7733 32.5009 31.6382 32.4995L31.2903 32.4363ZM31.2903 31.6614V32.2307H31.6382C31.7046 32.2548 31.7774 32.2548 31.8438 32.2307C31.8961 32.175 31.9251 32.1015 31.9251 32.0251C31.9251 31.9487 31.8961 31.8752 31.8438 31.8195C31.7878 31.7681 31.7143 31.7398 31.6382 31.7404L31.2903 31.6614ZM34.1369 33.1005H33.2038V31.519H33.4252V32.9581H34.1369V33.1005ZM35.2913 33.1005H35.0541L35.6708 31.519H35.9081L36.5248 33.1005H36.3034L36.1453 32.6577H35.4495L35.2913 33.1005ZM35.7816 31.7246L35.5127 32.4521H36.0662L35.7974 31.7246H35.7816ZM37.9797 31.7246V33.1637H37.7583V31.7246H37.2206V31.519H38.3276V31.7246H37.9797ZM39.7035 32.4679V33.1637H39.4979V31.5823H40.4626V31.7879H39.7035V32.3256H40.3835V32.3888L39.7035 32.4679ZM43.0719 32.2781C43.0753 32.3915 43.0561 32.5045 43.0154 32.6104C42.9747 32.7163 42.9132 32.813 42.8347 32.8949C42.6732 33.0496 42.4574 33.1348 42.2338 33.1321C42.1228 33.1352 42.0123 33.1157 41.909 33.075C41.8057 33.0342 41.7118 32.9729 41.6328 32.8949C41.5491 32.816 41.4832 32.7202 41.4396 32.6139C41.396 32.5075 41.3756 32.393 41.3798 32.2781C41.3839 32.0529 41.4751 31.838 41.6344 31.6788C41.7937 31.5195 42.0085 31.4282 42.2338 31.4241C42.346 31.4222 42.4575 31.4436 42.5609 31.4872C42.6644 31.5308 42.7577 31.5955 42.8347 31.6772C42.9128 31.7561 42.974 31.8501 43.0148 31.9534C43.0556 32.0567 43.075 32.1671 43.0719 32.2781ZM41.6012 32.2781C41.5977 32.4525 41.6598 32.6218 41.7752 32.7525C41.8337 32.815 41.9049 32.8643 41.984 32.897C42.063 32.9297 42.1482 32.9452 42.2338 32.9423C42.3167 32.9429 42.3988 32.9264 42.475 32.8937C42.5512 32.8611 42.6198 32.813 42.6766 32.7525C42.7901 32.6206 42.8526 32.4522 42.8526 32.2781C42.8526 32.104 42.7901 31.9357 42.6766 31.8037C42.5563 31.6917 42.3981 31.6295 42.2338 31.6297C42.0643 31.6271 41.9002 31.6893 41.7752 31.8037C41.6482 31.9295 41.5746 32.0994 41.5696 32.2781H41.6012ZM44.3687 33.1005H44.1631V31.519H44.6533C44.7884 31.5176 44.9188 31.5686 45.0171 31.6614C45.064 31.706 45.101 31.7601 45.1255 31.8201C45.1501 31.88 45.1616 31.9445 45.1594 32.0093C45.162 32.0642 45.1535 32.1191 45.1345 32.1707C45.1155 32.2223 45.0863 32.2696 45.0487 32.3097C44.9747 32.3964 44.875 32.4574 44.764 32.4837L45.2227 33.1479H44.9696L44.6533 32.3888H44.3371L44.3687 33.1005ZM44.3687 31.6614V32.2465H44.6533C44.7368 32.2453 44.8164 32.2112 44.8747 32.1516C44.9262 32.0955 44.9544 32.0221 44.9538 31.946C44.9559 31.9081 44.9499 31.8702 44.9363 31.8347C44.9227 31.7993 44.9017 31.7672 44.8747 31.7404C44.8187 31.689 44.7452 31.6607 44.6692 31.6614H44.3687ZM46.5511 33.1005H46.2348V31.519H46.4562L47.0255 32.5153L47.5948 31.519H47.8162V33.1005H47.6581V31.8511L47.152 32.7525H47.0255L46.5194 31.8511V33.1005H46.5511Z" fill="url(#paint0_linear_1962_4918)"/>
<path d="M47.7367 35.3623H0.373047V43.9494H47.7367V35.3623Z" fill="url(#paint1_linear_1962_4918)"/>
<path d="M47.8153 0.760742V1.02958C47.8449 2.024 47.4813 2.98999 46.8032 3.71801C46.407 4.07127 45.9439 4.34147 45.4413 4.5126C44.9388 4.68372 44.4071 4.75231 43.8776 4.71431C43.3626 4.75126 42.8456 4.68188 42.3586 4.51049C41.8716 4.33909 41.4251 4.06934 41.0468 3.71801C40.6883 3.36778 40.4029 2.94972 40.2075 2.48818C40.012 2.02663 39.9102 1.53081 39.9082 1.02958V0.760742H42.4859C42.4871 1.07453 42.563 1.38351 42.7073 1.66215C42.8497 1.89937 43.1976 2.02588 43.7353 2.0417C43.9243 2.06843 44.1169 2.05092 44.2981 1.99055C44.4792 1.93018 44.6438 1.82859 44.779 1.69378C44.9867 1.42379 45.1129 1.10007 45.1427 0.760742V0.760742H47.8153Z" fill="url(#paint2_linear_1962_4918)"/>
<path d="M17.7736 4.73012L19.9718 2.45287L19.8137 2.21565C19.3573 1.77482 18.8204 1.42584 18.2323 1.18773C17.6182 0.91916 16.9572 0.774075 16.2871 0.760742V3.92359C16.5348 3.91527 16.7816 3.95722 17.0126 4.04692C17.2437 4.13661 17.4541 4.27219 17.6313 4.44546C17.6897 4.53445 17.7375 4.62999 17.7736 4.73012Z" fill="url(#paint3_linear_1962_4918)"/>
<path d="M17.9291 14.5505C17.804 14.7055 17.6544 14.839 17.4863 14.9459C16.9201 15.3237 16.2775 15.572 15.6044 15.6734C15.8636 15.102 15.9983 14.4821 15.9998 13.8547V5.58385C16.0015 4.94405 15.8779 4.31011 15.6361 3.71777C15.3917 3.14703 15.0431 2.62682 14.6081 2.18379C14.2028 1.74047 13.7065 1.38985 13.1532 1.15586C12.5658 0.894745 11.93 0.760047 11.2871 0.760507C10.1089 0.741122 8.97122 1.19051 8.12429 2.00983C7.69671 1.64526 7.21697 1.34675 6.701 1.12424C6.20272 0.900729 5.66544 0.777153 5.11958 0.760507C4.45518 0.748454 3.79634 0.883462 3.19024 1.15586C2.63153 1.3883 2.12979 1.73898 1.71951 2.18379C1.2915 2.64104 0.958267 3.17852 0.739029 3.76522C0.503177 4.34276 0.379726 4.96002 0.375301 5.58385V13.8547C0.348747 14.6762 0.557228 15.4882 0.976243 16.1952C1.35651 16.8512 1.90168 17.3964 2.55767 17.7766C3.37042 18.146 4.23401 18.3912 5.11958 18.5041C6.16558 18.6697 7.22343 18.749 8.28243 18.7413C8.93081 18.7413 9.50013 18.7413 10.0062 18.7413C10.494 18.6934 10.976 18.5981 11.4453 18.4567C11.8565 18.5357 12.2992 18.599 12.7895 18.6464C13.2797 18.6939 13.7858 18.6464 14.3709 18.6464C16.3618 18.8121 18.3452 18.2503 19.9534 17.065L17.9291 14.5505ZM4.43957 15.0882C4.18867 14.988 3.97107 14.8191 3.81166 14.601C3.65224 14.3828 3.55746 14.1242 3.53815 13.8547V5.58385C3.544 5.17102 3.69519 4.77345 3.96514 4.46104C4.09506 4.27969 4.26957 4.13491 4.47181 4.04072C4.67404 3.94653 4.89715 3.90611 5.11958 3.92336C5.33235 3.92047 5.54317 3.96428 5.73717 4.05172C5.93117 4.13916 6.10363 4.26808 6.24239 4.42941C6.3928 4.58092 6.51097 4.76131 6.58979 4.95972C6.66861 5.15813 6.70644 5.37044 6.701 5.58385V13.491C6.70342 13.8748 6.75119 14.257 6.84333 14.6296C6.93822 15.0408 7.04892 15.4045 7.15962 15.7366C6.21775 15.7117 5.29139 15.4909 4.43957 15.0882ZM12.8527 13.8231C12.8403 14.1634 12.7183 14.4907 12.5048 14.7561C12.359 14.935 12.179 15.083 11.9754 15.1916C11.7717 15.3002 11.5485 15.3672 11.3188 15.3887C10.8947 15.3001 10.5049 15.0915 10.196 14.7878C9.96912 14.5312 9.85014 14.1969 9.86385 13.8547V5.6313C9.86121 5.20263 10.0128 4.78729 10.2908 4.46104C10.407 4.30356 10.5566 4.1737 10.7288 4.08075C10.9011 3.9878 11.0917 3.93405 11.2871 3.92336C11.5006 3.9159 11.7129 3.95766 11.9076 4.04542C12.1023 4.13317 12.2742 4.26456 12.41 4.42941C12.6906 4.73653 12.8482 5.13625 12.8527 5.55223V13.8231Z" fill="url(#paint4_linear_1962_4918)"/>
<path d="M42.108 5.74215V13.8865C42.107 14.1081 42.05 14.3258 41.9421 14.5194C41.8343 14.7129 41.6792 14.876 41.4913 14.9935C40.9157 15.3674 40.27 15.6203 39.5936 15.7368C39.8407 15.1417 39.9489 14.4981 39.9099 13.8549V5.50494C39.9116 4.86514 39.788 4.23119 39.5461 3.63886C39.3269 3.05216 38.9937 2.51469 38.5657 2.05743C38.1495 1.61227 37.6425 1.26172 37.0791 1.0295C36.4665 0.809569 35.8151 0.718057 35.1656 0.760662C33.9874 0.741277 32.8497 1.19066 32.0027 2.00999C31.583 1.64275 31.108 1.34389 30.5953 1.12439C30.0921 0.89886 29.5492 0.775239 28.998 0.760662C28.3561 0.753311 27.72 0.882692 27.1319 1.1402C26.5789 1.37462 26.0827 1.72518 25.677 2.16813C25.249 2.62539 24.9158 3.16286 24.6966 3.74956C24.463 4.30632 24.3344 4.90143 24.317 5.50494V13.8549C24.2882 14.6737 24.5029 15.4827 24.9338 16.1796C25.3191 16.8112 25.8647 17.3295 26.5152 17.6819C27.3037 18.0725 28.1457 18.3443 29.0138 18.4884C30.0594 18.6593 31.1173 18.744 32.1767 18.7415C32.8093 18.7415 33.3786 18.7415 33.8846 18.7415C34.3748 18.7076 34.8615 18.6335 35.3395 18.5201C35.7507 18.5201 36.1935 18.6466 36.6838 18.694C37.174 18.7415 37.6801 18.694 38.2652 18.694C42.9251 18.694 45.2551 16.9966 45.2551 13.6018V5.69471L42.108 5.74215ZM28.3813 15.0726C28.1356 14.9712 27.9228 14.8037 27.7665 14.5888C27.6102 14.3738 27.5165 14.1198 27.4957 13.8549V5.50494C27.5015 5.0921 27.6527 4.69454 27.9227 4.38213C28.0572 4.23141 28.2234 4.11218 28.4092 4.03292C28.5951 3.95366 28.7961 3.9163 28.998 3.92351C29.2095 3.92848 29.4179 3.97582 29.6107 4.06275C29.8036 4.14967 29.977 4.27441 30.1208 4.42957C30.2703 4.57603 30.3891 4.75069 30.4706 4.94343C30.552 5.13617 30.5944 5.34315 30.5953 5.55238V13.4595C30.5977 13.8433 30.6455 14.2255 30.7376 14.5981C30.8227 14.9743 30.9337 15.3442 31.0697 15.7051C30.1397 15.6804 29.2247 15.4651 28.3813 15.0726ZM36.747 13.8074C36.7345 14.1478 36.6125 14.475 36.3991 14.7405C36.2547 14.9222 36.0753 15.0732 35.8716 15.1846C35.6679 15.2959 35.444 15.3654 35.213 15.3888C34.7901 15.2879 34.4023 15.0748 34.0902 14.7721C33.967 14.6529 33.8686 14.5105 33.8007 14.3531C33.7328 14.1956 33.6969 14.0263 33.6949 13.8549V5.61564C33.695 5.18745 33.8462 4.77304 34.1219 4.44538C34.2454 4.28555 34.4034 4.15563 34.5841 4.06528C34.7648 3.97493 34.9636 3.92647 35.1656 3.92351C35.3785 3.91952 35.5897 3.96285 35.7839 4.05036C35.978 4.13787 36.1504 4.26739 36.2884 4.42957C36.5642 4.72216 36.7268 5.10338 36.747 5.50494V13.8074Z" fill="url(#paint5_linear_1962_4918)"/>
<path d="M27.4682 13.8552C27.4519 15.132 26.968 16.3586 26.1082 17.3027C25.6218 17.7891 25.0374 18.1661 24.3939 18.4088C23.7503 18.6515 23.0624 18.7543 22.376 18.7102C21.6329 18.728 20.8944 18.5879 20.2095 18.299C19.6197 18.0497 19.0829 17.6901 18.628 17.2394C18.1887 16.785 17.8446 16.2473 17.6159 15.658C17.3935 15.0666 17.2809 14.4396 17.2838 13.8077V11.1193H20.4467V13.8552C20.4406 14.0692 20.4813 14.282 20.566 14.4787C20.6506 14.6753 20.7772 14.8512 20.9369 14.9938C21.3358 15.3535 21.8548 15.5509 22.3918 15.5473C22.6538 15.5532 22.9144 15.5073 23.1586 15.4123C23.4028 15.3173 23.6259 15.1751 23.8151 14.9938C23.9781 14.8428 24.1073 14.6591 24.1945 14.4547C24.2817 14.2503 24.3249 14.0299 24.3212 13.8077V5.63177C24.3227 5.41227 24.2784 5.19486 24.1913 4.99339C24.1042 4.79191 23.9761 4.61078 23.8151 4.46152C23.6212 4.27407 23.3901 4.12937 23.1368 4.03676C22.8834 3.94414 22.6135 3.90567 22.3444 3.92383C21.8139 3.92547 21.3001 4.10976 20.8895 4.4457C20.7334 4.59453 20.6093 4.77371 20.525 4.97225C20.4407 5.17078 20.3979 5.38446 20.3992 5.60014V8.36764H17.2364V5.63177C17.2335 4.99994 17.346 4.37289 17.5685 3.78151C17.7971 3.1922 18.1412 2.65453 18.5806 2.20008C19.0355 1.74944 19.5722 1.38981 20.162 1.14052C20.8662 0.863578 21.6198 0.734389 22.376 0.760982C23.0636 0.718923 23.7522 0.824136 24.3958 1.06959C25.0394 1.31503 25.6232 1.69506 26.1082 2.18427C26.968 3.12834 27.4519 4.35491 27.4682 5.63177V13.8552Z" fill="url(#paint6_linear_1962_4918)"/>
<path d="M1.51167 26.8221C1.36934 26.5375 1.19539 26.1421 0.989803 25.6203C0.784217 25.0984 0.578632 24.4816 0.373047 23.8491C0.431309 23.7842 0.500995 23.7306 0.578632 23.6909C0.67222 23.6687 0.769701 23.6687 0.863289 23.6909C0.976361 23.6863 1.08772 23.7197 1.17957 23.7858C1.27814 23.8656 1.34536 23.9776 1.36934 24.1021C1.52749 24.5607 1.68563 25.0193 1.85959 25.4779C2.03354 25.9365 2.2075 26.411 2.41309 26.8854C2.51669 26.6753 2.60649 26.4588 2.68193 26.237C2.77681 25.984 2.85588 25.731 2.95077 25.4463L3.21961 24.4816C3.29868 24.197 3.36194 23.9123 3.4252 23.6593H3.59915H3.82055C3.93333 23.657 4.04397 23.6902 4.13684 23.7542C4.17942 23.7842 4.21347 23.8247 4.23565 23.8719C4.25783 23.919 4.26738 23.9711 4.26335 24.023C4.25372 24.2585 4.21657 24.492 4.15265 24.7188C4.07358 25.0351 3.96288 25.3672 3.83637 25.7468C3.70985 26.1263 3.56753 26.49 3.40938 26.8696C3.25124 27.2491 3.07728 27.597 2.91914 27.8975C2.69597 28.3085 2.431 28.6954 2.12843 29.052C2.05166 29.1608 1.95285 29.2522 1.83841 29.3203C1.72398 29.3884 1.59649 29.4317 1.46423 29.4473C1.38839 29.4413 1.31489 29.4183 1.24918 29.38C1.18347 29.3416 1.12724 29.289 1.08469 29.2259C1.0479 29.23 1.01078 29.23 0.973989 29.2259C0.952585 29.1787 0.941512 29.1275 0.941512 29.0757C0.941512 29.0239 0.952585 28.9726 0.973989 28.9254L1.14795 28.7199L1.48004 28.3403C1.589 28.2099 1.68937 28.0726 1.78052 27.9291C1.88174 27.8032 1.96675 27.6651 2.03354 27.518C1.92675 27.4903 1.82877 27.4359 1.74889 27.3598C1.63692 27.197 1.55646 27.0146 1.51167 26.8221Z" fill="url(#paint7_linear_1962_4918)"/>
<path d="M10.8731 22.4576C10.8728 22.3849 10.8876 22.3129 10.9168 22.2463C10.9459 22.1797 10.9887 22.1199 11.0423 22.0708C11.0959 22.0216 11.1592 21.9842 11.2281 21.961C11.297 21.9377 11.37 21.9291 11.4424 21.9358C11.5145 21.9308 11.5869 21.9409 11.655 21.9654C11.7231 21.9899 11.7853 22.0283 11.8377 22.0781C11.9301 22.1829 11.9808 22.3179 11.98 22.4576C11.9838 22.5273 11.973 22.597 11.9485 22.6623C11.9241 22.7276 11.8863 22.7871 11.8377 22.8372C11.7861 22.8891 11.7243 22.9299 11.6564 22.957C11.5884 22.9842 11.5156 22.9973 11.4424 22.9953C11.2954 22.9941 11.1543 22.9377 11.047 22.8372C10.9934 22.7893 10.9504 22.7309 10.9204 22.6656C10.8905 22.6002 10.8744 22.5295 10.8731 22.4576Z" fill="url(#paint8_linear_1962_4918)"/>
<path d="M20.4435 23.5963C20.8969 23.5698 21.3467 23.692 21.7244 23.9442C21.89 24.075 22.0212 24.2441 22.1067 24.437C22.1921 24.6299 22.2292 24.8408 22.2147 25.0512V27.0755C22.2225 27.1841 22.1886 27.2915 22.1198 27.3759C22.0497 27.4604 21.9638 27.5302 21.8668 27.5815C21.6842 27.6847 21.4868 27.7594 21.2816 27.8029C21.0129 27.8704 20.7364 27.9023 20.4593 27.8978C19.9982 27.9227 19.5405 27.8069 19.1467 27.5657C18.99 27.4607 18.8636 27.3162 18.7803 27.1469C18.697 26.9776 18.6598 26.7893 18.6723 26.601C18.6617 26.4378 18.689 26.2744 18.7521 26.1235C18.8152 25.9726 18.9124 25.8383 19.036 25.7313C19.349 25.501 19.7232 25.3689 20.1114 25.3517L21.3133 25.2252V25.0354C21.3242 24.929 21.3065 24.8216 21.262 24.7243C21.2175 24.627 21.1479 24.5433 21.0602 24.4819C20.8559 24.3576 20.6192 24.297 20.3802 24.308C20.1502 24.3073 19.9213 24.3393 19.7002 24.4029C19.5059 24.4643 19.3157 24.5383 19.1309 24.6243C19.0751 24.5737 19.0271 24.515 18.9886 24.4503C18.9656 24.3783 18.9656 24.3009 18.9886 24.2289C18.9643 24.1517 18.9643 24.0689 18.9886 23.9917C19.0484 23.9178 19.124 23.8583 19.21 23.8177C19.388 23.7409 19.5735 23.6826 19.7635 23.6438C19.9886 23.6109 20.2159 23.595 20.4435 23.5963ZM20.4435 27.1862C20.6218 27.2121 20.8029 27.2121 20.9812 27.1862C21.0939 27.1652 21.2014 27.1223 21.2975 27.0596V25.9052L20.3486 26.0001C20.1363 26.0033 19.9288 26.0633 19.7477 26.174C19.6843 26.2213 19.6337 26.2837 19.6005 26.3555C19.5674 26.4273 19.5527 26.5063 19.5579 26.5852C19.5535 26.6702 19.5699 26.755 19.6057 26.8321C19.6415 26.9093 19.6957 26.9766 19.7635 27.028C19.9733 27.1519 20.2165 27.2072 20.4593 27.1862H20.4435Z" fill="url(#paint9_linear_1962_4918)"/>
<path d="M28.7293 27.3131C28.7252 27.2373 28.7371 27.1615 28.7644 27.0906C28.7916 27.0197 28.8336 26.9554 28.8875 26.902C28.9389 26.8443 29.0024 26.7989 29.0735 26.7688C29.1446 26.7387 29.2215 26.7248 29.2986 26.728C29.3755 26.728 29.4516 26.7431 29.5226 26.7725C29.5935 26.8019 29.6581 26.845 29.7124 26.8994C29.7667 26.9537 29.8098 27.0182 29.8392 27.0892C29.8686 27.1602 29.8838 27.2363 29.8838 27.3131C29.8838 27.39 29.8686 27.466 29.8392 27.537C29.8098 27.608 29.7667 27.6725 29.7124 27.7269C29.6581 27.7812 29.5935 27.8243 29.5226 27.8537C29.4516 27.8831 29.3755 27.8982 29.2986 27.8982C29.2215 27.9015 29.1446 27.8875 29.0735 27.8575C29.0024 27.8274 28.9389 27.7819 28.8875 27.7243C28.8336 27.6708 28.7916 27.6065 28.7644 27.5356C28.7371 27.4648 28.7252 27.3889 28.7293 27.3131Z" fill="url(#paint10_linear_1962_4918)"/>
<path d="M37.9818 23.5963C38.4353 23.5698 38.885 23.692 39.2627 23.9442C39.4265 24.0757 39.5554 24.2455 39.6382 24.4385C39.7209 24.6315 39.7549 24.842 39.7372 25.0512V27.0755C39.745 27.1841 39.7111 27.2915 39.6423 27.3759C39.5781 27.4599 39.4973 27.5299 39.4051 27.5815C39.2212 27.6821 39.0243 27.7566 38.8199 27.8029C38.5512 27.8704 38.2747 27.9023 37.9976 27.8978C37.5654 27.9368 37.1312 27.8489 36.7483 27.6448C36.5915 27.5397 36.4651 27.3953 36.3819 27.226C36.2986 27.0567 36.2613 26.8684 36.2739 26.6801C36.2632 26.5169 36.2905 26.3534 36.3536 26.2025C36.4167 26.0516 36.5139 25.9174 36.6376 25.8103C36.9461 25.583 37.3144 25.451 37.6971 25.4308L38.9148 25.3043V25.1145C38.9212 25.0086 38.9014 24.9027 38.8573 24.8062C38.8132 24.7097 38.746 24.6255 38.6618 24.561C38.4526 24.4345 38.2101 24.3739 37.966 24.387C37.7412 24.3875 37.5177 24.4194 37.3018 24.4819C37.1074 24.5434 36.9173 24.6174 36.7325 24.7033C36.6722 24.6571 36.6235 24.5976 36.5901 24.5294C36.5671 24.4574 36.5671 24.38 36.5901 24.308C36.5648 24.2309 36.5648 24.1478 36.5901 24.0708C36.6562 23.9969 36.737 23.9376 36.8273 23.8968C37.0046 23.8178 37.1903 23.7594 37.3808 23.7228C37.578 23.6667 37.7788 23.6244 37.9818 23.5963ZM37.9818 27.1862C38.1547 27.2134 38.3308 27.2134 38.5037 27.1862C38.622 27.1677 38.7352 27.1246 38.8358 27.0596V25.9052L37.8869 26.0001C37.6742 26 37.4657 26.0603 37.286 26.174C37.2197 26.2195 37.166 26.2811 37.13 26.3531C37.0941 26.425 37.077 26.5049 37.0804 26.5852C37.0791 26.6714 37.0986 26.7566 37.1371 26.8336C37.1756 26.9107 37.2321 26.9773 37.3018 27.028C37.5099 27.1561 37.7546 27.2117 37.9976 27.1862H37.9818Z" fill="url(#paint11_linear_1962_4918)"/>
<path d="M46.6511 22.4579C46.6504 22.3873 46.664 22.3172 46.6912 22.2519C46.7184 22.1867 46.7585 22.1277 46.8092 22.0784C46.9188 21.9836 47.0597 21.9329 47.2046 21.9361C47.3499 21.9297 47.492 21.9808 47.5999 22.0784C47.6923 22.1832 47.743 22.3183 47.7423 22.4579C47.746 22.5276 47.7352 22.5973 47.7108 22.6626C47.6863 22.7279 47.6485 22.7875 47.5999 22.8375C47.4936 22.9394 47.3518 22.996 47.2046 22.9956C47.0576 22.9944 46.9165 22.938 46.8092 22.8375C46.7561 22.7901 46.7143 22.7314 46.6869 22.6657C46.6595 22.6 46.6473 22.529 46.6511 22.4579Z" fill="url(#paint12_linear_1962_4918)"/>
<path d="M12.99 39.0576V39.875H12.7307V37.8569H13.4184C13.5932 37.8569 13.7416 37.9152 13.8638 38.0317C13.9878 38.1482 14.0498 38.29 14.0498 38.4573C14.0498 38.6283 13.9878 38.7711 13.8638 38.8857C13.7435 39.0003 13.5951 39.0576 13.4184 39.0576H12.99ZM12.99 38.1049V38.8096H13.4241C13.5274 38.8096 13.6129 38.7748 13.6805 38.7053C13.7501 38.6358 13.7848 38.5531 13.7848 38.4573C13.7848 38.3633 13.7501 38.2816 13.6805 38.212C13.6129 38.1406 13.5274 38.1049 13.4241 38.1049H12.99ZM14.0985 39.1845C14.0985 38.9721 14.1652 38.7964 14.2987 38.6574C14.4339 38.5183 14.604 38.4488 14.8088 38.4488C15.0136 38.4488 15.1827 38.5183 15.3162 38.6574C15.4514 38.7964 15.5191 38.9721 15.5191 39.1845C15.5191 39.3987 15.4514 39.5744 15.3162 39.7115C15.1827 39.8506 15.0136 39.9201 14.8088 39.9201C14.604 39.9201 14.4339 39.8506 14.2987 39.7115C14.1652 39.5725 14.0985 39.3968 14.0985 39.1845ZM14.3578 39.1845C14.3578 39.3329 14.4011 39.4532 14.4875 39.5452C14.5739 39.6373 14.681 39.6833 14.8088 39.6833C14.9366 39.6833 15.0437 39.6373 15.1301 39.5452C15.2166 39.4532 15.2598 39.3329 15.2598 39.1845C15.2598 39.0379 15.2166 38.9186 15.1301 38.8265C15.0418 38.7325 14.9347 38.6856 14.8088 38.6856C14.6829 38.6856 14.5758 38.7325 14.4875 38.8265C14.4011 38.9186 14.3578 39.0379 14.3578 39.1845ZM17.6832 38.4939L17.2379 39.875H16.9729L16.629 38.8152L16.288 39.875H16.0259L15.5805 38.4939H15.8511L16.1584 39.5368H16.1612L16.5022 38.4939H16.77L17.111 39.5368H17.1138L17.4182 38.4939H17.6832ZM18.4446 39.9201C18.2417 39.9201 18.0744 39.8506 17.9429 39.7115C17.8114 39.5725 17.7456 39.3968 17.7456 39.1845C17.7456 38.974 17.8095 38.7992 17.9373 38.6602C18.065 38.5193 18.2285 38.4488 18.4277 38.4488C18.6325 38.4488 18.795 38.5155 18.9153 38.6489C19.0374 38.7805 19.0985 38.9655 19.0985 39.2042L19.0957 39.2324H18.0105C18.0143 39.3677 18.0594 39.4766 18.1458 39.5593C18.2323 39.642 18.3356 39.6833 18.4559 39.6833C18.6212 39.6833 18.7509 39.6007 18.8448 39.4353L19.076 39.548C19.0139 39.6645 18.9275 39.7557 18.8166 39.8214C18.7077 39.8872 18.5836 39.9201 18.4446 39.9201ZM18.0303 39.0182H18.8223C18.8148 38.9223 18.7753 38.8434 18.7039 38.7814C18.6344 38.7175 18.5404 38.6856 18.422 38.6856C18.3243 38.6856 18.2398 38.7156 18.1684 38.7758C18.0989 38.8359 18.0528 38.9167 18.0303 39.0182ZM19.5949 39.875H19.3356V38.4939H19.5837V38.7194H19.5949C19.6213 38.6461 19.6748 38.5841 19.7556 38.5334C19.8383 38.4808 19.9191 38.4544 19.998 38.4544C20.0732 38.4544 20.137 38.4657 20.1897 38.4883L20.1107 38.7391C20.0788 38.726 20.0281 38.7194 19.9585 38.7194C19.8608 38.7194 19.7753 38.7589 19.702 38.8378C19.6306 38.9167 19.5949 39.0088 19.5949 39.114V39.875ZM20.8943 39.9201C20.6914 39.9201 20.5242 39.8506 20.3926 39.7115C20.2611 39.5725 20.1953 39.3968 20.1953 39.1845C20.1953 38.974 20.2592 38.7992 20.387 38.6602C20.5148 38.5193 20.6782 38.4488 20.8774 38.4488C21.0822 38.4488 21.2448 38.5155 21.365 38.6489C21.4872 38.7805 21.5482 38.9655 21.5482 39.2042L21.5454 39.2324H20.4603C20.464 39.3677 20.5091 39.4766 20.5956 39.5593C20.682 39.642 20.7853 39.6833 20.9056 39.6833C21.071 39.6833 21.2006 39.6007 21.2946 39.4353L21.5257 39.548C21.4637 39.6645 21.3772 39.7557 21.2664 39.8214C21.1574 39.8872 21.0334 39.9201 20.8943 39.9201ZM20.48 39.0182H21.272C21.2645 38.9223 21.225 38.8434 21.1536 38.7814C21.0841 38.7175 20.9902 38.6856 20.8718 38.6856C20.7741 38.6856 20.6895 38.7156 20.6181 38.7758C20.5486 38.8359 20.5025 38.9167 20.48 39.0182ZM22.4192 39.6833C22.547 39.6833 22.6513 39.6373 22.7321 39.5452C22.8166 39.4532 22.8589 39.3329 22.8589 39.1845C22.8589 39.0398 22.8166 38.9204 22.7321 38.8265C22.6494 38.7325 22.5451 38.6856 22.4192 38.6856C22.2952 38.6856 22.1909 38.7325 22.1063 38.8265C22.0218 38.9204 21.9795 39.0398 21.9795 39.1845C21.9795 39.331 22.0218 39.4503 22.1063 39.5424C22.1909 39.6364 22.2952 39.6833 22.4192 39.6833ZM22.3769 39.9201C22.1965 39.9201 22.0415 39.8487 21.9119 39.7059C21.7841 39.5612 21.7202 39.3874 21.7202 39.1845C21.7202 38.9815 21.7841 38.8077 21.9119 38.663C22.0415 38.5202 22.1965 38.4488 22.3769 38.4488C22.4784 38.4488 22.5705 38.4704 22.6531 38.5136C22.7377 38.5569 22.8025 38.6142 22.8476 38.6856H22.8589L22.8476 38.4939V37.8569H23.1069V39.875H22.8589V39.6833H22.8476C22.8025 39.7547 22.7377 39.8121 22.6531 39.8553C22.5705 39.8985 22.4784 39.9201 22.3769 39.9201ZM24.7724 39.9201C24.6709 39.9201 24.5779 39.8985 24.4934 39.8553C24.4107 39.8121 24.3468 39.7547 24.3017 39.6833H24.2904V39.875H24.0424V37.8569H24.3017V38.4939L24.2904 38.6856H24.3017C24.3468 38.6142 24.4107 38.5569 24.4934 38.5136C24.5779 38.4704 24.6709 38.4488 24.7724 38.4488C24.9547 38.4488 25.1088 38.5202 25.2347 38.663C25.3643 38.8077 25.4291 38.9815 25.4291 39.1845C25.4291 39.3893 25.3643 39.5631 25.2347 39.7059C25.1088 39.8487 24.9547 39.9201 24.7724 39.9201ZM24.7301 39.6833C24.8542 39.6833 24.9584 39.6364 25.043 39.5424C25.1276 39.4503 25.1698 39.331 25.1698 39.1845C25.1698 39.0398 25.1276 38.9204 25.043 38.8265C24.9584 38.7325 24.8542 38.6856 24.7301 38.6856C24.6042 38.6856 24.499 38.7325 24.4145 38.8265C24.3318 38.9204 24.2904 39.0398 24.2904 39.1845C24.2904 39.331 24.3318 39.4513 24.4145 39.5452C24.499 39.6373 24.6042 39.6833 24.7301 39.6833ZM26.8459 38.4939L25.9806 40.4838H25.7128L26.0341 39.7876L25.4648 38.4939H25.7466L26.1581 39.486H26.1638L26.564 38.4939H26.8459ZM28.2544 38.1049V39.875H27.9951V38.1049H27.4314V37.8569H28.8181V38.1049H28.2544ZM29.0206 39.4522C29.0206 39.5199 29.0488 39.5762 29.1052 39.6213C29.1634 39.6664 29.2311 39.689 29.3081 39.689C29.4171 39.689 29.5139 39.6486 29.5984 39.5678C29.6848 39.487 29.7281 39.3921 29.7281 39.2831C29.6473 39.2192 29.5345 39.1873 29.3898 39.1873C29.2846 39.1873 29.1963 39.2126 29.1249 39.2634C29.0554 39.3141 29.0206 39.3771 29.0206 39.4522ZM29.356 38.4488C29.5477 38.4488 29.6989 38.5005 29.8098 38.6038C29.9207 38.7053 29.9761 38.8453 29.9761 39.0238V39.875H29.7281V39.6833H29.7168C29.6097 39.8412 29.4669 39.9201 29.2884 39.9201C29.1362 39.9201 29.0084 39.875 28.905 39.7848C28.8036 39.6946 28.7528 39.5819 28.7528 39.4466C28.7528 39.3038 28.8064 39.1901 28.9135 39.1055C29.0225 39.021 29.1672 38.9787 29.3476 38.9787C29.5016 38.9787 29.6285 39.0069 29.7281 39.0633V39.0041C29.7281 38.9139 29.6924 38.8378 29.621 38.7758C29.5496 38.7119 29.4659 38.6799 29.3701 38.6799C29.2254 38.6799 29.1108 38.741 29.0262 38.8631L28.7979 38.7194C28.9238 38.539 29.1099 38.4488 29.356 38.4488ZM30.5279 37.8569V39.875H30.2686V37.8569H30.5279ZM31.1031 39.875H30.8438V38.4939H31.0919V38.7194H31.1031C31.1295 38.6461 31.183 38.5841 31.2638 38.5334C31.3465 38.4808 31.4273 38.4544 31.5062 38.4544C31.5814 38.4544 31.6452 38.4657 31.6979 38.4883L31.6189 38.7391C31.587 38.726 31.5363 38.7194 31.4667 38.7194C31.369 38.7194 31.2835 38.7589 31.2102 38.8378C31.1388 38.9167 31.1031 39.0088 31.1031 39.114V39.875ZM31.7035 39.1845C31.7035 38.9721 31.7702 38.7964 31.9036 38.6574C32.0389 38.5183 32.209 38.4488 32.4138 38.4488C32.6186 38.4488 32.7877 38.5183 32.9211 38.6574C33.0564 38.7964 33.1241 38.9721 33.1241 39.1845C33.1241 39.3987 33.0564 39.5744 32.9211 39.7115C32.7877 39.8506 32.6186 39.9201 32.4138 39.9201C32.209 39.9201 32.0389 39.8506 31.9036 39.7115C31.7702 39.5725 31.7035 39.3968 31.7035 39.1845ZM31.9628 39.1845C31.9628 39.3329 32.006 39.4532 32.0925 39.5452C32.1789 39.6373 32.286 39.6833 32.4138 39.6833C32.5416 39.6833 32.6487 39.6373 32.7351 39.5452C32.8215 39.4532 32.8648 39.3329 32.8648 39.1845C32.8648 39.0379 32.8215 38.9186 32.7351 38.8265C32.6468 38.7325 32.5397 38.6856 32.4138 38.6856C32.2879 38.6856 32.1808 38.7325 32.0925 38.8265C32.006 38.9186 31.9628 39.0379 31.9628 39.1845ZM34.0223 39.6833C34.1463 39.6833 34.2506 39.6364 34.3352 39.5424C34.4197 39.4503 34.462 39.331 34.462 39.1845C34.462 39.0398 34.4197 38.9204 34.3352 38.8265C34.2506 38.7325 34.1463 38.6856 34.0223 38.6856C33.8964 38.6856 33.7912 38.7325 33.7066 38.8265C33.624 38.9204 33.5826 39.0398 33.5826 39.1845C33.5826 39.331 33.624 39.4513 33.7066 39.5452C33.7912 39.6373 33.8964 39.6833 34.0223 39.6833ZM34.0646 39.9201C33.9631 39.9201 33.8701 39.8985 33.7856 39.8553C33.7029 39.8121 33.639 39.7547 33.5939 39.6833H33.5826L33.5939 39.875V40.4838H33.3346V38.4939H33.5826V38.6856H33.5939C33.639 38.6142 33.7029 38.5569 33.7856 38.5136C33.8701 38.4704 33.9631 38.4488 34.0646 38.4488C34.2469 38.4488 34.4009 38.5202 34.5268 38.663C34.6565 38.8077 34.7213 38.9815 34.7213 39.1845C34.7213 39.3893 34.6565 39.5631 34.5268 39.7059C34.4009 39.8487 34.2469 39.9201 34.0646 39.9201Z" fill="white"/>
<path d="M11.4457 23.6597C11.5674 23.6597 11.684 23.708 11.77 23.794C11.856 23.88 11.9043 23.9966 11.9043 24.1183V27.2811C11.9043 27.4153 11.851 27.5441 11.7561 27.639C11.6612 27.7339 11.5325 27.7872 11.3983 27.7872H10.9238V24.1183C10.9232 24.0523 10.9368 23.987 10.9637 23.9268C10.9906 23.8666 11.0302 23.8129 11.0797 23.7694C11.1292 23.7259 11.1876 23.6935 11.2507 23.6746C11.3139 23.6557 11.3804 23.6506 11.4457 23.6597Z" fill="url(#paint13_linear_1962_4918)"/>
<path d="M47.2028 23.6592C47.3244 23.6592 47.441 23.7075 47.527 23.7935C47.6131 23.8795 47.6614 23.9962 47.6614 24.1178V27.2806C47.6614 27.4149 47.6081 27.5436 47.5131 27.6385C47.4182 27.7334 47.2895 27.7867 47.1553 27.7867H46.7441V24.1178C46.7441 24.0576 46.756 23.9979 46.7791 23.9423C46.8021 23.8866 46.8359 23.8361 46.8785 23.7935C46.9211 23.7509 46.9716 23.7171 47.0273 23.6941C47.0829 23.671 47.1425 23.6592 47.2028 23.6592Z" fill="url(#paint14_linear_1962_4918)"/>
<defs>
<linearGradient id="paint0_linear_1962_4918" x1="0.373434" y1="32.2781" x2="47.8795" y2="32.2781" gradientUnits="userSpaceOnUse">
<stop stop-color="#DFD023"/>
<stop offset="1" stop-color="#228FB7"/>
</linearGradient>
<linearGradient id="paint1_linear_1962_4918" x1="0.373047" y1="39.6638" x2="47.7367" y2="39.6638" gradientUnits="userSpaceOnUse">
<stop stop-color="#DFD023"/>
<stop offset="1" stop-color="#228FB7"/>
</linearGradient>
<linearGradient id="paint2_linear_1962_4918" x1="39.9715" y1="2.73752" x2="47.7363" y2="2.73752" gradientUnits="userSpaceOnUse">
<stop stop-color="#14B797"/>
<stop offset="1" stop-color="#198CB8"/>
</linearGradient>
<linearGradient id="paint3_linear_1962_4918" x1="16.2871" y1="2.76915" x2="20.0351" y2="2.76915" gradientUnits="userSpaceOnUse">
<stop stop-color="#DFD023"/>
<stop offset="1" stop-color="#4AB754"/>
</linearGradient>
<linearGradient id="paint4_linear_1962_4918" x1="0.375301" y1="9.75882" x2="19.9059" y2="9.75882" gradientUnits="userSpaceOnUse">
<stop stop-color="#DFD023"/>
<stop offset="1" stop-color="#4AB754"/>
</linearGradient>
<linearGradient id="paint5_linear_1962_4918" x1="24.317" y1="9.74316" x2="45.2551" y2="9.74316" gradientUnits="userSpaceOnUse">
<stop stop-color="#14B797"/>
<stop offset="1" stop-color="#198CB8"/>
</linearGradient>
<linearGradient id="paint6_linear_1962_4918" x1="17.268" y1="9.74348" x2="27.4682" y2="9.74348" gradientUnits="userSpaceOnUse">
<stop stop-color="#DFD023"/>
<stop offset="1" stop-color="#4AB754"/>
</linearGradient>
<linearGradient id="paint7_linear_1962_4918" x1="0.373047" y1="26.5217" x2="4.26335" y2="26.5217" gradientUnits="userSpaceOnUse">
<stop stop-color="#DFD023"/>
<stop offset="1" stop-color="#4AB754"/>
</linearGradient>
<linearGradient id="paint8_linear_1962_4918" x1="10.8731" y1="22.4576" x2="11.9642" y2="22.4576" gradientUnits="userSpaceOnUse">
<stop stop-color="#DFD023"/>
<stop offset="1" stop-color="#4AB754"/>
</linearGradient>
<linearGradient id="paint9_linear_1962_4918" x1="18.6723" y1="25.7471" x2="22.2147" y2="25.7471" gradientUnits="userSpaceOnUse">
<stop stop-color="#DFD023"/>
<stop offset="1" stop-color="#4AB754"/>
</linearGradient>
<linearGradient id="paint10_linear_1962_4918" x1="28.7293" y1="27.3131" x2="29.8838" y2="27.3131" gradientUnits="userSpaceOnUse">
<stop stop-color="#14B797"/>
<stop offset="1" stop-color="#198CB8"/>
</linearGradient>
<linearGradient id="paint11_linear_1962_4918" x1="36.2106" y1="25.7471" x2="39.7372" y2="25.7471" gradientUnits="userSpaceOnUse">
<stop stop-color="#14B797"/>
<stop offset="1" stop-color="#198CB8"/>
</linearGradient>
<linearGradient id="paint12_linear_1962_4918" x1="46.6511" y1="22.4579" x2="47.7423" y2="22.4579" gradientUnits="userSpaceOnUse">
<stop stop-color="#14B797"/>
<stop offset="1" stop-color="#198CB8"/>
</linearGradient>
<linearGradient id="paint13_linear_1962_4918" x1="10.9238" y1="25.7471" x2="11.8411" y2="25.7471" gradientUnits="userSpaceOnUse">
<stop stop-color="#DFD023"/>
<stop offset="1" stop-color="#4AB754"/>
</linearGradient>
<linearGradient id="paint14_linear_1962_4918" x1="46.7441" y1="25.7467" x2="47.6456" y2="25.7467" gradientUnits="userSpaceOnUse">
<stop stop-color="#14B797"/>
<stop offset="1" stop-color="#198CB8"/>
</linearGradient>
</defs>
</svg>
