<svg width="53" height="53" viewBox="0 0 53 53" fill="none" xmlns="http://www.w3.org/2000/svg">
<path d="M21.8619 19.1184V38.064H19.6417L9.31788 23.1888H9.13287V38.064H6.83868V19.1184H9.05886L19.4197 34.0306H19.6047V19.1184H21.8619ZM26.4526 38.064V19.1184H32.8541C34.3342 19.1184 35.5492 19.3713 36.4989 19.877C37.4486 20.3765 38.1517 21.0642 38.6081 21.9399C39.0644 22.8156 39.2926 23.8116 39.2926 24.9279C39.2926 26.0442 39.0644 27.034 38.6081 27.8974C38.1517 28.7608 37.4517 29.4392 36.5082 29.9326C35.5646 30.4198 34.3589 30.6634 32.8911 30.6634H27.7107V28.5912H32.8171C33.8285 28.5912 34.6426 28.4432 35.2593 28.1472C35.8822 27.8511 36.3324 27.4318 36.6099 26.8891C36.8936 26.3402 37.0354 25.6865 37.0354 24.9279C37.0354 24.1693 36.8936 23.5064 36.6099 22.939C36.3262 22.3716 35.8729 21.9337 35.2501 21.6254C34.6272 21.3109 33.8038 21.1536 32.7801 21.1536H28.7468V38.064H26.4526ZM35.3703 29.5533L40.0327 38.064H37.3685L32.7801 29.5533H35.3703ZM45.4097 19.1184V38.064H43.1155V19.1184H45.4097Z" fill="#1B494D"/>
</svg>
