<svg width="49" height="48" viewBox="0 0 49 48" fill="none" xmlns="http://www.w3.org/2000/svg">
<path d="M44.2465 14.501C44.2464 14.501 44.2464 14.501 44.2463 14.501L44.245 14.4997L41.6624 14.1312C41.2994 14.0795 41.047 13.7433 41.0987 13.3803C41.1235 13.2059 41.2167 13.0485 41.3576 12.9428L43.445 11.3773C43.7383 11.1573 43.7977 10.7412 43.5777 10.4478L41.1877 7.26104C40.9677 6.96768 40.5516 6.90826 40.2582 7.12826L38.1715 8.69376C37.8794 8.91542 37.463 8.85833 37.2413 8.56621C37.1337 8.42438 37.0875 8.24521 37.1132 8.06902L37.4824 5.48641C37.5344 5.12342 37.2824 4.78706 36.9195 4.73494C36.9192 4.73494 36.919 4.73486 36.9187 4.73486L32.9777 4.17187C32.6148 4.11975 32.2783 4.3717 32.2262 4.7347C32.2262 4.73478 32.2262 4.73478 32.2262 4.73486L31.8571 7.31747C31.8054 7.68047 31.4692 7.93284 31.1062 7.88113C30.9317 7.85632 30.7744 7.76312 30.6687 7.62221L29.1038 5.53487C28.8838 5.24151 28.4677 5.18209 28.1744 5.40209L26.1793 6.89921C25.2767 6.80328 24.3665 6.80328 23.4639 6.89921C17.5529 7.57482 12.9176 12.2888 12.3414 18.2103C12.3235 18.3981 12.3168 18.5847 12.3075 18.7713H12.1084C11.7933 18.7718 11.5221 18.9938 11.4591 19.3024L11.0003 21.484L9.1626 20.2166C8.89886 20.0346 8.54267 20.067 8.31611 20.2936L6.32438 22.2853C6.09815 22.5118 6.06579 22.8675 6.24737 23.1312L7.5088 24.9655L5.32652 25.4243C5.02129 25.4912 4.80403 25.7618 4.80469 26.0743V28.7299C4.80452 29.044 5.02453 29.3152 5.33183 29.3799L7.51411 29.8387L6.25268 31.673C6.0711 31.9367 6.10346 32.2924 6.32969 32.5189L8.32142 34.5106C8.54798 34.7372 8.90417 34.7696 9.16791 34.5876L11.0023 33.3229L11.4611 35.5051C11.524 35.8138 11.7953 36.0357 12.1104 36.0363H14.766C15.08 36.0364 15.3512 35.8164 15.416 35.5091L15.8747 33.3268L17.7091 34.5883C17.9728 34.7699 18.3285 34.7375 18.5549 34.5113L19.586 33.4769V35.369C19.589 36.3135 20.095 37.1848 20.9138 37.6555V41.3442C20.9138 42.8109 22.1028 43.9999 23.5695 43.9999H26.2251C27.6918 43.9999 28.8808 42.8109 28.8808 41.3442V37.6555C29.6996 37.1848 30.2056 36.3135 30.2086 35.369V32.7413C30.2266 31.6356 30.805 30.6149 31.7442 30.0312C32.2952 29.6738 32.8177 29.2742 33.307 28.8361L32.4214 27.8469C31.9836 28.2393 31.5159 28.5969 31.0225 28.9165C29.7043 29.7439 28.8973 31.1849 28.8808 32.7413V35.369C28.8808 36.1024 28.2863 36.6969 27.5529 36.6969H22.2416C21.5083 36.6969 20.9138 36.1024 20.9138 35.369V32.6862C20.8985 31.1593 20.1042 29.746 18.8079 28.9391C13.5458 25.6326 11.9604 18.6865 15.2668 13.4245C17.3183 10.1596 20.8986 8.17243 24.7545 8.15865C24.7447 8.1823 24.736 8.20645 24.7287 8.23102C24.704 8.40529 24.7496 8.58231 24.8555 8.72297L26.4203 10.8096C26.5853 11.0232 26.6011 11.3165 26.4601 11.5466C26.3244 11.7781 26.0619 11.9044 25.7962 11.8659L23.2136 11.4968C22.8506 11.4448 22.5143 11.6968 22.4621 12.0597C22.4621 12.06 22.4621 12.0602 22.4621 12.0605L21.8984 16.0034C21.8464 16.3663 22.0984 16.7028 22.4613 16.7549C22.4616 16.7549 22.4618 16.755 22.4621 16.755L25.0447 17.1241C25.4077 17.1758 25.66 17.512 25.6083 17.875C25.5835 18.0494 25.4903 18.2068 25.3494 18.3125L23.2627 19.8773C22.9694 20.0973 22.91 20.5134 23.13 20.8068L25.52 23.9936C25.74 24.2869 26.1561 24.3464 26.4495 24.1264L28.5368 22.5615C28.8305 22.3419 29.2466 22.4019 29.4662 22.6956C29.5712 22.8361 29.6164 23.0126 29.5918 23.1863L29.2233 25.7689C29.1712 26.1318 29.4232 26.4683 29.7862 26.5204C29.7862 26.5204 29.7862 26.5204 29.7863 26.5204L33.73 27.0841C33.761 27.0881 33.7923 27.0901 33.8236 27.0901C34.1541 27.0905 34.4345 26.8477 34.4815 26.5204L34.85 23.9378C34.9017 23.5748 35.2379 23.3225 35.6009 23.3742C35.7753 23.399 35.9326 23.4922 36.0384 23.6331L37.6039 25.7198C37.8239 26.0131 38.24 26.0725 38.5334 25.8525L41.7201 23.4625C42.0135 23.2425 42.0729 22.8263 41.8529 22.533L40.2881 20.4463C40.1238 20.2324 40.108 19.9397 40.2482 19.7094C40.3811 19.4748 40.646 19.3476 40.9121 19.3907L43.4948 19.7592C43.8577 19.8113 44.1942 19.5592 44.2463 19.1963C44.2463 19.1962 44.2463 19.1962 44.2463 19.1962L44.8093 15.2525C44.8614 14.8895 44.6095 14.5531 44.2465 14.501ZM22.2416 38.0247H27.5529V39.3525H22.2416V38.0247ZM22.2416 40.6803H27.5529V41.3442C27.5529 42.0776 26.9585 42.6721 26.2251 42.6721H23.5695C22.8361 42.6721 22.2416 42.0776 22.2416 41.3442V40.6803ZM16.9562 29.2312C17.3187 29.5276 17.6975 29.8036 18.0909 30.0577C18.7182 30.4542 19.1904 31.0539 19.4287 31.7567L18.0046 33.1781L16.6256 32.2274C16.0218 31.8113 15.195 31.9635 14.7788 32.5673C14.679 32.7121 14.609 32.8753 14.5728 33.0473L14.2249 34.7051H12.6468L12.2989 33.05C12.1479 32.3324 11.4437 31.873 10.7261 32.0241C10.5541 32.0603 10.3909 32.1303 10.2461 32.2301L8.8665 33.1781L7.65685 31.9711L8.60691 30.5929C9.02343 29.9893 8.87172 29.1624 8.26815 28.7459C8.12325 28.6459 7.95993 28.5756 7.78764 28.5394L6.13251 28.1908V26.6134L7.78764 26.2648C8.505 26.1127 8.96326 25.4079 8.81114 24.6904C8.77504 24.5202 8.70591 24.3588 8.60757 24.2153L7.65685 22.8331L8.8665 21.6261L10.2468 22.5768C10.8508 22.9925 11.6777 22.8398 12.0934 22.2357C12.1929 22.0911 12.2628 21.9281 12.2989 21.7562L12.4151 21.2038C12.5215 21.9688 12.6977 22.7224 12.9416 23.4552C10.7571 23.7156 9.19729 25.6977 9.45771 27.8822C9.71813 30.0667 11.7002 31.6265 13.8847 31.3661C15.1998 31.2092 16.3509 30.4091 16.9562 29.2312ZM15.9252 28.2957C15.4294 29.6738 13.9105 30.389 12.5324 29.8933C11.1544 29.3975 10.4392 27.8785 10.9349 26.5005C11.3142 25.4463 12.3151 24.7441 13.4354 24.7465C13.4441 24.7465 13.452 24.7465 13.4607 24.7465C14.0712 26.0629 14.905 27.2637 15.9252 28.2957ZM43.0221 18.349L41.0967 18.0742C40.0077 17.9186 38.9989 18.6754 38.8434 19.7643C38.7687 20.2872 38.9048 20.8184 39.2218 21.241L40.3883 22.7966L38.2638 24.3899L37.0966 22.8351C36.4367 21.955 35.1883 21.7765 34.3083 22.4364C33.8857 22.7532 33.6063 23.225 33.5314 23.7479L33.2626 25.6759L30.6341 25.3002L30.909 23.3748C31.0649 22.2859 30.3086 21.2768 29.2197 21.1209C28.6964 21.046 28.165 21.1821 27.7421 21.4993L26.1866 22.6658L24.5932 20.5412L26.1481 19.3741C27.0282 18.7142 27.2067 17.4658 26.5468 16.5858C26.2299 16.1632 25.7581 15.8837 25.2352 15.8089L23.3099 15.534L23.6856 12.9056L25.611 13.1805C26.6999 13.3364 27.709 12.58 27.8649 11.4911C27.9398 10.9679 27.8037 10.4364 27.4865 10.0136L26.3161 8.45675L28.4406 6.86336L29.6077 8.4189C30.2677 9.299 31.5161 9.47751 32.3961 8.81758C32.8187 8.50073 33.0981 8.02894 33.1729 7.50603L33.4478 5.58068L36.0762 5.95579L35.8014 7.88113C35.6458 8.97011 36.4025 9.97893 37.4915 10.1344C38.0144 10.2091 38.5456 10.073 38.9682 9.75602L40.5238 8.58953L42.1171 10.714L40.5616 11.8812C39.6815 12.5411 39.503 13.7895 40.1629 14.6695C40.4798 15.0921 40.9516 15.3715 41.4745 15.4464L43.3998 15.7213L43.0221 18.349Z" fill="#535353"/>
<path d="M33.3503 10.3154C30.417 10.3154 28.0391 12.6934 28.0391 15.6267C28.0391 18.56 30.417 20.938 33.3503 20.938C36.2837 20.938 38.6616 18.56 38.6616 15.6267C38.6583 12.6947 36.2823 10.3187 33.3503 10.3154ZM33.3503 19.6102C31.1503 19.6102 29.3669 17.8268 29.3669 15.6267C29.3669 13.4267 31.1503 11.6433 33.3503 11.6433C35.5504 11.6433 37.3338 13.4267 37.3338 15.6267C37.3312 17.8257 35.5493 19.6076 33.3503 19.6102Z" fill="#535353"/>
<path d="M25.5583 33.3799H24.2305V35.3716H25.5583V33.3799Z" fill="#535353"/>
<path d="M21.9902 26.8578C17.8918 25.2568 15.8672 20.6365 17.4684 16.5381C18.0888 14.95 19.2022 13.6029 20.6451 12.6946L19.9354 11.5713C15.5921 14.3075 14.2892 20.0466 17.0254 24.3899C18.0851 26.072 19.6563 27.37 21.5082 28.0934C23.1474 28.7214 24.2298 30.2949 24.2302 32.0503H25.558C25.5601 29.7472 24.1408 27.6817 21.9902 26.8578Z" fill="#535353"/>
<path d="M42.1591 28.731H37.5117V30.0588H42.1591V28.731Z" fill="#535353"/>
<path d="M37.2757 32.203L36.4258 33.2231L40.4095 36.5422L41.2595 35.522L37.2757 32.203Z" fill="#535353"/>
<path d="M34.8591 34.042H33.5312V38.6894H34.8591V34.042Z" fill="#535353"/>
<path d="M10.7914 14.146L5.48047 15.4736L5.8023 16.7611L11.1132 15.4335L10.7914 14.146Z" fill="#535353"/>
<path d="M7.35728 7.61052L6.58594 8.69043L11.2329 12.0096L12.0043 10.9297L7.35728 7.61052Z" fill="#535353"/>
<path d="M13.5598 4.0002L12.2734 4.3291L13.6313 9.63998L14.9177 9.31108L13.5598 4.0002Z" fill="#535353"/>
</svg>
