<svg width="49" height="48" viewBox="0 0 49 48" fill="none" xmlns="http://www.w3.org/2000/svg">
<path d="M12.5641 44.0009C15.4793 44.0009 18.9439 42.9316 22.2724 40.449C22.4564 40.3117 22.5564 40.0904 22.5384 39.8624C22.5204 39.6337 22.3858 39.4311 22.1831 39.3244L20.2672 38.3198L20.8071 36.1618C20.8518 35.9812 20.8198 35.7898 20.7178 35.6345C20.6158 35.4792 20.4532 35.3732 20.2698 35.3425L16.9133 34.7832L17.2046 32.7619C17.2546 32.414 17.0259 32.0866 16.6813 32.0146L14.276 31.51L14.8147 28.7967C14.8567 28.5847 14.7933 28.3661 14.6454 28.2088C14.496 28.0514 14.2814 27.9761 14.0674 28.0068L11.1461 28.4201L9.69285 26.2795C9.57286 26.1028 9.3762 25.9948 9.16354 25.9875C8.94888 25.9742 8.74688 26.0755 8.61622 26.2435C4.91635 30.9753 3.18307 38.3431 6.83428 41.9943C8.10691 43.2663 10.1468 44.0009 12.5641 44.0009ZM9.11954 27.8074L10.2768 29.5127C10.4195 29.7234 10.6702 29.8334 10.9221 29.7987L13.3254 29.4587L12.8414 31.8973C12.7708 32.256 13.0007 32.6046 13.3587 32.6793L15.7973 33.1913L15.5027 35.2385C15.4507 35.5972 15.6953 35.9318 16.0526 35.9912L19.3405 36.5391L18.8492 38.5051C18.7745 38.8037 18.9139 39.1144 19.1865 39.2571L20.5938 39.995C16.392 42.7243 10.5988 43.8709 7.77825 41.051C4.91035 38.1838 6.1423 32.0993 9.11954 27.8074Z" fill="#535353"/>
<path d="M33.351 34.4537L29.5252 34.0037C29.3332 33.9817 29.1465 34.041 29.0045 34.1677C28.8625 34.2937 28.7812 34.475 28.7812 34.6656V37.4776L26.4166 38.0635C26.1999 38.1175 26.0246 38.2762 25.9493 38.4862C25.874 38.6962 25.9086 38.9308 26.0426 39.1095C26.5266 39.7581 27.0373 40.3528 27.5626 40.8768C29.6305 42.9454 31.9658 43.9767 34.3243 43.9767C36.7729 43.9767 39.2468 42.8634 41.4688 40.6414C45.83 36.2803 45.9206 30.9518 41.7048 26.7359C41.2648 26.2959 40.7755 25.8646 40.2501 25.454C40.0588 25.3046 39.8042 25.2713 39.5808 25.3646C39.3582 25.4586 39.2035 25.6653 39.1768 25.9059L38.9215 28.2045L36.3676 27.3672C36.1289 27.2886 35.8643 27.3532 35.6863 27.5319C35.5083 27.7119 35.4476 27.9765 35.529 28.2152L36.5109 31.1038L33.5904 30.6744C33.377 30.6424 33.1657 30.7158 33.0164 30.8684C32.8671 31.0211 32.8004 31.2364 32.8357 31.4471L33.351 34.4537ZM34.081 35.8823C34.2917 35.9069 34.4977 35.8316 34.6423 35.6789C34.787 35.5263 34.851 35.315 34.8157 35.1076L34.3043 32.1257L37.3949 32.5797C37.6282 32.6164 37.8556 32.5257 38.0042 32.3471C38.1529 32.1684 38.1982 31.9257 38.1229 31.7057L37.2196 29.0485L39.2842 29.7251C39.4755 29.7878 39.6842 29.7611 39.8528 29.6525C40.0215 29.5438 40.1321 29.3652 40.1548 29.1658L40.3628 27.2966C40.5001 27.4226 40.6328 27.5506 40.7608 27.6785C42.5327 29.4505 46.0559 34.1677 40.5248 39.6988C34.9937 45.23 30.2758 41.7061 28.5045 39.9341C28.2472 39.6775 27.9932 39.4015 27.7439 39.1082L29.6072 38.6462C29.9045 38.5722 30.1131 38.3055 30.1131 37.9989V35.4156L34.081 35.8823Z" fill="#535353"/>
<path d="M20.1614 12.6665C20.1614 12.8512 20.1701 13.0278 20.1921 13.1858C20.3501 14.6198 21.1474 15.8371 22.2807 16.575C20.2441 17.5357 18.8281 19.6029 18.8281 21.9995V27.9993C18.8281 28.3673 19.1268 28.666 19.4948 28.666H30.1611C30.5291 28.666 30.8277 28.3673 30.8277 27.9993V21.9995C30.8277 19.6029 29.4118 17.5363 27.3758 16.5757C28.5085 15.8391 29.3051 14.6271 29.4618 13.2045C29.4858 13.0278 29.4944 12.8512 29.4944 12.6665C29.4944 12.5138 29.4864 12.3692 29.4711 12.2392C29.2538 9.86194 27.2138 8 24.8279 8C22.442 8 20.4021 9.86194 20.1861 12.2245C20.1694 12.3692 20.1614 12.5138 20.1614 12.6665ZM29.4944 21.9995V27.3327H20.1614V21.9995C20.1614 19.7169 21.81 17.815 23.9793 17.4144L22.844 22.5215C22.8047 22.6988 22.8393 22.8848 22.94 23.0355L24.2733 25.0354C24.3973 25.2214 24.6053 25.3328 24.8279 25.3328C25.0506 25.3328 25.2586 25.2214 25.3826 25.0361L26.7159 23.0362C26.8165 22.8848 26.8512 22.6995 26.8119 22.5222L25.6766 17.415C27.8458 17.815 29.4944 19.7169 29.4944 21.9995ZM24.2073 22.5328L24.8279 19.7396L25.4486 22.5328L24.8279 23.4642L24.2073 22.5328ZM24.8279 9.33329C26.2425 9.33329 27.4752 10.2566 27.9465 11.5479C27.0159 10.9806 25.9399 10.6666 24.8279 10.6666C23.7146 10.6666 22.6373 10.9819 21.706 11.5505C22.1733 10.2613 23.4093 9.33329 24.8279 9.33329ZM24.8279 11.9999C26.0492 11.9999 27.2138 12.4839 28.0785 13.3298C27.7692 14.8684 26.4285 15.9997 24.8279 15.9997C23.232 15.9997 21.8947 14.8751 21.578 13.3292C22.4427 12.4839 23.6073 11.9999 24.8279 11.9999Z" fill="#535353"/>
<path d="M24.1602 4H25.4934V6.66658H24.1602V4Z" fill="#535353"/>
<path d="M28.4688 7.41602L30.3543 5.53046L31.2971 6.47324L29.4115 8.35879L28.4688 7.41602Z" fill="#535353"/>
<path d="M18.3555 6.58789L19.2982 5.64511L21.1838 7.53067L20.241 8.47345L18.3555 6.58789Z" fill="#535353"/>
<path d="M12.8281 16.6663C12.4607 16.6663 12.1614 16.367 12.1614 15.9997H10.8281C10.8281 16.8676 11.3874 17.6009 12.1614 17.8769V18.6662H13.4947V17.8769C14.2687 17.6009 14.828 16.8676 14.828 15.9997C14.828 14.897 13.9307 13.9997 12.8281 13.9997C12.4607 13.9997 12.1614 13.7004 12.1614 13.3331C12.1614 12.9658 12.4607 12.6664 12.8281 12.6664C13.1954 12.6664 13.4947 12.9658 13.4947 13.3331H14.828C14.828 12.4651 14.2687 11.7318 13.4947 11.4558V10.6665H12.1614V11.4558C11.3874 11.7318 10.8281 12.4651 10.8281 13.3331C10.8281 14.4357 11.7254 15.333 12.8281 15.333C13.1954 15.333 13.4947 15.6323 13.4947 15.9997C13.4947 16.367 13.1954 16.6663 12.8281 16.6663Z" fill="#535353"/>
<path d="M36.1613 13.6082L37.6899 15.1368C37.8226 15.2695 38.0053 15.3388 38.1913 15.3315C38.3786 15.3228 38.5533 15.2361 38.6733 15.0921L41.3925 11.8296L42.2758 12.7129C42.4018 12.8396 42.5725 12.9082 42.7471 12.9082C42.7984 12.9082 42.8498 12.9022 42.9004 12.8902C43.1251 12.8369 43.3064 12.6716 43.3798 12.4522L44.7937 8.20971C44.8737 7.97039 44.811 7.70573 44.6324 7.52773C44.4537 7.34841 44.1897 7.28641 43.9504 7.36641L39.7079 8.78036C39.4886 8.85369 39.3232 9.03502 39.2699 9.25968C39.2166 9.48433 39.2839 9.72099 39.4472 9.88432L40.4459 10.883L38.1166 13.6782L36.6327 12.1942C36.372 11.9336 35.9507 11.9336 35.69 12.1942L33.0234 14.8608L33.9661 15.8035L36.1613 13.6082ZM43.1071 9.05302L42.4558 11.0076L41.1525 9.70433L43.1071 9.05302Z" fill="#535353"/>
<path d="M24.1602 32.666H25.4934V36.6659H24.1602V32.666Z" fill="#535353"/>
<path d="M27.4961 30H28.8294V32.6666H27.4961V30Z" fill="#535353"/>
<path d="M20.8281 30H22.1614V33.9999H20.8281V30Z" fill="#535353"/>
</svg>
