<svg width="49" height="48" viewBox="0 0 49 48" fill="none" xmlns="http://www.w3.org/2000/svg">
<path d="M10.8669 35.6998C11.0996 35.898 11.2853 36.1454 11.4105 36.4242C11.5358 36.703 11.5973 37.0062 11.5908 37.3118V40.4053C11.5971 41.3634 11.9831 42.2798 12.6642 42.9537C13.3453 43.6275 14.2659 44.0037 15.2239 43.9997H16.3448C17.3029 44.0037 18.2234 43.6275 18.9045 42.9537C19.5856 42.2798 19.9716 41.3634 19.9779 40.4053V37.3118C19.9764 36.9978 20.0443 36.6873 20.1768 36.4026C20.3093 36.1179 20.5031 35.866 20.7444 35.6649C21.5956 34.9617 22.2847 34.0829 22.7646 33.0886C23.2446 32.0943 23.5039 31.008 23.5249 29.9042C23.5459 28.8003 23.3281 27.705 22.8863 26.6931C22.4446 25.6813 21.7893 24.7769 20.9655 24.0419C20.1471 23.3131 19.1845 22.7647 18.1403 22.4324C17.0961 22.1 15.9936 21.9911 14.9045 22.1127C13.398 22.2743 11.9729 22.8779 10.8086 23.8475C9.6443 24.8171 8.79277 26.1094 8.36117 27.5617C7.92957 29.0141 7.93718 30.5617 8.38305 32.0098C8.82891 33.4579 9.69311 34.7418 10.8669 35.6998H10.8669ZM16.3448 42.7094H15.2239C14.6218 42.7095 14.0425 42.4786 13.6056 42.0642H17.9632C17.5262 42.4786 16.9469 42.7095 16.3448 42.7094ZM18.6876 40.4053C18.6851 40.529 18.6725 40.6523 18.6497 40.7739H12.919C12.8963 40.6523 12.8836 40.529 12.8811 40.4053V40.1287H18.6876V40.4053ZM9.36456 29.1169C9.51642 27.6581 10.1627 26.2951 11.1962 25.2543C12.2296 24.2136 13.588 23.5576 15.0456 23.3955C15.2941 23.368 15.5439 23.3542 15.7938 23.3542C17.1136 23.3442 18.4041 23.7428 19.4882 24.4954C20.5724 25.2479 21.3971 26.3176 21.8492 27.5575C22.3013 28.7974 22.3586 30.1469 22.0132 31.4207C21.6679 32.6945 20.9368 33.8302 19.9203 34.6719C19.533 34.9939 19.2216 35.3975 19.0085 35.8539C18.7954 36.3103 18.6858 36.8081 18.6876 37.3118V38.8384H12.8811V37.3118C12.8881 36.8151 12.7843 36.323 12.5772 35.8714C12.3701 35.4198 12.065 35.0201 11.6841 34.7012C10.8666 34.0341 10.2271 33.175 9.82233 32.2006C9.41761 31.2262 9.26035 30.1668 9.36456 29.1169Z" fill="#535353"/>
<path d="M15.1386 34.29V34.9678H16.429V34.29C16.9937 34.2096 17.5069 33.918 17.865 33.4741C18.2232 33.0301 18.3996 32.4668 18.3586 31.8978C18.3177 31.3289 18.0625 30.7966 17.6445 30.4085C17.2265 30.0204 16.6768 29.8052 16.1064 29.8065H15.4612C15.2045 29.8065 14.9584 29.7046 14.7769 29.5231C14.5954 29.3416 14.4935 29.0954 14.4935 28.8388C14.4935 28.5821 14.5954 28.336 14.7769 28.1545C14.9584 27.973 15.2045 27.871 15.4612 27.871H16.1064C16.3629 27.8713 16.6089 27.9734 16.7904 28.1548C16.9718 28.3362 17.0738 28.5822 17.0741 28.8388V29.1614H18.3644V28.8388C18.3628 28.2972 18.1664 27.7743 17.811 27.3657C17.4556 26.9571 16.965 26.69 16.429 26.6133V25.9355H15.1386V26.6133C14.5739 26.6937 14.0607 26.9853 13.7025 27.4293C13.3444 27.8733 13.168 28.4366 13.2089 29.0055C13.2499 29.5745 13.5051 30.1067 13.9231 30.4949C14.3411 30.883 14.8908 31.0981 15.4612 31.0968H16.1064C16.363 31.0968 16.6092 31.1988 16.7907 31.3803C16.9722 31.5618 17.0741 31.8079 17.0741 32.0646C17.0741 32.3212 16.9722 32.5674 16.7907 32.7489C16.6092 32.9304 16.363 33.0323 16.1064 33.0323H15.4612C15.2046 33.032 14.9586 32.93 14.7772 32.7486C14.5958 32.5671 14.4937 32.3212 14.4935 32.0646V31.742H13.2031V32.0646C13.2047 32.6061 13.4012 33.129 13.7566 33.5376C14.112 33.9463 14.6025 34.2133 15.1386 34.29Z" fill="#535353"/>
<path d="M36.4306 11.0977C35.8564 11.0977 35.2951 11.2679 34.8176 11.5869C34.3402 11.9059 33.9681 12.3594 33.7483 12.8899C33.5286 13.4204 33.4711 14.0041 33.5831 14.5673C33.6952 15.1304 33.9717 15.6477 34.3777 16.0538C34.7837 16.4598 35.301 16.7363 35.8642 16.8483C36.4274 16.9603 37.0111 16.9028 37.5416 16.6831C38.0721 16.4634 38.5255 16.0913 38.8445 15.6138C39.1635 15.1364 39.3338 14.5751 39.3338 14.0009C39.333 13.2312 39.0268 12.4932 38.4825 11.9489C37.9383 11.4046 37.2003 11.0985 36.4306 11.0977ZM36.4306 15.6138C36.1116 15.6138 35.7997 15.5192 35.5345 15.342C35.2692 15.1647 35.0625 14.9128 34.9404 14.6181C34.8184 14.3234 34.7864 13.9991 34.8487 13.6862C34.9109 13.3733 35.0645 13.086 35.2901 12.8604C35.5156 12.6348 35.803 12.4812 36.1159 12.419C36.4288 12.3567 36.7531 12.3887 37.0478 12.5108C37.3425 12.6328 37.5944 12.8396 37.7717 13.1048C37.9489 13.37 38.0435 13.6819 38.0435 14.0009C38.043 14.4285 37.8729 14.8385 37.5705 15.1408C37.2681 15.4432 36.8582 15.6133 36.4306 15.6138Z" fill="#535353"/>
<path d="M42.204 14.023C41.9198 9.63613 39.732 4 36.4301 4C33.1281 4 30.9403 9.63613 30.6561 14.023L28.232 16.4471C28.111 16.5681 28.043 16.7321 28.043 16.9032V22.0645C28.0429 22.186 28.0772 22.3051 28.1419 22.408C28.2066 22.5109 28.299 22.5934 28.4086 22.646C28.5181 22.6987 28.6403 22.7193 28.761 22.7055C28.8818 22.6918 28.9962 22.6442 29.091 22.5682L31.8101 20.3929C32.0582 20.893 32.3536 21.3683 32.692 21.8122C32.7523 21.8907 32.8298 21.9543 32.9186 21.998C33.0073 22.0418 33.105 22.0645 33.2039 22.0645H39.728C39.8289 22.0645 39.9283 22.0408 40.0184 21.9954C40.1084 21.95 40.1866 21.8841 40.2465 21.803C40.5396 21.4004 40.797 20.9731 41.0159 20.5258L43.7877 22.5827C43.8837 22.6539 43.9976 22.697 44.1166 22.7072C44.2357 22.7175 44.3553 22.6945 44.462 22.6407C44.5688 22.587 44.6585 22.5047 44.7212 22.4029C44.7839 22.3012 44.8171 22.184 44.8172 22.0645V16.9032C44.8171 16.7321 44.7491 16.5681 44.6281 16.4471L42.204 14.023ZM29.3333 20.7222V17.1704L30.654 15.8496C30.7192 16.9737 30.9362 18.0838 31.2992 19.1496L29.3333 20.7222ZM36.4301 5.29032C37.3486 5.29032 38.2872 6.16872 39.0707 7.52684C37.3278 7.8781 35.5324 7.8781 33.7895 7.52684C34.5729 6.16872 35.5115 5.29032 36.4301 5.29032ZM39.3931 20.7742H33.5309C32.4184 19.0462 31.8547 17.022 31.9139 14.9677C31.9266 12.8176 32.3638 10.6912 33.2004 8.71046C34.2584 8.96311 35.3423 9.09064 36.4301 9.09041C37.5178 9.09064 38.6018 8.96311 39.6597 8.71046C40.4963 10.6912 40.9335 12.8176 40.9462 14.9677C40.9965 17.0122 40.4573 19.0279 39.3931 20.7742ZM43.5268 20.7824L41.5273 19.2985C41.9088 18.185 42.1373 17.0248 42.2063 15.8498L43.5268 17.1704V20.7824Z" fill="#535353"/>
<path d="M33.2031 22.709H34.4934V26.58H33.2031V22.709Z" fill="#535353"/>
<path d="M35.7852 24H37.0755V27.871H35.7852V24Z" fill="#535353"/>
<path d="M38.3633 22.709H39.6536V26.58H38.3633V22.709Z" fill="#535353"/>
<path d="M23.338 39.2949L28.0911 34.5419L30.8661 36.7618C30.9957 36.8659 31.1605 36.9158 31.3261 36.9011C31.4917 36.8864 31.6452 36.8083 31.7545 36.6831L36.2706 31.5218L35.2997 30.6719L31.1899 35.3688L28.4461 33.1738C28.3222 33.0746 28.166 33.0246 28.0075 33.0334C27.849 33.0421 27.6993 33.1091 27.5871 33.2214L22.4258 38.3827L23.338 39.2949Z" fill="#535353"/>
<path d="M15.1406 18.8379H16.4309V20.7734H15.1406V18.8379Z" fill="#535353"/>
<path d="M24.8164 29.1621H26.7519V30.4524H24.8164V29.1621Z" fill="#535353"/>
<path d="M22.3438 22.9766L23.7123 21.608L24.6247 22.5204L23.2561 23.889L22.3438 22.9766Z" fill="#535353"/>
<path d="M6.9375 22.5195L7.8499 21.6071L9.21849 22.9757L8.30609 23.8881L6.9375 22.5195Z" fill="#535353"/>
<path d="M4.81641 29.1621H6.75189V30.4524H4.81641V29.1621Z" fill="#535353"/>
</svg>
