<svg width="49" height="48" viewBox="0 0 49 48" fill="none" xmlns="http://www.w3.org/2000/svg">
<path d="M44.6129 14.6691H25.4168L44.5071 12.6562C44.6392 12.6423 44.7673 12.6025 44.884 12.5391C45.0007 12.4756 45.1038 12.3899 45.1873 12.2866C45.2709 12.1833 45.3333 12.0646 45.371 11.9373C45.4087 11.8099 45.4209 11.6763 45.407 11.5443L45.0888 8.52681C45.0192 7.86635 44.8202 7.22608 44.5031 6.64255C44.186 6.05902 43.7571 5.54366 43.2408 5.12589C42.7246 4.70813 42.1311 4.39614 41.4943 4.20775C40.8574 4.01935 40.1897 3.95824 39.5293 4.02789L9.35423 7.20957C8.02108 7.35184 6.79879 8.01703 5.95542 9.05925C5.11205 10.1015 4.71646 11.4356 4.85541 12.7691L5.16831 15.7344V38.943C5.16985 40.2837 5.70309 41.569 6.65107 42.517C7.59905 43.4651 8.88436 43.9984 10.225 44H40.5674C41.9081 43.9985 43.1935 43.4652 44.1415 42.5171C45.0896 41.5691 45.6228 40.2837 45.6244 38.943V15.6806C45.6244 15.4123 45.5178 15.1551 45.3281 14.9654C45.1385 14.7757 44.8812 14.6691 44.6129 14.6691ZM43.6016 21.749H34.6752L39.0098 16.692H43.6016V21.749ZM21.1738 7.99733L26.0148 12.572L18.6059 13.3532L13.765 8.77855L21.1738 7.99733ZM31.2322 6.93677L36.0729 11.5116L28.6641 12.2928L23.8232 7.71799L31.2322 6.93677ZM7.19082 16.6919H16.1173L11.7827 21.7489H7.19082V16.6919ZM18.7816 16.6919H26.2315L21.8968 21.7489H14.4469L18.7816 16.6919ZM28.8957 16.6919H36.3456L32.0108 21.749H24.561L28.8957 16.6919ZM39.7415 6.03959C39.8491 6.02826 39.9573 6.02256 40.0655 6.02252C40.8141 6.02412 41.5358 6.30237 42.0917 6.80379C42.6476 7.3052 42.9986 7.99441 43.0771 8.73892L43.2893 10.7505L38.7227 11.232L33.8816 6.65753L39.7415 6.03959ZM9.56643 9.22126L11.1155 9.05789L15.9565 13.6326L7.07922 14.5686L6.8672 12.557C6.78369 11.7569 7.02099 10.9563 7.52702 10.331C8.03306 9.70561 8.7665 9.30652 9.56643 9.22126ZM43.6016 38.943C43.6007 39.7474 43.2807 40.5187 42.7119 41.0875C42.143 41.6563 41.3718 41.9763 40.5674 41.9772H10.225C9.4206 41.9763 8.64936 41.6563 8.08052 41.0875C7.51169 40.5187 7.19172 39.7474 7.19082 38.943V23.7718H43.6016V38.943Z" fill="#535353"/>
<path d="M21.3388 39.3049C21.6418 39.4823 21.9865 39.5757 22.3375 39.5757C22.6885 39.5757 23.0332 39.4823 23.3362 39.3049L31.4784 34.6041C31.782 34.4288 32.0342 34.1766 32.2095 33.873C32.3848 33.5693 32.4771 33.2249 32.4771 32.8743C32.4771 32.5236 32.3848 32.1792 32.2095 31.8756C32.0342 31.5719 31.782 31.3198 31.4784 31.1445L23.3362 26.4436C23.0325 26.2682 22.6881 26.1758 22.3374 26.1758C21.9868 26.1757 21.6423 26.268 21.3386 26.4433C21.0349 26.6186 20.7828 26.8708 20.6074 27.1745C20.4321 27.4782 20.3398 27.8226 20.3399 28.1733V37.575C20.3378 37.9261 20.4292 38.2714 20.6048 38.5754C20.7803 38.8795 21.0337 39.1313 21.3388 39.3049ZM22.3629 28.2176L30.4288 32.8743L22.3629 37.5309V28.2176Z" fill="#535353"/>
</svg>
