<svg width="49" height="48" viewBox="0 0 49 48" fill="none" xmlns="http://www.w3.org/2000/svg">
<path d="M28.0115 18.9609L42.8061 21.8997C43.9984 22.1516 44.8045 23.1592 44.8045 24.3515V41.4803C44.8045 42.8741 43.6794 43.9993 42.2856 43.9993H27.1719C27.6421 43.9993 28.0115 43.6298 28.0115 43.1596V42.32H42.2856C42.739 42.32 43.1252 41.9505 43.1252 41.4803V24.3515C43.1252 23.9652 42.8565 23.6126 42.4703 23.5286L28.0115 20.6738V18.9609Z" fill="#535353"/>
<path d="M37.2451 27.207C37.7153 27.207 38.0848 27.5765 38.0848 28.0467C38.0848 28.5169 37.7153 28.8863 37.2451 28.8863H33.8865C33.4163 28.8863 33.0469 28.5169 33.0469 28.0467C33.0469 27.5765 33.4163 27.207 33.8865 27.207H37.2451Z" fill="#535353"/>
<path d="M37.2451 32.2441C37.7153 32.2441 38.0848 32.6136 38.0848 33.0838C38.0848 33.554 37.7153 33.9234 37.2451 33.9234H33.8865C33.4163 33.9234 33.0469 33.554 33.0469 33.0838C33.0469 32.6136 33.4163 32.2441 33.8865 32.2441H37.2451Z" fill="#535353"/>
<path d="M37.2451 37.2832C37.7153 37.2832 38.0848 37.6526 38.0848 38.1229C38.0848 38.5931 37.7153 38.9625 37.2451 38.9625H33.8865C33.4163 38.9625 33.0469 38.5931 33.0469 38.1229C33.0469 37.6526 33.4163 37.2832 33.8865 37.2832H37.2451Z" fill="#535353"/>
<path d="M28.0113 43.1601C28.0113 43.6303 27.6419 43.9998 27.1717 43.9998C26.7015 43.9998 26.332 43.6303 26.332 43.1601V42.3205V19.6499C26.332 19.398 26.4496 19.1629 26.6343 18.995C26.8358 18.8439 27.0877 18.7767 27.3396 18.8271L28.0113 18.9614V20.6743V42.3205V43.1601Z" fill="#535353"/>
<path d="M26.3307 42.3208V43.1604C26.3307 43.6307 26.7001 44.0001 27.1703 44.0001H20.4531C20.9233 44.0001 21.2928 43.6307 21.2928 43.1604V42.3208H26.3307Z" fill="#535353"/>
<path d="M22.1318 12.0938C22.602 12.0938 22.9715 12.4632 22.9715 12.9334C22.9715 13.4036 22.602 13.773 22.1318 13.773H18.7732C18.303 13.773 17.9336 13.4036 17.9336 12.9334C17.9336 12.4632 18.303 12.0938 18.7732 12.0938H22.1318Z" fill="#535353"/>
<path d="M22.9715 17.9705C22.9715 18.4407 22.602 18.8102 22.1318 18.8102H18.7732C18.303 18.8102 17.9336 18.4407 17.9336 17.9705C17.9336 17.5003 18.303 17.1309 18.7732 17.1309H22.1318C22.602 17.1309 22.9715 17.5003 22.9715 17.9705Z" fill="#535353"/>
<path d="M22.1318 22.1699C22.602 22.1699 22.9715 22.5394 22.9715 23.0096C22.9715 23.4798 22.602 23.8492 22.1318 23.8492H18.7732C18.303 23.8492 17.9336 23.4798 17.9336 23.0096C17.9336 22.5394 18.303 22.1699 18.7732 22.1699H22.1318Z" fill="#535353"/>
<path d="M22.1318 27.207C22.602 27.207 22.9715 27.5765 22.9715 28.0467C22.9715 28.5169 22.602 28.8863 22.1318 28.8863H18.7732C18.303 28.8863 17.9336 28.5169 17.9336 28.0467C17.9336 27.5765 18.303 27.207 18.7732 27.207H22.1318Z" fill="#535353"/>
<path d="M14.577 28.0467C14.577 28.5169 14.2075 28.8863 13.7373 28.8863H10.3787C9.90851 28.8863 9.53906 28.5169 9.53906 28.0467C9.53906 27.5765 9.90851 27.207 10.3787 27.207H13.7373C14.2075 27.207 14.577 27.5765 14.577 28.0467Z" fill="#535353"/>
<path d="M13.7373 12.0938C14.2075 12.0938 14.577 12.4632 14.577 12.9334C14.577 13.4036 14.2075 13.773 13.7373 13.773H10.3787C9.90851 13.773 9.53906 13.4036 9.53906 12.9334C9.53906 12.4632 9.90851 12.0938 10.3787 12.0938H13.7373Z" fill="#535353"/>
<path d="M13.7373 17.1309C14.2075 17.1309 14.577 17.5003 14.577 17.9705C14.577 18.4407 14.2075 18.8102 13.7373 18.8102H10.3787C9.90851 18.8102 9.53906 18.4407 9.53906 17.9705C9.53906 17.5003 9.90851 17.1309 10.3787 17.1309H13.7373Z" fill="#535353"/>
<path d="M13.7373 22.1699C14.2075 22.1699 14.577 22.5394 14.577 23.0096C14.577 23.4798 14.2075 23.8492 13.7373 23.8492H10.3787C9.90851 23.8492 9.53906 23.4798 9.53906 23.0096C9.53906 22.5394 9.90851 22.1699 10.3787 22.1699H13.7373Z" fill="#535353"/>
<path d="M19.6152 34.7631C19.6152 34.2929 19.229 33.9234 18.7756 33.9234H13.7377C13.2675 33.9234 12.898 34.2929 12.898 34.7631V42.3199H11.2188V34.7631C11.2188 33.3693 12.3439 32.2441 13.7377 32.2441H18.7756C20.1694 32.2441 21.2945 33.3693 21.2945 34.7631V42.3199H19.6152V34.7631Z" fill="#535353"/>
<path d="M12.898 42.3203H19.6152H21.2945V43.16C21.2945 43.6302 20.9251 43.9996 20.4549 43.9996H12.0584C11.5882 43.9996 11.2188 43.6302 11.2188 43.16V42.3203H12.898Z" fill="#535353"/>
<path d="M7.43877 4.03269L25.8943 6.83712C27.1202 7.03864 28.0102 8.0798 28.0102 9.32248V18.9617L27.3385 18.8273C27.0866 18.7769 26.8347 18.8441 26.6332 18.9952C26.4484 19.1632 26.3309 19.3983 26.3309 19.6502V9.32248C26.3309 8.90266 26.0286 8.55001 25.6256 8.48283L7.17008 5.6952C7.11971 5.67841 7.06933 5.67841 7.01895 5.67841C6.81743 5.67841 6.63271 5.74558 6.48157 5.87992C6.28006 6.04785 6.1793 6.26616 6.1793 6.51806V41.481C6.1793 41.9513 6.56554 42.3207 7.01895 42.3207H11.2172V43.1603C11.2172 43.6306 11.5866 44 12.0568 44H7.01895C5.62513 44 4.5 42.8749 4.5 41.481V6.51806C4.5 5.77916 4.81907 5.07386 5.39003 4.60366C5.96099 4.11666 6.69988 3.91514 7.43877 4.03269Z" fill="#535353"/>
</svg>
