<svg width="49" height="48" viewBox="0 0 49 48" fill="none" xmlns="http://www.w3.org/2000/svg">
<path d="M45.2817 24.4266L40.2609 19.4057C40.0411 19.1859 39.7431 19.0624 39.4323 19.0624H33.6416L26.7969 12.2178V11.3646H33.1563C33.8034 11.3646 34.3281 10.8399 34.3281 10.1927V5.17188C34.3281 4.52469 33.8034 4 33.1563 4H25.625C24.9778 4 24.4531 4.52469 24.4531 5.17188V12.2178L17.6084 19.0625H11.8177C11.5069 19.0625 11.2089 19.1859 10.9891 19.4058L5.96827 24.4266C5.63311 24.7617 5.53288 25.2657 5.71421 25.7037C5.89561 26.1416 6.32296 26.4271 6.79686 26.4271H6.88022V42.8281C6.88022 43.4753 7.40491 44 8.0521 44H43.1979C43.8451 44 44.3698 43.4753 44.3698 42.8281V26.427H44.4531C44.9271 26.427 45.3545 26.1416 45.5358 25.7036C45.7171 25.2657 45.6169 24.7617 45.2817 24.4266ZM41.6239 24.0833H34.3281V21.4062H38.9469L41.6239 24.0833ZM31.9844 9.02086H26.7969V6.34375H31.9844V9.02086ZM12.3031 21.4062H16.9219V24.0834H9.62608L12.3031 21.4062ZM9.22397 26.427H16.9219V41.6562H9.22397V26.427ZM19.2656 20.7198L25.625 14.3605L31.9844 20.7198V41.6562H29.3073V36.5521C29.3073 35.9049 28.7826 35.3802 28.1354 35.3802H23.1145C22.4673 35.3802 21.9427 35.9049 21.9427 36.5521V41.6562H19.2656V20.7198ZM24.2865 41.6562V37.724H26.9636V41.6562H24.2865ZM42.026 41.6562H34.3281V26.427H42.026V41.6562Z" fill="#535353"/>
<path d="M13.0742 35.3809C12.427 35.3809 11.9023 35.9055 11.9023 36.5527V37.8079C11.9023 38.4551 12.427 38.9798 13.0742 38.9798C13.7214 38.9798 14.2461 38.4551 14.2461 37.8079V36.5527C14.2461 35.9055 13.7214 35.3809 13.0742 35.3809Z" fill="#535353"/>
<path d="M38.1758 38.9798C38.823 38.9798 39.3477 38.4551 39.3477 37.8079V36.5527C39.3477 35.9055 38.823 35.3809 38.1758 35.3809C37.5286 35.3809 37.0039 35.9055 37.0039 36.5527V37.8079C37.0039 38.4552 37.5285 38.9798 38.1758 38.9798Z" fill="#535353"/>
<path d="M13.0742 29.1035C12.427 29.1035 11.9023 29.6282 11.9023 30.2754V31.5306C11.9023 32.1778 12.427 32.7025 13.0742 32.7025C13.7214 32.7025 14.2461 32.1778 14.2461 31.5306V30.2754C14.2461 29.6282 13.7214 29.1035 13.0742 29.1035Z" fill="#535353"/>
<path d="M38.1758 32.7025C38.823 32.7025 39.3477 32.1778 39.3477 31.5306V30.2754C39.3477 29.6282 38.823 29.1035 38.1758 29.1035C37.5286 29.1035 37.0039 29.6282 37.0039 30.2754V31.5306C37.0039 32.1779 37.5285 32.7025 38.1758 32.7025Z" fill="#535353"/>
<path d="M23.1133 32.7025C23.7605 32.7025 24.2852 32.1778 24.2852 31.5306V30.2754C24.2852 29.6282 23.7605 29.1035 23.1133 29.1035C22.4661 29.1035 21.9414 29.6282 21.9414 30.2754V31.5306C21.9414 32.1779 22.4661 32.7025 23.1133 32.7025Z" fill="#535353"/>
<path d="M28.1367 29.1035C27.4895 29.1035 26.9648 29.6282 26.9648 30.2754V31.5306C26.9648 32.1778 27.4895 32.7025 28.1367 32.7025C28.7839 32.7025 29.3086 32.1778 29.3086 31.5306V30.2754C29.3086 29.6282 28.7839 29.1035 28.1367 29.1035Z" fill="#535353"/>
<path d="M25.6237 26.427C27.6541 26.427 29.3059 24.7752 29.3059 22.7448C29.3059 20.7144 27.6541 19.0625 25.6237 19.0625C23.5933 19.0625 21.9414 20.7145 21.9414 22.7448C21.9414 24.7752 23.5933 26.427 25.6237 26.427ZM25.6237 21.4063C26.3617 21.4063 26.9622 22.0068 26.9622 22.7448C26.9622 23.4829 26.3617 24.0834 25.6237 24.0834C24.8856 24.0834 24.2852 23.4829 24.2852 22.7448C24.2852 22.0068 24.8856 21.4063 25.6237 21.4063Z" fill="#535353"/>
</svg>
