<svg width="245" height="106" viewBox="0 0 245 106" fill="none" xmlns="http://www.w3.org/2000/svg">
<rect width="245" height="105.977" rx="6.83721" fill="#313131"/>
<g clip-path="url(#clip0_2796_14156)">
<path d="M52.8398 36.8178C52.8398 30.7591 57.0062 27.7297 65.339 27.7297C73.6925 27.7297 77.8693 30.7591 77.8693 36.8178V42.6404H69.1574V36.8166C69.1574 34.8754 67.895 33.8975 65.3702 33.8831H65.309C62.805 33.8831 61.553 34.861 61.553 36.8166V40.7427C61.553 42.6695 64.273 45.0299 69.713 47.8239C75.1529 50.6027 77.8729 53.9338 77.8729 57.8171V63.2872C77.8729 69.3611 73.7065 72.398 65.3738 72.398C57.0202 72.3829 52.8435 69.3459 52.8435 63.2872V57.4635H61.5554V63.2872C61.5554 65.2436 62.8278 66.2215 65.3726 66.2207C67.8974 66.2207 69.1598 65.2428 69.1598 63.2872V58.3446C69.1598 56.2571 66.4398 53.8159 60.9998 51.0211C55.5598 48.2415 52.8398 44.8593 52.8398 40.8745V36.8178Z" fill="#1A987C"/>
<path d="M166.228 27.6985V51.0978C166.228 52.9835 164.965 54.6942 162.922 55.9265C161.682 56.6538 160.334 57.1798 158.929 57.485V72.4459H150.957V57.485C146.692 56.5091 143.656 54.0168 143.656 51.093V27.6985H151.787V51.0594C151.787 52.1143 153.201 52.9703 154.947 52.9703C156.693 52.9703 158.108 52.1143 158.108 51.0594V27.6985H166.228Z" fill="#1A987C"/>
<path d="M182.019 27.6985C175.949 27.6985 171.027 30.4377 171.027 33.8195V72.4543H178.94V57.4873C179.959 57.6499 180.989 57.7301 182.02 57.7271C184.72 57.7822 187.39 57.1664 189.792 55.9349C191.78 54.8284 193.01 53.2975 193.01 51.606V33.8195C193.01 30.4377 188.089 27.6985 182.019 27.6985ZM185.097 46.8109C185.097 46.8205 185.097 46.8289 185.097 46.8385C185.097 46.848 185.097 46.8564 185.097 46.866V51.8482C185.097 52.7941 183.717 53.5601 182.019 53.5601C181.263 53.5765 180.515 53.4043 179.842 53.059C179.597 52.9562 179.384 52.7897 179.225 52.5768C179.066 52.3638 178.968 52.1123 178.939 51.8482V33.6829C178.939 32.737 180.319 31.971 182.019 31.971C182.775 31.9549 183.522 32.1272 184.194 32.4721C184.439 32.5747 184.652 32.7412 184.811 32.9542C184.97 33.1671 185.069 33.4188 185.097 33.6829V46.8109Z" fill="#1A987C"/>
<path d="M108.593 27.6985V33.7752H99.3193V72.4519H91.3478V33.7752H82.0742V27.6985H108.593Z" fill="#1A987C"/>
<path d="M138.824 36.3916C138.525 31.5677 132.974 27.7219 126.168 27.7219C119.361 27.7219 113.808 31.5677 113.511 36.3916H113.497V42.7296L109.973 41.2431C109.978 43.4809 109.984 45.7186 109.991 47.9564L113.497 49.4069V63.2039C113.497 68.2184 119.169 72.2823 126.168 72.2823C133.165 72.2823 138.838 68.2184 138.838 63.2039V57.3046H129.719V63.4952C129.719 64.899 128.13 66.0366 126.171 66.0366C124.212 66.0366 122.624 64.899 122.624 63.4952V56.1633C122.624 56.1489 122.624 56.1358 122.624 56.1226C122.624 56.1094 122.624 56.1022 122.624 56.0926C122.624 56.083 122.624 56.0734 122.624 56.0626C122.624 56.0518 122.624 56.0363 122.624 56.0219V53.514C123.791 53.7553 124.98 53.8758 126.171 53.8736V53.8736C131.976 53.8736 136.865 51.0768 138.365 47.2623H138.378V47.2251C138.681 46.4511 138.838 45.6275 138.84 44.7964V36.3928L138.824 36.3916ZM126.168 47.6867C125.671 47.6879 125.177 47.6107 124.705 47.4577L123.943 47.1364L122.623 46.5178V37.7534C122.623 37.7403 122.623 37.7271 122.623 37.7127C122.623 37.6983 122.623 37.6863 122.623 37.6719V36.6002C122.623 35.1964 124.212 34.0575 126.17 34.0575C128.13 34.0575 129.717 35.1952 129.717 36.6002V37.6707C129.717 37.6851 129.717 37.6971 129.717 37.7115C129.717 37.7259 129.717 37.739 129.717 37.7522V45.144C129.716 46.5502 128.129 47.6867 126.169 47.6867H126.168Z" fill="url(#paint0_linear_2796_14156)"/>
</g>
<defs>
<linearGradient id="paint0_linear_2796_14156" x1="113.956" y1="43.0507" x2="140.883" y2="49.4814" gradientUnits="userSpaceOnUse">
<stop stop-color="#89C739"/>
<stop offset="0.414" stop-color="#6DBE4D"/>
<stop offset="1" stop-color="#1A987C"/>
</linearGradient>
<clipPath id="clip0_2796_14156">
<rect width="141" height="45" fill="white" transform="translate(52.418 27.3489)"/>
</clipPath>
</defs>
</svg>
