<svg width="113" height="250" viewBox="0 0 113 250" fill="none" xmlns="http://www.w3.org/2000/svg">
<path d="M1.59844 34.5608L0.0103282 6.08923C0.0103282 6.08923 18.0293 1.72566 33.1839 25.0275C48.3385 48.3294 93.6323 119.989 100.535 129.844C107.438 139.698 110.634 139.116 110.634 139.116L112.116 165.686C112.116 165.686 93.9986 167.987 83.9969 153.685C73.9952 139.382 8.34296 39.2628 8.34296 39.2628C7.58726 37.9588 6.59146 36.8098 5.40791 35.877C4.26264 35.1376 2.95574 34.6862 1.59844 34.5608Z" fill="#EEE514"/>
<path d="M27.7843 138.842C47.0978 136.664 58.4892 153.807 58.4892 153.807C58.4892 153.807 94.2794 209.498 96.554 212.764C98.8286 216.03 103.359 217.152 103.359 217.152L104.97 246.034C104.97 246.034 85.9438 244.84 78.8852 235.698C71.8266 226.555 39.7009 175.857 36.5608 171.67C35.7411 170.482 34.676 169.485 33.437 168.746C32.198 168.007 30.8143 167.544 29.3803 167.387L27.7881 138.843" fill="#00DC82"/>
</svg>
