<svg width="979" height="1074" viewBox="0 0 979 1074" fill="none" xmlns="http://www.w3.org/2000/svg">
<path d="M972.734 666.636C972.639 666.658 972.542 666.681 972.443 666.706C971.041 667.063 969.114 667.859 966.641 669.547C961.714 672.909 954.504 679.888 944.803 694.349C933.355 711.412 884.13 791.975 837.187 868.804C805.073 921.363 774.026 972.174 756.873 999.713C735.97 1033.27 713.216 1046.74 695.866 1051.89C687.168 1054.48 679.775 1054.99 674.579 1054.87C671.981 1054.8 669.934 1054.58 668.55 1054.37C668.397 1054.35 668.252 1054.33 668.115 1054.31L672.364 974.775C675.869 974.187 679.221 972.847 682.206 970.835L682.284 970.782L682.357 970.722C685.841 967.855 688.769 964.331 690.994 960.338L690.999 960.329L691.098 960.171L691.492 959.545L693.029 957.097C694.377 954.951 696.358 951.799 698.889 947.771C703.952 939.715 711.215 928.161 720.018 914.166C737.625 886.176 761.391 848.421 786.028 809.365C835.315 731.234 888.059 647.945 901.99 627.145C915.575 606.862 934.665 598.336 950.45 594.879C958.346 593.149 965.391 592.695 970.458 592.672C972.99 592.661 975.023 592.758 976.415 592.857C976.504 592.864 976.59 592.87 976.674 592.876L972.734 666.636Z" stroke="white" stroke-opacity="0.07" stroke-width="4"/>
<mask id="path-2-inside-1_1986_12767" fill="white">
<path d="M0.00602987 306.696C51.0446 312.704 81.148 265.404 81.148 265.404C81.148 265.404 175.729 111.741 181.74 102.729C187.751 93.7175 199.722 90.6229 199.722 90.6229L203.979 10.9334C203.979 10.9334 153.701 14.2258 135.047 39.4517C116.394 64.6776 31.4972 204.564 23.1991 216.116C21.0331 219.393 18.2185 222.144 14.9442 224.183C11.6699 226.222 8.01324 227.502 4.22359 227.935L0.0161733 306.691"/>
</mask>
<path d="M81.148 265.404L84.5241 267.564L84.5401 267.539L84.5558 267.514L81.148 265.404ZM199.722 90.6229L200.74 94.4971L203.56 93.7682L203.715 90.8556L199.722 90.6229ZM203.979 10.9334L207.973 11.1661L208.214 6.64516L203.699 6.94083L203.979 10.9334ZM23.1991 216.116L19.948 213.771L19.903 213.833L19.8604 213.898L23.1991 216.116ZM4.22359 227.935L3.75139 223.959L0.409927 224.341L0.230365 227.702L4.22359 227.935ZM-0.442359 310.669C26.4885 313.84 47.8079 302.912 62.216 291.438C69.4272 285.695 74.9743 279.767 78.7224 275.273C80.599 273.022 82.0317 271.123 83.0032 269.773C83.4892 269.099 83.8603 268.561 84.1144 268.184C84.2414 267.996 84.3393 267.848 84.4076 267.744C84.4418 267.692 84.4686 267.651 84.488 267.62C84.4978 267.605 84.5056 267.593 84.5116 267.584C84.5146 267.579 84.5172 267.575 84.5192 267.572C84.5203 267.57 84.5215 267.568 84.522 267.568C84.5231 267.566 84.5241 267.564 81.148 265.404C77.7719 263.243 77.7726 263.242 77.7733 263.241C77.7733 263.241 77.7738 263.24 77.774 263.24C77.7742 263.239 77.774 263.24 77.7733 263.241C77.772 263.243 77.7688 263.248 77.7639 263.256C77.754 263.271 77.7368 263.297 77.7125 263.334C77.6638 263.409 77.5864 263.526 77.4805 263.683C77.2687 263.996 76.9432 264.469 76.5063 265.075C75.6322 266.289 74.3144 268.038 72.5713 270.128C69.08 274.315 63.9115 279.836 57.2169 285.168C43.8138 295.841 24.5622 305.56 0.454418 302.722L-0.442359 310.669ZM81.148 265.404C84.5558 267.514 84.5561 267.513 84.5569 267.512C84.5576 267.511 84.5587 267.509 84.5601 267.507C84.563 267.502 84.5673 267.495 84.573 267.486C84.5844 267.467 84.6016 267.439 84.6243 267.402C84.6698 267.328 84.7376 267.218 84.8272 267.073C85.0063 266.782 85.2722 266.35 85.6193 265.786C86.3134 264.658 87.3323 263.003 88.6312 260.894C91.229 256.675 94.9469 250.637 99.4272 243.364C108.388 228.818 120.398 209.33 132.595 189.56C157.031 149.955 182.116 109.39 185.069 104.961L178.41 100.497C175.353 105.081 150.142 145.853 125.784 185.332C113.585 205.105 101.574 224.595 92.6131 239.142C88.1325 246.416 84.4143 252.453 81.8163 256.673C80.5172 258.783 79.4982 260.438 78.804 261.566C78.4569 262.129 78.1909 262.562 78.0118 262.853C77.9222 262.998 77.8543 263.108 77.8088 263.182C77.786 263.219 77.7689 263.247 77.7574 263.266C77.7517 263.275 77.7474 263.282 77.7445 263.287C77.7431 263.289 77.742 263.291 77.7413 263.292C77.7405 263.293 77.7402 263.294 81.148 265.404ZM185.069 104.961C187.543 101.253 191.367 98.6129 194.808 96.8668C196.497 96.0093 198.019 95.4057 199.109 95.0195C199.652 94.8271 200.082 94.6906 200.367 94.6049C200.509 94.5621 200.614 94.5321 200.677 94.5143C200.709 94.5055 200.731 94.4996 200.741 94.4968C200.747 94.4953 200.749 94.4947 200.749 94.4947C200.749 94.4947 200.748 94.495 200.747 94.4954C200.746 94.4956 200.745 94.4958 200.744 94.4961C200.743 94.4962 200.742 94.4965 200.742 94.4965C200.741 94.4968 200.74 94.4971 199.722 90.6229C198.704 86.7487 198.703 86.749 198.702 86.7493C198.702 86.7494 198.7 86.7498 198.699 86.75C198.698 86.7505 198.696 86.751 198.693 86.7516C198.689 86.7527 198.684 86.7541 198.678 86.7556C198.666 86.7587 198.652 86.7626 198.634 86.7673C198.599 86.7767 198.553 86.7894 198.495 86.8054C198.381 86.8373 198.223 86.8826 198.026 86.942C197.632 87.0608 197.08 87.2364 196.407 87.4749C195.064 87.9507 193.217 88.6839 191.163 89.7265C187.115 91.7807 181.948 95.1935 178.41 100.497L185.069 104.961ZM203.715 90.8556L207.973 11.1661L199.986 10.7006L195.729 90.3902L203.715 90.8556ZM203.979 10.9334C203.699 6.94083 203.698 6.9409 203.697 6.94099C203.696 6.94103 203.695 6.94113 203.693 6.94122C203.69 6.94141 203.687 6.94164 203.683 6.94193C203.674 6.94251 203.662 6.9433 203.648 6.94432C203.618 6.94635 203.577 6.94926 203.524 6.95314C203.418 6.9609 203.265 6.9725 203.068 6.98853C202.673 7.02057 202.101 7.0703 201.371 7.14234C199.912 7.28638 197.82 7.5198 195.257 7.87967C190.139 8.59847 183.106 9.82641 175.461 11.8666C160.402 15.8849 142.007 23.2976 131.829 37.062L138.266 41.8414C146.741 30.38 162.812 23.5335 177.556 19.5991C184.812 17.6629 191.515 16.4911 196.406 15.8043C198.849 15.4613 200.831 15.2404 202.194 15.1059C202.876 15.0386 203.402 14.993 203.753 14.9645C203.928 14.9502 204.06 14.9403 204.145 14.934C204.188 14.9309 204.219 14.9287 204.238 14.9274C204.248 14.9267 204.254 14.9263 204.258 14.926C204.26 14.9259 204.261 14.9258 204.261 14.9258C204.261 14.9258 204.261 14.9258 204.261 14.9258C204.26 14.9259 204.26 14.9259 203.979 10.9334ZM131.829 37.062C122.379 49.8411 96.3759 91.3122 71.8413 130.787C47.1578 170.501 23.9938 208.139 19.948 213.771L26.4501 218.461C30.7025 212.542 54.1359 174.46 78.6387 135.036C103.29 95.3734 129.062 54.2883 138.266 41.8414L131.829 37.062ZM19.8604 213.898C18.0034 216.707 15.5994 219.052 12.8191 220.784L17.0693 227.583C20.8375 225.236 24.0628 222.078 26.5378 218.334L19.8604 213.898ZM12.8191 220.784C10.0393 222.515 6.94611 223.595 3.75139 223.959L4.69579 231.91C9.08037 231.409 13.3005 229.93 17.0693 227.583L12.8191 220.784ZM0.230365 227.702L-3.97705 306.458L4.0094 306.924L8.21681 228.167L0.230365 227.702Z" fill="white" fill-opacity="0.07" mask="url(#path-2-inside-1_1986_12767)"/>
</svg>
