<svg width="159" height="57" viewBox="0 0 159 57" fill="none" xmlns="http://www.w3.org/2000/svg">
<rect width="159" height="57" fill="white"/>
<g clip-path="url(#clip0_2789_13628)">
<path fill-rule="evenodd" clip-rule="evenodd" d="M114.22 8.68794C114.427 8.18822 114.531 7.65141 114.525 7.11018C114.53 6.56721 114.424 6.02908 114.213 5.52864C114.004 5.0282 113.694 4.57595 113.304 4.19951C112.538 3.43116 111.499 2.99951 110.415 2.99951C109.332 2.99951 108.293 3.43116 107.527 4.19951C107.14 4.57716 106.833 5.03007 106.627 5.53053C106.42 6.03099 106.317 6.56848 106.324 7.11018C106.318 7.65118 106.421 8.18788 106.628 8.6876C106.834 9.18735 107.14 9.63967 107.527 10.017C107.9 10.3983 108.344 10.7022 108.834 10.9113C109.324 11.1203 109.851 11.2304 110.383 11.2354C110.916 11.2403 111.444 11.14 111.938 10.9401C112.433 10.7402 112.882 10.4446 113.262 10.0703L113.319 10.017C113.706 9.63986 114.013 9.18766 114.22 8.68794ZM10.5033 20.1529V29.642C10.4503 30.6297 10.7869 31.5987 11.4402 32.3396C11.7786 32.6766 12.1837 32.9387 12.6292 33.1091C13.0748 33.2794 13.551 33.3543 14.0272 33.3288C14.7194 33.3223 15.4083 33.2329 16.0793 33.0625L18.8408 37.2478C16.7361 38.1595 14.4723 38.6443 12.1799 38.6745C9.35769 38.6745 7.16774 37.9428 5.60997 36.4792C4.0522 35.0156 3.27334 32.8596 3.27334 30.0111V20.1187H-0.0078125V18.7375L9.60425 7.93197H10.507V15.1991H18.8825V20.1453L10.5033 20.1529ZM149.802 34.3675C149.799 34.4334 149.799 34.4995 149.802 34.5654V34.3675ZM149.802 34.5654V34.7937C149.806 34.7797 149.808 34.7662 149.81 34.753V34.8127C149.817 35.0277 149.844 35.2416 149.89 35.4519C149.901 35.5225 149.916 35.5923 149.935 35.6612C149.953 35.7396 149.974 35.817 150 35.8933C150.022 35.9693 150.045 36.0454 150.075 36.1215C150.125 36.2395 150.182 36.3726 150.242 36.502C150.273 36.5667 150.307 36.6314 150.341 36.6961C150.816 37.5689 151.567 38.2586 152.475 38.6564C153.384 39.0543 154.399 39.1378 155.36 38.8937C156.321 38.6497 157.174 38.092 157.784 37.3084C158.395 36.5248 158.728 35.5598 158.732 34.5654C158.719 34.2663 158.676 33.9692 158.603 33.6789C158.598 33.6525 158.589 33.6203 158.581 33.5899C158.571 33.5502 158.561 33.5134 158.561 33.4962V33.4658C158.542 33.3935 158.523 33.3212 158.5 33.2527C158.457 33.113 158.407 32.9758 158.349 32.8418C158.322 32.7733 158.303 32.7277 158.261 32.644C158.22 32.5603 158.178 32.4804 158.132 32.4005C158.127 32.3883 158.121 32.3768 158.113 32.3662C158.06 32.2673 158 32.1722 157.939 32.0809C157.777 31.8443 157.594 31.6228 157.393 31.4188C157.292 31.3166 157.186 31.2201 157.074 31.1297C156.983 31.0536 156.888 30.9813 156.789 30.9128L156.706 30.8557C156.523 30.7325 156.33 30.6243 156.129 30.5323L155.932 30.4448L155.727 30.3687C155.65 30.3382 155.57 30.3128 155.488 30.2926L155.287 30.2394C155.088 30.19 154.885 30.1557 154.68 30.1366H154.631C154.575 30.1329 154.52 30.1329 154.464 30.1366H154.036C153.983 30.1329 153.929 30.1329 153.876 30.1366H153.838C152.771 30.2445 151.778 30.7326 151.039 31.5124C150.299 32.2922 149.863 33.3119 149.81 34.3866V34.6554C149.809 34.6454 149.808 34.6357 149.807 34.6263C149.805 34.6045 149.802 34.5842 149.802 34.5654ZM144.272 38.5909V23.4746C144.272 20.5348 143.45 18.2773 141.806 16.7021C140.987 15.9179 140.02 15.3049 138.963 14.8986C137.905 14.4923 136.778 14.3009 135.646 14.3355C132.707 14.3355 130.143 15.6278 127.953 18.2126V14.853H120.492V38.5795H127.938V23.2615C129.633 20.6514 131.365 19.3464 133.135 19.3464C135.593 19.3464 136.822 20.9343 136.822 24.11V38.5909H144.272ZM114.169 18.3761V38.5795H106.503V14.8491H110.349C111.311 14.847 112.239 15.2089 112.947 15.8626C113.655 16.5164 114.091 17.414 114.169 18.3761ZM98.9957 32.1607C98.9957 33.2565 99.3902 33.8044 100.179 33.8044C100.779 33.8044 101.705 33.3643 102.96 32.4841V36.5438C100.532 37.9541 98.256 38.6593 96.1318 38.6593C93.8456 38.6567 92.4877 37.7867 92.0579 36.0492C89.524 37.7892 86.981 38.6593 84.4297 38.6593C82.739 38.6975 81.0977 38.0848 79.8437 36.9471C79.2572 36.4617 78.7838 35.8537 78.4561 35.1656C78.1287 34.4775 77.9546 33.726 77.947 32.9635C77.947 30.9445 78.5968 29.3148 79.8968 28.0744C81.1963 26.834 85.1337 25.236 91.7089 23.2804C91.8731 20.688 90.5315 19.3919 87.6843 19.3919C84.5913 19.3919 81.7463 20.688 79.1495 23.2804V17.3259C82.1583 15.4465 85.6382 14.4647 89.1826 14.4952C95.7244 14.4977 98.9957 16.8541 98.9957 21.5644V32.1607ZM87.6653 34.3485C89.0385 34.3485 90.3786 33.7638 91.6861 32.5945V26.9292C89.2509 27.7839 87.5792 28.5538 86.6715 29.2386C86.2444 29.5314 85.8961 29.9258 85.6587 30.3867C85.4209 30.8476 85.301 31.3604 85.3097 31.8791C85.304 32.2001 85.3617 32.519 85.4796 32.8174C85.5972 33.1158 85.7729 33.3879 85.9963 33.618C86.2072 33.851 86.4651 34.0366 86.7527 34.1625C87.0406 34.2884 87.3512 34.3518 87.6653 34.3485ZM75.6066 14.8376H61.5413C58.097 14.8376 55.4736 15.7089 53.6703 17.4515C51.8674 19.1941 50.9646 21.2068 50.9619 23.4897C50.9388 25.2784 51.6204 27.0039 52.8586 28.2913C54.1228 29.6392 55.7998 30.5245 57.6229 30.8062C54.7476 31.4607 53.3099 32.6604 53.3099 34.4055C53.3099 35.897 54.2621 36.9269 56.1663 37.495C51.9558 38.6314 49.8505 40.6428 49.8505 43.5294C49.8505 45.6068 50.9202 47.2745 53.0596 48.5327C55.199 49.7909 58.3413 50.4248 62.4858 50.4351C66.5472 50.4351 69.6527 49.7567 71.802 48.3995C73.9516 47.0424 75.0251 45.0639 75.0224 42.4641C75.0224 40.8356 74.3905 39.3137 73.1258 37.8983C71.8615 36.483 69.6224 35.6383 66.408 35.3644C63.1875 35.0904 61.3478 34.8203 60.8775 34.5577C60.6768 34.4713 60.5046 34.3297 60.3802 34.1493C60.2561 33.9689 60.1852 33.7571 60.1757 33.5381C60.1738 33.3371 60.222 33.1387 60.3161 32.9613C60.4101 32.7838 60.5471 32.6329 60.7144 32.5222C61.0736 32.2685 62.5909 31.9933 65.2662 31.6965C67.942 31.3998 69.9649 30.474 71.3354 28.9191C72.6338 27.5354 73.3663 25.713 73.3876 23.8131C73.3568 22.4145 72.951 21.0501 72.2117 19.8637H75.5952L75.6066 14.8376ZM62.372 40.3828C66.2335 40.3828 68.1643 41.2542 68.1643 42.9968C68.1643 43.8213 67.6712 44.5251 66.6849 45.1084C65.4991 45.743 64.1666 46.0501 62.8234 45.9987C58.7624 45.9987 56.7315 45.0677 56.7315 43.206C56.7315 42.35 57.2322 41.6841 58.2487 41.1476C59.2653 40.6111 60.6157 40.3828 62.372 40.3828ZM65.2055 26.5335C64.8289 26.957 64.3665 27.295 63.8491 27.5246C63.3317 27.7543 62.771 27.8704 62.2051 27.8651C61.6399 27.8719 61.0789 27.7626 60.5569 27.5441C60.0354 27.3256 59.5635 27.0024 59.1705 26.5943C58.7646 26.2075 58.4418 25.7411 58.2226 25.2241C58.0033 24.7071 57.8922 24.1504 57.896 23.5886C57.8846 23.0198 57.9878 22.4546 58.1994 21.9269C58.4115 21.3992 58.7275 20.92 59.1288 20.5181C59.9428 19.7206 61.0326 19.2691 62.1702 19.2577C63.3082 19.2464 64.4063 19.6761 65.2359 20.4572C65.6266 20.8272 65.9365 21.2747 66.1455 21.7712C66.3545 22.2677 66.4581 22.8024 66.4497 23.3413C66.4706 24.5282 66.0237 25.6754 65.2055 26.5335ZM34.4385 14.3354C38.0824 14.3304 41.0714 15.558 43.4058 18.0185C45.7371 20.4814 46.8296 23.7725 46.6832 27.8919H29.6818C29.8284 30.0479 30.5871 31.7055 31.9577 32.8647C33.3283 34.0239 35.1668 34.6035 37.4731 34.6035C39.6319 34.5504 41.7428 33.9566 43.6144 32.8761L46.2394 35.9199C43.402 37.9923 39.8906 39.0284 35.7054 39.0284C31.5379 39.0284 28.2087 37.9073 25.7178 35.665C23.227 33.4227 21.9815 30.4563 21.9815 26.7656C21.9815 23.1409 23.1511 20.1605 25.4902 17.8244C27.8117 15.5035 30.7945 14.3405 34.4385 14.3354ZM34.9581 18.787C31.9033 18.787 30.1926 20.5131 29.8259 23.9653H40.0943C39.7047 20.5131 37.9929 18.787 34.9581 18.787Z" fill="url(#paint0_linear_2789_13628)"/>
</g>
<defs>
<linearGradient id="paint0_linear_2789_13628" x1="-10.6694" y1="2.99951" x2="158.814" y2="52.987" gradientUnits="userSpaceOnUse">
<stop stop-color="#194479"/>
<stop offset="1" stop-color="#4AB4E7"/>
</linearGradient>
<clipPath id="clip0_2789_13628">
<rect width="158.785" height="51.2413" fill="white" transform="translate(0 3)"/>
</clipPath>
</defs>
</svg>
