<svg width="23" height="22" viewBox="0 0 23 22" fill="none" xmlns="http://www.w3.org/2000/svg">
<path d="M7.14268 8.9223L5.65287 10.4121L10.4417 15.2001L21.0843 4.55747L19.5945 3.06766L10.4417 12.2205L7.14268 8.9223ZM20.02 10.9446C20.02 12.6286 19.5207 14.2747 18.5852 15.6748C17.6496 17.075 16.3199 18.1662 14.7641 18.8107C13.2084 19.4551 11.4965 19.6237 9.84491 19.2952C8.19333 18.9666 6.67626 18.1558 5.48554 16.965C4.29482 15.7743 3.48393 14.2572 3.15541 12.6057C2.82689 10.9541 2.9955 9.24218 3.63991 7.68643C4.28433 6.13068 5.3756 4.80096 6.77574 3.86542C8.17588 2.92987 9.82199 2.43053 11.5059 2.43053C12.2976 2.42396 13.0862 2.5307 13.8476 2.74751L15.5498 1.04691C14.2501 0.584864 12.885 0.333394 11.5059 0.302002C9.40101 0.302002 7.34337 0.926182 5.59319 2.09561C3.84302 3.26504 2.47893 4.92719 1.67341 6.87188C0.867893 8.81657 0.657133 10.9564 1.06778 13.0209C1.47843 15.0854 2.49204 16.9817 3.98044 18.4701C5.46884 19.9585 7.36518 20.9721 9.42965 21.3828C11.4941 21.7934 13.634 21.5827 15.5787 20.7772C17.5234 19.9716 19.1855 18.6076 20.355 16.8574C21.5244 15.1072 22.1486 13.0496 22.1486 10.9446H20.02Z" fill="#0FA76F"/>
</svg>
