<svg width="169" height="47" viewBox="0 0 169 47" fill="none" xmlns="http://www.w3.org/2000/svg">
<rect y="0.519287" width="169" height="46" rx="6" fill="#F1F5EB"/>
<path d="M26.36 16.4773H30.824V28.5193H33.038V16.4773H37.52V14.4253H26.36V16.4773ZM42.821 18.8713C42.695 18.8353 42.533 18.8173 42.299 18.8173C41.129 18.8173 40.247 19.3573 39.653 20.4373V18.9073H37.565V28.5193H39.707V23.6413C39.707 21.9673 40.571 21.0133 42.209 21.0133C42.443 21.0133 42.641 21.0313 42.821 21.0673V18.8713ZM44.7034 16.7833C45.2614 17.3413 46.1254 17.3413 46.6834 16.7833C47.2414 16.2253 47.2414 15.3613 46.6834 14.8033C46.1254 14.2273 45.2614 14.2273 44.7034 14.8033C44.1454 15.3613 44.1454 16.2253 44.7034 16.7833ZM46.7734 18.9073H44.6314V28.5193H46.7734V18.9073ZM59.6672 23.6773C59.6672 22.3993 59.2352 21.2473 58.3532 20.2393C57.4892 19.2313 56.3552 18.7273 54.9512 18.7273C54.3932 18.7273 53.7992 18.8713 53.1692 19.1593C52.5392 19.4293 52.0892 19.8253 51.7832 20.3293V13.8673H49.6412V28.5193H51.7292V27.0433C52.0352 27.5473 52.5032 27.9433 53.1332 28.2313C53.7632 28.5193 54.3572 28.6633 54.8972 28.6633C56.2832 28.6633 57.4172 28.1773 58.3172 27.1873C59.2172 26.1973 59.6672 25.0273 59.6672 23.6773ZM52.5392 21.5353C53.0792 20.9413 53.7812 20.6533 54.6272 20.6533C55.4732 20.6533 56.1752 20.9413 56.6972 21.5353C57.2372 22.1293 57.5072 22.8493 57.5072 23.6953C57.5072 24.5413 57.2372 25.2613 56.6972 25.8553C56.1752 26.4313 55.4732 26.7193 54.6272 26.7193C53.7812 26.7193 53.0792 26.4313 52.5392 25.8553C52.0172 25.2613 51.7472 24.5413 51.7472 23.6953C51.7472 22.8493 52.0172 22.1293 52.5392 21.5353ZM67.3831 22.0033C67.3831 22.5433 67.0771 22.8133 66.4831 22.8133H65.2951C63.6031 22.8133 61.2991 23.5153 61.2991 25.7473V25.8553C61.2991 26.6833 61.6051 27.3673 62.2171 27.8893C62.8291 28.4113 63.6031 28.6813 64.5391 28.6813C65.8351 28.6813 66.7711 28.1953 67.3651 27.2053V28.5193H69.4711V22.3993C69.4711 21.7333 69.3631 21.1573 69.1471 20.6713C68.5531 19.3573 67.3471 18.7093 65.5471 18.7093C63.5851 18.7093 62.2171 19.5193 61.4611 21.1573L63.0991 22.0933C63.5851 21.0673 64.3951 20.5633 65.4931 20.5633C66.6991 20.5633 67.3831 21.2113 67.3831 22.0033ZM67.3651 24.6313C67.3651 26.0713 66.4291 26.9713 64.9711 26.9713C64.0531 26.9713 63.4411 26.4493 63.4411 25.6573C63.4411 25.2433 63.6391 24.9193 64.0171 24.6853C64.4131 24.4513 64.8451 24.3253 65.2951 24.3253H67.3651V24.6313ZM72.2466 28.5193H74.3886V13.8673H72.2466V28.5193ZM82.3625 28.5193H84.5765V14.4253H82.3625V28.5193ZM86.7233 16.4773H91.1873V28.5193H93.4013V16.4773H97.8833V14.4253H86.7233V16.4773ZM114.06 18.7993C114.06 17.5933 113.646 16.5493 112.818 15.7033C112.008 14.8573 110.766 14.4253 109.128 14.4253H104.142V28.5193H106.356V23.2993H108.858C110.496 23.2993 111.756 22.8673 112.674 22.0213C113.592 21.1573 114.06 20.0773 114.06 18.7993ZM108.93 16.4773C109.974 16.4773 110.712 16.7113 111.144 17.1793C111.594 17.6473 111.81 18.2053 111.81 18.8533C111.81 20.1493 110.892 21.2653 108.93 21.2653H106.356V16.4773H108.93ZM121.295 22.0033C121.295 22.5433 120.989 22.8133 120.395 22.8133H119.207C117.515 22.8133 115.211 23.5153 115.211 25.7473V25.8553C115.211 26.6833 115.517 27.3673 116.129 27.8893C116.741 28.4113 117.515 28.6813 118.451 28.6813C119.747 28.6813 120.683 28.1953 121.277 27.2053V28.5193H123.383V22.3993C123.383 21.7333 123.275 21.1573 123.059 20.6713C122.465 19.3573 121.259 18.7093 119.459 18.7093C117.497 18.7093 116.129 19.5193 115.373 21.1573L117.011 22.0933C117.497 21.0673 118.307 20.5633 119.405 20.5633C120.611 20.5633 121.295 21.2113 121.295 22.0033ZM121.277 24.6313C121.277 26.0713 120.341 26.9713 118.883 26.9713C117.965 26.9713 117.353 26.4493 117.353 25.6573C117.353 25.2433 117.551 24.9193 117.929 24.6853C118.325 24.4513 118.757 24.3253 119.207 24.3253H121.277V24.6313ZM131.415 18.8713C131.289 18.8353 131.127 18.8173 130.893 18.8173C129.723 18.8173 128.841 19.3573 128.247 20.4373V18.9073H126.159V28.5193H128.301V23.6413C128.301 21.9673 129.165 21.0133 130.803 21.0133C131.037 21.0133 131.235 21.0313 131.415 21.0673V18.8713ZM133.225 28.5193H135.367V23.8213H135.421L139.435 28.5193H142.261L137.689 23.2633L142.027 18.9073H139.111L135.385 22.6873H135.367V13.8673H133.225V28.5193Z" fill="url(#paint0_linear_2266_4641)"/>
<defs>
<linearGradient id="paint0_linear_2266_4641" x1="84.5" y1="10.5193" x2="84.5" y2="36.5193" gradientUnits="userSpaceOnUse">
<stop stop-color="#0FA76F"/>
<stop offset="1" stop-color="#0B6846"/>
</linearGradient>
</defs>
</svg>
