<svg width="283" height="14" viewBox="0 0 283 14" fill="none" xmlns="http://www.w3.org/2000/svg">
<path d="M283 9.06475V8.80288C282.134 8.6119 281.216 8.54325 280.306 8.60144C281.553 7.99712 281.553 7.71511 280.43 7.5036C277.361 6.91191 274.191 6.57356 270.994 6.4964C268.812 6.45171 266.667 6.10862 264.699 5.48921L274.011 6.04317L274.104 5.66043C271.691 5.30391 269.25 5.03492 266.792 4.85468C259.266 4.53237 251.832 3.6259 244.336 3.20288C236.255 2.74964 228.174 2.31655 220.094 1.87338C208.765 1.25899 197.375 1.42014 186.047 0.866187C180.629 0.62446 175.272 0.523741 169.793 0.36259C169.377 0.36259 168.885 0.433094 168.592 0.120863H146.259C144.176 0.484512 141.989 0.512161 139.887 0.201439C141.381 0.298191 142.89 0.230099 144.35 0L137.439 0C137.891 0.0738609 138.337 0.134293 138.778 0.181295H128.189C125.911 0.684892 123.571 0.332374 121.262 0.392806C109.226 0.463309 97.2357 0.976978 85.1993 1.06763C73.8863 1.1482 62.604 1.76259 51.3372 2.50791C43.3334 3.04173 35.2989 3.51511 27.3567 4.3813C19.8762 5.18705 12.3496 5.77122 5.31554 7.92662C4.25351 8.25899 2.92981 8.15827 1.82159 8.77266C2.63736 9.18561 3.48391 8.64173 4.29968 8.93381C3.46852 9.53813 2.22178 9.68921 1.22131 10.1022C0.697988 10.3237 -0.0716046 10.5151 0.00535466 10.9583C0.0823139 11.4014 0.928866 11.4417 1.54454 11.5424L9.02498 12.8014C8.51705 12.9827 8.27078 13.0835 7.99373 13.164C7.71667 13.2446 6.97787 13.3554 7.05482 13.6777C7.13178 14 7.87059 13.9799 8.33235 13.9698C13.3193 13.8086 18.3063 13.7381 23.2624 13.4158C31.2816 12.9122 39.3315 12.6604 47.3661 12.4086C55.4006 12.1568 63.1427 12.0863 70.9772 11.8748C75.841 11.7741 80.751 12.0158 85.661 11.9252C89.432 11.8547 93.203 11.9252 97.0048 11.9252C97.0048 11.1295 95.989 11.482 95.7581 11.0187L160.111 10.4547C161.081 10.4547 162.097 10.7065 163.067 10.1424C162.095 10.0095 161.095 9.98566 160.111 10.0719C158.08 9.93094 155.986 10.2734 153.955 9.76978H147.105C149.368 9.18561 151.723 9.50791 153.924 9.60863C160.45 9.44237 166.986 9.50289 173.502 9.78993C173.718 9.78993 174.041 9.78993 173.903 10.0619C173.895 10.1424 173.895 10.2231 173.903 10.3036C182.645 10.1827 191.372 10.6158 200.069 10.9583C206.441 11.2101 212.844 11.3914 219.216 11.3914C229.067 11.3914 238.902 11.6633 248.738 11.7338C249.679 11.7378 250.617 11.6565 251.524 11.4921C250.169 10.9381 248.615 11.3813 247.214 11.1194C246.367 10.9583 244.767 11.2906 244.797 10.6561C244.828 10.0216 246.444 10.2835 247.322 10.3036C251.939 10.3942 256.464 10.636 261.036 10.6863C263.206 10.6863 265.392 10.4647 267.593 10.4345C264.703 10.1577 261.786 10.0264 258.866 10.0417C258.204 10.0417 257.45 10.2331 256.911 9.8C258.008 9.85604 259.112 9.77049 260.158 9.5482C258.331 9.30576 256.462 9.22782 254.602 9.31655H246.306V9.06475H283ZM226.05 5.39856C225.311 5.39856 224.511 5.22734 223.818 5.49928C223.526 5.61007 223.018 5.73094 222.926 5.38849C222.926 5.25755 223.418 5.07626 223.68 4.92518C225.539 4.82753 227.409 4.90213 229.236 5.14676C228.2 5.35125 227.115 5.42977 226.035 5.37842L226.05 5.39856Z" fill="#FECB35"/>
</svg>
