<svg width="208" height="14" viewBox="0 0 208 14" fill="none" xmlns="http://www.w3.org/2000/svg">
<path d="M208 9.06475V8.80288C207.363 8.6119 206.689 8.54325 206.02 8.60144C206.937 7.99712 206.937 7.71511 206.111 7.5036C203.855 6.91191 201.526 6.57356 199.176 6.4964C197.572 6.45171 195.996 6.10862 194.549 5.48921L201.393 6.04317L201.461 5.66043C199.688 5.30391 197.894 5.03492 196.088 4.85468C190.556 4.53237 185.092 3.6259 179.582 3.20288C173.643 2.74964 167.704 2.31655 161.765 1.87338C153.439 1.25899 145.067 1.42014 136.741 0.866187C132.759 0.62446 128.822 0.523741 124.795 0.36259C124.489 0.36259 124.127 0.433094 123.912 0.120863H107.498C105.967 0.484512 104.36 0.512161 102.814 0.201439C103.913 0.298191 105.022 0.230099 106.095 0L101.015 0C101.347 0.0738609 101.675 0.134293 102 0.181295H94.2164C92.5422 0.684892 90.8226 0.332374 89.1257 0.392806C80.2791 0.463309 71.4665 0.976978 62.62 1.06763C54.3051 1.1482 46.0129 1.76259 37.7319 2.50791C31.8493 3.04173 25.9441 3.51511 20.1067 4.3813C14.6087 5.18705 9.07675 5.77122 3.90683 7.92662C3.12625 8.25899 2.15336 8.15827 1.33884 8.77266C1.93841 9.18561 2.56062 8.64173 3.16019 8.93381C2.5493 9.53813 1.63297 9.68921 0.897642 10.1022C0.513009 10.3237 -0.0526281 10.5151 0.00393558 10.9583C0.0604993 11.4014 0.6827 11.4417 1.13521 11.5424L6.6332 12.8014C6.25988 12.9827 6.07888 13.0835 5.87525 13.164C5.67162 13.2446 5.12861 13.3554 5.18517 13.6777C5.24173 14 5.78475 13.9799 6.12413 13.9698C9.78946 13.8086 13.4548 13.7381 17.0975 13.4158C22.9914 12.9122 28.908 12.6604 34.8132 12.4086C40.7185 12.1568 46.4088 12.0863 52.167 11.8748C55.7418 11.7741 59.3506 12.0158 62.9593 11.9252C65.731 11.8547 68.5026 11.9252 71.2968 11.9252C71.2968 11.1295 70.5502 11.482 70.3805 11.0187L117.679 10.4547C118.392 10.4547 119.138 10.7065 119.851 10.1424C119.137 10.0095 118.402 9.98566 117.679 10.0719C116.186 9.93094 114.647 10.2734 113.154 9.76978H108.12C109.783 9.18561 111.514 9.50791 113.131 9.60863C117.928 9.44237 122.732 9.50289 127.521 9.78993C127.68 9.78993 127.917 9.78993 127.815 10.0619C127.81 10.1424 127.81 10.2231 127.815 10.3036C134.241 10.1827 140.655 10.6158 147.047 10.9583C151.73 11.2101 156.437 11.3914 161.12 11.3914C168.36 11.3914 175.589 11.6633 182.818 11.7338C183.51 11.7378 184.199 11.6565 184.865 11.4921C183.87 10.9381 182.727 11.3813 181.698 11.1194C181.076 10.9583 179.899 11.2906 179.922 10.6561C179.944 10.0216 181.132 10.2835 181.777 10.3036C185.171 10.3942 188.497 10.636 191.857 10.6863C193.452 10.6863 195.058 10.4647 196.676 10.4345C194.552 10.1577 192.408 10.0264 190.262 10.0417C189.775 10.0417 189.221 10.2331 188.825 9.8C189.631 9.85604 190.442 9.77049 191.212 9.5482C189.869 9.30576 188.495 9.22782 187.128 9.31655H181.03V9.06475H208ZM166.143 5.39856C165.6 5.39856 165.012 5.22734 164.503 5.49928C164.288 5.61007 163.914 5.73094 163.846 5.38849C163.846 5.25755 164.208 5.07626 164.401 4.92518C165.767 4.82753 167.142 4.90213 168.485 5.14676C167.723 5.35125 166.925 5.42977 166.132 5.37842L166.143 5.39856Z" fill="#48AD50"/>
</svg>
