<svg width="166" height="14" viewBox="0 0 166 14" fill="none" xmlns="http://www.w3.org/2000/svg">
<g clip-path="url(#clip0_2447_13362)">
<path d="M165.979 9.73015V9.44906C165.471 9.24406 164.932 9.17037 164.399 9.23283C165.13 8.58415 165.13 8.28144 164.471 8.0544C162.671 7.41928 160.812 7.05609 158.936 6.97327C157.656 6.9253 156.398 6.55703 155.244 5.89215L160.706 6.48677L160.76 6.07594C159.345 5.69325 157.913 5.40451 156.472 5.21104C152.057 4.86508 147.696 3.89206 143.299 3.43799C138.559 2.95148 133.819 2.48659 129.079 2.0109C122.434 1.35141 115.753 1.52439 109.108 0.92977C105.93 0.670299 102.788 0.562186 99.5744 0.389206C99.3306 0.389206 99.0417 0.464885 98.8701 0.129735H85.7699C84.5481 0.520078 83.2655 0.549756 82.0321 0.216226C82.9088 0.32008 83.7938 0.246989 84.6503 0L80.5966 0C80.8614 0.0792827 81.1232 0.14415 81.382 0.194603H75.1705C73.8343 0.735167 72.462 0.356772 71.1077 0.42164C64.0474 0.497319 57.0143 1.04869 49.9541 1.146C43.3182 1.23249 36.7003 1.89197 30.0915 2.69201C25.3967 3.26501 20.6839 3.77314 16.0252 4.70291C11.6374 5.56781 7.22246 6.19486 3.09647 8.50848C2.47351 8.86525 1.69706 8.75713 1.04701 9.41662C1.52552 9.85989 2.02208 9.27608 2.50059 9.5896C2.01306 10.2383 1.28175 10.4004 0.694903 10.8437C0.387936 11.0816 -0.0634857 11.287 -0.0183435 11.7627C0.0267987 12.2384 0.523363 12.2816 0.8845 12.3897L5.27232 13.7411C4.97438 13.9357 4.82993 14.0438 4.66742 14.1303C4.5049 14.2168 4.07154 14.3358 4.11668 14.6817C4.16182 15.0277 4.59519 15.0061 4.86604 14.9952C7.79126 14.8223 10.7165 14.7466 13.6236 14.4006C18.3274 13.8601 23.0493 13.5898 27.7622 13.3195C32.475 13.0492 37.0163 12.9735 41.6118 12.7465C44.4648 12.6384 47.3448 12.8979 50.2249 12.8006C52.4369 12.7249 54.6488 12.8006 56.8789 12.8006C56.8789 11.9465 56.283 12.3249 56.1476 11.8275L93.8955 11.2221C94.4643 11.2221 95.0601 11.4924 95.6289 10.887C95.0589 10.7443 94.4727 10.7187 93.8955 10.8113C92.7037 10.6599 91.4758 11.0275 90.2841 10.4869H86.2664C87.5936 9.85989 88.975 10.2058 90.266 10.314C94.0943 10.1355 97.9277 10.2005 101.75 10.5086C101.877 10.5086 102.066 10.5086 101.985 10.8005C101.98 10.8869 101.98 10.9735 101.985 11.0599C107.113 10.9302 112.232 11.3951 117.333 11.7627C121.071 12.033 124.827 12.2276 128.565 12.2276C134.343 12.2276 140.112 12.5195 145.881 12.5951C146.433 12.5994 146.983 12.5121 147.515 12.3357C146.721 11.741 145.809 12.2167 144.987 11.9357C144.491 11.7627 143.552 12.1194 143.57 11.4383C143.588 10.7572 144.536 11.0383 145.051 11.0599C147.759 11.1572 150.413 11.4167 153.095 11.4708C154.368 11.4708 155.65 11.2329 156.941 11.2005C155.246 10.9034 153.535 10.7624 151.822 10.7788C151.434 10.7788 150.991 10.9843 150.675 10.5194C151.319 10.5795 151.966 10.4877 152.58 10.2491C151.508 9.98885 150.412 9.90519 149.321 10.0004H144.455V9.73015H165.979ZM132.573 5.79484C132.14 5.79484 131.67 5.61105 131.264 5.90296C131.093 6.02188 130.795 6.15162 130.741 5.78403C130.741 5.64349 131.029 5.44888 131.183 5.28671C132.273 5.18189 133.371 5.26197 134.442 5.52456C133.834 5.74406 133.198 5.82834 132.564 5.77322L132.573 5.79484Z" fill="#FECB35"/>
</g>
<defs>
<clipPath id="clip0_2447_13362">
<rect width="166" height="14" fill="white"/>
</clipPath>
</defs>
</svg>
