<svg width="264" height="12" viewBox="0 0 264 12" fill="none" xmlns="http://www.w3.org/2000/svg">
<path d="M250 7.78412V7.55925C249.278 7.39525 248.512 7.33629 247.754 7.38627C248.793 6.86732 248.793 6.62515 247.856 6.44352C245.297 5.93543 242.654 5.64487 239.988 5.57862C238.168 5.54024 236.38 5.24562 234.738 4.71372L242.504 5.18941L242.581 4.86075C240.569 4.5546 238.534 4.32361 236.484 4.16883C230.207 3.89206 224.008 3.11365 217.757 2.75039C211.018 2.36118 204.28 1.98928 197.541 1.60872C188.094 1.08113 178.595 1.21951 169.148 0.743816C164.63 0.536239 160.164 0.449749 155.594 0.311365C155.248 0.311365 154.837 0.371908 154.593 0.103788H135.968C134.231 0.416062 132.408 0.439805 130.654 0.17298C131.901 0.256064 133.159 0.197592 134.377 0L128.614 0C128.99 0.0634262 129.362 0.11532 129.73 0.155682H120.899C119 0.588134 117.049 0.285418 115.123 0.337312C105.086 0.397855 95.087 0.838955 85.0496 0.916796C75.6154 0.985989 66.2069 1.51358 56.8112 2.15361C50.1367 2.612 43.4365 3.01851 36.8133 3.76232C30.5752 4.45425 24.2986 4.95589 18.4328 6.80678C17.5471 7.0922 16.4432 7.00571 15.5191 7.5333C16.1994 7.88791 16.9053 7.42086 17.5856 7.67168C16.8925 8.19062 15.8528 8.32036 15.0185 8.67497C14.5821 8.86525 13.9403 9.02958 14.0045 9.41014C14.0686 9.79069 14.7746 9.82529 15.288 9.91178L21.5261 10.9929C21.1026 11.1486 20.8972 11.2351 20.6661 11.3043C20.4351 11.3735 19.819 11.4686 19.8832 11.7454C19.9474 12.0221 20.5635 12.0048 20.9485 11.9962C25.1073 11.8578 29.266 11.7973 33.3991 11.5205C40.0864 11.088 46.7994 10.8718 53.4996 10.6556C60.1998 10.4394 66.6561 10.3788 73.1895 10.1972C77.2455 10.1107 81.3401 10.3183 85.4346 10.2404C88.5794 10.1799 91.7241 10.2404 94.8945 10.2404C94.8945 9.55717 94.0473 9.85989 93.8548 9.46203L147.52 8.97769C148.329 8.97769 149.176 9.19391 149.985 8.70957C149.174 8.5954 148.341 8.57493 147.52 8.64902C145.826 8.52794 144.081 8.822 142.386 8.38955H136.674C138.561 7.88791 140.525 8.16468 142.361 8.25117C147.803 8.10839 153.253 8.16036 158.687 8.40685C158.867 8.40685 159.137 8.40685 159.021 8.64037C159.015 8.7095 159.015 8.77882 159.021 8.84795C166.312 8.74416 173.59 9.11607 180.842 9.41014C186.156 9.62636 191.495 9.78204 196.809 9.78204C205.024 9.78204 213.226 10.0156 221.428 10.0761C222.213 10.0796 222.995 10.0097 223.751 9.86853C222.622 9.39284 221.325 9.7734 220.157 9.54852C219.451 9.41014 218.116 9.69555 218.142 9.15067C218.168 8.60578 219.515 8.83065 220.247 8.84795C224.098 8.92579 227.871 9.13337 231.684 9.17661C233.493 9.17661 235.316 8.98633 237.152 8.96039C234.742 8.72269 232.309 8.60992 229.874 8.62308C229.322 8.62308 228.693 8.78741 228.244 8.4155C229.159 8.46362 230.079 8.39016 230.952 8.19927C229.428 7.99108 227.869 7.92415 226.318 8.00035H219.4V7.78412H250ZM202.508 4.63588C201.892 4.63588 201.225 4.48884 200.647 4.72237C200.403 4.81751 199.98 4.92129 199.903 4.62723C199.903 4.51479 200.313 4.35911 200.532 4.22937C202.082 4.14552 203.642 4.20957 205.165 4.41965C204.301 4.59525 203.396 4.66267 202.495 4.61858L202.508 4.63588Z" fill="#55B5E7"/>
</svg>
