<svg width="192" height="14" viewBox="0 0 192 14" fill="none" xmlns="http://www.w3.org/2000/svg">
<g clip-path="url(#clip0_2447_13358)">
<path d="M191.975 8.4328V8.18918C191.387 8.01152 190.764 7.94765 190.147 8.00179C190.993 7.4396 190.993 7.17725 190.231 6.98048C188.149 6.43005 185.998 6.11528 183.829 6.0435C182.349 6.00192 180.894 5.68276 179.558 5.10653L185.876 5.62186L185.939 5.26581C184.302 4.93415 182.646 4.68391 180.979 4.51623C175.872 4.2164 170.828 3.37312 165.743 2.97959C160.261 2.55795 154.778 2.15505 149.296 1.74278C141.61 1.17122 133.883 1.32114 126.197 0.805801C122.521 0.580926 118.887 0.487228 115.17 0.337312C114.888 0.337312 114.554 0.4029 114.355 0.112437H99.2032C97.7901 0.450734 96.3066 0.476456 94.88 0.187395C95.894 0.277403 96.9176 0.214058 97.9083 0L93.2196 0C93.5259 0.0687117 93.8287 0.12493 94.1281 0.168656H86.9436C85.3981 0.637145 83.8109 0.309203 82.2445 0.365421C74.0784 0.43101 65.9437 0.908868 57.7777 0.993196C50.1024 1.06815 42.448 1.63971 34.8041 2.33307C29.374 2.82967 23.923 3.27005 18.5346 4.07585C13.4596 4.82543 8.35315 5.36888 3.58092 7.37401C2.86038 7.68321 1.96232 7.58952 1.21046 8.16107C1.76391 8.54523 2.33825 8.03927 2.89171 8.31099C2.32781 8.87318 1.48197 9.01372 0.803202 9.39788C0.448156 9.60402 -0.0739704 9.78204 -0.0217578 10.1943C0.0304549 10.6066 0.604794 10.6441 1.0225 10.7378L6.09757 11.909C5.75296 12.0776 5.58588 12.1713 5.39792 12.2463C5.20995 12.3213 4.70871 12.4243 4.76092 12.7242C4.81313 13.024 5.31438 13.0052 5.62765 12.9959C9.01103 12.846 12.3944 12.7804 15.7569 12.4805C21.1975 12.0121 26.6589 11.7778 32.1099 11.5436C37.5609 11.3093 42.8135 11.2437 48.1288 11.047C51.4286 10.9533 54.7598 11.1781 58.0909 11.0938C60.6493 11.0282 63.2078 11.0938 65.7871 11.0938C65.7871 10.3536 65.0979 10.6815 64.9412 10.2505L108.601 9.72583C109.259 9.72583 109.949 9.96007 110.606 9.43536C109.947 9.31168 109.269 9.28951 108.601 9.36977C107.223 9.2386 105.803 9.55717 104.424 9.08868H99.7775C101.313 8.54523 102.91 8.84507 104.404 8.93876C108.831 8.78409 113.265 8.84039 117.686 9.10742C117.833 9.10742 118.052 9.10742 117.958 9.3604C117.953 9.43529 117.953 9.51039 117.958 9.58528C123.889 9.47284 129.81 9.87574 135.71 10.1943C140.033 10.4286 144.378 10.5972 148.701 10.5972C155.384 10.5972 162.057 10.8502 168.73 10.9158C169.368 10.9195 170.004 10.8438 170.62 10.6909C169.701 10.1756 168.646 10.5878 167.696 10.3442C167.121 10.1943 166.035 10.5035 166.056 9.91322C166.077 9.32293 167.174 9.56654 167.769 9.58528C170.902 9.66961 173.972 9.89448 177.073 9.94133C178.546 9.94133 180.028 9.7352 181.522 9.70709C179.561 9.44958 177.582 9.32741 175.601 9.34167C175.152 9.34167 174.64 9.51969 174.275 9.11679C175.019 9.16893 175.768 9.08934 176.478 8.88255C175.238 8.657 173.97 8.5845 172.708 8.66704H167.08V8.4328H191.975ZM153.337 5.0222C152.836 5.0222 152.293 4.86291 151.823 5.1159C151.625 5.21896 151.28 5.3314 151.217 5.01283C151.217 4.89102 151.552 4.72237 151.729 4.58182C152.99 4.49098 154.259 4.56037 155.499 4.78795C154.796 4.97819 154.059 5.05123 153.327 5.00346L153.337 5.0222Z" fill="#F26211"/>
</g>
<defs>
<clipPath id="clip0_2447_13358">
<rect width="192" height="14" fill="white"/>
</clipPath>
</defs>
</svg>
