<svg width="227" height="14" viewBox="0 0 227 14" fill="none" xmlns="http://www.w3.org/2000/svg">
<path d="M227 9.06475V8.80288C226.305 8.6119 225.569 8.54325 224.839 8.60144C225.839 7.99712 225.839 7.71511 224.938 7.5036C222.477 6.91191 219.934 6.57356 217.37 6.4964C215.619 6.45171 213.899 6.10862 212.32 5.48921L219.79 6.04317L219.864 5.66043C217.929 5.30391 215.971 5.03492 214 4.85468C207.962 4.53237 201.999 3.6259 195.987 3.20288C189.505 2.74964 183.023 2.31655 176.541 1.87338C167.455 1.25899 158.319 1.42014 149.232 0.866187C144.886 0.62446 140.59 0.523741 136.194 0.36259C135.861 0.36259 135.466 0.433094 135.231 0.120863H117.317C115.646 0.484512 113.892 0.512161 112.206 0.201439C113.405 0.298191 114.615 0.230099 115.786 0L110.243 0C110.605 0.0738609 110.963 0.134293 111.317 0.181295H102.823C100.996 0.684892 99.1189 0.332374 97.267 0.392806C87.6123 0.463309 77.9947 0.976978 68.3401 1.06763C59.2657 1.1482 50.216 1.76259 41.1786 2.50791C34.7586 3.04173 28.3139 3.51511 21.9433 4.3813C15.9431 5.18705 9.90588 5.77122 4.26371 7.92662C3.41182 8.25899 2.35006 8.15827 1.46114 8.77266C2.11548 9.18561 2.79452 8.64173 3.44886 8.93381C2.78217 9.53813 1.78214 9.68921 0.979638 10.1022C0.55987 10.3237 -0.0574355 10.5151 0.00429508 10.9583C0.0660257 11.4014 0.745062 11.4417 1.23891 11.5424L7.23912 12.8014C6.8317 12.9827 6.63416 13.0835 6.41193 13.164C6.1897 13.2446 5.59709 13.3554 5.65882 13.6777C5.72055 14 6.31316 13.9799 6.68354 13.9698C10.6837 13.8086 14.6838 13.7381 18.6593 13.4158C25.0916 12.9122 31.5486 12.6604 37.9933 12.4086C44.438 12.1568 50.6481 12.0863 56.9322 11.8748C60.8336 11.7741 64.772 12.0158 68.7104 11.9252C71.7352 11.8547 74.76 11.9252 77.8095 11.9252C77.8095 11.1295 76.9947 11.482 76.8095 11.0187L128.429 10.4547C129.206 10.4547 130.021 10.7065 130.799 10.1424C130.02 10.0095 129.218 9.98566 128.429 10.0719C126.799 9.93094 125.12 10.2734 123.49 9.76978H117.996C119.811 9.18561 121.7 9.50791 123.465 9.60863C128.7 9.44237 133.943 9.50289 139.17 9.78993C139.343 9.78993 139.602 9.78993 139.491 10.0619C139.485 10.1424 139.485 10.2231 139.491 10.3036C146.503 10.1827 153.504 10.6158 160.479 10.9583C165.59 11.2101 170.726 11.3914 175.838 11.3914C183.739 11.3914 191.628 11.6633 199.518 11.7338C200.273 11.7378 201.025 11.6565 201.752 11.4921C200.666 10.9381 199.419 11.3813 198.295 11.1194C197.616 10.9583 196.332 11.2906 196.357 10.6561C196.382 10.0216 197.678 10.2835 198.382 10.3036C202.086 10.3942 205.715 10.636 209.382 10.6863C211.123 10.6863 212.876 10.4647 214.642 10.4345C212.324 10.1577 209.984 10.0264 207.641 10.0417C207.11 10.0417 206.505 10.2331 206.073 9.8C206.954 9.85604 207.839 9.77049 208.678 9.5482C207.213 9.30576 205.713 9.22782 204.221 9.31655H197.567V9.06475H227ZM181.319 5.39856C180.727 5.39856 180.085 5.22734 179.529 5.49928C179.295 5.61007 178.887 5.73094 178.813 5.38849C178.813 5.25755 179.208 5.07626 179.418 4.92518C180.909 4.82753 182.41 4.90213 183.875 5.14676C183.044 5.35125 182.173 5.42977 181.307 5.37842L181.319 5.39856Z" fill="#F7872A"/>
</svg>
