<svg width="384" height="15" viewBox="0 0 384 15" fill="none" xmlns="http://www.w3.org/2000/svg">
<path d="M384 9.73015V9.44906C382.825 9.24406 381.579 9.17037 380.345 9.23283C382.037 8.58415 382.037 8.28144 380.512 8.0544C376.348 7.41928 372.048 7.05609 367.71 6.97327C364.748 6.9253 361.838 6.55703 359.168 5.89215L371.803 6.48677L371.928 6.07594C368.655 5.69325 365.343 5.40451 362.008 5.21104C351.795 4.86508 341.708 3.89206 331.537 3.43799C320.572 2.95148 309.607 2.48659 298.643 2.0109C283.271 1.35141 267.816 1.52439 252.445 0.92977C245.093 0.670299 237.825 0.562186 230.39 0.389206C229.826 0.389206 229.158 0.464885 228.761 0.129735H198.457C195.631 0.520078 192.664 0.549756 189.811 0.216226C191.839 0.32008 193.886 0.246989 195.867 0L186.49 0C187.103 0.0792827 187.708 0.14415 188.307 0.194603H173.938C170.847 0.735167 167.673 0.356772 164.54 0.42164C148.208 0.497319 131.938 1.04869 115.606 1.146C100.256 1.23249 84.9468 1.89197 69.659 2.69201C58.7987 3.26501 47.8967 3.77314 37.12 4.70291C26.9699 5.56781 16.7571 6.19486 7.21261 8.50848C5.77154 8.86525 3.97543 8.75713 2.4717 9.41662C3.57861 9.85989 4.72729 9.27608 5.8342 9.5896C4.7064 10.2383 3.01471 10.4004 1.65719 10.8437C0.947093 11.0816 -0.0971596 11.287 0.00726568 11.7627C0.111691 12.2384 1.26037 12.2816 2.09577 12.3897L12.2459 13.7411C11.5567 13.9357 11.2225 14.0438 10.8466 14.1303C10.4707 14.2168 9.4682 14.3358 9.57262 14.6817C9.67705 15.0277 10.6795 15.0061 11.3061 14.9952C18.0728 14.8223 24.8396 14.7466 31.5646 14.4006C42.4457 13.8601 53.3686 13.5898 64.2706 13.3195C75.1726 13.0492 85.6778 12.9735 96.3083 12.7465C102.908 12.6384 109.57 12.8979 116.233 12.8006C121.349 12.7249 126.466 12.8006 131.625 12.8006C131.625 11.9465 130.247 12.3249 129.933 11.8275L217.254 11.2221C218.569 11.2221 219.948 11.4924 221.264 10.887C219.945 10.7443 218.589 10.7187 217.254 10.8113C214.497 10.6599 211.656 11.0275 208.9 10.4869H199.606C202.676 9.85989 205.871 10.2058 208.858 10.314C217.714 10.1355 226.581 10.2005 235.424 10.5086C235.716 10.5086 236.155 10.5086 235.967 10.8005C235.956 10.8869 235.956 10.9735 235.967 11.0599C247.829 10.9302 259.671 11.3951 271.471 11.7627C280.118 12.033 288.806 12.2276 297.452 12.2276C310.819 12.2276 324.164 12.5195 337.51 12.5951C338.787 12.5994 340.059 12.5121 341.29 12.3357C339.452 11.741 337.343 12.2167 335.442 11.9357C334.294 11.7627 332.122 12.1194 332.163 11.4383C332.205 10.7572 334.398 11.0383 335.588 11.0599C341.854 11.1572 347.994 11.4167 354.197 11.4708C357.142 11.4708 360.108 11.2329 363.094 11.2005C359.173 10.9034 355.215 10.7624 351.252 10.7788C350.354 10.7788 349.331 10.9843 348.6 10.5194C350.089 10.5795 351.586 10.4877 353.007 10.2491C350.527 9.98885 347.99 9.90519 345.467 10.0004H334.21V9.73015H384ZM306.725 5.79484C305.723 5.79484 304.637 5.61105 303.697 5.90296C303.3 6.02188 302.611 6.15162 302.486 5.78403C302.486 5.64349 303.154 5.44888 303.509 5.28671C306.031 5.18189 308.57 5.26197 311.049 5.52456C309.642 5.74406 308.17 5.82834 306.704 5.77322L306.725 5.79484Z" fill="#07ADAA"/>
</svg>
