<svg width="205" height="12" viewBox="0 0 205 12" fill="none" xmlns="http://www.w3.org/2000/svg">
<path d="M194.432 7.78412V7.55925C193.869 7.39525 193.273 7.33629 192.682 7.38627C193.492 6.86732 193.492 6.62515 192.762 6.44352C190.768 5.93543 188.709 5.64487 186.632 5.57862C185.214 5.54024 183.82 5.24562 182.542 4.71372L188.592 5.18941L188.652 4.86075C187.084 4.5546 185.499 4.32361 183.902 4.16883C179.012 3.89206 174.182 3.11365 169.312 2.75039C164.062 2.36118 158.812 1.98928 153.562 1.60872C146.202 1.08113 138.802 1.21951 131.442 0.743816C127.922 0.536239 124.442 0.449749 120.882 0.311365C120.612 0.311365 120.292 0.371908 120.102 0.103788H105.592C104.239 0.416062 102.818 0.439805 101.452 0.17298C102.423 0.256064 103.403 0.197592 104.352 0L99.8618 0C100.155 0.0634262 100.445 0.11532 100.732 0.155682H93.8518C92.3718 0.588134 90.8518 0.285418 89.3518 0.337312C81.5318 0.397855 73.7418 0.838955 65.9218 0.916796C58.5718 0.985989 51.2418 1.51358 43.9218 2.15361C38.7218 2.612 33.5018 3.01851 28.3418 3.76232C23.4818 4.45425 18.5918 4.95589 14.0218 6.80678C13.3318 7.0922 12.4718 7.00571 11.7518 7.5333C12.2818 7.88791 12.8318 7.42086 13.3618 7.67168C12.8218 8.19062 12.0118 8.32036 11.3618 8.67497C11.0218 8.86525 10.5218 9.02958 10.5718 9.41014C10.6218 9.79069 11.1718 9.82529 11.5718 9.91178L16.4318 10.9929C16.1018 11.1486 15.9418 11.2351 15.7618 11.3043C15.5818 11.3735 15.1018 11.4686 15.1518 11.7454C15.2018 12.0221 15.6818 12.0048 15.9818 11.9962C19.2218 11.8578 22.4618 11.7973 25.6818 11.5205C30.8918 11.088 36.1218 10.8718 41.3418 10.6556C46.5618 10.4394 51.5918 10.3788 56.6818 10.1972C59.8418 10.1107 63.0318 10.3183 66.2218 10.2404C68.6718 10.1799 71.1218 10.2404 73.5918 10.2404C73.5918 9.55717 72.9318 9.85989 72.7818 9.46203L114.592 8.97769C115.222 8.97769 115.882 9.19391 116.512 8.70957C115.88 8.5954 115.231 8.57493 114.592 8.64902C113.272 8.52794 111.912 8.822 110.592 8.38955H106.142C107.612 7.88791 109.142 8.16468 110.572 8.25117C114.812 8.10839 119.058 8.16036 123.292 8.40685C123.432 8.40685 123.642 8.40685 123.552 8.64037C123.547 8.7095 123.547 8.77882 123.552 8.84795C129.232 8.74416 134.902 9.11607 140.552 9.41014C144.692 9.62636 148.852 9.78204 152.992 9.78204C159.392 9.78204 165.782 10.0156 172.172 10.0761C172.783 10.0796 173.392 10.0097 173.982 9.86853C173.102 9.39284 172.092 9.7734 171.182 9.54852C170.632 9.41014 169.592 9.69555 169.612 9.15067C169.632 8.60578 170.682 8.83065 171.252 8.84795C174.252 8.92579 177.192 9.13337 180.162 9.17661C181.572 9.17661 182.992 8.98633 184.422 8.96039C182.545 8.72269 180.649 8.60992 178.752 8.62308C178.322 8.62308 177.832 8.78741 177.482 8.4155C178.195 8.46362 178.912 8.39016 179.592 8.19927C178.405 7.99108 177.19 7.92415 175.982 8.00035H170.592V7.78412H194.432ZM157.432 4.63588C156.952 4.63588 156.432 4.48884 155.982 4.72237C155.792 4.81751 155.462 4.92129 155.402 4.62723C155.402 4.51479 155.722 4.35911 155.892 4.22937C157.1 4.14552 158.315 4.20957 159.502 4.41965C158.828 4.59525 158.123 4.66267 157.422 4.61858L157.432 4.63588Z" fill="#ABD474"/>
</svg>
