<svg width="223" height="172" viewBox="0 0 223 172" fill="none" xmlns="http://www.w3.org/2000/svg">
<g filter="url(#filter0_d_2069_2130)">
<rect x="81.7012" y="-80.8342" width="243.533" height="87.9829" rx="6" transform="rotate(32.3586 81.7012 -80.8342)" fill="#F1F5EB" shape-rendering="crispEdges"/>
<path d="M138.021 16.4966L133.358 23.8558C132.25 25.6044 130.464 26.1352 128.746 25.0466C127.104 24.0061 126.711 22.1377 127.877 20.2979L132.501 12.9995L130.631 11.8146L125.959 19.1889C125.082 20.5726 124.755 21.9634 124.981 23.3214C125.207 24.6794 126.093 25.8373 127.598 26.7911C129.104 27.7449 130.529 28.0513 131.869 27.6856C133.224 27.3295 134.361 26.4092 135.276 24.9647L139.891 17.6816L138.021 16.4966ZM146.008 32.5105C146.692 31.431 146.944 30.2267 146.738 28.9031C146.548 27.5892 145.86 26.5566 144.674 25.8051C144.218 25.5161 143.664 25.3143 142.987 25.2051C142.31 25.096 141.678 25.1856 141.056 25.4947L141.856 24.2327L140.092 23.1152L132.414 35.2335L134.223 36.3799L137.508 31.195C137.518 31.819 137.711 32.3888 138.099 32.9541C138.496 33.5041 138.9 33.9092 139.31 34.1693C140.481 34.9111 141.699 35.1075 142.989 34.753C144.279 34.3984 145.286 33.6509 146.008 32.5105ZM141.134 26.8861C141.908 26.6734 142.655 26.8058 143.369 27.2586C144.084 27.7114 144.523 28.3304 144.646 29.1116C144.784 29.9023 144.627 30.6551 144.174 31.3697C143.721 32.0843 143.108 32.548 142.334 32.7607C141.585 32.9679 140.837 32.8355 140.123 32.3827C139.408 31.9299 138.969 31.3109 138.821 30.5353C138.698 29.7542 138.856 29.0015 139.309 28.2868C139.761 27.5722 140.375 27.1085 141.134 26.8861ZM148.89 40.2603C149.878 40.8865 150.838 41.1538 151.77 41.0622C152.702 40.9707 153.509 40.6723 154.151 40.163L153.013 38.4616C151.997 39.2243 150.98 39.2829 149.961 38.6374C149.277 38.2039 148.853 37.5945 148.705 36.8189C148.557 36.0434 148.724 35.2755 149.206 34.5152C149.678 33.7702 150.291 33.3065 151.046 33.1242C151.816 32.9515 152.533 33.0646 153.202 33.4885C154.236 34.1436 154.617 35.0886 154.341 36.2985L156.335 36.5817C156.764 34.8289 156.052 32.9928 154.227 31.8368C153.026 31.0757 151.762 30.8504 150.427 31.1761C149.091 31.5017 148.054 32.2299 147.332 33.3703C146.571 34.5715 146.345 35.8351 146.64 37.1516C146.936 38.468 147.689 39.4992 148.89 40.2603ZM163.42 37.6613C162.234 36.9098 160.955 36.6749 159.608 36.9509C158.261 37.2269 157.2 37.9607 156.448 39.1466C155.697 40.3326 155.471 41.5963 155.797 42.932C156.123 44.2677 156.881 45.3237 158.067 46.0752C159.269 46.8362 160.532 47.0615 161.864 46.7759C163.22 46.4847 164.267 45.7413 165.028 44.5401C165.779 43.3541 165.995 42.1057 165.669 40.77C165.344 39.4343 164.591 38.4031 163.42 37.6613ZM160.128 38.9213C160.902 38.7085 161.649 38.841 162.364 39.2938C163.079 39.7466 163.518 40.3656 163.641 41.1467C163.779 41.9375 163.622 42.6902 163.169 43.4048C162.716 44.1195 162.103 44.5831 161.344 44.8055C160.585 45.0279 159.838 44.8955 159.123 44.4427C158.408 43.9899 157.979 43.3557 157.841 42.5649C157.712 41.7589 157.87 41.0062 158.322 40.2916C158.775 39.5769 159.379 39.1285 160.128 38.9213ZM171.449 54.3621L174.32 49.8311C175.1 48.5995 176.305 48.2119 177.415 48.9152C178.616 49.6763 178.657 50.7889 177.876 52.0205L174.977 56.5972L176.786 57.7436L179.965 52.726C181.198 50.7798 181.058 48.8155 179.096 47.5728C177.895 46.8117 176.835 46.7365 175.42 47.1189C175.487 45.9039 174.93 44.9331 173.759 44.1913C172.786 43.5747 171.711 43.4898 170.533 43.9367L171.226 42.8419L169.463 41.7244L164.318 49.8438L166.127 50.9902L168.989 46.4744C169.769 45.2428 170.983 44.8401 172.078 45.5337C173.279 46.2948 173.316 47.4475 172.545 48.6638L169.655 53.2253L171.449 54.3621ZM185.464 49.3486C185.637 50.1186 186.367 50.5811 187.137 50.4084C187.907 50.2357 188.369 49.5058 188.196 48.7358C188.033 47.9506 187.303 47.4882 186.524 47.6761C185.754 47.8488 185.291 48.5786 185.464 49.3486ZM186.076 52.2507L184.266 51.1043L179.122 59.2237L180.931 60.3701L186.076 52.2507ZM190.637 66.5196L193.806 61.5172C195.04 59.571 194.838 57.5682 192.846 56.3062C191.812 55.6511 190.722 55.5566 189.568 55.9979L190.262 54.9031L188.498 53.7856L183.354 61.905L185.163 63.0514L188.024 58.5356C188.805 57.304 190.055 56.9454 191.195 57.6679C192.396 58.429 192.479 59.6106 191.708 60.8269L188.828 65.3732L190.637 66.5196ZM196.328 70.2106C196.754 70.4804 197.292 70.6726 197.969 70.7817C198.646 70.8908 199.268 70.8164 199.856 70.5281L199.046 71.8053C198.016 73.4322 196.427 73.619 195.013 72.723C193.873 72.0005 193.387 70.8832 193.547 69.3864L191.493 69.2993C191.197 71.4135 192.045 73.1016 194.022 74.354C195.299 75.1633 196.559 75.4286 197.806 75.1749C199.054 74.9212 200.095 74.1529 200.904 72.8757L205.981 64.8628L204.217 63.7452L203.437 64.9768C203.437 64.3376 203.238 63.743 202.866 63.1874C202.494 62.6318 202.099 62.2115 201.658 61.9321C200.457 61.171 199.214 60.9802 197.93 61.3596C196.66 61.7486 195.689 62.4753 195.005 63.5549C194.292 64.68 194.04 65.8844 194.265 67.1775C194.49 68.4706 195.187 69.4881 196.328 70.2106ZM201.668 67.7345C201.216 68.4491 200.602 68.9128 199.828 69.1255C199.079 69.3327 198.347 69.2099 197.632 68.7571C196.918 68.3043 196.494 67.695 196.346 66.9194C196.223 66.1382 196.38 65.3855 196.833 64.6709C197.286 63.9563 197.899 63.4926 198.639 63.3006C199.388 63.0935 200.135 63.2259 200.85 63.6787C201.565 64.1315 202.003 64.7505 202.136 65.5164C202.269 66.2824 202.121 67.0199 201.668 67.7345Z" fill="#0FA76F"/>
</g>
<defs>
<filter id="filter0_d_2069_2130" x="-1.38867" y="-102.834" width="324.807" height="276.664" filterUnits="userSpaceOnUse" color-interpolation-filters="sRGB">
<feFlood flood-opacity="0" result="BackgroundImageFix"/>
<feColorMatrix in="SourceAlpha" type="matrix" values="0 0 0 0 0 0 0 0 0 0 0 0 0 0 0 0 0 0 127 0" result="hardAlpha"/>
<feOffset dy="14"/>
<feGaussianBlur stdDeviation="18"/>
<feComposite in2="hardAlpha" operator="out"/>
<feColorMatrix type="matrix" values="0 0 0 0 0 0 0 0 0 0 0 0 0 0 0 0 0 0 0.08 0"/>
<feBlend mode="normal" in2="BackgroundImageFix" result="effect1_dropShadow_2069_2130"/>
<feBlend mode="normal" in="SourceGraphic" in2="effect1_dropShadow_2069_2130" result="shape"/>
</filter>
</defs>
</svg>
