<svg width="78" height="68" viewBox="0 0 78 68" fill="none" xmlns="http://www.w3.org/2000/svg">
<g clip-path="url(#clip0_2796_13889)">
<path d="M77.9932 10.8773C77.9885 10.7401 77.9822 10.6029 77.9728 10.4658C77.6521 5.49282 73.658 1.30713 68.5084 1.30713C63.1813 1.30713 58.8633 5.58947 58.8633 10.8726C58.8633 16.1558 63.1813 20.4381 68.5084 20.4381C68.8778 20.4381 69.2409 20.4132 69.6009 20.3727C69.2928 23.0493 68.1343 25.6589 65.3285 27.4392L65.3725 27.4813C67.4427 26.4493 69.439 25.45 71.2907 23.9582C75.178 20.8279 78.1552 16.0046 77.9932 10.8773Z" fill="black"/>
<path d="M60.086 31.1894C60.086 31.1894 51.8399 12.696 51.7629 12.5463C49.35 5.63411 53.3599 4.24512 53.3599 4.24512H35.6352C35.6352 4.24512 31.6253 5.63411 34.0382 12.5463C34.1136 12.696 34.1969 12.8441 34.2661 12.9953L53.2357 54.4001C62.1468 50.6088 65.4446 40.797 60.086 31.1894Z" fill="black"/>
<path d="M17.7266 4.24512H0.00195312C11.3149 6.28886 15.2305 17.9402 15.2305 17.9402L15.3044 17.9589L31.7998 54.4001C40.7109 50.6073 44.0087 40.7954 38.6501 31.1894L30.9274 13.8324C28.7315 10.2672 24.5943 5.48757 17.7266 4.24512Z" fill="black"/>
<path d="M20.7708 65.8867H20.8038C21.0239 65.1416 21.7768 62.7907 22.0629 61.7525C22.1446 61.4532 22.1525 61.3394 22.1525 61.2334C22.1525 61.0868 22.0629 60.9902 21.6872 60.9902C21.6463 60.9902 21.6133 60.9652 21.6133 60.934C21.6133 60.8935 21.6542 60.8779 21.7516 60.8779C22.1682 60.8779 22.5124 60.9029 22.5848 60.9029C22.6413 60.9029 22.9934 60.8779 23.2465 60.8779C23.3204 60.8779 23.3613 60.8935 23.3613 60.9263C23.3613 60.9668 23.3361 60.9917 23.2874 60.9917C23.2544 60.9917 23.0988 60.9995 23.0092 61.0323C22.7639 61.1211 22.6335 61.4625 22.4779 61.9084C22.1179 62.9373 21.2927 65.5157 20.9736 66.4246C20.7614 67.0247 20.7205 67.1214 20.6309 67.1214C20.5491 67.1214 20.5004 67.0154 20.3857 66.7005L18.7839 62.1937H18.7682C18.4742 62.9716 17.3535 65.9397 17.0595 66.6927C16.9291 67.0325 16.8882 67.1229 16.7892 67.1229C16.7074 67.1229 16.6666 67.0341 16.5031 66.4822L15.0475 61.6745C14.917 61.2443 14.8102 61.1227 14.598 61.0416C14.4911 61.0011 14.2867 60.9933 14.2301 60.9933C14.1893 60.9933 14.1562 60.9855 14.1562 60.9372C14.1562 60.8966 14.205 60.8811 14.2867 60.8811C14.7111 60.8811 15.1607 60.906 15.2519 60.906C15.3257 60.906 15.6857 60.8811 16.0944 60.8811C16.2091 60.8811 16.2422 60.906 16.2422 60.9372C16.2422 60.9855 16.2013 60.9933 16.1604 60.9933C16.0944 60.9933 15.9404 60.9933 15.8413 61.0416C15.7926 61.0666 15.7344 61.1305 15.7344 61.2365C15.7344 61.3425 15.8083 61.6262 15.8901 61.9816C16.0127 62.5008 16.8631 65.4752 16.9857 65.9054H17.0014L18.7336 61.2848C18.8562 60.9528 18.8892 60.9122 18.938 60.9122C18.9945 60.9122 19.0448 61.0182 19.1423 61.2926L20.7708 65.8867Z" fill="black"/>
<path d="M25.3804 64.6552C25.3804 65.4331 25.3804 66.0738 25.4213 66.4152C25.4464 66.6506 25.4952 66.8283 25.7404 66.861C25.8551 66.8766 26.0343 66.8938 26.1082 66.8938C26.1569 66.8938 26.1742 66.9187 26.1742 66.9421C26.1742 66.9826 26.1334 67.0076 26.0438 67.0076C25.5942 67.0076 25.0786 66.9826 25.0377 66.9826C24.9969 66.9826 24.4813 67.0076 24.2361 67.0076C24.1465 67.0076 24.1056 66.992 24.1056 66.9421C24.1056 66.9172 24.1213 66.8938 24.1716 66.8938C24.2455 66.8938 24.343 66.8782 24.4168 66.861C24.5803 66.8283 24.6212 66.6506 24.6542 66.4152C24.6951 66.0754 24.6951 65.4346 24.6951 64.6552V63.2288C24.6951 61.9645 24.6951 61.7369 24.6793 61.4781C24.6636 61.2022 24.5819 61.065 24.4011 61.0245C24.3115 60.9995 24.2046 60.9917 24.1481 60.9917C24.115 60.9917 24.082 60.9761 24.082 60.9434C24.082 60.8951 24.1229 60.8779 24.2125 60.8779C24.4829 60.8779 24.9969 60.9029 25.0377 60.9029C25.0786 60.9029 25.5942 60.8779 25.8394 60.8779C25.929 60.8779 25.9699 60.8935 25.9699 60.9434C25.9699 60.9761 25.9369 60.9917 25.9039 60.9917C25.8473 60.9917 25.797 60.9995 25.6995 61.0167C25.4794 61.0572 25.4134 61.1944 25.3977 61.4781C25.382 61.7369 25.382 61.9645 25.382 63.2288V64.6552H25.3804Z" fill="black"/>
<path d="M27.7691 66.9006C27.6543 66.8445 27.6465 66.8118 27.6465 66.592C27.6465 66.1867 27.6795 65.8624 27.6874 65.733C27.6952 65.6441 27.7125 65.6036 27.7534 65.6036C27.8021 65.6036 27.81 65.6286 27.81 65.6925C27.81 65.7657 27.81 65.8795 27.8351 65.9918C27.9577 66.592 28.4969 66.818 29.0455 66.818C29.8298 66.818 30.215 66.2584 30.215 65.7392C30.215 65.1796 29.9776 64.8553 29.275 64.2801L28.9071 63.9808C28.041 63.2762 27.8445 62.7726 27.8445 62.2223C27.8445 61.3556 28.4984 60.7632 29.5359 60.7632C29.855 60.7632 30.0924 60.7959 30.2967 60.8442C30.4523 60.877 30.5168 60.8848 30.5828 60.8848C30.6488 60.8848 30.6645 60.9004 30.6645 60.9409C30.6645 60.9814 30.6315 61.2496 30.6315 61.7999C30.6315 61.9292 30.6158 61.9869 30.5749 61.9869C30.5262 61.9869 30.5183 61.9464 30.5089 61.8809C30.501 61.7843 30.4523 61.5645 30.402 61.4756C30.3517 61.3868 30.1317 61.0453 29.3803 61.0453C28.816 61.0453 28.3743 61.3945 28.3743 61.9854C28.3743 62.4468 28.5865 62.7399 29.3709 63.3479L29.6003 63.5256C30.5655 64.2801 30.7934 64.7821 30.7934 65.4306C30.7934 65.7626 30.6629 66.3784 30.0986 66.7759C29.7465 67.0191 29.3064 67.1158 28.8647 67.1158C28.4796 67.1189 28.1039 67.0628 27.7691 66.9006Z" fill="black"/>
<path d="M32.9523 63.2274C32.9523 61.9631 32.9523 61.7355 32.9366 61.4767C32.9209 61.2008 32.8548 61.0714 32.5845 61.0153C32.5185 60.9997 32.3801 60.9903 32.3063 60.9903C32.2732 60.9903 32.2402 60.9747 32.2402 60.942C32.2402 60.8937 32.2811 60.8765 32.3707 60.8765C32.5593 60.8765 32.7794 60.8765 32.9586 60.8843L33.2934 60.8999C33.35 60.8999 34.9769 60.8999 35.1655 60.8921C35.3211 60.8843 35.4516 60.8672 35.5176 60.8516C35.5585 60.8438 35.5915 60.811 35.6324 60.811C35.6575 60.811 35.6654 60.8438 35.6654 60.8843C35.6654 60.9404 35.6245 61.0386 35.5994 61.2647C35.5915 61.3457 35.5742 61.7027 35.5585 61.7994C35.5506 61.8399 35.5334 61.8882 35.5019 61.8882C35.4532 61.8882 35.4359 61.8477 35.4359 61.7822C35.4359 61.7261 35.428 61.5874 35.3872 61.4907C35.3306 61.3613 35.2488 61.2631 34.8071 61.2148C34.6688 61.1992 33.7775 61.1899 33.6879 61.1899C33.6549 61.1899 33.6392 61.2148 33.6392 61.2709V63.508C33.6392 63.5641 33.6471 63.589 33.6879 63.589C33.7948 63.589 34.7993 63.589 34.9879 63.5734C35.1844 63.5578 35.2991 63.5407 35.3714 63.4596C35.428 63.3942 35.461 63.3536 35.4941 63.3536C35.5192 63.3536 35.5349 63.3692 35.5349 63.4191C35.5349 63.4674 35.4941 63.6062 35.4689 63.8727C35.4532 64.0349 35.4359 64.3342 35.4359 64.3919C35.4359 64.4573 35.4359 64.5462 35.3793 64.5462C35.3384 64.5462 35.3227 64.5135 35.3227 64.4729C35.3227 64.3919 35.3227 64.3108 35.2897 64.2048C35.2567 64.091 35.1828 63.9538 34.8653 63.9211C34.6452 63.8961 33.8357 63.8805 33.6958 63.8805C33.6549 63.8805 33.6392 63.9055 33.6392 63.9367V64.6506C33.6392 64.9266 33.6314 65.8666 33.6392 66.0365C33.6644 66.5962 33.787 66.7006 34.5871 66.7006C34.7993 66.7006 35.1592 66.7006 35.3714 66.6118C35.5837 66.5229 35.6827 66.3608 35.7393 66.0287C35.755 65.9399 35.7723 65.9071 35.8131 65.9071C35.8619 65.9071 35.8619 65.9726 35.8619 66.0287C35.8619 66.0942 35.7959 66.6445 35.755 66.8144C35.6984 67.0249 35.6324 67.0249 35.3133 67.0249C34.7002 67.0249 34.2507 67.0093 33.9316 66.9999C33.6125 66.9843 33.416 66.975 33.2934 66.975C33.2777 66.975 33.1378 66.975 32.9664 66.9828C32.803 66.9828 32.6143 66.9984 32.4917 66.9984C32.4021 66.9984 32.3613 66.9828 32.3613 66.9329C32.3613 66.9079 32.377 66.8846 32.4273 66.8846C32.5012 66.8846 32.5986 66.869 32.6725 66.8518C32.836 66.8191 32.8769 66.6414 32.9099 66.406C32.9507 66.0661 32.9507 65.4254 32.9507 64.646V63.2274H32.9523Z" fill="black"/>
<path d="M42.3394 64.6554C42.3394 65.4333 42.3394 66.074 42.3802 66.4154C42.4054 66.6508 42.4541 66.8285 42.6993 66.8613C42.8141 66.8769 42.9933 66.894 43.0671 66.894C43.1159 66.894 43.1332 66.919 43.1332 66.9423C43.1332 66.9829 43.0923 67.0078 43.0027 67.0078C42.5531 67.0078 42.0375 66.9829 41.9967 66.9829C41.9558 66.9829 41.4402 67.0078 41.195 67.0078C41.1054 67.0078 41.0645 66.9922 41.0645 66.9423C41.0645 66.9174 41.0803 66.894 41.1306 66.894C41.2044 66.894 41.3019 66.8784 41.3758 66.8613C41.5393 66.8285 41.5801 66.6508 41.6131 66.4154C41.654 66.0756 41.654 65.4349 41.654 64.6554V61.2258L40.4436 61.2414C39.9375 61.2492 39.741 61.3068 39.6105 61.5002C39.5209 61.6373 39.4958 61.695 39.4722 61.7511C39.4471 61.8166 39.4235 61.8322 39.3905 61.8322C39.3653 61.8322 39.3496 61.8073 39.3496 61.7589C39.3496 61.6779 39.5131 60.981 39.5288 60.9156C39.5445 60.8672 39.5775 60.7612 39.6105 60.7612C39.6671 60.7612 39.7489 60.8423 39.9705 60.8579C40.2079 60.8828 40.5175 60.8984 40.6166 60.8984H43.6818C43.9427 60.8984 44.1313 60.8828 44.2618 60.8579C44.3844 60.8423 44.4583 60.8173 44.4913 60.8173C44.5321 60.8173 44.5321 60.8657 44.5321 60.914C44.5321 61.1572 44.507 61.7168 44.507 61.8057C44.507 61.879 44.4818 61.9117 44.4504 61.9117C44.4095 61.9117 44.3938 61.8868 44.3844 61.7745L44.3765 61.6857C44.3514 61.4425 44.1565 61.2554 43.3705 61.2398L42.3409 61.2242V64.6554H42.3394Z" fill="black"/>
<path d="M47.055 61.0796C47.1524 60.8115 47.1854 60.7632 47.2342 60.7632C47.2829 60.7632 47.3159 60.8037 47.4134 61.0547C47.536 61.3634 48.8202 64.7104 49.3185 65.9435C49.6124 66.6652 49.8498 66.7946 50.0211 66.843C50.1437 66.8835 50.2663 66.8913 50.3481 66.8913C50.3968 66.8913 50.4298 66.8991 50.4298 66.9396C50.4298 66.9879 50.3559 67.0051 50.2664 67.0051C50.1437 67.0051 49.5464 67.0051 48.9821 66.9895C48.8265 66.9817 48.7369 66.9817 48.7369 66.9334C48.7369 66.9006 48.762 66.885 48.7935 66.8772C48.8422 66.8617 48.8909 66.7884 48.8422 66.659L48.0814 64.6651C48.0657 64.6324 48.0484 64.6168 48.0075 64.6168H46.2502C46.2093 64.6168 46.1841 64.6418 46.1684 64.6823L45.678 66.1165C45.6041 66.3192 45.5632 66.514 45.5632 66.659C45.5632 66.8211 45.7346 66.8944 45.8745 66.8944H45.9562C46.0128 66.8944 46.038 66.91 46.038 66.9427C46.038 66.9911 45.9892 67.0082 45.9153 67.0082C45.7189 67.0082 45.3683 66.9833 45.2772 66.9833C45.186 66.9833 44.738 67.0082 44.3529 67.0082C44.246 67.0082 44.1973 66.9926 44.1973 66.9427C44.1973 66.91 44.2303 66.8944 44.2711 66.8944C44.3277 66.8944 44.4425 66.8866 44.5085 66.8788C44.8842 66.8305 45.0477 66.5218 45.1954 66.1165L47.055 61.0796ZM47.9038 64.3222C47.9447 64.3222 47.9447 64.2972 47.9368 64.2661L47.1603 62.0773C47.1194 61.9558 47.0785 61.9558 47.0377 62.0773L46.3178 64.2661C46.302 64.3066 46.3178 64.3222 46.3429 64.3222H47.9038Z" fill="black"/>
<path d="M52.2861 64.6711C52.2861 65.8621 52.3191 66.3812 52.4653 66.5277C52.5957 66.6571 52.808 66.7148 53.4461 66.7148C53.88 66.7148 54.2384 66.707 54.4349 66.4716C54.5418 66.3422 54.6235 66.1396 54.6471 65.9852C54.6549 65.9198 54.6722 65.8792 54.721 65.8792C54.7618 65.8792 54.7697 65.912 54.7697 66.0008C54.7697 66.0897 54.7131 66.5761 54.6471 66.8114C54.5905 66.9985 54.5653 67.0297 54.1315 67.0297C53.5436 67.0297 53.1176 67.0141 52.7749 67.0048C52.4323 66.9892 52.1776 66.9798 51.9418 66.9798C51.9088 66.9798 51.7705 66.9876 51.607 66.9876C51.4436 66.9954 51.2644 67.0032 51.1417 67.0032C51.0522 67.0032 51.0113 66.9876 51.0113 66.9377C51.0113 66.9128 51.027 66.8894 51.0773 66.8894C51.1512 66.8894 51.2486 66.8738 51.3225 66.8567C51.486 66.8239 51.5269 66.6462 51.5599 66.4108C51.6007 66.071 51.6007 65.4303 51.6007 64.6508V63.2244C51.6007 61.9601 51.6007 61.7325 51.585 61.4737C51.5693 61.1978 51.5033 61.0684 51.2329 61.0123C51.1669 60.9967 51.0286 60.9873 50.9547 60.9873C50.9217 60.9873 50.8887 60.9718 50.8887 60.939C50.8887 60.8907 50.9295 60.8735 51.0191 60.8735C51.387 60.8735 51.9025 60.8985 51.9434 60.8985C51.9843 60.8985 52.5816 60.8735 52.8268 60.8735C52.9164 60.8735 52.9573 60.8891 52.9573 60.939C52.9573 60.9718 52.9243 60.9873 52.8913 60.9873C52.8347 60.9873 52.7199 60.9951 52.6209 61.0123C52.3835 61.0528 52.3191 61.19 52.3018 61.4737C52.2861 61.7325 52.2861 61.9601 52.2861 63.2244V64.6711V64.6711Z" fill="black"/>
<path d="M56.4386 63.2273C56.4386 61.963 56.4386 61.7354 56.4229 61.4766C56.4072 61.2007 56.3412 61.0713 56.0708 61.0152C56.0048 60.9996 55.8665 60.9903 55.7926 60.9903C55.7596 60.9903 55.7266 60.9747 55.7266 60.9419C55.7266 60.8936 55.7674 60.8765 55.857 60.8765C56.2249 60.8765 56.7074 60.9014 56.7562 60.9014C56.83 60.9014 57.3032 60.8765 57.5484 60.8765C57.638 60.8765 57.6789 60.8921 57.6789 60.9419C57.6789 60.9747 57.6458 60.9903 57.6128 60.9903C57.5562 60.9903 57.5059 60.9981 57.4085 61.0152C57.1884 61.0557 57.1224 61.1929 57.1067 61.4766C57.091 61.7354 57.091 61.963 57.091 63.2273V63.7137H57.124C57.2623 63.5594 58.743 62.0675 59.037 61.7526C59.2665 61.5172 59.4787 61.3067 59.4787 61.1695C59.4787 61.0729 59.4378 61.023 59.3718 60.9996C59.3309 60.984 59.2979 60.9669 59.2979 60.9341C59.2979 60.8936 59.3388 60.878 59.3954 60.878C59.5588 60.878 59.8119 60.903 60.0084 60.903C60.0493 60.903 60.5884 60.878 60.7928 60.878C60.8824 60.878 60.9154 60.8936 60.9154 60.9341C60.9154 60.9747 60.8997 60.9903 60.8337 60.9903C60.711 60.9903 60.5397 61.0308 60.3762 61.1041C60.0414 61.2506 59.8607 61.4533 59.4928 61.8009C59.2885 61.9958 57.8659 63.3738 57.6946 63.5765C57.9068 63.8119 59.6076 65.5548 59.9424 65.8619C60.6293 66.4948 60.7676 66.6242 61.1606 66.7863C61.3728 66.8752 61.6102 66.8923 61.6668 66.8923C61.7233 66.8923 61.7736 66.9079 61.7736 66.9407C61.7736 66.9812 61.7328 67.0061 61.5945 67.0061H61.1779C60.9484 67.0061 60.7944 67.0061 60.6136 66.9905C60.1797 66.95 59.9754 66.7723 59.6249 66.4964C59.257 66.197 57.5248 64.3404 57.1318 63.8618H57.091V64.6568C57.091 65.4347 57.091 66.0754 57.1318 66.4168C57.157 66.6522 57.2057 66.83 57.4509 66.8627C57.5657 66.8783 57.6961 66.8954 57.77 66.8954C57.8188 66.8954 57.836 66.9204 57.836 66.9438C57.836 66.9843 57.7952 67.0092 57.7056 67.0092C57.3047 67.0092 56.8316 66.9843 56.7656 66.9843C56.6996 66.9843 56.2264 67.0092 55.9812 67.0092C55.8916 67.0092 55.8507 66.9936 55.8507 66.9438C55.8507 66.9188 55.8665 66.8954 55.9168 66.8954C55.9906 66.8954 56.0881 66.8799 56.162 66.8627C56.3255 66.83 56.3663 66.6522 56.3993 66.4168C56.4402 66.077 56.4402 65.4363 56.4402 64.6568V63.2273H56.4386Z" fill="black"/>
<path d="M63.273 64.6552C63.273 65.4331 63.273 66.0738 63.3139 66.4152C63.339 66.6506 63.3877 66.8283 63.633 66.861C63.7477 66.8766 63.9269 66.8938 64.0008 66.8938C64.0495 66.8938 64.0668 66.9187 64.0668 66.9421C64.0668 66.9826 64.0259 67.0076 63.9363 67.0076C63.4868 67.0076 62.9712 66.9826 62.9303 66.9826C62.8895 66.9826 62.3739 67.0076 62.1287 67.0076C62.0391 67.0076 61.9982 66.992 61.9982 66.9421C61.9982 66.9172 62.0139 66.8938 62.0642 66.8938C62.1381 66.8938 62.2355 66.8782 62.3094 66.861C62.4729 66.8283 62.5138 66.6506 62.5468 66.4152C62.5877 66.0754 62.5877 65.4346 62.5877 64.6552V63.2288C62.5877 61.9645 62.5877 61.7369 62.5719 61.4781C62.5562 61.2022 62.4745 61.065 62.2937 61.0245C62.2041 60.9995 62.0972 60.9917 62.0406 60.9917C62.0076 60.9917 61.9746 60.9761 61.9746 60.9434C61.9746 60.8951 62.0155 60.8779 62.1051 60.8779C62.3754 60.8779 62.8895 60.9029 62.9303 60.9029C62.9712 60.9029 63.4868 60.8779 63.732 60.8779C63.8216 60.8779 63.8625 60.8935 63.8625 60.9434C63.8625 60.9761 63.8294 60.9917 63.7964 60.9917C63.7399 60.9917 63.6895 60.9995 63.5921 61.0167C63.372 61.0572 63.306 61.1944 63.2903 61.4781C63.2746 61.7369 63.2746 61.9645 63.2746 63.2288V64.6552H63.273Z" fill="black"/>
<path d="M66.1847 63.2274C66.1847 61.9631 66.1847 61.7355 66.169 61.4767C66.1533 61.2008 66.0873 61.0714 65.8169 61.0153C65.7509 60.9997 65.6126 60.9903 65.5387 60.9903C65.5057 60.9903 65.4727 60.9747 65.4727 60.942C65.4727 60.8937 65.5135 60.8765 65.6031 60.8765C65.7918 60.8765 66.0118 60.8765 66.191 60.8843L66.5258 60.8999C66.5824 60.8999 68.2093 60.8999 68.398 60.8921C68.5536 60.8843 68.684 60.8672 68.7501 60.8516C68.7909 60.8438 68.8239 60.811 68.8648 60.811C68.89 60.811 68.8978 60.8438 68.8978 60.8843C68.8978 60.9404 68.857 61.0386 68.8318 61.2647C68.8239 61.3457 68.8066 61.7027 68.7909 61.7994C68.7831 61.8399 68.7658 61.8882 68.7343 61.8882C68.6856 61.8882 68.6683 61.8477 68.6683 61.7822C68.6683 61.7261 68.6605 61.5874 68.6196 61.4907C68.563 61.3613 68.4813 61.2631 68.0396 61.2148C67.9012 61.1992 67.01 61.1899 66.9204 61.1899C66.8874 61.1899 66.8716 61.2148 66.8716 61.2709V63.508C66.8716 63.5641 66.8795 63.589 66.9204 63.589C67.0273 63.589 68.0317 63.589 68.2203 63.5734C68.4168 63.5578 68.5316 63.5407 68.6039 63.4596C68.6605 63.3942 68.6935 63.3536 68.7265 63.3536C68.7516 63.3536 68.7674 63.3692 68.7674 63.4191C68.7674 63.4674 68.7265 63.6062 68.7013 63.8727C68.6856 64.0349 68.6683 64.3342 68.6683 64.3919C68.6683 64.4573 68.6683 64.5462 68.6117 64.5462C68.5709 64.5462 68.5551 64.5135 68.5551 64.4729C68.5551 64.3919 68.5551 64.3108 68.5221 64.2048C68.4891 64.091 68.4152 63.9538 68.0977 63.9211C67.8777 63.8961 67.0681 63.8805 66.9282 63.8805C66.8874 63.8805 66.8716 63.9055 66.8716 63.9367V64.6506C66.8716 64.9266 66.8638 65.8666 66.8716 66.0365C66.8968 66.5962 67.0194 66.7006 67.8195 66.7006C68.0317 66.7006 68.3917 66.7006 68.6039 66.6118C68.8161 66.5229 68.9151 66.3608 68.9717 66.0287C68.9874 65.9399 69.0047 65.9071 69.0456 65.9071C69.0943 65.9071 69.0943 65.9726 69.0943 66.0287C69.0943 66.0942 69.0283 66.6445 68.9874 66.8144C68.9308 67.0249 68.8648 67.0249 68.5457 67.0249C67.9327 67.0249 67.4831 67.0093 67.164 66.9999C66.8449 66.9843 66.6484 66.975 66.5258 66.975C66.5101 66.975 66.3702 66.975 66.1989 66.9828C66.0354 66.9828 65.8468 66.9984 65.7242 66.9984C65.6346 66.9984 65.5937 66.9828 65.5937 66.9329C65.5937 66.9079 65.6094 66.8846 65.6597 66.8846C65.7336 66.8846 65.831 66.869 65.9049 66.8518C66.0684 66.8191 66.1093 66.6414 66.1423 66.406C66.1832 66.0661 66.1832 65.4254 66.1832 64.646V63.2274H66.1847Z" fill="black"/>
<path d="M70.646 66.9006C70.5313 66.8445 70.5234 66.8118 70.5234 66.592C70.5234 66.1867 70.5564 65.8624 70.5643 65.733C70.5722 65.6441 70.5895 65.6036 70.6303 65.6036C70.6791 65.6036 70.6869 65.6286 70.6869 65.6925C70.6869 65.7657 70.6869 65.8795 70.7121 65.9918C70.8347 66.592 71.3738 66.818 71.9224 66.818C72.7068 66.818 73.0919 66.2584 73.0919 65.7392C73.0919 65.1796 72.8546 64.8553 72.1519 64.2801L71.7841 63.9808C70.918 63.2762 70.7215 62.7726 70.7215 62.2223C70.7215 61.3556 71.3754 60.7632 72.4129 60.7632C72.7319 60.7632 72.9693 60.7959 73.1737 60.8442C73.3293 60.877 73.3937 60.8848 73.4597 60.8848C73.5258 60.8848 73.5415 60.9004 73.5415 60.9409C73.5415 60.9814 73.5085 61.2496 73.5085 61.7999C73.5085 61.9292 73.4927 61.9869 73.4519 61.9869C73.4032 61.9869 73.3953 61.9464 73.3859 61.8809C73.378 61.7843 73.3293 61.5645 73.279 61.4756C73.2287 61.3868 73.0086 61.0453 72.2572 61.0453C71.6929 61.0453 71.2512 61.3945 71.2512 61.9854C71.2512 62.4468 71.4634 62.7399 72.2478 63.3479L72.4773 63.5256C73.4424 64.2801 73.6704 64.7821 73.6704 65.4306C73.6704 65.7626 73.5399 66.3784 72.9756 66.7759C72.6235 67.0191 72.1834 67.1158 71.7417 67.1158C71.3581 67.1189 70.9809 67.0628 70.646 66.9006Z" fill="black"/>
</g>
<defs>
<clipPath id="clip0_2796_13889">
<rect width="78" height="68" fill="white"/>
</clipPath>
</defs>
</svg>
