<svg width="56" height="64" viewBox="0 0 56 64" fill="none" xmlns="http://www.w3.org/2000/svg">
<path d="M4.33925 58.632L0.0729496 51.2258C0.0252403 51.1428 8.08635e-05 51.0485 1.94599e-07 50.9526C-8.04743e-05 50.8567 0.0249205 50.7625 0.0724901 50.6794C0.12006 50.5962 0.188522 50.5272 0.270995 50.4792C0.353468 50.4312 0.447046 50.4058 0.542323 50.4058H3.12791C3.22445 50.4058 3.31923 50.4317 3.40246 50.481C3.48569 50.5302 3.55434 50.601 3.60131 50.6859L5.68365 54.4369C5.73076 54.5214 5.79938 54.5917 5.88244 54.6406C5.9655 54.6896 6.06001 54.7154 6.15625 54.7154C6.2525 54.7154 6.34701 54.6896 6.43007 54.6406C6.51313 54.5917 6.58174 54.5214 6.62885 54.4369L8.74023 50.6802C8.78762 50.5961 8.85634 50.5261 8.93937 50.4775C9.0224 50.4288 9.11676 50.4032 9.21283 50.4033H11.7129C11.8083 50.4035 11.9019 50.4289 11.9843 50.477C12.0668 50.5251 12.1352 50.5943 12.1827 50.6775C12.2302 50.7607 12.2551 50.855 12.2549 50.951C12.2547 51.0469 12.2294 51.1412 12.1815 51.2242L7.90229 58.632C7.85407 58.7156 7.82875 58.8105 7.8289 58.9072V63.4539C7.82869 63.5987 7.77143 63.7376 7.66969 63.84C7.56795 63.9424 7.43002 64.0001 7.28614 64.0003H4.95459C4.81071 64.0001 4.67278 63.9424 4.57104 63.84C4.4693 63.7376 4.41204 63.5987 4.41183 63.4539V58.9072C4.41215 58.8106 4.38711 58.7157 4.33925 58.632Z" fill="#0A4771"/>
<path d="M14.1328 63.2656V51.1365C14.1328 50.9427 14.2093 50.7569 14.3454 50.6198C14.4815 50.4828 14.6661 50.4058 14.8586 50.4058H16.8176C17.0101 50.4058 17.1947 50.4828 17.3308 50.6198C17.467 50.7569 17.5434 50.9427 17.5434 51.1365V53.9652C17.5414 54.1215 17.5891 54.2744 17.6798 54.4013C17.7704 54.5283 17.8991 54.6226 18.0469 54.6705C18.1947 54.7184 18.3539 54.7173 18.5011 54.6673C18.6482 54.6174 18.7756 54.5213 18.8644 54.3931L21.5016 50.7078C21.5689 50.6135 21.6576 50.5367 21.7603 50.4837C21.8629 50.4308 21.9766 50.4032 22.092 50.4034H24.2953C24.43 50.402 24.5625 50.4384 24.6778 50.5085C24.7932 50.5786 24.8869 50.6797 24.9484 50.8004C25.0099 50.921 25.0369 51.0566 25.0262 51.1918C25.0156 51.327 24.9677 51.4566 24.8881 51.566L21.3871 56.4374C21.2986 56.5611 21.2504 56.7094 21.2493 56.8618C21.2481 57.0143 21.294 57.1633 21.3807 57.2883L25.2478 62.8434C25.3251 62.9531 25.3709 63.0821 25.38 63.2163C25.3892 63.3505 25.3614 63.4846 25.2997 63.6039C25.238 63.7232 25.1448 63.823 25.0303 63.8924C24.9158 63.9618 24.7846 63.998 24.651 63.9971H22.2146C22.0948 63.9975 21.9769 63.968 21.8712 63.9113C21.7655 63.8547 21.6754 63.7726 21.6089 63.6723L18.8814 59.5649C18.7955 59.4328 18.6695 59.3323 18.5221 59.2784C18.3748 59.2244 18.214 59.22 18.0639 59.2657C17.9139 59.3114 17.7825 59.4048 17.6896 59.5319C17.5966 59.659 17.547 59.813 17.5483 59.9709V63.2656C17.5483 63.4594 17.4718 63.6452 17.3357 63.7823C17.1996 63.9193 17.0149 63.9963 16.8224 63.9963H14.8611C14.7655 63.9966 14.6709 63.9779 14.5826 63.9414C14.4942 63.9048 14.4139 63.851 14.3463 63.7831C14.2786 63.7152 14.2249 63.6346 14.1883 63.5458C14.1517 63.457 14.1328 63.3617 14.1328 63.2656Z" fill="#0A4771"/>
<path d="M29.9204 63.9954H28.1268C27.9129 63.9954 27.7078 63.9099 27.5565 63.7576C27.4053 63.6054 27.3203 63.3989 27.3203 63.1835V51.2152C27.3203 50.9999 27.4053 50.7934 27.5565 50.6411C27.7078 50.4889 27.9129 50.4033 28.1268 50.4033H29.9204C30.1343 50.4033 30.3394 50.4889 30.4907 50.6411C30.6419 50.7934 30.7269 50.9999 30.7269 51.2152V63.1803C30.7273 63.2872 30.7068 63.3931 30.6664 63.492C30.6261 63.5909 30.5668 63.6808 30.4918 63.7565C30.4169 63.8322 30.3278 63.8923 30.2298 63.9333C30.1317 63.9743 30.0266 63.9954 29.9204 63.9954Z" fill="#0A4771"/>
<path d="M33.5234 51.2907C33.5234 51.0554 33.6163 50.8297 33.7816 50.6632C33.9469 50.4968 34.1711 50.4033 34.4049 50.4033H38.8011C40.3011 50.4033 41.5254 50.7849 42.4569 51.5319C43.3884 52.2788 43.8537 53.3725 43.8537 54.8136C43.8537 56.2896 43.3537 57.4182 42.3706 58.1822C41.3875 58.9283 40.1285 59.3107 38.5938 59.3107H37.8026C37.5689 59.3107 37.3446 59.4042 37.1793 59.5707C37.014 59.7371 36.9212 59.9628 36.9212 60.1982V63.1113C36.9209 63.3466 36.828 63.5722 36.6627 63.7385C36.4975 63.9049 36.2734 63.9985 36.0397 63.9987H34.4049C34.1711 63.9987 33.9469 63.9052 33.7816 63.7388C33.6163 63.5723 33.5234 63.3466 33.5234 63.1113V51.2907ZM36.9212 55.5062C36.9212 55.7415 37.014 55.9672 37.1793 56.1336C37.3446 56.3001 37.5689 56.3936 37.8026 56.3936H38.5422C39.8011 56.3936 40.439 55.9064 40.439 54.9524C40.439 53.9278 39.8011 53.4098 38.5244 53.4098H37.8026C37.5689 53.4098 37.3446 53.5033 37.1793 53.6697C37.014 53.8361 36.9212 54.0619 36.9212 54.2972V55.5062Z" fill="#0A4771"/>
<path d="M45.6641 51.2907C45.6641 51.0554 45.7569 50.8297 45.9222 50.6632C46.0876 50.4968 46.3118 50.4033 46.5455 50.4033H50.9417C52.4426 50.4033 53.6668 50.7849 54.5983 51.5319C55.5298 52.2788 55.9951 53.3725 55.9951 54.8136C55.9951 56.2896 55.4951 57.4182 54.512 58.1822C53.5289 58.9283 52.27 59.3107 50.7352 59.3107H49.9433C49.7095 59.3107 49.4853 59.4042 49.32 59.5707C49.1546 59.7371 49.0618 59.9628 49.0618 60.1982V63.1113C49.0618 63.3466 48.9689 63.5723 48.8036 63.7388C48.6383 63.9052 48.4141 63.9987 48.1803 63.9987H46.5455C46.3118 63.9985 46.0877 63.9049 45.9225 63.7385C45.7572 63.5722 45.6643 63.3466 45.6641 63.1113V51.2907ZM49.0618 55.5062C49.0618 55.7415 49.1546 55.9672 49.32 56.1336C49.4853 56.3001 49.7095 56.3936 49.9433 56.3936H50.6828C51.9425 56.3936 52.5805 55.9064 52.5805 54.9524C52.5805 53.9278 51.9425 53.4098 50.6659 53.4098H49.94C49.7062 53.4098 49.482 53.5033 49.3167 53.6697C49.1514 53.8361 49.0585 54.0619 49.0585 54.2972L49.0618 55.5062Z" fill="#0A4771"/>
<path d="M30.9695 30.0803C31.3653 30.0803 31.7448 29.9222 32.0248 29.6407C32.3049 29.3593 32.4625 28.9774 32.4632 28.5791V12.0324H35.4512C36.6331 12.0324 37.7885 11.6796 38.7713 11.0185C39.754 10.3575 40.52 9.41785 40.9723 8.31853C41.4246 7.21921 41.543 6.00955 41.3124 4.84251C41.0818 3.67548 40.5126 2.60349 39.6769 1.76211C38.8411 0.920729 37.7763 0.34774 36.617 0.115603C35.4578 -0.116534 34.2562 0.00260674 33.1642 0.45796C32.0723 0.913313 31.1389 1.68443 30.4823 2.67379C29.8256 3.66315 29.4751 4.82632 29.4751 6.01622V9.02433H26.4911V6.01622C26.4911 4.82632 26.1407 3.66315 25.484 2.67379C24.8273 1.68443 23.894 0.913313 22.802 0.45796C21.7101 0.00260674 20.5085 -0.116534 19.3492 0.115603C18.19 0.34774 17.1252 0.920729 16.2894 1.76211C15.4536 2.60349 14.8845 3.67548 14.6539 4.84251C14.4233 6.00955 14.5417 7.21921 14.994 8.31853C15.4463 9.41785 16.2122 10.3575 17.195 11.0185C18.1777 11.6796 19.3332 12.0324 20.5151 12.0324H23.5031V28.5791C23.5122 28.9719 23.6736 29.3456 23.9528 29.6202C24.232 29.8948 24.6068 30.0486 24.9971 30.0486C25.3875 30.0486 25.7623 29.8948 26.0415 29.6202C26.3207 29.3456 26.4821 28.9719 26.4911 28.5791V12.0324H29.4751V28.5791C29.476 28.9775 29.6338 29.3593 29.914 29.6408C30.1941 29.9222 30.5738 30.0803 30.9695 30.0803ZM32.4632 6.01622C32.4632 5.42127 32.6384 4.83969 32.9667 4.345C33.2951 3.85032 33.7617 3.46477 34.3077 3.23709C34.8537 3.00941 35.4545 2.94984 36.0341 3.06591C36.6137 3.18198 37.1461 3.46847 37.564 3.88917C37.9819 4.30986 38.2665 4.84585 38.3818 5.42937C38.4971 6.01288 38.4379 6.61771 38.2117 7.16737C37.9856 7.71703 37.6026 8.18684 37.1112 8.51737C36.6199 8.84791 36.0421 9.02433 35.4512 9.02433H32.4632V6.01622ZM23.4999 9.02433H20.5119C19.9209 9.02433 19.3432 8.84791 18.8518 8.51737C18.3604 8.18684 17.9775 7.71703 17.7513 7.16737C17.5252 6.61771 17.466 6.01288 17.5813 5.42937C17.6966 4.84585 17.9811 4.30986 18.399 3.88917C18.8169 3.46847 19.3493 3.18198 19.9289 3.06591C20.5086 2.94984 21.1094 3.00941 21.6553 3.23709C22.2013 3.46477 22.668 3.85032 22.9963 4.345C23.3247 4.83969 23.4999 5.42127 23.4999 6.01622V9.02433Z" fill="#E5BC26"/>
<path d="M44.6913 24.6255C44.205 24.0225 43.5013 23.638 42.7341 23.5561C41.9668 23.4742 41.1986 23.7017 40.5976 24.1887C37.0937 27.0478 32.7187 28.6049 28.2084 28.5982C24.4741 28.5982 20.8165 27.5308 17.6612 25.5199C14.5059 23.5091 11.9827 20.6376 10.3851 17.2396C10.2162 16.8786 9.97795 16.555 9.68405 16.2873C9.39015 16.0196 9.04646 15.8132 8.67285 15.68C8.29924 15.5468 7.90312 15.4895 7.50737 15.5114C7.11163 15.5332 6.72412 15.6339 6.36723 15.8074C5.67735 16.1425 5.14618 16.7375 4.88857 17.4637C4.63096 18.19 4.6676 18.9891 4.99056 19.6883C9.08024 28.4707 17.9403 34.5527 28.2124 34.5527C34.0807 34.5616 39.7728 32.5344 44.33 28.8125C44.6265 28.5686 44.8723 28.2684 45.0534 27.9288C45.2345 27.5893 45.3474 27.2171 45.3856 26.8336C45.4238 26.4501 45.3866 26.0628 45.276 25.6938C45.1655 25.3249 44.9838 24.9814 44.7413 24.6832L44.6913 24.6255Z" fill="#0A4771"/>
<path d="M49.7943 16.3035C49.4454 16.1288 49.0657 16.0251 48.677 15.9982C48.2883 15.9714 47.8981 16.0219 47.5288 16.1469C47.1595 16.2719 46.8182 16.469 46.5246 16.7268C46.231 16.9847 45.9907 17.2982 45.8175 17.6496C45.611 18.0648 45.3903 18.4707 45.1554 18.8675C44.8086 19.4506 44.6699 20.1354 44.7623 20.8086C44.8547 21.4819 45.1726 22.1032 45.6634 22.5698C47.0345 23.8688 49.2563 23.5733 50.2201 21.947C50.5357 21.4144 50.8314 20.8699 51.1072 20.3135C51.283 19.9635 51.3885 19.582 51.4176 19.1909C51.4468 18.7998 51.399 18.4068 51.277 18.0343C51.1551 17.6618 50.9613 17.3172 50.7069 17.0202C50.4525 16.7232 50.1423 16.4796 49.7943 16.3035Z" fill="#E5BC26"/>
<path d="M10.123 16.8126C10.123 16.8126 8.70678 24.1693 14.4054 30.5062C14.4054 30.5062 8.93341 27.5216 5.34536 20.4516C5.34536 20.4516 3.61142 18.1782 5.77361 16.1866C6.11678 15.8903 6.52554 15.6812 6.96559 15.5769C7.23014 15.5178 7.50155 15.4959 7.77207 15.5119C8.06887 15.524 8.36243 15.5787 8.64388 15.6743C8.97852 15.7935 9.29012 15.9701 9.56488 16.1964C9.77799 16.3752 9.96576 16.5825 10.123 16.8126Z" fill="#E5BC26"/>
<path d="M6.87535 15.585C6.90672 17.1874 7.14033 18.7793 7.57054 20.3224C9.07625 25.7037 12.6046 29.0293 14.3998 30.4932C14.0652 30.2999 13.6151 30.0255 13.1054 29.6634C12.5258 29.247 11.9703 28.7975 11.4417 28.3173C10.7062 27.6677 10.1723 27.1294 9.94725 26.8972C9.65208 26.5936 9.09883 26.009 8.46493 25.2345C7.6342 24.2162 6.87942 23.1375 6.20678 22.0071C6.05516 21.7603 5.90408 21.5065 5.75354 21.2456C5.57235 20.936 5.4011 20.6315 5.23981 20.3322C5.02768 20.0088 4.87068 19.6521 4.77527 19.2767C4.63918 18.792 4.6278 18.2804 4.74221 17.7901C4.81948 17.4813 4.94849 17.1881 5.12367 16.923C5.14625 16.8881 5.16561 16.8548 5.16561 16.8548C5.26668 16.6969 5.38167 16.5486 5.50917 16.4115C5.83735 16.0741 6.2352 15.8136 6.67454 15.6483C6.7568 15.6166 6.82777 15.5971 6.87535 15.585Z" fill="#EFC337"/>
<path d="M34.2315 41.0493H21.7778C21.079 41.0473 20.4093 40.767 19.9152 40.2695C19.421 39.7721 19.1425 39.0979 19.1406 38.3943C19.1428 37.691 19.4213 37.017 19.9154 36.5197C20.4096 36.0224 21.0791 35.7422 21.7778 35.7402H34.2315C34.929 35.7479 35.5964 36.0273 36.0937 36.5197C36.3387 36.7656 36.5331 37.0578 36.6657 37.3795C36.7982 37.7012 36.8664 38.0461 36.8663 38.3943C36.8644 39.0975 36.5863 39.7713 36.0926 40.2687C35.599 40.7661 34.93 41.0467 34.2315 41.0493Z" fill="#0A4771"/>
<path d="M31.4041 41.9893H24.5748C23.3642 41.9893 22.3828 42.9773 22.3828 44.196C22.3828 45.4148 23.3642 46.4028 24.5748 46.4028H31.4041C32.6148 46.4028 33.5962 45.4148 33.5962 44.196C33.5962 42.9773 32.6148 41.9893 31.4041 41.9893Z" fill="#0A4771"/>
</svg>
