<svg width="25" height="25" viewBox="0 0 25 25" fill="none" xmlns="http://www.w3.org/2000/svg">
<path fill-rule="evenodd" clip-rule="evenodd" d="M17.1936 9.89348C17.2678 10.6714 17.3136 11.4913 17.3136 12.3669C17.3136 12.6948 17.1832 13.0094 16.9514 13.2413C16.7195 13.4732 16.4049 13.6035 16.0769 13.6035C15.7489 13.6035 15.4343 13.4732 15.2024 13.2413C14.9706 13.0094 14.8402 12.6948 14.8402 12.3669C14.8402 11.4851 14.792 10.6627 14.7104 9.89348H10.0073C9.83538 11.5378 9.83372 13.1956 10.0023 14.8402H12.3669C12.6948 14.8402 13.0094 14.9706 13.2413 15.2024C13.4732 15.4343 13.6035 15.7489 13.6035 16.0769C13.6035 16.4049 13.4732 16.7195 13.2413 16.9514C13.0094 17.1832 12.6948 17.3136 12.3669 17.3136H10.4079C10.9879 19.8859 11.8944 21.5307 12.3681 22.2603C12.3681 22.2603 13.3438 22.2764 13.5133 22.2628C13.8399 22.2417 14.1617 22.3497 14.4092 22.5637C14.6568 22.7778 14.8103 23.0805 14.8365 23.4067C14.8604 23.7337 14.7534 24.0567 14.5391 24.3049C14.3248 24.553 14.0208 24.706 13.6938 24.73C13.5776 24.7386 12.3669 24.7337 12.3669 24.7337C5.54777 24.7337 0 19.1859 0 12.3669C0 5.54653 5.54777 0 12.3669 0C19.1859 0 24.7337 5.54653 24.7337 12.3669C24.7337 12.8356 24.6892 13.2931 24.636 13.747C24.5869 14.0636 24.417 14.3488 24.162 14.5427C23.907 14.7365 23.5867 14.824 23.2686 14.7867C22.9504 14.7493 22.659 14.5902 22.4559 14.3426C22.2525 14.095 22.1532 13.7782 22.1787 13.4588C22.222 13.099 22.2603 12.7379 22.2603 12.3669C22.2603 11.5111 22.1391 10.685 21.9351 9.89348H17.1936ZM12.352 2.51789C11.8746 3.26732 10.9917 4.90593 10.4178 7.42011H14.2973C13.721 4.90593 12.8318 3.26732 12.352 2.51789V2.51789ZM2.79862 14.8402H7.52152C7.44979 14.0623 7.40403 13.2449 7.40403 12.3718C7.40482 11.5443 7.44444 10.7173 7.52276 9.89348H2.79862C2.59333 10.685 2.47337 11.5111 2.47337 12.3669C2.47645 13.2017 2.58574 14.0329 2.79862 14.8402V14.8402ZM3.81146 17.3136C5.03269 19.4205 6.98545 21.0053 9.29863 21.7669C8.65425 20.3426 8.1778 18.8481 7.87892 17.3136H3.81146ZM7.88139 7.42011C8.25364 5.56385 8.79036 4.07735 9.30358 2.96433C6.98811 3.72529 5.03333 5.3112 3.81146 7.42011H7.88139ZM16.8338 7.42011H20.921C19.6941 5.30127 17.7276 3.71045 15.3992 2.9532C16.0514 4.38055 16.533 5.87989 16.8338 7.42011Z" fill="#AAAAAA"/>
<path d="M18.8265 23.4295L15.6728 16.4913C15.4364 15.9712 15.9715 15.4362 16.4916 15.6725L23.4297 18.8263C23.9032 19.0415 23.9156 19.7097 23.4503 19.9423L21.2961 21.0193C21.1764 21.0792 21.0795 21.1763 21.0196 21.2959L19.9425 23.4502C19.7098 23.9154 19.0418 23.903 18.8265 23.4295V23.4295Z" fill="#AAAAAA"/>
</svg>
