<svg width="512" height="512" viewBox="0 0 512 512" fill="none" xmlns="http://www.w3.org/2000/svg">
<path d="M78.2018 237.052C69.3653 237.076 60.7165 239.602 53.2558 244.337C45.7951 249.073 39.8275 255.823 36.0434 263.808C32.2593 271.794 30.8133 280.687 31.8727 289.46C32.9322 298.233 36.4537 306.526 42.03 313.381L160.903 459C165.141 464.262 170.574 468.438 176.75 471.179C182.926 473.921 189.668 475.149 196.414 474.762C210.842 473.987 223.869 466.269 232.174 453.578L479.103 55.9C479.143 55.834 479.185 55.7681 479.229 55.7031C481.546 52.1457 480.794 45.0958 476.012 40.667C474.698 39.4508 473.149 38.5164 471.461 37.9214C469.773 37.3264 467.98 37.0833 466.194 37.2072C464.408 37.3311 462.666 37.8193 461.076 38.6417C459.486 39.4642 458.081 40.6034 456.948 41.9894C456.859 42.0983 456.768 42.2056 456.674 42.3113L207.643 323.679C206.696 324.75 205.545 325.621 204.257 326.244C202.97 326.866 201.572 327.226 200.144 327.303C198.717 327.38 197.288 327.173 195.941 326.693C194.594 326.214 193.356 325.471 192.298 324.509L109.649 249.298C101.066 241.429 89.8464 237.06 78.2018 237.052V237.052Z" fill="#5AA970"/>
</svg>
