<svg width="63" height="64" viewBox="0 0 63 64" fill="none" xmlns="http://www.w3.org/2000/svg">
<rect y="0.176147" width="63" height="63" rx="10" fill="#FDE8EF"/>
<path d="M47.6602 16.5902H16.3398C14.4982 16.5902 13 18.0884 13 19.9301V31.0629C13 32.9045 14.4982 34.4027 16.3398 34.4027H47.6602C49.5018 34.4027 51 32.9045 51 31.0629V19.9301C51 18.0884 49.5018 16.5902 47.6602 16.5902ZM40.9805 23.2699C41.5953 23.2699 42.0938 23.7684 42.0938 24.3832C42.0938 24.998 41.5953 25.4965 40.9805 25.4965C40.3656 25.4965 39.8672 24.998 39.8672 24.3832C39.8672 23.7684 40.3656 23.2699 40.9805 23.2699ZM45.4336 29.9496H18.5664C17.9511 29.9496 17.4531 29.4517 17.4531 28.8363C17.4531 28.221 17.9511 27.723 18.5664 27.723H45.4336C46.0489 27.723 46.5469 28.221 46.5469 28.8363C46.5469 29.4517 46.0489 29.9496 45.4336 29.9496ZM45.4336 25.4965C44.8188 25.4965 44.3203 24.998 44.3203 24.3832C44.3203 23.7684 44.8188 23.2699 45.4336 23.2699C46.0484 23.2699 46.5469 23.7684 46.5469 24.3832C46.5469 24.998 46.0484 25.4965 45.4336 25.4965Z" fill="#F06292"/>
<path d="M23.0903 36.6293C22.4749 36.6293 21.977 37.1272 21.977 37.7426V39.444C21.977 42.0902 20.506 44.469 18.1392 45.6529C17.5891 45.928 17.3662 46.5966 17.6413 47.1467C17.915 47.6925 18.5794 47.9205 19.1351 47.6447C22.2618 46.0813 24.2035 42.9393 24.2035 39.444V37.7426C24.2035 37.1272 23.7056 36.6293 23.0903 36.6293Z" fill="#F06292"/>
<path d="M40.9102 36.6293C40.2948 36.6293 39.7969 37.1272 39.7969 37.7426V39.444C39.7969 42.9393 41.7386 46.0813 44.8653 47.6447C45.4205 47.9202 46.0852 47.6931 46.3591 47.1467C46.6342 46.5966 46.4113 45.928 45.8612 45.6529C43.4944 44.469 42.0234 42.0902 42.0234 39.444V37.7426C42.0234 37.1272 41.5255 36.6293 40.9102 36.6293Z" fill="#F06292"/>
<path d="M33.1172 46.6488V37.7426C33.1172 37.1272 32.6193 36.6293 32.0039 36.6293C31.3886 36.6293 30.8906 37.1272 30.8906 37.7426V46.6488C30.8906 47.2642 31.3886 47.7621 32.0039 47.7621C32.6193 47.7621 33.1172 47.2642 33.1172 46.6488Z" fill="#F06292"/>
<path d="M37.5703 46.6488V37.7426C37.5703 37.1272 37.0724 36.6293 36.457 36.6293C35.8417 36.6293 35.3438 37.1272 35.3438 37.7426V46.6488C35.3438 47.2642 35.8417 47.7621 36.457 47.7621C37.0724 47.7621 37.5703 47.2642 37.5703 46.6488Z" fill="#F06292"/>
<path d="M28.6641 46.6488V37.7426C28.6641 37.1272 28.1661 36.6293 27.5508 36.6293C26.9354 36.6293 26.4375 37.1272 26.4375 37.7426V46.6488C26.4375 47.2642 26.9354 47.7621 27.5508 47.7621C28.1661 47.7621 28.6641 47.2642 28.6641 46.6488Z" fill="#F06292"/>
</svg>
