<svg width="82" height="82" viewBox="0 0 82 82" fill="none" xmlns="http://www.w3.org/2000/svg">
<rect opacity="0.3" width="82" height="82" rx="41" fill="#4B92FE"/>
<path d="M44.0262 63.9281H38.0323C36.5689 63.9281 35.3237 62.9122 35.0029 61.4589L34.2424 58.0307C33.0043 57.4981 31.8257 56.8026 30.721 55.9551L27.4375 57.0076C26.0282 57.4487 24.4964 56.8428 23.7899 55.5653L20.802 50.3159C20.0865 49.0163 20.328 47.4148 21.3823 46.4081L23.9269 44.0323C23.8494 43.3368 23.8097 42.6431 23.8097 41.964C23.8097 41.285 23.8476 40.5913 23.9251 39.8958L21.3931 37.531C20.328 36.5133 20.0847 34.9136 20.793 33.6305L23.7989 28.35C24.4982 27.0871 26.0282 26.4757 27.4339 26.9205L30.721 27.9729C31.8257 27.1255 33.0061 26.43 34.2424 25.8973L35.0029 22.4673C35.3237 21.0158 36.5689 20 38.0323 20H44.0262C45.4896 20 46.7349 21.0158 47.0556 22.4691L47.8161 25.8973C49.0542 26.43 50.2328 27.1255 51.3375 27.9729L54.6211 26.9205C56.0267 26.4739 57.5604 27.0852 58.2686 28.3628L61.2566 33.6122C61.972 34.9117 61.7305 36.5133 60.6763 37.52L58.1316 39.8958C58.2091 40.5913 58.247 41.285 58.247 41.964C58.247 42.6431 58.2091 43.3368 58.1316 44.0323L60.6655 46.3971C60.6691 46.4008 60.6727 46.4044 60.6763 46.4081C61.7305 47.4148 61.9738 49.0145 61.2656 50.2975L58.2596 55.5781C57.5586 56.841 56.0285 57.4523 54.6247 57.0076L51.3357 55.9533C50.231 56.8007 49.0506 57.4963 47.8143 58.0289L47.0538 61.4589C46.7349 62.9122 45.4896 63.9281 44.0262 63.9281ZM30.9985 53.054C31.3085 53.054 31.613 53.162 31.8599 53.367C33.0944 54.4012 34.446 55.1974 35.8751 55.7336C36.304 55.8947 36.6248 56.2663 36.7257 56.7202L37.643 60.8568C37.6845 61.0453 37.8503 61.1826 38.0359 61.1826H44.0298C44.2155 61.1826 44.3795 61.0453 44.4227 60.8586L45.34 56.722C45.4409 56.2681 45.7599 55.8965 46.1906 55.7355C47.6197 55.1992 48.9713 54.4012 50.2058 53.3689C50.559 53.0723 51.033 52.9772 51.4727 53.1181L55.4392 54.3902C55.6267 54.4487 55.8285 54.3829 55.9168 54.22L58.9228 48.9413C59.0129 48.7784 58.9804 48.5551 58.8345 48.4123L55.7924 45.5716C55.4608 45.2623 55.3041 44.8084 55.3725 44.3563C55.4915 43.5509 55.5528 42.7456 55.5528 41.964C55.5528 41.1825 55.4933 40.379 55.3725 39.5718C55.3059 39.1197 55.4627 38.6658 55.7924 38.3564L58.8417 35.5084C58.9786 35.3766 59.0147 35.1515 58.9138 34.9703L55.9258 29.7227C55.8285 29.5489 55.6339 29.4811 55.4356 29.5397L51.4745 30.81C51.0348 30.9509 50.5608 30.8557 50.2076 30.5592C48.9731 29.5251 47.6215 28.7289 46.1924 28.1926C45.7635 28.0315 45.4427 27.66 45.3418 27.206L44.4245 23.0695C44.3758 22.8828 44.2119 22.7455 44.0262 22.7455H38.0323C37.8467 22.7455 37.6827 22.8828 37.6394 23.0695L36.7221 27.2079C36.623 27.6618 36.3022 28.0315 35.8733 28.1944C34.4442 28.7307 33.0926 29.5269 31.8581 30.561C31.5049 30.8576 31.0309 30.9509 30.5912 30.8118L26.6247 29.5397C26.4373 29.4811 26.2354 29.5489 26.1471 29.7099L23.1411 34.9868C23.0492 35.1515 23.0853 35.3767 23.2331 35.5194L26.2733 38.3564C26.6049 38.6658 26.7617 39.1197 26.6932 39.5718C26.5742 40.3771 26.513 41.1825 26.513 41.964C26.513 42.7456 26.5724 43.5491 26.6932 44.3563C26.7599 44.8084 26.6031 45.2623 26.2733 45.5716L23.224 48.4196C23.0871 48.5514 23.051 48.7765 23.152 48.9577L26.1399 54.2053C26.239 54.381 26.4355 54.4524 26.6301 54.3883L30.5912 53.1181C30.7246 53.0742 30.8615 53.054 30.9985 53.054Z" fill="#4B92FE"/>
<path d="M39.6782 49.2848C39.5755 49.2848 39.4745 49.2738 39.3718 49.25C38.6456 49.0798 38.1914 48.3422 38.359 47.6045L41.0622 35.7073C41.2298 34.9661 41.9651 34.5103 42.6824 34.6769C43.4086 34.8471 43.8628 35.5847 43.6952 36.3223L40.9919 48.2195C40.8478 48.8565 40.2927 49.2848 39.6782 49.2848Z" fill="#4B92FE"/>
<path d="M46.8875 47.4551C46.5181 47.4551 46.1505 47.3031 45.8819 47.0011C45.3827 46.4374 45.4278 45.5698 45.9829 45.061L49.3727 41.9641L45.9829 38.8671C45.4278 38.3601 45.3827 37.4925 45.8819 36.927C46.3829 36.3651 47.2371 36.3193 47.7922 36.8245L52.2976 40.9427C52.5823 41.2045 52.7445 41.576 52.7445 41.9641C52.7445 42.3521 52.5823 42.7236 52.2976 42.9854L47.7922 47.1036C47.5327 47.3397 47.2101 47.4551 46.8875 47.4551Z" fill="#4B92FE"/>
<path d="M35.1695 47.455C34.8469 47.455 34.5243 47.3396 34.2648 47.1035L29.7594 42.9853C29.4747 42.7235 29.3125 42.352 29.3125 41.964C29.3125 41.5759 29.4747 41.2044 29.7594 40.9426L34.2648 36.8244C34.8199 36.3174 35.6723 36.3631 36.1751 36.9269C36.6743 37.4906 36.6292 38.3582 36.0742 38.867L32.6843 41.964L36.0742 45.0609C36.6292 45.5679 36.6743 46.4355 36.1751 47.001C35.9066 47.303 35.5389 47.455 35.1695 47.455Z" fill="#4B92FE"/>
</svg>
