<svg width="30" height="30" viewBox="0 0 30 30" fill="none" xmlns="http://www.w3.org/2000/svg">
<path d="M24.2502 18.5698C23.2427 18.353 22.4456 18.8208 21.7399 19.2294C21.0171 19.6504 19.6427 20.7653 18.8549 20.4799C14.8216 18.8193 11.0282 15.289 9.38608 11.2395C9.09666 10.4349 10.2064 9.05185 10.6242 8.32054C11.0297 7.61262 11.4879 6.80802 11.2789 5.79292C11.0901 4.88073 8.64783 1.77306 7.78421 0.923242C7.21465 0.361895 6.63117 0.053155 6.0322 0.00325754C3.78029 -0.0934188 1.26527 2.91134 0.824179 3.63018C-0.280883 5.16297 -0.274692 7.20252 0.842751 9.67556C3.53576 16.3182 13.7212 26.3429 20.3887 29.1371C21.6191 29.7125 22.7443 30.001 23.755 30.001C24.744 30.001 25.6246 29.725 26.3814 29.1777C26.9525 28.8487 30.0804 26.2088 29.9984 23.8963C29.9489 23.3069 29.6409 22.7175 29.0868 22.1468C28.2433 21.2752 25.1556 18.76 24.2502 18.5698Z" fill="white"/>
</svg>
