<svg width="36" height="36" viewBox="0 0 36 36" fill="none" xmlns="http://www.w3.org/2000/svg">
<path fill-rule="evenodd" clip-rule="evenodd" d="M21.5338 3.01189C21.1991 2.96393 20.863 3.06286 20.5956 3.27571C20.3208 3.49157 20.149 3.80335 20.1116 4.15261C20.0324 4.85863 20.5419 5.49719 21.247 5.57663C26.1094 6.11926 29.8889 9.90716 30.4356 14.7848C30.5088 15.4384 31.0571 15.9315 31.7114 15.9315C31.7607 15.9315 31.8085 15.9285 31.8578 15.9225C32.1999 15.8851 32.5046 15.7157 32.7197 15.4459C32.9334 15.176 33.0305 14.8403 32.9916 14.497C32.3104 8.41119 27.6003 3.68793 21.5338 3.01189ZM21.6271 8.23491C20.9131 8.103 20.2573 8.55869 20.1213 9.25571C19.9854 9.95273 20.4425 10.6333 21.1372 10.7697C23.2285 11.1774 24.8434 12.7963 25.2527 14.8948V14.8963C25.3692 15.5004 25.9011 15.9396 26.5135 15.9396C26.5957 15.9396 26.6779 15.9321 26.7615 15.9171C27.4562 15.7777 27.9133 15.0987 27.7773 14.4002C27.1663 11.2658 24.7538 8.84499 21.6271 8.23491ZM24.0001 22.6358C24.6773 22.2453 25.4422 21.8043 26.407 22.0095C27.2809 22.1939 30.2597 24.6118 31.0753 25.4497C31.6101 25.9983 31.9074 26.5649 31.9537 27.1315C32.0344 29.3545 29.0138 31.8923 28.4641 32.2085C27.7336 32.7347 26.8836 33 25.929 33C24.9535 33 23.866 32.7227 22.6799 32.1696C16.2443 29.4834 6.41329 19.8465 3.81399 13.4609C2.73543 11.0836 2.72796 9.1229 3.79606 7.64941C4.22181 6.95838 6.64932 4.06987 8.82288 4.16131C9.401 4.21077 9.96269 4.50757 10.5139 5.0472C11.3475 5.86414 13.7048 8.85158 13.887 9.72848C14.0887 10.7028 13.6465 11.4778 13.2536 12.1583C13.1698 12.3046 13.0569 12.4782 12.9332 12.6684C12.4638 13.3903 11.839 14.351 12.0601 14.9644C13.645 18.8557 17.3065 22.2509 21.1994 23.8458C21.8015 24.0646 22.7617 23.4353 23.4812 22.9637C23.6687 22.8409 23.8398 22.7288 23.984 22.6451L24.0001 22.6358Z" fill="white"/>
</svg>
