<svg width="24" height="20" viewBox="0 0 24 20" fill="none" xmlns="http://www.w3.org/2000/svg">
<path d="M1.38255 0.419604C1.53284 0.286595 1.71138 0.181067 1.90794 0.109064C2.1045 0.0370616 2.31523 0 2.52804 0C2.74085 0 2.95157 0.0370616 3.14814 0.109064C3.3447 0.181067 3.52324 0.286595 3.67353 0.419604L12.2356 7.98082L20.7976 0.419604C20.948 0.286811 21.1266 0.181473 21.3232 0.109605C21.5197 0.0377376 21.7304 0.00074779 21.9431 0.00074779C22.1558 0.00074779 22.3665 0.0377376 22.563 0.109605C22.7596 0.181473 22.9382 0.286811 23.0886 0.419604C23.239 0.552398 23.3583 0.710047 23.4397 0.88355C23.5212 1.05705 23.5631 1.24301 23.5631 1.43081C23.5631 1.61861 23.5212 1.80457 23.4397 1.97808C23.3583 2.15158 23.239 2.30923 23.0886 2.44202L14.5233 10.0004L23.0886 17.5587C23.239 17.6915 23.3583 17.8492 23.4397 18.0227C23.5212 18.1962 23.5631 18.3821 23.5631 18.5699C23.5631 18.7577 23.5212 18.9437 23.4397 19.1172C23.3583 19.2907 23.239 19.4484 23.0886 19.5811C22.9382 19.7139 22.7596 19.8193 22.563 19.8911C22.3665 19.963 22.1558 20 21.9431 20C21.7304 20 21.5197 19.963 21.3232 19.8911C21.1266 19.8193 20.948 19.7139 20.7976 19.5811L12.2356 12.0199L3.67353 19.5811C3.5231 19.7139 3.34452 19.8193 3.14797 19.8911C2.95143 19.963 2.74078 20 2.52804 20C2.3153 20 2.10465 19.963 1.9081 19.8911C1.71156 19.8193 1.53298 19.7139 1.38255 19.5811C1.23212 19.4484 1.1128 19.2907 1.03139 19.1172C0.949975 18.9437 0.908074 18.7577 0.908074 18.5699C0.908074 18.3821 0.949975 18.1962 1.03139 18.0227C1.1128 17.8492 1.23212 17.6915 1.38255 17.5587L9.94782 10.0004L1.38255 2.44202C1.23188 2.30935 1.11234 2.15174 1.03077 1.97822C0.94921 1.8047 0.907227 1.61868 0.907227 1.43081C0.907227 1.24295 0.94921 1.05693 1.03077 0.883407C1.11234 0.709888 1.23188 0.552277 1.38255 0.419604Z" fill="#9A9A9A"/>
</svg>
