<svg width="153" height="154" viewBox="0 0 153 154" fill="none" xmlns="http://www.w3.org/2000/svg">
<path opacity="0.12" d="M44.8257 3.05176e-05C17.7821 24.0481 0 61.97 0 98.5045V100.817C0 132.264 15.1889 154 34.4528 154C54.0872 154 67.7942 135.964 67.7942 113.303C67.7942 91.5676 55.1985 75.8439 39.2688 75.8439C35.1937 75.8439 31.8596 76.7688 28.5254 78.1562C36.3051 55.4955 48.1598 36.997 64.8305 22.6607L44.8257 3.05176e-05ZM129.661 3.05176e-05C102.988 24.0481 85.2058 61.97 85.2058 98.5045V100.817C85.2058 132.264 100.395 154 119.659 154C139.293 154 153 135.964 153 113.303C153 91.5676 140.404 75.8439 124.475 75.8439C120.77 75.8439 117.065 76.7688 113.361 78.1562C121.14 55.4955 133.366 36.997 150.036 22.6607L129.661 3.05176e-05Z" fill="#4B92FE"/>
</svg>
