<svg width="63" height="64" viewBox="0 0 63 64" fill="none" xmlns="http://www.w3.org/2000/svg">
<rect y="0.176147" width="63" height="63" rx="10" fill="#E9F7F2"/>
<path d="M47.4375 19.1136H28.4375V16.7386C28.4375 16.0826 27.9061 15.5511 27.25 15.5511H14.1875C13.5314 15.5511 13 16.0826 13 16.7386V47.6136C13 48.2697 13.5314 48.8011 14.1875 48.8011H27.25C27.9061 48.8011 28.4375 48.2697 28.4375 47.6136V46.4261H43.875C44.5311 46.4261 45.0625 45.8947 45.0625 45.2386C45.0625 44.5826 44.5311 44.0511 43.875 44.0511H40.0987L39.3862 40.4886H47.4375C49.4021 40.4886 51 38.8907 51 36.9261V22.6761C51 20.7116 49.4021 19.1136 47.4375 19.1136ZM18.9375 41.0824C18.9375 40.1005 19.7368 39.3011 20.7188 39.3011C21.7007 39.3011 22.5 40.1005 22.5 41.0824C22.5 42.0643 21.7007 42.8636 20.7188 42.8636C19.7368 42.8636 18.9375 42.0643 18.9375 41.0824ZM22.5 34.5511H18.9375C18.2814 34.5511 17.75 34.0197 17.75 33.3636C17.75 32.7076 18.2814 32.1761 18.9375 32.1761H22.5C23.1561 32.1761 23.6875 32.7076 23.6875 33.3636C23.6875 34.0197 23.1561 34.5511 22.5 34.5511ZM15.375 29.8011V27.4261H26.0625V29.8011H15.375ZM26.0625 21.4886V23.8636H15.375V21.4886H26.0625ZM28.4375 40.4886H31.7388L31.0263 44.0511H28.4375V40.4886ZM28.4375 35.7386C28.4375 34.3038 28.4375 23.3532 28.4375 21.4886H47.4375C48.0921 21.4886 48.625 22.0215 48.625 22.6761V35.7386H28.4375Z" fill="#0FA76F"/>
</svg>
