<svg width="236" height="209" viewBox="0 0 236 209" fill="none" xmlns="http://www.w3.org/2000/svg">
<path opacity="0.9" d="M270.905 -33.4393C270.924 -32.7669 270.936 -32.093 270.942 -31.4175L270.442 -31.4129C270.446 -31.0768 270.447 -30.7402 270.447 -30.4033C270.447 -30.0664 270.446 -29.7298 270.442 -29.3936L270.942 -29.389C270.936 -28.7135 270.924 -28.0396 270.905 -27.3672L270.405 -27.3811C270.387 -26.7118 270.362 -26.044 270.331 -25.3778L270.831 -25.3547C270.8 -24.6801 270.762 -24.0071 270.719 -23.3358L270.22 -23.3681C270.176 -22.6981 270.127 -22.0298 270.071 -21.3632L270.569 -21.3215C270.513 -20.6516 270.451 -19.9835 270.383 -19.3172L269.885 -19.3681C269.817 -18.6987 269.742 -18.0311 269.661 -17.3654L270.158 -17.3052C270.077 -16.6364 269.989 -15.9695 269.896 -15.3045L269.401 -15.374C269.307 -14.7103 269.208 -14.0485 269.103 -13.3887L269.597 -13.3099C269.49 -12.6433 269.378 -11.9787 269.259 -11.3163L268.767 -11.4044C268.649 -10.745 268.525 -10.0877 268.395 -9.4326L268.885 -9.33524C268.754 -8.67378 268.616 -8.01451 268.473 -7.35747L267.984 -7.46408C267.841 -6.80847 267.692 -6.15512 267.537 -5.50406L268.024 -5.38823C267.868 -4.73405 267.706 -4.0822 267.538 -3.43271L267.054 -3.55769C266.886 -2.9071 266.712 -2.2589 266.533 -1.61314L267.014 -1.47902C266.834 -0.830231 266.647 -0.183899 266.455 0.4599L265.975 0.316696C265.784 0.958847 265.586 1.59846 265.382 2.2355L265.858 2.38773C265.653 3.03 265.442 3.66965 265.225 4.30663L264.752 4.14542C264.536 4.7794 264.314 5.41074 264.087 6.03934L264.557 6.20946C264.327 6.84331 264.092 7.4744 263.851 8.10266L263.385 7.92369C263.145 8.54974 262.899 9.17299 262.648 9.79335L263.111 9.98111C262.858 10.6048 262.6 11.2255 262.336 11.8433L261.876 11.6469C261.612 12.2639 261.343 12.878 261.068 13.489L261.524 13.6941C261.248 14.308 260.966 14.9189 260.679 15.5266L260.227 15.313C259.941 15.919 259.649 16.522 259.351 17.1217L259.799 17.3439C259.5 17.9474 259.195 18.5477 258.885 19.1447L258.441 18.9142C258.133 19.5084 257.819 20.0995 257.499 20.6872L257.938 20.926C257.617 21.518 257.289 22.1067 256.957 22.6919L256.522 22.4449C256.191 23.0275 255.855 23.6068 255.513 24.1825L255.943 24.4376C255.6 25.0166 255.251 25.592 254.897 26.1639L254.472 25.9008C254.119 26.4708 253.761 27.0373 253.398 27.6002L253.818 27.8712C253.453 28.4367 253.083 28.9986 252.708 29.5568L252.293 29.2779C251.919 29.8343 251.541 30.387 251.157 30.9359L251.566 31.2225C251.181 31.7741 250.79 32.322 250.394 32.8661L249.99 32.5719C249.595 33.1136 249.196 33.6515 248.792 34.1855L249.191 34.4872C248.785 35.0241 248.374 35.5572 247.958 36.0863L247.565 35.7772C247.151 36.3039 246.732 36.8266 246.308 37.3452L246.696 37.6615C246.27 38.1828 245.839 38.7001 245.404 39.2133L245.023 38.8898C244.589 39.4008 244.151 39.9076 243.708 40.4102L244.083 40.7407C243.639 41.2457 243.189 41.7466 242.735 42.2431L242.366 41.9057C241.914 42.4002 241.457 42.8904 240.996 43.3763L241.359 43.7205C240.895 44.2086 240.428 44.6924 239.955 45.1719L239.599 44.821C239.129 45.2982 238.654 45.771 238.176 46.2394L238.525 46.5969C238.044 47.0674 237.559 47.5335 237.069 47.9951L236.726 47.6312C236.238 48.0907 235.746 48.5456 235.25 48.996L235.586 49.3662C235.088 49.8184 234.586 50.2661 234.079 50.7091L233.75 50.3327C233.246 50.7737 232.737 51.21 232.225 51.6417L232.547 52.0241C232.032 52.4576 231.514 52.8863 230.991 53.3103L230.676 52.922C230.156 53.3438 229.632 53.7608 229.103 54.173L229.411 54.5672C228.881 54.9813 228.346 55.3906 227.808 55.795L227.507 55.3952C226.972 55.7972 226.433 56.1944 225.89 56.5866L226.183 56.992C225.637 57.3859 225.088 57.7749 224.535 58.1589L224.25 57.7482C223.7 58.1302 223.146 58.5073 222.588 58.8793L222.865 59.2952C222.306 59.6684 221.743 60.0365 221.176 60.3994L220.907 59.9784C220.342 60.3397 219.775 60.6958 219.204 61.0468L219.465 61.4729C218.892 61.8249 218.316 62.1718 217.736 62.5134L217.482 62.0826C216.905 62.4224 216.325 62.7569 215.741 63.0862L215.987 63.5217C215.401 63.8524 214.811 64.1778 214.218 64.4978L213.981 64.0578C213.392 64.3755 212.8 64.6879 212.205 64.9949L212.434 65.4393C211.836 65.7477 211.235 66.0508 210.63 66.3483L210.41 65.8997C209.809 66.1954 209.205 66.4856 208.598 66.7704L208.811 67.223C208.202 67.5086 207.591 67.7886 206.976 68.0631L206.772 67.6066C206.16 67.8798 205.545 68.1475 204.928 68.4096L205.123 68.8699C204.504 69.1322 203.883 69.3889 203.259 69.64L203.072 69.1761C202.451 69.4259 201.827 69.6702 201.201 69.9087L201.378 70.376C200.75 70.6153 200.118 70.8489 199.484 71.0768L199.315 70.6062C198.686 70.8322 198.054 71.0525 197.419 71.2671L197.579 71.7407C196.942 71.9563 196.302 72.1661 195.659 72.3701L195.508 71.8935C194.87 72.0958 194.23 72.2923 193.588 72.4829L193.73 72.9622C193.086 73.1534 192.439 73.3388 191.79 73.5182L191.657 73.0363C191.011 73.2149 190.362 73.3877 189.711 73.5545L189.835 74.0388C189.186 74.2054 188.534 74.366 187.879 74.5207L187.764 74.0341C187.113 74.1881 186.459 74.3362 185.803 74.4783L185.909 74.967C185.252 75.1094 184.592 75.2458 183.931 75.3762L183.834 74.8857C183.179 75.0148 182.521 75.1381 181.862 75.2553L181.949 75.7476C181.287 75.8654 180.622 75.9772 179.955 76.0829L179.877 75.589C179.217 75.6936 178.555 75.7922 177.891 75.8848L177.96 76.38C177.295 76.4727 176.628 76.5595 175.959 76.6401L175.899 76.1437C175.234 76.2239 174.566 76.2981 173.896 76.3661L173.947 76.8636C173.281 76.9313 172.613 76.993 171.943 77.0486L171.901 76.5503C171.235 76.6056 170.566 76.6549 169.896 76.698L169.928 77.197C169.257 77.2402 168.584 77.2773 167.909 77.3083L167.886 76.8088C167.22 76.8394 166.552 76.8639 165.883 76.8823L165.897 77.3821C165.224 77.4006 164.55 77.413 163.875 77.4192L163.87 76.9192C163.534 76.9223 163.198 76.9238 162.861 76.9238C162.524 76.9238 162.187 76.9223 161.851 76.9192L161.846 77.4192C161.171 77.413 160.497 77.4006 159.825 77.3821L159.838 76.8823C159.169 76.8639 158.501 76.8394 157.835 76.8088L157.812 77.3083C157.137 77.2773 156.464 77.2402 155.793 77.197L155.825 76.698C155.155 76.6549 154.487 76.6056 153.82 76.5503L153.779 77.0486C153.109 76.993 152.441 76.9313 151.774 76.8636L151.825 76.3661C151.155 76.2981 150.488 76.2239 149.822 76.1436L149.762 76.6401C149.093 76.5594 148.426 76.4727 147.761 76.38L147.83 75.8848C147.166 75.7922 146.505 75.6936 145.845 75.589L145.766 76.0829C145.1 75.9772 144.435 75.8654 143.772 75.7476L143.86 75.2553C143.2 75.1381 142.543 75.0148 141.887 74.8856L141.791 75.3762C141.129 75.2458 140.47 75.1094 139.812 74.967L139.918 74.4783C139.262 74.3362 138.609 74.1881 137.957 74.0341L137.842 74.5207C137.188 74.366 136.536 74.2054 135.886 74.0388L136.01 73.5545C135.359 73.3877 134.711 73.2149 134.065 73.0363L133.931 73.5182C133.282 73.3388 132.636 73.1534 131.991 72.9622L132.134 72.4829C131.491 72.2923 130.851 72.0957 130.214 71.8935L130.063 72.3701C129.42 72.1661 128.78 71.9563 128.142 71.7407L128.302 71.2671C127.668 71.0525 127.036 70.8322 126.407 70.6062L126.238 71.0768C125.603 70.8489 124.972 70.6153 124.343 70.376L124.521 69.9087C123.894 69.6702 123.27 69.4259 122.649 69.1761L122.463 69.64C121.838 69.3889 121.217 69.1322 120.599 68.8699L120.794 68.4096C120.176 68.1475 119.561 67.8798 118.949 67.6066L118.746 68.0631C118.131 67.7886 117.519 67.5086 116.911 67.223L117.123 66.7704C116.516 66.4856 115.913 66.1954 115.312 65.8997L115.091 66.3483C114.487 66.0508 113.886 65.7478 113.288 65.4393L113.517 64.9949C112.922 64.6879 112.33 64.3755 111.741 64.0578L111.503 64.4978C110.91 64.1778 110.321 63.8524 109.735 63.5217L109.98 63.0862C109.397 62.7569 108.816 62.4224 108.239 62.0826L107.986 62.5134C107.406 62.1718 106.829 61.8249 106.256 61.4729L106.518 61.0468C105.947 60.6958 105.379 60.3397 104.815 59.9784L104.545 60.3994C103.979 60.0365 103.415 59.6684 102.856 59.2952L103.133 58.8793C102.576 58.5073 102.022 58.1302 101.472 57.7482L101.187 58.1589C100.634 57.7749 100.084 57.3859 99.5389 56.992L99.8317 56.5866C99.2887 56.1944 98.7495 55.7972 98.2141 55.3952L97.9139 55.795C97.3754 55.3906 96.8409 54.9813 96.3104 54.5672L96.618 54.173C96.0899 53.7608 95.5658 53.3438 95.0456 52.922L94.7307 53.3103C94.2079 52.8863 93.6891 52.4576 93.1744 52.0241L93.4965 51.6417C92.984 51.21 92.4756 50.7737 91.9714 50.3327L91.6422 50.7091C91.1357 50.2661 90.6333 49.8184 90.1351 49.3662L90.4712 48.996C89.9751 48.5456 89.4833 48.0907 88.9957 47.6312L88.6528 47.9951C88.163 47.5335 87.6775 47.0674 87.1964 46.5969L87.546 46.2394C87.0671 45.771 86.5926 45.2982 86.1225 44.821L85.7663 45.1719C85.294 44.6924 84.8261 44.2086 84.3628 43.7205L84.7255 43.3763C84.2643 42.8904 83.8076 42.4002 83.3555 41.9057L82.9865 42.2431C82.5324 41.7466 82.0829 41.2457 81.6381 40.7407L82.0133 40.4102C81.5705 39.9076 81.1324 39.4008 80.699 38.8898L80.3177 39.2133C79.8824 38.7001 79.4518 38.1828 79.026 37.6615L79.4132 37.3452C78.9896 36.8266 78.5707 36.3039 78.1567 35.7772L77.7636 36.0863C77.3476 35.5572 76.9365 35.0241 76.5303 34.4872L76.9291 34.1855C76.5251 33.6515 76.1261 33.1136 75.732 32.5719L75.3276 32.8661C74.9318 32.322 74.541 31.7741 74.1551 31.2225L74.5649 30.9359C74.181 30.387 73.8021 29.8343 73.4283 29.2779L73.0132 29.5568C72.6382 28.9986 72.2682 28.4367 71.9034 27.8712L72.3236 27.6002C71.9605 27.0373 71.6025 26.4708 71.2497 25.9008L70.8245 26.1639C70.4706 25.592 70.1219 25.0166 69.7784 24.4376L70.2084 24.1825C69.8668 23.6068 69.5305 23.0275 69.1994 22.4449L68.7647 22.6919C68.4322 22.1067 68.1049 21.518 67.7831 20.926L68.2224 20.6872C67.9029 20.0995 67.5888 19.5084 67.28 18.9142L66.8363 19.1447C66.5262 18.5477 66.2214 17.9474 65.9222 17.3439L66.3701 17.1217C66.0727 16.522 65.7808 15.919 65.4943 15.313L65.0423 15.5266C64.755 14.9189 64.4733 14.308 64.1972 13.6941L64.6532 13.489C64.3783 12.878 64.1091 12.2639 63.8454 11.6469L63.3856 11.8433C63.1216 11.2255 62.8633 10.6048 62.6106 9.98111L63.074 9.79337C62.8227 9.17299 62.5769 8.54974 62.3369 7.92369L61.8701 8.10266C61.6292 7.4744 61.3941 6.84329 61.1648 6.20944L61.6349 6.03932C61.4075 5.41072 61.1858 4.77939 60.9698 4.1454L60.4965 4.30661C60.2796 3.66963 60.0684 3.02998 59.8631 2.38771L60.3394 2.23547C60.1358 1.59843 59.938 0.958817 59.746 0.316666L59.267 0.459869C59.0745 -0.183945 58.8879 -0.830276 58.7073 -1.47906L59.189 -1.61317C59.0091 -2.25894 58.8352 -2.90714 58.6673 -3.55774L58.1832 -3.43275C58.0155 -4.08224 57.8538 -4.73412 57.698 -5.38829L58.1844 -5.5041C58.0293 -6.15517 57.8803 -6.80853 57.7372 -7.46413L57.2487 -7.35751C57.1053 -8.01456 56.9679 -8.67384 56.8366 -9.3353L57.327 -9.43266C57.1969 -10.0878 57.0728 -10.7451 56.9547 -11.4045L56.4626 -11.3163C56.344 -11.9788 56.2314 -12.6433 56.125 -13.3099L56.6187 -13.3888C56.5134 -14.0486 56.4141 -14.7104 56.3208 -15.3741L55.8257 -15.3046C55.7323 -15.9695 55.645 -16.6365 55.5638 -17.3053L56.0602 -17.3655C55.9793 -18.0312 55.9046 -18.6988 55.8361 -19.3682L55.3387 -19.3173C55.2705 -19.9836 55.2084 -20.6518 55.1524 -21.3216L55.6506 -21.3633C55.5949 -22.0299 55.5453 -22.6982 55.5018 -23.3683L55.0029 -23.3359C54.9593 -24.0072 54.922 -24.6802 54.8908 -25.3549L55.3903 -25.378C55.3595 -26.0441 55.3348 -26.7119 55.3162 -27.3812L54.8164 -27.3674C54.7978 -28.0398 54.7853 -28.7137 54.7791 -29.3891L55.2791 -29.3937C55.276 -29.7299 55.2744 -30.0664 55.2744 -30.4033C55.2744 -30.7403 55.276 -31.0769 55.2791 -31.4131L54.7791 -31.4177C54.7853 -32.0931 54.7978 -32.767 54.8164 -33.4394L55.3162 -33.4256C55.3348 -34.0949 55.3595 -34.7627 55.3903 -35.4288L54.8908 -35.4519C54.922 -36.1265 54.9593 -36.7996 55.0029 -37.4709L55.5018 -37.4385C55.5453 -38.1085 55.5949 -38.7769 55.6506 -39.4435L55.1524 -39.4851C55.2084 -40.155 55.2705 -40.8232 55.3387 -41.4895L55.8361 -41.4386C55.9047 -42.108 55.9794 -42.7756 56.0602 -43.4413L55.5638 -43.5015C55.645 -44.1703 55.7323 -44.8372 55.8257 -45.5022L56.3209 -45.4326C56.4141 -46.0964 56.5134 -46.7582 56.6187 -47.418L56.125 -47.4968C56.2314 -48.1634 56.344 -48.8279 56.4626 -49.4904L56.9548 -49.4023C57.0728 -50.0617 57.1969 -50.7189 57.327 -51.3741L56.8366 -51.4714C56.9679 -52.1329 57.1053 -52.7922 57.2487 -53.4492L57.7372 -53.3426C57.8803 -53.9982 58.0294 -54.6516 58.1844 -55.3026L57.698 -55.4184C57.8538 -56.0726 58.0155 -56.7245 58.1832 -57.374L58.6673 -57.249C58.8353 -57.8996 59.0092 -58.5478 59.189 -59.1935L58.7073 -59.3277C58.8879 -59.9764 59.0745 -60.6228 59.267 -61.2666L59.746 -61.1234C59.938 -61.7655 60.1358 -62.4051 60.3394 -63.0422L59.8631 -63.1944C60.0684 -63.8367 60.2796 -64.4763 60.4965 -65.1133L60.9698 -64.9521C61.1858 -65.5861 61.4075 -66.2174 61.6349 -66.846L61.1648 -67.0161C61.3941 -67.65 61.6292 -68.2811 61.8701 -68.9093L62.337 -68.7304C62.577 -69.3564 62.8227 -69.9797 63.074 -70.6L62.6106 -70.7878C62.8633 -71.4114 63.1216 -72.0322 63.3856 -72.65L63.8454 -72.4535C64.1091 -73.0706 64.3783 -73.6846 64.6532 -74.2957L64.1972 -74.5008C64.4733 -75.1147 64.755 -75.7255 65.0423 -76.3333L65.4943 -76.1196C65.7808 -76.7257 66.0727 -77.3286 66.3701 -77.9284L65.9222 -78.1505C66.2214 -78.754 66.5262 -79.3543 66.8363 -79.9514L67.28 -79.7208C67.5888 -80.3151 67.9029 -80.9061 68.2224 -81.4938L67.7831 -81.7326C68.1049 -82.3246 68.4322 -82.9133 68.7647 -83.4986L69.1994 -83.2516C69.5305 -83.8342 69.8668 -84.4134 70.2084 -84.9892L69.7784 -85.2443C70.1219 -85.8232 70.4706 -86.3987 70.8246 -86.9706L71.2497 -86.7074C71.6025 -87.2775 71.9605 -87.8439 72.3236 -88.4068L71.9034 -88.6779C72.2682 -89.2434 72.6382 -89.8053 73.0132 -90.3634L73.4283 -90.0846C73.8021 -90.6409 74.181 -91.1936 74.5649 -91.7426L74.1551 -92.0291C74.541 -92.5808 74.9318 -93.1287 75.3277 -93.6727L75.732 -93.3786C76.1261 -93.9203 76.5251 -94.4582 76.9291 -94.9922L76.5303 -95.2938C76.9365 -95.8308 77.3476 -96.3638 77.7636 -96.8929L78.1567 -96.5839C78.5707 -97.1105 78.9896 -97.6332 79.4132 -98.1519L79.026 -98.4682C79.4518 -98.9895 79.8824 -99.5068 80.3177 -100.02L80.699 -99.6965C81.1324 -100.207 81.5705 -100.714 82.0133 -101.217L81.6381 -101.547C82.0829 -102.052 82.5324 -102.553 82.9865 -103.05L83.3555 -102.712C83.8076 -103.207 84.2643 -103.697 84.7255 -104.183L84.3628 -104.527C84.8261 -105.015 85.294 -105.499 85.7663 -105.979L86.1225 -105.628C86.5926 -106.105 87.0671 -106.578 87.546 -107.046L87.1964 -107.404C87.6775 -107.874 88.163 -108.34 88.6528 -108.802L88.9957 -108.438C89.4833 -108.897 89.9751 -109.352 90.4712 -109.803L90.1351 -110.173C90.6333 -110.625 91.1357 -111.073 91.6422 -111.516L91.9714 -111.139C92.4756 -111.58 92.984 -112.017 93.4965 -112.448L93.1744 -112.831C93.6891 -113.264 94.2079 -113.693 94.7307 -114.117L95.0456 -113.729C95.5658 -114.15 96.0899 -114.567 96.618 -114.98L96.3104 -115.374C96.8409 -115.788 97.3754 -116.197 97.9139 -116.602L98.2141 -116.202C98.7495 -116.604 99.2887 -117.001 99.8317 -117.393L99.5389 -117.799C100.084 -118.193 100.634 -118.582 101.187 -118.966L101.472 -118.555C102.022 -118.937 102.576 -119.314 103.133 -119.686L102.856 -120.102C103.415 -120.475 103.979 -120.843 104.545 -121.206L104.815 -120.785C105.379 -121.146 105.947 -121.503 106.518 -121.854L106.256 -122.28C106.829 -122.632 107.406 -122.978 107.986 -123.32L108.239 -122.889C108.816 -123.229 109.397 -123.564 109.98 -123.893L109.735 -124.328C110.321 -124.659 110.91 -124.984 111.503 -125.304L111.741 -124.864C112.33 -125.182 112.922 -125.495 113.517 -125.802L113.288 -126.246C113.886 -126.554 114.487 -126.857 115.091 -127.155L115.312 -126.706C115.913 -127.002 116.516 -127.292 117.123 -127.577L116.911 -128.03C117.519 -128.315 118.131 -128.595 118.746 -128.87L118.949 -128.413C119.561 -128.686 120.176 -128.954 120.794 -129.216L120.599 -129.677C121.217 -129.939 121.838 -130.196 122.463 -130.447L122.649 -129.983C123.27 -130.233 123.894 -130.477 124.521 -130.715L124.343 -131.183C124.972 -131.422 125.603 -131.656 126.238 -131.883L126.407 -131.413C127.036 -131.639 127.668 -131.859 128.302 -132.074L128.142 -132.547C128.78 -132.763 129.42 -132.973 130.063 -133.177L130.214 -132.7C130.851 -132.902 131.491 -133.099 132.134 -133.29L131.991 -133.769C132.636 -133.96 133.282 -134.145 133.932 -134.325L134.065 -133.843C134.711 -134.022 135.359 -134.194 136.01 -134.361L135.886 -134.845C136.536 -135.012 137.188 -135.173 137.842 -135.327L137.957 -134.841C138.609 -134.995 139.262 -135.143 139.918 -135.285L139.813 -135.774C140.47 -135.916 141.129 -136.052 141.791 -136.183L141.887 -135.692C142.543 -135.821 143.2 -135.945 143.86 -136.062L143.772 -136.554C144.435 -136.672 145.1 -136.784 145.766 -136.89L145.845 -136.396C146.505 -136.5 147.166 -136.599 147.83 -136.691L147.761 -137.187C148.426 -137.279 149.093 -137.366 149.762 -137.447L149.822 -136.95C150.488 -137.031 151.156 -137.105 151.825 -137.173L151.775 -137.67C152.441 -137.738 153.109 -137.8 153.779 -137.855L153.82 -137.357C154.487 -137.412 155.155 -137.462 155.825 -137.505L155.793 -138.004C156.465 -138.047 157.138 -138.084 157.812 -138.115L157.835 -137.615C158.501 -137.646 159.169 -137.671 159.839 -137.689L159.825 -138.189C160.497 -138.207 161.171 -138.22 161.847 -138.226L161.851 -137.726C162.187 -137.729 162.524 -137.73 162.861 -137.73C163.198 -137.73 163.534 -137.729 163.871 -137.726L163.875 -138.226C164.551 -138.22 165.224 -138.207 165.897 -138.189L165.883 -137.689C166.552 -137.671 167.22 -137.646 167.887 -137.615L167.909 -138.115C168.584 -138.084 169.257 -138.047 169.928 -138.004L169.896 -137.505C170.566 -137.462 171.235 -137.412 171.901 -137.357L171.943 -137.855C172.613 -137.8 173.281 -137.738 173.947 -137.67L173.897 -137.173C174.566 -137.105 175.234 -137.031 175.9 -136.95L175.959 -137.447C176.628 -137.366 177.295 -137.279 177.96 -137.187L177.891 -136.691C178.555 -136.599 179.217 -136.5 179.877 -136.396L179.955 -136.89C180.622 -136.784 181.287 -136.672 181.949 -136.554L181.862 -136.062C182.521 -135.945 183.179 -135.821 183.834 -135.692L183.931 -136.183C184.592 -136.052 185.252 -135.916 185.909 -135.774L185.803 -135.285C186.459 -135.143 187.113 -134.995 187.764 -134.841L187.879 -135.327C188.534 -135.173 189.186 -135.012 189.835 -134.845L189.711 -134.361C190.362 -134.194 191.011 -134.022 191.657 -133.843L191.79 -134.325C192.439 -134.145 193.086 -133.96 193.73 -133.769L193.588 -133.29C194.23 -133.099 194.87 -132.902 195.508 -132.7L195.659 -133.177C196.302 -132.973 196.942 -132.763 197.579 -132.547L197.419 -132.074C198.054 -131.859 198.686 -131.639 199.315 -131.413L199.484 -131.883C200.118 -131.656 200.75 -131.422 201.378 -131.183L201.201 -130.715C201.827 -130.477 202.451 -130.233 203.072 -129.983L203.259 -130.447C203.883 -130.196 204.504 -129.939 205.123 -129.677L204.927 -129.216C205.545 -128.954 206.16 -128.686 206.772 -128.413L206.976 -128.87C207.591 -128.595 208.202 -128.315 208.811 -128.03L208.598 -127.577C209.205 -127.292 209.809 -127.002 210.41 -126.706L210.63 -127.155C211.235 -126.857 211.836 -126.554 212.434 -126.246L212.205 -125.802C212.8 -125.495 213.392 -125.182 213.981 -124.864L214.218 -125.305C214.811 -124.984 215.401 -124.659 215.987 -124.328L215.741 -123.893C216.325 -123.564 216.905 -123.229 217.482 -122.889L217.736 -123.32C218.316 -122.978 218.892 -122.632 219.465 -122.28L219.204 -121.854C219.775 -121.503 220.342 -121.146 220.907 -120.785L221.176 -121.206C221.743 -120.843 222.306 -120.475 222.865 -120.102L222.588 -119.686C223.146 -119.314 223.7 -118.937 224.25 -118.555L224.535 -118.966C225.088 -118.582 225.637 -118.193 226.183 -117.799L225.89 -117.393C226.433 -117.001 226.972 -116.604 227.507 -116.202L227.808 -116.602C228.346 -116.197 228.881 -115.788 229.411 -115.374L229.103 -114.98C229.632 -114.567 230.156 -114.15 230.676 -113.729L230.991 -114.117C231.514 -113.693 232.032 -113.264 232.547 -112.831L232.225 -112.448C232.737 -112.017 233.246 -111.58 233.75 -111.139L234.079 -111.516C234.586 -111.073 235.088 -110.625 235.586 -110.173L235.25 -109.803C235.746 -109.352 236.238 -108.897 236.726 -108.438L237.069 -108.802C237.559 -108.34 238.044 -107.874 238.525 -107.404L238.175 -107.046C238.654 -106.578 239.129 -106.105 239.599 -105.628L239.955 -105.979C240.428 -105.499 240.895 -105.015 241.359 -104.527L240.996 -104.183C241.457 -103.697 241.914 -103.207 242.366 -102.712L242.735 -103.05C243.189 -102.553 243.639 -102.052 244.083 -101.547L243.708 -101.217C244.151 -100.714 244.589 -100.207 245.023 -99.6965L245.404 -100.02C245.839 -99.5068 246.27 -98.9895 246.696 -98.4682L246.308 -98.1519C246.732 -97.6332 247.151 -97.1105 247.565 -96.5839L247.958 -96.8929C248.374 -96.3638 248.785 -95.8308 249.191 -95.2938L248.792 -94.9922C249.196 -94.4582 249.595 -93.9203 249.99 -93.3786L250.394 -93.6727C250.79 -93.1287 251.181 -92.5808 251.566 -92.0291L251.157 -91.7426C251.541 -91.1936 251.919 -90.641 252.293 -90.0846L252.708 -90.3634C253.083 -89.8053 253.453 -89.2434 253.818 -88.6779L253.398 -88.4068C253.761 -87.8439 254.119 -87.2775 254.472 -86.7074L254.897 -86.9706C255.251 -86.3987 255.6 -85.8232 255.943 -85.2443L255.513 -84.9892C255.855 -84.4134 256.191 -83.8342 256.522 -83.2516L256.957 -83.4986C257.289 -82.9133 257.617 -82.3246 257.938 -81.7326L257.499 -81.4938C257.819 -80.9061 258.133 -80.3151 258.441 -79.7208L258.885 -79.9514C259.195 -79.3543 259.5 -78.754 259.799 -78.1505L259.351 -77.9284C259.649 -77.3286 259.941 -76.7257 260.227 -76.1196L260.679 -76.3333C260.966 -75.7255 261.248 -75.1147 261.524 -74.5008L261.068 -74.2957C261.343 -73.6846 261.612 -73.0706 261.876 -72.4535L262.336 -72.65C262.6 -72.0322 262.858 -71.4114 263.111 -70.7878L262.648 -70.6C262.899 -69.9797 263.145 -69.3564 263.385 -68.7303L263.851 -68.9093C264.092 -68.281 264.327 -67.65 264.557 -67.0161L264.087 -66.846C264.314 -66.2174 264.536 -65.586 264.752 -64.952L265.225 -65.1133C265.442 -64.4763 265.653 -63.8366 265.858 -63.1944L265.382 -63.0421C265.586 -62.4051 265.784 -61.7655 265.975 -61.1233L266.455 -61.2665C266.647 -60.6227 266.834 -59.9764 267.014 -59.3276L266.533 -59.1935C266.712 -58.5477 266.886 -57.8995 267.054 -57.2489L267.538 -57.3739C267.706 -56.7244 267.868 -56.0725 268.024 -55.4184L267.537 -55.3025C267.692 -54.6515 267.841 -53.9981 267.984 -53.3425L268.473 -53.4491C268.616 -52.7921 268.754 -52.1328 268.885 -51.4714L268.395 -51.374C268.525 -50.7189 268.649 -50.0616 268.767 -49.4022L269.259 -49.4903C269.378 -48.8279 269.49 -48.1633 269.597 -47.4967L269.103 -47.4179C269.208 -46.7581 269.307 -46.0963 269.401 -45.4325L269.896 -45.5021C269.989 -44.8371 270.077 -44.1702 270.158 -43.5014L269.661 -43.4411C269.742 -42.7755 269.817 -42.1079 269.885 -41.4385L270.383 -41.4894C270.451 -40.8231 270.513 -40.1549 270.569 -39.485L270.071 -39.4434C270.127 -38.7768 270.176 -38.1084 270.22 -37.4384L270.719 -37.4708C270.762 -36.7994 270.8 -36.1264 270.831 -35.4518L270.331 -35.4287C270.362 -34.7625 270.387 -34.0947 270.405 -33.4254L270.905 -33.4393Z" stroke="#96CA4C" stroke-dasharray="2 2"/>
<path opacity="0.7" d="M289.765 -16.0507C289.801 -15.0546 289.825 -14.0555 289.837 -13.0534L289.337 -13.0474C289.343 -12.5484 289.346 -12.0486 289.346 -11.5482C289.346 -11.0478 289.343 -10.548 289.337 -10.049L289.837 -10.043C289.825 -9.04092 289.801 -8.04177 289.765 -7.04568L289.265 -7.06387C289.229 -6.06751 289.18 -5.07423 289.12 -4.08415L289.619 -4.05382C289.559 -3.05341 289.486 -2.05626 289.401 -1.0625L288.903 -1.10501C288.818 -0.112167 288.721 0.877258 288.613 1.86314L289.11 1.91785C289 2.91406 288.878 3.90668 288.745 4.89552L288.249 4.82858C288.116 5.8157 287.971 6.79906 287.814 7.77849L288.307 7.8576C288.149 8.84706 287.978 9.83255 287.796 10.8139L287.304 10.7226C287.123 11.7017 286.929 12.6766 286.724 13.6473L287.213 13.7508C287.006 14.7309 286.787 15.7068 286.556 16.6781L286.069 16.5626C285.839 17.5313 285.598 18.4955 285.345 19.4551L285.828 19.5827C285.572 20.5511 285.305 21.5148 285.027 22.4736L284.547 22.3341C284.269 23.2901 283.98 24.2413 283.679 25.1875L284.155 25.3389C283.852 26.2931 283.538 27.2423 283.212 28.1862L282.739 28.023C282.414 28.9641 282.078 29.8998 281.731 30.8302L282.199 31.0051C281.849 31.9428 281.488 32.8751 281.116 33.8018L280.652 33.6154C280.281 34.5391 279.899 35.4572 279.506 36.3696L279.965 36.5674C279.569 37.4864 279.162 38.3995 278.745 39.3067L278.29 39.0976C277.874 40.0018 277.447 40.9 277.009 41.7921L277.458 42.0124C277.017 42.9104 276.566 43.8022 276.104 44.6877L275.661 44.4564C275.2 45.3389 274.729 46.2151 274.248 47.0847L274.685 47.3269C274.201 48.2018 273.706 49.0703 273.201 49.9319L272.77 49.6791C272.266 50.5378 271.753 51.3898 271.229 52.235L271.654 52.4984C271.127 53.3483 270.59 54.1912 270.043 55.0271L269.625 54.7533C269.08 55.5862 268.525 56.4121 267.96 57.2307L268.372 57.5146C267.804 58.3374 267.227 59.153 266.64 59.9611L266.235 59.6672C265.65 60.4723 265.055 61.2701 264.451 62.0602L264.848 62.3639C264.241 63.1578 263.624 63.9441 262.998 64.7226L262.609 64.4092C261.985 65.1847 261.352 65.9525 260.71 66.7122L261.092 67.035C260.446 67.7982 259.792 68.5534 259.129 69.3004L258.755 68.9684C258.094 69.7124 257.424 70.4484 256.746 71.176L257.111 71.517C256.43 72.2477 255.739 72.9701 255.04 73.6839L254.683 73.334C253.987 74.0449 253.282 74.7473 252.568 75.441L252.917 75.7995C252.201 76.496 251.476 77.1838 250.743 77.8628L250.403 77.4959C249.673 78.1719 248.935 78.8391 248.188 79.4973L248.519 79.8723C247.77 80.533 247.012 81.1847 246.246 81.8272L245.925 81.4442C245.163 82.0837 244.393 82.714 243.615 83.335L243.927 83.7257C243.147 84.3491 242.358 84.963 241.562 85.5675L241.26 85.1693C240.468 85.7707 239.668 86.3627 238.861 86.945L239.153 87.3505C238.343 87.935 237.526 88.5097 236.701 89.0747L236.418 88.6621C235.598 89.224 234.77 89.7762 233.936 90.3184L234.208 90.7377C233.37 91.2818 232.525 91.8159 231.674 92.3399L231.412 91.914C230.565 92.435 229.711 92.9459 228.851 93.4466L229.103 93.8787C228.239 94.3811 227.369 94.8733 226.493 95.355L226.252 94.9168C225.381 95.3955 224.503 95.8638 223.62 96.3217L223.85 96.7657C222.963 97.2251 222.07 97.674 221.17 98.1122L220.951 97.6627C220.058 98.0979 219.159 98.5225 218.253 98.9364L218.461 99.3911C217.553 99.8064 216.638 100.211 215.718 100.604L215.522 100.145C214.608 100.535 213.689 100.915 212.765 101.284L212.95 101.748C212.022 102.118 211.089 102.477 210.15 102.825L209.977 102.356C209.046 102.701 208.109 103.035 207.167 103.358L207.329 103.831C206.385 104.155 205.435 104.467 204.48 104.768L204.329 104.292C203.383 104.59 202.431 104.877 201.475 105.153L201.613 105.634C200.654 105.911 199.689 106.176 198.72 106.43L198.594 105.946C197.634 106.198 196.669 106.438 195.7 106.666L195.815 107.153C194.843 107.382 193.867 107.599 192.886 107.805L192.784 107.316C191.813 107.52 190.837 107.712 189.858 107.893L189.949 108.384C188.967 108.565 187.981 108.735 186.992 108.892L186.913 108.398C185.934 108.554 184.95 108.698 183.963 108.831L184.029 109.326C183.04 109.459 182.048 109.58 181.051 109.689L180.997 109.192C180.011 109.299 179.021 109.396 178.029 109.48L178.071 109.978C177.077 110.062 176.08 110.134 175.079 110.195L175.049 109.696C174.059 109.755 173.066 109.803 172.069 109.839L172.087 110.339C171.091 110.375 170.092 110.399 169.09 110.411L169.084 109.911C168.585 109.917 168.085 109.92 167.585 109.92C167.084 109.92 166.585 109.917 166.086 109.911L166.08 110.411C165.078 110.399 164.078 110.375 163.082 110.339L163.1 109.839C162.104 109.803 161.111 109.755 160.121 109.696L160.09 110.195C159.09 110.134 158.093 110.062 157.099 109.978L157.141 109.48C156.148 109.396 155.159 109.299 154.173 109.192L154.118 109.689C153.122 109.58 152.129 109.459 151.14 109.326L151.207 108.831C150.22 108.698 149.236 108.554 148.257 108.398L148.178 108.892C147.188 108.735 146.202 108.565 145.221 108.384L145.312 107.893C144.332 107.712 143.357 107.52 142.386 107.316L142.283 107.805C141.303 107.599 140.327 107.382 139.355 107.153L139.47 106.666C138.501 106.438 137.536 106.198 136.576 105.946L136.449 106.43C135.48 106.176 134.516 105.911 133.557 105.634L133.695 105.153C132.739 104.877 131.787 104.59 130.84 104.292L130.69 104.768C129.735 104.467 128.785 104.155 127.84 103.831L128.002 103.358C127.061 103.035 126.124 102.701 125.193 102.356L125.019 102.825C124.081 102.477 123.147 102.118 122.22 101.748L122.405 101.284C121.48 100.915 120.561 100.535 119.648 100.145L119.451 100.604C118.531 100.211 117.617 99.8064 116.709 99.3911L116.916 98.9364C116.011 98.5225 115.112 98.0979 114.219 97.6627L114 98.1122C113.1 97.674 112.207 97.2251 111.32 96.7657L111.55 96.3217C110.666 95.8639 109.789 95.3955 108.918 94.9168L108.677 95.355C107.8 94.8733 106.93 94.3811 106.067 93.8787L106.319 93.4466C105.458 92.9459 104.605 92.435 103.758 91.9141L103.496 92.3399C102.644 91.8159 101.799 91.2818 100.962 90.7377L101.234 90.3184C100.399 89.7762 99.5718 89.2241 98.7514 88.6622L98.4689 89.0747C97.644 88.5098 96.8265 87.935 96.0164 87.3505L96.3089 86.9451C95.5018 86.3627 94.702 85.7708 93.9099 85.1693L93.6075 85.5675C92.8114 84.9631 92.023 84.3491 91.2423 83.7258L91.5543 83.3351C90.7766 82.714 90.0067 82.0837 89.2447 81.4442L88.9233 81.8272C88.1577 81.1847 87.4002 80.533 86.6509 79.8723L86.9815 79.4973C86.2351 78.8391 85.4968 78.172 84.7668 77.496L84.4271 77.8628C83.6939 77.1839 82.969 76.496 82.2528 75.7995L82.6013 75.4411C81.8879 74.7473 81.183 74.045 80.4868 73.3341L80.1296 73.6839C79.4304 72.9701 78.74 72.2478 78.0585 71.5171L78.4241 71.176C77.7455 70.4484 77.0757 69.7125 76.4149 68.9684L76.041 69.3004C75.3776 68.5534 74.7232 67.7982 74.0781 67.035L74.46 66.7123C73.8177 65.9525 73.1847 65.1848 72.5609 64.4092L72.1713 64.7226C71.5452 63.9442 70.9285 63.1579 70.3214 62.364L70.7186 62.0602C70.1143 61.2701 69.5196 60.4724 68.9345 59.6672L68.53 59.9611C67.9428 59.153 67.3653 58.3375 66.7977 57.5146L67.2092 57.2307C66.6445 56.4121 66.0896 55.5863 65.5447 54.7534L65.1263 55.0271C64.5794 54.1912 64.0426 53.3483 63.5159 52.4984L63.9409 52.235C63.4172 51.3899 62.9036 50.5379 62.4002 49.6791L61.9688 49.932C61.4637 49.0703 60.9689 48.2019 60.4846 47.3269L60.9221 47.0848C60.4407 46.2151 59.9697 45.339 59.5092 44.4565L59.0659 44.6877C58.6039 43.8023 58.1524 42.9104 57.7117 42.0124L58.1606 41.7921C57.7228 40.9001 57.2957 40.0018 56.8793 39.0976L56.4252 39.3068C56.0075 38.3996 55.6006 37.4864 55.2047 36.5674L55.6639 36.3696C55.2709 35.4573 54.8887 34.5392 54.5176 33.6154L54.0537 33.8018C53.6814 32.8752 53.3202 31.9428 52.9702 31.0051L53.4387 30.8303C53.0914 29.8999 52.7553 28.9641 52.4304 28.0231L51.9578 28.1862C51.6319 27.2423 51.3173 26.2931 51.0142 25.3389L51.4907 25.1875C51.1902 24.2413 50.9009 23.2902 50.6231 22.3342L50.143 22.4737C49.8643 21.5148 49.5972 20.5511 49.3417 19.5827L49.8251 19.4551C49.572 18.4955 49.3303 17.5313 49.1002 16.5626L48.6137 16.6781C48.383 15.7068 48.164 14.7309 47.9567 13.7508L48.4459 13.6473C48.2407 12.6767 48.047 11.7017 47.8652 10.7226L47.3736 10.8139C47.1913 9.83255 47.0208 8.84706 46.8622 7.8576L47.3559 7.77849C47.199 6.79906 47.0537 5.8157 46.9204 4.8286L46.4249 4.89554C46.2913 3.90669 46.1696 2.91408 46.0599 1.91786L46.5569 1.86314C46.4484 0.877274 46.3517 -0.112167 46.2669 -1.10501L45.7688 -1.06248C45.6839 -2.05624 45.6111 -3.05342 45.5503 -4.05383L46.0493 -4.08415C45.9892 -5.07423 45.9409 -6.06751 45.9047 -7.06387L45.405 -7.04569C45.3688 -8.04179 45.3445 -9.04092 45.3324 -10.043L45.8323 -10.049C45.8263 -10.548 45.8232 -11.0478 45.8232 -11.5482C45.8232 -12.0486 45.8263 -12.5484 45.8323 -13.0474L45.3324 -13.0534C45.3445 -14.0555 45.3688 -15.0546 45.405 -16.0507L45.9047 -16.0325C45.9409 -17.0289 45.9892 -18.0222 46.0493 -19.0123L45.5503 -19.0426C45.6111 -20.043 45.6839 -21.0402 45.7687 -22.0339L46.2669 -21.9914C46.3517 -22.9842 46.4484 -23.9737 46.5569 -24.9595L46.0599 -25.0143C46.1696 -26.0105 46.2913 -27.0031 46.4249 -27.9919L46.9204 -27.925C47.0537 -28.9121 47.199 -29.8955 47.3559 -30.8749L46.8622 -30.954C47.0208 -31.9435 47.1913 -32.929 47.3736 -33.9103L47.8652 -33.819C48.047 -34.7981 48.2407 -35.773 48.4459 -36.7437L47.9567 -36.8472C48.164 -37.8273 48.383 -38.8032 48.6137 -39.7745L49.1002 -39.659C49.3303 -40.6277 49.572 -41.5919 49.8251 -42.5515L49.3417 -42.6791C49.5972 -43.6475 49.8643 -44.6112 50.143 -45.5701L50.6231 -45.4305C50.9009 -46.3866 51.1902 -47.3377 51.4907 -48.2839L51.0142 -48.4353C51.3173 -49.3895 51.6319 -50.3387 51.9578 -51.2826L52.4304 -51.1195C52.7553 -52.0605 53.0914 -52.9962 53.4386 -53.9266L52.9702 -54.1015C53.3202 -55.0392 53.6814 -55.9715 54.0537 -56.8982L54.5176 -56.7118C54.8887 -57.6355 55.2709 -58.5536 55.6639 -59.466L55.2047 -59.6638C55.6006 -60.5828 56.0074 -61.4959 56.4251 -62.4031L56.8793 -62.194C57.2957 -63.0982 57.7228 -63.9964 58.1606 -64.8885L57.7117 -65.1088C58.1524 -66.0068 58.6039 -66.8986 59.0659 -67.7841L59.5092 -67.5528C59.9696 -68.4353 60.4406 -69.3115 60.922 -70.1811L60.4846 -70.4233C60.9689 -71.2983 61.4637 -72.1667 61.9688 -73.0283L62.4002 -72.7755C62.9035 -73.6342 63.4172 -74.4862 63.9409 -75.3314L63.5159 -75.5948C64.0426 -76.4446 64.5794 -77.2876 65.1263 -78.1235L65.5447 -77.8497C66.0896 -78.6826 66.6445 -79.5085 67.2092 -80.3271L66.7976 -80.611C67.3653 -81.4339 67.9428 -82.2494 68.53 -83.0575L68.9345 -82.7636C69.5196 -83.5687 70.1143 -84.3665 70.7185 -85.1566L70.3214 -85.4603C70.9285 -86.2542 71.5452 -87.0405 72.1713 -87.819L72.5609 -87.5056C73.1846 -88.2811 73.8177 -89.0489 74.4599 -89.8086L74.0781 -90.1314C74.7232 -90.8946 75.3776 -91.6498 76.041 -92.3968L76.4148 -92.0648C77.0756 -92.8089 77.7454 -93.5448 78.4241 -94.2724L78.0584 -94.6134C78.74 -95.3441 79.4304 -96.0665 80.1295 -96.7803L80.4867 -96.4304C81.183 -97.1413 81.8879 -97.8437 82.6013 -98.5374L82.2527 -98.8959C82.969 -99.5924 83.6938 -100.28 84.427 -100.959L84.7668 -100.592C85.4967 -101.268 86.235 -101.935 86.9815 -102.594L86.6508 -102.969C87.4002 -103.629 88.1577 -104.281 88.9232 -104.924L89.2447 -104.541C90.0066 -105.18 90.7766 -105.81 91.5543 -106.431L91.2423 -106.822C92.0229 -107.445 92.8114 -108.059 93.6075 -108.664L93.9099 -108.266C94.702 -108.867 95.5017 -109.459 96.3089 -110.041L96.0164 -110.447C96.8264 -111.031 97.644 -111.606 98.4688 -112.171L98.7514 -111.759C99.5718 -112.32 100.399 -112.873 101.234 -113.415L100.962 -113.834C101.799 -114.378 102.644 -114.912 103.496 -115.436L103.758 -115.01C104.605 -115.531 105.458 -116.042 106.319 -116.543L106.067 -116.975C106.93 -117.478 107.8 -117.97 108.677 -118.451L108.918 -118.013C109.789 -118.492 110.666 -118.96 111.55 -119.418L111.32 -119.862C112.207 -120.321 113.1 -120.77 114 -121.209L114.219 -120.759C115.112 -121.194 116.011 -121.619 116.916 -122.033L116.709 -122.487C117.617 -122.903 118.531 -123.307 119.451 -123.701L119.648 -123.241C120.561 -123.632 121.48 -124.011 122.405 -124.38L122.22 -124.845C123.147 -125.215 124.081 -125.574 125.019 -125.921L125.193 -125.453C126.124 -125.798 127.061 -126.131 128.002 -126.454L127.84 -126.927C128.785 -127.251 129.735 -127.564 130.69 -127.865L130.84 -127.388C131.787 -127.687 132.739 -127.974 133.695 -128.25L133.557 -128.73C134.516 -129.007 135.48 -129.272 136.449 -129.526L136.576 -129.043C137.536 -129.294 138.501 -129.534 139.47 -129.763L139.355 -130.249C140.327 -130.478 141.303 -130.696 142.283 -130.902L142.386 -130.412C143.357 -130.616 144.332 -130.808 145.312 -130.989L145.221 -131.481C146.202 -131.662 147.188 -131.831 148.178 -131.989L148.257 -131.495C149.236 -131.651 150.22 -131.795 151.207 -131.927L151.14 -132.423C152.129 -132.555 153.122 -132.676 154.118 -132.785L154.173 -132.288C155.159 -132.396 156.148 -132.492 157.141 -132.576L157.099 -133.074C158.093 -133.158 159.09 -133.231 160.09 -133.291L160.121 -132.792C161.111 -132.852 162.104 -132.9 163.1 -132.936L163.082 -133.435C164.078 -133.471 165.078 -133.495 166.08 -133.508L166.086 -133.008C166.585 -133.014 167.084 -133.017 167.585 -133.017C168.085 -133.017 168.585 -133.014 169.084 -133.008L169.09 -133.508C170.092 -133.495 171.091 -133.471 172.087 -133.435L172.069 -132.936C173.066 -132.9 174.059 -132.852 175.049 -132.792L175.079 -133.291C176.08 -133.231 177.077 -133.158 178.071 -133.074L178.029 -132.576C179.021 -132.492 180.011 -132.396 180.997 -132.288L181.051 -132.785C182.048 -132.676 183.04 -132.555 184.029 -132.423L183.963 -131.927C184.95 -131.795 185.934 -131.651 186.913 -131.495L186.992 -131.989C187.981 -131.831 188.967 -131.662 189.949 -131.481L189.858 -130.989C190.837 -130.808 191.813 -130.616 192.783 -130.412L192.886 -130.902C193.867 -130.696 194.843 -130.478 195.815 -130.249L195.7 -129.763C196.669 -129.534 197.634 -129.294 198.594 -129.043L198.72 -129.526C199.689 -129.272 200.654 -129.007 201.613 -128.73L201.474 -128.25C202.431 -127.974 203.383 -127.687 204.329 -127.388L204.48 -127.865C205.435 -127.564 206.385 -127.251 207.329 -126.927L207.167 -126.454C208.109 -126.132 209.045 -125.798 209.977 -125.453L210.15 -125.921C211.089 -125.574 212.022 -125.215 212.95 -124.845L212.765 -124.38C213.689 -124.011 214.608 -123.632 215.522 -123.241L215.718 -123.701C216.638 -123.307 217.553 -122.903 218.461 -122.488L218.253 -122.033C219.158 -121.619 220.058 -121.194 220.951 -120.759L221.17 -121.209C222.069 -120.77 222.963 -120.322 223.85 -119.862L223.62 -119.418C224.503 -118.96 225.381 -118.492 226.252 -118.013L226.493 -118.451C227.369 -117.97 228.239 -117.478 229.103 -116.975L228.851 -116.543C229.711 -116.042 230.565 -115.531 231.412 -115.01L231.674 -115.436C232.525 -114.912 233.37 -114.378 234.208 -113.834L233.935 -113.415C234.77 -112.873 235.598 -112.32 236.418 -111.759L236.701 -112.171C237.526 -111.606 238.343 -111.031 239.153 -110.447L238.861 -110.041C239.668 -109.459 240.468 -108.867 241.26 -108.266L241.562 -108.664C242.358 -108.059 243.147 -107.446 243.927 -106.822L243.615 -106.431C244.393 -105.81 245.163 -105.18 245.925 -104.541L246.246 -104.924C247.012 -104.281 247.769 -103.629 248.519 -102.969L248.188 -102.594C248.935 -101.936 249.673 -101.268 250.403 -100.592L250.743 -100.959C251.476 -100.28 252.201 -99.5924 252.917 -98.8959L252.568 -98.5375C253.282 -97.8437 253.987 -97.1414 254.683 -96.4305L255.04 -96.7803C255.739 -96.0665 256.43 -95.3442 257.111 -94.6135L256.746 -94.2724C257.424 -93.5448 258.094 -92.8089 258.755 -92.0648L259.129 -92.3968C259.792 -91.6498 260.446 -90.8946 261.092 -90.1315L260.71 -89.8087C261.352 -89.0489 261.985 -88.2812 262.609 -87.5057L262.998 -87.819C263.624 -87.0406 264.241 -86.2543 264.848 -85.4604L264.451 -85.1566C265.055 -84.3665 265.65 -83.5688 266.235 -82.7636L266.64 -83.0575C267.227 -82.2494 267.804 -81.4339 268.372 -80.611L267.96 -80.3271C268.525 -79.5085 269.08 -78.6827 269.625 -77.8498L270.043 -78.1235C270.59 -77.2877 271.127 -76.4447 271.654 -75.5948L271.229 -75.3314C271.752 -74.4863 272.266 -73.6343 272.769 -72.7755L273.201 -73.0284C273.706 -72.1667 274.201 -71.2983 274.685 -70.4233L274.248 -70.1812C274.729 -69.3115 275.2 -68.4354 275.66 -67.5529L276.104 -67.7841C276.566 -66.8987 277.017 -66.0069 277.458 -65.1088L277.009 -64.8885C277.447 -63.9965 277.874 -63.0982 278.29 -62.194L278.744 -62.4032C279.162 -61.496 279.569 -60.5828 279.965 -59.6638L279.506 -59.466C279.899 -58.5537 280.281 -57.6356 280.652 -56.7118L281.116 -56.8982C281.488 -55.9716 281.849 -55.0393 282.199 -54.1015L281.731 -53.9267C282.078 -52.9963 282.414 -52.0605 282.739 -51.1195L283.212 -51.2827C283.538 -50.3387 283.852 -49.3895 284.155 -48.4353L283.679 -48.2839C283.979 -47.3378 284.269 -46.3866 284.547 -45.4305L285.027 -45.5701C285.305 -44.6112 285.572 -43.6475 285.828 -42.6791L285.345 -42.5515C285.598 -41.5919 285.839 -40.6277 286.069 -39.659L286.556 -39.7745C286.787 -38.8032 287.006 -37.8273 287.213 -36.8472L286.724 -36.7437C286.929 -35.7731 287.123 -34.7981 287.304 -33.819L287.796 -33.9103C287.978 -32.929 288.149 -31.9435 288.307 -30.954L287.814 -30.8749C287.971 -29.8955 288.116 -28.9121 288.249 -27.925L288.745 -27.9919C288.878 -27.0031 289 -26.0105 289.11 -25.0143L288.613 -24.9596C288.721 -23.9737 288.818 -22.9842 288.903 -21.9914L289.401 -22.0339C289.486 -21.0402 289.559 -20.043 289.619 -19.0426L289.12 -19.0123C289.18 -18.0222 289.229 -17.0289 289.265 -16.0325L289.765 -16.0507Z" stroke="#96CA4C" stroke-linejoin="round" stroke-dasharray="3 3"/>
<path opacity="0.5" d="M296.73 1.10493C296.82 2.73426 296.881 4.37151 296.911 6.01614L296.412 6.02539C296.427 6.84352 296.434 7.6635 296.434 8.48526C296.434 9.30698 296.427 10.1269 296.412 10.945L296.911 10.9543C296.881 12.5989 296.82 14.2362 296.73 15.8655L296.231 15.8378C296.14 17.4761 296.019 19.1064 295.868 20.7281L296.366 20.7744C296.213 22.4142 296.031 24.0452 295.818 25.6669L295.323 25.602C295.11 27.2269 294.867 28.8424 294.595 30.4479L295.088 30.5314C294.814 32.1519 294.51 33.7625 294.176 35.3623L293.687 35.2603C293.353 36.8649 292.989 38.4587 292.596 40.0411L293.082 40.1615C292.685 41.7578 292.26 43.3426 291.806 44.9153L291.326 44.7767C290.872 46.3496 290.389 47.9105 289.878 49.4585L290.353 49.6152C289.838 51.1751 289.294 52.722 288.723 54.2555L288.255 54.0809C287.683 55.6149 287.084 57.1352 286.457 58.6413L286.919 58.8335C286.287 60.3504 285.628 61.8531 284.942 63.3408L284.488 63.1314C283.803 64.6171 283.091 66.0877 282.352 67.5428L282.798 67.7691C282.055 69.233 281.285 70.6812 280.489 72.113L280.052 71.87C279.258 73.2994 278.437 74.7123 277.591 76.1083L278.019 76.3674C277.168 77.7715 276.291 79.1585 275.39 80.5277L274.972 80.2527C274.073 81.6184 273.149 82.9662 272.2 84.2957L272.608 84.586C271.655 85.9219 270.677 87.2392 269.676 88.5374L269.28 88.232C268.282 89.5263 267.26 90.8014 266.215 92.0567L266.599 92.3766C265.55 93.6376 264.477 94.8786 263.381 96.0991L263.009 95.7652C261.918 96.9814 260.804 98.1771 259.668 99.3517L260.027 99.6992C258.887 100.878 257.725 102.036 256.542 103.172L256.196 102.811C255.017 103.943 253.818 105.053 252.597 106.14L252.93 106.513C251.706 107.604 250.461 108.673 249.196 109.718L248.877 109.332C247.619 110.373 246.34 111.39 245.042 112.384L245.346 112.781C244.045 113.778 242.724 114.75 241.385 115.699L241.096 115.291C239.763 116.235 238.412 117.154 237.044 118.049L237.317 118.467C235.945 119.364 234.555 120.236 233.148 121.083L232.891 120.654C231.492 121.496 230.076 122.312 228.644 123.102L228.886 123.54C227.452 124.331 226.002 125.097 224.535 125.836L224.31 125.389C222.853 126.124 221.381 126.832 219.893 127.513L220.101 127.968C218.612 128.65 217.107 129.305 215.589 129.932L215.398 129.47C213.89 130.093 212.368 130.689 210.832 131.257L211.006 131.726C209.471 132.293 207.923 132.833 206.362 133.345L206.206 132.87C204.657 133.377 203.096 133.857 201.522 134.308L201.659 134.789C200.086 135.239 198.5 135.662 196.903 136.055L196.784 135.57C195.201 135.96 193.606 136.321 192.001 136.653L192.102 137.143C190.502 137.474 188.891 137.776 187.27 138.048L187.187 137.555C185.581 137.825 183.966 138.066 182.341 138.277L182.405 138.773C180.783 138.984 179.152 139.165 177.512 139.317L177.466 138.819C175.844 138.969 174.214 139.089 172.575 139.179L172.603 139.678C170.973 139.768 169.336 139.828 167.692 139.859L167.682 139.359C166.864 139.374 166.044 139.381 165.223 139.381C164.401 139.381 163.581 139.374 162.763 139.359L162.753 139.859C161.109 139.828 159.472 139.768 157.842 139.678L157.87 139.179C156.231 139.089 154.601 138.969 152.979 138.819L152.933 139.317C151.293 139.165 149.662 138.984 148.04 138.773L148.105 138.277C146.479 138.066 144.864 137.825 143.258 137.555L143.175 138.048C141.554 137.776 139.943 137.474 138.343 137.143L138.444 136.653C136.839 136.321 135.244 135.96 133.661 135.57L133.542 136.055C131.945 135.662 130.359 135.239 128.786 134.789L128.923 134.308C127.35 133.857 125.788 133.377 124.239 132.87L124.083 133.345C122.522 132.833 120.974 132.293 119.439 131.726L119.613 131.257C118.077 130.689 116.555 130.093 115.047 129.47L114.856 129.932C113.338 129.305 111.833 128.65 110.344 127.968L110.552 127.513C109.064 126.832 107.592 126.124 106.135 125.389L105.91 125.836C104.444 125.097 102.993 124.332 101.559 123.54L101.801 123.102C100.369 122.312 98.9531 121.496 97.5545 120.655L97.2968 121.083C95.8898 120.236 94.5 119.364 93.1279 118.467L93.4015 118.049C92.0328 117.154 90.6818 116.235 89.3493 115.291L89.0603 115.699C87.7211 114.75 86.4005 113.778 85.099 112.781L85.403 112.384C84.1052 111.39 82.8265 110.373 81.5676 109.333L81.2491 109.718C79.9843 108.673 78.7394 107.604 77.515 106.513L77.8477 106.14C76.6275 105.053 75.4277 103.943 74.2492 102.811L73.9029 103.172C72.7197 102.036 71.5577 100.878 70.4176 99.6993L70.777 99.3517C69.6412 98.1771 68.5272 96.9814 67.4357 95.7652L67.0636 96.0992C65.9682 94.8787 64.8954 93.6376 63.8457 92.3766L64.23 92.0568C63.185 90.8014 62.1631 89.5263 61.1649 88.232L60.769 88.5374C59.7679 87.2393 58.7905 85.922 57.8375 84.5861L58.2446 84.2957C57.2962 82.9663 56.3721 81.6184 55.4729 80.2528L55.0553 80.5278C54.1538 79.1586 53.2773 77.7716 52.4264 76.3674L52.854 76.1083C52.008 74.7124 51.1875 73.2994 50.393 71.8701L49.956 72.113C49.1601 70.6813 48.3903 69.2331 47.6472 67.7692L48.093 67.5428C47.3543 66.0878 46.6421 64.6171 45.957 63.1315L45.503 63.3408C44.8169 61.8532 44.1579 60.3505 43.5265 58.8335L43.9881 58.6414C43.3613 57.1353 42.7619 55.6149 42.1904 54.081L41.7219 54.2555C41.1506 52.7221 40.6072 51.1752 40.0923 49.6153L40.5671 49.4586C40.0561 47.9105 39.5733 46.3497 39.1193 44.7767L38.6389 44.9154C38.1849 43.3427 37.7596 41.7579 37.3635 40.1616L37.8488 40.0412C37.4562 38.4588 37.0924 36.865 36.7581 35.2604L36.2686 35.3624C35.9352 33.7626 35.6311 32.1521 35.3566 30.5315L35.8496 30.448C35.5777 28.8425 35.3351 27.227 35.1224 25.6021L34.6267 25.667C34.4144 24.0453 34.2317 22.4143 34.0792 20.7745L34.5771 20.7282C34.4263 19.1065 34.3052 17.4762 34.2142 15.8379L33.715 15.8656C33.6246 14.2363 33.5639 12.599 33.5335 10.9544L34.0334 10.9451C34.0183 10.127 34.0107 9.30702 34.0107 8.48526C34.0107 7.66354 34.0183 6.8436 34.0334 6.02548L33.5335 6.01625C33.5639 4.37161 33.6246 2.73437 33.715 1.10503L34.2142 1.13274C34.3052 -0.505608 34.4263 -2.13591 34.5771 -3.75761L34.0792 -3.80389C34.2317 -5.44366 34.4143 -7.07469 34.6266 -8.69642L35.1224 -8.63152C35.3351 -10.2564 35.5777 -11.8718 35.8496 -13.4774L35.3566 -13.5609C35.6311 -15.1814 35.9352 -16.7919 36.2686 -18.3918L36.7581 -18.2898C37.0924 -19.8944 37.4561 -21.4882 37.8488 -23.0706L37.3635 -23.191C37.7595 -24.7873 38.1849 -26.3721 38.6388 -27.9448L39.1192 -27.8062C39.5733 -29.3791 40.0561 -30.9399 40.5671 -32.488L40.0923 -32.6447C40.6072 -34.2046 41.1506 -35.7515 41.7218 -37.285L42.1904 -37.1104C42.7618 -38.6443 43.3613 -40.1647 43.9881 -41.6708L43.5265 -41.8629C44.1578 -43.3799 44.8169 -44.8826 45.5029 -46.3703L45.957 -46.1609C46.6421 -47.6465 47.3543 -49.1172 48.093 -50.5723L47.6471 -50.7986C48.3903 -52.2625 49.1601 -53.7107 49.956 -55.1424L50.393 -54.8995C51.1875 -56.3289 52.008 -57.7418 52.854 -59.1377L52.4263 -59.3969C53.2773 -60.801 54.1538 -62.188 55.0553 -63.5572L55.4729 -63.2822C56.3721 -64.6479 57.2962 -65.9957 58.2445 -67.3251L57.8375 -67.6155C58.7904 -68.9514 59.7678 -70.2687 60.769 -71.5668L61.1649 -71.2615C62.1631 -72.5557 63.185 -73.8309 64.23 -75.0862L63.8457 -75.4061C64.8953 -76.667 65.9682 -77.9081 67.0636 -79.1286L67.4357 -78.7947C68.5272 -80.0108 69.6412 -81.2066 70.777 -82.3812L70.4175 -82.7287C71.5576 -83.9078 72.7196 -85.0656 73.9029 -86.2016L74.2491 -85.8409C75.4277 -86.9724 76.6274 -88.0821 77.8476 -89.1693L77.515 -89.5426C78.7393 -90.6336 79.9842 -91.7021 81.249 -92.7474L81.5676 -92.362C82.8264 -93.4024 84.1051 -94.4198 85.4029 -95.4135L85.099 -95.8105C86.4004 -96.8071 87.7211 -97.7799 89.0603 -98.7284L89.3493 -98.3204C90.6818 -99.2641 92.0327 -100.184 93.4015 -101.078L93.1279 -101.497C94.4999 -102.394 95.8897 -103.266 97.2967 -104.112L97.5545 -103.684C98.953 -104.525 100.369 -105.342 101.801 -106.132L101.559 -106.57C102.993 -107.361 104.443 -108.126 105.91 -108.865L106.135 -108.419C107.592 -109.153 109.064 -109.861 110.552 -110.542L110.344 -110.997C111.833 -111.679 113.338 -112.334 114.856 -112.962L115.047 -112.499C116.555 -113.122 118.077 -113.718 119.613 -114.286L119.439 -114.755C120.974 -115.323 122.522 -115.863 124.083 -116.374L124.239 -115.899C125.788 -116.407 127.349 -116.886 128.923 -117.337L128.786 -117.818C130.359 -118.269 131.945 -118.691 133.542 -119.085L133.661 -118.599C135.244 -118.989 136.839 -119.351 138.444 -119.683L138.343 -120.172C139.943 -120.503 141.554 -120.805 143.175 -121.078L143.258 -120.585C144.864 -120.855 146.479 -121.096 148.104 -121.307L148.04 -121.803C149.662 -122.013 151.293 -122.195 152.933 -122.346L152.979 -121.848C154.601 -121.998 156.231 -122.118 157.87 -122.209L157.842 -122.708C159.472 -122.798 161.109 -122.858 162.753 -122.888L162.763 -122.388C163.581 -122.403 164.401 -122.411 165.223 -122.411C166.044 -122.411 166.864 -122.403 167.682 -122.388L167.692 -122.888C169.336 -122.858 170.973 -122.798 172.603 -122.708L172.575 -122.209C174.214 -122.118 175.844 -121.998 177.466 -121.848L177.512 -122.346C179.152 -122.195 180.783 -122.013 182.405 -121.803L182.34 -121.307C183.966 -121.096 185.581 -120.855 187.187 -120.585L187.27 -121.078C188.891 -120.805 190.502 -120.503 192.102 -120.172L192.001 -119.683C193.606 -119.351 195.201 -118.989 196.784 -118.599L196.903 -119.085C198.5 -118.691 200.086 -118.269 201.659 -117.818L201.522 -117.337C203.096 -116.886 204.657 -116.407 206.206 -115.899L206.362 -116.374C207.923 -115.863 209.471 -115.323 211.006 -114.755L210.832 -114.286C212.368 -113.718 213.89 -113.122 215.398 -112.499L215.589 -112.962C217.107 -112.334 218.612 -111.679 220.101 -110.997L219.893 -110.542C221.381 -109.861 222.853 -109.153 224.31 -108.419L224.535 -108.865C226.001 -108.126 227.452 -107.361 228.886 -106.57L228.644 -106.132C230.076 -105.342 231.492 -104.525 232.89 -103.684L233.148 -104.112C234.555 -103.266 235.945 -102.394 237.317 -101.497L237.044 -101.078C238.412 -100.184 239.763 -99.2642 241.096 -98.3204L241.385 -98.7284C242.724 -97.7799 244.045 -96.8071 245.346 -95.8106L245.042 -95.4136C246.34 -94.4198 247.619 -93.4024 248.877 -92.362L249.196 -92.7474C250.461 -91.7021 251.706 -90.6336 252.93 -89.5427L252.597 -89.1694C253.818 -88.0821 255.017 -86.9724 256.196 -85.8409L256.542 -86.2016C257.725 -85.0656 258.887 -83.9078 260.027 -82.7288L259.668 -82.3812C260.804 -81.2066 261.918 -80.0109 263.009 -78.7947L263.381 -79.1287C264.477 -77.9081 265.55 -76.6671 266.599 -75.4061L266.215 -75.0862C267.26 -73.8309 268.282 -72.5558 269.28 -71.2615L269.676 -71.5669C270.677 -70.2687 271.655 -68.9514 272.607 -67.6156L272.2 -67.3252C273.149 -65.9958 274.073 -64.6479 274.972 -63.2823L275.39 -63.5572C276.291 -62.1881 277.168 -60.8011 278.019 -59.3969L277.591 -59.1378C278.437 -57.7419 279.257 -56.3289 280.052 -54.8996L280.489 -55.1425C281.285 -53.7107 282.055 -52.2626 282.798 -50.7987L282.352 -50.5723C283.091 -49.1173 283.803 -47.6466 284.488 -46.1609L284.942 -46.3703C285.628 -44.8827 286.287 -43.38 286.918 -41.863L286.457 -41.6709C287.084 -40.1647 287.683 -38.6444 288.255 -37.1105L288.723 -37.285C289.294 -35.7516 289.838 -34.2047 290.353 -32.6448L289.878 -32.4881C290.389 -30.94 290.872 -29.3792 291.326 -27.8062L291.806 -27.9449C292.26 -26.3722 292.685 -24.7874 293.082 -23.1911L292.596 -23.0707C292.989 -21.4882 293.353 -19.8944 293.687 -18.2899L294.176 -18.3919C294.51 -16.792 294.814 -15.1815 295.088 -13.561L294.595 -13.4775C294.867 -11.8719 295.11 -10.2565 295.323 -8.63161L295.818 -8.69652C296.031 -7.07479 296.213 -5.44376 296.366 -3.804L295.868 -3.75771C296.019 -2.13601 296.14 -0.505714 296.231 1.13264L296.73 1.10493Z" stroke="#96CA4C" stroke-linejoin="round" stroke-dasharray="5 5"/>
<path opacity="0.3" d="M317.843 15.8165C318 18.0984 318.105 20.3943 318.158 22.7032L317.658 22.7147C317.684 23.8605 317.698 25.0097 317.698 26.1618C317.698 27.314 317.684 28.4631 317.658 29.6089L318.158 29.6204C318.105 31.9293 318 34.2252 317.843 36.5071L317.345 36.4728C317.187 38.7681 316.977 41.0491 316.716 43.3145L317.213 43.3718C316.948 45.6641 316.632 47.9406 316.265 50.2L315.771 50.1198C315.403 52.3888 314.983 54.6406 314.512 56.8739L315.001 56.977C314.526 59.2332 313.999 61.4707 313.423 63.6881L312.939 63.5623C312.361 65.7859 311.733 67.9893 311.056 70.1712L311.533 70.3195C310.85 72.5207 310.117 74.7002 309.335 76.8565L308.865 76.6861C308.082 78.8448 307.251 80.9803 306.373 83.0912L306.834 83.2834C305.949 85.4097 305.017 87.5112 304.037 89.5865L303.585 89.3731C302.606 91.4482 301.58 93.497 300.508 95.5183L300.95 95.7524C299.872 97.7861 298.748 99.7919 297.58 101.768L297.149 101.514C295.983 103.488 294.771 105.433 293.517 107.348L293.935 107.622C292.674 109.546 291.37 111.439 290.023 113.3L289.618 113.007C288.275 114.865 286.889 116.69 285.463 118.481L285.855 118.793C284.422 120.592 282.95 122.357 281.437 124.088L281.061 123.758C279.553 125.484 278.006 127.174 276.42 128.828L276.781 129.174C275.191 130.833 273.562 132.456 271.897 134.041L271.552 133.678C269.893 135.258 268.197 136.799 266.466 138.301L266.794 138.678C265.059 140.184 263.288 141.651 261.484 143.077L261.174 142.685C259.377 144.104 257.548 145.483 255.685 146.821L255.977 147.227C254.112 148.567 252.214 149.865 250.285 151.119L250.013 150.7C248.094 151.948 246.145 153.153 244.167 154.314L244.42 154.745C242.44 155.907 240.431 157.025 238.394 158.097L238.161 157.654C236.137 158.72 234.085 159.74 232.007 160.714L232.219 161.166C230.141 162.14 228.037 163.067 225.909 163.947L225.718 163.485C223.605 164.358 221.467 165.184 219.306 165.961L219.476 166.432C217.318 167.208 215.137 167.937 212.934 168.616L212.787 168.138C210.603 168.811 208.399 169.435 206.174 170.009L206.298 170.493C204.08 171.066 201.842 171.588 199.585 172.061L199.483 171.571C197.249 172.038 194.996 172.456 192.727 172.822L192.806 173.315C190.547 173.68 188.27 173.994 185.977 174.256L185.92 173.76C183.655 174.019 181.374 174.227 179.078 174.384L179.112 174.883C176.83 175.038 174.534 175.143 172.225 175.195L172.214 174.695C171.068 174.721 169.919 174.734 168.767 174.734C167.615 174.734 166.465 174.721 165.32 174.695L165.308 175.195C162.999 175.143 160.703 175.038 158.421 174.883L158.455 174.384C156.16 174.227 153.879 174.019 151.613 173.76L151.556 174.256C149.264 173.994 146.987 173.68 144.727 173.315L144.807 172.822C142.537 172.456 140.285 172.038 138.051 171.571L137.949 172.061C135.692 171.588 133.453 171.066 131.235 170.493L131.36 170.009C129.135 169.435 126.93 168.811 124.747 168.138L124.6 168.616C122.397 167.937 120.216 167.208 118.058 166.432L118.227 165.961C116.066 165.184 113.929 164.358 111.816 163.485L111.625 163.947C109.496 163.067 107.392 162.14 105.314 161.166L105.527 160.714C103.449 159.74 101.397 158.72 99.3725 157.654L99.1396 158.097C97.1026 157.025 95.0934 155.907 93.1134 154.745L93.3665 154.314C91.3883 153.153 89.4393 151.948 87.521 150.7L87.2483 151.119C85.3198 149.865 83.422 148.567 81.5565 147.227L81.8482 146.821C79.9861 145.483 78.1561 144.104 76.3598 142.685L76.0498 143.077C74.2455 141.651 72.4749 140.184 70.7395 138.678L71.0672 138.301C69.3364 136.799 67.6407 135.258 65.9815 133.678L65.6368 134.041C63.9715 132.456 62.3429 130.833 60.7523 129.174L61.1132 128.828C59.5281 127.174 57.9808 125.484 56.4728 123.759L56.0964 124.088C54.5841 122.357 53.1112 120.592 51.6791 118.793L52.0703 118.481C50.6442 116.69 49.2587 114.865 47.9152 113.007L47.5101 113.301C46.1638 111.439 44.8596 109.546 43.5987 107.622L44.0169 107.348C42.7624 105.433 41.5511 103.488 40.3842 101.514L39.9537 101.768C38.7855 99.7919 37.6617 97.7861 36.5837 95.7525L37.0254 95.5183C35.954 93.4971 34.9279 91.4482 33.9485 89.3731L33.4964 89.5865C32.5169 87.5112 31.5841 85.4097 30.6991 83.2834L31.1608 83.0913C30.2822 80.9804 29.4511 78.8449 28.6687 76.6862L28.1986 76.8565C27.417 74.7002 26.6839 72.5208 26.0006 70.3195L26.4781 70.1713C25.8007 67.9894 25.1724 65.786 24.5944 63.5624L24.1105 63.6882C23.5342 61.4708 23.0077 59.2333 22.5323 56.9771L23.0216 56.874C22.5511 54.6407 22.1308 52.3889 21.7621 50.1199L21.2686 50.2001C20.9014 47.9406 20.5851 45.6642 20.321 43.3719L20.8177 43.3146C20.5567 41.0492 20.3467 38.7682 20.189 36.4729L19.6902 36.5072C19.5334 34.2253 19.4281 31.9294 19.3754 29.6205L19.8752 29.609C19.8491 28.4632 19.8359 27.314 19.8359 26.1618C19.8359 25.0097 19.8491 23.8606 19.8752 22.7147L19.3754 22.7033C19.4281 20.3944 19.5334 18.0985 19.6902 15.8166L20.189 15.8509C20.3467 13.5556 20.5567 11.2746 20.8177 9.00916L20.321 8.95192C20.5851 6.65962 20.9014 4.38315 21.2686 2.1237L21.7621 2.2039C22.1308 -0.0651398 22.5511 -2.31693 23.0216 -4.55025L22.5323 -4.65332C23.0077 -6.90955 23.5341 -9.147 24.1105 -11.3644L24.5944 -11.2386C25.1724 -13.4622 25.8007 -15.6656 26.4781 -17.8475L26.0005 -17.9958C26.6839 -20.197 27.417 -22.3765 28.1986 -24.5328L28.6686 -24.3624C29.4511 -26.5211 30.2822 -28.6566 31.1607 -30.7676L30.6991 -30.9597C31.5841 -33.086 32.5169 -35.1875 33.4963 -37.2628L33.9485 -37.0494C34.9279 -39.1245 35.954 -41.1733 37.0254 -43.1946L36.5836 -43.4287C37.6617 -45.4624 38.7855 -47.4682 39.9537 -49.4447L40.3842 -49.1903C41.5511 -51.1646 42.7624 -53.1096 44.0169 -55.024L43.5987 -55.2981C44.8595 -57.2223 46.1638 -59.1156 47.5101 -60.9768L47.9152 -60.6837C49.2587 -62.5411 50.6442 -64.3662 52.0703 -66.1577L51.6791 -66.4691C53.1112 -68.2683 54.5841 -70.0336 56.0963 -71.7638L56.4728 -71.4348C57.9808 -73.16 59.528 -74.8502 61.1132 -76.504L60.7523 -76.85C62.3429 -78.5093 63.9715 -80.1321 65.6368 -81.717L65.9815 -81.3548C67.6407 -82.9338 69.3364 -84.475 71.0672 -85.977L70.7395 -86.3546C72.4749 -87.8606 74.2454 -89.3272 76.0498 -90.7532L76.3598 -90.3609C78.1561 -91.7805 79.986 -93.1597 81.8482 -94.4971L81.5565 -94.9032C83.422 -96.2429 85.3197 -97.5408 87.2483 -98.7955L87.521 -98.3764C89.4393 -99.6244 91.3882 -100.83 93.3664 -101.99L93.1134 -102.422C95.0934 -103.583 97.1026 -104.701 99.1396 -105.773L99.3725 -105.331C101.397 -106.396 103.449 -107.416 105.527 -108.39L105.314 -108.843C107.392 -109.816 109.496 -110.744 111.625 -111.623L111.816 -111.161C113.929 -112.034 116.066 -112.86 118.227 -113.638L118.058 -114.108C120.216 -114.885 122.397 -115.613 124.6 -116.292L124.747 -115.814C126.93 -116.487 129.135 -117.111 131.36 -117.685L131.235 -118.169C133.453 -118.742 135.692 -119.265 137.949 -119.737L138.051 -119.247C140.285 -119.715 142.537 -120.132 144.807 -120.498L144.727 -120.992C146.987 -121.356 149.264 -121.67 151.556 -121.933L151.613 -121.436C153.879 -121.695 156.16 -121.904 158.455 -122.06L158.421 -122.559C160.703 -122.715 162.999 -122.819 165.308 -122.872L165.319 -122.372C166.465 -122.398 167.615 -122.411 168.767 -122.411C169.919 -122.411 171.068 -122.398 172.214 -122.372L172.225 -122.872C174.534 -122.819 176.83 -122.715 179.112 -122.559L179.078 -122.06C181.374 -121.904 183.655 -121.695 185.92 -121.436L185.977 -121.933C188.27 -121.67 190.547 -121.356 192.806 -120.992L192.727 -120.498C194.996 -120.132 197.249 -119.715 199.483 -119.247L199.585 -119.737C201.842 -119.265 204.08 -118.742 206.298 -118.169L206.173 -117.685C208.398 -117.111 210.603 -116.487 212.787 -115.814L212.934 -116.292C215.137 -115.613 217.318 -114.885 219.476 -114.108L219.306 -113.638C221.467 -112.86 223.605 -112.034 225.718 -111.161L225.909 -111.623C228.037 -110.744 230.141 -109.816 232.219 -108.843L232.007 -108.39C234.085 -107.416 236.137 -106.396 238.161 -105.331L238.394 -105.773C240.431 -104.701 242.44 -103.583 244.42 -102.422L244.167 -101.99C246.145 -100.83 248.094 -99.6244 250.013 -98.3764L250.285 -98.7955C252.214 -97.5408 254.112 -96.2429 255.977 -94.9032L255.685 -94.4971C257.548 -93.1597 259.377 -91.7806 261.174 -90.3609L261.484 -90.7532C263.288 -89.3273 265.059 -87.8606 266.794 -86.3547L266.466 -85.977C268.197 -84.475 269.893 -82.9338 271.552 -81.3548L271.897 -81.717C273.562 -80.1322 275.191 -78.5094 276.781 -76.85L276.42 -76.504C278.005 -74.8503 279.553 -73.1601 281.061 -71.4348L281.437 -71.7639C282.949 -70.0337 284.422 -68.2683 285.854 -66.4692L285.463 -66.1578C286.889 -64.3662 288.275 -62.5411 289.618 -60.6838L290.023 -60.9768C291.37 -59.1157 292.674 -57.2223 293.935 -55.2981L293.517 -55.0241C294.771 -53.1097 295.982 -51.1646 297.149 -49.1903L297.58 -49.4447C298.748 -47.4682 299.872 -45.4624 300.95 -43.4288L300.508 -43.1946C301.58 -41.1734 302.606 -39.1245 303.585 -37.0494L304.037 -37.2628C305.017 -35.1875 305.949 -33.0861 306.834 -30.9597L306.373 -30.7676C307.251 -28.6567 308.082 -26.5212 308.865 -24.3625L309.335 -24.5328C310.117 -22.3765 310.85 -20.1971 311.533 -17.9958L311.055 -17.8476C311.733 -15.6657 312.361 -13.4623 312.939 -11.2387L313.423 -11.3645C313.999 -9.14706 314.526 -6.90962 315.001 -4.6534L314.512 -4.55032C314.983 -2.317 315.403 -0.0652161 315.771 2.20382L316.265 2.12362C316.632 4.38307 316.948 6.65955 317.213 8.95184L316.716 9.00908C316.977 11.2745 317.187 13.5555 317.345 15.8508L317.843 15.8165Z" stroke="#96CA4C" stroke-linejoin="round" stroke-dasharray="7 7"/>
<path opacity="0.1" d="M317.642 36.3809C317.888 39.3211 318.053 42.2841 318.136 45.2678L317.636 45.2816C317.677 46.7596 317.698 48.2426 317.698 49.7305C317.698 51.2183 317.677 52.7013 317.636 54.1793L318.136 54.1931C318.053 57.1768 317.888 60.1398 317.642 63.08L317.144 63.0383C316.896 66.0013 316.566 68.941 316.157 71.8552L316.652 71.9248C316.238 74.8764 315.742 77.8021 315.166 80.6993L314.676 80.6019C314.098 83.5145 313.439 86.3982 312.703 89.2507L313.187 89.3757C312.442 92.2602 311.618 95.113 310.717 97.9315L310.241 97.7792C309.338 100.606 308.357 103.398 307.3 106.153L307.767 106.332C306.702 109.11 305.561 111.851 304.347 114.551L303.891 114.346C302.675 117.05 301.385 119.713 300.023 122.333L300.467 122.563C299.097 125.201 297.654 127.795 296.143 130.344L295.713 130.089C294.201 132.636 292.62 135.137 290.972 137.59L291.387 137.869C289.731 140.334 288.007 142.751 286.218 145.116L285.819 144.814C284.033 147.175 282.182 149.485 280.269 151.74L280.65 152.063C278.73 154.327 276.747 156.536 274.704 158.688L274.342 158.344C272.305 160.49 270.209 162.579 268.055 164.608L268.398 164.972C266.239 167.007 264.023 168.982 261.752 170.894L261.43 170.512C259.168 172.417 256.852 174.259 254.485 176.037L254.785 176.437C252.414 178.218 249.992 179.934 247.52 181.582L247.243 181.166C244.785 182.806 242.279 184.379 239.726 185.882L239.98 186.313C237.427 187.817 234.828 189.251 232.186 190.614L231.957 190.17C229.333 191.523 226.667 192.805 223.96 194.014L224.163 194.471C221.46 195.678 218.716 196.812 215.935 197.871L215.758 197.403C213 198.453 210.206 199.428 207.377 200.325L207.528 200.802C204.708 201.697 201.854 202.515 198.968 203.255L198.844 202.77C195.99 203.502 193.105 204.156 190.192 204.73L190.288 205.221C187.391 205.792 184.464 206.284 181.512 206.696L181.443 206.201C178.528 206.607 175.588 206.935 172.625 207.181L172.666 207.679C169.726 207.923 166.763 208.087 163.779 208.169L163.766 207.669C162.288 207.71 160.804 207.73 159.317 207.73C157.829 207.73 156.346 207.71 154.868 207.669L154.854 208.169C151.87 208.087 148.907 207.923 145.967 207.679L146.008 207.181C143.045 206.935 140.105 206.607 137.19 206.201L137.121 206.696C134.169 206.284 131.243 205.792 128.345 205.221L128.441 204.73C125.528 204.156 122.643 203.502 119.79 202.77L119.665 203.255C116.779 202.515 113.925 201.697 111.105 200.802L111.256 200.325C108.427 199.428 105.633 198.453 102.876 197.403L102.698 197.871C99.9167 196.812 97.1732 195.678 94.4697 194.471L94.6736 194.014C91.9666 192.805 89.2998 191.523 86.6758 190.17L86.4466 190.614C83.8047 189.251 81.206 187.817 78.6531 186.313L78.9069 185.882C76.3546 184.379 73.8482 182.806 71.3904 181.166L71.1129 181.582C68.6415 179.934 66.2191 178.218 63.8482 176.437L64.1485 176.037C61.781 174.259 59.4652 172.417 57.2035 170.512L56.8815 170.894C54.6105 168.982 52.3941 167.007 50.2349 164.972L50.5778 164.608C48.4245 162.579 46.3281 160.49 44.2915 158.344L43.9288 158.688C41.8861 156.536 39.9032 154.327 37.9828 152.063L38.3641 151.74C36.451 149.484 34.6002 147.175 32.8143 144.814L32.4155 145.116C30.6265 142.751 28.9023 140.334 27.2456 137.869L27.6606 137.59C26.0127 135.137 24.4318 132.636 22.9206 130.089L22.4906 130.344C20.9787 127.795 19.5362 125.201 18.1659 122.563L18.6096 122.333C17.2483 119.713 15.9584 117.05 14.7425 114.346L14.2865 114.551C13.0718 111.851 11.9308 109.11 10.8658 106.332L11.3327 106.153C10.2765 103.398 9.29542 100.606 8.39194 97.7793L7.91568 97.9315C7.01481 95.113 6.19084 92.2603 5.44622 89.3757L5.93035 89.2507C5.19399 86.3982 4.53547 83.5145 3.9572 80.6019L3.46677 80.6993C2.89154 77.8021 2.39546 74.8765 1.98088 71.9248L2.47602 71.8553C2.0667 68.9411 1.73706 66.0014 1.48937 63.0384L0.99111 63.08C0.745327 60.1398 0.579992 57.1768 0.497309 54.1931L0.997118 54.1793C0.95616 52.7014 0.935547 51.2183 0.935547 49.7305C0.935547 48.2426 0.95616 46.7596 0.997117 45.2817L0.497309 45.2678C0.579991 42.2842 0.745324 39.3212 0.991107 36.3809L1.48937 36.4226C1.73705 33.4596 2.06669 30.5199 2.47601 27.6057L1.98087 27.5362C2.39546 24.5845 2.89154 21.6589 3.46677 18.7616L3.9572 18.859C4.53547 15.9465 5.19398 13.0627 5.93034 10.2102L5.44622 10.0852C6.19083 7.20071 7.01481 4.34797 7.91567 1.52947L8.39193 1.6817C9.29542 -1.14499 10.2765 -3.93713 11.3326 -6.69223L10.8658 -6.8712C11.9308 -9.64931 13.0718 -12.3899 14.2865 -15.0904L14.7425 -14.8853C15.9584 -17.5886 17.2483 -20.2517 18.6096 -22.8719L18.1659 -23.1024C19.5362 -25.74 20.9787 -28.3343 22.4906 -30.8827L22.9206 -30.6276C24.4318 -33.1749 26.0127 -35.6761 27.6607 -38.1288L27.2456 -38.4076C28.9023 -40.8733 30.6265 -43.2899 32.4156 -45.655L32.8143 -45.3534C34.6003 -47.7143 36.4511 -50.0236 38.3641 -52.2787L37.9828 -52.6022C39.9032 -54.8659 41.8861 -57.0753 43.9289 -59.2275L44.2915 -58.8833C46.3282 -61.029 48.4245 -63.1178 50.5778 -65.147L50.2349 -65.5109C52.3942 -67.5457 54.6106 -69.5207 56.8815 -71.4333L57.2036 -71.0509C59.4652 -72.9557 61.781 -74.7985 64.1485 -76.5765L63.8482 -76.9763C66.2191 -78.7569 68.6415 -80.4728 71.1129 -82.1215L71.3904 -81.7055C73.8482 -83.3451 76.3546 -84.9179 78.9069 -86.4212L78.6531 -86.8521C81.206 -88.3558 83.8047 -89.7903 86.4466 -91.153L86.6758 -90.7086C89.2998 -92.062 91.9666 -93.3445 94.6736 -94.5533L94.4697 -95.0098C97.1732 -96.2171 99.9167 -97.3512 102.698 -98.4096L102.876 -97.9423C105.633 -98.9918 108.427 -99.9666 111.256 -100.864L111.105 -101.341C113.925 -102.236 116.779 -103.054 119.665 -103.794L119.789 -103.309C122.643 -104.041 125.528 -104.695 128.441 -105.269L128.345 -105.76C131.243 -106.331 134.169 -106.824 137.121 -107.235L137.19 -106.74C140.105 -107.146 143.045 -107.474 146.008 -107.72L145.967 -108.218C148.907 -108.462 151.87 -108.626 154.854 -108.708L154.868 -108.208C156.346 -108.249 157.829 -108.27 159.317 -108.27C160.804 -108.27 162.288 -108.249 163.765 -108.208L163.779 -108.708C166.763 -108.626 169.726 -108.462 172.666 -108.218L172.625 -107.72C175.588 -107.474 178.528 -107.146 181.443 -106.74L181.512 -107.235C184.464 -106.824 187.39 -106.331 190.288 -105.76L190.192 -105.269C193.105 -104.695 195.99 -104.041 198.844 -103.309L198.968 -103.794C201.854 -103.054 204.708 -102.236 207.528 -101.341L207.377 -100.864C210.206 -99.9666 213 -98.9918 215.758 -97.9423L215.935 -98.4096C218.716 -97.3512 221.46 -96.2171 224.163 -95.0098L223.96 -94.5533C226.667 -93.3445 229.333 -92.062 231.957 -90.7086L232.186 -91.153C234.828 -89.7902 237.427 -88.3557 239.98 -86.852L239.726 -86.4212C242.279 -84.9178 244.785 -83.3451 247.243 -81.7055L247.52 -82.1215C249.992 -80.4728 252.414 -78.7569 254.785 -76.9763L254.485 -76.5765C256.852 -74.7985 259.168 -72.9557 261.43 -71.0509L261.752 -71.4333C264.023 -69.5207 266.239 -67.5457 268.398 -65.5109L268.055 -65.147C270.209 -63.1178 272.305 -61.029 274.342 -58.8832L274.704 -59.2274C276.747 -57.0752 278.73 -54.8659 280.65 -52.6021L280.269 -52.2787C282.182 -50.0236 284.033 -47.7142 285.819 -45.3533L286.218 -45.655C288.007 -43.2899 289.731 -40.8732 291.387 -38.4076L290.972 -38.1288C292.62 -35.6761 294.201 -33.1749 295.713 -30.6276L296.143 -30.8827C297.654 -28.3343 299.097 -25.74 300.467 -23.1024L300.023 -22.8719C301.385 -20.2517 302.675 -17.5886 303.891 -14.8853L304.347 -15.0904C305.561 -12.3899 306.702 -9.64934 307.767 -6.87123L307.3 -6.69225C308.357 -3.93715 309.338 -1.14501 310.241 1.68167L310.717 1.52945C311.618 4.34795 312.442 7.20068 313.187 10.0852L312.703 10.2102C313.439 13.0627 314.098 15.9464 314.676 18.859L315.166 18.7616C315.742 21.6588 316.238 24.5844 316.652 27.5361L316.157 27.6057C316.566 30.5199 316.896 33.4596 317.144 36.4225L317.642 36.3809Z" stroke="#96CA4C" stroke-linejoin="round" stroke-dasharray="9 9"/>
</svg>
