<svg width="82" height="82" viewBox="0 0 82 82" fill="none" xmlns="http://www.w3.org/2000/svg">
<rect width="82" height="82" rx="8" fill="#FF6D00"/>
<path d="M55.0273 22.8219C55.0273 20.7144 53.3129 19 51.2054 19H30.8219C28.7144 19 27 20.7144 27 22.8219V58.6629C27 60.7704 28.7144 62.4848 30.8219 62.4848H51.2054C53.3129 62.4848 55.0273 60.7704 55.0273 58.6629V22.8219ZM41.0137 24.0959C41.7172 24.0959 42.2876 24.6661 42.2876 25.3699C42.2876 26.0734 41.7172 26.6438 41.0137 26.6438C40.3101 26.6438 39.7397 26.0734 39.7397 25.3699C39.7397 24.6661 40.3101 24.0959 41.0137 24.0959ZM38.503 44.2558L41.051 34.064C41.2226 33.3797 41.902 32.9642 42.5961 33.1372C43.2804 33.3076 43.6934 33.9993 43.5242 34.6811L40.9763 44.8729C40.806 45.5571 40.1125 45.9701 39.4311 45.7997C38.7469 45.6293 38.3338 44.9376 38.503 44.2558ZM36.8185 42.9171C36.3209 43.4147 35.5147 43.4148 35.017 42.9171L32.4691 40.3692C31.9715 39.8715 31.9715 39.0653 32.4691 38.5677L35.017 36.0197C35.5146 35.5221 36.3209 35.5221 36.8185 36.0197C37.3161 36.5173 37.3161 37.3236 36.8185 37.8212L35.1713 39.4685L36.8186 41.1157C37.3162 41.6133 37.3162 42.4195 36.8185 42.9171ZM43.5616 57.389H38.4657C37.7616 57.389 37.1918 56.8192 37.1918 56.115C37.1918 55.4108 37.7616 54.841 38.4657 54.841H43.5616C44.2658 54.841 44.8356 55.4108 44.8356 56.115C44.8356 56.8192 44.2658 57.389 43.5616 57.389ZM49.5582 40.3692L47.0103 42.9171C46.5126 43.4147 45.7065 43.4148 45.2088 42.9171C44.7112 42.4195 44.7112 41.6132 45.2088 41.1156L46.856 39.4685L45.2088 37.8212C44.7112 37.3236 44.7112 36.5173 45.2088 36.0197C45.7064 35.5221 46.5126 35.5221 47.0103 36.0197L49.5582 38.5677C50.0559 39.0654 50.0559 39.8715 49.5582 40.3692Z" fill="white"/>
</svg>
