<svg width="100" height="100" viewBox="0 0 100 100" fill="none" xmlns="http://www.w3.org/2000/svg">
<rect width="100" height="100" rx="8" fill="#067DE1"/>
<path d="M70.0078 64.0068V74.0155C70.0078 75.3498 68.9195 76.4239 67.5851 76.4239H52.7019L51.7007 65.0223V65.008C51.6279 64.5292 51.7878 64.0504 52.0783 63.6586C52.1076 63.6293 52.1218 63.6008 52.136 63.5715L53.4269 61.323C53.601 61.0183 53.601 60.6558 53.4269 60.3511L52.136 58.1168C51.9619 57.8121 51.643 57.6238 51.2947 57.6238H48.713C48.3648 57.6238 48.0458 57.8121 47.8717 58.1168L46.5809 60.3511C46.4068 60.6558 46.4068 61.0183 46.5809 61.323L47.8717 63.5715C47.886 63.6008 47.901 63.6293 47.9295 63.6586C48.22 64.0504 48.379 64.5292 48.307 65.008V65.0223L47.3058 76.4239H32.4226C31.0883 76.4239 30 75.3507 30 74.0155V64.0068C30 60.6558 31.9873 57.6824 34.9466 56.348C35.4112 56.1304 35.8892 55.9705 36.3973 55.8407L41.8947 53.8676C41.8947 53.8098 41.9089 53.7512 41.9382 53.6935L42.9101 51.2566C43.0985 50.7636 43.6786 50.5752 44.129 50.8364L47.639 52.9543L50.0039 54.3749L52.3687 52.9535L55.8646 50.8498C56.3141 50.5744 56.9093 50.7627 57.0977 51.2558L58.0695 53.6927C58.0988 53.7504 58.1131 53.809 58.1131 53.8668L63.6105 55.8399C64.1178 55.9705 64.5966 56.1295 65.0612 56.3472C68.0204 57.6824 70.0078 60.6558 70.0078 64.0068Z" fill="#E5E5E5"/>
<path d="M59.5772 33.5156V36.1559C59.5772 36.823 59.5337 37.4325 59.4608 37.9984C59.3302 38.9996 59.1126 39.9857 58.8229 40.9283C58.1851 42.9298 57.2123 44.7724 55.9072 46.3972C55.6896 46.6584 55.4719 46.9196 55.2401 47.1657L54.4716 47.9928C53.4854 49.081 52.0632 49.7189 50.584 49.7189H49.4237C47.9588 49.7189 46.5373 49.0953 45.5361 47.9928L44.7677 47.1657C44.5358 46.9187 44.3181 46.6584 44.1147 46.3972C43.2592 45.3382 42.5191 44.1629 41.9533 42.9014C41.2283 41.3351 40.7637 39.681 40.5603 37.9841C40.4732 37.3889 40.4297 36.7946 40.4297 36.2145V33.5742C40.4297 32.6751 40.546 31.7903 40.7922 30.9339C41.9524 26.8579 45.7387 24 50.003 24C54.2673 24 58.0536 26.8579 59.2139 30.9481C59.4608 31.7601 59.5772 32.6458 59.5772 33.5156Z" fill="#E5E5E5"/>
</svg>
