<svg width="82" height="82" viewBox="0 0 82 82" fill="none" xmlns="http://www.w3.org/2000/svg">
<rect width="82" height="82" rx="8" fill="#96CA4C"/>
<path d="M58.9136 23.0619C58.9136 22.4755 58.4382 22 57.8517 22H18.0619C17.4755 22 17 22.4755 17 23.0619V27.4747H58.9136V23.0619ZM19.9869 26.2598C19.2053 26.2598 18.5717 25.6262 18.5717 24.8446C18.5717 24.063 19.2053 23.4294 19.9869 23.4294C20.7685 23.4294 21.4021 24.063 21.4021 24.8446C21.4022 25.6262 20.7686 26.2598 19.9869 26.2598ZM24.9768 26.2598C24.1952 26.2598 23.5616 25.6262 23.5616 24.8446C23.5616 24.063 24.1952 23.4294 24.9768 23.4294C25.7584 23.4294 26.392 24.063 26.392 24.8446C26.392 25.6262 25.7584 26.2598 24.9768 26.2598ZM55.9267 26.2598C55.1451 26.2598 54.5115 25.6262 54.5115 24.8446C54.5115 24.063 55.1451 23.4294 55.9267 23.4294C56.7083 23.4294 57.3419 24.063 57.3419 24.8446C57.3419 25.6262 56.7083 26.2598 55.9267 26.2598Z" fill="white"/>
<path d="M44.7799 58.4252H41.6745V54.5884H34.2355V58.4252H31.1301C30.4434 58.4252 29.8867 58.9819 29.8867 59.6686C29.8867 60.3553 30.4434 60.9119 31.1301 60.9119H44.7798C45.4665 60.9119 46.0232 60.3553 46.0232 59.6686C46.0232 58.9819 45.4666 58.4252 44.7799 58.4252Z" fill="white"/>
<path d="M49.9795 57.5064C49.9795 58.3012 50.6262 58.9478 51.421 58.9478H63.5653C64.3602 58.9478 65.0069 58.3011 65.0069 57.5064V56.2827H49.9795V57.5064Z" fill="white"/>
<path d="M63.5653 34.9341H51.421C50.6262 34.9341 49.9795 35.5807 49.9795 36.3755V53.7959H65.0069V36.3755C65.0069 35.5807 64.3601 34.9341 63.5653 34.9341ZM54.8237 42.3045C55.0734 42.9442 54.7571 43.6652 54.1175 43.9148C53.969 43.9727 53.8161 44.0002 53.6658 44.0002C53.1685 44.0002 52.6988 43.6997 52.5072 43.2086L51.5636 40.7904C51.4501 40.4998 51.4501 40.1771 51.5636 39.8865L52.5072 37.4685C52.7568 36.8288 53.4778 36.5125 54.1175 36.7622C54.7572 37.0118 55.0735 37.7328 54.8237 38.3725L54.0566 40.3385L54.8237 42.3045ZM59.1255 39.0503L58.3024 42.1225C58.1536 42.678 57.651 43.0443 57.1021 43.0443C56.9956 43.0443 56.8874 43.0306 56.7796 43.0017C56.1164 42.824 55.7227 42.1422 55.9003 41.4789L56.7235 38.4068C56.9012 37.7435 57.5831 37.3503 58.2462 37.5275C58.9095 37.7053 59.3032 38.3871 59.1255 39.0503ZM63.4227 40.7904L62.4791 43.2085C62.2875 43.6997 61.8178 44.0001 61.3205 44.0001C61.1701 44.0001 61.0173 43.9726 60.8688 43.9147C60.2291 43.6651 59.9128 42.9441 60.1626 42.3044L60.9297 40.3384L60.1626 38.3724C59.9129 37.7327 60.2291 37.0117 60.8688 36.7621C61.5085 36.5124 62.2295 36.8286 62.4791 37.4684L63.4227 39.8864C63.5362 40.1771 63.5362 40.4998 63.4227 40.7904Z" fill="white"/>
<path d="M58.9136 32.4464V29.9609H17V51.0388C17 51.6254 17.4755 52.1009 18.062 52.1009H47.4911V36.3746C47.4911 34.2051 49.2499 32.4464 51.4193 32.4464H58.9136ZM22.6853 37.6448C22.9215 38.1906 22.6704 38.8246 22.1246 39.0608C21.9853 39.1211 21.8402 39.1496 21.6976 39.1496C21.2811 39.1496 20.8846 38.9067 20.7087 38.5L19.7008 36.1706C19.5827 35.8977 19.5827 35.5881 19.7008 35.3153L20.7087 32.9858C20.945 32.44 21.5787 32.1891 22.1247 32.4251C22.6706 32.6613 22.9216 33.2953 22.6854 33.8412L21.8625 35.743L22.6853 37.6448ZM27.279 34.4986L26.3998 37.4583C26.2609 37.926 25.8323 38.2288 25.368 38.2288C25.2664 38.2288 25.1632 38.2144 25.0608 38.1839C24.4908 38.0145 24.1658 37.415 24.3352 36.8449L25.2144 33.8853C25.3838 33.3151 25.9832 32.9901 26.5534 33.1597C27.1235 33.3291 27.4483 33.9285 27.279 34.4986ZM31.8712 36.1706L30.8633 38.5C30.6874 38.9066 30.2908 39.1496 29.8744 39.1496C29.7317 39.1496 29.5866 39.121 29.4473 39.0608C28.9014 38.8246 28.6504 38.1906 28.8866 37.6448L29.7095 35.7429L28.8866 33.8411C28.6504 33.2952 28.9015 32.6612 29.4473 32.425C29.9934 32.1889 30.6271 32.44 30.8634 32.9857L31.8713 35.3152C31.9893 35.5881 31.9893 35.8977 31.8712 36.1706Z" fill="white"/>
</svg>
