<svg width="219" height="162" viewBox="0 0 219 162" fill="none" xmlns="http://www.w3.org/2000/svg">
<path opacity="0.6" d="M-829.742 706.112C-657.411 503.212 -286.989 588.296 -50.5445 325.132C185.9 61.9678 424.261 -143.481 581.863 -250.359C662.169 -304.817 757.776 -120.323 999.634 -121.014C1232.35 -121.672 1639.84 -293.436 1639.84 -293.436" stroke="url(#paint0_linear_858_8978)" stroke-width="1.99615" stroke-miterlimit="10"/>
<path opacity="0.6" d="M-821.859 708.891C-653.547 510.696 -288.842 581.783 -55.8274 324.556C-13.2701 277.614 33.5244 237.696 75.7287 194.767C130.409 139.009 177.843 80.8332 231.313 31.2761C305.431 -37.5249 378.54 -85.9471 442.283 -136.491C493.197 -176.837 538.933 -214.881 581.12 -243.138C661.728 -297.416 758.243 -109.763 1000.49 -112.428C1233.86 -115.06 1633.45 -292.942 1639.82 -292.219" stroke="url(#paint1_linear_858_8978)" stroke-width="1.99615" stroke-miterlimit="10"/>
<path opacity="0.6" d="M-813.969 711.671C-649.591 518.196 -290.804 575.319 -61.0857 323.998C-18.2761 277.154 32.9575 242.532 75.4476 199.833C130.078 144.602 170.954 80.9819 225.6 30.586C300.458 -38.6262 376.695 -75.0909 440.59 -125.421C491.958 -165.702 537.054 -207.216 580.385 -236.065C661.431 -290.014 758.618 -99.3348 1001.37 -103.973C1235.31 -108.611 1627.08 -292.514 1639.8 -291.099" stroke="url(#paint2_linear_858_8978)" stroke-width="1.99615" stroke-miterlimit="10"/>
<path opacity="0.6" d="M-806.086 714.451C-645.794 525.664 -292.657 568.872 -66.3854 323.356C-23.3236 276.694 32.349 247.384 75.1081 204.932C129.738 150.227 164.006 81.1629 219.897 29.8623C295.461 -39.7611 374.842 -64.2847 438.888 -114.286C490.71 -154.501 535.151 -199.551 579.642 -228.927C661.041 -282.645 759.102 -88.8576 1002.22 -95.4532C1236.88 -102.032 1620.67 -291.987 1639.78 -289.849" stroke="url(#paint3_linear_858_8978)" stroke-width="1.99615" stroke-miterlimit="10"/>
<path opacity="0.6" d="M-798.195 717.214C-641.905 533.18 -294.452 562.457 -71.6604 322.846C-28.3296 276.233 31.8661 252.351 74.7933 209.965C129.541 155.918 157.1 81.278 214.185 29.0399C290.489 -41.0111 372.997 -53.5608 437.195 -103.266C489.488 -143.415 533.239 -192.002 578.907 -221.887C660.642 -275.392 759.544 -78.4791 1003.1 -87.0155C1238.4 -95.5848 1614.27 -291.56 1639.76 -288.714" stroke="url(#paint4_linear_858_8978)" stroke-width="1.99615" stroke-miterlimit="10"/>
<path opacity="0.6" d="M-790.312 719.994C-638.041 540.713 -296.22 556.075 -76.9433 322.27C-33.3435 275.772 31.2912 257.219 74.4874 215.031C129.235 161.543 150.152 81.4254 208.482 28.3814C285.492 -42.0808 371.027 -42.821 435.477 -92.0656C488.106 -132.28 531.319 -184.288 578.13 -214.7C660.252 -267.974 759.961 -67.9367 1003.96 -78.4797C1239.93 -89.0063 1607.88 -291.034 1639.74 -287.465" stroke="url(#paint5_linear_858_8978)" stroke-width="1.99615" stroke-miterlimit="10"/>
<path opacity="0.6" d="M-782.43 722.774C-634.16 548.181 -297.939 549.727 -82.2262 321.711C-38.3573 275.328 30.7332 262.105 74.1481 220.113C128.913 167.102 143.255 81.5738 202.779 27.6581C280.495 -43.2153 369.157 -32.0144 433.809 -80.8971C486.892 -121.063 529.399 -176.59 577.421 -207.545C659.812 -260.605 760.396 -57.4427 1004.83 -69.9594C1241.44 -82.4597 1601.49 -290.524 1639.71 -286.247" stroke="url(#paint6_linear_858_8978)" stroke-width="1.99615" stroke-miterlimit="10"/>
<path opacity="0.6" d="M-774.562 725.537C-630.295 555.664 -299.622 543.41 -87.5247 321.119C-43.37 274.851 30.1763 266.956 73.8938 225.163C128.658 172.777 136.376 81.7217 197.11 26.9342C275.516 -44.3504 367.306 -21.2248 432.109 -69.7458C485.629 -109.878 527.463 -168.926 576.713 -200.374C659.456 -253.221 760.848 -46.9162 1005.72 -61.4067C1242.98 -75.8808 1595.13 -290.031 1639.72 -284.998" stroke="url(#paint7_linear_858_8978)" stroke-width="1.99615" stroke-miterlimit="10"/>
<path opacity="0.6" d="M-766.672 728.316C-626.406 563.164 -301.265 537.176 -92.7998 320.543C-48.3761 274.39 29.5924 271.824 73.5285 230.244C128.293 178.401 129.42 81.8692 191.364 26.2922C270.526 -45.4201 365.444 -10.3534 430.415 -58.6112C484.389 -98.6944 525.551 -161.278 575.944 -193.22C659.007 -245.853 761.256 -36.4231 1006.56 -52.8874C1244.47 -69.3351 1588.71 -289.456 1639.68 -283.765" stroke="url(#paint8_linear_858_8978)" stroke-width="1.99615" stroke-miterlimit="10"/>
<path opacity="0.6" d="M-758.789 731.097C-622.592 570.649 -302.866 530.845 -98.0827 319.903C-53.3731 273.849 29.0176 276.629 73.2227 235.246C127.971 183.945 122.624 82.068 185.644 25.4219C265.698 -46.5371 363.574 0.306114 428.713 -47.6227C483.125 -87.6565 523.631 -153.777 575.201 -186.228C658.584 -238.696 761.673 -26.0925 1007.42 -44.5305C1245.98 -62.952 1582.32 -289.109 1639.64 -282.711" stroke="url(#paint9_linear_858_8978)" stroke-width="1.99615" stroke-miterlimit="10"/>
<path opacity="0.6" d="M-750.898 733.876C-618.653 578.149 -304.425 524.611 -103.358 319.393C-58.3623 273.471 28.4506 281.563 72.908 240.443C127.673 189.702 115.717 82.364 179.949 24.8297C260.658 -47.5404 361.73 11.2439 427.02 -36.356C481.886 -76.4227 521.702 -146.079 574.499 -179.04C658.202 -231.328 762.148 -15.5495 1008.31 -35.9448C1247.5 -56.3564 1575.93 -288.5 1639.63 -281.428" stroke="url(#paint10_linear_858_8978)" stroke-width="1.99615" stroke-miterlimit="10"/>
<path opacity="0.6" d="M-743.016 736.639C-614.772 585.648 -305.941 518.41 -108.641 318.866C-63.3594 273.059 27.8758 286.48 72.5853 245.492C127.333 195.244 108.736 82.4456 174.313 24.0067C255.812 -48.7582 359.944 21.9507 425.403 -25.3366C480.722 -65.2882 519.849 -138.481 573.807 -171.936C657.879 -224.042 762.616 -5.08939 1009.3 -27.4912C1249.16 -49.8602 1569.68 -288.09 1639.84 -280.26" stroke="url(#paint11_linear_858_8978)" stroke-width="1.99615" stroke-miterlimit="10"/>
<path opacity="0.6" d="M-735.125 739.484C-610.917 593.098 -307.416 512.241 -113.916 318.24C-68.3487 272.548 27.3254 291.299 72.2872 250.508C127.018 200.852 101.897 82.6094 168.533 23.3152C250.756 -49.8609 358.015 32.7891 423.642 -14.1693C479.398 -54.0716 517.802 -130.817 572.987 -164.781C657.312 -216.707 762.99 5.42001 1010.03 -18.9391C1250.47 -43.2818 1563.22 -287.564 1639.59 -279.011" stroke="url(#paint12_linear_858_8978)" stroke-width="1.99615" stroke-miterlimit="10"/>
<path opacity="0.6" d="M-727.242 742.199C-607.019 600.633 -308.865 506.108 -119.199 317.666C-73.3457 272.106 26.7339 296.169 71.9647 255.576C126.696 206.463 94.9668 82.759 162.763 22.5766C245.708 -50.9942 356.129 43.5968 421.873 -3.04902C478.067 -42.9019 515.832 -123.118 572.177 -157.658C656.888 -209.403 763.391 15.8988 1010.88 -10.4341C1252.12 -36.7505 1556.75 -287.053 1639.56 -277.809" stroke="url(#paint13_linear_858_8978)" stroke-width="1.99615" stroke-miterlimit="10"/>
<path opacity="0.6" d="M-719.359 744.963C-603.155 608.117 -310.264 500.006 -124.482 317.091C-78.326 271.645 26.1421 301.038 71.6419 260.642C126.373 212.072 88.0529 82.9073 157.11 21.8532C240.795 -52.1618 354.293 54.4033 420.239 8.08638C476.887 -31.7172 513.962 -115.551 571.569 -150.503C656.498 -202.1 763.875 26.3763 1011.82 -1.93033C1253.63 -30.2205 1550.42 -286.477 1639.6 -276.608" stroke="url(#paint14_linear_858_8978)" stroke-width="1.99615" stroke-miterlimit="10"/>
<path opacity="0.6" d="M-711.469 747.707C-599.266 615.615 -311.622 493.918 -129.757 316.513C-83.2984 271.183 25.575 305.888 71.3271 265.722C126.041 217.678 81.1468 83.1521 151.414 21.1276C235.806 -53.2492 352.448 65.2076 418.545 19.2032C475.714 -20.5346 512.033 -107.938 570.766 -143.383C655.998 -194.749 764.25 36.8516 1012.62 6.57129C1255.08 -23.6926 1543.97 -286.067 1639.53 -275.343" stroke="url(#paint15_linear_858_8978)" stroke-width="1.99615" stroke-miterlimit="10"/>
<path opacity="0.6" d="M-703.586 750.521C-595.385 623.117 -312.97 487.834 -135.073 315.938C-88.2786 270.723 24.9834 310.757 71.0214 270.723C125.702 223.222 74.2329 83.2186 145.694 20.3388C230.826 -54.4492 350.595 75.9487 416.844 30.2075C474.4 -9.48097 510.097 -100.437 570.023 -136.375C655.542 -187.66 764.667 47.198 1013.49 14.944C1256.59 -17.1127 1537.58 -285.573 1639.51 -274.191" stroke="url(#paint16_linear_858_8978)" stroke-width="1.99615" stroke-miterlimit="10"/>
<path opacity="0.6" d="M-695.719 753.3C-591.469 630.6 -314.267 481.912 -140.338 315.362C-93.2577 270.295 24.4434 315.625 70.6999 275.888C125.38 228.913 67.337 83.4487 139.992 19.7136C225.746 -55.502 348.743 86.8699 415.144 41.4905C473.17 1.85138 508.144 -92.6575 569.298 -129.089C655.052 -180.209 765.102 57.8396 1014.34 23.6118C1258.15 -10.5996 1531.18 -285.047 1639.47 -272.941" stroke="url(#paint17_linear_858_8978)" stroke-width="1.99615" stroke-miterlimit="10"/>
<path opacity="0.6" d="M-687.836 756.064C-587.639 638.1 -315.514 475.892 -145.621 314.787C-98.221 269.851 23.8182 320.477 70.3773 280.921C125.041 234.489 60.3896 83.5474 134.272 18.957C220.816 -56.7027 346.874 97.6431 413.392 52.5927C471.872 13.0029 506.157 -85.0751 568.505 -121.984C654.595 -172.972 765.469 68.2839 1015.16 32.0823C1259.56 -4.10273 1524.74 -284.586 1639.4 -271.774" stroke="url(#paint18_linear_858_8978)" stroke-width="1.99615" stroke-miterlimit="10"/>
<path opacity="0.6" d="M-679.859 758.844C-583.681 645.601 -316.668 469.939 -150.81 314.211C-103.124 269.407 23.2362 325.33 70.0644 285.987C124.694 240.081 53.4685 83.6794 128.562 18.2337C215.845 -57.8043 345.031 108.466 411.75 63.7118C470.601 24.2371 504.23 -77.4758 567.805 -114.862C654.181 -165.685 765.946 78.7615 1016.06 40.5862C1261.11 2.44384 1518.38 -284.076 1639.42 -270.556" stroke="url(#paint19_linear_858_8978)" stroke-width="1.99615" stroke-miterlimit="10"/>
<path opacity="0.6" d="M-672.055 761.622C-579.878 653.067 -317.909 464.016 -156.171 313.635C-108.166 268.962 22.6504 330.181 69.7644 291.052C124.378 245.689 46.5605 83.8099 122.881 17.509C210.871 -58.9402 343.15 119.271 410.072 74.8459C469.443 35.3713 502.333 -69.8944 567.085 -107.724C653.746 -158.4 766.386 89.2377 1016.96 49.0887C1262.65 8.9726 1512.01 -283.567 1639.43 -269.356" stroke="url(#paint20_linear_858_8978)" stroke-width="1.99615" stroke-miterlimit="10"/>
<path opacity="0.6" d="M-664.172 764.402C-576.014 660.584 -319.056 458.128 -161.42 313.059C-113.045 268.535 22.0924 335.05 69.4755 296.118C124.072 251.281 39.6803 83.9417 117.195 16.7855C205.908 -60.0914 341.382 130.094 408.404 85.9648C468.247 46.5724 500.413 -62.246 566.376 -100.586C653.289 -151.13 766.82 99.6658 1017.81 57.6088C1264.16 15.5025 1505.61 -283.09 1639.39 -268.057" stroke="url(#paint21_linear_858_8978)" stroke-width="1.99615" stroke-miterlimit="10"/>
<path opacity="0.6" d="M-656.32 767.166C-572.248 668.068 -320.2 452.273 -166.768 312.484C-118.006 268.075 21.4359 339.902 69.088 301.184C123.651 256.874 32.6848 84.0736 111.427 16.0621C200.846 -61.2424 339.464 140.917 406.638 97.1002C466.934 57.7572 498.394 -54.6468 565.568 -93.4635C652.801 -143.859 767.207 110.193 1018.65 66.0798C1265.64 21.9998 1499.19 -282.613 1639.34 -266.971" stroke="url(#paint22_linear_858_8978)" stroke-width="1.99615" stroke-miterlimit="10"/>
<path opacity="0.6" d="M-648.398 769.946C-568.261 675.568 -321.257 446.451 -172.062 311.843C-122.998 267.615 20.8328 344.738 68.7708 306.201C123.3 262.401 25.7594 84.1562 105.763 15.273C195.905 -62.4263 337.667 151.674 405.059 108.153C465.827 68.8762 496.564 -47.1134 564.948 -86.3907C652.467 -136.671 767.764 120.604 1019.63 74.5507C1267.25 28.5627 1492.84 -282.103 1639.36 -265.721" stroke="url(#paint23_linear_858_8978)" stroke-width="1.99615" stroke-miterlimit="10"/>
<path opacity="0.6" d="M-640.516 772.725C-564.38 683.069 -322.302 440.661 -177.295 311.333C-127.877 267.269 20.2916 349.59 68.4986 311.333C123.011 268.059 18.8792 84.3535 100.042 14.6149C190.84 -63.5119 335.814 162.645 403.274 119.354C464.495 80.1429 494.526 -39.4489 564.121 -79.2031C651.842 -129.336 768.097 131.147 1020.41 83.1199C1268.71 35.0924 1486.44 -281.593 1639.32 -264.52" stroke="url(#paint24_linear_858_8978)" stroke-width="1.99615" stroke-miterlimit="10"/>
<path opacity="0.6" d="M-632.625 775.488C-560.491 690.551 -323.239 434.904 -182.57 310.756C-132.799 266.857 19.7078 354.441 68.1838 316.398C122.663 273.633 11.9563 84.4842 94.347 13.8904C185.918 -64.6477 333.986 173.434 401.58 130.472C463.273 91.3264 492.58 -31.8509 563.386 -72.0657C651.46 -122.083 768.522 141.624 1021.28 91.6225C1270.23 41.6377 1480.06 -281.1 1639.31 -263.304" stroke="url(#paint25_linear_858_8978)" stroke-width="1.99615" stroke-miterlimit="10"/>
<path opacity="0.6" d="M-624.742 778.269C-556.627 698.053 -324.285 429.181 -187.853 310.198C-137.712 266.447 19.0993 359.295 67.878 321.465C122.323 279.227 5.04248 84.6171 88.627 13.168C180.921 -65.7813 332.134 184.225 399.896 141.609C462.025 102.529 490.61 -24.2507 562.643 -64.926C650.986 -114.829 768.956 152.184 1022.15 100.127C1271.74 48.1688 1473.67 -280.606 1639.24 -262.102" stroke="url(#paint26_linear_858_8978)" stroke-width="1.99615" stroke-miterlimit="10"/>
<path opacity="0.6" d="M-616.875 781.048C-552.745 705.536 -325.229 423.49 -193.151 309.622C-142.624 266.052 18.5088 364.13 67.4724 326.531C121.884 284.819 -1.97119 84.7485 82.8408 12.3783C175.841 -66.9986 330.215 194.948 398.111 152.678C460.712 113.664 488.573 -16.7342 561.817 -57.8536C650.446 -107.625 769.29 162.546 1022.92 108.581C1273.25 54.6984 1467.34 -280.112 1639.27 -260.901" stroke="url(#paint27_linear_858_8978)" stroke-width="1.99615" stroke-miterlimit="10"/>
<path opacity="0.6" d="M-608.992 783.893C-548.881 713.168 -326.157 417.898 -198.434 309.112C-147.52 265.674 17.9339 368.982 67.2338 331.58C121.612 290.46 -8.96924 84.8633 77.2215 11.7037C170.76 -68.2653 328.446 205.787 396.494 163.862C459.565 124.914 486.703 -9.08627 561.158 -50.6662C650.056 -100.322 769.808 173.023 1023.87 117.101C1274.76 61.1786 1460.86 -279.652 1639.28 -259.717" stroke="url(#paint28_linear_858_8978)" stroke-width="1.99615" stroke-miterlimit="10"/>
<path opacity="0.6" d="M-601.102 786.591C-544.992 720.537 -327.026 412.174 -203.709 308.553C-152.392 265.378 17.3164 373.9 67.0031 336.745C121.347 296.053 -15.7912 85.0938 71.5934 11.0788C165.872 -69.3014 326.702 216.791 394.884 175.079C458.409 136.213 484.825 -1.38855 560.507 -43.4455C649.623 -92.9697 770.317 183.632 1024.82 125.736C1276.28 67.7578 1454.48 -279.125 1639.22 -258.484" stroke="url(#paint29_linear_858_8978)" stroke-width="1.99615" stroke-miterlimit="10"/>
<path opacity="0.6" d="M-593.211 789.369C-541.12 727.97 -327.879 406.63 -209.052 307.894C-157.33 264.933 16.6486 378.62 66.5539 341.727C120.848 301.562 -22.8485 85.1421 65.7467 10.2554C160.731 -70.536 324.689 227.53 393.04 186.115C457.035 147.315 482.728 6.09417 559.62 -36.4068C649.056 -85.8324 770.608 194.01 1025.55 134.156C1277.76 74.2866 1448.03 -278.682 1639.14 -257.3" stroke="url(#paint30_linear_858_8978)" stroke-width="1.99615" stroke-miterlimit="10"/>
<path opacity="0.6" d="M-585.328 792.118C-537.239 735.488 -328.706 401.039 -214.267 307.287C-162.143 264.523 16.0904 383.456 66.2983 346.762C120.558 307.09 -29.7121 85.2421 60.0938 9.48366C155.818 -71.7189 322.937 238.321 391.338 197.186C455.805 158.468 480.757 13.6121 558.877 -29.3166C648.599 -78.6599 771.025 204.439 1026.32 142.612C1279.17 80.7682 1441.63 -278.171 1639.04 -256.115" stroke="url(#paint31_linear_858_8978)" stroke-width="1.99615" stroke-miterlimit="10"/>
<path opacity="0.6" d="M-577.445 794.914C-533.358 743.021 -329.516 395.546 -219.55 306.744C-166.955 264.276 15.5157 388.325 65.9758 351.877C120.202 312.698 -36.5922 85.4231 54.3907 8.8094C150.771 -72.8209 321.101 249.193 389.704 208.37C454.641 169.718 478.821 21.2439 558.202 -22.1453C648.192 -71.3405 771.526 214.966 1027.32 151.165C1280.84 87.3639 1435.39 -277.628 1639.15 -254.848" stroke="url(#paint32_linear_858_8978)" stroke-width="1.99615" stroke-miterlimit="10"/>
<path opacity="0.6" d="M-569.555 797.694C-529.486 750.506 -330.268 390.053 -224.859 306.169C-171.809 263.964 14.8814 393.161 65.6441 356.943C119.82 318.275 -43.5656 85.5554 48.6616 8.08642C145.832 -73.955 319.273 260.033 388.027 219.49C453.435 180.92 476.976 28.827 557.466 -15.0063C647.726 -64.1028 771.951 225.444 1028.27 159.669C1282.42 93.878 1428.99 -277.134 1639.21 -253.647" stroke="url(#paint33_linear_858_8978)" stroke-width="1.99615" stroke-miterlimit="10"/>
<path opacity="0.6" d="M-561.672 800.473C-525.605 758.005 -331.028 384.608 -230.108 305.593C-176.588 263.684 14.3065 397.996 65.3551 362.009C119.498 323.85 -50.4627 85.6862 42.9751 7.36196C140.852 -75.0907 317.437 270.872 386.326 230.624C452.188 192.136 474.921 36.3922 556.723 -7.86868C647.252 -56.8501 772.385 235.937 1029.07 168.122C1283.86 100.374 1422.53 -276.691 1639.12 -252.48" stroke="url(#paint34_linear_858_8978)" stroke-width="1.99615" stroke-miterlimit="10"/>
<path opacity="0.6" d="M-553.75 803.252C-521.803 765.488 -331.8 379.179 -235.386 305.016C-181.378 263.436 13.7035 402.814 65.0211 367.073C119.13 329.408 -57.388 85.8166 37.2605 6.63705C135.86 -76.2268 315.556 281.709 384.63 241.741C450.963 203.287 472.956 43.957 556.003 -0.665762C646.8 -49.5485 772.909 246.478 1029.95 176.756C1285.4 107.034 1416.14 -276.067 1639.12 -251.149" stroke="url(#paint35_linear_858_8978)" stroke-width="1.99615" stroke-miterlimit="10"/>
<path opacity="0.6" d="M-545.914 806.015C-517.851 772.988 -332.371 373.801 -240.665 304.359C-186.136 263.141 13.0986 407.568 64.7189 372.058C118.828 334.984 -64.2982 85.9817 31.5608 5.91397C130.867 -77.3775 313.774 292.549 382.982 252.877C449.786 214.554 471.04 51.5236 555.297 6.39094C646.296 -42.3931 773.245 256.874 1030.81 185.195C1286.89 113.499 1409.74 -275.622 1639.07 -250.013" stroke="url(#paint36_linear_858_8978)" stroke-width="1.99615" stroke-miterlimit="10"/>
<path opacity="0.6" d="M-538.031 808.796C-513.987 780.489 -333.131 368.456 -245.965 303.85C-190.864 263.026 12.4733 412.405 64.4131 377.19C118.421 340.528 -71.2121 86.0648 25.8576 5.17465C125.887 -78.528 311.938 303.373 381.231 263.98C448.488 225.739 469.019 59.074 554.503 13.4972C645.823 -35.2046 773.663 267.434 1031.66 193.682C1288.4 120.013 1403.35 -275.079 1639.05 -248.762" stroke="url(#paint37_linear_858_8978)" stroke-width="1.99615" stroke-miterlimit="10"/>
<path opacity="0.6" d="M-530.219 811.575C-510.041 787.972 -333.793 363.159 -251.25 303.289C-195.578 262.91 11.8618 417.289 64.0874 382.239C118.045 346.054 -78.1459 86.1789 20.1513 4.41709C120.887 -79.6145 310.099 314.244 379.526 275.131C447.271 236.972 467.045 66.6554 553.757 20.7168C645.346 -27.8699 774.026 277.894 1032.53 202.251C1289.91 126.591 1396.95 -274.586 1639.03 -247.546" stroke="url(#paint38_linear_858_8978)" stroke-width="1.99615" stroke-miterlimit="10"/>
<path opacity="0.6" d="M-522.258 814.338C-506.217 795.406 -334.424 357.896 -256.523 302.714C-200.228 262.844 11.2137 422.042 63.7756 387.354C117.699 351.662 -85.0489 86.3596 14.4421 3.7425C115.9 -80.7826 308.342 325.198 377.768 286.249C446.052 248.288 465.018 74.2047 552.958 27.7727C644.882 -20.7153 774.589 288.305 1033.4 210.688C1291.43 133.088 1390.57 -274.159 1639 -246.395" stroke="url(#paint39_linear_858_8978)" stroke-width="1.99615" stroke-miterlimit="10"/>
<path opacity="0.6" d="M-514.367 817.116C-502.345 802.971 -335.058 352.665 -261.798 302.137C-204.847 262.86 10.6466 426.976 63.4776 392.435C117.284 357.237 -91.9719 86.5068 8.74659 3.03445C110.928 -81.9182 306.497 336.019 376.092 297.384C444.846 259.554 462.972 81.6054 552.24 34.9102C644.265 -13.6436 774.896 298.782 1034.23 219.207C1292.97 139.617 1384.18 -273.699 1638.99 -245.195" stroke="url(#paint40_linear_858_8978)" stroke-width="1.99615" stroke-miterlimit="10"/>
<path opacity="0.6" d="M-506.484 819.898C-498.464 810.457 -335.7 347.501 -267.08 301.563C-209.407 262.96 9.98776 431.665 63.155 397.486C116.961 362.699 -98.8857 86.7221 3.02662 2.27926C105.931 -83.0682 304.644 346.827 374.407 308.553C443.598 270.723 461.018 89.255 551.497 42.0993C643.808 -6.32291 775.33 309.31 1035.08 227.762C1294.48 146.148 1377.79 -273.155 1638.97 -243.977" stroke="url(#paint41_linear_858_8978)" stroke-width="1.99615" stroke-miterlimit="10"/>
<path opacity="0.6" d="M-498.602 822.677C-494.6 817.957 -336.325 342.402 -272.363 300.987C-213.9 263.157 9.39612 436.5 62.8324 402.552C116.639 368.291 -105.8 86.87 -2.7439 1.5554C100.951 -84.2032 302.791 357.649 372.722 319.639C442.368 281.809 459.098 96.8208 550.787 49.1717C643.435 0.979724 775.798 319.754 1036 236.183C1296.2 152.612 1371.4 -272.662 1638.95 -242.776" stroke="url(#paint42_linear_858_8978)" stroke-width="1.99615" stroke-miterlimit="10"/>
<path opacity="0.6" d="M-490.711 825.44C-490.711 825.44 -336.96 337.287 -277.638 300.411C-218.317 263.535 8.81221 441.352 62.5343 407.617C116.256 373.883 -112.722 87.0174 -8.37211 0.831137C95.9783 -85.3552 300.946 368.472 371.046 330.757C441.145 293.042 457.169 104.419 550.069 56.3094C642.968 8.19973 776.273 330.231 1036.9 244.719C1297.52 159.207 1365 -272.169 1638.85 -241.56" stroke="url(#paint43_linear_858_8978)" stroke-width="1.99615" stroke-miterlimit="10"/>
<defs>
<linearGradient id="paint0_linear_858_8978" x1="405.051" y1="-293.436" x2="405.051" y2="706.112" gradientUnits="userSpaceOnUse">
<stop stop-color="#067DE1"/>
<stop offset="0.9998" stop-color="white"/>
<stop offset="0.9999" stop-color="#FF007A"/>
<stop offset="1" stop-color="white"/>
</linearGradient>
<linearGradient id="paint1_linear_858_8978" x1="408.982" y1="-292.221" x2="408.982" y2="708.891" gradientUnits="userSpaceOnUse">
<stop stop-color="#067DE1"/>
<stop offset="0.9998" stop-color="white"/>
<stop offset="0.9999" stop-color="#FF007A"/>
<stop offset="1" stop-color="white"/>
</linearGradient>
<linearGradient id="paint2_linear_858_8978" x1="412.913" y1="-291.107" x2="412.913" y2="711.671" gradientUnits="userSpaceOnUse">
<stop stop-color="#067DE1"/>
<stop offset="0.9998" stop-color="white"/>
<stop offset="0.9999" stop-color="#FF007A"/>
<stop offset="1" stop-color="white"/>
</linearGradient>
<linearGradient id="paint3_linear_858_8978" x1="416.845" y1="-289.867" x2="416.845" y2="714.451" gradientUnits="userSpaceOnUse">
<stop stop-color="#067DE1"/>
<stop offset="0.9998" stop-color="white"/>
<stop offset="0.9999" stop-color="#FF007A"/>
<stop offset="1" stop-color="white"/>
</linearGradient>
<linearGradient id="paint4_linear_858_8978" x1="420.784" y1="-288.745" x2="420.784" y2="717.214" gradientUnits="userSpaceOnUse">
<stop stop-color="#067DE1"/>
<stop offset="0.9998" stop-color="white"/>
<stop offset="0.9999" stop-color="#FF007A"/>
<stop offset="1" stop-color="white"/>
</linearGradient>
<linearGradient id="paint5_linear_858_8978" x1="424.715" y1="-287.512" x2="424.715" y2="719.993" gradientUnits="userSpaceOnUse">
<stop stop-color="#067DE1"/>
<stop offset="0.9998" stop-color="white"/>
<stop offset="0.9999" stop-color="#FF007A"/>
<stop offset="1" stop-color="white"/>
</linearGradient>
<linearGradient id="paint6_linear_858_8978" x1="428.638" y1="-286.312" x2="428.638" y2="722.774" gradientUnits="userSpaceOnUse">
<stop stop-color="#067DE1"/>
<stop offset="0.9998" stop-color="white"/>
<stop offset="0.9999" stop-color="#FF007A"/>
<stop offset="1" stop-color="white"/>
</linearGradient>
<linearGradient id="paint7_linear_858_8978" x1="432.579" y1="-285.085" x2="432.579" y2="725.537" gradientUnits="userSpaceOnUse">
<stop stop-color="#067DE1"/>
<stop offset="0.9998" stop-color="white"/>
<stop offset="0.9999" stop-color="#FF007A"/>
<stop offset="1" stop-color="white"/>
</linearGradient>
<linearGradient id="paint8_linear_858_8978" x1="436.502" y1="-283.873" x2="436.502" y2="728.316" gradientUnits="userSpaceOnUse">
<stop stop-color="#067DE1"/>
<stop offset="0.9998" stop-color="white"/>
<stop offset="0.9999" stop-color="#FF007A"/>
<stop offset="1" stop-color="white"/>
</linearGradient>
<linearGradient id="paint9_linear_858_8978" x1="440.425" y1="-282.844" x2="440.425" y2="731.097" gradientUnits="userSpaceOnUse">
<stop stop-color="#067DE1"/>
<stop offset="0.9998" stop-color="white"/>
<stop offset="0.9999" stop-color="#FF007A"/>
<stop offset="1" stop-color="white"/>
</linearGradient>
<linearGradient id="paint10_linear_858_8978" x1="444.364" y1="-281.586" x2="444.364" y2="733.876" gradientUnits="userSpaceOnUse">
<stop stop-color="#067DE1"/>
<stop offset="0.9998" stop-color="white"/>
<stop offset="0.9999" stop-color="#FF007A"/>
<stop offset="1" stop-color="white"/>
</linearGradient>
<linearGradient id="paint11_linear_858_8978" x1="448.413" y1="-280.449" x2="448.413" y2="736.639" gradientUnits="userSpaceOnUse">
<stop stop-color="#067DE1"/>
<stop offset="0.9998" stop-color="white"/>
<stop offset="0.9999" stop-color="#FF007A"/>
<stop offset="1" stop-color="white"/>
</linearGradient>
<linearGradient id="paint12_linear_858_8978" x1="452.234" y1="-279.23" x2="452.234" y2="739.484" gradientUnits="userSpaceOnUse">
<stop stop-color="#067DE1"/>
<stop offset="0.9998" stop-color="white"/>
<stop offset="0.9999" stop-color="#FF007A"/>
<stop offset="1" stop-color="white"/>
</linearGradient>
<linearGradient id="paint13_linear_858_8978" x1="456.158" y1="-278.059" x2="456.158" y2="742.199" gradientUnits="userSpaceOnUse">
<stop stop-color="#067DE1"/>
<stop offset="0.9998" stop-color="white"/>
<stop offset="0.9999" stop-color="#FF007A"/>
<stop offset="1" stop-color="white"/>
</linearGradient>
<linearGradient id="paint14_linear_858_8978" x1="460.123" y1="-276.886" x2="460.123" y2="744.963" gradientUnits="userSpaceOnUse">
<stop stop-color="#067DE1"/>
<stop offset="0.9998" stop-color="white"/>
<stop offset="0.9999" stop-color="#FF007A"/>
<stop offset="1" stop-color="white"/>
</linearGradient>
<linearGradient id="paint15_linear_858_8978" x1="464.028" y1="-275.663" x2="464.028" y2="747.707" gradientUnits="userSpaceOnUse">
<stop stop-color="#067DE1"/>
<stop offset="0.9998" stop-color="white"/>
<stop offset="0.9999" stop-color="#FF007A"/>
<stop offset="1" stop-color="white"/>
</linearGradient>
<linearGradient id="paint16_linear_858_8978" x1="467.96" y1="-274.543" x2="467.96" y2="750.521" gradientUnits="userSpaceOnUse">
<stop stop-color="#067DE1"/>
<stop offset="0.9998" stop-color="white"/>
<stop offset="0.9999" stop-color="#FF007A"/>
<stop offset="1" stop-color="white"/>
</linearGradient>
<linearGradient id="paint17_linear_858_8978" x1="471.875" y1="-273.33" x2="471.875" y2="753.3" gradientUnits="userSpaceOnUse">
<stop stop-color="#067DE1"/>
<stop offset="0.9998" stop-color="white"/>
<stop offset="0.9999" stop-color="#FF007A"/>
<stop offset="1" stop-color="white"/>
</linearGradient>
<linearGradient id="paint18_linear_858_8978" x1="475.782" y1="-272.199" x2="475.782" y2="756.064" gradientUnits="userSpaceOnUse">
<stop stop-color="#067DE1"/>
<stop offset="0.9998" stop-color="white"/>
<stop offset="0.9999" stop-color="#FF007A"/>
<stop offset="1" stop-color="white"/>
</linearGradient>
<linearGradient id="paint19_linear_858_8978" x1="479.782" y1="-271.02" x2="479.782" y2="758.844" gradientUnits="userSpaceOnUse">
<stop stop-color="#067DE1"/>
<stop offset="0.9998" stop-color="white"/>
<stop offset="0.9999" stop-color="#FF007A"/>
<stop offset="1" stop-color="white"/>
</linearGradient>
<linearGradient id="paint20_linear_858_8978" x1="483.685" y1="-269.857" x2="483.685" y2="761.622" gradientUnits="userSpaceOnUse">
<stop stop-color="#067DE1"/>
<stop offset="0.9998" stop-color="white"/>
<stop offset="0.9999" stop-color="#FF007A"/>
<stop offset="1" stop-color="white"/>
</linearGradient>
<linearGradient id="paint21_linear_858_8978" x1="487.608" y1="-268.605" x2="487.608" y2="764.402" gradientUnits="userSpaceOnUse">
<stop stop-color="#067DE1"/>
<stop offset="0.9998" stop-color="white"/>
<stop offset="0.9999" stop-color="#FF007A"/>
<stop offset="1" stop-color="white"/>
</linearGradient>
<linearGradient id="paint22_linear_858_8978" x1="491.509" y1="-267.553" x2="491.509" y2="767.166" gradientUnits="userSpaceOnUse">
<stop stop-color="#067DE1"/>
<stop offset="0.9998" stop-color="white"/>
<stop offset="0.9999" stop-color="#FF007A"/>
<stop offset="1" stop-color="white"/>
</linearGradient>
<linearGradient id="paint23_linear_858_8978" x1="495.479" y1="-266.346" x2="495.479" y2="769.946" gradientUnits="userSpaceOnUse">
<stop stop-color="#067DE1"/>
<stop offset="0.9998" stop-color="white"/>
<stop offset="0.9999" stop-color="#FF007A"/>
<stop offset="1" stop-color="white"/>
</linearGradient>
<linearGradient id="paint24_linear_858_8978" x1="499.402" y1="-265.186" x2="499.402" y2="772.725" gradientUnits="userSpaceOnUse">
<stop stop-color="#067DE1"/>
<stop offset="0.9998" stop-color="white"/>
<stop offset="0.9999" stop-color="#FF007A"/>
<stop offset="1" stop-color="white"/>
</linearGradient>
<linearGradient id="paint25_linear_858_8978" x1="503.341" y1="-264.013" x2="503.341" y2="775.488" gradientUnits="userSpaceOnUse">
<stop stop-color="#067DE1"/>
<stop offset="0.9998" stop-color="white"/>
<stop offset="0.9999" stop-color="#FF007A"/>
<stop offset="1" stop-color="white"/>
</linearGradient>
<linearGradient id="paint26_linear_858_8978" x1="507.248" y1="-262.854" x2="507.248" y2="778.269" gradientUnits="userSpaceOnUse">
<stop stop-color="#067DE1"/>
<stop offset="0.9998" stop-color="white"/>
<stop offset="0.9999" stop-color="#FF007A"/>
<stop offset="1" stop-color="white"/>
</linearGradient>
<linearGradient id="paint27_linear_858_8978" x1="511.197" y1="-261.696" x2="511.197" y2="781.048" gradientUnits="userSpaceOnUse">
<stop stop-color="#067DE1"/>
<stop offset="0.9998" stop-color="white"/>
<stop offset="0.9999" stop-color="#FF007A"/>
<stop offset="1" stop-color="white"/>
</linearGradient>
<linearGradient id="paint28_linear_858_8978" x1="515.145" y1="-260.558" x2="515.145" y2="783.893" gradientUnits="userSpaceOnUse">
<stop stop-color="#067DE1"/>
<stop offset="0.9998" stop-color="white"/>
<stop offset="0.9999" stop-color="#FF007A"/>
<stop offset="1" stop-color="white"/>
</linearGradient>
<linearGradient id="paint29_linear_858_8978" x1="519.059" y1="-259.368" x2="519.059" y2="786.591" gradientUnits="userSpaceOnUse">
<stop stop-color="#067DE1"/>
<stop offset="0.9998" stop-color="white"/>
<stop offset="0.9999" stop-color="#FF007A"/>
<stop offset="1" stop-color="white"/>
</linearGradient>
<linearGradient id="paint30_linear_858_8978" x1="522.965" y1="-258.232" x2="522.965" y2="789.37" gradientUnits="userSpaceOnUse">
<stop stop-color="#067DE1"/>
<stop offset="0.9998" stop-color="white"/>
<stop offset="0.9999" stop-color="#FF007A"/>
<stop offset="1" stop-color="white"/>
</linearGradient>
<linearGradient id="paint31_linear_858_8978" x1="526.854" y1="-257.09" x2="526.854" y2="792.118" gradientUnits="userSpaceOnUse">
<stop stop-color="#067DE1"/>
<stop offset="0.9998" stop-color="white"/>
<stop offset="0.9999" stop-color="#FF007A"/>
<stop offset="1" stop-color="white"/>
</linearGradient>
<linearGradient id="paint32_linear_858_8978" x1="530.853" y1="-255.87" x2="530.853" y2="794.914" gradientUnits="userSpaceOnUse">
<stop stop-color="#067DE1"/>
<stop offset="0.9998" stop-color="white"/>
<stop offset="0.9999" stop-color="#FF007A"/>
<stop offset="1" stop-color="white"/>
</linearGradient>
<linearGradient id="paint33_linear_858_8978" x1="534.826" y1="-254.715" x2="534.826" y2="797.694" gradientUnits="userSpaceOnUse">
<stop stop-color="#067DE1"/>
<stop offset="0.9998" stop-color="white"/>
<stop offset="0.9999" stop-color="#FF007A"/>
<stop offset="1" stop-color="white"/>
</linearGradient>
<linearGradient id="paint34_linear_858_8978" x1="538.723" y1="-253.596" x2="538.723" y2="800.473" gradientUnits="userSpaceOnUse">
<stop stop-color="#067DE1"/>
<stop offset="0.9998" stop-color="white"/>
<stop offset="0.9999" stop-color="#FF007A"/>
<stop offset="1" stop-color="white"/>
</linearGradient>
<linearGradient id="paint35_linear_858_8978" x1="542.686" y1="-252.312" x2="542.686" y2="803.252" gradientUnits="userSpaceOnUse">
<stop stop-color="#067DE1"/>
<stop offset="0.9998" stop-color="white"/>
<stop offset="0.9999" stop-color="#FF007A"/>
<stop offset="1" stop-color="white"/>
</linearGradient>
<linearGradient id="paint36_linear_858_8978" x1="546.578" y1="-251.222" x2="546.578" y2="806.015" gradientUnits="userSpaceOnUse">
<stop stop-color="#067DE1"/>
<stop offset="0.9998" stop-color="white"/>
<stop offset="0.9999" stop-color="#FF007A"/>
<stop offset="1" stop-color="white"/>
</linearGradient>
<linearGradient id="paint37_linear_858_8978" x1="550.51" y1="-250.019" x2="550.51" y2="808.796" gradientUnits="userSpaceOnUse">
<stop stop-color="#067DE1"/>
<stop offset="0.9998" stop-color="white"/>
<stop offset="0.9999" stop-color="#FF007A"/>
<stop offset="1" stop-color="white"/>
</linearGradient>
<linearGradient id="paint38_linear_858_8978" x1="554.405" y1="-248.852" x2="554.405" y2="811.575" gradientUnits="userSpaceOnUse">
<stop stop-color="#067DE1"/>
<stop offset="0.9998" stop-color="white"/>
<stop offset="0.9999" stop-color="#FF007A"/>
<stop offset="1" stop-color="white"/>
</linearGradient>
<linearGradient id="paint39_linear_858_8978" x1="558.372" y1="-247.75" x2="558.372" y2="814.338" gradientUnits="userSpaceOnUse">
<stop stop-color="#067DE1"/>
<stop offset="0.9998" stop-color="white"/>
<stop offset="0.9999" stop-color="#FF007A"/>
<stop offset="1" stop-color="white"/>
</linearGradient>
<linearGradient id="paint40_linear_858_8978" x1="562.311" y1="-246.602" x2="562.311" y2="817.116" gradientUnits="userSpaceOnUse">
<stop stop-color="#067DE1"/>
<stop offset="0.9998" stop-color="white"/>
<stop offset="0.9999" stop-color="#FF007A"/>
<stop offset="1" stop-color="white"/>
</linearGradient>
<linearGradient id="paint41_linear_858_8978" x1="566.243" y1="-245.429" x2="566.243" y2="819.898" gradientUnits="userSpaceOnUse">
<stop stop-color="#067DE1"/>
<stop offset="0.9998" stop-color="white"/>
<stop offset="0.9999" stop-color="#FF007A"/>
<stop offset="1" stop-color="white"/>
</linearGradient>
<linearGradient id="paint42_linear_858_8978" x1="570.174" y1="-244.277" x2="570.174" y2="822.677" gradientUnits="userSpaceOnUse">
<stop stop-color="#067DE1"/>
<stop offset="0.9998" stop-color="white"/>
<stop offset="0.9999" stop-color="#FF007A"/>
<stop offset="1" stop-color="white"/>
</linearGradient>
<linearGradient id="paint43_linear_858_8978" x1="574.071" y1="-243.111" x2="574.071" y2="825.44" gradientUnits="userSpaceOnUse">
<stop stop-color="#067DE1"/>
<stop offset="0.9998" stop-color="white"/>
<stop offset="0.9999" stop-color="#FF007A"/>
<stop offset="1" stop-color="white"/>
</linearGradient>
</defs>
</svg>
