<svg width="239" height="216" viewBox="0 0 239 216" fill="none" xmlns="http://www.w3.org/2000/svg">
<mask id="mask0_828_10516" style="mask-type:alpha" maskUnits="userSpaceOnUse" x="-1" y="0" width="292" height="291">
<circle cx="145.103" cy="145.104" r="145.104" fill="#F4463D"/>
</mask>
<g mask="url(#mask0_828_10516)">
<circle cx="0.00630188" cy="62.5703" r="10.6499" fill="#F4463D"/>
<circle cx="219.66" cy="62.5703" r="10.6499" fill="#F4463D"/>
<circle cx="150.432" cy="147.769" r="10.6499" fill="#F4463D"/>
<circle cx="0.00630188" cy="62.5703" r="10.6499" fill="#F4463D"/>
<circle cx="219.66" cy="62.5703" r="10.6499" fill="#F4463D"/>
<circle cx="22.6372" cy="183.712" r="10.6499" fill="#F4463D"/>
<circle cx="242.291" cy="183.712" r="10.6499" fill="#F4463D"/>
<circle cx="99.8481" cy="25.2954" r="10.6499" fill="#F4463D"/>
<circle cx="169.078" cy="106.501" r="10.6499" fill="#F4463D"/>
<circle cx="191.707" cy="25.2954" r="10.6499" fill="#F4463D"/>
<circle cx="50.5893" cy="222.317" r="10.6499" fill="#F4463D"/>
<circle cx="18.6494" cy="29.2891" r="14.6436" fill="#F4463D"/>
<circle cx="238.294" cy="29.2891" r="14.6436" fill="#F4463D"/>
<circle cx="131.805" cy="83.8687" r="14.6436" fill="#F4463D"/>
<circle cx="178.393" cy="222.317" r="14.6436" fill="#F4463D"/>
<circle cx="18.6494" cy="29.2891" r="14.6436" fill="#F4463D"/>
<circle cx="238.294" cy="29.2891" r="14.6436" fill="#F4463D"/>
<circle cx="70.5684" cy="137.118" r="14.6436" fill="#F4463D"/>
<circle cx="25.2949" cy="137.118" r="14.6436" fill="#F4463D"/>
<circle cx="244.96" cy="137.118" r="14.6436" fill="#F4463D"/>
<circle cx="86.5322" cy="194.362" r="14.6436" fill="#F4463D"/>
<circle cx="206.345" cy="129.131" r="14.6436" fill="#F4463D"/>
<circle cx="47.9293" cy="66.5631" r="26.6246" fill="#F4463D"/>
<circle cx="47.9293" cy="66.5631" r="26.6246" fill="#F4463D"/>
<circle cx="55.9176" cy="17.309" r="11.9811" fill="#F4463D"/>
<circle cx="169.073" cy="63.9015" r="11.9811" fill="#F4463D"/>
<circle cx="215.661" cy="202.349" r="11.9811" fill="#F4463D"/>
<circle cx="55.9176" cy="17.309" r="11.9811" fill="#F4463D"/>
<circle cx="145.106" cy="37.2758" r="11.9811" fill="#F4463D"/>
<circle cx="191.705" cy="175.724" r="11.9811" fill="#F4463D"/>
<circle cx="99.8444" cy="78.5443" r="11.9811" fill="#F4463D"/>
<circle cx="122.475" cy="187.705" r="11.9811" fill="#F4463D"/>
<circle cx="113.158" cy="117.151" r="11.9811" fill="#F4463D"/>
<circle cx="-3.32178" cy="103.173" r="7.32178" fill="#F4463D"/>
<circle cx="216.332" cy="103.173" r="7.32178" fill="#F4463D"/>
<circle cx="60.5757" cy="160.415" r="7.32178" fill="#F4463D"/>
<circle cx="-3.32178" cy="103.173" r="7.32178" fill="#F4463D"/>
<circle cx="216.332" cy="103.173" r="7.32178" fill="#F4463D"/>
<circle cx="60.5757" cy="160.415" r="7.32178" fill="#F4463D"/>
<circle cx="67.2319" cy="101.841" r="7.32178" fill="#F4463D"/>
<circle cx="116.48" cy="148.435" r="7.32178" fill="#F4463D"/>
<circle cx="25.2984" cy="102.507" r="3.9937" fill="#F4463D"/>
<circle cx="89.2066" cy="159.75" r="3.9937" fill="#F4463D"/>
<circle cx="25.2984" cy="102.507" r="3.9937" fill="#F4463D"/>
<circle cx="146.436" cy="10.6519" r="3.9937" fill="#F4463D"/>
<circle cx="142.451" cy="205.012" r="3.9937" fill="#F4463D"/>
</g>
</svg>
