<svg width="82" height="82" viewBox="0 0 82 82" fill="none" xmlns="http://www.w3.org/2000/svg">
<rect width="82" height="82" rx="8" fill="#E2A300"/>
<path d="M51.9141 61.0361H48.7344V57.9854H33.2656V61.036H30.0859C29.374 61.036 28.7969 61.6132 28.7969 62.3251C28.7969 63.037 29.374 63.6142 30.0859 63.6142H51.9141C52.626 63.6142 53.2031 63.037 53.2031 62.3251C53.2031 61.6132 52.626 61.0361 51.9141 61.0361Z" fill="white"/>
<path d="M19 52.8281C19 54.2497 20.1565 55.4062 21.5781 55.4062H60.4219C61.8435 55.4062 63 54.2497 63 52.8281V50.25H19V52.8281Z" fill="white"/>
<path d="M60.4219 21.0322H21.5781C20.1565 21.0322 19 22.1888 19 23.6104V47.6729H63V23.6104C63 22.1888 61.8435 21.0322 60.4219 21.0322ZM49.5954 32.6339C49.5954 33.3458 49.0182 33.9229 48.3063 33.9229H34.0391C33.3272 33.9229 32.75 33.3458 32.75 32.6339C32.75 31.922 33.3272 31.3448 34.0391 31.3448H48.3063C49.0182 31.3448 49.5954 31.922 49.5954 32.6339ZM30.6016 26.1885H36.0156C36.7275 26.1885 37.3047 26.7656 37.3047 27.4775C37.3047 28.1894 36.7275 28.7666 36.0156 28.7666H30.6016C29.8897 28.7666 29.3125 28.1894 29.3125 27.4775C29.3125 26.7656 29.8897 26.1885 30.6016 26.1885ZM25.4454 44.2355C24.7354 44.2355 24.1563 43.6564 24.1563 42.9465C24.1563 42.2364 24.7354 41.6574 25.4454 41.6574C26.1554 41.6574 26.7345 42.2364 26.7345 42.9465C26.7345 43.6564 26.1554 44.2355 25.4454 44.2355ZM25.4454 39.0793C24.7354 39.0793 24.1563 38.5001 24.1563 37.7902C24.1563 37.0802 24.7354 36.5011 25.4454 36.5011C26.1554 36.5011 26.7345 37.0802 26.7345 37.7902C26.7345 38.5001 26.1554 39.0793 25.4454 39.0793ZM25.4454 33.923C24.7354 33.923 24.1563 33.3439 24.1563 32.634C24.1563 31.9239 24.7354 31.3449 25.4454 31.3449C26.1554 31.3449 26.7345 31.9239 26.7345 32.634C26.7345 33.3439 26.1554 33.923 25.4454 33.923ZM25.4454 28.7667C24.7354 28.7667 24.1563 28.1876 24.1563 27.4776C24.1563 26.7676 24.7354 26.1886 25.4454 26.1886C26.1554 26.1886 26.7345 26.7676 26.7345 27.4776C26.7345 28.1876 26.1554 28.7667 25.4454 28.7667ZM36.0156 44.2354H30.6016C29.8897 44.2354 29.3125 43.6583 29.3125 42.9464C29.3125 42.2345 29.8897 41.6573 30.6016 41.6573H36.0156C36.7275 41.6573 37.3047 42.2345 37.3047 42.9464C37.3047 43.6583 36.7275 44.2354 36.0156 44.2354ZM40.0547 39.0792H34.0391C33.3272 39.0792 32.75 38.502 32.75 37.7901C32.75 37.0782 33.3272 36.5011 34.0391 36.5011H40.0547C40.7666 36.5011 41.3438 37.0782 41.3438 37.7901C41.3438 38.502 40.7666 39.0792 40.0547 39.0792ZM48.9492 39.0792H44.4947C43.7828 39.0792 43.2057 38.502 43.2057 37.7901C43.2057 37.0782 43.7828 36.5011 44.4947 36.5011H48.9492C49.6611 36.5011 50.2383 37.0782 50.2383 37.7901C50.2383 38.502 49.6612 39.0792 48.9492 39.0792ZM56.5547 39.0792H53.4609C52.749 39.0792 52.1719 38.502 52.1719 37.7901C52.1719 37.0782 52.749 36.5011 53.4609 36.5011H56.5547C57.2666 36.5011 57.8438 37.0782 57.8438 37.7901C57.8438 38.502 57.2666 39.0792 56.5547 39.0792ZM56.5547 33.9229H53.4609C52.749 33.9229 52.1719 33.3458 52.1719 32.6339C52.1719 31.922 52.749 31.3448 53.4609 31.3448H56.5547C57.2666 31.3448 57.8438 31.922 57.8438 32.6339C57.8438 33.3458 57.2666 33.9229 56.5547 33.9229Z" fill="white"/>
</svg>
