<svg width="82" height="82" viewBox="0 0 82 82" fill="none" xmlns="http://www.w3.org/2000/svg">
<rect width="82" height="82" rx="8" fill="#F6453A"/>
<path d="M41 49.2031C42.1326 49.2031 43.0508 48.285 43.0508 47.1523C43.0508 46.0197 42.1326 45.1016 41 45.1016C39.8674 45.1016 38.9492 46.0197 38.9492 47.1523C38.9492 48.285 39.8674 49.2031 41 49.2031Z" fill="white"/>
<path d="M38.6605 31.7567C38.4323 32.099 38.0481 32.3047 37.6367 32.3047H22C20.8954 32.3047 20 33.2001 20 34.3047V60.7695C20 61.4491 20.5509 62 21.2305 62H60.7695C61.4491 62 62 61.4491 62 60.7695V29.3828C62 28.2782 61.1046 27.3828 60 27.3828H42.6468C41.9781 27.3828 41.3536 27.717 40.9827 28.2734L38.6605 31.7567ZM44.6914 37.3086V38.0053C44.6914 38.5636 45.0234 39.0607 45.5066 39.3405C45.9908 39.621 46.5907 39.6622 47.0753 39.3824L47.6792 39.0337C48.2677 38.6939 49.0203 38.8955 49.3601 39.4841L51.821 43.7465C51.9841 44.0291 52.0284 44.365 51.944 44.6802C51.8595 44.9954 51.6532 45.2641 51.3706 45.4273L50.7751 45.7712C50.2893 46.0517 50.0234 46.5914 50.0234 47.1523C50.0234 47.7133 50.2893 48.2531 50.7751 48.5336L51.3706 48.8775C51.6532 49.0406 51.8595 49.3094 51.944 49.6246C52.0284 49.9398 51.9841 50.2757 51.821 50.5583L49.3601 54.8207C49.0202 55.4091 48.2676 55.6108 47.6792 55.2711L47.0753 54.9224C46.5907 54.6426 45.9908 54.6838 45.5066 54.9643C45.0234 55.2441 44.6914 55.7412 44.6914 56.2995V56.9961C44.6914 57.6756 44.1405 58.2266 43.4609 58.2266H38.5391C37.8595 58.2266 37.3086 57.6756 37.3086 56.9961V56.2994C37.3086 55.7411 36.9766 55.244 36.4934 54.9642C36.0092 54.6837 35.4093 54.6425 34.9247 54.9223L34.3208 55.271C33.7324 55.611 32.9797 55.4093 32.6399 54.8206L30.179 50.5582C30.0159 50.2756 29.9716 49.9397 30.056 49.6245C30.1405 49.3093 30.3468 49.0405 30.6294 48.8774L31.2249 48.5335C31.7107 48.253 31.9766 47.7133 31.9766 47.1523C31.9766 46.5914 31.7107 46.0516 31.2249 45.7711L30.6294 45.4272C30.3468 45.2641 30.1405 44.9953 30.056 44.6801C29.9716 44.3649 30.0159 44.029 30.179 43.7464L32.6399 39.484C32.9797 38.8954 33.7323 38.6937 34.3208 39.0336L34.9247 39.3823C35.4093 39.6621 36.0092 39.6209 36.4934 39.3404C36.9766 39.0606 37.3086 38.5635 37.3086 38.0052V37.3086C37.3086 36.629 37.8595 36.0781 38.5391 36.0781H43.4609C44.1405 36.0781 44.6914 36.629 44.6914 37.3086Z" fill="white"/>
<path d="M-nan -nanL35.2176 42.394L34.6859 42.087C34.3923 41.9175 34.0169 42.0181 33.8474 42.3117L33.5327 42.8568C33.1964 43.4392 33.3959 44.1839 33.9783 44.5201C34.4368 44.7848 34.6746 45.3131 34.5687 45.8319C34.4806 46.2637 34.4359 46.7079 34.4359 47.1523C34.4359 47.5968 34.4806 48.041 34.5688 48.4728C34.6747 48.9916 34.4369 49.5199 33.9784 49.7846C33.396 50.1208 33.2003 50.8722 33.5366 51.4546C33.8756 52.0418 34.6304 52.2497 35.2177 51.9107C35.6765 51.6459 36.2534 51.7043 36.6497 52.056C37.3208 52.6516 38.0867 53.0953 38.9263 53.375C39.4289 53.5423 39.768 54.0126 39.768 54.5424C39.768 55.218 40.323 55.7656 40.9985 55.7656C41.6741 55.7656 42.229 55.218 42.229 54.5425C42.229 54.0127 42.5681 53.5424 43.0707 53.3751C43.9103 53.0954 44.6762 52.6517 45.3473 52.0561C45.7435 51.7045 46.3206 51.6459 46.7793 51.9108C47.3666 52.2498 48.1213 52.0419 48.4604 51.4547C48.7966 50.8723 48.601 50.1209 48.0186 49.7846C47.5601 49.5199 47.3223 48.9916 47.4282 48.4729C47.5164 48.0411 47.5611 47.5969 47.5611 47.1524C47.5611 46.708 47.5164 46.2638 47.4282 45.832C47.3223 45.3132 47.5601 44.7848 48.0186 44.5202C48.601 44.184 48.7966 43.4326 48.4604 42.8502C48.1213 42.263 47.3666 42.055 46.7793 42.394C46.3205 42.6589 45.7436 42.6005 45.3473 42.2488C44.6762 41.6531 43.9103 41.2094 43.0707 40.9298C42.5681 40.7624 42.229 40.2922 42.229 39.7624C42.229 39.0868 41.674 38.5391 40.9984 38.5391C40.3229 38.5391 39.768 39.0867 39.768 39.7622C39.768 40.292 39.4289 40.7623 38.9263 40.9296C38.0867 41.2093 37.3208 41.653 36.6497 42.2486C36.2534 42.6003 35.6764 42.6588 35.2176 42.394L-nan -nanZM40.9984 42.6406C43.4862 42.6406 45.5101 44.6646 45.5101 47.1523C45.5101 49.6401 43.4862 51.6641 40.9984 51.6641C38.5106 51.6641 36.4867 49.6401 36.4867 47.1523C36.4867 44.6646 38.5106 42.6406 40.9984 42.6406Z" fill="white"/>
<path d="M60.7695 20C60.7695 20 60.7695 20 60.7695 20H21.2305C20.5509 20 20 20.5509 20 21.2305V27.8438C20 28.9483 20.8954 29.8438 22 29.8438H35.9079C36.5766 29.8438 37.2011 29.5096 37.572 28.9532L39.8942 25.4698C40.1223 25.1275 40.5065 24.9219 40.918 24.9219H60C61.1046 24.9219 62 24.0264 62 22.9219V21.2305C62 20.5509 61.4491 20 60.7695 20C60.7695 20 60.7695 20 60.7695 20ZM26.1523 26.1523C25.4728 26.1523 24.9219 25.6014 24.9219 24.9219C24.9219 24.2423 25.4728 23.6914 26.1523 23.6914C26.8319 23.6914 27.3828 24.2423 27.3828 24.9219C27.3828 25.6014 26.8319 26.1523 26.1523 26.1523ZM31.0742 26.1523C30.3947 26.1523 29.8438 25.6014 29.8438 24.9219C29.8438 24.2423 30.3947 23.6914 31.0742 23.6914C31.7538 23.6914 32.3047 24.2423 32.3047 24.9219C32.3047 25.6014 31.7538 26.1523 31.0742 26.1523ZM35.9961 26.1523C35.3165 26.1523 34.7656 25.6014 34.7656 24.9219C34.7656 24.2423 35.3165 23.6914 35.9961 23.6914C36.6756 23.6914 37.2266 24.2423 37.2266 24.9219C37.2266 25.6014 36.6756 26.1523 35.9961 26.1523Z" fill="white"/>
</svg>
