<svg width="100" height="100" viewBox="0 0 100 100" fill="none" xmlns="http://www.w3.org/2000/svg">
<rect width="100" height="100" rx="8" fill="#E2A300"/>
<path d="M42.3479 53.1599L42.177 54.0146L41.0283 59.7817L43.5888 63.549C43.7016 63.7165 43.7187 63.9319 43.6367 64.1165L41.9035 67.8564L47.0177 75.8832L47.698 76.9498H49.021L42.888 53.1462C42.7171 53.1462 42.5359 53.1497 42.3479 53.1599Z" fill="#E5E5E5"/>
<path d="M40.7224 67.6581L42.4488 63.9284L39.9362 60.2295C39.8507 60.103 39.8165 59.9458 39.8473 59.7919L41.1429 53.2932C40.1344 53.4676 39.0029 53.8197 37.8372 54.4829C35.5159 55.8059 34.2203 57.7203 33.7725 58.4792C33.2289 59.3988 32.8358 60.3628 32.4905 61.6106C31.1983 66.2804 31.0103 73.5141 31 76.9498H46.3289L40.76 68.2119C40.6541 68.0444 40.6404 67.8358 40.7224 67.6581Z" fill="#E5E5E5"/>
<path d="M56.7119 53.9529L51.6113 57.5424L53.0676 58.3697C53.0745 58.3731 53.0813 58.3731 53.0882 58.3765C53.1429 58.397 53.1873 58.4278 53.2317 58.462L55.259 59.614L56.7119 53.9529Z" fill="#E5E5E5"/>
<path d="M44.2832 53.9353L45.7532 59.6409L47.8317 58.4615C47.8727 58.4273 47.9206 58.4 47.9753 58.376C47.9821 58.3726 47.9889 58.3726 47.9958 58.3692L49.4829 57.5248L44.2832 53.9353Z" fill="#E5E5E5"/>
<path d="M46.0518 60.8002L47.9012 67.9827L48.7012 61.6344L47.9149 59.7405L46.0518 60.8002Z" fill="#E5E5E5"/>
<path d="M52.3652 61.6344L53.1447 67.8596L54.9634 60.7729L53.1481 59.7405L52.3652 61.6344Z" fill="#E5E5E5"/>
<path d="M51.2646 62.1301H49.798L48.6836 71.0184L50.2117 76.9497H50.8134L52.3654 70.9022L51.2646 62.1301Z" fill="#E5E5E5"/>
<path d="M68.5093 61.6106C68.164 60.3628 67.7675 59.3988 67.2273 58.4792C66.7795 57.7203 65.4839 55.8059 63.1627 54.4829C62.0003 53.8197 60.8654 53.4676 59.8569 53.2932L61.1525 59.7919C61.1833 59.9423 61.1525 60.0996 61.0636 60.2295L58.551 63.9284L60.2774 67.6581C60.3594 67.8358 60.3457 68.0444 60.2398 68.2119L54.6709 76.9498H69.9998C69.9896 73.5141 69.805 66.2804 68.5093 61.6106Z" fill="#E5E5E5"/>
<path d="M57.3652 64.1165C57.2798 63.9319 57.2968 63.7165 57.4131 63.549L59.9736 59.7817L58.8249 54.0146L58.654 53.1599C58.466 53.1497 58.2848 53.1462 58.1139 53.1462L52.0049 76.9498H53.3005L53.3894 76.8096L53.9808 75.8798L59.095 67.853L57.3652 64.1165Z" fill="#E5E5E5"/>
<path d="M40.3957 36.0189C40.8778 35.6736 41.6059 35.1096 42.3683 34.3472C42.5529 34.1626 42.8434 34.125 43.0691 34.2583C43.0862 34.2686 44.7168 35.2121 47.3765 35.6976C49.8208 36.142 53.6598 36.2787 58.0835 34.3951C58.2954 34.3062 58.5416 34.3506 58.7091 34.5079C58.7193 34.5181 59.7073 35.4548 60.7534 36.1317C60.9072 35.8856 61.1465 35.489 61.5123 34.8463C61.5807 34.7301 61.6114 34.672 61.6285 34.6446C62.0422 33.9643 62.5003 33.0687 62.4114 32.1593C62.3123 31.1543 61.5704 29.9988 60.8833 29.298C60.6337 29.0416 60.3295 28.8262 60.0116 28.5972C59.6423 28.3339 59.2595 28.0604 58.921 27.7015C58.5552 27.3118 58.3604 26.8537 58.1894 26.4503C58.0698 26.17 57.957 25.9033 57.7963 25.6811C57.4476 25.1923 56.8186 24.9495 56.3537 24.8333C55.6563 24.6555 54.8461 24.5393 53.8752 24.4709C52.5078 24.3752 51.0173 24.4914 49.4481 24.8162C48.6482 24.9871 44.5322 25.9341 42.1153 28.269C41.9717 28.4091 41.8315 28.5527 41.6948 28.7031C40.8641 29.6193 40.3513 30.4329 40.1701 31.1132C39.9513 31.9474 40.0163 32.8841 40.071 33.7148C40.1257 34.4908 40.1804 35.2907 40.3957 36.0189Z" fill="#E5E5E5"/>
<path d="M56.6531 50.3872C54.855 51.6076 52.732 52.2674 50.51 52.2674C48.2776 52.2674 46.1444 51.6042 44.3428 50.3735L43.9736 52.3221L50.5612 56.8723L57.0224 52.3255L56.6531 50.3872Z" fill="#E5E5E5"/>
<path d="M51.3901 60.978L52.1388 59.1662L51.6841 58.9098L50.5354 58.2568L49.3834 58.9098L48.9287 59.1662L49.6774 60.978H51.3901Z" fill="#E5E5E5"/>
<path d="M60.3311 41.294V37.2327C59.456 36.696 58.615 35.9781 58.1911 35.5987C56.222 36.3986 54.2085 36.8909 52.1949 37.0618C50.4891 37.2088 48.7798 37.1268 47.1183 36.8191C45.0296 36.4328 43.5493 35.7901 42.8827 35.4585C41.9529 36.3439 41.1187 36.9387 40.6982 37.2156V41.294C40.6982 46.709 45.1014 51.1122 50.5164 51.1122C55.928 51.1122 60.3311 46.709 60.3311 41.294Z" fill="#E5E5E5"/>
</svg>
