<svg width="84" height="82" viewBox="0 0 84 82" fill="none" xmlns="http://www.w3.org/2000/svg">
<rect x="0.540039" width="83.1971" height="82" rx="8" fill="#9C38AA"/>
<path d="M54.6233 59.5391H52.4344C50.9583 58.7459 49.8156 57.5344 49.1254 56.0938H35.1526C34.4623 57.5344 33.3197 58.7459 31.8436 59.5391H29.6547C28.9652 59.5391 28.4062 60.09 28.4062 60.7695C28.4062 61.4491 28.9652 62 29.6547 62H54.6233C55.3128 62 55.8717 61.4491 55.8717 60.7695C55.8717 60.09 55.3128 59.5391 54.6233 59.5391Z" fill="white"/>
<path d="M43.387 48.3008C43.387 48.9803 42.8281 49.5312 42.1386 49.5312C41.4491 49.5312 40.8902 48.9803 40.8902 48.3008V47.0703H20.832V49.1211C20.832 51.6089 22.8855 53.6328 25.4096 53.6328H58.8676C61.3917 53.6328 63.4452 51.6089 63.4452 49.1211V47.0703H43.387V48.3008Z" fill="white"/>
<path d="M37.8037 39.3231C38.7219 40.9373 39.2103 42.747 39.225 44.6092H45.0517C45.0664 42.7469 45.5548 40.9372 46.473 39.3231L43.3868 34.9775V38.4569C43.3868 39.1364 42.8278 39.6874 42.1383 39.6874C41.4489 39.6874 40.8899 39.1364 40.8899 38.4569V34.9775L37.8037 39.3231Z" fill="white"/>
<path d="M58.8676 20H25.4096C22.8855 20 20.832 22.024 20.832 24.5117V44.6094H36.7271C36.7103 42.9489 36.2094 41.343 35.2738 39.9598C34.9885 39.538 34.9948 38.987 35.2898 38.5717L41.1158 30.3686C41.3494 30.0396 41.7312 29.8438 42.1386 29.8438C42.546 29.8438 42.9277 30.0396 43.1614 30.3686L48.9874 38.5717C49.2824 38.987 49.2887 39.5381 49.0034 39.9598C48.0679 41.343 47.5669 42.9489 47.5501 44.6094H63.4452V24.5117C63.4452 22.024 61.3917 20 58.8676 20ZM57.1198 40.5078H53.7906C53.1012 40.5078 52.5422 39.9569 52.5422 39.2773C52.5422 38.5978 53.1012 38.0469 53.7906 38.0469H54.1425C53.5158 32.0642 48.3715 27.3828 42.1386 27.3828C35.9057 27.3828 30.7614 32.0642 30.1347 38.0469H30.4866C31.176 38.0469 31.735 38.5978 31.735 39.2773C31.735 39.9569 31.176 40.5078 30.4866 40.5078H27.1574C26.468 40.5078 25.909 39.9569 25.909 39.2773C25.909 38.5978 26.468 38.0469 27.1574 38.0469H27.6277C28.263 30.7052 34.528 24.9219 42.1386 24.9219C49.7492 24.9219 56.0142 30.7052 56.6495 38.0469H57.1198C57.8092 38.0469 58.3682 38.5978 58.3682 39.2773C58.3682 39.9569 57.8092 40.5078 57.1198 40.5078Z" fill="white"/>
</svg>
