<svg width="100" height="100" viewBox="0 0 100 100" fill="none" xmlns="http://www.w3.org/2000/svg">
<rect width="100" height="100" rx="8" fill="#9C38AA"/>
<path d="M59.6149 46.4021C60.9319 46.1204 62.1467 45.0318 62.3446 42.6174C62.5078 40.6413 62.001 39.6234 61.2527 39.1046C63.33 30.6379 57.6007 28.9805 57.6007 28.9805C57.6007 28.9805 53.319 21.7166 44.9654 26.814C43.9029 27.4622 42.2509 28.7042 41.2666 29.9865C39.6864 31.6678 38.6108 34.4009 38.4422 38.8273C37.4221 39.2166 36.6205 40.2019 36.8196 42.6163C37.0284 45.1406 38.3454 46.2151 39.731 46.4348C41.6016 50.9905 45.2949 54.7448 49.6659 54.7448C54.0466 54.7448 57.7475 50.9731 59.6149 46.4021ZM49.6659 52.6208C44.612 52.6208 40.5423 45.7583 40.5423 40.0758C40.5423 39.2971 40.5673 38.5749 40.6152 37.905C48.0073 38.228 52.3793 35.2644 54.7589 32.6934C57.0156 34.9425 58.188 37.7832 58.7872 39.892C58.7872 39.9529 58.7883 40.0127 58.7883 40.0747C58.7894 45.7583 54.7208 52.6208 49.6659 52.6208Z" fill="#E5E5E5"/>
<path d="M46.7735 61.2129L47.3586 58.7909C47.426 58.5114 47.5707 58.2722 47.7664 58.0884C47.7066 58.046 47.6479 58.0014 47.5902 57.9546L42.3634 53.6272L39.1823 54.3711C33.7956 55.6381 30 60.1874 30 65.4055V72.2571C30 73.6057 31.1996 74.6813 32.6352 74.6813H46.1003L48.1536 62.977C47.2313 62.965 46.556 62.1134 46.7735 61.2129Z" fill="#E5E5E5"/>
<path d="M59.965 54.3711L56.8274 53.6272L51.606 57.9546C51.5484 58.0014 51.4918 58.046 51.432 58.0884C51.6288 58.2722 51.7735 58.5114 51.842 58.7909L52.426 61.2129C52.6446 62.1124 51.9692 62.965 51.0459 62.9781L53.0992 74.6824H66.5643C67.9999 74.6824 69.0918 73.6079 69.0918 72.2582V65.4066C69.094 60.1874 65.3517 55.6381 59.965 54.3711Z" fill="#E5E5E5"/>
</svg>
