<svg width="83" height="82" viewBox="0 0 83 82" fill="none" xmlns="http://www.w3.org/2000/svg">
<rect x="0.425781" width="82.1971" height="82" rx="8" fill="#067DE1"/>
<path d="M62.643 54.1437C63.9217 54.1437 64.9621 53.1059 64.9621 51.8302V48.8821H17.4668V51.8302C17.4668 53.1059 18.5071 54.1437 19.7859 54.1437H62.643Z" fill="white"/>
<path d="M34.4382 56.9336L33.4467 59.4945H31.6864C30.9179 59.4945 30.2949 60.116 30.2949 60.8826C30.2949 61.6492 30.9179 62.2708 31.6864 62.2708H50.7422C51.5107 62.2708 52.1337 61.6492 52.1337 60.8826C52.1337 60.116 51.5107 59.4945 50.7422 59.4945H48.9819L47.9903 56.9336H34.4382Z" fill="white"/>
<path d="M64.9621 46.1063V22.7423C64.9621 21.4666 63.9217 20.4287 62.643 20.4287H19.7859C18.5071 20.4287 17.4668 21.4666 17.4668 22.7423V46.1063H64.9621ZM34.8956 37.543C35.439 38.0851 35.439 38.964 34.8956 39.5061C34.6239 39.7772 34.2678 39.9127 33.9118 39.9127C33.5557 39.9127 33.1995 39.7772 32.9279 39.5061L27.6119 34.2028C27.3494 33.941 27.2027 33.5855 27.2043 33.2152C27.2058 32.8449 27.3557 32.4907 27.6205 32.2312L32.9365 27.0201C33.4848 26.4828 34.3657 26.4905 34.9042 27.0373C35.4428 27.5841 35.4351 28.463 34.887 29.0003L30.5722 33.2299L34.8956 37.543ZM37.6411 38.0607L41.3786 27.5463C41.6355 26.8236 42.4311 26.4454 43.1551 26.7019C43.8794 26.9582 44.2583 27.7516 44.0014 28.4741L40.2639 38.9885C40.0616 39.5576 39.5251 39.9131 38.9525 39.9131C38.798 39.9131 38.6412 39.8873 38.4874 39.8329C37.7631 39.5766 37.3842 38.7832 37.6411 38.0607ZM54.8084 34.3036L49.4923 39.5147C49.2215 39.7803 48.8691 39.9127 48.5172 39.9127C48.157 39.9127 47.7971 39.7741 47.5246 39.4975C46.986 38.9507 46.9937 38.0718 47.5419 37.5345L51.8567 33.3049L47.5333 28.9918C46.9898 28.4497 46.9898 27.5708 47.5333 27.0287C48.0766 26.4866 48.9576 26.4866 49.5011 27.0287L54.8171 32.332C55.0795 32.5938 55.2263 32.9493 55.2247 33.3196C55.2231 33.6899 55.0731 34.0441 54.8084 34.3036Z" fill="white"/>
</svg>
