<svg width="100" height="100" viewBox="0 0 100 100" fill="none" xmlns="http://www.w3.org/2000/svg">
<rect width="100" height="100" rx="8" fill="#F6453A"/>
<path d="M59.6149 46.4021C60.9319 46.1204 62.1467 45.0318 62.3446 42.6174C62.5078 40.6413 62.001 39.6234 61.2527 39.1046C63.33 30.6379 57.6007 28.9805 57.6007 28.9805C57.6007 28.9805 53.319 21.7166 44.9654 26.814C43.9029 27.4622 42.2509 28.7042 41.2666 29.9865C39.6864 31.6678 38.6108 34.4009 38.4422 38.8273C37.4221 39.2166 36.6205 40.2019 36.8196 42.6163C37.0284 45.1406 38.3454 46.2151 39.731 46.4348C41.6016 50.9905 45.2949 54.7448 49.6659 54.7448C54.0466 54.7448 57.7475 50.9731 59.6149 46.4021ZM49.6659 52.6208C44.612 52.6208 40.5423 45.7583 40.5423 40.0758C40.5423 39.2971 40.5673 38.5749 40.6152 37.905C48.0073 38.228 52.3793 35.2644 54.7589 32.6934C57.0156 34.9425 58.188 37.7832 58.7872 39.892C58.7872 39.9529 58.7883 40.0127 58.7883 40.0747C58.7894 45.7583 54.7208 52.6208 49.6659 52.6208Z" fill="#E5E5E5"/>
<path d="M46.7735 61.2129L47.3586 58.7909C47.426 58.5114 47.5707 58.2722 47.7664 58.0884C47.7066 58.046 47.6479 58.0014 47.5902 57.9546L42.3634 53.6272L39.1823 54.3711C33.7956 55.6381 30 60.1874 30 65.4055V72.2571C30 73.6057 31.1996 74.6813 32.6352 74.6813H53L51 62.977H48.1536C47.2313 62.965 46.556 62.1134 46.7735 61.2129Z" fill="#E5E5E5"/>
<path d="M59.965 54.3711L56.8274 53.6272L51.606 57.9546C51.5484 58.0014 51.4918 58.046 51.432 58.0884C51.6288 58.2722 51.7735 58.5114 51.842 58.7909L52.426 61.2129C52.6446 62.1124 51.9692 62.965 51.0459 62.9781L53.0992 74.6824H66.5643C67.9999 74.6824 69.0918 73.6079 69.0918 72.2582V65.4066C69.094 60.1874 65.3517 55.6381 59.965 54.3711Z" fill="#E5E5E5"/>
<path d="M56.422 62.0315L58.6446 63.1075L57.1075 64.6447L56.0316 62.422C55.9733 62.3057 55.9983 62.1728 56.0855 62.0856C56.1727 61.9982 56.3057 61.9733 56.422 62.0315Z" fill="#F6453A"/>
<path d="M58.9495 66.6144L57.458 65.1229L59.1198 63.4612L60.5779 64.9194L60.1584 65.3307C60.1501 65.3389 59.9922 65.4968 59.7429 65.7627C59.5311 65.9829 59.2527 66.2778 58.9495 66.6144Z" fill="#F6453A"/>
<path d="M64.4695 64.9853L63.0029 63.5188C63.4101 62.6214 63.946 62.4677 64.8309 62.2226C65.0636 62.1562 65.3415 62.1137 65.6406 62.0139C65.8525 61.9432 66.0851 62.176 66.0145 62.3878C65.919 62.6828 65.8322 62.9081 65.7657 63.1407C65.4914 64.0631 65.3419 64.5865 64.4695 64.9853Z" fill="#F6453A"/>
<path d="M62.649 66.9883C63.2638 66.3402 63.6544 65.825 63.9867 65.3348L62.649 63.9971C62.1587 64.3295 61.6436 64.7199 60.9955 65.3348C60.8668 65.4636 60.7255 65.5965 60.5759 65.7461L62.2377 67.4079C62.3873 67.2583 62.5202 67.117 62.649 66.9883ZM60.1687 66.1699C59.9569 66.39 59.6786 66.685 59.367 67.0298C57.8963 68.6334 55.5419 71.4144 56.0778 71.9503C56.6137 72.4862 59.3503 70.0875 60.954 68.6168C61.2988 68.3052 61.5937 68.0269 61.8139 67.815L60.1687 66.1699Z" fill="#F6453A"/>
<path d="M63.9022 68.2382L62.2404 69.8999L61.3721 69.0317C61.7128 68.7242 62.0036 68.45 62.2196 68.2423C62.4896 67.9889 62.6475 67.831 62.6558 67.8227L63.0671 67.4031L63.9022 68.2382Z" fill="#F6453A"/>
<path d="M62.6562 70.3156L64.318 68.6538L64.7334 69.0692L63.0717 70.731L62.6562 70.3156Z" fill="#F6453A"/>
<path d="M65.7654 71.3541L65.3499 71.7696C65.0052 72.1144 64.4484 72.1144 64.1036 71.7696L63.4805 71.1464L65.1422 69.4846L65.7654 70.1078C66.1102 70.4525 66.1102 71.0093 65.7654 71.3541Z" fill="#F6453A"/>
</svg>
