<svg width="234" height="209" viewBox="0 0 234 209" fill="none" xmlns="http://www.w3.org/2000/svg">
<path opacity="0.9" d="M274.404 -33.3869C274.422 -32.7261 274.434 -32.0638 274.441 -31.4L273.941 -31.3954C273.944 -31.0651 273.945 -30.7344 273.945 -30.4033C273.945 -30.0722 273.944 -29.7415 273.941 -29.411L274.441 -29.4065C274.434 -28.7427 274.422 -28.0804 274.404 -27.4196L273.904 -27.4333C273.886 -26.7756 273.862 -26.1193 273.832 -25.4645L274.331 -25.4416C274.301 -24.7788 274.264 -24.1177 274.222 -23.4581L273.723 -23.4903C273.68 -22.8318 273.632 -22.1748 273.577 -21.5196L274.076 -21.4782C274.021 -20.8198 273.96 -20.1632 273.894 -19.5082L273.396 -19.5589C273.329 -18.9013 273.256 -18.2455 273.177 -17.5914L273.674 -17.5315C273.594 -16.874 273.509 -16.2183 273.418 -15.5645L272.922 -15.6336C272.831 -14.9818 272.734 -14.3319 272.632 -13.6839L273.125 -13.6055C273.021 -12.9501 272.911 -12.2967 272.795 -11.6452L272.303 -11.7329C272.188 -11.0845 272.067 -10.4381 271.939 -9.79384L272.43 -9.69704C272.302 -9.04749 272.168 -8.40002 272.028 -7.7547L271.539 -7.86067C271.399 -7.21597 271.254 -6.57341 271.102 -5.93306L271.589 -5.81793C271.436 -5.17455 271.278 -4.53337 271.114 -3.89445L270.63 -4.01866C270.466 -3.37973 270.297 -2.74309 270.121 -2.1088L270.603 -1.97551C270.426 -1.3373 270.244 -0.701431 270.056 -0.0679932L269.577 -0.210297C269.39 0.420441 269.197 1.04877 268.998 1.67464L269.475 1.82588C269.274 2.45773 269.068 3.08708 268.856 3.71388L268.382 3.55371C268.171 4.17755 267.955 4.79884 267.732 5.41753L268.203 5.58653C267.979 6.20929 267.75 6.82941 267.515 7.44684L267.048 7.26907C266.813 7.88518 266.573 8.4986 266.328 9.10927L266.792 9.29576C266.545 9.90932 266.293 10.5201 266.035 11.1281L265.575 10.933C265.318 11.5397 265.055 12.1437 264.787 12.7448L265.244 12.9484C264.974 13.5529 264.699 14.1544 264.419 14.753L263.966 14.5408C263.687 15.1368 263.402 15.7298 263.112 16.3198L263.561 16.5403C263.269 17.1346 262.971 17.7259 262.669 18.3141L262.224 18.0852C261.923 18.6706 261.616 19.2529 261.304 19.8321L261.745 20.0692C261.431 20.6517 261.112 21.231 260.788 21.8071L260.352 21.562C260.029 22.1361 259.701 22.707 259.368 23.2746L259.799 23.5277C259.464 24.098 259.124 24.6649 258.779 25.2285L258.353 24.9674C258.009 25.5292 257.66 26.0876 257.306 26.6426L257.727 26.9115C257.371 27.4692 257.011 28.0235 256.645 28.5743L256.228 28.2976C255.864 28.846 255.495 29.3909 255.121 29.9322L255.532 30.2164C255.156 30.7608 254.775 31.3015 254.389 31.8387L253.983 31.5469C253.599 32.0816 253.21 32.6126 252.816 33.14L253.217 33.4391C252.821 33.9691 252.421 34.4954 252.015 35.018L251.62 34.7116C251.217 35.2319 250.809 35.7484 250.396 36.2612L250.785 36.5747C250.37 37.0898 249.951 37.6011 249.527 38.1085L249.143 37.7879C248.721 38.293 248.294 38.7943 247.863 39.2917L248.241 39.6192C247.807 40.1189 247.37 40.6146 246.927 41.1063L246.556 40.7719C246.115 41.2612 245.67 41.7466 245.221 42.228L245.587 42.5691C245.136 43.0526 244.68 43.532 244.22 44.0072L243.861 43.6595C243.403 44.1326 242.941 44.6016 242.475 45.0664L242.827 45.4205C242.359 45.8873 241.886 46.3498 241.41 46.808L241.063 46.4475C240.589 46.9036 240.11 47.3554 239.627 47.8029L239.967 48.1697C239.481 48.6192 238.992 49.0645 238.499 49.5053L238.166 49.1325C237.675 49.5709 237.18 50.0049 236.682 50.4346L237.008 50.8134C236.507 51.245 236.002 51.6722 235.493 52.0949L235.173 51.7102C234.667 52.1307 234.157 52.5467 233.643 52.9582L233.955 53.3485C233.439 53.7616 232.919 54.17 232.395 54.5739L232.09 54.1779C231.568 54.5799 231.043 54.9774 230.514 55.3702L230.812 55.7716C230.282 56.1656 229.747 56.5549 229.209 56.9395L228.919 56.5328C228.383 56.9155 227.844 57.2935 227.302 57.6668L227.585 58.0787C227.04 58.4536 226.492 58.8237 225.94 59.1889L225.664 58.7719C225.115 59.1348 224.563 59.4928 224.008 59.846L224.276 60.2679C223.718 60.6228 223.157 60.9727 222.592 61.3178L222.331 60.8911C221.77 61.234 221.205 61.5721 220.636 61.9052L220.889 62.3365C220.319 62.6707 219.746 62.9999 219.169 63.3241L218.924 62.8882C218.35 63.2109 217.773 63.5286 217.193 63.8413L217.43 64.2815C216.848 64.5946 216.264 64.9028 215.676 65.2057L215.447 64.7613C214.862 65.0628 214.274 65.3591 213.683 65.6504L213.904 66.0989C213.311 66.3912 212.715 66.6784 212.115 66.9604L211.902 66.5079C211.308 66.7877 210.71 67.0623 210.11 67.3317L210.314 67.7879C209.711 68.0586 209.105 68.324 208.496 68.584L208.299 68.1242C207.694 68.3825 207.087 68.6355 206.476 68.8832L206.664 69.3465C206.052 69.5948 205.438 69.8378 204.82 70.0754L204.641 69.6088C204.026 69.8453 203.409 70.0765 202.789 70.3023L202.96 70.7721C202.34 70.9979 201.717 71.2184 201.092 71.4334L200.929 70.9605C200.307 71.1744 199.683 71.3828 199.056 71.5858L199.21 72.0615C198.58 72.2652 197.948 72.4635 197.314 72.6562L197.169 72.1778C196.541 72.3686 195.91 72.554 195.277 72.7339L195.414 73.2148C194.778 73.3956 194.14 73.5707 193.499 73.7403L193.371 73.257C192.735 73.4253 192.097 73.5881 191.457 73.7453L191.576 74.2309C190.936 74.3882 190.293 74.54 189.648 74.6861L189.537 74.1985C188.895 74.3439 188.251 74.4838 187.604 74.618L187.706 75.1075C187.06 75.2417 186.412 75.3702 185.762 75.493L185.669 75.0017C185.023 75.1236 184.376 75.24 183.726 75.3507L183.81 75.8436C183.157 75.9547 182.503 76.0602 181.846 76.16L181.771 75.6656C181.123 75.7641 180.473 75.857 179.821 75.9441L179.887 76.4397C179.233 76.5272 178.576 76.609 177.918 76.6851L177.861 76.1884C177.206 76.264 176.55 76.3339 175.892 76.398L175.941 76.8956C175.286 76.9595 174.629 77.0177 173.97 77.0701L173.93 76.5717C173.275 76.6238 172.617 76.6703 171.958 76.711L171.989 77.21C171.33 77.2508 170.669 77.2857 170.006 77.3149L169.984 76.8154C169.329 76.8442 168.672 76.8673 168.014 76.8847L168.028 77.3845C167.367 77.4019 166.704 77.4136 166.041 77.4194L166.036 76.9194C165.706 76.9224 165.375 76.9238 165.044 76.9238C164.713 76.9238 164.382 76.9224 164.051 76.9194L164.047 77.4194C163.383 77.4136 162.721 77.4019 162.06 77.3845L162.073 76.8847C161.415 76.8673 160.759 76.8442 160.104 76.8154L160.082 77.3149C159.419 77.2857 158.758 77.2507 158.098 77.21L158.129 76.711C157.47 76.6703 156.813 76.6238 156.157 76.5716L156.117 77.0701C155.459 77.0176 154.802 76.9595 154.147 76.8956L154.195 76.3979C153.537 76.3338 152.881 76.264 152.227 76.1884L152.17 76.6851C151.511 76.609 150.855 76.5272 150.2 76.4397L150.267 75.9441C149.615 75.8569 148.965 75.7641 148.316 75.6656L148.241 76.1599C147.585 76.0602 146.93 75.9547 146.278 75.8435L146.362 75.3506C145.712 75.24 145.064 75.1236 144.419 75.0016L144.326 75.493C143.676 75.3701 143.028 75.2416 142.382 75.1075L142.483 74.618C141.837 74.4837 141.193 74.3439 140.55 74.1984L140.44 74.6861C139.795 74.5399 139.152 74.3882 138.511 74.2309L138.63 73.7453C137.99 73.5881 137.352 73.4253 136.716 73.257L136.588 73.7403C135.948 73.5707 135.31 73.3955 134.674 73.2148L134.81 72.7339C134.177 72.554 133.547 72.3686 132.919 72.1777L132.773 72.6561C132.139 72.4634 131.507 72.2652 130.878 72.0614L131.032 71.5857C130.405 71.3828 129.78 71.1743 129.159 70.9605L128.996 71.4333C128.371 71.2183 127.748 70.9979 127.128 70.7721L127.299 70.3023C126.679 70.0765 126.062 69.8453 125.447 69.6087L125.267 70.0754C124.65 69.8378 124.035 69.5948 123.423 69.3465L123.611 68.8832C123.001 68.6355 122.393 68.3824 121.788 68.1242L121.592 68.584C120.983 68.3239 120.377 68.0585 119.773 67.7879L119.978 67.3317C119.377 67.0623 118.78 66.7877 118.185 66.5079L117.972 66.9603C117.373 66.6783 116.777 66.3912 116.184 66.0988L116.405 65.6503C115.814 65.3591 115.226 65.0627 114.641 64.7613L114.412 65.2057C113.824 64.9027 113.239 64.5946 112.658 64.2815L112.895 63.8412C112.315 63.5286 111.737 63.2109 111.163 62.8882L110.918 63.3241C110.342 62.9999 109.768 62.6707 109.198 62.3365L109.451 61.9052C108.883 61.5721 108.318 61.234 107.757 60.8911L107.496 61.3177C106.931 60.9727 106.37 60.6227 105.812 60.2679L106.08 59.846C105.524 59.4928 104.972 59.1347 104.424 58.7719L104.148 59.1889C103.596 58.8236 103.048 58.4536 102.503 58.0787L102.786 57.6668C102.243 57.2935 101.704 56.9155 101.169 56.5327L100.878 56.9395C100.34 56.5549 99.8059 56.1655 99.2753 55.7716L99.5734 55.3701C99.0445 54.9773 98.5192 54.5799 97.9978 54.1779L97.6925 54.5739C97.1687 54.17 96.6487 53.7615 96.1327 53.3485L96.4451 52.9581C95.9309 52.5466 95.4206 52.1306 94.9143 51.7102L94.5948 52.0948C94.0858 51.6721 93.5808 51.245 93.0798 50.8134L93.4061 50.4345C92.9074 50.0049 92.4127 49.5708 91.922 49.1325L91.5889 49.5053C91.0955 49.0644 90.6062 48.6192 90.121 48.1696L90.4609 47.8029C89.9779 47.3554 89.4991 46.9035 89.0245 46.4475L88.6781 46.808C88.2012 46.3497 87.7285 45.8872 87.2602 45.4205L87.6131 45.0663C87.1467 44.6015 86.6845 44.1326 86.2267 43.6595L85.8674 44.0072C85.4075 43.5319 84.9519 43.0525 84.5007 42.5691L84.8663 42.2279C84.4172 41.7466 83.9724 41.2612 83.5321 40.7718L83.1604 41.1062C82.7181 40.6145 82.2802 40.1189 81.8469 39.6192L82.2246 39.2916C81.7933 38.7943 81.3665 38.293 80.9444 37.7878L80.5607 38.1085C80.1366 37.6011 79.7172 37.0898 79.3024 36.5747L79.6919 36.2611C79.279 35.7484 78.8708 35.2318 78.4673 34.7115L78.0722 35.018C77.6669 34.4954 77.2664 33.9691 76.8707 33.4391L77.2714 33.14C76.8776 32.6126 76.4887 32.0816 76.1046 31.5469L75.6985 31.8386C75.3126 31.3015 74.9316 30.7607 74.5554 30.2164L74.9668 29.9322C74.5928 29.3908 74.2236 28.8459 73.8594 28.2976L73.4429 28.5742C73.0771 28.0234 72.7163 27.4691 72.3605 26.9114L72.782 26.6425C72.428 26.0875 72.079 25.5291 71.7351 24.9674L71.3086 25.2285C70.9636 24.6649 70.6236 24.0979 70.2887 23.5277L70.7199 23.2745C70.3866 22.7069 70.0585 22.136 69.7355 21.5619L69.2997 21.8071C68.9757 21.2309 68.6568 20.6516 68.3431 20.0691L68.7834 19.8321C68.4715 19.2529 68.1649 18.6706 67.8636 18.0851L67.419 18.314C67.1163 17.7258 66.8189 17.1346 66.5268 16.5402L66.9756 16.3197C66.6856 15.7297 66.401 15.1367 66.1218 14.5408L65.669 14.7529C65.3886 14.1543 65.1135 13.5528 64.8439 12.9484L65.3006 12.7447C65.0325 12.1436 64.7698 11.5397 64.5126 10.9329L64.0523 11.128C63.7946 10.52 63.5424 9.90921 63.2958 9.29565L63.7597 9.10918C63.5142 8.4985 63.2743 7.88509 63.0399 7.26898L62.5726 7.44675C62.3377 6.8293 62.1084 6.20918 61.8847 5.58643L62.3553 5.41742C62.1331 4.79874 61.9165 4.17744 61.7055 3.55362L61.2319 3.71378C61.0199 3.08698 60.8137 2.45763 60.6131 1.82578L61.0897 1.67453C60.8911 1.04866 60.6981 0.420334 60.5109 -0.210403L60.0315 -0.0681C59.8435 -0.701538 59.6612 -1.3374 59.4846 -1.97562L59.9666 -2.1089C59.7911 -2.74321 59.6214 -3.37985 59.4576 -4.01878L58.9732 -3.89456C58.8094 -4.53348 58.6513 -5.17465 58.4991 -5.81805L58.9856 -5.93318C58.8341 -6.57355 58.6884 -7.21611 58.5486 -7.86081L58.06 -7.75484C57.92 -8.40016 57.7859 -9.04762 57.6577 -9.69717L58.1483 -9.79398C58.0211 -10.4383 57.8998 -11.0846 57.7844 -11.733L57.2922 -11.6454C57.1762 -12.2968 57.0662 -12.9503 56.9622 -13.6057L57.456 -13.6841C57.3532 -14.3321 57.2562 -14.982 57.1652 -15.6338L56.67 -15.5646C56.5787 -16.2184 56.4933 -16.8741 56.414 -17.5317L56.9104 -17.5916C56.8315 -18.2456 56.7585 -18.9015 56.6915 -19.559L56.1941 -19.5084C56.1274 -20.1633 56.0667 -20.82 56.012 -21.4783L56.5103 -21.5197C56.4558 -22.175 56.4073 -22.8319 56.3648 -23.4905L55.8659 -23.4583C55.8233 -24.1178 55.7868 -24.779 55.7563 -25.4417L56.2558 -25.4647C56.2257 -26.1194 56.2016 -26.7757 56.1835 -27.4335L55.6837 -27.4197C55.6654 -28.0806 55.6533 -28.7429 55.6472 -29.4066L56.1471 -29.4112C56.1441 -29.7416 56.1426 -30.0723 56.1426 -30.4033C56.1426 -30.7345 56.1441 -31.0652 56.1471 -31.3956L55.6472 -31.4002C55.6533 -32.064 55.6654 -32.7263 55.6837 -33.3871L56.1835 -33.3733C56.2016 -34.0311 56.2257 -34.6874 56.2558 -35.3422L55.7563 -35.3651C55.7868 -36.0278 55.8233 -36.689 55.8659 -37.3485L56.3648 -37.3164C56.4073 -37.9749 56.4558 -38.6318 56.5103 -39.2871L56.012 -39.3285C56.0667 -39.9868 56.1275 -40.6435 56.1941 -41.2984L56.6916 -41.2478C56.7585 -41.9054 56.8315 -42.5612 56.9104 -43.2152L56.414 -43.2752C56.4934 -43.9327 56.5787 -44.5884 56.67 -45.2422L57.1652 -45.1731C57.2563 -45.8249 57.3532 -46.4748 57.4561 -47.1228L56.9622 -47.2011C57.0663 -47.8565 57.1763 -48.51 57.2922 -49.1614L57.7845 -49.0738C57.8999 -49.7222 58.0212 -50.3685 58.1483 -51.0128L57.6578 -51.1096C57.7859 -51.7592 57.92 -52.4066 58.06 -53.052L58.5486 -52.946C58.6885 -53.5907 58.8342 -54.2333 58.9857 -54.8736L58.4991 -54.9887C58.6513 -55.6321 58.8094 -56.2733 58.9733 -56.9122L59.4576 -56.788C59.6215 -57.4269 59.7912 -58.0636 59.9666 -58.6979L59.4847 -58.8312C59.6612 -59.4694 59.8435 -60.1052 60.0316 -60.7387L60.5109 -60.5964C60.6981 -61.2271 60.8911 -61.8554 61.0897 -62.4813L60.6132 -62.6325C60.8137 -63.2644 61.02 -63.8938 61.2319 -64.5205L61.7056 -64.3604C61.9165 -64.9842 62.1331 -65.6055 62.3553 -66.2242L61.8848 -66.3932C62.1084 -67.0159 62.3377 -67.6361 62.5726 -68.2535L63.0399 -68.0757C63.2743 -68.6918 63.5143 -69.3053 63.7597 -69.9159L63.2958 -70.1024C63.5425 -70.716 63.7946 -71.3268 64.0523 -71.9347L64.5127 -71.7396C64.7698 -72.3464 65.0325 -72.9504 65.3006 -73.5514L64.844 -73.7551C65.1135 -74.3595 65.3886 -74.9611 65.6691 -75.5596L66.1218 -75.3475C66.4011 -75.9435 66.6857 -76.5365 66.9756 -77.1264L66.5269 -77.347C66.8189 -77.9413 67.1163 -78.5325 67.4191 -79.1207L67.8636 -78.8919C68.165 -79.4773 68.4716 -80.0596 68.7834 -80.6388L68.3432 -80.8758C68.6568 -81.4583 68.9757 -82.0377 69.2998 -82.6138L69.7356 -82.3686C70.0585 -82.9427 70.3867 -83.5136 70.72 -84.0812L70.2888 -84.3344C70.6236 -84.9046 70.9636 -85.4716 71.3087 -86.0352L71.7351 -85.7741C72.079 -86.3358 72.4281 -86.8942 72.7821 -87.4492L72.3606 -87.7181C72.7163 -88.2758 73.0772 -88.8301 73.443 -89.3809L73.8595 -89.1043C74.2237 -89.6527 74.5928 -90.1975 74.9668 -90.7389L74.5555 -91.0231C74.9316 -91.5674 75.3126 -92.1082 75.6985 -92.6453L76.1046 -92.3536C76.4887 -92.8883 76.8777 -93.4193 77.2714 -93.9467L76.8708 -94.2458C77.2665 -94.7758 77.667 -95.3021 78.0722 -95.8247L78.4673 -95.5182C78.8708 -96.0385 79.279 -96.5551 79.6919 -97.0678L79.3024 -97.3814C79.7172 -97.8965 80.1367 -98.4078 80.5607 -98.9152L80.9444 -98.5945C81.3666 -99.0997 81.7934 -99.601 82.2247 -100.098L81.8469 -100.426C82.2802 -100.926 82.7181 -101.421 83.1605 -101.913L83.5322 -101.579C83.9724 -102.068 84.4172 -102.553 84.8663 -103.035L84.5008 -103.376C84.9519 -103.859 85.4075 -104.339 85.8674 -104.814L86.2267 -104.466C86.6846 -104.939 87.1467 -105.408 87.6132 -105.873L87.2602 -106.227C87.7286 -106.694 88.2012 -107.156 88.6781 -107.615L89.0246 -107.254C89.4992 -107.71 89.978 -108.162 90.4609 -108.61L90.1211 -108.976C90.6062 -109.426 91.0955 -109.871 91.5889 -110.312L91.9221 -109.939C92.4127 -110.378 92.9074 -110.812 93.4062 -111.241L93.0798 -111.62C93.5808 -112.052 94.0859 -112.479 94.5949 -112.902L94.9143 -112.517C95.4207 -112.937 95.9309 -113.353 96.4451 -113.765L96.1327 -114.155C96.6488 -114.568 97.1688 -114.977 97.6926 -115.381L97.9979 -114.985C98.5193 -115.387 99.0445 -115.784 99.5735 -116.177L99.2754 -116.578C99.806 -116.972 100.34 -117.362 100.878 -117.746L101.169 -117.339C101.704 -117.722 102.243 -118.1 102.786 -118.473L102.503 -118.885C103.048 -119.26 103.596 -119.63 104.148 -119.996L104.424 -119.579C104.972 -119.941 105.524 -120.299 106.08 -120.653L105.812 -121.075C106.37 -121.429 106.931 -121.779 107.496 -122.124L107.757 -121.698C108.318 -122.041 108.883 -122.379 109.451 -122.712L109.198 -123.143C109.768 -123.477 110.342 -123.807 110.918 -124.131L111.163 -123.695C111.737 -124.018 112.315 -124.335 112.895 -124.648L112.658 -125.088C113.239 -125.401 113.824 -125.709 114.412 -126.012L114.641 -125.568C115.226 -125.869 115.814 -126.166 116.405 -126.457L116.184 -126.906C116.777 -127.198 117.373 -127.485 117.972 -127.767L118.185 -127.315C118.78 -127.594 119.378 -127.869 119.978 -128.138L119.773 -128.595C120.377 -128.865 120.983 -129.131 121.592 -129.391L121.788 -128.931C122.393 -129.189 123.001 -129.442 123.611 -129.69L123.423 -130.153C124.035 -130.401 124.65 -130.644 125.268 -130.882L125.447 -130.415C126.062 -130.652 126.679 -130.883 127.299 -131.109L127.128 -131.579C127.748 -131.805 128.371 -132.025 128.996 -132.24L129.159 -131.767C129.781 -131.981 130.405 -132.189 131.032 -132.392L130.878 -132.868C131.507 -133.072 132.139 -133.27 132.774 -133.463L132.919 -132.984C133.547 -133.175 134.178 -133.361 134.811 -133.541L134.674 -134.021C135.31 -134.202 135.948 -134.377 136.588 -134.547L136.716 -134.064C137.352 -134.232 137.99 -134.395 138.631 -134.552L138.511 -135.038C139.152 -135.195 139.795 -135.347 140.44 -135.493L140.551 -135.005C141.193 -135.151 141.837 -135.29 142.484 -135.425L142.382 -135.914C143.028 -136.048 143.676 -136.177 144.326 -136.3L144.419 -135.808C145.065 -135.93 145.712 -136.047 146.362 -136.157L146.278 -136.65C146.93 -136.761 147.585 -136.867 148.241 -136.967L148.316 -136.472C148.965 -136.571 149.615 -136.664 150.267 -136.751L150.201 -137.246C150.855 -137.334 151.512 -137.416 152.17 -137.492L152.227 -136.995C152.881 -137.071 153.537 -137.141 154.195 -137.205L154.147 -137.702C154.802 -137.766 155.459 -137.824 156.118 -137.877L156.157 -137.378C156.813 -137.43 157.47 -137.477 158.129 -137.518L158.099 -138.017C158.758 -138.057 159.419 -138.092 160.082 -138.122L160.104 -137.622C160.759 -137.651 161.415 -137.674 162.073 -137.691L162.06 -138.191C162.721 -138.209 163.383 -138.22 164.047 -138.226L164.052 -137.726C164.382 -137.729 164.713 -137.73 165.044 -137.73C165.375 -137.73 165.706 -137.729 166.036 -137.726L166.041 -138.226C166.705 -138.22 167.367 -138.209 168.028 -138.191L168.015 -137.691C168.673 -137.674 169.329 -137.651 169.984 -137.622L170.006 -138.122C170.669 -138.092 171.33 -138.057 171.989 -138.017L171.959 -137.518C172.617 -137.477 173.275 -137.43 173.931 -137.378L173.97 -137.877C174.629 -137.824 175.286 -137.766 175.941 -137.702L175.893 -137.205C176.55 -137.14 177.206 -137.071 177.861 -136.995L177.918 -137.492C178.576 -137.416 179.233 -137.334 179.887 -137.246L179.821 -136.751C180.473 -136.664 181.123 -136.571 181.771 -136.472L181.846 -136.967C182.503 -136.867 183.157 -136.761 183.81 -136.65L183.726 -136.157C184.376 -136.047 185.023 -135.93 185.669 -135.808L185.762 -136.3C186.412 -136.177 187.06 -136.048 187.706 -135.914L187.604 -135.425C188.251 -135.29 188.895 -135.151 189.537 -135.005L189.648 -135.493C190.293 -135.347 190.936 -135.195 191.576 -135.038L191.457 -134.552C192.098 -134.395 192.736 -134.232 193.371 -134.064L193.499 -134.547C194.14 -134.377 194.778 -134.202 195.414 -134.021L195.277 -133.541C195.91 -133.361 196.541 -133.175 197.169 -132.984L197.314 -133.463C197.949 -133.27 198.58 -133.072 199.21 -132.868L199.056 -132.392C199.683 -132.189 200.307 -131.981 200.929 -131.767L201.092 -132.24C201.717 -132.025 202.34 -131.805 202.96 -131.579L202.789 -131.109C203.409 -130.883 204.026 -130.652 204.641 -130.415L204.82 -130.882C205.438 -130.644 206.052 -130.401 206.664 -130.153L206.476 -129.69C207.087 -129.442 207.695 -129.189 208.299 -128.931L208.496 -129.391C209.105 -129.131 209.711 -128.865 210.314 -128.595L210.11 -128.138C210.71 -127.869 211.308 -127.594 211.903 -127.315L212.115 -127.767C212.715 -127.485 213.311 -127.198 213.904 -126.905L213.683 -126.457C214.274 -126.166 214.862 -125.869 215.447 -125.568L215.676 -126.012C216.264 -125.709 216.848 -125.401 217.43 -125.088L217.193 -124.648C217.773 -124.335 218.35 -124.018 218.924 -123.695L219.169 -124.131C219.746 -123.807 220.319 -123.477 220.889 -123.143L220.637 -122.712C221.205 -122.379 221.77 -122.041 222.331 -121.698L222.592 -122.124C223.157 -121.779 223.718 -121.429 224.276 -121.075L224.008 -120.653C224.563 -120.299 225.115 -119.941 225.664 -119.579L225.94 -119.996C226.492 -119.63 227.04 -119.26 227.585 -118.885L227.302 -118.473C227.844 -118.1 228.383 -117.722 228.919 -117.339L229.209 -117.746C229.747 -117.362 230.282 -116.972 230.812 -116.578L230.514 -116.177C231.043 -115.784 231.568 -115.387 232.09 -114.985L232.395 -115.381C232.919 -114.977 233.439 -114.568 233.955 -114.155L233.643 -113.765C234.157 -113.353 234.667 -112.937 235.173 -112.517L235.493 -112.901C236.002 -112.479 236.507 -112.052 237.008 -111.62L236.682 -111.241C237.18 -110.812 237.675 -110.378 238.166 -109.939L238.499 -110.312C238.992 -109.871 239.482 -109.426 239.967 -108.976L239.627 -108.61C240.11 -108.162 240.589 -107.71 241.063 -107.254L241.41 -107.615C241.886 -107.156 242.359 -106.694 242.827 -106.227L242.475 -105.873C242.941 -105.408 243.403 -104.939 243.861 -104.466L244.22 -104.814C244.68 -104.339 245.136 -103.859 245.587 -103.376L245.221 -103.035C245.671 -102.553 246.115 -102.068 246.556 -101.578L246.927 -101.913C247.37 -101.421 247.807 -100.925 248.241 -100.426L247.863 -100.098C248.294 -99.6009 248.721 -99.0996 249.143 -98.5945L249.527 -98.9151C249.951 -98.4077 250.37 -97.8964 250.785 -97.3813L250.396 -97.0678C250.809 -96.555 251.217 -96.0385 251.62 -95.5182L252.015 -95.8246C252.421 -95.3021 252.821 -94.7758 253.217 -94.2457L252.816 -93.9466C253.21 -93.4193 253.599 -92.8882 253.983 -92.3535L254.389 -92.6453C254.775 -92.1082 255.156 -91.5674 255.532 -91.023L255.121 -90.7388C255.495 -90.1975 255.864 -89.6526 256.228 -89.1042L256.645 -89.3809C257.011 -88.8301 257.371 -88.2758 257.727 -87.7181L257.306 -87.4492C257.66 -86.8942 258.009 -86.3358 258.353 -85.774L258.779 -86.0351C259.124 -85.4715 259.464 -84.9046 259.799 -84.3343L259.368 -84.0812C259.701 -83.5135 260.029 -82.9427 260.352 -82.3686L260.788 -82.6137C261.112 -82.0376 261.431 -81.4583 261.745 -80.8757L261.304 -80.6387C261.616 -80.0595 261.923 -79.4772 262.224 -78.8918L262.669 -79.1206C262.971 -78.5325 263.269 -77.9412 263.561 -77.3469L263.112 -77.1264C263.402 -76.5364 263.687 -75.9434 263.966 -75.3474L264.419 -75.5596C264.699 -74.961 264.974 -74.3595 265.244 -73.755L264.787 -73.5513C265.055 -72.9503 265.318 -72.3463 265.575 -71.7395L266.035 -71.9346C266.293 -71.3267 266.545 -70.7159 266.792 -70.1023L266.328 -69.9158C266.573 -69.3052 266.813 -68.6917 267.048 -68.0756L267.515 -68.2534C267.75 -67.636 267.979 -67.0158 268.203 -66.3931L267.732 -66.2241C267.955 -65.6054 268.171 -64.9841 268.382 -64.3603L268.856 -64.5204C269.068 -63.8936 269.274 -63.2643 269.475 -62.6324L268.998 -62.4812C269.197 -61.8553 269.39 -61.227 269.577 -60.5962L270.056 -60.7385C270.244 -60.1051 270.427 -59.4693 270.603 -58.831L270.121 -58.6978C270.297 -58.0634 270.466 -57.4268 270.63 -56.7879L271.114 -56.9121C271.278 -56.2732 271.436 -55.632 271.589 -54.9886L271.102 -54.8735C271.254 -54.2331 271.399 -53.5906 271.539 -52.9458L272.028 -53.0518C272.168 -52.4065 272.302 -51.759 272.43 -51.1095L271.939 -51.0127C272.067 -50.3684 272.188 -49.722 272.303 -49.0737L272.796 -49.1613C272.911 -48.5098 273.021 -47.8564 273.125 -47.201L272.632 -47.1226C272.734 -46.4746 272.831 -45.8247 272.922 -45.1729L273.418 -45.242C273.509 -44.5882 273.594 -43.9325 273.674 -43.275L273.177 -43.2151C273.256 -42.561 273.329 -41.9052 273.396 -41.2476L273.894 -41.2983C273.96 -40.6433 274.021 -39.9867 274.076 -39.3283L273.577 -39.2869C273.632 -38.6317 273.68 -37.9747 273.723 -37.3162L274.222 -37.3484C274.264 -36.6888 274.301 -36.0276 274.331 -35.3649L273.832 -35.342C273.862 -34.6872 273.886 -34.0309 273.904 -33.3731L274.404 -33.3869Z" stroke="#FF6D00" stroke-dasharray="2 2"/>
<path opacity="0.7" d="M293.49 -16.078C293.527 -15.0759 293.552 -14.0707 293.565 -13.0626L293.065 -13.0564C293.071 -12.5544 293.074 -12.0517 293.074 -11.5482C293.074 -11.0447 293.071 -10.542 293.065 -10.0399L293.565 -10.0337C293.552 -9.02561 293.527 -8.02042 293.49 -7.01833L292.991 -7.03683C292.954 -6.0344 292.904 -5.03508 292.842 -4.03902L293.341 -4.00813C293.279 -3.00179 293.205 -1.99872 293.118 -0.9991L292.62 -1.0424C292.533 -0.0435791 292.434 0.951797 292.322 1.94357L292.819 1.99928C292.707 3.00119 292.582 3.99944 292.446 4.99387L291.95 4.92572C291.814 5.91862 291.665 6.9077 291.504 7.89282L291.998 7.97336C291.835 8.96817 291.661 9.95895 291.474 10.9456L290.983 10.8526C290.796 11.8372 290.598 12.8176 290.388 13.7936L290.877 13.8988C290.665 14.884 290.44 15.8647 290.204 16.8408L289.718 16.7233C289.483 17.6971 289.235 18.6663 288.976 19.6308L289.459 19.7606C289.198 20.7334 288.924 21.7015 288.639 22.6647L288.16 22.5228C287.876 23.4834 287.58 24.439 287.272 25.3896L287.748 25.5435C287.438 26.5017 287.116 27.4546 286.783 28.4023L286.311 28.2365C285.979 29.1815 285.635 30.1212 285.28 31.0554L285.748 31.233C285.39 32.1741 285.021 33.1096 284.641 34.0394L284.178 33.8501C283.798 34.7771 283.408 35.6985 283.006 36.614L283.464 36.8149C283.06 37.7365 282.644 38.6522 282.218 39.5619L281.765 39.3497C281.34 40.2565 280.904 41.1573 280.457 42.0518L280.904 42.2754C280.454 43.1754 279.993 44.0691 279.522 44.9564L279.08 44.7218C278.61 45.6062 278.13 46.4842 277.639 47.3557L278.074 47.6012C277.58 48.4774 277.076 49.3471 276.561 50.2099L276.131 49.9537C275.618 50.8136 275.094 51.6667 274.56 52.5129L274.983 52.7797C274.446 53.6302 273.899 54.4737 273.342 55.3101L272.926 55.0328C272.371 55.8662 271.806 56.6924 271.23 57.5114L271.639 57.7988C271.061 58.6216 270.473 59.437 269.876 60.2449L269.474 59.9475C268.878 60.7524 268.273 61.5498 267.658 62.3396L268.052 62.6468C267.435 63.44 266.807 64.2256 266.17 65.0032L265.783 64.6864C265.149 65.461 264.505 66.2278 263.852 66.9865L264.231 67.3127C263.575 68.0746 262.91 68.8284 262.236 69.5741L261.865 69.2387C261.194 69.9812 260.513 70.7155 259.824 71.4415L260.186 71.7858C259.494 72.5146 258.793 73.2351 258.083 73.947L257.729 73.5939C257.022 74.3027 256.306 75.0029 255.582 75.6944L255.928 76.056C255.201 76.7502 254.465 77.4356 253.721 78.1122L253.385 77.7423C252.644 78.4156 251.896 79.0801 251.139 79.7356L251.466 80.1136C250.706 80.7716 249.938 81.4205 249.162 82.0602L248.844 81.6743C248.072 82.3107 247.292 82.938 246.504 83.5559L246.812 83.9494C246.021 84.5695 245.222 85.1804 244.416 85.7817L244.117 85.3809C243.315 85.9789 242.506 86.5674 241.688 87.1464L241.977 87.5544C241.157 88.1354 240.33 88.7067 239.495 89.2683L239.216 88.8534C238.386 89.4116 237.549 89.9601 236.704 90.4987L236.973 90.9202C236.126 91.4607 235.272 91.9913 234.41 92.5117L234.152 92.0838C233.296 92.6009 232.433 93.108 231.564 93.6049L231.812 94.039C230.939 94.5377 230.06 95.0262 229.174 95.5043L228.936 95.0643C228.057 95.5391 227.171 96.0036 226.278 96.4577L226.505 96.9033C225.609 97.359 224.707 97.8042 223.798 98.2388L223.583 97.7878C222.681 98.2191 221.773 98.64 220.86 99.0501L221.065 99.5062C220.148 99.9178 219.225 100.319 218.296 100.709L218.103 100.248C217.182 100.635 216.255 101.011 215.322 101.376L215.505 101.842C214.569 102.208 213.627 102.564 212.681 102.908L212.51 102.438C211.571 102.78 210.627 103.11 209.678 103.43L209.837 103.904C208.885 104.224 207.927 104.534 206.965 104.832L206.817 104.354C205.863 104.65 204.904 104.934 203.941 105.207L204.077 105.688C203.11 105.962 202.138 106.224 201.162 106.476L201.038 105.991C200.071 106.24 199.1 106.477 198.124 106.703L198.237 107.19C197.258 107.417 196.274 107.632 195.287 107.836L195.186 107.346C194.209 107.548 193.227 107.738 192.241 107.916L192.33 108.408C191.342 108.587 190.349 108.755 189.353 108.91L189.276 108.416C188.29 108.57 187.3 108.713 186.307 108.844L186.372 109.339C185.376 109.47 184.377 109.59 183.374 109.697L183.321 109.2C182.329 109.307 181.333 109.402 180.334 109.485L180.376 109.983C179.376 110.066 178.372 110.138 177.365 110.197L177.336 109.698C176.34 109.757 175.34 109.805 174.338 109.84L174.355 110.34C173.353 110.376 172.348 110.399 171.34 110.411L171.334 109.911C170.832 109.917 170.329 109.92 169.825 109.92C169.322 109.92 168.819 109.917 168.317 109.911L168.311 110.411C167.302 110.399 166.297 110.376 165.295 110.34L165.313 109.84C164.31 109.805 163.311 109.757 162.314 109.698L162.285 110.197C161.278 110.138 160.275 110.066 159.274 109.983L159.316 109.485C158.317 109.402 157.321 109.307 156.329 109.2L156.276 109.697C155.273 109.59 154.274 109.47 153.278 109.339L153.344 108.844C152.35 108.713 151.36 108.57 150.374 108.416L150.297 108.91C149.301 108.755 148.308 108.587 147.32 108.408L147.409 107.916C146.423 107.738 145.442 107.548 144.464 107.346L144.363 107.836C143.376 107.632 142.392 107.417 141.414 107.19L141.526 106.703C140.551 106.477 139.579 106.24 138.613 105.991L138.488 106.476C137.512 106.224 136.54 105.962 135.573 105.688L135.71 105.207C134.746 104.934 133.787 104.65 132.834 104.354L132.686 104.832C131.723 104.534 130.765 104.224 129.813 103.904L129.972 103.43C129.023 103.11 128.079 102.78 127.141 102.438L126.97 102.908C126.023 102.564 125.081 102.208 124.146 101.842L124.328 101.376C123.396 101.011 122.469 100.635 121.548 100.248L121.354 100.709C120.425 100.319 119.502 99.9178 118.586 99.5062L118.79 99.0501C117.877 98.6399 116.969 98.2191 116.068 97.7878L115.852 98.2388C114.944 97.8042 114.041 97.359 113.146 96.9033L113.372 96.4576C112.48 96.0036 111.594 95.5391 110.714 95.0643L110.476 95.5043C109.59 95.0262 108.711 94.5377 107.839 94.039L108.087 93.6049C107.217 93.108 106.354 92.6009 105.499 92.0838L105.24 92.5117C104.379 91.9913 103.524 91.4607 102.677 90.9202L102.946 90.4987C102.101 89.9601 101.264 89.4116 100.434 88.8534L100.155 89.2683C99.3204 88.7067 98.4929 88.1353 97.6728 87.5543L97.9619 87.1463C97.1447 86.5674 96.3351 85.9789 95.5331 85.3809L95.2342 85.7817C94.4278 85.1804 93.629 84.5695 92.8381 83.9493L93.1467 83.5559C92.3587 82.9379 91.5785 82.3107 90.8064 81.6743L90.4884 82.0601C89.7122 81.4204 88.9442 80.7715 88.1844 80.1136L88.5117 79.7356C87.7547 79.0801 87.0059 78.4156 86.2655 77.7423L85.9291 78.1122C85.1851 77.4356 84.4496 76.7502 83.7227 76.056L84.068 75.6944C83.3439 75.0028 82.6283 74.3026 81.9215 73.5939L81.5675 73.947C80.8575 73.2351 80.1563 72.5146 79.4641 71.7858L79.8266 71.4414C79.1371 70.7155 78.4566 69.9811 77.7851 69.2386L77.4143 69.574C76.74 68.8284 76.0749 68.0745 75.4191 67.3126L75.798 66.9865C75.1449 66.2277 74.5011 65.461 73.8668 64.6864L73.48 65.0032C72.8431 64.2255 72.2157 63.44 71.598 62.6468L71.9925 62.3396C71.3775 61.5498 70.7721 60.7524 70.1766 59.9475L69.7746 60.2449C69.1768 59.437 68.5888 58.6215 68.0108 57.7987L68.42 57.5113C67.8447 56.6924 67.2794 55.8662 66.7242 55.0328L66.3081 55.31C65.7509 54.4737 65.2038 53.6302 64.6671 52.7797L65.09 52.5128C64.556 51.6666 64.0323 50.8135 63.519 49.9536L63.0896 50.2099C62.5746 49.347 62.07 48.4774 61.5761 47.6012L62.0117 47.3556C61.5204 46.4842 61.0398 45.6062 60.5699 44.7218L60.1283 44.9564C59.6568 44.0691 59.1961 43.1753 58.7464 42.2753L59.1936 42.0518C58.7466 41.1572 58.3103 40.2564 57.8851 39.3496L57.4324 39.5619C57.0059 38.6522 56.5904 37.7365 56.1861 36.8148L56.6439 36.614C56.2423 35.6984 55.8518 34.7771 55.4725 33.85L55.0097 34.0394C54.6293 33.1095 54.2602 32.174 53.9025 31.233L54.3699 31.0553C54.0148 30.1211 53.6711 29.1814 53.3389 28.2365L52.8672 28.4023C52.534 27.4546 52.2123 26.5016 51.9023 25.5435L52.3781 25.3896C52.0705 24.439 51.7746 23.4833 51.4903 22.5228L51.0109 22.6646C50.7258 21.7015 50.4525 20.7334 50.1911 19.7605L50.674 19.6308C50.4148 18.6662 50.1674 17.697 49.9319 16.7232L49.4459 16.8408C49.2098 15.8646 48.9856 14.8839 48.7735 13.8988L49.2623 13.7935C49.0521 12.8175 48.8538 11.8371 48.6676 10.8526L48.1763 10.9455C47.9897 9.95891 47.8151 8.96811 47.6527 7.97331L48.1462 7.89278C47.9854 6.90765 47.8366 5.91858 47.7 4.92567L47.2047 4.99382C47.0679 3.99939 46.9433 3.00114 46.8309 1.99924L47.3278 1.94353C47.2166 0.951752 47.1175 -0.0436249 47.0307 -1.04245L46.5326 -0.999161C46.4457 -1.99878 46.371 -3.00183 46.3088 -4.00818L46.8078 -4.03906C46.7462 -5.03513 46.6967 -6.03445 46.6596 -7.03688L46.1599 -7.01837C46.1228 -8.02048 46.098 -9.02567 46.0855 -10.0338L46.5855 -10.04C46.5793 -10.542 46.5762 -11.0447 46.5762 -11.5482C46.5762 -12.0517 46.5793 -12.5545 46.5855 -13.0565L46.0855 -13.0627C46.098 -14.0708 46.1228 -15.076 46.1599 -16.0781L46.6596 -16.0596C46.6967 -17.062 46.7462 -18.0613 46.8078 -19.0574L46.3088 -19.0883C46.3711 -20.0946 46.4457 -21.0977 46.5326 -22.0973L47.0307 -22.054C47.1175 -23.0528 47.2166 -24.0482 47.3278 -25.04L46.8309 -25.0957C46.9433 -26.0976 47.0679 -27.0958 47.2047 -28.0903L47.7 -28.0221C47.8366 -29.015 47.9854 -30.0041 48.1462 -30.9892L47.6527 -31.0698C47.8151 -32.0646 47.9897 -33.0554 48.1763 -34.042L48.6676 -33.949C48.8538 -34.9336 49.0521 -35.914 49.2623 -36.89L48.7735 -36.9953C48.9856 -37.9804 49.2098 -38.9611 49.4459 -39.9372L49.9319 -39.8197C50.1674 -40.7935 50.4149 -41.7627 50.674 -42.7272L50.1911 -42.857C50.4526 -43.8298 50.7258 -44.7979 51.0109 -45.7611L51.4903 -45.6192C51.7746 -46.5798 52.0706 -47.5354 52.3781 -48.486L51.9024 -48.6399C52.2123 -49.5981 52.534 -50.551 52.8672 -51.4987L53.3389 -51.3329C53.6711 -52.2779 54.0148 -53.2176 54.3699 -54.1518L53.9025 -54.3294C54.2602 -55.2705 54.6293 -56.206 55.0097 -57.1358L55.4725 -56.9465C55.8518 -57.8735 56.2423 -58.7949 56.644 -59.7104L56.1861 -59.9113C56.5904 -60.8329 57.0059 -61.7487 57.4324 -62.6583L57.8851 -62.4461C58.3104 -63.3529 58.7466 -64.2537 59.1936 -65.1482L58.7464 -65.3718C59.1962 -66.2718 59.6569 -67.1655 60.1283 -68.0528L60.5699 -67.8182C61.0398 -68.7026 61.5205 -69.5806 62.0117 -70.4521L61.5761 -70.6976C62.0701 -71.5739 62.5746 -72.4435 63.0897 -73.3063L63.519 -73.0501C64.0323 -73.91 64.556 -74.7631 65.09 -75.6093L64.6672 -75.8761C65.2039 -76.7266 65.7509 -77.5701 66.3081 -78.4065L66.7242 -78.1292C67.2794 -78.9626 67.8447 -79.7888 68.42 -80.6078L68.0108 -80.8952C68.5888 -81.718 69.1768 -82.5334 69.7747 -83.3414L70.1766 -83.0439C70.7722 -83.8488 71.3775 -84.6462 71.9925 -85.436L71.598 -85.7432C72.2157 -86.5364 72.8431 -87.322 73.48 -88.0996L73.8668 -87.7828C74.5012 -88.5574 75.145 -89.3242 75.7981 -90.0829L75.4191 -90.4091C76.0749 -91.171 76.74 -91.9248 77.4143 -92.6705L77.7852 -92.3351C78.4566 -93.0776 79.1372 -93.8119 79.8267 -94.5379L79.4641 -94.8822C80.1563 -95.611 80.8575 -96.3315 81.5675 -97.0434L81.9215 -96.6904C82.6284 -97.3991 83.3439 -98.0993 84.0681 -98.7908L83.7227 -99.1524C84.4496 -99.8466 85.1852 -100.532 85.9291 -101.209L86.2655 -100.839C87.0059 -101.512 87.7547 -102.177 88.5117 -102.832L88.1844 -103.21C88.9442 -103.868 89.7123 -104.517 90.4884 -105.157L90.8064 -104.771C91.5785 -105.407 92.3587 -106.034 93.1467 -106.652L92.8382 -107.046C93.629 -107.666 94.4278 -108.277 95.2342 -108.878L95.5331 -108.477C96.3351 -109.075 97.1448 -109.664 97.9619 -110.243L97.6728 -110.651C98.4929 -111.232 99.3205 -111.803 100.155 -112.365L100.434 -111.95C101.264 -112.508 102.102 -113.057 102.946 -113.595L102.677 -114.017C103.524 -114.557 104.379 -115.088 105.24 -115.608L105.499 -115.18C106.354 -115.697 107.217 -116.204 108.087 -116.701L107.839 -117.135C108.711 -117.634 109.59 -118.123 110.476 -118.601L110.714 -118.161C111.594 -118.635 112.48 -119.1 113.372 -119.554L113.146 -120C114.041 -120.455 114.944 -120.901 115.852 -121.335L116.068 -120.884C116.969 -121.316 117.877 -121.736 118.79 -122.146L118.586 -122.603C119.503 -123.014 120.425 -123.415 121.354 -123.805L121.548 -123.344C122.469 -123.731 123.396 -124.107 124.328 -124.472L124.146 -124.938C125.082 -125.304 126.023 -125.66 126.97 -126.005L127.141 -125.535C128.079 -125.876 129.023 -126.207 129.972 -126.526L129.813 -127C130.765 -127.321 131.723 -127.63 132.686 -127.928L132.834 -127.451C133.787 -127.746 134.746 -128.03 135.71 -128.303L135.573 -128.784C136.54 -129.058 137.512 -129.321 138.488 -129.572L138.613 -129.088C139.579 -129.336 140.551 -129.574 141.527 -129.8L141.414 -130.287C142.393 -130.513 143.376 -130.729 144.363 -130.932L144.464 -130.442C145.442 -130.644 146.423 -130.834 147.409 -131.013L147.32 -131.505C148.308 -131.684 149.301 -131.851 150.297 -132.007L150.374 -131.513C151.36 -131.667 152.35 -131.809 153.344 -131.94L153.278 -132.436C154.274 -132.567 155.273 -132.686 156.276 -132.794L156.329 -132.297C157.321 -132.403 158.317 -132.498 159.316 -132.581L159.275 -133.08C160.275 -133.163 161.278 -133.234 162.285 -133.294L162.314 -132.795C163.311 -132.854 164.31 -132.901 165.313 -132.937L165.295 -133.436C166.297 -133.472 167.302 -133.496 168.311 -133.508L168.317 -133.008C168.819 -133.014 169.322 -133.017 169.825 -133.017C170.329 -133.017 170.832 -133.014 171.334 -133.008L171.34 -133.508C172.348 -133.496 173.353 -133.472 174.355 -133.436L174.338 -132.937C175.34 -132.901 176.34 -132.854 177.336 -132.795L177.365 -133.294C178.372 -133.234 179.376 -133.163 180.376 -133.08L180.334 -132.581C181.333 -132.498 182.329 -132.403 183.321 -132.297L183.374 -132.794C184.377 -132.686 185.377 -132.567 186.372 -132.436L186.307 -131.94C187.3 -131.809 188.29 -131.667 189.276 -131.513L189.353 -132.007C190.349 -131.851 191.342 -131.684 192.33 -131.505L192.241 -131.013C193.227 -130.834 194.209 -130.644 195.186 -130.442L195.287 -130.932C196.275 -130.729 197.258 -130.513 198.237 -130.287L198.124 -129.8C199.1 -129.574 200.071 -129.336 201.038 -129.088L201.162 -129.572C202.139 -129.321 203.11 -129.058 204.077 -128.784L203.941 -128.303C204.904 -128.03 205.863 -127.746 206.817 -127.451L206.965 -127.928C207.927 -127.63 208.885 -127.321 209.838 -127L209.678 -126.526C210.627 -126.207 211.571 -125.876 212.51 -125.535L212.681 -126.005C213.627 -125.66 214.569 -125.304 215.505 -124.938L215.322 -124.472C216.255 -124.107 217.182 -123.731 218.103 -123.344L218.296 -123.805C219.225 -123.415 220.148 -123.014 221.065 -122.603L220.86 -122.146C221.773 -121.736 222.681 -121.316 223.583 -120.884L223.798 -121.335C224.707 -120.901 225.609 -120.455 226.505 -120L226.278 -119.554C227.171 -119.1 228.057 -118.635 228.936 -118.161L229.174 -118.601C230.06 -118.123 230.939 -117.634 231.812 -117.135L231.564 -116.701C232.433 -116.204 233.296 -115.697 234.152 -115.18L234.41 -115.608C235.272 -115.088 236.126 -114.557 236.973 -114.017L236.704 -113.595C237.549 -113.056 238.386 -112.508 239.216 -111.95L239.495 -112.365C240.33 -111.803 241.157 -111.232 241.977 -110.651L241.688 -110.243C242.506 -109.664 243.315 -109.075 244.117 -108.477L244.416 -108.878C245.223 -108.277 246.021 -107.666 246.812 -107.046L246.504 -106.652C247.292 -106.034 248.072 -105.407 248.844 -104.771L249.162 -105.157C249.938 -104.517 250.706 -103.868 251.466 -103.21L251.139 -102.832C251.896 -102.177 252.644 -101.512 253.385 -100.839L253.721 -101.209C254.465 -100.532 255.201 -99.8466 255.928 -99.1524L255.582 -98.7908C256.306 -98.0993 257.022 -97.399 257.729 -96.6903L258.083 -97.0434C258.793 -96.3315 259.494 -95.611 260.186 -94.8822L259.824 -94.5378C260.513 -93.8119 261.194 -93.0775 261.865 -92.3351L262.236 -92.6704C262.91 -91.9248 263.575 -91.1709 264.231 -90.409L263.852 -90.0829C264.505 -89.3241 265.149 -88.5574 265.783 -87.7828L266.17 -88.0996C266.807 -87.3219 267.435 -86.5364 268.052 -85.7432L267.658 -85.436C268.273 -84.6462 268.878 -83.8488 269.474 -83.0439L269.876 -83.3413C270.473 -82.5334 271.061 -81.7179 271.639 -80.8951L271.23 -80.6077C271.806 -79.7888 272.371 -78.9626 272.926 -78.1292L273.342 -78.4064C273.899 -77.5701 274.446 -76.7266 274.983 -75.8761L274.56 -75.6092C275.094 -74.7631 275.618 -73.9099 276.131 -73.05L276.561 -73.3063C277.076 -72.4435 277.58 -71.5738 278.074 -70.6976L277.639 -70.452C278.13 -69.5806 278.61 -68.7026 279.08 -67.8182L279.522 -68.0528C279.993 -67.1655 280.454 -66.2717 280.904 -65.3717L280.457 -65.1482C280.904 -64.2536 281.34 -63.3528 281.765 -62.446L282.218 -62.6583C282.644 -61.7486 283.06 -60.8329 283.464 -59.9113L283.006 -59.7104C283.408 -58.7949 283.799 -57.8735 284.178 -56.9464L284.641 -57.1358C285.021 -56.2059 285.39 -55.2704 285.748 -54.3294L285.28 -54.1518C285.635 -53.2175 285.979 -52.2778 286.311 -51.3329L286.783 -51.4987C287.116 -50.551 287.438 -49.598 287.748 -48.6399L287.272 -48.486C287.58 -47.5354 287.876 -46.5797 288.16 -45.6192L288.639 -45.761C288.924 -44.7979 289.198 -43.8298 289.459 -42.8569L288.976 -42.7272C289.235 -41.7626 289.483 -40.7934 289.718 -39.8196L290.204 -39.9372C290.44 -38.961 290.665 -37.9803 290.877 -36.9952L290.388 -36.89C290.598 -35.9139 290.796 -34.9335 290.983 -33.949L291.474 -34.0419C291.661 -33.0553 291.835 -32.0645 291.998 -31.0697L291.504 -30.9892C291.665 -30.0041 291.814 -29.015 291.95 -28.0221L292.446 -28.0902C292.582 -27.0958 292.707 -26.0975 292.819 -25.0956L292.322 -25.0399C292.434 -24.0482 292.533 -23.0528 292.62 -22.0539L293.118 -22.0972C293.205 -21.0976 293.279 -20.0946 293.341 -19.0882L292.842 -19.0573C292.904 -18.0613 292.954 -17.062 292.991 -16.0595L293.49 -16.078Z" stroke="#FF6D00" stroke-linejoin="round" stroke-dasharray="3 3"/>
<path opacity="0.5" d="M300.539 1.05987C300.632 2.69912 300.694 4.3464 300.725 6.00114L300.225 6.01054C300.241 6.8336 300.248 7.65854 300.248 8.48526C300.248 9.31197 300.241 10.1369 300.225 10.9599L300.725 10.9693C300.694 12.6241 300.632 14.2713 300.539 15.9106L300.04 15.8824C299.947 17.5304 299.823 19.1703 299.668 20.8014L300.166 20.8485C300.01 22.498 299.823 24.1387 299.605 25.7699L299.11 25.7038C298.892 27.338 298.643 28.9626 298.365 30.5773L298.857 30.6622C298.576 32.2919 298.265 33.9113 297.924 35.5199L297.435 35.4161C297.092 37.0287 296.72 38.6304 296.318 40.2206L296.803 40.3431C296.398 41.9473 295.962 43.5398 295.498 45.1201L295.018 44.9791C294.554 46.5592 294.06 48.1271 293.537 49.682L294.011 49.8413C293.484 51.4077 292.929 52.9611 292.345 54.5008L291.877 54.3234C291.293 55.8627 290.681 57.3882 290.04 58.8993L290.5 59.0945C289.855 60.6163 289.182 62.1237 288.481 63.6159L288.029 63.4033C287.329 64.893 286.602 66.3675 285.848 67.8262L286.292 68.0558C285.534 69.5229 284.748 70.9741 283.936 72.4087L283.501 72.1624C282.691 73.5939 281.854 75.0088 280.991 76.4065L281.417 76.6691C280.55 78.0745 279.656 79.4626 278.738 80.8327L278.322 80.5543C277.407 81.9204 276.465 83.2685 275.5 84.5981L275.904 84.892C274.934 86.2274 273.939 87.5442 272.92 88.8417L272.527 88.5329C271.511 89.826 270.472 91.0998 269.409 92.3537L269.79 92.677C268.723 93.9359 267.633 95.1747 266.52 96.393L266.15 96.0557C265.042 97.269 263.91 98.4619 262.756 99.6335L263.113 99.9843C261.955 101.16 260.776 102.314 259.575 103.446L259.232 103.083C258.036 104.21 256.819 105.316 255.581 106.399L255.91 106.775C254.669 107.861 253.407 108.925 252.125 109.966L251.809 109.578C250.534 110.613 249.239 111.625 247.924 112.614L248.224 113.013C246.907 114.004 245.57 114.972 244.214 115.915L243.928 115.504C242.58 116.442 241.213 117.356 239.828 118.245L240.098 118.666C238.711 119.556 237.305 120.422 235.883 121.263L235.629 120.832C234.215 121.668 232.784 122.478 231.337 123.262L231.575 123.702C230.126 124.487 228.662 125.246 227.181 125.979L226.959 125.531C225.488 126.259 224.001 126.961 222.5 127.636L222.705 128.092C221.202 128.768 219.684 129.417 218.152 130.038L217.964 129.575C216.443 130.192 214.907 130.782 213.359 131.345L213.529 131.815C211.982 132.377 210.422 132.911 208.849 133.418L208.695 132.942C207.134 133.444 205.561 133.919 203.975 134.365L204.11 134.846C202.525 135.292 200.928 135.71 199.32 136.099L199.202 135.613C197.607 135.999 196.001 136.356 194.384 136.685L194.484 137.175C192.873 137.502 191.251 137.801 189.62 138.07L189.538 137.577C187.922 137.843 186.296 138.082 184.66 138.29L184.723 138.786C183.091 138.995 181.45 139.174 179.8 139.323L179.755 138.825C178.122 138.973 176.481 139.092 174.833 139.182L174.86 139.681C173.22 139.77 171.573 139.829 169.918 139.859L169.909 139.359C169.086 139.374 168.261 139.381 167.434 139.381C166.607 139.381 165.782 139.374 164.959 139.359L164.95 139.859C163.295 139.829 161.648 139.77 160.009 139.681L160.036 139.182C158.387 139.092 156.746 138.973 155.114 138.825L155.069 139.323C153.419 139.174 151.777 138.995 150.145 138.786L150.208 138.29C148.573 138.082 146.946 137.843 145.33 137.577L145.249 138.07C143.617 137.801 141.995 137.502 140.385 137.175L140.484 136.685C138.867 136.356 137.261 135.999 135.666 135.613L135.549 136.099C133.94 135.71 132.343 135.292 130.758 134.846L130.894 134.365C129.308 133.919 127.734 133.444 126.173 132.942L126.02 133.418C124.447 132.911 122.886 132.377 121.339 131.815L121.51 131.345C119.961 130.782 118.426 130.192 116.904 129.575L116.716 130.038C115.184 129.417 113.667 128.768 112.164 128.092L112.369 127.636C110.867 126.961 109.38 126.259 107.909 125.531L107.688 125.979C106.207 125.246 104.742 124.487 103.294 123.702L103.532 123.262C102.085 122.478 100.654 121.668 99.2399 120.832L98.9856 121.263C97.563 120.422 96.1576 119.556 94.7701 118.666L95.0402 118.245C93.6554 117.356 92.2885 116.442 90.9401 115.504L90.6546 115.915C89.2989 114.972 87.9619 114.004 86.6441 113.013L86.9446 112.614C85.6299 111.625 84.3345 110.613 83.059 109.578L82.7439 109.966C81.4617 108.925 80.1995 107.861 78.9581 106.775L79.2874 106.399C78.0496 105.316 76.8325 104.21 75.6368 103.083L75.2937 103.446C74.0927 102.314 72.9132 101.16 71.7557 99.9843L72.112 99.6335C70.9584 98.4619 69.8268 97.269 68.7179 96.0557L68.3489 96.393C67.2355 95.1747 66.145 93.9359 65.078 92.677L65.4594 92.3537C64.3965 91.0998 63.357 89.826 62.3415 88.5329L61.9483 88.8417C60.9293 87.5442 59.9345 86.2274 58.9644 84.892L59.3689 84.5981C58.4031 83.2685 57.4619 81.9204 56.546 80.5543L56.1307 80.8327C55.212 79.4626 54.3187 78.0745 53.4515 76.6691L53.877 76.4065C53.0144 75.0088 52.1777 73.5939 51.3674 72.1624L50.9323 72.4087C50.1203 70.9741 49.3347 69.5229 48.5763 68.0558L49.0204 67.8262C48.2663 66.3675 47.5392 64.893 46.8396 63.4034L46.387 63.6159C45.6862 62.1237 45.013 60.6163 44.368 59.0945L44.8284 58.8994C44.1879 57.3882 43.5754 55.8627 42.9914 54.3234L42.5239 54.5008C41.9398 52.9611 41.3841 51.4078 40.8575 49.8414L41.3315 49.682C40.8088 48.1271 40.3148 46.5593 39.8503 44.9791L39.3706 45.1201C38.9061 43.5399 38.4708 41.9473 38.0655 40.3431L38.5502 40.2206C38.1484 38.6304 37.7761 37.0288 37.434 35.4162L36.9448 35.52C36.6035 33.9113 36.292 32.2919 36.011 30.6623L36.5037 30.5773C36.2252 28.9627 35.9768 27.338 35.7589 25.7038L35.2633 25.7699C35.0458 24.1387 34.8587 22.4981 34.7025 20.8486L35.2003 20.8015C35.0458 19.1703 34.9218 17.5304 34.8286 15.8824L34.3294 15.9107C34.2368 14.2714 34.1746 12.6241 34.1435 10.9694L34.6434 10.96C34.6279 10.1369 34.6201 9.31198 34.6201 8.48526C34.6201 7.65855 34.6279 6.83365 34.6434 6.01059L34.1435 6.00119C34.1746 4.34644 34.2368 2.69917 34.3294 1.05991L34.8286 1.08813C34.9218 -0.559875 35.0458 -2.19974 35.2003 -3.83089L34.7025 -3.87801C34.8587 -5.5275 35.0458 -7.16813 35.2633 -8.79934L35.7589 -8.73326C35.9768 -10.3674 36.2252 -11.9921 36.5037 -13.6067L36.0109 -13.6917C36.292 -15.3214 36.6035 -16.9408 36.9448 -18.5494L37.4339 -18.4456C37.7761 -20.0582 38.1484 -21.6599 38.5502 -23.2501L38.0655 -23.3725C38.4708 -24.9768 38.9061 -26.5693 39.3706 -28.1496L39.8503 -28.0086C40.3148 -29.5887 40.8088 -31.1566 41.3315 -32.7115L40.8575 -32.8708C41.3841 -34.4372 41.9398 -35.9906 42.5239 -37.5303L42.9914 -37.3529C43.5754 -38.8921 44.1879 -40.4177 44.8284 -41.9288L44.368 -42.1239C45.013 -43.6458 45.6862 -45.1532 46.387 -46.6454L46.8396 -46.4328C47.5391 -47.9225 48.2663 -49.397 49.0204 -50.8557L48.5763 -51.0853C49.3347 -52.5524 50.1202 -54.0036 50.9323 -55.4382L51.3674 -55.1919C52.1777 -56.6234 53.0144 -58.0383 53.877 -59.436L53.4515 -59.6986C54.3188 -61.104 55.212 -62.4921 56.1307 -63.8622L56.546 -63.5838C57.4619 -64.9499 58.4031 -66.298 59.3689 -67.6276L58.9644 -67.9215C59.9345 -69.2569 60.9293 -70.5737 61.9483 -71.8712L62.3415 -71.5624C63.357 -72.8554 64.3965 -74.1293 65.4594 -75.3832L65.078 -75.7065C66.145 -76.9654 67.2355 -78.2042 68.3489 -79.4225L68.7179 -79.0852C69.8268 -80.2985 70.9584 -81.4914 72.112 -82.663L71.7557 -83.0138C72.9132 -84.1893 74.0927 -85.3436 75.2937 -86.4759L75.6367 -86.1121C76.8325 -87.2395 78.0496 -88.3451 79.2874 -89.4283L78.9581 -89.8045C80.1995 -90.8909 81.4617 -91.9547 82.7439 -92.9954L83.059 -92.6072C84.3345 -93.6425 85.6299 -94.6547 86.9446 -95.6434L86.6441 -96.043C87.9619 -97.0339 89.2989 -98.0011 90.6546 -98.944L90.9401 -98.5336C92.2885 -99.4715 93.6554 -100.385 95.0402 -101.274L94.7701 -101.695C96.1576 -102.586 97.563 -103.452 98.9856 -104.292L99.2399 -103.862C100.654 -104.697 102.085 -105.507 103.532 -106.292L103.294 -106.731C104.742 -107.516 106.207 -108.275 107.688 -109.008L107.909 -108.56C109.38 -109.288 110.867 -109.99 112.369 -110.665L112.164 -111.121C113.666 -111.797 115.184 -112.446 116.716 -113.068L116.904 -112.605C118.426 -113.222 119.961 -113.812 121.51 -114.375L121.339 -114.844C122.886 -115.406 124.447 -115.941 126.02 -116.447L126.173 -115.971C127.734 -116.473 129.308 -116.948 130.894 -117.394L130.758 -117.876C132.343 -118.322 133.94 -118.74 135.549 -119.129L135.666 -118.643C137.261 -119.028 138.867 -119.386 140.484 -119.714L140.385 -120.204C141.995 -120.531 143.617 -120.83 145.249 -121.099L145.33 -120.606C146.946 -120.873 148.573 -121.111 150.208 -121.32L150.145 -121.816C151.777 -122.024 153.419 -122.203 155.069 -122.353L155.114 -121.855C156.746 -122.003 158.387 -122.122 160.036 -122.211L160.009 -122.71C161.648 -122.799 163.295 -122.858 164.95 -122.888L164.959 -122.388C165.782 -122.403 166.607 -122.411 167.434 -122.411C168.261 -122.411 169.086 -122.403 169.909 -122.388L169.918 -122.888C171.573 -122.858 173.22 -122.799 174.86 -122.71L174.833 -122.211C176.481 -122.122 178.122 -122.003 179.755 -121.855L179.8 -122.353C181.45 -122.203 183.091 -122.024 184.723 -121.816L184.66 -121.32C186.296 -121.111 187.922 -120.873 189.538 -120.606L189.62 -121.099C191.251 -120.83 192.873 -120.531 194.484 -120.204L194.384 -119.714C196.001 -119.386 197.607 -119.028 199.202 -118.643L199.32 -119.129C200.928 -118.74 202.525 -118.322 204.11 -117.876L203.975 -117.394C205.561 -116.948 207.134 -116.473 208.695 -115.971L208.849 -116.447C210.422 -115.941 211.982 -115.406 213.529 -114.844L213.359 -114.375C214.907 -113.812 216.443 -113.222 217.964 -112.605L218.152 -113.068C219.684 -112.446 221.202 -111.797 222.705 -111.121L222.5 -110.665C224.001 -109.99 225.488 -109.288 226.959 -108.56L227.181 -109.008C228.661 -108.275 230.126 -107.516 231.575 -106.731L231.337 -106.292C232.784 -105.507 234.215 -104.697 235.629 -103.862L235.883 -104.292C237.305 -103.452 238.711 -102.586 240.098 -101.695L239.828 -101.274C241.213 -100.385 242.58 -99.4715 243.928 -98.5336L244.214 -98.944C245.57 -98.0011 246.907 -97.0339 248.224 -96.043L247.924 -95.6434C249.239 -94.6547 250.534 -93.6425 251.809 -92.6072L252.125 -92.9954C253.407 -91.9547 254.669 -90.8909 255.91 -89.8045L255.581 -89.4283C256.819 -88.3451 258.036 -87.2395 259.232 -86.1121L259.575 -86.4759C260.776 -85.3436 261.955 -84.1893 263.113 -83.0138L262.756 -82.663C263.91 -81.4914 265.042 -80.2985 266.15 -79.0852L266.52 -79.4225C267.633 -78.2042 268.723 -76.9654 269.79 -75.7065L269.409 -75.3832C270.472 -74.1293 271.511 -72.8554 272.527 -71.5624L272.92 -71.8712C273.939 -70.5737 274.934 -69.2569 275.904 -67.9215L275.5 -67.6276C276.465 -66.298 277.407 -64.9499 278.322 -63.5838L278.738 -63.8622C279.656 -62.4921 280.55 -61.104 281.417 -59.6986L280.991 -59.436C281.854 -58.0383 282.691 -56.6234 283.501 -55.1919L283.936 -55.4382C284.748 -54.0036 285.534 -52.5524 286.292 -51.0853L285.848 -50.8557C286.602 -49.397 287.329 -47.9225 288.029 -46.4328L288.481 -46.6454C289.182 -45.1532 289.855 -43.6458 290.5 -42.1239L290.04 -41.9288C290.681 -40.4177 291.293 -38.8922 291.877 -37.3529L292.345 -37.5303C292.929 -35.9906 293.484 -34.4373 294.011 -32.8708L293.537 -32.7115C294.06 -31.1566 294.554 -29.5888 295.018 -28.0086L295.498 -28.1496C295.962 -26.5693 296.398 -24.9768 296.803 -23.3726L296.318 -23.2501C296.72 -21.6599 297.092 -20.0583 297.434 -18.4457L297.924 -18.5495C298.265 -16.9408 298.576 -15.3214 298.857 -13.6918L298.365 -13.6068C298.643 -11.9922 298.892 -10.3675 299.11 -8.73331L299.605 -8.79939C299.823 -7.16817 300.01 -5.52754 300.166 -3.87806L299.668 -3.83092C299.823 -2.19978 299.947 -0.559929 300.04 1.08808L300.539 1.05987Z" stroke="#FF6D00" stroke-linejoin="round" stroke-dasharray="5 5"/>
<path opacity="0.3" d="M321.908 15.7537C322.069 18.0493 322.177 20.3592 322.23 22.6822L321.731 22.6938C321.757 23.8466 321.771 25.0027 321.771 26.1618C321.771 27.321 321.757 28.477 321.731 29.6298L322.23 29.6414C322.177 31.9644 322.069 34.2743 321.908 36.5699L321.409 36.535C321.248 38.844 321.033 41.1385 320.765 43.4173L321.262 43.4755C320.991 45.7812 320.667 48.0708 320.291 50.3432L319.798 50.2615C319.42 52.5431 318.99 54.8072 318.508 57.0526L318.997 57.1574C318.51 59.4254 317.971 61.6744 317.382 63.9031L316.898 63.7751C316.307 66.009 315.664 68.2224 314.971 70.4141L315.448 70.5648C314.749 72.7754 313.999 74.9639 313.2 77.129L312.731 76.9558C311.931 79.1226 311.082 81.2659 310.184 83.3843L310.644 83.5794C309.74 85.7124 308.787 87.8204 307.787 89.9018L307.336 89.6852C306.337 91.7654 305.289 93.8192 304.196 95.845L304.636 96.0825C303.536 98.1198 302.39 100.129 301.198 102.109L300.77 101.851C299.58 103.827 298.345 105.774 297.067 107.69L297.483 107.968C296.199 109.892 294.87 111.786 293.499 113.647L293.097 113.351C291.729 115.207 290.319 117.031 288.868 118.822L289.257 119.136C287.8 120.933 286.303 122.696 284.765 124.424L284.392 124.091C282.859 125.813 281.287 127.499 279.677 129.149L280.035 129.498C278.42 131.153 276.767 132.771 275.076 134.35L274.735 133.985C273.052 135.558 271.332 137.093 269.577 138.589L269.901 138.97C268.142 140.469 266.348 141.929 264.519 143.348L264.213 142.953C262.393 144.365 260.54 145.736 258.655 147.066L258.943 147.475C257.055 148.806 255.135 150.096 253.184 151.343L252.914 150.921C250.974 152.161 249.004 153.357 247.004 154.51L247.253 154.943C245.253 156.096 243.223 157.205 241.165 158.269L240.935 157.825C238.891 158.881 236.819 159.893 234.721 160.858L234.93 161.312C232.834 162.277 230.711 163.196 228.563 164.067L228.375 163.604C226.244 164.469 224.088 165.287 221.909 166.057L222.076 166.528C219.901 167.297 217.702 168.018 215.482 168.69L215.337 168.211C213.137 168.877 210.915 169.495 208.673 170.063L208.796 170.548C206.562 171.114 204.308 171.631 202.036 172.098L201.935 171.608C199.686 172.07 197.418 172.482 195.134 172.844L195.212 173.338C192.937 173.698 190.646 174.009 188.339 174.268L188.283 173.771C186.003 174.027 183.707 174.233 181.398 174.388L181.431 174.887C179.135 175.041 176.825 175.144 174.502 175.196L174.491 174.696C173.338 174.721 172.182 174.734 171.022 174.734C169.863 174.734 168.707 174.721 167.554 174.696L167.542 175.196C165.219 175.144 162.909 175.041 160.613 174.887L160.647 174.388C158.337 174.233 156.041 174.027 153.761 173.771L153.706 174.268C151.398 174.009 149.107 173.698 146.833 173.338L146.911 172.844C144.626 172.482 142.359 172.07 140.109 171.608L140.009 172.098C137.736 171.631 135.482 171.114 133.248 170.548L133.371 170.063C131.129 169.495 128.907 168.877 126.707 168.211L126.562 168.69C124.342 168.018 122.144 167.297 119.969 166.528L120.135 166.057C117.956 165.287 115.801 164.469 113.669 163.604L113.481 164.067C111.334 163.196 109.211 162.277 107.114 161.312L107.323 160.858C105.225 159.893 103.153 158.881 101.109 157.825L100.879 158.269C98.8216 157.205 96.7916 156.096 94.7909 154.943L95.0405 154.51C93.0405 153.357 91.0699 152.161 89.13 150.921L88.8608 151.343C86.9096 150.096 84.9894 148.806 83.1016 147.475L83.3897 147.066C81.5042 145.736 79.6511 144.365 77.8318 142.953L77.5252 143.348C75.6968 141.929 73.9025 140.469 72.1435 138.97L72.4678 138.589C70.7125 137.093 68.9925 135.558 67.3093 133.985L66.9679 134.35C65.2776 132.771 63.6244 131.153 62.0095 129.498L62.3673 129.149C60.757 127.499 59.185 125.813 57.6527 124.091L57.2792 124.424C55.7417 122.696 54.244 120.933 52.7877 119.136L53.1761 118.822C51.725 117.031 50.3151 115.207 48.9477 113.351L48.5451 113.647C47.1741 111.786 45.8458 109.892 44.5614 107.968L44.9773 107.69C43.6989 105.774 42.4642 103.827 41.2746 101.851L40.8462 102.109C39.6547 100.129 38.5084 98.1199 37.4086 96.0826L37.8486 95.845C36.755 93.8192 35.7076 91.7655 34.7079 89.6852L34.2572 89.9018C33.2569 87.8204 32.304 85.7125 31.4 83.5795L31.8603 83.3843C30.9625 81.2659 30.113 79.1227 29.3132 76.9559L28.8442 77.129C28.045 74.9639 27.2953 72.7754 26.5965 70.5648L27.0732 70.4141C26.3803 68.2225 25.7375 66.009 25.1462 63.7751L24.6628 63.9031C24.0729 61.6745 23.5339 59.4255 23.0473 57.1575L23.5362 57.0526C23.0544 54.8072 22.6241 52.5431 22.2465 50.2616L21.7532 50.3432C21.3771 48.0709 21.0532 45.7812 20.7826 43.4756L21.2792 43.4173C21.0118 41.1386 20.7967 38.8441 20.6351 36.5351L20.1363 36.57C19.9757 34.2744 19.8678 31.9645 19.8138 29.6415L20.3137 29.6299C20.2869 28.4771 20.2734 27.321 20.2734 26.1618C20.2734 25.0027 20.2869 23.8467 20.3137 22.6939L19.8138 22.6823C19.8678 20.3593 19.9757 18.0494 20.1363 15.7538L20.6351 15.7887C20.7967 13.4797 21.0118 11.1852 21.2792 8.90645L20.7826 8.84818C21.0532 6.54253 21.3771 4.25291 21.7532 1.98055L22.2465 2.06219C22.6241 -0.219368 23.0544 -2.48346 23.5362 -4.72884L23.0473 -4.83372C23.5339 -7.10172 24.0729 -9.35069 24.6628 -11.5793L25.1462 -11.4514C25.7375 -13.6853 26.3803 -15.8987 27.0732 -18.0903L26.5964 -18.2411C27.2953 -20.4517 28.045 -22.6402 28.8441 -24.8053L29.3132 -24.6321C30.113 -26.7989 30.9625 -28.9422 31.8603 -31.0606L31.3999 -31.2557C32.304 -33.3887 33.2568 -35.4966 34.2572 -37.5781L34.7078 -37.3615C35.7076 -39.4417 36.755 -41.4955 37.8486 -43.5213L37.4086 -43.7588C38.5084 -45.7961 39.6547 -47.8053 40.8462 -49.785L41.2746 -49.5271C42.4641 -51.5035 43.6988 -53.4504 44.9773 -55.3664L44.5614 -55.6439C45.8457 -57.5687 47.1741 -59.4624 48.5451 -61.3237L48.9476 -61.0271C50.3151 -62.8836 51.725 -64.7076 53.1761 -66.4978L52.7877 -66.8127C54.244 -68.6095 55.7417 -70.3723 57.2792 -72.0999L57.6527 -71.7674C59.185 -73.4891 60.757 -75.1755 62.3673 -76.8253L62.0095 -77.1746C63.6244 -78.8291 65.2776 -80.4469 66.9679 -82.0266L67.3093 -81.6613C68.9925 -83.2345 70.7124 -84.7697 72.4678 -86.2657L72.1435 -86.6463C73.9025 -88.1453 75.6968 -89.605 77.5252 -91.0241L77.8318 -90.6291C79.6511 -92.0411 81.5042 -93.4127 83.3897 -94.7426L83.1015 -95.1512C84.9894 -96.4827 86.9096 -97.7724 88.8607 -99.019L89.13 -98.5977C91.0699 -99.8371 93.0405 -101.034 95.0405 -102.186L94.7908 -102.619C96.7915 -103.772 98.8215 -104.881 100.879 -105.945L101.109 -105.501C103.153 -106.557 105.225 -107.569 107.323 -108.534L107.114 -108.989C109.211 -109.953 111.334 -110.872 113.481 -111.744L113.669 -111.28C115.801 -112.145 117.956 -112.963 120.135 -113.733L119.969 -114.205C122.144 -114.973 124.342 -115.694 126.562 -116.366L126.707 -115.887C128.907 -116.553 131.129 -117.171 133.371 -117.739L133.248 -118.224C135.482 -118.79 137.736 -119.307 140.009 -119.774L140.109 -119.284C142.359 -119.746 144.626 -120.159 146.911 -120.521L146.833 -121.014C149.107 -121.375 151.398 -121.685 153.705 -121.944L153.761 -121.447C156.041 -121.704 158.337 -121.91 160.647 -122.064L160.613 -122.563C162.909 -122.717 165.219 -122.82 167.542 -122.872L167.553 -122.372C168.707 -122.398 169.863 -122.411 171.022 -122.411C172.181 -122.411 173.338 -122.398 174.491 -122.372L174.502 -122.872C176.825 -122.82 179.135 -122.717 181.431 -122.563L181.398 -122.064C183.707 -121.91 186.003 -121.704 188.283 -121.447L188.339 -121.944C190.646 -121.685 192.937 -121.375 195.212 -121.014L195.133 -120.521C197.418 -120.159 199.686 -119.746 201.935 -119.284L202.035 -119.774C204.308 -119.307 206.562 -118.79 208.796 -118.224L208.673 -117.739C210.915 -117.171 213.137 -116.553 215.337 -115.887L215.482 -116.366C217.702 -115.694 219.901 -114.973 222.076 -114.205L221.909 -113.733C224.088 -112.963 226.244 -112.145 228.375 -111.28L228.563 -111.744C230.711 -110.872 232.834 -109.953 234.93 -108.989L234.721 -108.534C236.819 -107.569 238.891 -106.557 240.935 -105.501L241.165 -105.945C243.223 -104.881 245.253 -103.772 247.253 -102.62L247.004 -102.186C249.004 -101.034 250.974 -99.8371 252.914 -98.5977L253.184 -99.019C255.135 -97.7724 257.055 -96.4827 258.943 -95.1512L258.655 -94.7426C260.54 -93.4128 262.393 -92.0411 264.213 -90.6291L264.519 -91.0241C266.347 -89.6051 268.142 -88.1453 269.901 -86.6463L269.576 -86.2657C271.332 -84.7697 273.052 -83.2345 274.735 -81.6614L275.076 -82.0266C276.767 -80.4469 278.42 -78.8291 280.035 -77.1746L279.677 -76.8254C281.287 -75.1755 282.859 -73.4891 284.392 -71.7675L284.765 -72.0999C286.303 -70.3723 287.8 -68.6095 289.257 -66.8127L288.868 -66.4979C290.319 -64.7076 291.729 -62.8836 293.097 -61.0272L293.499 -61.3237C294.87 -59.4624 296.199 -57.5687 297.483 -55.6439L297.067 -55.3664C298.345 -53.4504 299.58 -51.5035 300.77 -49.5271L301.198 -49.785C302.39 -47.8053 303.536 -45.7962 304.636 -43.7589L304.196 -43.5213C305.289 -41.4955 306.337 -39.4418 307.336 -37.3615L307.787 -37.5781C308.787 -35.4967 309.74 -33.3888 310.644 -31.2558L310.184 -31.0606C311.082 -28.9422 311.931 -26.799 312.731 -24.6322L313.2 -24.8053C313.999 -22.6402 314.749 -20.4517 315.448 -18.2411L314.971 -18.0904C315.664 -15.8988 316.307 -13.6853 316.898 -11.4515L317.382 -11.5794C317.971 -9.35075 318.51 -7.10179 318.997 -4.8338L318.508 -4.7289C318.99 -2.48354 319.42 -0.219437 319.798 2.06212L320.291 1.98048C320.667 4.25283 320.991 6.54245 321.262 8.8481L320.765 8.90637C321.033 11.1851 321.248 13.4796 321.409 15.7886L321.908 15.7537Z" stroke="#FF6D00" stroke-linejoin="round" stroke-dasharray="7 7"/>
<path opacity="0.1" d="M321.701 36.3002C321.953 39.258 322.122 42.2389 322.207 45.2407L321.707 45.2548C321.749 46.7416 321.77 48.2336 321.77 49.7305C321.77 51.2273 321.749 52.7193 321.707 54.2061L322.207 54.2202C322.122 57.2219 321.953 60.2028 321.701 63.1606L321.203 63.1182C320.949 66.0986 320.612 69.0554 320.192 71.9863L320.687 72.0571C320.263 75.0254 319.755 77.9673 319.166 80.8804L318.676 80.7813C318.084 83.7095 317.409 86.6085 316.656 89.4759L317.139 89.603C316.377 92.5012 315.534 95.3671 314.613 98.1984L314.137 98.0436C313.213 100.882 312.21 103.685 311.13 106.451L311.596 106.633C310.508 109.42 309.342 112.17 308.101 114.879L307.647 114.671C306.405 117.382 305.088 120.051 303.698 122.678L304.14 122.912C302.742 125.554 301.271 128.153 299.729 130.706L299.301 130.447C297.76 132.997 296.149 135.5 294.47 137.955L294.883 138.237C293.196 140.703 291.44 143.119 289.619 145.484L289.222 145.179C287.406 147.538 285.523 149.844 283.578 152.097L283.956 152.423C282.004 154.683 279.989 156.888 277.914 159.035L277.554 158.688C275.487 160.827 273.358 162.91 271.173 164.932L271.512 165.299C269.322 167.326 267.075 169.293 264.772 171.198L264.453 170.812C262.161 172.708 259.815 174.542 257.417 176.311L257.713 176.713C255.314 178.483 252.862 180.188 250.361 181.827L250.087 181.408C247.602 183.037 245.067 184.599 242.486 186.092L242.737 186.524C240.157 188.017 237.532 189.44 234.863 190.792L234.637 190.346C231.988 191.688 229.295 192.959 226.563 194.157L226.764 194.615C224.036 195.811 221.268 196.935 218.463 197.983L218.288 197.515C215.508 198.554 212.691 199.519 209.839 200.408L209.988 200.885C207.147 201.77 204.272 202.58 201.365 203.312L201.243 202.827C198.369 203.55 195.464 204.197 192.53 204.765L192.625 205.256C189.707 205.82 186.762 206.307 183.79 206.714L183.722 206.219C180.789 206.621 177.83 206.944 174.848 207.187L174.889 207.685C171.93 207.927 168.949 208.089 165.947 208.17L165.933 207.67C164.446 207.71 162.954 207.73 161.456 207.73C159.959 207.73 158.467 207.71 156.98 207.67L156.966 208.17C153.964 208.089 150.983 207.927 148.024 207.685L148.065 207.187C145.083 206.944 142.124 206.621 139.19 206.219L139.123 206.714C136.151 206.307 133.205 205.82 130.288 205.256L130.383 204.765C127.449 204.197 124.544 203.55 121.67 202.827L121.548 203.312C118.641 202.58 115.766 201.77 112.925 200.885L113.074 200.408C110.222 199.519 107.405 198.554 104.625 197.515L104.45 197.983C101.645 196.935 98.877 195.811 96.1494 194.615L96.3502 194.157C93.6177 192.959 90.9254 191.688 88.276 190.346L88.0501 190.792C85.3812 189.44 82.7557 188.017 80.1761 186.524L80.4265 186.092C77.8458 184.599 75.3113 183.037 72.8255 181.408L72.5515 181.827C70.0508 180.188 67.5992 178.483 65.1994 176.713L65.4962 176.311C63.0979 174.542 60.7515 172.708 58.4597 170.812L58.141 171.198C55.8383 169.293 53.5906 167.326 51.4005 165.299L51.7401 164.932C49.5544 162.91 47.4264 160.827 45.3585 158.688L44.999 159.035C42.9236 156.888 40.9087 154.683 38.957 152.423L39.3354 152.097C37.3898 149.844 35.5073 147.538 33.6905 145.179L33.2943 145.484C31.4729 143.119 29.7173 140.703 28.0302 138.237L28.4429 137.955C26.7636 135.5 25.1524 132.997 23.612 130.447L23.184 130.706C21.6419 128.153 20.1705 125.554 18.7725 122.912L19.2145 122.678C17.8249 120.052 16.508 117.382 15.2664 114.671L14.8118 114.879C13.5709 112.17 12.405 109.421 11.3167 106.633L11.7825 106.451C10.7027 103.685 9.69965 100.882 8.77578 98.0437L8.30033 98.1984C7.37874 95.3672 6.53572 92.5012 5.7738 89.6031L6.25737 89.476C5.50354 86.6086 4.82935 83.7096 4.23728 80.7814L3.7472 80.8805C3.15818 77.9674 2.65017 75.0255 2.22559 72.0572L2.72055 71.9864C2.30131 69.0555 1.96366 66.0986 1.70994 63.1183L1.21175 63.1607C0.959952 60.2029 0.790565 57.222 0.705855 54.2203L1.20566 54.2062C1.1637 52.7193 1.14258 51.2273 1.14258 49.7305C1.14258 48.2336 1.1637 46.7417 1.20565 45.2549L0.705852 45.2408C0.790561 42.239 0.959947 39.2581 1.21174 36.3003L1.70994 36.3427C1.96365 33.3624 2.3013 30.4056 2.72054 27.4746L2.22557 27.4038C2.65016 24.4355 3.15817 21.4936 3.74719 18.5805L4.23727 18.6796C4.82934 15.7514 5.50352 12.8524 6.25735 9.98502L5.77379 9.85789C6.5357 6.95976 7.37872 4.09382 8.30032 1.26256L8.77576 1.41732C9.69964 -1.42093 10.7027 -4.22422 11.7825 -6.99003L11.3167 -7.17186C12.405 -9.95952 13.5709 -12.7092 14.8118 -15.4183L15.2664 -15.2101C16.5079 -17.9207 17.8248 -20.5905 19.2144 -23.2171L18.7725 -23.4509C20.1705 -26.0935 21.6419 -28.6923 23.184 -31.2448L23.612 -30.9863C25.1524 -33.536 26.7636 -36.0394 28.4429 -38.4939L28.0302 -38.7762C29.7173 -41.242 31.4729 -43.6585 33.2943 -46.0231L33.6905 -45.718C35.5073 -48.0766 37.3898 -50.3834 39.3354 -52.6357L38.957 -52.9626C40.9087 -55.222 42.9236 -57.4267 44.999 -59.5741L45.3585 -59.2266C47.4264 -61.3661 49.5545 -63.4486 51.7401 -65.4714L51.4005 -65.8383C53.5906 -67.8652 55.8383 -69.8322 58.141 -71.7368L58.4597 -71.3516C60.7515 -73.2472 63.0979 -75.0807 65.4962 -76.8497L65.1994 -77.2521C67.5992 -79.022 70.0508 -80.7274 72.5515 -82.3657L72.8255 -81.9475C75.3113 -83.576 77.8458 -85.1379 80.4265 -86.6307L80.1761 -87.0635C82.7557 -88.5556 85.3812 -89.9789 88.05 -91.3308L88.276 -90.8848C90.9254 -92.2268 93.6177 -93.4982 96.3502 -94.6965L96.1494 -95.1544C98.8769 -96.3505 101.644 -97.474 104.45 -98.5223L104.625 -98.054C107.405 -99.0931 110.222 -100.058 113.074 -100.947L112.925 -101.424C115.766 -102.309 118.641 -103.119 121.548 -103.851L121.67 -103.366C124.544 -104.089 127.449 -104.736 130.383 -105.304L130.288 -105.795C133.205 -106.359 136.151 -106.846 139.123 -107.253L139.19 -106.758C142.124 -107.16 145.083 -107.483 148.065 -107.726L148.024 -108.224C150.983 -108.466 153.964 -108.628 156.966 -108.709L156.98 -108.209C158.467 -108.249 159.959 -108.27 161.456 -108.27C162.954 -108.27 164.446 -108.249 165.933 -108.209L165.946 -108.709C168.948 -108.628 171.93 -108.466 174.888 -108.225L174.848 -107.726C177.83 -107.483 180.789 -107.16 183.722 -106.758L183.79 -107.253C186.762 -106.846 189.707 -106.359 192.625 -105.795L192.53 -105.304C195.464 -104.736 198.369 -104.089 201.243 -103.366L201.365 -103.851C204.272 -103.119 207.147 -102.309 209.988 -101.424L209.839 -100.947C212.691 -100.058 215.508 -99.0931 218.288 -98.054L218.463 -98.5224C221.268 -97.474 224.036 -96.3505 226.763 -95.1544L226.563 -94.6965C229.295 -93.4982 231.987 -92.2268 234.637 -90.8848L234.863 -91.3308C237.532 -89.9789 240.157 -88.5556 242.737 -87.0635L242.486 -86.6307C245.067 -85.1379 247.602 -83.576 250.087 -81.9475L250.361 -82.3657C252.862 -80.7275 255.314 -79.022 257.713 -77.2521L257.417 -76.8497C259.815 -75.0807 262.161 -73.2472 264.453 -71.3515L264.772 -71.7368C267.075 -69.8322 269.322 -67.8652 271.512 -65.8383L271.173 -65.4714C273.358 -63.4486 275.487 -61.3661 277.554 -59.2266L277.914 -59.5741C279.989 -57.4267 282.004 -55.2219 283.956 -52.9625L283.578 -52.6357C285.523 -50.3834 287.406 -48.0766 289.222 -45.718L289.619 -46.0231C291.44 -43.6585 293.196 -41.242 294.883 -38.7762L294.47 -38.4939C296.149 -36.0394 297.76 -33.536 299.301 -30.9863L299.729 -31.2448C301.271 -28.6923 302.742 -26.0935 304.14 -23.451L303.698 -23.2171C305.088 -20.5906 306.405 -17.9207 307.647 -15.2102L308.101 -15.4184C309.342 -12.7092 310.508 -9.95955 311.596 -7.1719L311.13 -6.99007C312.21 -4.22426 313.213 -1.42097 314.137 1.41727L314.613 1.26251C315.534 4.09377 316.377 6.95971 317.139 9.85784L316.656 9.98497C317.409 12.8524 318.084 15.7514 318.676 18.6795L319.166 18.5804C319.755 21.4935 320.263 24.4354 320.687 27.4037L320.192 27.4745C320.612 30.4055 320.949 33.3623 321.203 36.3427L321.701 36.3002Z" stroke="#FF6D00" stroke-linejoin="round" stroke-dasharray="9 9"/>
</svg>
