<svg width="228" height="171" viewBox="0 0 228 171" fill="none" xmlns="http://www.w3.org/2000/svg">
<path opacity="0.6" d="M-1063.38 798.715C-886.561 590.537 -506.504 677.835 -263.909 407.825C-21.3143 137.816 223.247 -72.9772 384.948 -182.635C467.343 -238.51 565.437 -49.2164 813.587 -49.9252C1052.35 -50.6002 1470.45 -226.832 1470.45 -226.832" stroke="url(#paint0_linear_858_9031)" stroke-width="1.99615" stroke-miterlimit="10"/>
<path opacity="0.6" d="M-1055.28 801.567C-882.591 598.216 -508.399 671.153 -269.324 407.235C-225.659 359.072 -177.648 318.115 -134.346 274.07C-78.2427 216.862 -29.5754 157.173 25.2853 106.326C101.331 35.7359 176.342 -13.9459 241.744 -65.8046C293.982 -107.2 340.907 -146.234 384.192 -175.226C466.897 -230.915 565.922 -38.3817 814.469 -41.1156C1053.91 -43.8157 1463.9 -226.325 1470.43 -225.583" stroke="url(#paint1_linear_858_9031)" stroke-width="1.99615" stroke-miterlimit="10"/>
<path opacity="0.6" d="M-1047.2 804.419C-878.542 605.912 -510.423 664.521 -274.729 406.662C-230.805 358.6 -178.239 323.077 -134.644 279.268C-78.5927 222.599 -36.6536 157.325 19.4147 105.618C96.2198 34.6053 174.439 -2.80787 239.996 -54.4472C292.701 -95.7755 338.97 -138.37 383.428 -167.969C466.581 -223.321 566.297 -27.6825 815.361 -32.4414C1055.39 -37.2003 1457.35 -225.886 1470.4 -224.435" stroke="url(#paint2_linear_858_9031)" stroke-width="1.99615" stroke-miterlimit="10"/>
<path opacity="0.6" d="M-1039.1 807.271C-874.64 613.573 -512.318 657.905 -280.16 406.003C-235.978 358.127 -178.858 328.055 -134.986 284.499C-78.9352 228.371 -43.776 157.51 13.569 104.875C91.0986 33.4409 172.544 8.27937 238.257 -43.0224C291.427 -84.2833 337.023 -130.506 382.671 -160.645C466.187 -215.761 566.8 -16.9328 816.244 -23.6999C1057.01 -30.4501 1450.78 -225.346 1470.38 -223.153" stroke="url(#paint3_linear_858_9031)" stroke-width="1.99615" stroke-miterlimit="10"/>
<path opacity="0.6" d="M-1031.01 810.107C-870.652 621.286 -514.161 651.324 -285.575 405.48C-241.117 357.655 -179.355 333.152 -135.311 289.663C-79.1395 234.21 -50.8638 157.628 7.70606 104.032C85.9948 32.1584 170.649 19.2823 236.517 -31.7157C290.17 -72.909 335.059 -122.76 381.915 -153.423C465.776 -208.319 567.251 -6.28419 817.144 -15.0426C1058.57 -23.8348 1444.21 -224.908 1470.37 -221.988" stroke="url(#paint4_linear_858_9031)" stroke-width="1.99615" stroke-miterlimit="10"/>
<path opacity="0.6" d="M-1022.92 812.958C-866.69 629.014 -515.978 644.776 -290.997 404.889C-246.263 357.182 -179.947 338.146 -135.627 294.86C-79.4552 239.981 -57.994 157.78 1.85254 103.356C80.8658 31.061 168.626 30.3016 234.752 -20.2239C288.75 -61.4847 333.087 -114.845 381.116 -146.048C465.374 -200.708 567.677 4.5326 818.018 -6.28466C1060.13 -17.085 1437.65 -224.368 1470.34 -220.706" stroke="url(#paint5_linear_858_9031)" stroke-width="1.99615" stroke-miterlimit="10"/>
<path opacity="0.6" d="M-1014.83 815.811C-862.702 636.676 -517.735 638.262 -296.411 404.316C-251.401 356.727 -180.514 343.159 -135.969 300.075C-79.7802 245.685 -65.0645 157.932 -3.99305 102.614C75.7448 29.8971 166.714 41.3894 233.047 -8.7649C287.511 -49.9751 331.123 -106.947 380.394 -138.707C464.928 -193.148 568.129 15.2997 818.918 2.45734C1061.69 -10.3681 1431.1 -223.844 1470.31 -219.457" stroke="url(#paint6_linear_858_9031)" stroke-width="1.99615" stroke-miterlimit="10"/>
<path opacity="0.6" d="M-1006.76 818.646C-858.737 644.354 -519.463 631.782 -301.849 403.709C-256.546 356.237 -181.087 348.137 -136.232 305.256C-80.0427 251.507 -72.1241 158.084 -9.81063 101.872C70.6345 28.7328 164.812 52.4598 231.301 2.67684C286.213 -38.4996 329.136 -99.083 379.666 -131.349C464.562 -185.57 568.591 26.1002 819.829 11.2328C1063.27 -3.61774 1424.57 -223.338 1470.33 -218.174" stroke="url(#paint7_linear_858_9031)" stroke-width="1.99615" stroke-miterlimit="10"/>
<path opacity="0.6" d="M-998.664 821.497C-854.75 652.049 -521.151 625.385 -307.263 403.117C-261.684 355.764 -181.688 353.132 -136.609 310.47C-80.4195 257.278 -79.2636 158.235 -15.708 101.213C65.5135 27.635 162.9 63.6138 229.561 14.1008C284.939 -27.0251 327.172 -91.2367 378.875 -124.009C464.099 -178.011 569.008 36.8659 820.694 19.9735C1064.79 3.09788 1417.99 -222.748 1470.28 -216.909" stroke="url(#paint8_linear_858_9031)" stroke-width="1.99615" stroke-miterlimit="10"/>
<path opacity="0.6" d="M-990.57 824.351C-850.831 659.729 -522.788 618.89 -312.678 402.461C-266.805 355.209 -182.272 358.061 -136.917 315.602C-80.7447 262.967 -86.2308 158.44 -21.571 100.32C60.5648 26.4895 160.988 74.5512 227.821 25.3757C283.648 -15.6995 325.207 -83.5394 378.119 -116.835C463.67 -170.668 569.441 47.4658 821.576 28.5483C1066.34 9.64762 1411.43 -222.392 1470.24 -215.827" stroke="url(#paint9_linear_858_9031)" stroke-width="1.99615" stroke-miterlimit="10"/>
<path opacity="0.6" d="M-982.484 827.202C-846.799 667.424 -524.397 612.494 -318.1 401.937C-271.934 354.82 -182.863 363.123 -137.249 320.934C-81.0603 268.873 -93.3264 158.743 -27.4245 99.7121C55.3842 25.4595 159.085 85.7729 226.074 36.9349C282.366 -4.17401 323.218 -75.6421 377.389 -109.461C463.269 -163.108 569.919 58.2826 822.486 37.3568C1067.89 16.4142 1404.87 -221.768 1470.22 -214.511" stroke="url(#paint10_linear_858_9031)" stroke-width="1.99615" stroke-miterlimit="10"/>
<path opacity="0.6" d="M-974.391 830.037C-842.811 675.119 -525.947 606.131 -323.515 401.396C-277.055 354.398 -183.447 368.168 -137.575 326.114C-81.4027 274.56 -100.483 158.827 -33.2012 98.8677C50.4183 24.2101 157.259 96.7583 224.42 48.2409C281.179 7.2501 321.323 -67.8463 376.685 -102.171C462.944 -155.633 570.405 69.0148 823.506 46.0302C1069.6 23.0794 1398.46 -221.347 1470.45 -213.314" stroke="url(#paint11_linear_858_9031)" stroke-width="1.99615" stroke-miterlimit="10"/>
<path opacity="0.6" d="M-966.297 832.955C-838.858 682.762 -527.463 599.801 -328.929 400.754C-282.177 353.873 -184.014 373.112 -137.883 331.26C-81.728 280.313 -107.502 158.994 -39.1333 98.1575C45.228 23.078 155.277 107.878 222.611 59.698C279.818 18.7578 319.221 -59.9837 375.841 -94.8318C462.359 -148.108 570.787 79.7969 824.25 54.8041C1070.95 29.8282 1391.83 -220.808 1470.19 -212.033" stroke="url(#paint12_linear_858_9031)" stroke-width="1.99615" stroke-miterlimit="10"/>
<path opacity="0.6" d="M-958.211 835.74C-834.861 690.492 -528.952 593.508 -334.351 400.165C-287.305 353.419 -184.623 378.108 -138.215 336.459C-82.0608 286.069 -114.615 159.147 -45.0556 97.3995C40.0475 21.915 153.34 118.967 220.795 71.1073C278.45 30.2178 317.198 -52.0845 375.009 -87.5232C461.923 -140.614 571.196 90.548 825.125 63.5302C1072.64 36.5292 1385.19 -220.284 1470.15 -210.799" stroke="url(#paint13_linear_858_9031)" stroke-width="1.99615" stroke-miterlimit="10"/>
<path opacity="0.6" d="M-950.117 838.576C-830.89 698.171 -530.381 587.248 -339.766 399.574C-292.41 352.947 -185.224 383.103 -138.541 341.657C-82.3861 291.823 -121.703 159.299 -50.8498 96.657C35.0125 20.7168 151.462 130.054 219.124 82.5321C277.245 41.6932 315.285 -44.3217 374.39 -80.1824C461.529 -133.121 571.699 101.298 826.094 72.2549C1074.19 43.2288 1378.7 -219.693 1470.21 -209.568" stroke="url(#paint14_linear_858_9031)" stroke-width="1.99615" stroke-miterlimit="10"/>
<path opacity="0.6" d="M-942.023 841.392C-826.902 705.864 -531.776 581.002 -345.18 398.982C-297.513 352.473 -185.808 388.08 -138.866 346.87C-82.7284 297.576 -128.791 159.551 -56.6954 95.913C29.8914 19.6015 149.567 141.14 217.384 93.9385C276.04 53.1671 313.304 -36.5098 373.564 -72.8767C461.014 -125.579 572.081 112.046 826.907 80.9781C1075.68 49.927 1372.08 -219.272 1470.12 -208.27" stroke="url(#paint15_linear_858_9031)" stroke-width="1.99615" stroke-miterlimit="10"/>
<path opacity="0.6" d="M-933.938 844.279C-822.922 713.561 -533.161 574.759 -350.637 398.392C-302.625 352.001 -186.417 393.076 -139.181 352.001C-83.0785 303.264 -135.886 159.619 -62.5661 95.1039C24.7797 18.3705 147.664 152.16 215.636 105.229C274.689 64.5084 311.315 -28.8136 372.8 -65.6868C460.543 -118.305 572.507 122.662 827.799 89.5687C1077.23 56.6781 1365.52 -218.765 1470.1 -207.087" stroke="url(#paint16_linear_858_9031)" stroke-width="1.99615" stroke-miterlimit="10"/>
<path opacity="0.6" d="M-925.867 847.132C-818.906 721.24 -534.493 568.684 -356.04 397.802C-307.735 351.563 -186.972 398.072 -139.513 357.301C-83.4099 309.104 -142.963 159.856 -68.4181 94.4631C19.5661 17.291 145.763 163.366 213.89 116.806C273.426 76.1362 309.31 -20.831 372.055 -58.2104C460.039 -110.66 572.952 133.581 828.676 98.4626C1078.83 63.3614 1358.96 -218.225 1470.06 -205.804" stroke="url(#paint17_linear_858_9031)" stroke-width="1.99615" stroke-miterlimit="10"/>
<path opacity="0.6" d="M-917.773 849.967C-814.97 728.935 -535.767 562.508 -361.454 397.211C-312.822 351.107 -187.608 403.05 -139.838 362.464C-83.7522 314.825 -150.085 159.957 -74.2809 93.6867C14.5141 16.059 143.851 174.42 212.099 128.197C272.101 87.5778 307.277 -13.0514 371.247 -50.9203C459.576 -103.235 573.335 144.297 829.524 107.153C1080.28 70.0271 1352.36 -217.752 1470 -204.606" stroke="url(#paint18_linear_858_9031)" stroke-width="1.99615" stroke-miterlimit="10"/>
<path opacity="0.6" d="M-909.594 852.819C-810.913 736.63 -536.955 556.399 -366.783 396.62C-317.857 350.651 -188.21 408.028 -140.163 367.662C-84.1122 320.562 -157.191 160.092 -80.1444 92.9441C9.40974 14.9283 141.955 185.524 210.41 139.605C270.792 99.1037 305.295 -5.25496 370.525 -43.6132C459.147 -95.7588 573.82 155.046 830.44 115.878C1081.87 76.7436 1345.82 -217.229 1470.02 -203.358" stroke="url(#paint19_linear_858_9031)" stroke-width="1.99615" stroke-miterlimit="10"/>
<path opacity="0.6" d="M-901.586 855.669C-807.012 744.29 -538.228 550.322 -372.283 396.029C-323.029 350.195 -188.81 413.006 -140.471 372.859C-84.4371 326.316 -164.278 160.226 -85.9724 92.2006C4.30626 13.7628 140.026 196.61 208.688 151.029C269.604 110.528 303.349 2.52369 369.786 -36.2902C458.701 -88.2839 574.271 165.795 831.358 124.602C1083.44 83.4422 1339.29 -216.707 1470.02 -202.127" stroke="url(#paint20_linear_858_9031)" stroke-width="1.99615" stroke-miterlimit="10"/>
<path opacity="0.6" d="M-893.5 858.522C-803.049 752.004 -539.407 544.282 -377.671 395.439C-328.038 349.757 -189.385 418.002 -140.769 378.057C-84.7527 332.054 -171.34 160.362 -91.8087 91.459C-0.7882 12.5824 138.21 207.715 206.975 162.438C268.374 122.021 301.377 10.3717 369.056 -28.9653C458.231 -80.824 574.715 176.495 832.232 133.344C1084.99 90.1426 1332.72 -216.217 1469.98 -200.793" stroke="url(#paint21_linear_858_9031)" stroke-width="1.99615" stroke-miterlimit="10"/>
<path opacity="0.6" d="M-885.445 861.357C-799.186 759.681 -540.582 538.273 -383.159 394.848C-333.129 349.284 -190.06 422.979 -141.168 383.254C-85.1859 337.791 -178.518 160.496 -97.7279 90.7157C-5.98284 11.4004 136.241 218.818 205.162 173.862C267.027 133.495 299.305 18.1675 368.226 -21.6589C457.728 -73.3657 575.11 187.295 833.093 142.034C1086.5 96.8078 1326.13 -215.728 1469.93 -199.68" stroke="url(#paint22_linear_858_9031)" stroke-width="1.99615" stroke-miterlimit="10"/>
<path opacity="0.6" d="M-877.312 864.209C-795.09 767.377 -541.661 532.3 -388.586 394.19C-338.245 348.811 -190.674 427.941 -141.489 388.401C-85.541 343.462 -185.619 160.581 -103.535 89.9059C-11.0477 10.1856 134.402 229.855 203.547 185.202C265.895 144.903 297.432 25.8968 367.595 -14.4021C457.39 -65.9908 575.686 197.977 834.101 150.726C1088.17 103.541 1319.62 -215.205 1469.95 -198.397" stroke="url(#paint23_linear_858_9031)" stroke-width="1.99615" stroke-miterlimit="10"/>
<path opacity="0.6" d="M-869.227 867.062C-791.11 775.073 -542.736 526.36 -393.957 393.668C-343.254 348.458 -191.231 432.92 -141.77 393.668C-85.8393 349.268 -192.68 160.784 -109.405 89.2319C-16.2456 9.07276 132.5 241.112 201.714 196.696C264.528 156.464 295.339 33.7618 366.744 -7.02656C456.747 -58.4634 576.026 208.795 834.907 159.519C1089.66 110.242 1313.06 -214.681 1469.91 -197.164" stroke="url(#paint24_linear_858_9031)" stroke-width="1.99615" stroke-miterlimit="10"/>
<path opacity="0.6" d="M-861.133 869.896C-787.123 782.75 -543.7 520.453 -399.371 393.076C-348.306 348.035 -191.832 437.897 -142.095 398.864C-86.199 354.988 -199.785 160.918 -115.251 88.4882C-21.2977 7.9072 130.622 252.181 199.974 208.102C263.271 167.938 293.341 41.5571 365.988 0.296292C456.353 -51.0224 576.46 219.544 835.789 168.242C1091.22 116.957 1306.5 -214.176 1469.9 -195.916" stroke="url(#paint25_linear_858_9031)" stroke-width="1.99615" stroke-miterlimit="10"/>
<path opacity="0.6" d="M-853.039 872.748C-783.152 790.446 -544.767 514.581 -404.785 392.503C-353.34 347.613 -192.45 442.876 -142.403 404.062C-86.5414 360.726 -206.873 161.054 -121.114 87.7461C-26.4188 6.74328 128.727 263.252 198.251 219.528C261.997 179.431 291.325 49.3541 365.232 7.62079C455.873 -43.5798 576.911 230.379 836.689 176.967C1092.77 123.657 1299.95 -213.669 1469.83 -194.684" stroke="url(#paint26_linear_858_9031)" stroke-width="1.99615" stroke-miterlimit="10"/>
<path opacity="0.6" d="M-844.969 875.6C-779.17 798.124 -545.736 508.742 -410.223 391.912C-358.382 347.208 -193.058 447.838 -142.82 409.26C-86.9936 366.463 -214.07 161.189 -127.052 86.9361C-31.6325 5.49451 126.756 274.255 196.419 230.885C260.647 190.856 289.234 57.0663 364.383 14.8773C455.317 -36.1882 577.252 241.01 837.479 185.641C1094.32 130.357 1293.46 -213.163 1469.86 -193.452" stroke="url(#paint27_linear_858_9031)" stroke-width="1.99615" stroke-miterlimit="10"/>
<path opacity="0.6" d="M-836.883 878.52C-775.208 805.955 -546.69 503.004 -415.646 391.389C-363.407 346.821 -193.649 452.816 -143.067 414.441C-87.2748 372.252 -221.252 161.307 -132.82 86.2446C-36.8478 4.19545 124.94 285.377 194.758 242.361C259.469 202.399 287.314 64.9139 363.705 22.2524C454.915 -28.6951 577.782 251.76 838.457 194.383C1095.87 137.006 1286.81 -212.69 1469.87 -192.236" stroke="url(#paint28_linear_858_9031)" stroke-width="1.99615" stroke-miterlimit="10"/>
<path opacity="0.6" d="M-828.781 881.287C-771.212 813.515 -547.577 497.131 -421.052 390.815C-368.4 346.516 -194.277 457.862 -143.298 419.74C-87.5403 377.989 -228.246 161.543 -138.588 85.6028C-41.8575 3.13181 123.156 296.666 193.112 253.869C258.289 213.992 285.392 72.8111 363.042 29.6603C454.477 -21.1522 578.31 262.645 839.434 203.243C1097.43 143.756 1280.27 -212.15 1469.81 -190.971" stroke="url(#paint29_linear_858_9031)" stroke-width="1.99615" stroke-miterlimit="10"/>
<path opacity="0.6" d="M-820.695 884.139C-767.249 821.142 -548.462 491.444 -426.543 390.14C-373.477 346.061 -194.972 462.705 -143.769 424.853C-88.0629 383.642 -235.497 161.593 -144.597 84.7588C-47.1417 1.86586 121.081 307.685 191.209 265.193C256.87 225.383 283.23 80.4893 362.123 36.8827C453.885 -13.8284 578.598 273.293 840.17 211.883C1098.95 150.455 1273.64 -211.695 1469.72 -189.756" stroke="url(#paint30_linear_858_9031)" stroke-width="1.99615" stroke-miterlimit="10"/>
<path opacity="0.6" d="M-812.602 886.958C-763.261 828.855 -549.305 485.707 -431.889 389.516C-378.408 345.639 -195.539 467.667 -144.025 430.017C-88.3538 389.313 -242.533 161.695 -150.391 83.9662C-52.1767 0.651407 119.289 318.756 189.469 276.551C255.613 236.825 281.214 88.202 361.366 44.1567C453.422 -6.47009 579.032 283.993 840.966 220.557C1100.4 157.105 1267.09 -211.171 1469.62 -188.541" stroke="url(#paint31_linear_858_9031)" stroke-width="1.99615" stroke-miterlimit="10"/>
<path opacity="0.6" d="M-804.516 889.826C-759.281 836.584 -550.138 480.07 -437.311 388.959C-383.347 345.386 -196.131 472.662 -144.358 435.265C-88.721 395.068 -249.594 161.881 -156.245 83.2742C-57.3572 -0.479373 117.404 329.911 187.791 288.026C254.417 248.368 279.226 96.0322 360.671 51.5144C453.003 1.03945 579.545 294.793 841.997 229.333C1102.1 163.872 1260.68 -210.614 1469.74 -187.242" stroke="url(#paint32_linear_858_9031)" stroke-width="1.99615" stroke-miterlimit="10"/>
<path opacity="0.6" d="M-796.422 892.679C-755.311 844.263 -550.911 474.435 -442.76 388.369C-388.33 345.066 -196.784 477.624 -144.7 440.464C-89.1152 400.789 -256.751 162.017 -162.125 82.5326C-62.4267 -1.64283 115.526 341.033 186.068 299.435C253.178 259.861 277.33 103.813 359.915 58.8393C452.523 8.46564 579.979 305.544 842.965 238.058C1103.73 170.556 1254.11 -210.107 1469.79 -186.009" stroke="url(#paint33_linear_858_9031)" stroke-width="1.99615" stroke-miterlimit="10"/>
<path opacity="0.6" d="M-788.328 895.531C-751.323 851.958 -551.685 468.848 -448.14 387.778C-393.227 344.779 -197.368 482.585 -144.991 445.661C-89.4403 406.51 -263.822 162.151 -167.953 81.7895C-67.5305 -2.80783 113.648 352.153 184.328 310.859C251.904 271.37 275.228 111.575 359.158 66.1627C452.042 15.9072 580.43 316.31 843.796 246.732C1105.21 177.221 1247.49 -209.652 1469.71 -184.811" stroke="url(#paint34_linear_858_9031)" stroke-width="1.99615" stroke-miterlimit="10"/>
<path opacity="0.6" d="M-780.211 898.382C-747.433 859.636 -552.487 463.279 -453.565 387.187C-398.153 344.525 -197.997 487.529 -145.345 450.858C-89.8283 412.213 -270.938 162.286 -173.827 81.0465C-72.6628 -3.97272 111.707 363.274 182.578 322.266C250.636 282.811 273.201 119.337 358.408 73.5538C451.568 23.3995 580.956 327.126 844.685 255.591C1106.77 184.055 1240.92 -209.011 1469.7 -183.445" stroke="url(#paint35_linear_858_9031)" stroke-width="1.99615" stroke-miterlimit="10"/>
<path opacity="0.6" d="M-772.164 901.218C-743.371 867.332 -553.066 457.761 -458.975 386.512C-403.027 344.222 -198.611 492.407 -145.648 455.972C-90.1312 417.935 -278.021 162.455 -179.668 80.3046C-77.7789 -5.1534 109.886 374.396 180.895 333.692C249.436 294.372 271.242 127.101 357.691 80.794C451.058 30.741 581.309 337.792 845.572 264.249C1108.32 190.688 1234.36 -208.555 1469.66 -182.28" stroke="url(#paint36_linear_858_9031)" stroke-width="1.99615" stroke-miterlimit="10"/>
<path opacity="0.6" d="M-764.07 904.07C-739.4 875.027 -553.84 452.276 -464.406 385.989C-407.872 344.104 -199.246 497.368 -145.955 461.237C-90.5427 423.622 -285.109 162.539 -185.514 79.545C-82.8829 -6.33487 108.008 385.5 179.103 345.083C248.11 305.847 269.175 134.846 356.883 88.0841C450.577 38.1154 581.743 348.626 846.455 272.956C1109.87 197.37 1227.81 -207.998 1469.64 -180.997" stroke="url(#paint37_linear_858_9031)" stroke-width="1.99615" stroke-miterlimit="10"/>
<path opacity="0.6" d="M-756.055 906.922C-735.353 882.705 -554.519 446.842 -469.83 385.415C-412.709 343.985 -199.874 502.38 -146.29 466.418C-90.9287 429.292 -292.223 162.657 -191.369 78.7686C-88.0131 -7.44876 106.121 396.654 177.354 356.524C246.862 317.373 267.15 142.626 356.117 95.4924C450.088 45.6419 582.116 359.359 847.345 281.748C1111.42 204.121 1221.24 -207.492 1469.62 -179.749" stroke="url(#paint38_linear_858_9031)" stroke-width="1.99615" stroke-miterlimit="10"/>
<path opacity="0.6" d="M-747.891 909.756C-731.432 890.332 -555.171 441.442 -475.243 384.824C-417.484 343.917 -200.543 507.256 -146.614 471.666C-91.2871 435.046 -299.309 162.842 -197.23 78.0762C-93.133 -8.64747 104.314 407.893 175.547 367.931C245.606 328.983 265.066 150.371 355.293 102.731C449.609 52.9822 582.689 370.041 848.229 290.405C1112.97 210.786 1214.69 -207.054 1469.59 -178.568" stroke="url(#paint39_linear_858_9031)" stroke-width="1.99615" stroke-miterlimit="10"/>
<path opacity="0.6" d="M-739.797 912.608C-727.462 898.095 -555.824 436.075 -480.658 384.233C-422.226 343.934 -201.127 512.319 -146.921 476.88C-91.7156 440.766 -306.414 162.994 -203.076 77.3501C-98.2369 -9.8123 102.419 418.997 173.824 379.356C244.367 340.542 262.964 157.965 354.554 110.055C448.973 60.2383 583.002 380.79 849.077 299.146C1114.55 217.485 1208.14 -206.582 1469.57 -177.336" stroke="url(#paint40_linear_858_9031)" stroke-width="1.99615" stroke-miterlimit="10"/>
<path opacity="0.6" d="M-731.711 915.461C-723.482 905.774 -556.484 430.777 -486.08 383.643C-426.906 344.036 -201.805 517.129 -147.254 482.062C-92.0486 446.37 -313.51 163.214 -208.947 76.5751C-103.366 -10.9924 100.516 430.085 172.094 390.816C243.085 352.002 260.958 165.813 353.79 117.431C448.502 67.7492 583.446 391.592 849.952 307.923C1116.1 224.186 1201.58 -206.024 1469.55 -176.086" stroke="url(#paint41_linear_858_9031)" stroke-width="1.99615" stroke-miterlimit="10"/>
<path opacity="0.6" d="M-723.617 918.313C-719.511 913.47 -557.12 425.546 -491.494 383.053C-431.51 344.239 -202.406 522.091 -147.579 487.26C-92.3737 452.108 -320.598 163.366 -214.862 75.8327C-108.47 -12.1566 98.6211 441.189 170.371 402.19C241.828 363.376 258.994 173.576 353.068 124.688C448.125 75.2421 583.932 402.308 850.903 316.563C1117.87 230.818 1195.02 -205.517 1469.54 -174.854" stroke="url(#paint42_linear_858_9031)" stroke-width="1.99615" stroke-miterlimit="10"/>
<path opacity="0.6" d="M-715.531 921.147C-715.531 921.147 -557.781 420.296 -496.916 382.461C-436.052 344.626 -203.015 527.068 -147.895 492.456C-92.7757 457.844 -327.711 163.517 -220.646 75.0886C-113.581 -13.3396 96.7181 452.292 168.641 413.596C240.564 374.9 257.005 181.371 352.321 132.01C447.637 82.6488 584.409 413.056 851.812 325.32C1119.22 237.584 1188.45 -205.013 1469.43 -173.607" stroke="url(#paint43_linear_858_9031)" stroke-width="1.99615" stroke-miterlimit="10"/>
<defs>
<linearGradient id="paint0_linear_858_9031" x1="203.537" y1="-226.832" x2="203.537" y2="798.715" gradientUnits="userSpaceOnUse">
<stop stop-color="#0FA76F"/>
<stop offset="0.9998" stop-color="white"/>
<stop offset="0.9999" stop-color="#FF007A"/>
<stop offset="1" stop-color="white"/>
</linearGradient>
<linearGradient id="paint1_linear_858_9031" x1="207.577" y1="-225.585" x2="207.577" y2="801.567" gradientUnits="userSpaceOnUse">
<stop stop-color="#0FA76F"/>
<stop offset="0.9998" stop-color="white"/>
<stop offset="0.9999" stop-color="#FF007A"/>
<stop offset="1" stop-color="white"/>
</linearGradient>
<linearGradient id="paint2_linear_858_9031" x1="211.6" y1="-224.443" x2="211.6" y2="804.419" gradientUnits="userSpaceOnUse">
<stop stop-color="#0FA76F"/>
<stop offset="0.9998" stop-color="white"/>
<stop offset="0.9999" stop-color="#FF007A"/>
<stop offset="1" stop-color="white"/>
</linearGradient>
<linearGradient id="paint3_linear_858_9031" x1="215.64" y1="-223.171" x2="215.64" y2="807.271" gradientUnits="userSpaceOnUse">
<stop stop-color="#0FA76F"/>
<stop offset="0.9998" stop-color="white"/>
<stop offset="0.9999" stop-color="#FF007A"/>
<stop offset="1" stop-color="white"/>
</linearGradient>
<linearGradient id="paint4_linear_858_9031" x1="219.679" y1="-222.02" x2="219.679" y2="810.107" gradientUnits="userSpaceOnUse">
<stop stop-color="#0FA76F"/>
<stop offset="0.9998" stop-color="white"/>
<stop offset="0.9999" stop-color="#FF007A"/>
<stop offset="1" stop-color="white"/>
</linearGradient>
<linearGradient id="paint5_linear_858_9031" x1="223.711" y1="-220.754" x2="223.711" y2="812.958" gradientUnits="userSpaceOnUse">
<stop stop-color="#0FA76F"/>
<stop offset="0.9998" stop-color="white"/>
<stop offset="0.9999" stop-color="#FF007A"/>
<stop offset="1" stop-color="white"/>
</linearGradient>
<linearGradient id="paint6_linear_858_9031" x1="227.742" y1="-219.523" x2="227.742" y2="815.811" gradientUnits="userSpaceOnUse">
<stop stop-color="#0FA76F"/>
<stop offset="0.9998" stop-color="white"/>
<stop offset="0.9999" stop-color="#FF007A"/>
<stop offset="1" stop-color="white"/>
</linearGradient>
<linearGradient id="paint7_linear_858_9031" x1="231.784" y1="-218.264" x2="231.784" y2="818.646" gradientUnits="userSpaceOnUse">
<stop stop-color="#0FA76F"/>
<stop offset="0.9998" stop-color="white"/>
<stop offset="0.9999" stop-color="#FF007A"/>
<stop offset="1" stop-color="white"/>
</linearGradient>
<linearGradient id="paint8_linear_858_9031" x1="235.806" y1="-217.021" x2="235.806" y2="821.497" gradientUnits="userSpaceOnUse">
<stop stop-color="#0FA76F"/>
<stop offset="0.9998" stop-color="white"/>
<stop offset="0.9999" stop-color="#FF007A"/>
<stop offset="1" stop-color="white"/>
</linearGradient>
<linearGradient id="paint9_linear_858_9031" x1="239.837" y1="-215.964" x2="239.837" y2="824.351" gradientUnits="userSpaceOnUse">
<stop stop-color="#0FA76F"/>
<stop offset="0.9998" stop-color="white"/>
<stop offset="0.9999" stop-color="#FF007A"/>
<stop offset="1" stop-color="white"/>
</linearGradient>
<linearGradient id="paint10_linear_858_9031" x1="243.869" y1="-214.674" x2="243.869" y2="827.202" gradientUnits="userSpaceOnUse">
<stop stop-color="#0FA76F"/>
<stop offset="0.9998" stop-color="white"/>
<stop offset="0.9999" stop-color="#FF007A"/>
<stop offset="1" stop-color="white"/>
</linearGradient>
<linearGradient id="paint11_linear_858_9031" x1="248.029" y1="-213.508" x2="248.029" y2="830.037" gradientUnits="userSpaceOnUse">
<stop stop-color="#0FA76F"/>
<stop offset="0.9998" stop-color="white"/>
<stop offset="0.9999" stop-color="#FF007A"/>
<stop offset="1" stop-color="white"/>
</linearGradient>
<linearGradient id="paint12_linear_858_9031" x1="251.948" y1="-212.258" x2="251.948" y2="832.955" gradientUnits="userSpaceOnUse">
<stop stop-color="#0FA76F"/>
<stop offset="0.9998" stop-color="white"/>
<stop offset="0.9999" stop-color="#FF007A"/>
<stop offset="1" stop-color="white"/>
</linearGradient>
<linearGradient id="paint13_linear_858_9031" x1="255.971" y1="-211.056" x2="255.971" y2="835.74" gradientUnits="userSpaceOnUse">
<stop stop-color="#0FA76F"/>
<stop offset="0.9998" stop-color="white"/>
<stop offset="0.9999" stop-color="#FF007A"/>
<stop offset="1" stop-color="white"/>
</linearGradient>
<linearGradient id="paint14_linear_858_9031" x1="260.045" y1="-209.853" x2="260.045" y2="838.576" gradientUnits="userSpaceOnUse">
<stop stop-color="#0FA76F"/>
<stop offset="0.9998" stop-color="white"/>
<stop offset="0.9999" stop-color="#FF007A"/>
<stop offset="1" stop-color="white"/>
</linearGradient>
<linearGradient id="paint15_linear_858_9031" x1="264.05" y1="-208.598" x2="264.05" y2="841.392" gradientUnits="userSpaceOnUse">
<stop stop-color="#0FA76F"/>
<stop offset="0.9998" stop-color="white"/>
<stop offset="0.9999" stop-color="#FF007A"/>
<stop offset="1" stop-color="white"/>
</linearGradient>
<linearGradient id="paint16_linear_858_9031" x1="268.082" y1="-207.448" x2="268.082" y2="844.279" gradientUnits="userSpaceOnUse">
<stop stop-color="#0FA76F"/>
<stop offset="0.9998" stop-color="white"/>
<stop offset="0.9999" stop-color="#FF007A"/>
<stop offset="1" stop-color="white"/>
</linearGradient>
<linearGradient id="paint17_linear_858_9031" x1="272.098" y1="-206.203" x2="272.098" y2="847.132" gradientUnits="userSpaceOnUse">
<stop stop-color="#0FA76F"/>
<stop offset="0.9998" stop-color="white"/>
<stop offset="0.9999" stop-color="#FF007A"/>
<stop offset="1" stop-color="white"/>
</linearGradient>
<linearGradient id="paint18_linear_858_9031" x1="276.112" y1="-205.043" x2="276.112" y2="849.967" gradientUnits="userSpaceOnUse">
<stop stop-color="#0FA76F"/>
<stop offset="0.9998" stop-color="white"/>
<stop offset="0.9999" stop-color="#FF007A"/>
<stop offset="1" stop-color="white"/>
</linearGradient>
<linearGradient id="paint19_linear_858_9031" x1="280.211" y1="-203.833" x2="280.211" y2="852.818" gradientUnits="userSpaceOnUse">
<stop stop-color="#0FA76F"/>
<stop offset="0.9998" stop-color="white"/>
<stop offset="0.9999" stop-color="#FF007A"/>
<stop offset="1" stop-color="white"/>
</linearGradient>
<linearGradient id="paint20_linear_858_9031" x1="284.217" y1="-202.641" x2="284.217" y2="855.669" gradientUnits="userSpaceOnUse">
<stop stop-color="#0FA76F"/>
<stop offset="0.9998" stop-color="white"/>
<stop offset="0.9999" stop-color="#FF007A"/>
<stop offset="1" stop-color="white"/>
</linearGradient>
<linearGradient id="paint21_linear_858_9031" x1="288.24" y1="-201.355" x2="288.24" y2="858.522" gradientUnits="userSpaceOnUse">
<stop stop-color="#0FA76F"/>
<stop offset="0.9998" stop-color="white"/>
<stop offset="0.9999" stop-color="#FF007A"/>
<stop offset="1" stop-color="white"/>
</linearGradient>
<linearGradient id="paint22_linear_858_9031" x1="292.24" y1="-200.276" x2="292.24" y2="861.357" gradientUnits="userSpaceOnUse">
<stop stop-color="#0FA76F"/>
<stop offset="0.9998" stop-color="white"/>
<stop offset="0.9999" stop-color="#FF007A"/>
<stop offset="1" stop-color="white"/>
</linearGradient>
<linearGradient id="paint23_linear_858_9031" x1="296.319" y1="-199.038" x2="296.319" y2="864.209" gradientUnits="userSpaceOnUse">
<stop stop-color="#0FA76F"/>
<stop offset="0.9998" stop-color="white"/>
<stop offset="0.9999" stop-color="#FF007A"/>
<stop offset="1" stop-color="white"/>
</linearGradient>
<linearGradient id="paint24_linear_858_9031" x1="300.342" y1="-197.847" x2="300.342" y2="867.062" gradientUnits="userSpaceOnUse">
<stop stop-color="#0FA76F"/>
<stop offset="0.9998" stop-color="white"/>
<stop offset="0.9999" stop-color="#FF007A"/>
<stop offset="1" stop-color="white"/>
</linearGradient>
<linearGradient id="paint25_linear_858_9031" x1="304.382" y1="-196.644" x2="304.382" y2="869.896" gradientUnits="userSpaceOnUse">
<stop stop-color="#0FA76F"/>
<stop offset="0.9998" stop-color="white"/>
<stop offset="0.9999" stop-color="#FF007A"/>
<stop offset="1" stop-color="white"/>
</linearGradient>
<linearGradient id="paint26_linear_858_9031" x1="308.396" y1="-195.455" x2="308.396" y2="872.748" gradientUnits="userSpaceOnUse">
<stop stop-color="#0FA76F"/>
<stop offset="0.9998" stop-color="white"/>
<stop offset="0.9999" stop-color="#FF007A"/>
<stop offset="1" stop-color="white"/>
</linearGradient>
<linearGradient id="paint27_linear_858_9031" x1="312.446" y1="-194.268" x2="312.446" y2="875.6" gradientUnits="userSpaceOnUse">
<stop stop-color="#0FA76F"/>
<stop offset="0.9998" stop-color="white"/>
<stop offset="0.9999" stop-color="#FF007A"/>
<stop offset="1" stop-color="white"/>
</linearGradient>
<linearGradient id="paint28_linear_858_9031" x1="316.495" y1="-193.099" x2="316.495" y2="878.52" gradientUnits="userSpaceOnUse">
<stop stop-color="#0FA76F"/>
<stop offset="0.9998" stop-color="white"/>
<stop offset="0.9999" stop-color="#FF007A"/>
<stop offset="1" stop-color="white"/>
</linearGradient>
<linearGradient id="paint29_linear_858_9031" x1="320.517" y1="-191.879" x2="320.517" y2="881.287" gradientUnits="userSpaceOnUse">
<stop stop-color="#0FA76F"/>
<stop offset="0.9998" stop-color="white"/>
<stop offset="0.9999" stop-color="#FF007A"/>
<stop offset="1" stop-color="white"/>
</linearGradient>
<linearGradient id="paint30_linear_858_9031" x1="324.514" y1="-190.713" x2="324.514" y2="884.139" gradientUnits="userSpaceOnUse">
<stop stop-color="#0FA76F"/>
<stop offset="0.9998" stop-color="white"/>
<stop offset="0.9999" stop-color="#FF007A"/>
<stop offset="1" stop-color="white"/>
</linearGradient>
<linearGradient id="paint31_linear_858_9031" x1="328.51" y1="-189.541" x2="328.51" y2="886.958" gradientUnits="userSpaceOnUse">
<stop stop-color="#0FA76F"/>
<stop offset="0.9998" stop-color="white"/>
<stop offset="0.9999" stop-color="#FF007A"/>
<stop offset="1" stop-color="white"/>
</linearGradient>
<linearGradient id="paint32_linear_858_9031" x1="332.611" y1="-188.29" x2="332.611" y2="889.826" gradientUnits="userSpaceOnUse">
<stop stop-color="#0FA76F"/>
<stop offset="0.9998" stop-color="white"/>
<stop offset="0.9999" stop-color="#FF007A"/>
<stop offset="1" stop-color="white"/>
</linearGradient>
<linearGradient id="paint33_linear_858_9031" x1="336.685" y1="-187.104" x2="336.685" y2="892.679" gradientUnits="userSpaceOnUse">
<stop stop-color="#0FA76F"/>
<stop offset="0.9998" stop-color="white"/>
<stop offset="0.9999" stop-color="#FF007A"/>
<stop offset="1" stop-color="white"/>
</linearGradient>
<linearGradient id="paint34_linear_858_9031" x1="340.69" y1="-185.956" x2="340.69" y2="895.531" gradientUnits="userSpaceOnUse">
<stop stop-color="#0FA76F"/>
<stop offset="0.9998" stop-color="white"/>
<stop offset="0.9999" stop-color="#FF007A"/>
<stop offset="1" stop-color="white"/>
</linearGradient>
<linearGradient id="paint35_linear_858_9031" x1="344.745" y1="-184.638" x2="344.745" y2="898.382" gradientUnits="userSpaceOnUse">
<stop stop-color="#0FA76F"/>
<stop offset="0.9998" stop-color="white"/>
<stop offset="0.9999" stop-color="#FF007A"/>
<stop offset="1" stop-color="white"/>
</linearGradient>
<linearGradient id="paint36_linear_858_9031" x1="348.746" y1="-183.52" x2="348.746" y2="901.218" gradientUnits="userSpaceOnUse">
<stop stop-color="#0FA76F"/>
<stop offset="0.9998" stop-color="white"/>
<stop offset="0.9999" stop-color="#FF007A"/>
<stop offset="1" stop-color="white"/>
</linearGradient>
<linearGradient id="paint37_linear_858_9031" x1="352.786" y1="-182.286" x2="352.786" y2="904.07" gradientUnits="userSpaceOnUse">
<stop stop-color="#0FA76F"/>
<stop offset="0.9998" stop-color="white"/>
<stop offset="0.9999" stop-color="#FF007A"/>
<stop offset="1" stop-color="white"/>
</linearGradient>
<linearGradient id="paint38_linear_858_9031" x1="356.781" y1="-181.088" x2="356.781" y2="906.922" gradientUnits="userSpaceOnUse">
<stop stop-color="#0FA76F"/>
<stop offset="0.9998" stop-color="white"/>
<stop offset="0.9999" stop-color="#FF007A"/>
<stop offset="1" stop-color="white"/>
</linearGradient>
<linearGradient id="paint39_linear_858_9031" x1="360.848" y1="-179.958" x2="360.848" y2="909.756" gradientUnits="userSpaceOnUse">
<stop stop-color="#0FA76F"/>
<stop offset="0.9998" stop-color="white"/>
<stop offset="0.9999" stop-color="#FF007A"/>
<stop offset="1" stop-color="white"/>
</linearGradient>
<linearGradient id="paint40_linear_858_9031" x1="364.888" y1="-178.779" x2="364.888" y2="912.608" gradientUnits="userSpaceOnUse">
<stop stop-color="#0FA76F"/>
<stop offset="0.9998" stop-color="white"/>
<stop offset="0.9999" stop-color="#FF007A"/>
<stop offset="1" stop-color="white"/>
</linearGradient>
<linearGradient id="paint41_linear_858_9031" x1="368.92" y1="-177.576" x2="368.92" y2="915.461" gradientUnits="userSpaceOnUse">
<stop stop-color="#0FA76F"/>
<stop offset="0.9998" stop-color="white"/>
<stop offset="0.9999" stop-color="#FF007A"/>
<stop offset="1" stop-color="white"/>
</linearGradient>
<linearGradient id="paint42_linear_858_9031" x1="372.959" y1="-176.395" x2="372.959" y2="918.313" gradientUnits="userSpaceOnUse">
<stop stop-color="#0FA76F"/>
<stop offset="0.9998" stop-color="white"/>
<stop offset="0.9999" stop-color="#FF007A"/>
<stop offset="1" stop-color="white"/>
</linearGradient>
<linearGradient id="paint43_linear_858_9031" x1="376.948" y1="-175.199" x2="376.948" y2="921.147" gradientUnits="userSpaceOnUse">
<stop stop-color="#0FA76F"/>
<stop offset="0.9998" stop-color="white"/>
<stop offset="0.9999" stop-color="#FF007A"/>
<stop offset="1" stop-color="white"/>
</linearGradient>
</defs>
</svg>
