<svg width="100" height="100" viewBox="0 0 100 100" fill="none" xmlns="http://www.w3.org/2000/svg">
<rect width="100" height="100" rx="8" fill="#0FA76F"/>
<path d="M50.3301 52.0903C57.0578 52.0903 62.5117 46.026 62.5117 38.5452C62.5117 31.0644 57.0578 25 50.3301 25C43.6023 25 38.1484 31.0644 38.1484 38.5452C38.1484 46.026 43.6023 52.0903 50.3301 52.0903Z" fill="#E5E5E5"/>
<path d="M67.6695 59.4384C65.7503 58.3438 62.693 56.8084 59.0369 55.7115C58.5294 55.5528 57.9941 55.867 57.8175 56.4203L53.6567 69.3278L52.3969 62.3221L54.342 55.8338C54.445 55.4899 54.3936 55.1108 54.2012 54.8164C54.0109 54.5221 53.7056 54.3479 53.3784 54.3479H47.2876C46.9604 54.3479 46.6551 54.5221 46.4648 54.8164C46.2724 55.1107 46.2208 55.4899 46.324 55.8338L48.2691 62.3221L47.0093 69.3278L42.8484 56.4203C42.672 55.867 42.1347 55.5538 41.629 55.7115C37.9729 56.8084 34.9156 58.3438 32.9965 59.4384C29.9153 61.1977 28 64.67 28 68.4983V70.1507C28 72.6408 29.8221 74.6658 32.0606 74.6658H47.2876H53.3784H68.6054C70.8439 74.6658 72.666 72.6409 72.666 70.1507V68.4983C72.6659 64.67 70.7506 61.1977 67.6695 59.4384Z" fill="#E5E5E5"/>
</svg>
