<svg width="83" height="82" viewBox="0 0 83 82" fill="none" xmlns="http://www.w3.org/2000/svg">
<rect x="0.416016" width="82.1971" height="82" rx="8" fill="#0FA76F"/>
<path d="M59.0562 20H23.9725C22.0432 20 20.4639 21.5755 20.4639 23.5002V51.5C20.4639 53.4241 22.0432 55.0002 23.9725 55.0002H39.7603V58.4998H34.4977C32.56 58.4998 30.9891 60.0654 30.9891 62L52.0396 61.9963C52.0396 60.0654 50.4687 58.4967 48.531 58.4967H43.2684V55.0002H59.0562C60.9855 55.0002 62.5648 53.4241 62.5648 51.5V23.5002C62.5648 21.5755 60.9855 20 59.0562 20ZM34.7546 41.7691L32.8941 43.625L27.9941 38.7373C27.309 38.0532 27.309 36.946 27.9941 36.2624L32.8941 31.3747L34.7544 33.2305L30.475 37.4993L34.7546 41.7691ZM41.1085 45.3748H38.4104L41.9206 29.6248H44.6187L41.1085 45.3748ZM55.034 38.7373L50.1346 43.625L48.2742 41.7691L52.5538 37.4998L48.2742 33.231L50.1346 31.3752L55.0346 36.2629C55.7192 36.9428 55.7192 38.0537 55.034 38.7373Z" fill="white"/>
</svg>
