<svg width="1264" height="2" viewBox="0 0 1264 2" fill="none" xmlns="http://www.w3.org/2000/svg">
<path d="M1 0C0.447715 0 0 0.447715 0 1C0 1.55228 0.447715 2 1 2V0ZM1263 2C1263.55 2 1264 1.55228 1264 1C1264 0.447715 1263.55 0 1263 0V2ZM1 2H13.1346V0H1V2ZM37.4038 2H61.6731V0H37.4038V2ZM85.9423 2H110.212V0H85.9423V2ZM134.481 2H158.75V0H134.481V2ZM183.019 2H207.288V0H183.019V2ZM231.558 2H255.827V0H231.558V2ZM280.096 2H304.365V0H280.096V2ZM328.635 2H352.904V0H328.635V2ZM377.173 2H401.442V0H377.173V2ZM425.712 2H449.981V0H425.712V2ZM474.25 2H498.519V0H474.25V2ZM522.788 2H547.058V0H522.788V2ZM571.327 2H595.596V0H571.327V2ZM619.865 2H644.135V0H619.865V2ZM668.404 2H692.673V0H668.404V2ZM716.942 2H741.211V0H716.942V2ZM765.481 2H789.75V0H765.481V2ZM814.019 2H838.288V0H814.019V2ZM862.557 2H886.827V0H862.557V2ZM911.096 2H935.365V0H911.096V2ZM959.634 2H983.904V0H959.634V2ZM1008.17 2H1032.44V0H1008.17V2ZM1056.71 2H1080.98V0H1056.71V2ZM1105.25 2H1129.52V0H1105.25V2ZM1153.79 2H1178.06V0H1153.79V2ZM1202.33 2H1226.6V0H1202.33V2ZM1250.87 2H1263V0H1250.87V2Z" fill="#D5D5D5"/>
</svg>
