<svg width="104" height="104" viewBox="0 0 104 104" fill="none" xmlns="http://www.w3.org/2000/svg">
<g clip-path="url(#clip0_828_10793)">
<path d="M71.5 101.156H32.5C27.1156 100.957 27.1196 93.2291 32.5 93.0312H71.5C76.8844 93.2309 76.8804 100.958 71.5 101.156ZM79.625 84.9062H24.3707C10.9328 84.9062 0 73.9737 0 60.5355V27.2188C0 13.7784 10.9346 2.84375 24.375 2.84375H79.625C93.0654 2.84375 104 13.7784 104 27.2188V60.5312C104 73.9716 93.0654 84.9062 79.625 84.9062ZM24.375 10.9688C15.4148 10.9688 8.125 18.2585 8.125 27.2188V60.5355C8.125 69.4933 15.4129 76.7812 24.3707 76.7812H79.625C88.5853 76.7812 95.875 69.4915 95.875 60.5312V27.2188C95.875 18.2585 88.5853 10.9688 79.625 10.9688H24.375ZM47.5333 64.3916C47.1616 64.3916 46.784 64.3402 46.4088 64.2326C44.2526 63.6124 43.007 61.362 43.627 59.2057L52.9707 26.7057C53.5909 24.5495 55.8417 23.3049 57.9977 23.9239C60.1538 24.544 61.3994 26.7944 60.7795 28.9508L51.4357 61.4508C50.9234 63.2318 49.2984 64.3916 47.5333 64.3916ZM71.9065 60.3281C70.8559 60.3281 69.8059 59.9233 69.0109 59.1153C67.4371 57.5161 67.4576 54.9439 69.0568 53.3701L77.0106 45.5425C77.8007 44.6891 77.8009 43.5681 77.0041 42.7145L69.0373 34.7667C67.4489 33.1819 67.446 30.6097 69.0306 29.0215C70.6154 27.4328 73.1876 27.4302 74.7758 29.0146L82.7417 36.9616C86.6854 40.7341 86.6854 47.5302 82.7407 51.3029C82.7346 51.3092 82.7283 51.3155 82.722 51.3216L74.7561 59.1614C73.9647 59.9398 72.9353 60.3281 71.9065 60.3281ZM32.4998 60.3281C31.471 60.3281 30.4417 59.9398 29.6504 59.1612L21.6844 51.3214C21.6781 51.3153 21.6718 51.309 21.6657 51.3027C17.7208 47.5292 17.721 40.7339 21.6657 36.9608L29.6307 29.0146C31.2191 27.43 33.7913 27.4333 35.3758 29.0215C36.9604 30.6097 36.9576 33.1819 35.3691 34.7667L27.4032 42.7137C26.6061 43.5669 26.6045 44.6875 27.3957 45.5425L35.3494 53.3701C36.9486 54.9439 36.9692 57.5161 35.3953 59.1153C34.6003 59.9231 33.5502 60.3281 32.4998 60.3281Z" fill="#FFDFBF"/>
</g>
<defs>
<clipPath id="clip0_828_10793">
<rect width="104" height="104" fill="white"/>
</clipPath>
</defs>
</svg>
