<svg width="89" height="89" viewBox="0 0 89 89" fill="none" xmlns="http://www.w3.org/2000/svg">
<path d="M88.5159 43.3805H80.9428C80.7101 33.7973 76.7397 24.685 69.8796 17.9894C63.0195 11.2939 53.8134 7.54585 44.2274 7.54585C34.6414 7.54585 25.4353 11.2939 18.5752 17.9894C11.7151 24.685 7.74476 33.7973 7.51206 43.3805H0C0.232496 31.7959 4.9978 20.7641 13.2728 12.6535C21.5478 4.54292 32.6729 0 44.2599 0C55.8469 0 66.972 4.54292 75.247 12.6535C83.522 20.7641 88.2873 31.7959 88.5198 43.3805H88.5159Z" fill="#D6E9BC"/>
<path d="M41.1564 80.6496V88.4163C30.205 87.6463 19.931 82.8324 12.3307 74.9102C4.73035 66.988 0.346653 56.5233 0.03125 45.5494H7.63618C7.85923 51.5396 9.54163 57.3847 12.5371 62.5769C15.5326 67.7691 19.7506 72.1513 24.8247 75.3428C24.1738 73.4134 23.8259 71.3947 23.7934 69.3587V19.75L23.8991 19.8047L23.9997 19.8633H31.3844V50.6168H38.9817V58.218H31.3844V69.3625C31.4225 71.5997 32.0919 73.7807 33.3156 75.654C34.5392 77.5273 36.2672 79.0167 38.3005 79.9507C39.1991 80.364 40.1686 80.6012 41.1564 80.6496Z" fill="#D6E9BC"/>
<path d="M88.5428 45.1911C88.3845 53.0814 86.1219 60.7862 81.989 67.5094C77.8561 74.2325 72.0027 79.73 65.0339 83.4337V70.8822C65.0339 70.5206 65.0085 70.2024 65.0085 69.8433C64.9853 66.7415 63.7326 63.7755 61.5255 61.596C59.3183 59.4166 56.3368 58.2015 53.235 58.2175H41.1533V50.6189H51.1253C52.6798 50.6729 54.2292 50.4134 55.6813 49.8559C57.1333 49.2983 58.4583 48.4541 59.5772 47.3735C60.696 46.2929 61.5858 44.9981 62.1935 43.5663C62.8012 42.1345 63.1144 40.5949 63.1144 39.0395C63.1144 37.4841 62.8012 35.9445 62.1935 34.5127C61.5858 33.0809 60.696 31.7861 59.5772 30.7055C58.4583 29.6249 57.1333 28.7807 55.6813 28.2231C54.2292 27.6656 52.6798 27.4061 51.1253 27.4602H33.5547V19.8628H51.1189C55.0621 19.8338 58.9184 21.0209 62.1627 23.2623C65.407 25.5038 67.8817 28.6907 69.2497 32.3891C70.6177 36.0875 70.8126 40.1176 69.8079 43.9308C68.8031 47.7439 66.6475 51.1548 63.6346 53.6988C68.1113 56.5572 71.5477 60.3896 71.9106 68.3485C77.502 61.9015 80.6954 53.7212 80.9506 45.1911H88.5428Z" fill="#D6E9BC"/>
</svg>
