<svg width="110" height="110" viewBox="0 0 110 110" fill="none" xmlns="http://www.w3.org/2000/svg">
<g clip-path="url(#clip0_828_10812)">
<path d="M17.8056 66.8426C18.5397 67.334 19.3699 67.5688 20.1912 67.5688C21.577 67.5688 22.9376 66.8993 23.7662 65.6612C30.7093 55.286 42.3158 49.0918 54.8135 49.0918C67.2742 49.0918 78.8616 55.2576 85.8097 65.5854C87.1346 67.5544 89.8045 68.0767 91.7733 66.752C93.7423 65.4272 94.2646 62.7571 92.9399 60.7883C87.3885 52.537 79.4295 46.4486 70.3343 43.1915C75.7887 38.7359 79.2773 31.9604 79.2773 24.3848C79.2773 10.9981 68.3867 0.107422 55 0.107422C41.6133 0.107422 30.7227 10.9981 30.7227 24.3848C30.7227 31.906 34.1606 38.639 39.5476 43.0957C30.3102 46.3407 22.2314 52.5029 16.6242 60.8818C15.3044 62.854 15.8333 65.5228 17.8056 66.8426ZM55 8.70117C63.6479 8.70117 70.6836 15.7369 70.6836 24.3848C70.6836 33.0327 63.6479 40.0684 55 40.0684C46.3521 40.0684 39.3164 33.0327 39.3164 24.3848C39.3164 15.7369 46.3521 8.70117 55 8.70117ZM72.1355 76.19L65.7297 80.8111C64.7767 81.4986 64.3777 82.7174 64.7419 83.8299L67.3215 91.3069C67.4304 91.6399 67.4723 91.9652 67.4584 92.2754C67.3671 94.2835 64.8502 95.6572 63.0042 94.3256L56.5987 89.7033C56.1221 89.3595 55.5612 89.1877 55.0002 89.1877C54.4393 89.1877 53.8783 89.3595 53.4018 89.7033L46.9962 94.3256C45.1503 95.6572 42.6213 94.2835 42.5414 92.2754C42.5292 91.9652 42.5721 91.6397 42.6811 91.3069L45.2583 83.8299C45.6225 82.7174 45.2235 81.4986 44.2705 80.8111L37.8647 76.19C35.7335 74.6526 36.8287 71.0059 39.4631 71.0059H47.381C48.5592 71.0059 49.6033 70.5523 49.9673 69.4399L52.4139 61.9145C52.8211 60.6708 53.9105 60.0488 55.0002 60.0488C56.0899 60.0488 57.1794 60.6708 57.5865 61.9145L60.0331 69.4399C60.3973 70.5523 61.4412 71.0059 62.6194 71.0059H70.5373C73.1715 71.0059 74.2668 74.6526 72.1355 76.19ZM108.874 91.2291L102.468 95.8502C101.515 96.5377 101.116 97.7565 101.48 98.8689L104.06 106.346C104.169 106.679 104.211 107.004 104.197 107.314C104.105 109.323 101.588 110.696 99.7425 109.365L93.3369 104.742C92.8604 104.399 92.2995 104.227 91.7385 104.227C91.1775 104.227 90.6166 104.399 90.1401 104.742L83.7345 109.365C81.8886 110.696 79.3596 109.323 79.2797 107.314C79.2675 107.004 79.3104 106.679 79.4194 106.346L81.9966 98.8689C82.3608 97.7565 81.9618 96.5377 81.0088 95.8502L74.603 91.2291C72.4717 89.6917 73.567 86.0449 76.2014 86.0449H84.1193C85.2975 86.0449 86.3416 85.5914 86.7056 84.4789L89.1522 76.9536C89.5593 75.7099 90.6488 75.0879 91.7385 75.0879C92.8282 75.0879 93.9177 75.7099 94.3248 76.9536L96.7714 84.4789C97.1356 85.5914 98.1795 86.0449 99.3577 86.0449H107.276C109.91 86.0449 111.005 89.6917 108.874 91.2291ZM35.3972 91.2291L28.9914 95.8502C28.0384 96.5377 27.6394 97.7565 28.0036 98.8689L30.5832 106.346C30.6921 106.679 30.734 107.004 30.7201 107.314C30.6288 109.323 28.1119 110.696 26.2659 109.365L19.8602 104.742C19.3836 104.399 18.8227 104.227 18.2617 104.227C17.7008 104.227 17.1398 104.399 16.6633 104.742L10.2577 109.365C8.41178 110.696 5.88285 109.323 5.80293 107.314C5.79068 107.004 5.83365 106.679 5.94258 106.346L8.51984 98.8689C8.884 97.7565 8.48504 96.5377 7.53199 95.8502L1.12621 91.2291C-1.00504 89.6917 0.0902342 86.0449 2.72465 86.0449H10.6425C11.8207 86.0449 12.8648 85.5914 13.2288 84.4789L15.6754 76.9536C16.0826 75.7099 17.172 75.0879 18.2617 75.0879C19.3514 75.0879 20.4409 75.7099 20.848 76.9536L23.2946 84.4789C23.6588 85.5914 24.7027 86.0449 25.8809 86.0449H33.7988C36.4332 86.0449 37.5285 89.6917 35.3972 91.2291Z" fill="#ECFBFF"/>
</g>
<defs>
<clipPath id="clip0_828_10812">
<rect width="110" height="110" fill="white"/>
</clipPath>
</defs>
</svg>
