<svg width="130" height="121" viewBox="0 0 130 121" fill="none" xmlns="http://www.w3.org/2000/svg">
<g clip-path="url(#clip0_828_10749)">
<path d="M118.033 8.125H60.9206C54.3221 8.125 48.9533 13.4937 48.9533 20.0923V56.7292L38.3488 51.4557C37.9907 51.2772 37.6267 51.1086 37.2598 50.9489C40.3731 47.6987 42.2923 43.295 42.2923 38.4499C42.2923 28.4772 34.1792 20.3631 24.2064 20.3631C14.2326 20.3631 6.11954 28.4772 6.11954 38.4499C6.11954 43.8692 8.51875 48.7371 12.3075 52.0547C5.33005 55.9804 0 63.6382 0 73.125V85.3631C0 90.6316 3.42079 95.1157 8.15872 96.7095V117.999C8.15872 120.102 9.86366 121.808 11.9673 121.808H36.4435C38.5471 121.808 40.2521 120.102 40.2521 117.999V75.2068L52.4455 81.3026C57.112 83.6353 63.4418 82.2448 66.3042 76.9336H79.9596L65.4999 116.697C64.7808 118.673 65.8014 120.859 67.7781 121.577C70.0375 122.4 72.0469 120.982 72.6588 119.3L88.0648 76.9336H90.7348L106.298 119.312C106.89 120.92 108.884 122.42 111.187 121.573C113.161 120.848 114.174 118.661 113.448 116.686L98.8489 76.9336H118.033C124.503 76.9336 130 71.7136 130 64.9663V20.0923C130 13.344 124.503 8.125 118.033 8.125ZM13.7367 38.4499C13.7367 32.6765 18.433 27.9803 24.2054 27.9803C29.9788 27.9803 34.6751 32.6765 34.6751 38.4499C34.6751 44.2223 29.9788 48.9186 24.2054 48.9186C18.433 48.9186 13.7367 44.2223 13.7367 38.4499ZM59.7949 72.8612C59.785 72.8889 59.7751 72.9177 59.7662 72.9465C59.5063 73.6715 58.9191 74.2825 58.2001 74.578C57.4393 74.8875 56.5834 74.8547 55.8524 74.4897C48.6102 70.8666 38.1454 65.6387 38.1454 65.6387C35.6183 64.3752 32.6349 66.216 32.6349 69.0456V114.19H15.7759V93.5218C15.7759 91.4191 14.07 89.7132 11.9673 89.7132C9.5681 89.7132 7.61719 87.7623 7.61719 85.3631V73.125C7.61719 63.8187 15.1947 56.5368 24.2054 56.5368H27.5706C30.1236 56.5368 32.6736 57.1358 34.9518 58.2735C34.9518 58.2735 53.843 67.668 58.6543 70.0642C59.6848 70.576 60.1748 71.7781 59.7949 72.8612ZM122.383 64.9663C122.383 66.1297 121.932 67.2217 121.11 68.0429C120.302 68.8522 119.18 69.3164 118.033 69.3164H67.1324C67.1255 69.2956 67.1205 69.2747 67.1136 69.2549L76.5656 50.3518C77.5059 48.4703 76.7442 46.1832 74.8627 45.2419C72.9822 44.3017 70.694 45.0634 69.7528 46.9449L61.6913 63.0669C60.1887 62.3181 58.4421 61.4483 56.5705 60.518V20.0923C56.5705 17.6941 58.5214 15.7422 60.9206 15.7422H118.033C119.18 15.7422 120.302 16.2064 121.111 17.0177C121.932 17.8369 122.383 18.9289 122.383 20.0923V64.9663Z" fill="#FFF5D5"/>
<path d="M109.877 24.4424H69.082C66.9784 24.4424 65.2734 26.1473 65.2734 28.251C65.2734 30.3546 66.9784 32.0596 69.082 32.0596H109.877C111.979 32.0596 113.685 30.3546 113.685 28.251C113.685 26.1473 111.98 24.4424 109.877 24.4424Z" fill="#FFF5D5"/>
<path d="M109.87 38.7207H89.4727C87.37 38.7207 85.6641 40.4256 85.6641 42.5293C85.6641 44.6329 87.37 46.3379 89.4727 46.3379H109.87C111.973 46.3379 113.679 44.6329 113.679 42.5293C113.679 40.4256 111.974 38.7207 109.87 38.7207Z" fill="#FFF5D5"/>
<path d="M109.87 52.999H89.4727C87.37 52.999 85.6641 54.704 85.6641 56.8076C85.6641 58.9103 87.37 60.6162 89.4727 60.6162H109.87C111.973 60.6162 113.679 58.9103 113.679 56.8076C113.679 54.704 111.974 52.999 109.87 52.999Z" fill="#FFF5D5"/>
</g>
<defs>
<clipPath id="clip0_828_10749">
<rect width="130" height="121" fill="white"/>
</clipPath>
</defs>
</svg>
