<svg width="78" height="70" viewBox="0 0 78 70" fill="none" xmlns="http://www.w3.org/2000/svg">
<path d="M76.9592 20.8353L57.002 0.876952C56.4406 0.315535 55.679 0 54.8851 0H8.98107C4.02891 0 0 4.02891 0 8.98107V93.2035C0 98.1557 4.02891 102.185 8.98107 102.185H68.8549C73.807 102.185 77.8359 98.1557 77.8359 93.2035V22.9522C77.8359 22.1583 77.5206 21.3967 76.9592 20.8353ZM57.878 10.2211L67.6147 19.9579H57.878V10.2211ZM68.8549 96.1972H8.98107C7.33035 96.1972 5.98738 94.8543 5.98738 93.2035V8.98107C5.98738 7.33035 7.33035 5.98738 8.98107 5.98738H51.8906V22.9516C51.8906 24.6049 53.231 25.9453 54.8843 25.9453H71.8486V93.2035C71.8486 94.8543 70.5056 96.1972 68.8549 96.1972Z" fill="#FFD7CA"/>
<path d="M55.1921 45.1846C54.1333 43.9144 52.2453 43.743 50.9758 44.8014C49.7057 45.8599 49.5338 47.7476 50.5924 49.0177L58.9745 59.0759L50.5926 69.1341C49.534 70.4042 49.7059 72.292 50.976 73.3504C51.5358 73.8168 52.2152 74.0443 52.8909 74.0443C53.7485 74.0443 54.6001 73.6775 55.1923 72.9672L65.1713 60.9924C66.0965 59.8822 66.0965 58.2696 65.1713 57.1593L55.1921 45.1846Z" fill="#FFD7CA"/>
<path d="M26.8658 44.8014C25.5957 43.743 23.708 43.9144 22.6495 45.1846L12.6705 57.1593C11.7453 58.2696 11.7453 59.8822 12.6705 60.9924L22.6495 72.9672C23.2416 73.6777 24.093 74.0443 24.9508 74.0443C25.6266 74.0443 26.3062 73.8166 26.8658 73.3504C28.1359 72.2918 28.3077 70.4042 27.2492 69.1341L18.867 59.0759L27.249 49.0177C28.3075 47.7476 28.1359 45.8597 26.8658 44.8014Z" fill="#FFD7CA"/>
<path d="M43.8541 44.2607C42.2858 43.7382 40.5901 44.5857 40.0672 46.1542L32.0841 70.1037C31.5614 71.6722 32.409 73.3676 33.9775 73.8905C34.2914 73.9951 34.6107 74.0448 34.9245 74.0448C36.1778 74.0448 37.346 73.2514 37.7643 71.9971L45.7475 48.0476C46.2704 46.4789 45.4228 44.7836 43.8541 44.2607Z" fill="#FFD7CA"/>
</svg>
