<svg width="115" height="105" viewBox="0 0 115 105" fill="none" xmlns="http://www.w3.org/2000/svg">
<g clip-path="url(#clip0_828_10711)">
<path d="M106.914 36.8359C106.914 33.1044 105.808 29.4566 103.734 26.3539C101.661 23.2512 98.7146 20.833 95.267 19.4049C91.8195 17.9769 88.026 17.6033 84.3661 18.3313C80.7062 19.0593 77.3444 20.8562 74.7058 23.4948C72.0671 26.1335 70.2702 29.4953 69.5422 33.1551C68.8142 36.815 69.1879 40.6086 70.6159 44.0561C72.0439 47.5036 74.4621 50.4503 77.5648 52.5234C80.6675 54.5966 84.3153 55.7031 88.0469 55.7031C93.049 55.6974 97.8446 53.7077 101.382 50.1707C104.919 46.6337 106.908 41.8381 106.914 36.8359ZM88.0469 48.5156C85.7369 48.5156 83.4787 47.8306 81.558 46.5473C79.6373 45.2639 78.1403 43.4398 77.2563 41.3056C76.3722 39.1714 76.141 36.823 76.5916 34.5574C77.0423 32.2917 78.1547 30.2106 79.7881 28.5772C81.4215 26.9437 83.5027 25.8313 85.7683 25.3807C88.0339 24.93 90.3823 25.1613 92.5165 26.0453C94.6507 26.9293 96.4748 28.4263 97.7582 30.3471C99.0416 32.2678 99.7266 34.5259 99.7266 36.8359C99.723 39.9325 98.4913 42.9012 96.3017 45.0908C94.1121 47.2804 91.1434 48.5121 88.0469 48.5156Z" fill="#D9FFDC"/>
<path d="M106.016 55.7031H76.0864L54.8214 47.1724C47.2376 43.8932 41.1004 54.9843 47.8699 59.6864L69.3913 75.4688H10.7812V7.1875H88.0469V10.7812C88.0469 11.7344 88.4255 12.6485 89.0995 13.3224C89.7734 13.9964 90.6875 14.375 91.6406 14.375C92.5938 14.375 93.5078 13.9964 94.1818 13.3224C94.8558 12.6485 95.2344 11.7344 95.2344 10.7812V7.1875C96.1875 7.1875 97.1016 6.80887 97.7755 6.13492C98.4495 5.46096 98.8281 4.54687 98.8281 3.59375C98.8281 2.64063 98.4495 1.72654 97.7755 1.05259C97.1016 0.378626 96.1875 0 95.2344 0L3.59375 0C2.64063 0 1.72654 0.378626 1.05259 1.05259C0.378626 1.72654 0 2.64063 0 3.59375C0 4.54687 0.378626 5.46096 1.05259 6.13492C1.72654 6.80887 2.64063 7.1875 3.59375 7.1875V79.0625C3.5938 80.0156 3.97244 80.9297 4.64639 81.6036C5.32034 82.2776 6.23439 82.6562 7.1875 82.6562H46.7188V86.8789C44.3209 87.7267 42.3 89.3948 41.0132 91.5884C39.7264 93.7821 39.2564 96.3601 39.6865 98.8667C40.1166 101.373 41.4189 103.647 43.3634 105.286C45.3079 106.926 47.7692 107.825 50.3125 107.825C52.8558 107.825 55.3171 106.926 57.2616 105.286C59.2061 103.647 60.5084 101.373 60.9385 98.8667C61.3685 96.3601 60.8986 93.7821 59.6118 91.5884C58.325 89.3948 56.3041 87.7267 53.9062 86.8789V82.6562H71.875V111.406C71.875 112.359 72.2537 113.273 72.9276 113.947C73.6016 114.621 74.5156 115 75.4688 115H100.625C101.578 115 102.492 114.621 103.166 113.947C103.84 113.273 104.219 112.359 104.219 111.406V93.4375H106.016C108.398 93.4347 110.681 92.4872 112.365 90.8029C114.05 89.1187 114.997 86.8351 115 84.4531V64.6875C114.997 62.3056 114.05 60.022 112.365 58.3377C110.681 56.6534 108.398 55.7059 106.016 55.7031ZM50.3125 100.625C49.6017 100.625 48.9069 100.414 48.3159 100.019C47.7249 99.6245 47.2643 99.0632 46.9923 98.4065C46.7203 97.7498 46.6491 97.0273 46.7878 96.3301C46.9265 95.633 47.2687 94.9927 47.7713 94.4901C48.2739 93.9875 48.9143 93.6452 49.6114 93.5066C50.3085 93.3679 51.0311 93.4391 51.6878 93.7111C52.3444 93.9831 52.9057 94.4437 53.3006 95.0347C53.6955 95.6257 53.9062 96.3205 53.9062 97.0312C53.9053 97.9841 53.5264 98.8976 52.8526 99.5714C52.1789 100.245 51.2653 100.624 50.3125 100.625ZM107.812 84.4531C107.812 84.9295 107.622 85.3862 107.286 85.723C106.949 86.0599 106.492 86.2494 106.016 86.25H89.8701L102.145 80.5225C103.008 80.1194 103.677 79.3898 104.002 78.494C104.328 77.5983 104.285 76.6098 103.882 75.746C103.479 74.8822 102.749 74.214 101.853 73.8882C100.958 73.5624 99.9691 73.6058 99.1053 74.0088L84.6285 80.7646C83.2574 81.4046 82.1457 82.4932 81.4769 83.8505C80.8081 85.2078 80.6223 86.7526 80.9501 88.2297C81.278 89.7069 82.1 91.028 83.2802 91.9749C84.4605 92.9218 85.9284 93.4377 87.4415 93.4375H97.0312V107.812H79.0625V75.4688C79.0624 74.9043 78.9294 74.3478 78.6742 73.8443C78.4191 73.3409 78.0489 72.9046 77.5938 72.5708L52.1453 53.844L74.0544 62.6327C74.4799 62.803 74.9341 62.8905 75.3924 62.8906H106.016C106.492 62.8912 106.949 63.0808 107.286 63.4176C107.622 63.7544 107.812 64.2111 107.812 64.6875V84.4531Z" fill="#D9FFDC"/>
<path d="M21.5625 68.2812C23.5473 68.2812 25.1562 66.6723 25.1562 64.6875C25.1562 62.7027 23.5473 61.0938 21.5625 61.0938C19.5777 61.0938 17.9688 62.7027 17.9688 64.6875C17.9688 66.6723 19.5777 68.2812 21.5625 68.2812Z" fill="#D9FFDC"/>
<path d="M43.125 37.7344C43.125 36.7813 42.7463 35.8672 42.0724 35.1933C41.3984 34.5193 40.4844 34.1407 39.5312 34.1406H21.5625C20.6094 34.1406 19.6953 34.5193 19.0213 35.1932C18.3474 35.8672 17.9688 36.7813 17.9688 37.7344C17.9688 38.6875 18.3474 39.6016 19.0213 40.2755C19.6953 40.9495 20.6094 41.3281 21.5625 41.3281H39.5312C40.4844 41.3281 41.3984 40.9494 42.0724 40.2755C42.7463 39.6015 43.125 38.6875 43.125 37.7344Z" fill="#D9FFDC"/>
<path d="M61.0938 23.3594C61.0937 22.4063 60.7151 21.4922 60.0411 20.8183C59.3672 20.1443 58.4531 19.7657 57.5 19.7656H21.5625C20.6094 19.7656 19.6953 20.1443 19.0213 20.8182C18.3474 21.4922 17.9688 22.4063 17.9688 23.3594C17.9688 24.3125 18.3474 25.2266 19.0213 25.9005C19.6953 26.5745 20.6094 26.9531 21.5625 26.9531H57.5C58.4531 26.9531 59.3672 26.5744 60.0411 25.9005C60.7151 25.2265 61.0937 24.3125 61.0938 23.3594Z" fill="#D9FFDC"/>
</g>
<defs>
<clipPath id="clip0_828_10711">
<rect width="115" height="105" fill="white"/>
</clipPath>
</defs>
</svg>
