<svg width="91" height="91" viewBox="0 0 91 91" fill="none" xmlns="http://www.w3.org/2000/svg">
<path d="M43.6609 19.782C41.4899 18.5219 38.8954 18.5177 36.7202 19.7702C34.5388 21.0268 33.2363 23.2825 33.2363 25.8034V43.513C33.2363 46.0346 34.5388 48.2896 36.7209 49.5462C37.8047 50.1704 38.9926 50.4828 40.1812 50.4828C41.3767 50.4828 42.5722 50.1669 43.6609 49.5344L58.9203 40.6803C61.0899 39.4216 62.3848 37.1701 62.3848 34.6582C62.3848 32.1463 61.0899 29.8948 58.9203 28.6361L43.6609 19.782ZM40.3457 43.2387V26.0777L55.1331 34.6582L40.3457 43.2387ZM83.8906 37.1465V14.2188C83.8906 10.2989 80.7011 7.10938 76.7812 7.10938H14.2188C10.2989 7.10938 7.10938 10.2989 7.10938 14.2188V55.0977C7.10938 59.0175 10.2989 62.207 14.2188 62.207H76.7812C80.7011 62.207 83.8906 59.0175 83.8906 55.0977C83.8906 53.1342 85.4819 51.543 87.4453 51.543C89.4087 51.543 91 53.1342 91 55.0977C91 62.9381 84.6217 69.3164 76.7812 69.3164H14.2188C6.3783 69.3164 0 62.9381 0 55.0977V14.2188C0 6.3783 6.3783 0 14.2188 0H76.7812C84.6217 0 91 6.3783 91 14.2188V37.1465C91 39.1099 89.4087 40.7012 87.4453 40.7012C85.4819 40.7012 83.8906 39.1099 83.8906 37.1465ZM91 83.7129C91 85.6763 89.4087 87.2676 87.4453 87.2676H41.7676C39.8042 87.2676 38.2129 85.6763 38.2129 83.7129C38.2129 81.7495 39.8042 80.1582 41.7676 80.1582H87.4453C89.4087 80.1582 91 81.7495 91 83.7129ZM31.1035 83.8906C31.1035 87.8167 27.9203 91 23.9941 91C21.2899 91 18.9391 89.49 17.7366 87.2676H3.55469C1.59128 87.2676 0 85.6763 0 83.7129C0 81.7495 1.59128 80.1582 3.55469 80.1582H17.9435C19.196 78.1323 21.4371 76.7812 23.9941 76.7812C27.9203 76.7812 31.1035 79.9645 31.1035 83.8906Z" fill="#CEE9FF"/>
</svg>
