<svg width="99" height="105" viewBox="0 0 99 105" fill="none" xmlns="http://www.w3.org/2000/svg">
<path fill-rule="evenodd" clip-rule="evenodd" d="M50.9688 0.803711C36.9654 0.803711 25.5938 12.2151 25.5938 26.2674C25.5938 40.3197 36.9654 51.7311 50.9688 51.7311C64.9758 51.7311 76.3438 40.3197 76.3438 26.2674C76.3438 12.2151 64.9758 0.803711 50.9688 0.803711ZM50.9688 8.07905C60.9738 8.07905 69.0938 16.2274 69.0938 26.2674C69.0938 36.3074 60.9738 44.4558 50.9688 44.4558C40.9674 44.4558 32.8438 36.3074 32.8438 26.2674C32.8438 16.2274 40.9674 8.07905 50.9688 8.07905Z" fill="#FEE7F3"/>
<path fill-rule="evenodd" clip-rule="evenodd" d="M7.46875 95.3831H48.0035C50.0045 95.3831 51.6285 97.0128 51.6285 99.0208C51.6285 101.029 50.0045 102.658 48.0035 102.658H3.84375C1.84275 102.658 0.21875 101.029 0.21875 99.0208C0.21875 99.0208 0.21875 96.0197 0.21875 91.7454C0.21875 73.6625 14.8275 59.0063 32.8438 59.0063H48.0035C50.0045 59.0063 51.6285 60.636 51.6285 62.644C51.6285 64.652 50.0045 66.2817 48.0035 66.2817H32.8438C18.8295 66.2817 7.46875 77.6822 7.46875 91.7454V95.3831Z" fill="#FEE7F3"/>
<path fill-rule="evenodd" clip-rule="evenodd" d="M80.802 97.6099L72.1274 103.507C71.0145 104.26 69.579 104.34 68.3973 103.707C67.2119 103.077 66.4688 101.841 66.4688 100.495V75.9949C66.4688 74.4852 67.4004 73.1284 68.8069 72.5936C70.217 72.0589 71.8084 72.4481 72.8053 73.5795C74.7664 75.7948 77.6265 77.1953 80.8056 77.1953C83.9884 77.1953 86.8485 75.7948 88.806 73.5795C89.8065 72.4481 91.3979 72.0589 92.8044 72.5936C94.2145 73.1284 95.1425 74.4852 95.1425 75.9949V100.495C95.1425 101.841 94.403 103.077 93.2176 103.707C92.0323 104.34 90.5968 104.26 89.4875 103.507L80.802 97.6099ZM73.7187 83.0083V93.6376L78.772 90.2073C79.9973 89.3742 81.6068 89.3706 82.8356 90.2036L87.8925 93.6412V83.0083C85.7211 83.9505 83.3214 84.4706 80.8056 84.4706C78.2899 84.4706 75.8937 83.9505 73.7187 83.0083Z" fill="#FEE7F3"/>
<path fill-rule="evenodd" clip-rule="evenodd" d="M80.8073 48.4609C70.9074 48.4609 62.8672 56.5293 62.8672 66.4638C62.8672 76.4019 70.9074 84.4703 80.8073 84.4703C90.7108 84.4703 98.7511 76.4019 98.7511 66.4638C98.7511 56.5293 90.7108 48.4609 80.8073 48.4609ZM80.8073 55.7363C86.7088 55.7363 91.5011 60.5416 91.5011 66.4638C91.5011 72.3859 86.7088 77.1949 80.8073 77.1949C74.9058 77.1949 70.1172 72.3859 70.1172 66.4638C70.1172 60.5416 74.9058 55.7363 80.8073 55.7363Z" fill="#FEE7F3"/>
</svg>
