<svg width="106" height="87" viewBox="0 0 106 87" fill="none" xmlns="http://www.w3.org/2000/svg">
<g clip-path="url(#clip0_830_56757)">
<path d="M61.4941 41.9297C73.0187 41.9297 82.3945 32.5538 82.3945 21.0293C82.3945 9.50477 73.0187 0.128906 61.4941 0.128906C49.9696 0.128906 40.5938 9.50477 40.5938 21.0293C40.5938 32.5538 49.9696 41.9297 61.4941 41.9297ZM61.4941 7.33594C69.0447 7.33594 75.1875 13.4787 75.1875 21.0293C75.1875 28.5799 69.0447 34.7226 61.4941 34.7226C53.9436 34.7226 47.8008 28.5799 47.8008 21.0293C47.8008 13.4787 53.9436 7.33594 61.4941 7.33594Z" fill="#FFE6A5"/>
<path d="M103.775 41.9297C111.061 41.9297 116.988 36.0024 116.988 28.7168C116.988 21.4312 111.061 15.5039 103.775 15.5039C96.4898 15.5039 90.5625 21.4312 90.5625 28.7168C90.5625 36.0024 96.4898 41.9297 103.775 41.9297ZM103.775 22.7109C107.087 22.7109 109.781 25.4052 109.781 28.7168C109.781 32.0284 107.087 34.7227 103.775 34.7227C100.464 34.7227 97.7695 32.0284 97.7695 28.7168C97.7695 25.4052 100.464 22.7109 103.775 22.7109Z" fill="#FFE6A5"/>
<path d="M106.688 50.0977H101.115C94.5469 50.0977 88.8773 53.9779 86.2939 59.5514C80.9748 53.7449 73.3347 50.0977 64.8582 50.0977H58.142C49.6656 50.0977 42.0254 53.7449 36.7064 59.5514C34.1226 53.9779 28.4531 50.0977 21.8853 50.0977H16.3119C7.31754 50.0977 0 57.371 0 66.3111V92.5471C0 96.4283 3.16965 99.5859 7.06577 99.5859H29.1017C29.4712 103.886 33.0872 107.273 37.4818 107.273H85.5184C89.9127 107.273 93.5287 103.886 93.8985 99.5859H115.683C119.718 99.5859 123 96.3163 123 92.2972V66.3111C123 57.371 115.682 50.0977 106.688 50.0977ZM7.20703 66.3111C7.20703 61.3449 11.2915 57.3047 16.3119 57.3047H21.8853C26.9058 57.3047 30.9902 61.3449 30.9902 66.3111V68.7785C28.567 75.088 29.0684 78.8693 29.0684 92.3789H7.20703V66.3111ZM86.7246 98.8602C86.7246 99.5254 86.1836 100.066 85.5184 100.066H37.4816C36.8164 100.066 36.2754 99.5252 36.2754 98.8602V79.1713C36.2754 67.1139 46.0846 57.3047 58.1418 57.3047H64.858C76.9153 57.3047 86.7246 67.1139 86.7246 79.1711V98.8602ZM115.793 92.2972C115.793 92.4214 117.136 92.3789 93.9316 92.3789C93.9316 78.7694 94.4291 75.0777 92.0098 68.7785V66.3111C92.0098 61.3449 96.0942 57.3047 101.115 57.3047H106.688C111.708 57.3047 115.793 61.3449 115.793 66.3111V92.2972Z" fill="#FFE6A5"/>
<path d="M19.2129 41.9297C26.4985 41.9297 32.4258 36.0024 32.4258 28.7168C32.4258 21.4312 26.4985 15.5039 19.2129 15.5039C11.9273 15.5039 6 21.4312 6 28.7168C6 36.0024 11.9273 41.9297 19.2129 41.9297ZM19.2129 22.7109C22.5245 22.7109 25.2187 25.4052 25.2187 28.7168C25.2187 32.0284 22.5245 34.7227 19.2129 34.7227C15.9013 34.7227 13.207 32.0284 13.207 28.7168C13.207 25.4052 15.9013 22.7109 19.2129 22.7109Z" fill="#FFE6A5"/>
</g>
<defs>
<clipPath id="clip0_830_56757">
<rect width="106" height="87" fill="white"/>
</clipPath>
</defs>
</svg>
