<svg width="211" height="175" viewBox="0 0 211 175" fill="none" xmlns="http://www.w3.org/2000/svg">
<g clip-path="url(#clip0_830_56813)">
<circle cx="148.5" cy="148.5" r="147.5" stroke="#FFE7C4" stroke-width="2" stroke-dasharray="9 9"/>
</g>
<g clip-path="url(#clip1_830_56813)">
<path d="M178.091 62.1076L187.898 52.3014C189.121 51.0781 189.487 49.2386 188.825 47.6405C188.163 46.0422 186.603 45 184.873 45H142.105C139.743 45 137.828 46.9148 137.828 49.2768C137.828 52.9618 137.828 75.9417 137.828 79.215H114.142C115.602 76.6965 116.443 73.7762 116.443 70.6612C116.443 61.2279 108.769 53.5535 99.3358 53.5535C89.9025 53.5535 82.2281 61.2282 82.2281 70.6612C82.2281 73.7762 83.0691 76.6965 84.5296 79.215H82.2281C70.4367 79.215 60.8438 88.8079 60.8438 100.599V126.546C60.8438 133.62 66.5996 139.376 73.6743 139.376C74.5358 139.376 75.377 139.291 76.1917 139.128L69.8284 174.858C68.0385 181.589 71.9768 188.566 78.6905 190.487C86.6729 192.791 93.6258 186.911 94.6589 181.276L99.3358 155.751L104.013 181.276C104.038 181.412 104.069 181.547 104.107 181.681C106.017 188.363 113.071 192.472 119.971 190.49C126.695 188.566 130.633 181.588 128.843 174.858L120.72 129.249V104.876H137.828V186.708C137.828 189.07 139.743 190.984 142.105 190.984C144.467 190.984 146.381 189.07 146.381 186.708V104.141C151.359 102.375 154.935 97.6212 154.935 92.0456C154.935 86.4699 151.359 81.7161 146.381 79.9504V79.2147H184.873C186.603 79.2147 188.163 78.1724 188.825 76.5744C189.487 74.9764 189.121 73.1366 187.897 71.9136L178.091 62.1076ZM99.3358 62.1076C104.052 62.1076 107.89 65.945 107.89 70.6614C107.89 75.3779 104.052 79.2153 99.3358 79.2153C94.6193 79.2153 90.782 75.3779 90.782 70.6614C90.782 65.9447 94.619 62.1076 99.3358 62.1076ZM146.382 92.0458C146.382 94.4041 144.463 96.3226 142.105 96.3226H116.443C114.081 96.3226 112.167 98.2374 112.167 100.599V129.626C112.167 129.877 112.189 130.128 112.233 130.376C120.934 179.234 120.465 176.662 120.555 176.977C121.203 179.244 119.886 181.617 117.614 182.267C115.353 182.916 113.081 181.609 112.383 179.494L103.543 131.25C103.171 129.22 101.401 127.744 99.3361 127.744C97.2715 127.744 95.5013 129.22 95.1294 131.25L86.2896 179.495C85.5841 181.639 83.3157 182.918 81.0539 182.265C78.7866 181.617 77.4692 179.244 78.1173 176.977C78.2072 176.663 77.7181 179.346 86.4396 130.376C86.4838 130.128 86.5058 129.877 86.5058 129.626V100.599C86.5058 98.2374 84.5909 96.3226 82.229 96.3226C79.8671 96.3226 77.9522 98.2374 77.9522 100.599V126.546C77.9522 128.904 76.0337 130.822 73.6755 130.822C71.3172 130.822 69.3987 128.904 69.3987 126.546V100.599C69.3987 93.5247 75.1546 87.7688 82.2293 87.7688H142.106C144.463 87.7688 146.382 89.6873 146.382 92.0458ZM146.381 70.6612V53.5538H174.548L169.018 59.0833C167.348 60.7534 167.348 63.4616 169.018 65.132L174.548 70.6614H146.381V70.6612Z" fill="#FFCEB4"/>
</g>
<defs>
<clipPath id="clip0_830_56813">
<rect width="211" height="175" fill="white"/>
</clipPath>
<clipPath id="clip1_830_56813">
<rect width="146" height="130" fill="white" transform="translate(52 45)"/>
</clipPath>
</defs>
</svg>
