<svg width="195" height="173" viewBox="0 0 195 173" fill="none" xmlns="http://www.w3.org/2000/svg">
<circle cx="148.5" cy="148.5" r="148" stroke="#FFF9FF"/>
<g clip-path="url(#clip0_830_56761)">
<path d="M79.5625 135.438C76.7194 135.438 73.9401 134.594 71.5762 133.015C69.2122 131.435 67.3697 129.19 66.2817 126.564C65.1937 123.937 64.9091 121.047 65.4637 118.258C66.0184 115.47 67.3875 112.908 69.3978 110.898C71.4082 108.887 73.9696 107.518 76.7581 106.964C79.5466 106.409 82.4369 106.694 85.0636 107.782C87.6903 108.87 89.9353 110.712 91.5149 113.076C93.0944 115.44 93.9375 118.219 93.9375 121.063C93.9335 124.874 92.4177 128.528 89.7228 131.223C87.0278 133.918 83.3738 135.434 79.5625 135.438ZM79.5625 113.875C78.141 113.875 76.7513 114.297 75.5693 115.086C74.3874 115.876 73.4661 116.999 72.9221 118.312C72.3781 119.625 72.2358 121.07 72.5131 122.465C72.7904 123.859 73.475 125.14 74.4802 126.145C75.4854 127.15 76.7661 127.835 78.1603 128.112C79.5545 128.389 80.9997 128.247 82.313 127.703C83.6264 127.159 84.7489 126.238 85.5387 125.056C86.3285 123.874 86.75 122.484 86.75 121.063C86.7478 119.157 85.9899 117.33 84.6424 115.983C83.295 114.635 81.4681 113.877 79.5625 113.875Z" fill="#F8F3FA"/>
<path d="M97.5312 157H61.5938C60.6406 157 59.7265 156.621 59.0526 155.947C58.3786 155.273 58 154.359 58 153.406V149.812C58 144.094 60.2718 138.609 64.3155 134.566C68.3593 130.522 73.8438 128.25 79.5625 128.25C85.2812 128.25 90.7657 130.522 94.8095 134.566C98.8532 138.609 101.125 144.094 101.125 149.812V153.406C101.125 154.359 100.746 155.273 100.072 155.947C99.3985 156.621 98.4844 157 97.5312 157ZM65.1875 149.812H93.9375C93.9375 146 92.423 142.344 89.7272 139.648C87.0313 136.952 83.375 135.438 79.5625 135.438C75.75 135.438 72.0937 136.952 69.3978 139.648C66.702 142.344 65.1875 146 65.1875 149.812Z" fill="#F8F3FA"/>
<path d="M115.5 135.438C112.657 135.438 109.878 134.594 107.514 133.015C105.15 131.435 103.307 129.19 102.219 126.564C101.131 123.937 100.847 121.047 101.401 118.258C101.956 115.47 103.325 112.908 105.335 110.898C107.346 108.887 109.907 107.518 112.696 106.964C115.484 106.409 118.374 106.694 121.001 107.782C123.628 108.87 125.873 110.712 127.452 113.076C129.032 115.44 129.875 118.219 129.875 121.063C129.871 124.874 128.355 128.528 125.66 131.223C122.965 133.918 119.311 135.434 115.5 135.438ZM115.5 113.875C114.078 113.875 112.689 114.297 111.507 115.086C110.325 115.876 109.404 116.999 108.86 118.312C108.316 119.625 108.173 121.07 108.451 122.465C108.728 123.859 109.412 125.14 110.418 126.145C111.423 127.15 112.704 127.835 114.098 128.112C115.492 128.389 116.937 128.247 118.251 127.703C119.564 127.159 120.686 126.238 121.476 125.056C122.266 123.874 122.688 122.484 122.688 121.063C122.685 119.157 121.927 117.33 120.58 115.983C119.232 114.635 117.406 113.877 115.5 113.875Z" fill="#F8F3FA"/>
<path d="M133.469 157H97.5312C96.5781 157 95.664 156.621 94.9901 155.947C94.3161 155.273 93.9375 154.359 93.9375 153.406V149.812C93.9375 144.094 96.2093 138.609 100.253 134.566C104.297 130.522 109.781 128.25 115.5 128.25C121.219 128.25 126.703 130.522 130.747 134.566C134.791 138.609 137.062 144.094 137.062 149.812V153.406C137.062 154.359 136.684 155.273 136.01 155.947C135.336 156.621 134.422 157 133.469 157ZM101.125 149.812H129.875C129.875 146 128.36 142.344 125.665 139.648C122.969 136.952 119.312 135.438 115.5 135.438C111.688 135.438 108.031 136.952 105.335 139.648C102.64 142.344 101.125 146 101.125 149.812Z" fill="#F8F3FA"/>
<path d="M151.438 135.438C148.594 135.438 145.815 134.594 143.451 133.015C141.087 131.435 139.245 129.19 138.157 126.564C137.069 123.937 136.784 121.047 137.339 118.258C137.893 115.47 139.262 112.908 141.273 110.898C143.283 108.887 145.845 107.518 148.633 106.964C151.422 106.409 154.312 106.694 156.939 107.782C159.565 108.87 161.81 110.712 163.39 113.076C164.969 115.44 165.813 118.219 165.813 121.063C165.809 124.874 164.293 128.528 161.598 131.223C158.903 133.918 155.249 135.434 151.438 135.438ZM151.438 113.875C150.016 113.875 148.626 114.297 147.444 115.086C146.262 115.876 145.341 116.999 144.797 118.312C144.253 119.625 144.111 121.07 144.388 122.465C144.665 123.859 145.35 125.14 146.355 126.145C147.36 127.15 148.641 127.835 150.035 128.112C151.43 128.389 152.875 128.247 154.188 127.703C155.501 127.159 156.624 126.238 157.414 125.056C158.203 123.874 158.625 122.484 158.625 121.063C158.623 119.157 157.865 117.33 156.517 115.983C155.17 114.635 153.343 113.877 151.438 113.875Z" fill="#F8F3FA"/>
<path d="M169.406 157H133.469C132.516 157 131.602 156.621 130.928 155.947C130.254 155.273 129.875 154.359 129.875 153.406V149.812C129.875 144.094 132.147 138.609 136.191 134.566C140.234 130.522 145.719 128.25 151.438 128.25C157.156 128.25 162.641 130.522 166.684 134.566C170.728 138.609 173 144.094 173 149.812V153.406C173 154.359 172.621 155.273 171.947 155.947C171.273 156.621 170.359 157 169.406 157ZM137.062 149.812H165.812C165.812 146 164.298 142.344 161.602 139.648C158.906 136.952 155.25 135.438 151.438 135.438C147.625 135.438 143.969 136.952 141.273 139.648C138.577 142.344 137.062 146 137.062 149.812Z" fill="#F8F3FA"/>
<path d="M140.657 74.3438C140.044 74.3438 139.442 74.1873 138.906 73.889C138.371 73.5907 137.921 73.1605 137.599 72.6394C137.277 72.1182 137.094 71.5234 137.066 70.9114C137.039 70.2994 137.168 69.6905 137.442 69.1425L140.657 62.7151V49.1875C140.659 47.2819 141.417 45.455 142.764 44.1076C144.112 42.7601 145.939 42.0022 147.844 42H165.813C167.718 42.0022 169.545 42.7601 170.893 44.1076C172.24 45.455 172.998 47.2819 173 49.1875V59.9688C172.998 61.8743 172.24 63.7012 170.893 65.0487C169.545 66.3961 167.718 67.1541 165.813 67.1562H152.526L142.65 73.74C142.06 74.1334 141.366 74.3434 140.657 74.3438ZM165.813 49.1821L147.844 49.1875V61.6391L149.444 60.5725C150.035 60.179 150.728 59.969 151.438 59.9688H165.813V49.1821Z" fill="#F8F3FA"/>
<path d="M115.5 74.3438C112.657 74.3438 109.878 73.5007 107.514 71.9211C105.15 70.3416 103.307 68.0965 102.219 65.4698C101.131 62.8431 100.847 59.9528 101.401 57.1643C101.956 54.3759 103.325 51.8145 105.335 49.8041C107.346 47.7937 109.907 46.4246 112.696 45.87C115.484 45.3153 118.374 45.6 121.001 46.688C123.628 47.776 125.873 49.6185 127.452 51.9824C129.032 54.3464 129.875 57.1256 129.875 59.9688C129.871 63.78 128.355 67.434 125.66 70.129C122.965 72.824 119.311 74.3398 115.5 74.3438ZM115.5 52.7813C114.078 52.7813 112.689 53.2028 111.507 53.9926C110.325 54.7823 109.404 55.9049 108.86 57.2182C108.316 58.5316 108.173 59.9767 108.451 61.371C108.728 62.7652 109.412 64.0459 110.418 65.0511C111.423 66.0563 112.704 66.7408 114.098 67.0182C115.492 67.2955 116.937 67.1531 118.251 66.6091C119.564 66.0651 120.686 65.1439 121.476 63.9619C122.266 62.7799 122.688 61.3903 122.688 59.9688C122.685 58.0632 121.927 56.2363 120.58 54.8888C119.232 53.5414 117.406 52.7834 115.5 52.7813Z" fill="#F8F3FA"/>
<path d="M126.281 103.094H104.719C101.86 103.091 99.1199 101.954 97.0987 99.9325C95.0775 97.9113 93.9406 95.1709 93.9375 92.3125V88.7188C93.9375 83 96.2093 77.5155 100.253 73.4718C104.297 69.428 109.781 67.1562 115.5 67.1562C121.219 67.1562 126.703 69.428 130.747 73.4718C134.791 77.5155 137.062 83 137.062 88.7188V92.3125C137.059 95.1709 135.922 97.9113 133.901 99.9325C131.88 101.954 129.14 103.091 126.281 103.094ZM115.5 74.3438C111.689 74.3477 108.035 75.8635 105.34 78.5585C102.645 81.2535 101.129 84.9075 101.125 88.7188V92.3125C101.126 93.2654 101.505 94.1789 102.179 94.8527C102.852 95.5265 103.766 95.9054 104.719 95.9062H126.281C127.234 95.9054 128.148 95.5265 128.821 94.8527C129.495 94.1789 129.874 93.2654 129.875 92.3125V88.7188C129.871 84.9075 128.355 81.2535 125.66 78.5585C122.965 75.8635 119.311 74.3477 115.5 74.3438Z" fill="#F8F3FA"/>
<path d="M115.502 88.7191C114.688 88.7194 113.897 88.4427 113.26 87.9346L101.149 78.2674C100.404 77.6726 99.9256 76.8062 99.8193 75.8588C99.713 74.9114 99.9874 73.9606 100.582 73.2155C101.177 72.4704 102.043 71.992 102.991 71.8857C103.938 71.7794 104.889 72.0538 105.634 72.6485L115.502 80.5278L125.371 72.6489C126.116 72.0542 127.067 71.7798 128.015 71.8861C128.962 71.9924 129.828 72.4707 130.423 73.2158C131.018 73.9609 131.292 74.9118 131.186 75.8592C131.08 76.8066 130.601 77.673 129.856 78.2677L117.745 87.9349C117.108 88.443 116.317 88.7195 115.502 88.7191Z" fill="#F8F3FA"/>
</g>
<defs>
<clipPath id="clip0_830_56761">
<rect width="115" height="115" fill="white" transform="translate(58 42)"/>
</clipPath>
</defs>
</svg>
