<svg width="183" height="153" viewBox="0 0 183 153" fill="none" xmlns="http://www.w3.org/2000/svg">
<circle cx="148.5" cy="148.5" r="112.5" fill="#CCEAB8"/>
<circle cx="148.5" cy="148.5" r="147.5" stroke="#D6F4C2" stroke-width="2" stroke-dasharray="9 9"/>
<path d="M101.482 95.8438C96.2969 95.8438 92.0781 100.063 92.0781 105.248C92.0781 109.335 94.699 112.819 98.3477 114.113V124.057C98.3477 125.788 99.7512 127.191 101.482 127.191C103.214 127.191 104.617 125.788 104.617 124.057V114.113C108.266 112.819 110.887 109.335 110.887 105.248C110.887 100.063 106.668 95.8438 101.482 95.8438ZM101.482 108.383C99.7539 108.383 98.3477 106.977 98.3477 105.248C98.3477 103.52 99.7539 102.113 101.482 102.113C103.211 102.113 104.617 103.52 104.617 105.248C104.617 106.977 103.211 108.383 101.482 108.383Z" fill="#D6F4C2"/>
<path d="M155.731 114.652C157.025 118.301 160.509 120.922 164.596 120.922C169.781 120.922 174 116.703 174 111.518C174 106.332 169.781 102.113 164.596 102.113C160.509 102.113 157.025 104.734 155.731 108.383H135.965V102.113H152.057C152.863 102.113 153.639 101.802 154.222 101.245L160.743 95.0151C161.92 95.5457 163.223 95.8438 164.596 95.8438C169.781 95.8438 174 91.625 174 86.4395C174 81.2539 169.781 77.0352 164.596 77.0352C159.41 77.0352 155.191 81.2539 155.191 86.4395C155.191 87.9644 155.559 89.4045 156.206 90.6797L150.8 95.8438H135.965V92.709C135.965 88.6223 133.344 85.1379 129.695 83.8439V67.2129C129.695 51.6563 117.039 39 101.482 39C85.9258 39 73.2695 51.6563 73.2695 67.2129V83.8439C69.6209 85.1379 67 88.6223 67 92.709V130.326C67 135.512 71.2188 139.73 76.4043 139.73H126.561C131.746 139.73 135.965 135.512 135.965 130.326V127.191H150.599L155.776 133.332C155.399 134.349 155.191 135.449 155.191 136.596C155.191 141.781 159.41 146 164.596 146C169.781 146 174 141.781 174 136.596C174 131.41 169.781 127.191 164.596 127.191C162.876 127.191 161.264 127.658 159.875 128.467L154.453 122.036C153.858 121.33 152.981 120.922 152.057 120.922H135.965V114.652H155.731ZM164.596 108.383C166.324 108.383 167.73 109.789 167.73 111.518C167.73 113.246 166.324 114.652 164.596 114.652C162.867 114.652 161.461 113.246 161.461 111.518C161.461 109.789 162.867 108.383 164.596 108.383ZM164.596 83.3047C166.324 83.3047 167.73 84.7109 167.73 86.4395C167.73 88.168 166.324 89.5742 164.596 89.5742C162.867 89.5742 161.461 88.168 161.461 86.4395C161.461 84.7109 162.867 83.3047 164.596 83.3047ZM79.5391 67.2129C79.5391 55.1133 89.3829 45.2695 101.482 45.2695C113.582 45.2695 123.426 55.1133 123.426 67.2129V83.3047H117.156V67.2129C117.156 58.5703 110.125 51.5391 101.482 51.5391C92.8399 51.5391 85.8086 58.5703 85.8086 67.2129V83.3047H79.5391V67.2129ZM110.887 67.2129V83.3047H92.0781V67.2129C92.0781 62.0274 96.2969 57.8086 101.482 57.8086C106.668 57.8086 110.887 62.0274 110.887 67.2129ZM129.695 130.326C129.695 132.055 128.289 133.461 126.561 133.461H76.4043C74.6758 133.461 73.2695 132.055 73.2695 130.326V92.709C73.2695 90.9805 74.6758 89.5742 76.4043 89.5742H126.561C128.289 89.5742 129.695 90.9805 129.695 92.709V130.326ZM164.596 133.461C166.324 133.461 167.73 134.867 167.73 136.596C167.73 138.324 166.324 139.73 164.596 139.73C162.867 139.73 161.461 138.324 161.461 136.596C161.461 134.867 162.867 133.461 164.596 133.461Z" fill="#D6F4C2"/>
</svg>
