<svg width="82" height="82" viewBox="0 0 82 82" fill="none" xmlns="http://www.w3.org/2000/svg">
<rect width="82" height="82" rx="41" fill="#FDE8EF"/>
<path d="M49.7361 60.5H29.6967C27.1068 60.5 25 58.4499 25 55.9297V26.0703C25 23.5501 27.1068 21.5 29.6967 21.5H49.7361C52.326 21.5 54.4328 23.5501 54.4328 26.0703V30.4213H51.3017V26.0703C51.3017 25.2303 50.5993 24.5469 49.7361 24.5469H29.6967C28.8335 24.5469 28.1312 25.2303 28.1312 26.0703V55.9297C28.1312 56.7697 28.8335 57.4531 29.6967 57.4531H49.7361C50.5993 57.4531 51.3017 56.7697 51.3017 55.9297V51.4448H54.4328V55.9297C54.4328 58.4499 52.326 60.5 49.7361 60.5ZM42.8476 27.603H36.5853V30.6498H42.8476V27.603ZM41.282 52.892C41.282 52.0506 40.5812 51.3686 39.7164 51.3686C38.8517 51.3686 38.1508 52.0506 38.1508 52.892C38.1508 53.7335 38.8517 54.4155 39.7164 54.4155C40.5812 54.4155 41.282 53.7335 41.282 52.892ZM46.7551 48.5502L51.1451 33.392H47.892L43.5019 48.5502H46.7551ZM42.6088 44.5709L38.2991 41.0092L42.6088 37.4479L40.5818 35.1255L33.4624 41.0092L40.5818 46.8932L42.6088 44.5709ZM61 41.0092L53.8809 35.1255L51.8539 37.4476L56.1632 41.0092L51.8539 44.5709L53.8809 46.8932L61 41.0092Z" fill="#F06292"/>
</svg>
