<svg width="20" height="19" viewBox="0 0 20 19" fill="none" xmlns="http://www.w3.org/2000/svg">
<path d="M19.4968 18.8223V12.2523C19.4968 9.03834 18.8048 6.56234 15.0478 6.56234C14.343 6.53578 13.6441 6.70087 13.0257 7.04003C12.4072 7.37919 11.8923 7.87972 11.5358 8.48834H11.4838V6.86234H7.9248V18.8213H11.6358V12.8993C11.6358 11.3403 11.9358 9.83234 13.8618 9.83234C15.7618 9.83234 15.7928 11.6113 15.7928 12.9993V18.8213L19.4968 18.8223Z" fill="white"/>
<path d="M1.17285 6.86328H4.88285V18.8223H1.17285V6.86328Z" fill="white"/>
<path d="M3.02356 0.193393C2.59523 0.191019 2.17585 0.315991 1.81869 0.55244C1.46152 0.788889 1.18268 1.12615 1.01758 1.52139C0.85247 1.91663 0.808546 2.35202 0.891382 2.77227C0.974218 3.19253 1.18008 3.57868 1.48282 3.88171C1.78556 4.18473 2.17152 4.39095 2.5917 4.47417C3.01188 4.5574 3.44731 4.51388 3.8427 4.34914C4.2381 4.18441 4.57562 3.90588 4.8124 3.54893C5.04918 3.19199 5.17454 2.77273 5.17256 2.34439C5.1723 1.77434 4.94587 1.22768 4.54297 0.824405C4.14006 0.421129 3.59362 0.194187 3.02356 0.193393Z" fill="white"/>
</svg>
