<svg width="63" height="64" viewBox="0 0 63 64" fill="none" xmlns="http://www.w3.org/2000/svg">
<rect y="0.176147" width="63" height="63" rx="10" fill="#C5DBFA"/>
<path d="M26.4545 40.0852H36.5455V50.1761H26.4545V40.0852ZM50 48.4943C50 48.9404 49.8228 49.3682 49.5074 49.6836C49.192 49.999 48.7642 50.1761 48.3182 50.1761H39.9091V38.4034C39.9091 37.9574 39.7319 37.5296 39.4165 37.2142C39.1011 36.8988 38.6733 36.7216 38.2273 36.7216H24.7727C24.3267 36.7216 23.8989 36.8988 23.5835 37.2142C23.2681 37.5296 23.0909 37.9574 23.0909 38.4034V50.1761H14.6818C14.2358 50.1761 13.808 49.999 13.4926 49.6836C13.1772 49.3682 13 48.9404 13 48.4943C13 48.0483 13.1772 47.6205 13.4926 47.3051C13.808 46.9897 14.2358 46.8125 14.6818 46.8125H16.3636V14.858C16.3636 14.4119 16.5408 13.9841 16.8562 13.6687C17.1716 13.3533 17.5994 13.1761 18.0455 13.1761H44.9545C45.4006 13.1761 45.8284 13.3533 46.1438 13.6687C46.4592 13.9841 46.6364 14.4119 46.6364 14.858V46.8125H48.3182C48.7642 46.8125 49.192 46.9897 49.5074 47.3051C49.8228 47.6205 50 48.0483 50 48.4943ZM26.4545 28.3125C26.4545 27.8665 26.2774 27.4387 25.962 27.1233C25.6465 26.8079 25.2188 26.6307 24.7727 26.6307C24.3267 26.6307 23.8989 26.8079 23.5835 27.1233C23.2681 27.4387 23.0909 27.8665 23.0909 28.3125V29.9943C23.0909 30.4404 23.2681 30.8682 23.5835 31.1836C23.8989 31.499 24.3267 31.6761 24.7727 31.6761C25.2188 31.6761 25.6465 31.499 25.962 31.1836C26.2774 30.8682 26.4545 30.4404 26.4545 29.9943V28.3125ZM26.4545 19.9034C26.4545 19.4574 26.2774 19.0296 25.962 18.7142C25.6465 18.3988 25.2188 18.2216 24.7727 18.2216C24.3267 18.2216 23.8989 18.3988 23.5835 18.7142C23.2681 19.0296 23.0909 19.4574 23.0909 19.9034V21.5852C23.0909 22.0313 23.2681 22.4591 23.5835 22.7745C23.8989 23.0899 24.3267 23.2671 24.7727 23.2671C25.2188 23.2671 25.6465 23.0899 25.962 22.7745C26.2774 22.4591 26.4545 22.0313 26.4545 21.5852V19.9034ZM33.1818 28.3125C33.1818 27.8665 33.0046 27.4387 32.6892 27.1233C32.3738 26.8079 31.946 26.6307 31.5 26.6307C31.054 26.6307 30.6262 26.8079 30.3108 27.1233C29.9954 27.4387 29.8182 27.8665 29.8182 28.3125V29.9943C29.8182 30.4404 29.9954 30.8682 30.3108 31.1836C30.6262 31.499 31.054 31.6761 31.5 31.6761C31.946 31.6761 32.3738 31.499 32.6892 31.1836C33.0046 30.8682 33.1818 30.4404 33.1818 29.9943V28.3125ZM33.1818 19.9034C33.1818 19.4574 33.0046 19.0296 32.6892 18.7142C32.3738 18.3988 31.946 18.2216 31.5 18.2216C31.054 18.2216 30.6262 18.3988 30.3108 18.7142C29.9954 19.0296 29.8182 19.4574 29.8182 19.9034V21.5852C29.8182 22.0313 29.9954 22.4591 30.3108 22.7745C30.6262 23.0899 31.054 23.2671 31.5 23.2671C31.946 23.2671 32.3738 23.0899 32.6892 22.7745C33.0046 22.4591 33.1818 22.0313 33.1818 21.5852V19.9034ZM39.9091 28.3125C39.9091 27.8665 39.7319 27.4387 39.4165 27.1233C39.1011 26.8079 38.6733 26.6307 38.2273 26.6307C37.7812 26.6307 37.3534 26.8079 37.038 27.1233C36.7226 27.4387 36.5455 27.8665 36.5455 28.3125V29.9943C36.5455 30.4404 36.7226 30.8682 37.038 31.1836C37.3534 31.499 37.7812 31.6761 38.2273 31.6761C38.6733 31.6761 39.1011 31.499 39.4165 31.1836C39.7319 30.8682 39.9091 30.4404 39.9091 29.9943V28.3125ZM39.9091 19.9034C39.9091 19.4574 39.7319 19.0296 39.4165 18.7142C39.1011 18.3988 38.6733 18.2216 38.2273 18.2216C37.7812 18.2216 37.3534 18.3988 37.038 18.7142C36.7226 19.0296 36.5455 19.4574 36.5455 19.9034V21.5852C36.5455 22.0313 36.7226 22.4591 37.038 22.7745C37.3534 23.0899 37.7812 23.2671 38.2273 23.2671C38.6733 23.2671 39.1011 23.0899 39.4165 22.7745C39.7319 22.4591 39.9091 22.0313 39.9091 21.5852V19.9034Z" fill="#4B92FE"/>
</svg>
