<svg width="24" height="23" viewBox="0 0 24 23" fill="none" xmlns="http://www.w3.org/2000/svg">
<path d="M19.2611 14.4788C18.9639 14.7668 18.8274 15.1833 18.8951 15.5918L19.9151 21.2372C20.0012 21.7157 19.7992 22.1999 19.3988 22.4764C19.0064 22.7633 18.4843 22.7977 18.0563 22.5682L12.9743 19.9176C12.7976 19.8235 12.6013 19.7731 12.4005 19.7673H12.0896C11.9817 19.7834 11.8762 19.8178 11.7798 19.8706L6.69661 22.5338C6.44532 22.66 6.16075 22.7048 5.88193 22.66C5.20264 22.5315 4.7494 21.8843 4.8607 21.2016L5.88193 15.5562C5.94962 15.1443 5.81308 14.7255 5.51589 14.4329L1.37248 10.4168C1.02596 10.0806 0.905474 9.57575 1.06382 9.12022C1.21758 8.66583 1.61 8.33422 2.0839 8.25964L7.78668 7.43233C8.22041 7.38758 8.60136 7.12367 8.79642 6.73354L11.3093 1.58153C11.369 1.46679 11.4459 1.36122 11.5388 1.27172L11.6421 1.1914C11.696 1.13173 11.758 1.08239 11.8268 1.04223L11.9519 0.996336L12.147 0.916016H12.63C13.0615 0.960766 13.4413 1.21894 13.6398 1.60448L16.1859 6.73354C16.3695 7.10875 16.7264 7.36922 17.1383 7.43233L22.8411 8.25964C23.323 8.32848 23.7258 8.66124 23.8853 9.12022C24.0356 9.58034 23.9059 10.0852 23.5525 10.4168L19.2611 14.4788Z" fill="#EBAA00"/>
</svg>
