<svg width="58" height="57" viewBox="0 0 58 57" fill="none" xmlns="http://www.w3.org/2000/svg">
<path d="M51.0159 0H6.92158C3.35778 0 0.46875 2.88903 0.46875 6.45283V50.5472C0.46875 54.111 3.35778 57 6.92158 57H51.0159C54.5797 57 57.4687 54.111 57.4687 50.5472V6.45283C57.4687 2.88903 54.5797 0 51.0159 0Z" fill="#FFF4F3"/>
<path d="M22.9722 25.6799L20.9504 27.7018L27.4494 34.1998L41.893 19.7562L39.8711 17.7344L27.4494 30.156L22.9722 25.6799ZM40.4487 28.4245C40.4487 30.7099 39.771 32.9439 38.5013 34.8441C37.2316 36.7443 35.427 38.2253 33.3156 39.0998C31.2043 39.9744 28.881 40.2032 26.6395 39.7574C24.3981 39.3115 22.3392 38.211 20.7233 36.5951C19.1073 34.9791 18.0068 32.9202 17.5609 30.6788C17.1151 28.4374 17.3439 26.1141 18.2185 24.0027C19.093 21.8913 20.5741 20.0867 22.4742 18.817C24.3744 17.5474 26.6084 16.8697 28.8938 16.8697C29.9682 16.8608 31.0384 17.0056 32.0718 17.2999L34.3819 14.9919C32.618 14.3648 30.7653 14.0236 28.8938 13.981C26.0371 13.981 23.2446 14.8281 20.8694 16.4151C18.4941 18.0022 16.6429 20.258 15.5497 22.8972C14.4565 25.5364 14.1704 28.4406 14.7277 31.2423C15.285 34.0441 16.6607 36.6177 18.6806 38.6377C20.7006 40.6577 23.2742 42.0333 26.076 42.5906C28.8778 43.1479 31.7819 42.8619 34.4211 41.7687C37.0603 40.6755 39.3161 38.8242 40.9032 36.449C42.4903 34.0737 43.3374 31.2812 43.3374 28.4245H40.4487Z" fill="#FF5663"/>
</svg>
