<svg width="57" height="58" viewBox="0 0 57 58" fill="none" xmlns="http://www.w3.org/2000/svg">
<path d="M50.5472 0.0234375H6.45283C2.88903 0.0234375 0 2.91247 0 6.47627V50.5706C0 54.1344 2.88903 57.0234 6.45283 57.0234H50.5472C54.111 57.0234 57 54.1344 57 50.5706V6.47627C57 2.91247 54.111 0.0234375 50.5472 0.0234375Z" fill="#E9F7F2"/>
<path d="M22.5035 25.7034L20.4816 27.7253L26.9807 34.2233L41.4243 19.7797L39.4024 17.7578L26.9807 30.1795L22.5035 25.7034ZM39.9799 28.448C39.9799 30.7333 39.3022 32.9673 38.0326 34.8675C36.7629 36.7677 34.9583 38.2487 32.8469 39.1233C30.7355 39.9978 28.4122 40.2267 26.1708 39.7808C23.9294 39.335 21.8705 38.2345 20.2545 36.6185C18.6385 35.0025 17.538 32.9436 17.0922 30.7022C16.6463 28.4608 16.8752 26.1375 17.7497 24.0261C18.6243 21.9147 20.1053 20.1101 22.0055 18.8405C23.9057 17.5708 26.1397 16.8931 28.425 16.8931C29.4995 16.8842 30.5697 17.0291 31.6031 17.3233L33.9132 15.0153C32.1493 14.3883 30.2966 14.047 28.425 14.0044C25.5684 14.0044 22.7758 14.8515 20.4006 16.4386C18.0254 18.0257 16.1741 20.2814 15.0809 22.9207C13.9877 25.5599 13.7017 28.464 14.259 31.2658C14.8163 34.0676 16.1919 36.6412 18.2119 38.6611C20.2319 40.6811 22.8055 42.0567 25.6072 42.614C28.409 43.1713 31.3131 42.8853 33.9524 41.7921C36.5916 40.6989 38.8474 38.8476 40.4344 36.4724C42.0215 34.0972 42.8686 31.3046 42.8686 28.448H39.9799Z" fill="#0FA76F"/>
</svg>
