<svg width="57" height="58" viewBox="0 0 57 58" fill="none" xmlns="http://www.w3.org/2000/svg">
<path d="M50.5472 0.0458984H6.45283C2.88903 0.0458984 0 2.93493 0 6.49873V50.5931C0 54.1569 2.88903 57.0459 6.45283 57.0459H50.5472C54.111 57.0459 57 54.1569 57 50.5931V6.49873C57 2.93493 54.111 0.0458984 50.5472 0.0458984Z" fill="#EDF9FF"/>
<path d="M22.5035 25.7258L20.4816 27.7477L26.9807 34.2457L41.4243 19.8021L39.4024 17.7803L26.9807 30.2019L22.5035 25.7258ZM39.9799 28.4704C39.9799 30.7558 39.3022 32.9898 38.0326 34.89C36.7629 36.7902 34.9583 38.2712 32.8469 39.1457C30.7355 40.0203 28.4122 40.2491 26.1708 39.8033C23.9294 39.3574 21.8705 38.2569 20.2545 36.641C18.6385 35.025 17.538 32.9661 17.0922 30.7247C16.6463 28.4833 16.8752 26.16 17.7497 24.0486C18.6243 21.9372 20.1053 20.1326 22.0055 18.8629C23.9057 17.5933 26.1397 16.9156 28.425 16.9156C29.4995 16.9067 30.5697 17.0515 31.6031 17.3458L33.9132 15.0378C32.1493 14.4107 30.2966 14.0695 28.425 14.0269C25.5684 14.0269 22.7758 14.874 20.4006 16.461C18.0254 18.0481 16.1741 20.3039 15.0809 22.9431C13.9877 25.5823 13.7017 28.4865 14.259 31.2882C14.8163 34.09 16.1919 36.6636 18.2119 38.6836C20.2319 40.7036 22.8055 42.0792 25.6072 42.6365C28.409 43.1938 31.3131 42.9078 33.9524 41.8146C36.5916 40.7214 38.8474 38.8701 40.4344 36.4949C42.0215 34.1196 42.8686 31.3271 42.8686 28.4704H39.9799Z" fill="#0483BC"/>
</svg>
