<svg width="63" height="65" viewBox="0 0 63 65" fill="none" xmlns="http://www.w3.org/2000/svg">
<rect y="0.176147" width="63" height="64" rx="10" fill="#E8DEF8"/>
<g clip-path="url(#clip0_828_10652)">
<path d="M31.1172 23.4711V34.4714H38.1284V32.5373H33.0513V23.4711H31.1172Z" fill="#6C56C2"/>
<path d="M50.0009 32.2921C50.0009 23.0745 42.4916 15.5775 33.2742 15.5775C25.0066 15.5775 18.1253 21.6581 16.7942 29.5155H14.1094L18.7394 37.4937L23.5051 29.5155H20.7297C21.9997 23.7131 27.1481 19.4458 33.2831 19.4458C40.3675 19.4458 46.1327 25.2086 46.1327 32.2929C46.1327 38.4146 41.7546 43.5484 36.0731 44.8309V48.7743C43.9305 47.443 50.0009 40.5594 50.0009 32.2921Z" fill="#6C56C2"/>
<path d="M16.9481 47.0259L18.1781 45.7183C18.9772 44.8485 19.5256 44.1976 19.8232 43.7565C20.1208 43.3153 20.2696 42.81 20.2696 42.2355C20.2696 41.3822 19.9896 40.7114 19.4298 40.2201C18.87 39.7292 18.0907 39.4838 17.0917 39.4838C16.1509 39.4838 15.3955 39.7768 14.8253 40.3614C14.255 40.9462 13.9802 41.6758 14.0011 42.5166L14.0137 42.571H16.074C16.074 42.0875 16.1645 41.7958 16.3456 41.5273C16.5267 41.2586 16.7754 41.1162 17.0918 41.1162C17.4455 41.1162 17.7109 41.216 17.8877 41.4243C18.0647 41.6323 18.1531 41.909 18.1531 42.2589C18.1531 42.5044 18.0657 42.7926 17.8909 43.1255C17.7161 43.4586 17.464 43.8367 17.0939 44.2615L14.1925 47.3328V48.7361H20.4784V47.0438H16.9668L16.9481 47.0259Z" fill="#6C56C2"/>
<path d="M26.2787 39.6696H24.2237V39.6342L20.5547 45.5067L20.6567 46.8016H24.2237V48.7358H26.2787V46.8016H27.2458V45.2302H26.2787V39.6696ZM24.2237 45.2302H22.4175L23.9784 42.633L24.1635 42.3599L24.2237 42.3564V45.2302Z" fill="#6C56C2"/>
<path d="M34.1379 48.7363V44.8229C34.1379 44.5321 34.1451 44.2653 34.113 44.0179C34.0315 43.3941 33.8624 42.9054 33.5765 42.5566C33.1767 42.0696 32.6337 41.8261 31.9344 41.8261C31.5806 41.8261 31.2831 41.9104 30.9896 42.079C30.6961 42.2477 30.3905 42.484 30.2696 42.7878V39.5492H28.0938V48.7363H30.2696V43.7928C30.2696 43.6846 30.4714 43.6003 30.6214 43.5399C30.7711 43.4797 30.9365 43.4495 31.1405 43.4495C31.4611 43.4495 31.696 43.5473 31.8521 43.7427C32.0083 43.9384 32.0829 44.2943 32.0829 44.8106V48.7363H32.8178H34.1379Z" fill="#6C56C2"/>
</g>
<defs>
<clipPath id="clip0_828_10652">
<rect width="36" height="36" fill="white" transform="translate(14 14.1761)"/>
</clipPath>
</defs>
</svg>
