<svg width="82" height="82" viewBox="0 0 82 82" fill="none" xmlns="http://www.w3.org/2000/svg">
<rect width="82" height="82" rx="41" fill="#E9F7F2"/>
<g clip-path="url(#clip0_830_56433)">
<path d="M49.1488 41.7402L50.0149 40.8741C50.0152 40.8738 50.0154 40.8735 50.0157 40.8733C50.016 40.873 50.0163 40.8727 50.0165 40.8724L53.0718 37.8172C53.0719 37.817 53.0721 37.8168 53.0723 37.8167C53.0725 37.8166 53.0727 37.8164 53.0728 37.8161L56.1286 34.7603C56.1287 34.7603 56.1288 34.7602 56.1288 34.7601C56.1289 34.7601 56.129 34.76 56.129 34.7599L57.8075 33.0815C58.3464 32.5427 58.6431 31.8262 58.6431 31.0642C58.6431 30.3021 58.3463 29.5857 57.8075 29.047L52.9532 24.1926C52.4144 23.6538 51.698 23.357 50.936 23.357C50.1739 23.357 49.4575 23.6538 48.9187 24.1926L40.2599 32.8513L34.3827 26.974C33.3988 25.9901 32.1658 25.2898 30.8167 24.9487L24.6446 23.3885C24.2917 23.2992 23.9177 23.4023 23.6602 23.6598C23.4028 23.9172 23.2997 24.2911 23.389 24.6441L24.9493 30.8162C25.2903 32.1652 25.9906 33.3983 26.9745 34.3822L32.8518 40.2594L24.193 48.9181C23.6542 49.457 23.3574 50.1734 23.3574 50.9354C23.3574 51.6975 23.6542 52.4138 24.193 52.9526L29.0474 57.8069C29.5862 58.3459 30.3026 58.6426 31.0647 58.6426C31.8268 58.6426 32.5431 58.3459 33.0819 57.807L37.815 53.074C37.8157 53.0734 37.8164 53.0726 37.8172 53.0719C37.8179 53.0712 37.8186 53.0705 37.8193 53.0697L41.7407 49.1484L49.7006 57.1084C50.7218 58.1296 52.0632 58.6403 53.4047 58.6403C54.7462 58.6403 56.0876 58.1297 57.1088 57.1084C59.1513 55.066 59.1513 51.7426 57.1088 49.7002L49.1488 41.7402ZM26.9537 30.3095L25.8182 25.8178L30.3099 26.9533C31.2976 27.2029 32.2004 27.7157 32.9207 28.436L33.7357 29.251L29.2514 33.7353L28.4364 32.9203C27.716 32.1999 27.2034 31.2972 26.9537 30.3095ZM30.7133 35.1972L35.1976 30.7129L38.798 34.3132L34.3136 38.7975L30.7133 35.1972ZM31.0647 56.5751C30.8549 56.5751 30.6578 56.4934 30.5094 56.3451L25.655 51.4907C25.5067 51.3424 25.425 51.1452 25.425 50.9354C25.425 50.7256 25.5067 50.5284 25.655 50.38L50.3806 25.6545C50.5289 25.5062 50.7262 25.4244 50.936 25.4244C51.1457 25.4244 51.3429 25.5062 51.4913 25.6545L56.3456 30.5089C56.4939 30.6571 56.5757 30.8544 56.5757 31.0642C56.5757 31.274 56.4939 31.4712 56.3456 31.6196L55.398 32.5673L52.2445 29.4137C51.8409 29.01 51.1863 29.01 50.7826 29.4137C50.3788 29.8174 50.3788 30.472 50.7826 30.8757L53.936 34.0292L52.3414 35.6238L50.7162 33.9987C50.3125 33.5949 49.658 33.595 49.2542 33.9987C48.8505 34.4024 48.8505 35.0569 49.2542 35.4606L50.8794 37.0858L49.2848 38.6804L46.1314 35.5268C45.7277 35.1231 45.0732 35.1231 44.6694 35.5268C44.2657 35.9305 44.2657 36.5851 44.6694 36.9888L47.8229 40.1422L46.2283 41.7369L44.6031 40.1117C44.1994 39.7081 43.5448 39.7081 43.1411 40.1117C42.7374 40.5154 42.7374 41.1699 43.1411 41.5737L44.7663 43.1988L43.1993 44.7658L40.0458 41.6123C39.6421 41.2086 38.9876 41.2086 38.5839 41.6123C38.1802 42.016 38.1802 42.6706 38.5839 43.0743L41.7374 46.2277L40.1427 47.8223L38.5176 46.1972C38.1139 45.7935 37.4594 45.7935 37.0557 46.1972C36.6519 46.6008 36.6519 47.2554 37.0557 47.6591L38.6808 49.2843L37.0862 50.8789L33.9328 47.7255C33.5291 47.3219 32.8746 47.3219 32.4709 47.7255C32.0671 48.1292 32.0671 48.7837 32.4709 49.1875L35.6242 52.3408L34.0296 53.9354L32.4045 52.3103C32.0008 51.9067 31.3463 51.9067 30.9425 52.3103C30.5388 52.714 30.5388 53.3685 30.9425 53.7722L32.5677 55.3974L31.62 56.3451C31.4717 56.4935 31.2744 56.5751 31.0647 56.5751ZM43.9261 46.9629C43.9275 46.9616 43.9289 46.9602 43.9304 46.9587C43.9318 46.9573 43.9332 46.9559 43.9346 46.9545L46.9581 43.9309C46.9585 43.9305 46.9589 43.9302 46.9593 43.9297C46.9596 43.9293 46.96 43.929 46.9605 43.9286L47.6869 43.2021L52.0674 47.5826L47.5831 52.067L43.2026 47.6864L43.9261 46.9629ZM55.6469 55.6464C54.4106 56.8827 52.3989 56.8827 51.1626 55.6464L49.0451 53.5288L53.5294 49.0445L55.6469 51.162C56.8833 52.3984 56.8833 54.4101 55.6469 55.6464Z" fill="#0FA76F"/>
</g>
<defs>
<clipPath id="clip0_830_56433">
<rect width="35.2857" height="35.2857" fill="white" transform="translate(23.3574 23.3569)"/>
</clipPath>
</defs>
</svg>
