<svg width="64" height="64" viewBox="0 0 64 64" fill="none" xmlns="http://www.w3.org/2000/svg">
<rect width="63.1761" height="63.1761" rx="10" fill="#FFE9CA"/>
<path d="M30.9954 39.4736C29.2748 39.4736 27.875 40.8689 27.875 42.5829C27.875 44.2976 29.2748 45.6934 30.9954 45.6934C32.7166 45.6934 34.1163 44.2976 34.1163 42.5829C34.1163 40.8689 32.7163 39.4736 30.9954 39.4736Z" fill="#EB9312"/>
<path d="M38.6049 35.2379C36.5734 33.2075 33.8693 32.0889 30.9917 32.0889C28.1251 32.0889 25.4284 33.2002 23.3974 35.2178C22.5771 36.0341 22.5757 37.364 23.394 38.1817C23.7915 38.5798 24.3208 38.7984 24.8841 38.7984C25.4448 38.7984 25.9721 38.5809 26.369 38.1862C27.605 36.958 29.2466 36.2814 30.9917 36.2814C32.7432 36.2814 34.3894 36.9622 35.6262 38.1979C36.0237 38.5948 36.5527 38.814 37.1154 38.814C37.6768 38.814 38.2037 38.5965 38.601 38.2019C39.4224 37.3855 39.4238 36.0562 38.6049 35.2379Z" fill="#EB9312"/>
<path d="M48.3855 25.4896C43.741 20.8565 37.5636 18.3057 30.9923 18.3057C24.4298 18.3057 18.2586 20.8505 13.6156 25.4726C12.7953 26.2889 12.7947 27.6188 13.6144 28.4365C14.0116 28.8326 14.54 29.0504 15.1022 29.0504C15.6641 29.0504 16.1919 28.8335 16.5891 28.4377C20.4378 24.6069 25.5528 22.4967 30.9923 22.4967C36.4398 22.4967 41.5599 24.6112 45.4094 28.4522C45.8066 28.8485 46.3358 29.0671 46.8977 29.0671C47.4593 29.0671 47.9872 28.8491 48.3841 28.4539C49.2046 27.6369 49.2055 26.3065 48.3855 25.4896Z" fill="#EB9312"/>
<path d="M43.3739 30.4858C40.0678 27.1874 35.6715 25.3711 30.9946 25.3711C26.3262 25.3711 21.9364 27.1817 18.6332 30.4685C18.2354 30.864 18.0165 31.3901 18.0156 31.9503C18.0156 32.5099 18.2337 33.0366 18.6309 33.4327C19.0281 33.8291 19.5568 34.0477 20.119 34.0477C20.6803 34.0477 21.2081 33.8296 21.6059 33.435C24.1153 30.9384 27.4497 29.563 30.9946 29.563C34.5468 29.563 37.8858 30.9432 40.3969 33.4483C40.7947 33.8452 41.3231 34.0639 41.8855 34.0639C42.4472 34.0639 42.9753 33.8458 43.3719 33.4506C43.7691 33.0551 43.9886 32.5289 43.9889 31.9688C43.9895 31.4086 43.7708 30.8824 43.3739 30.4858Z" fill="#EB9312"/>
</svg>
