<svg width="115" height="115" viewBox="0 0 115 115" fill="none" xmlns="http://www.w3.org/2000/svg">
<g clip-path="url(#clip0_74_814)">
<path d="M95.3209 67.9114C87.5499 71.8597 79.2058 74.5579 70.5963 75.9065C62.1538 77.2305 53.5658 77.3332 45.0962 76.2116C28.4127 74.1277 12.7535 67.0482 0.173621 55.9021C13.405 65.4138 29.2124 70.6892 45.5111 71.0326C61.2691 71.5917 76.8312 67.3629 90.1462 58.9036L95.3209 67.9114Z" fill="#013C3C"/>
<path d="M82.6235 53.7281L109.517 53.7706L96.0227 77.0311L82.6235 53.7281Z" fill="#013C3C"/>
<path d="M91.7436 73.7607C87.6357 76.2267 83.2341 78.1658 78.6426 79.5322C74.0472 80.9477 69.3203 81.8927 64.5348 82.3527C62.1331 82.6105 59.7316 82.6482 57.3209 82.6769C56.1202 82.6683 54.9195 82.5496 53.7188 82.486L51.9497 82.4227L50.1625 82.1577C48.9802 81.9658 47.7795 81.8105 46.5972 81.6002L43.1053 80.7311C42.5371 80.5663 41.9413 80.4291 41.3823 80.2552L39.6869 79.6419C38.5688 79.2208 37.4599 78.7905 36.351 78.3419C37.5486 78.5246 38.7218 78.7257 39.8705 78.9452L41.6119 79.2744C42.1893 79.3566 42.7759 79.4113 43.3625 79.4844L46.8546 79.9136L50.3284 80.1044C54.9854 80.3791 59.6573 80.2727 64.2977 79.7863C68.952 79.343 73.5747 78.6123 78.1394 77.5984C82.7367 76.553 87.2774 75.2721 91.7436 73.7607Z" fill="#0FA76F"/>
<path d="M2.51278 53.2338C10.119 56.6217 17.5696 59.7622 25.2862 62.3618C29.1262 63.6708 33.0396 64.7414 36.9805 65.6928C40.9796 66.5571 45.0252 67.1918 49.0972 67.5938C44.9632 68.2098 40.7634 68.2396 36.6222 67.6821C32.4905 67.0922 28.4203 66.1339 24.4601 64.8187C20.5211 63.4639 16.6865 61.8236 12.9865 59.911C9.28914 58.026 5.78179 55.79 2.51278 53.2338Z" fill="#0FA76F"/>
</g>
<defs>
<clipPath id="clip0_74_814">
<rect width="82.9492" height="78.8371" fill="white" transform="translate(55.7461) rotate(45)"/>
</clipPath>
</defs>
</svg>
