<svg width="115" height="115" viewBox="0 0 115 115" fill="none" xmlns="http://www.w3.org/2000/svg">
<g clip-path="url(#clip0_24_4439)">
<path d="M95.3209 67.9109C87.5499 71.8592 79.2058 74.5574 70.5963 75.906C62.1538 77.23 53.5658 77.3327 45.0962 76.2111C28.4127 74.1272 12.7535 67.0477 0.173621 55.9016C13.405 65.4133 29.2124 70.6887 45.5111 71.0321C61.2691 71.5912 76.8312 67.3625 90.1462 58.9031L95.3209 67.9109Z" fill="#ABD474"/>
<path d="M82.6235 53.7281L109.517 53.7706L96.0227 77.0311L82.6235 53.7281Z" fill="#ABD474"/>
<path d="M91.7436 73.7612C87.6357 76.2272 83.2341 78.1663 78.6426 79.5327C74.0472 80.9481 69.3203 81.8932 64.5348 82.3532C62.1331 82.611 59.7316 82.6487 57.3209 82.6774C56.1202 82.6687 54.9195 82.5501 53.7188 82.4865L51.9497 82.4232L50.1625 82.1582C48.9802 81.9663 47.7795 81.811 46.5972 81.6007L43.1053 80.7316C42.5371 80.5668 41.9413 80.4296 41.3823 80.2557L39.6869 79.6424C38.5688 79.2213 37.4599 78.791 36.351 78.3424C37.5486 78.5251 38.7218 78.7262 39.8705 78.9457L41.6119 79.2748C42.1893 79.3571 42.7759 79.4118 43.3625 79.4849L46.8546 79.914L50.3284 80.1049C54.9854 80.3796 59.6573 80.2732 64.2977 79.7868C68.952 79.3434 73.5747 78.6128 78.1394 77.5989C82.7367 76.5535 87.2774 75.2726 91.7436 73.7612Z" fill="#0FA76F"/>
<path d="M2.51278 53.2333C10.119 56.6212 17.5696 59.7617 25.2862 62.3613C29.1262 63.6703 33.0396 64.7409 36.9805 65.6924C40.9796 66.5566 45.0252 67.1913 49.0972 67.5933C44.9632 68.2094 40.7634 68.2391 36.6222 67.6816C32.4905 67.0917 28.4203 66.1334 24.4601 64.8182C20.5211 63.4634 16.6865 61.8231 12.9865 59.9105C9.28914 58.0256 5.78179 55.7896 2.51278 53.2333Z" fill="#0FA76F"/>
</g>
<defs>
<clipPath id="clip0_24_4439">
<rect width="82.9492" height="78.8371" fill="white" transform="translate(55.7461) rotate(45)"/>
</clipPath>
</defs>
</svg>
