<svg width="56" height="56" viewBox="0 0 56 56" fill="none" xmlns="http://www.w3.org/2000/svg">
<path d="M37.959 22.3876L38.4038 20.2847C39.4407 16.0187 38.2364 11.5885 35.0974 8.12678C32.2961 5.03735 29.1174 2.45594 28.9835 2.34757C28.4109 1.88414 27.5841 1.88414 27.0111 2.34757C26.8774 2.45574 23.7029 5.0338 20.9029 8.12048C17.7577 11.5876 16.5552 16.0252 17.6013 20.299L18.0457 22.3859C15.7041 23.1057 14 25.2562 14 27.7903V34.7833C14 35.6246 14.6944 36.3067 15.551 36.3067H23.6136C23.4415 36.7835 23.3468 37.2961 23.3468 37.8301C23.3468 38.4576 23.5294 39.6008 25.1073 42.2725C25.9043 43.622 26.6907 44.7427 26.7238 44.7897C27.0134 45.2015 27.4904 45.4473 27.9999 45.4473C28.5095 45.4473 28.9865 45.2015 29.2761 44.7897C29.3092 44.7427 30.0956 43.622 30.8926 42.2725C32.4706 39.6008 32.6532 38.4576 32.6532 37.8301C32.6532 37.2961 32.5585 36.7835 32.3864 36.3067H40.449C41.3056 36.3067 42 35.6246 42 34.7833V27.7903C41.9999 25.2579 40.2982 23.1088 37.959 22.3876ZM23.219 10.1475C24.9436 8.24632 26.8658 6.51143 27.9975 5.53206C29.1292 6.51123 31.0517 8.24622 32.7809 10.1533C35.2399 12.8653 36.188 16.3068 35.3819 19.5956C35.3781 19.6112 35.3746 19.6267 35.3712 19.6423L32.4909 33.2599H23.5308L20.6327 19.6525C20.6294 19.6367 20.6258 19.6211 20.622 19.6055C19.8088 16.3106 20.7554 12.8632 23.219 10.1475ZM17.1022 27.7904C17.1022 26.7249 17.7547 25.8069 18.6877 25.4L20.3617 33.2599H17.1022V27.7904ZM29.5511 37.8289C29.5379 38.2951 28.8929 39.6221 28.0001 41.0998C27.1068 39.6215 26.4617 38.2945 26.449 37.8301C26.449 36.9901 27.1448 36.3067 28.0001 36.3067C28.8548 36.3067 29.5504 36.9895 29.5511 37.8289ZM38.8978 33.2598H35.6594L37.321 25.4038C38.2493 25.8126 38.8978 26.7281 38.8978 27.7903V33.2598Z" fill="#ABD474"/>
<path d="M27.9998 22.9678C30.5655 22.9678 32.6529 20.9175 32.6529 18.3975C32.6529 15.8774 30.5655 13.8271 27.9998 13.8271C25.4341 13.8271 23.3467 15.8774 23.3467 18.3975C23.3467 20.9175 25.4341 22.9678 27.9998 22.9678ZM27.9998 16.874C28.855 16.874 29.5508 17.5574 29.5508 18.3975C29.5508 19.2375 28.855 19.9209 27.9998 19.9209C27.1445 19.9209 26.4487 19.2375 26.4487 18.3975C26.4487 17.5574 27.1445 16.874 27.9998 16.874Z" fill="#ABD474"/>
<path d="M34.1633 43.416C33.3068 43.416 32.6123 44.0981 32.6123 44.9395V52.4765C32.6123 53.3178 33.3068 53.9999 34.1633 53.9999C35.0199 53.9999 35.7144 53.3178 35.7144 52.4765V44.9396C35.7144 44.0981 35.0199 43.416 34.1633 43.416Z" fill="#ABD474"/>
<path d="M40.3674 39.3535C39.5109 39.3535 38.8164 40.0356 38.8164 40.877V52.4765C38.8164 53.3178 39.5109 53.9999 40.3674 53.9999C41.224 53.9999 41.9185 53.3178 41.9185 52.4765V40.8771C41.9185 40.0356 41.224 39.3535 40.3674 39.3535Z" fill="#ABD474"/>
<path d="M27.9592 48.4941C27.1027 48.4941 26.4082 49.1762 26.4082 50.0176V52.4765C26.4082 53.3178 27.1027 53.9999 27.9592 53.9999C28.8158 53.9999 29.5103 53.3178 29.5103 52.4765V50.0177C29.5103 49.1762 28.8158 48.4941 27.9592 48.4941Z" fill="#ABD474"/>
<path d="M21.7551 43.416C20.8986 43.416 20.2041 44.0981 20.2041 44.9395V52.4765C20.2041 53.3178 20.8986 53.9999 21.7551 53.9999C22.6117 53.9999 23.3062 53.3178 23.3062 52.4765V44.9396C23.3062 44.0981 22.6117 43.416 21.7551 43.416Z" fill="#ABD474"/>
<path d="M15.551 39.3535C14.6944 39.3535 14 40.0356 14 40.877V52.4765C14 53.3178 14.6944 53.9999 15.551 53.9999C16.4076 53.9999 17.1021 53.3178 17.1021 52.4765V40.8771C17.1021 40.0356 16.4076 39.3535 15.551 39.3535Z" fill="#ABD474"/>
</svg>
