<svg width="80" height="80" viewBox="0 0 80 80" fill="none" xmlns="http://www.w3.org/2000/svg">
<g clip-path="url(#clip0_389_1082)">
<path d="M71.9819 31.0981H66.5938C66.2512 16.8623 54.6841 5.42661 40.4704 5.42661C26.2568 5.42661 14.6895 16.8623 14.3471 31.0981H9C9.32176 13.984 23.3243 -0.000444345 40.4935 -0.000444345C48.7433 -0.0142764 56.668 3.23835 62.5586 9.05597C68.4492 14.8736 71.8336 22.7901 71.9819 31.0981Z" fill="#18484C"/>
<path d="M38.2839 57.8071V63.3739C22.2232 62.2562 9.4782 49.001 9.02148 32.6543H14.4323C14.7285 41.4716 19.5026 49.5055 26.6599 54.002C26.2308 52.6723 25.9264 51.1838 25.9264 49.7174V14.2446H31.3316V36.2838H36.7367V41.7309H31.3316V49.7174C31.3316 53.071 33.4267 55.9673 36.2524 57.3053C36.8915 57.6018 37.5811 57.7721 38.2839 57.8072" fill="#96CA4D"/>
<path d="M72.0003 32.3951C71.766 44.2764 65.0517 54.5553 55.2738 59.8012V50.8057C55.2738 50.5465 55.2559 50.3183 55.2559 50.0616C55.2559 45.4382 51.4663 41.7298 46.8785 41.7298H38.2823V36.2846H45.3724C49.9601 36.2846 53.6932 32.6077 53.6932 27.9871C53.6932 23.3665 49.9601 19.6893 45.3724 19.6893H32.876V14.2437H45.3724C52.9517 14.2437 59.1202 20.3789 59.1202 28.0154C59.1202 32.2317 57.2382 35.9579 54.2777 38.4914C57.4622 40.5401 59.908 43.2859 60.1654 48.9907C64.7995 43.8044 66.6017 36.8032 66.6017 32.3951H72.0003Z" fill="#96CA4B"/>
<path d="M12.2035 70.5724H10.0149C9.98012 70.5724 9.94625 70.561 9.91844 70.5399C9.89063 70.5188 9.87039 70.4891 9.86078 70.4554L9.1653 67.9999C9.15852 67.9759 9.15735 67.9506 9.1619 67.9261C9.16645 67.9016 9.17659 67.8784 9.19153 67.8585C9.20646 67.8386 9.22578 67.8224 9.24796 67.8113C9.27014 67.8002 9.29458 67.7944 9.31935 67.7944H17.6786C17.7137 67.7944 17.7478 67.806 17.7757 67.8274C17.8037 67.8488 17.8238 67.8789 17.8331 67.913L18.5047 70.3685C18.5112 70.3924 18.5122 70.4176 18.5076 70.442C18.5029 70.4664 18.4927 70.4894 18.4777 70.5091C18.4628 70.5289 18.4435 70.5449 18.4214 70.556C18.3993 70.567 18.3749 70.5727 18.3503 70.5727H15.6721C15.6296 70.5727 15.5888 70.5897 15.5588 70.62C15.5287 70.6502 15.5118 70.6913 15.5118 70.7341V79.8386C15.5118 79.8813 15.4949 79.9224 15.4649 79.9526C15.4349 79.9829 15.3942 79.9999 15.3517 79.9999H12.5241C12.5031 79.9999 12.4823 79.9958 12.4628 79.9877C12.4434 79.9795 12.4258 79.9677 12.4109 79.9527C12.396 79.9377 12.3842 79.9199 12.3762 79.9003C12.3681 79.8807 12.364 79.8598 12.364 79.8386V70.7339C12.364 70.6911 12.3471 70.65 12.3171 70.6198C12.287 70.5895 12.2463 70.5725 12.2037 70.5724" fill="#333333"/>
<path d="M25.3458 77.8325H20.4002C20.3722 77.8324 20.3447 77.8398 20.3205 77.8538C20.2962 77.8679 20.276 77.888 20.2619 77.9123L19.0971 79.9201C19.083 79.9445 19.0628 79.9646 19.0385 79.9787C19.0142 79.9927 18.9867 80 18.9587 80H16.0802C16.0521 80 16.0244 79.9926 16.0001 79.9784C15.9758 79.9643 15.9555 79.944 15.9415 79.9195C15.9274 79.895 15.92 79.8672 15.9199 79.8389C15.9199 79.8106 15.9272 79.7828 15.9412 79.7582L22.7385 67.8655C22.7526 67.8409 22.7728 67.8205 22.7972 67.8063C22.8215 67.7921 22.8492 67.7847 22.8773 67.7847C22.9055 67.7847 22.9331 67.7921 22.9575 67.8063C22.9819 67.8205 23.0021 67.8409 23.0161 67.8655L29.8049 79.7585C29.8189 79.7831 29.8262 79.8109 29.8262 79.8392C29.8261 79.8675 29.8187 79.8953 29.8046 79.9198C29.7906 79.9443 29.7703 79.9646 29.746 79.9787C29.7217 79.9929 29.6941 80.0003 29.666 80.0003H26.7871C26.7591 80.0003 26.7316 79.993 26.7073 79.9789C26.6831 79.9649 26.6629 79.9447 26.6488 79.9204L25.4839 77.9123C25.4698 77.888 25.4496 77.8679 25.4253 77.8539C25.4011 77.8398 25.3736 77.8325 25.3456 77.8325H25.3458ZM23.9942 75.3358L23.0153 73.6485C23.0012 73.6243 22.981 73.6041 22.9568 73.5901C22.9326 73.5761 22.9052 73.5687 22.8772 73.5687C22.8493 73.5686 22.8219 73.576 22.7976 73.5899C22.7733 73.6039 22.7531 73.624 22.739 73.6482L21.7531 75.3355C21.7388 75.36 21.7312 75.3879 21.731 75.4163C21.7308 75.4447 21.7381 75.4727 21.7521 75.4974C21.7661 75.5221 21.7864 75.5426 21.8108 75.5569C21.8352 75.5711 21.8629 75.5787 21.8911 75.5787H23.8559C23.8841 75.5787 23.9118 75.5712 23.9362 75.5569C23.9606 75.5427 23.9808 75.5222 23.9948 75.4976C24.0089 75.4729 24.0162 75.445 24.0161 75.4166C24.016 75.3882 24.0084 75.3604 23.9942 75.3358Z" fill="#333333"/>
<path d="M37.6393 79.9998H30.5363C30.4938 79.9998 30.453 79.9828 30.4229 79.9526C30.3929 79.9223 30.376 79.8813 30.376 79.8384V67.9635C30.376 67.9207 30.3928 67.8798 30.4228 67.8495C30.4528 67.8193 30.4934 67.8023 30.5359 67.8022L33.3637 67.7944C33.3847 67.7944 33.4056 67.7985 33.4251 67.8066C33.4446 67.8147 33.4623 67.8266 33.4772 67.8416C33.4921 67.8566 33.504 67.8744 33.512 67.894C33.5201 67.9136 33.5243 67.9346 33.5243 67.9558V77.0515C33.5243 77.0943 33.5412 77.1354 33.5712 77.1656C33.6013 77.1959 33.6421 77.2129 33.6846 77.2129H38.3832C38.4082 77.2129 38.4329 77.2188 38.4552 77.2302C38.4776 77.2415 38.497 77.2579 38.5119 77.2782C38.5268 77.2984 38.5368 77.3219 38.5411 77.3467C38.5453 77.3715 38.5438 77.397 38.5365 77.4212L37.7926 79.8854C37.7826 79.9185 37.7623 79.9475 37.7347 79.9681C37.7071 79.9887 37.6736 79.9998 37.6393 79.9998Z" fill="#333333"/>
<path d="M39.4307 79.8126V67.9554C39.4307 67.9126 39.4476 67.8715 39.4777 67.8412C39.5077 67.811 39.5485 67.7939 39.591 67.7939H43.0041C44.0175 67.7939 44.9132 67.9201 45.6912 68.1724C46.4568 68.4191 47.0569 68.8234 47.4915 69.3853C47.9195 69.9474 48.1335 70.6729 48.1335 71.5615C48.1299 72.2279 47.9352 72.879 47.5729 73.4365C47.2643 73.9497 46.8039 74.3527 46.2563 74.5888C46.2348 74.5975 46.2154 74.6108 46.1995 74.6277C46.1835 74.6447 46.1714 74.6649 46.1639 74.6869C46.1565 74.709 46.1538 74.7325 46.1562 74.7557C46.1585 74.7789 46.1658 74.8013 46.1776 74.8214L49.1188 79.7469C49.1334 79.7714 49.1413 79.7994 49.1416 79.8279C49.142 79.8565 49.1349 79.8847 49.1209 79.9095C49.1069 79.9344 49.0867 79.9551 49.0621 79.9695C49.0376 79.9839 49.0098 79.9915 48.9814 79.9915H45.6774C45.6487 79.9915 45.6204 79.9837 45.5957 79.9689C45.571 79.9541 45.5506 79.9329 45.5368 79.9075L42.6153 74.5204H42.579V79.8126C42.579 79.8554 42.5621 79.8965 42.5321 79.9267C42.502 79.957 42.4612 79.974 42.4187 79.974H39.5909C39.5484 79.974 39.5077 79.957 39.4776 79.9267C39.4476 79.8965 39.4307 79.8554 39.4307 79.8126H39.4307ZM42.579 73.6333C42.5792 73.6549 42.5835 73.6763 42.5919 73.6962C42.6003 73.7161 42.6125 73.7341 42.6279 73.7493C42.6432 73.7644 42.6614 73.7763 42.6813 73.7843C42.7013 73.7923 42.7226 73.7962 42.7441 73.7958C43.2018 73.7844 43.5871 73.7249 43.8999 73.6173C44.2234 73.5185 44.5061 73.3161 44.7052 73.041C44.8919 72.7771 44.9853 72.4359 44.9857 72.0173C44.9857 71.3866 44.7866 70.9565 44.3883 70.727C44.0124 70.5137 43.4642 70.3995 42.7436 70.3846C42.7222 70.3843 42.701 70.3883 42.6811 70.3963C42.6613 70.4043 42.6432 70.4162 42.6279 70.4313C42.6126 70.4464 42.6005 70.4644 42.5921 70.4843C42.5838 70.5041 42.5794 70.5254 42.5793 70.547L42.579 73.6333Z" fill="#333333"/>
<path d="M58.4925 68.6503C59.4078 69.1776 60.1693 69.9383 60.7003 70.8559C61.2418 71.7812 61.5241 72.8372 61.5172 73.9113C61.5263 74.9831 61.2438 76.0369 60.7003 76.9585C60.1655 77.8793 59.3998 78.6425 58.4801 79.1715C57.5603 79.7006 56.5186 79.9769 55.4595 79.9729C54.3994 79.9757 53.3572 79.6989 52.4363 79.17C51.5155 78.6412 50.7482 77.8787 50.2107 76.9585C49.667 76.0369 49.3845 74.983 49.3938 73.9111C49.3868 72.837 49.6691 71.781 50.2108 70.8557C50.7464 69.9389 51.5102 69.1787 52.4267 68.6501C53.3508 68.12 54.3961 67.8413 55.4596 67.8413C56.5231 67.8413 57.5683 68.12 58.4925 68.6501V68.6503ZM53.8339 70.9702C53.3415 71.2855 52.935 71.7197 52.6512 72.2332C52.3673 72.7467 52.2151 73.3234 52.2083 73.9111C52.2088 74.4962 52.3623 75.0709 52.6531 75.5774C52.9329 76.0985 53.3391 76.5398 53.8339 76.86C54.3171 77.1745 54.8801 77.3418 55.4555 77.3418C56.0308 77.3418 56.5938 77.1745 57.077 76.86C57.5729 76.5385 57.9815 76.0977 58.266 75.5774C58.5522 75.0693 58.7026 74.4951 58.7026 73.9109C58.7026 73.3267 58.5522 72.7524 58.266 72.2443C57.9845 71.7267 57.5785 71.2887 57.0852 70.9703C56.6006 70.6556 56.0362 70.4882 55.4596 70.4883C54.8825 70.4851 54.3173 70.6527 53.8339 70.9703" fill="#333333"/>
<path d="M62.7764 79.8383V67.9554C62.7764 67.9126 62.7933 67.8715 62.8234 67.8412C62.8534 67.811 62.8942 67.7939 62.9367 67.7939H66.6123C67.4685 67.7939 68.1983 67.8571 68.8016 67.9833C69.3682 68.0897 69.9089 68.3059 70.3937 68.6196C70.8421 68.9203 71.199 69.3402 71.4249 69.8327C71.6662 70.3429 71.7868 70.9651 71.7868 71.6992C71.7963 72.2596 71.6722 72.8142 71.4249 73.3163C71.1832 73.7927 70.8404 74.2096 70.4208 74.5375C69.9646 74.893 69.446 75.1586 68.892 75.3203C68.2909 75.5044 67.6658 75.5971 67.0375 75.5955H66.094C66.0729 75.5955 66.0521 75.5997 66.0326 75.6078C66.0131 75.616 65.9954 75.6279 65.9805 75.6429C65.9657 75.658 65.9539 75.6758 65.9458 75.6954C65.9378 75.7151 65.9337 75.7361 65.9337 75.7573V79.8386C65.9337 79.8814 65.9168 79.9224 65.8868 79.9527C65.8567 79.983 65.816 80 65.7735 80H62.9367C62.8942 80 62.8534 79.983 62.8233 79.9527C62.7933 79.9224 62.7764 79.8814 62.7764 79.8386L62.7764 79.8383ZM65.9337 70.5443V72.845C65.9338 72.8878 65.9506 72.9289 65.9807 72.9591C66.0107 72.9894 66.0515 73.0064 66.094 73.0064H66.8385C67.4174 73.0064 67.8637 72.8917 68.1773 72.6623C68.4849 72.4387 68.6387 72.1119 68.6388 71.6819C68.6388 71.2634 68.4849 70.9423 68.1773 70.7185C67.8638 70.4947 67.4175 70.3828 66.8385 70.3828H66.094C66.0515 70.3829 66.0108 70.3999 65.9807 70.4301C65.9507 70.4604 65.9338 70.5015 65.9338 70.5443" fill="#333333"/>
</g>
<defs>
<clipPath id="clip0_389_1082">
<rect width="63" height="80" fill="white" transform="translate(9)"/>
</clipPath>
</defs>
</svg>
