<svg width="52" height="52" viewBox="0 0 52 52" fill="none" xmlns="http://www.w3.org/2000/svg">
<path d="M38.0083 27.0911L39.2847 25.8147C39.2851 25.8143 39.2855 25.8139 39.2859 25.8135C39.2863 25.8131 39.2867 25.8127 39.2871 25.8123L43.7896 21.3098C43.7898 21.3095 43.7901 21.3093 43.7904 21.3091C43.7907 21.3089 43.7909 21.3086 43.7911 21.3083L48.2944 16.805C48.2945 16.8049 48.2946 16.8048 48.2947 16.8047C48.2948 16.8046 48.2949 16.8045 48.295 16.8044L50.7686 14.3309C51.5627 13.5369 52 12.481 52 11.358C52 10.2351 51.5626 9.17921 50.7686 8.3853L43.6149 1.23154C42.8209 0.437522 41.765 9.2276e-05 40.6421 9.2276e-05C39.519 9.2276e-05 38.4632 0.43742 37.6692 1.23154L24.9089 13.9916L16.2478 5.3304C14.7979 3.88049 12.9807 2.84841 10.9926 2.34578L1.89688 0.0465063C1.37688 -0.0850171 0.825602 0.0668188 0.446266 0.446358C0.0668281 0.825694 -0.0850078 1.37667 0.0465156 1.89687L2.34589 10.9926C2.84842 12.9806 3.8805 14.7978 5.33041 16.2478L13.9917 24.9089L1.23134 37.6691C0.437328 38.4632 0 39.519 0 40.642C0 41.765 0.437328 42.8207 1.23145 43.6147L8.3852 50.7684C9.17932 51.5627 10.2351 52 11.3581 52C12.4811 52 13.5369 51.5627 14.3309 50.7685L21.3059 43.7936C21.307 43.7926 21.308 43.7915 21.3091 43.7905C21.3103 43.7895 21.3113 43.7884 21.3123 43.7872L27.0911 38.0084L38.8216 49.739C40.3265 51.244 42.3033 51.9965 44.2802 51.9965C46.2571 51.9965 48.234 51.2441 49.7389 49.739C52.7489 46.7291 52.7489 41.8316 49.7389 38.8216L38.0083 27.0911ZM5.29973 10.2459L3.62639 3.62648L10.2458 5.29993C11.7013 5.66779 13.0317 6.42341 14.0932 7.48494L15.2943 8.68602L8.68583 15.2945L7.48475 14.0934C6.42322 13.0318 5.6677 11.7014 5.29973 10.2459ZM10.8403 17.4488L17.4487 10.8404L22.7545 16.1461L16.146 22.7546L10.8403 17.4488ZM11.3581 48.9531C11.049 48.9531 10.7584 48.8327 10.5398 48.6141L3.38589 41.4603C3.16733 41.2418 3.04698 40.9511 3.04698 40.642C3.04698 40.3328 3.16733 40.0421 3.38589 39.8235L39.8236 3.38588C40.0421 3.16732 40.3329 3.04687 40.6421 3.04687C40.9512 3.04687 41.2418 3.16732 41.4605 3.38588L48.6142 10.5397C48.8328 10.7582 48.9532 11.0489 48.9532 11.358C48.9532 11.6672 48.8328 11.9579 48.6142 12.1765L47.2176 13.5731L42.5704 8.92581C41.9757 8.33086 41.011 8.33086 40.416 8.92581C39.821 9.52066 39.821 10.4853 40.416 11.0803L45.0632 15.7276L42.7132 18.0775L40.3182 15.6826C39.7233 15.0875 38.7587 15.0877 38.1637 15.6826C37.5688 16.2775 37.5688 17.2421 38.1637 17.837L40.5588 20.232L38.2088 22.5819L33.5616 17.9346C32.9667 17.3397 32.0021 17.3397 31.4072 17.9346C30.8122 18.5295 30.8122 19.4941 31.4072 20.0891L36.0544 24.7362L33.7044 27.0862L31.3094 24.6913C30.7145 24.0964 29.7499 24.0964 29.1549 24.6913C28.56 25.2861 28.56 26.2507 29.1549 26.8457L31.5499 29.2406L29.2407 31.5499L24.5935 26.9027C23.9985 26.3077 23.034 26.3077 22.439 26.9027C21.8441 27.4975 21.8441 28.4622 22.439 29.0571L27.0862 33.7043L24.7363 36.0543L22.3413 33.6593C21.7465 33.0645 20.7818 33.0645 20.1869 33.6593C19.5919 34.2542 19.5919 35.2188 20.1869 35.8138L22.5818 38.2087L20.2319 40.5587L15.5848 35.9116C14.9899 35.3167 14.0253 35.3167 13.4303 35.9116C12.8354 36.5064 12.8354 37.4711 13.4303 38.066L18.0774 42.7131L15.7275 45.0631L13.3325 42.6681C12.7377 42.0733 11.773 42.0733 11.1781 42.6681C10.5831 43.263 10.5831 44.2276 11.1781 44.8226L13.573 47.2175L12.1764 48.6141C11.9579 48.8328 11.6672 48.9531 11.3581 48.9531ZM30.3117 34.7878C30.3139 34.7858 30.3159 34.7837 30.318 34.7816C30.3202 34.7795 30.3222 34.7774 30.3242 34.7753L34.78 30.3195C34.7806 30.3189 34.7812 30.3184 34.7817 30.3178C34.7822 30.3172 34.7828 30.3167 34.7834 30.3161L35.854 29.2455L42.3095 35.701L35.701 42.3095L29.2455 35.854L30.3117 34.7878ZM47.5845 47.5845C45.7625 49.4064 42.7979 49.4064 40.976 47.5845L37.8555 44.4639L44.464 37.8554L47.5846 40.9759C49.4065 42.798 49.4065 45.7625 47.5845 47.5845Z" fill="#ABD474"/>
</svg>
