<svg width="56" height="56" viewBox="0 0 56 56" fill="none" xmlns="http://www.w3.org/2000/svg">
<path d="M31.7751 54H24.2242C22.3807 54 20.812 52.7975 20.4079 51.0772L19.4498 47.019C17.8901 46.3885 16.4054 45.5652 15.0137 44.562L10.8773 45.8078C9.10195 46.33 7.17222 45.6128 6.28228 44.1005L2.51818 37.8865C1.61689 36.3482 1.9211 34.4523 3.24921 33.2607L6.45482 30.4483C6.3572 29.625 6.30725 28.8038 6.30725 28C6.30725 27.1962 6.35493 26.375 6.45255 25.5517L3.26283 22.7523C1.9211 21.5477 1.61462 19.654 2.50683 18.1352L6.29363 11.8843C7.17449 10.3893 9.10195 9.66567 10.8728 10.1922L15.0137 11.438C16.4054 10.4348 17.8924 9.6115 19.4498 8.981L20.4079 4.92067C20.812 3.2025 22.3807 2 24.2242 2H31.7751C33.6185 2 35.1873 3.2025 35.5914 4.92283L36.5494 8.981C38.1091 9.6115 39.5938 10.4348 40.9855 11.438L45.1219 10.1922C46.8927 9.6635 48.8247 10.3872 49.717 11.8995L53.4811 18.1135C54.3823 19.6518 54.0781 21.5477 52.75 22.7393L49.5444 25.5517C49.642 26.375 49.6897 27.1962 49.6897 28C49.6897 28.8038 49.642 29.625 49.5444 30.4483L52.7364 33.2477C52.7409 33.252 52.7455 33.2563 52.75 33.2607C54.0781 34.4523 54.3846 36.346 53.4924 37.8648L49.7056 44.1157C48.8225 45.6107 46.895 46.3343 45.1265 45.8078L40.9832 44.5598C39.5916 45.563 38.1046 46.3863 36.5472 47.0168L35.5891 51.0772C35.1873 52.7975 33.6185 54 31.7751 54ZM15.3633 41.1278C15.7538 41.1278 16.1375 41.2557 16.4485 41.4983C18.0036 42.7225 19.7063 43.665 21.5067 44.2998C22.047 44.4905 22.4511 44.9303 22.5782 45.4677L23.7338 50.3643C23.786 50.5875 23.9949 50.75 24.2287 50.75H31.7796C32.0134 50.75 32.22 50.5875 32.2745 50.3665L33.4301 45.4698C33.5572 44.9325 33.9591 44.4927 34.5017 44.302C36.302 43.6672 38.0047 42.7225 39.5598 41.5005C40.0048 41.1495 40.6018 41.0368 41.1558 41.2037L46.1526 42.7095C46.3887 42.7788 46.643 42.7008 46.7543 42.508L50.5411 36.2593C50.6546 36.0665 50.6137 35.8022 50.4298 35.6332L46.5976 32.2705C46.1799 31.9043 45.9824 31.367 46.0686 30.8318C46.2185 29.8785 46.2957 28.9252 46.2957 28C46.2957 27.0748 46.2207 26.1237 46.0686 25.1682C45.9846 24.633 46.1822 24.0957 46.5976 23.7295L50.4389 20.3582C50.6114 20.2022 50.6568 19.9357 50.5297 19.7212L46.7656 13.5093C46.643 13.3035 46.3978 13.2233 46.1481 13.2927L41.1581 14.7963C40.6041 14.9632 40.007 14.8505 39.5621 14.4995C38.0069 13.2753 36.3042 12.3328 34.5039 11.698C33.9636 11.5073 33.5595 11.0675 33.4324 10.5302L32.2768 5.6335C32.2155 5.4125 32.0089 5.25 31.7751 5.25H24.2242C23.9903 5.25 23.7837 5.4125 23.7293 5.6335L22.5737 10.5323C22.4488 11.0697 22.0447 11.5073 21.5044 11.7002C19.7041 12.335 18.0014 13.2775 16.4462 14.5017C16.0013 14.8527 15.4042 14.9632 14.8503 14.7985L9.8534 13.2927C9.6173 13.2233 9.36303 13.3035 9.25178 13.4942L5.46498 19.7407C5.3492 19.9357 5.39461 20.2022 5.58077 20.3712L9.4107 23.7295C9.82843 24.0957 10.0259 24.633 9.93967 25.1682C9.78984 26.1215 9.71265 27.0748 9.71265 28C9.71265 28.9252 9.78757 29.8763 9.93967 30.8318C10.0237 31.367 9.82616 31.9043 9.4107 32.2705L5.56942 35.6418C5.39688 35.7978 5.35147 36.0643 5.47861 36.2788L9.2427 42.4907C9.36757 42.6987 9.61503 42.7832 9.86021 42.7073L14.8503 41.2037C15.0183 41.1517 15.1908 41.1278 15.3633 41.1278Z" fill="#ABD474"/>
<path d="M26.2994 36.6667C26.17 36.6667 26.0429 36.6537 25.9135 36.6256C24.9986 36.4241 24.4264 35.5509 24.6376 34.6777L28.043 20.5944C28.2541 19.7169 29.1804 19.1774 30.0839 19.3746C30.9989 19.5761 31.571 20.4492 31.3598 21.3224L27.9544 35.4057C27.7728 36.1597 27.0736 36.6667 26.2994 36.6667Z" fill="#ABD474"/>
<path d="M35.3775 34.4998C34.9121 34.4998 34.449 34.32 34.1107 33.9625C33.4818 33.2951 33.5386 32.2681 34.2378 31.6658L38.5082 27.9998L34.2378 24.3338C33.5386 23.7336 33.4818 22.7066 34.1107 22.0371C34.7418 21.372 35.8179 21.3178 36.5172 21.9158L42.1928 26.7908C42.5515 27.1006 42.7558 27.5405 42.7558 27.9998C42.7558 28.4591 42.5515 28.899 42.1928 29.2088L36.5172 34.0838C36.1902 34.3633 35.7839 34.4998 35.3775 34.4998Z" fill="#ABD474"/>
<path d="M20.6215 34.4999C20.2151 34.4999 19.8088 34.3634 19.4818 34.0839L13.8062 29.2089C13.4475 28.8991 13.2432 28.4593 13.2432 27.9999C13.2432 27.5406 13.4475 27.1008 13.8062 26.7909L19.4818 21.9159C20.1811 21.3158 21.2549 21.3699 21.8883 22.0373C22.5172 22.7046 22.4604 23.7316 21.7612 24.3339L17.4908 27.9999L21.7612 31.6659C22.4604 32.2661 22.5172 33.2931 21.8883 33.9626C21.5501 34.3201 21.0869 34.4999 20.6215 34.4999Z" fill="#ABD474"/>
</svg>
