<svg width="22" height="22" viewBox="0 0 22 22" fill="none" xmlns="http://www.w3.org/2000/svg">
<path d="M7.2912 9.63193C6.90066 9.24148 6.26756 9.24152 5.87707 9.63201L5.80144 9.70764C5.4109 10.0982 5.41092 10.7314 5.8015 11.1219L9.17596 14.4958C9.5665 14.8863 10.1996 14.8863 10.5901 14.4958L19.8186 5.26727C20.2091 4.87674 20.2091 4.24358 19.8186 3.85305L19.743 3.77745C19.3525 3.38693 18.7193 3.38693 18.3288 3.77745L10.5901 11.5162C10.1996 11.9066 9.5665 11.9067 9.17596 11.5162L7.2912 9.63193ZM20.4614 10.9473C19.9092 10.9473 19.4675 11.3966 19.4028 11.9451C19.2458 13.2758 18.7762 14.5556 18.0266 15.6775C17.091 17.0777 15.7613 18.1689 14.2055 18.8133C12.6498 19.4578 10.9379 19.6264 9.28631 19.2978C7.63474 18.9693 6.11767 18.1584 4.92695 16.9677C3.73623 15.777 2.92534 14.2599 2.59682 12.6084C2.2683 10.9568 2.43691 9.24487 3.08132 7.68912C3.72573 6.13337 4.81701 4.80365 6.21715 3.8681C7.61729 2.93256 9.2634 2.43322 10.9473 2.43322C11.543 2.42827 12.1369 2.48747 12.7188 2.60944C13.0738 2.68384 13.4481 2.59131 13.7046 2.33498L13.8709 2.16882C14.3909 1.64938 14.1878 0.771462 13.4705 0.611571C12.6428 0.427082 11.7977 0.324045 10.9473 0.304688C8.84242 0.304688 6.78477 0.928868 5.0346 2.0983C3.28443 3.26772 1.92033 4.92988 1.11482 6.87457C0.309299 8.81926 0.098539 10.9591 0.509188 13.0236C0.919836 15.0881 1.93345 16.9844 3.42185 18.4728C4.91025 19.9612 6.80659 20.9748 8.87106 21.3855C10.9355 21.7961 13.0754 21.5854 15.0201 20.7798C16.9648 19.9743 18.6269 18.6102 19.7964 16.8601C20.78 15.3879 21.3779 13.6982 21.543 11.9459C21.5949 11.396 21.1423 10.9473 20.59 10.9473H20.4614Z" fill="url(#paint0_linear_12865_273)"/>
<defs>
<linearGradient id="paint0_linear_12865_273" x1="0.304687" y1="-8.56414" x2="18.5948" y2="-8.17057" gradientUnits="userSpaceOnUse">
<stop stop-color="#A10C74"/>
<stop offset="1" stop-color="#FE826C"/>
</linearGradient>
</defs>
</svg>
