<svg width="16" height="18" viewBox="0 0 16 18" fill="none" xmlns="http://www.w3.org/2000/svg">
<path fill-rule="evenodd" clip-rule="evenodd" d="M11.6822 1.1695C11.644 0.885716 11.4026 0.666992 11.1105 0.666992C10.7919 0.666992 10.5336 0.927292 10.5336 1.24839V1.89118H5.47345V1.24839L5.46818 1.1695C5.42998 0.885716 5.1886 0.666992 4.89653 0.666992C4.5779 0.666992 4.31961 0.927292 4.31961 1.24839V1.90561C1.95546 2.06844 0.5 3.60026 0.5 6.07182V13.087C0.5 15.7397 2.13195 17.3337 4.74688 17.3337H11.253C13.8711 17.3337 15.4999 15.7664 15.4999 13.1457V6.07182C15.5075 3.59938 14.0567 2.06798 11.6874 1.90554V1.24839L11.6822 1.1695ZM10.5336 3.05397V3.79938L10.5389 3.87827C10.5771 4.16205 10.8184 4.38078 11.1105 4.38078C11.4291 4.38078 11.6874 4.12048 11.6874 3.79938V3.07115C13.4112 3.21457 14.3516 4.25261 14.3461 6.07003V6.40673H1.65384V6.07182C1.65384 4.25554 2.59938 3.21531 4.31961 3.07127V3.79938L4.32487 3.87827C4.36307 4.16205 4.60445 4.38078 4.89653 4.38078C5.21515 4.38078 5.47345 4.12048 5.47345 3.79938V3.05397H10.5336ZM1.65384 7.56951V13.087C1.65384 15.0892 2.76126 16.1709 4.74688 16.1709H11.253C13.2455 16.1709 14.3461 15.1118 14.3461 13.1457L14.3461 7.56951H1.65384ZM12.001 10.0156C12.001 9.6945 11.7427 9.4342 11.4241 9.4342L11.3387 9.4395C11.0571 9.478 10.84 9.72125 10.84 10.0156C10.84 10.3367 11.0983 10.597 11.4241 10.597L11.5023 10.5917C11.7839 10.5532 12.001 10.3099 12.001 10.0156ZM8.01065 9.4342C8.32927 9.4342 8.58757 9.6945 8.58757 10.0156C8.58757 10.3099 8.37053 10.5532 8.08893 10.5917L8.01065 10.597C7.6849 10.597 7.4266 10.3367 7.4266 10.0156C7.4266 9.72125 7.64364 9.478 7.92524 9.4395L8.01065 9.4342ZM5.16702 10.0156C5.16702 9.6945 4.90873 9.4342 4.5901 9.4342L4.50469 9.4395C4.2231 9.478 4.00606 9.72125 4.00606 10.0156C4.00606 10.3367 4.26435 10.597 4.58298 10.597L4.66839 10.5917C4.94998 10.5532 5.16702 10.3099 5.16702 10.0156ZM11.4241 12.447C11.7427 12.447 12.001 12.7073 12.001 13.0284C12.001 13.3227 11.7839 13.566 11.5023 13.6045L11.4241 13.6098C11.0983 13.6098 10.84 13.3495 10.84 13.0284C10.84 12.7341 11.0571 12.4908 11.3387 12.4523L11.4241 12.447ZM8.58757 13.0284C8.58757 12.7073 8.32927 12.447 8.01065 12.447L7.92524 12.4523C7.64364 12.4908 7.4266 12.7341 7.4266 13.0284C7.4266 13.3495 7.6849 13.6098 8.01065 13.6098L8.08893 13.6045C8.37053 13.566 8.58757 13.3227 8.58757 13.0284ZM4.5901 12.447C4.90873 12.447 5.16702 12.7073 5.16702 13.0284C5.16702 13.3227 4.94998 13.566 4.66839 13.6045L4.58298 13.6098C4.26435 13.6098 4.00606 13.3495 4.00606 13.0284C4.00606 12.7341 4.2231 12.4908 4.50469 12.4523L4.5901 12.447Z" fill="#747474"/>
</svg>
