<svg width="25" height="21" viewBox="0 0 25 21" fill="none" xmlns="http://www.w3.org/2000/svg">
<path fill-rule="evenodd" clip-rule="evenodd" d="M23.9027 11.6314C24.4518 11.5558 24.875 11.0782 24.875 10.5002C24.875 9.86962 24.3713 9.35847 23.75 9.35847L3.97506 9.35847L11.1185 2.13816L11.2277 2.01034C11.5554 1.56407 11.5204 0.92973 11.1218 0.523566C10.6834 0.0767867 9.97108 0.07529 9.53084 0.520223L0.471186 9.67628C0.42207 9.72411 0.37722 9.77642 0.337278 9.83256C0.0186386 10.2795 0.0581837 10.9079 0.4559 11.3098L9.5309 20.4798L9.65731 20.5901C10.0984 20.9208 10.7233 20.8826 11.1219 20.4764C11.5603 20.0296 11.5587 19.3067 11.1185 18.8618L3.9733 11.6418L23.75 11.6418L23.9027 11.6314Z" fill="#333335"/>
</svg>
