<svg xmlns="http://www.w3.org/2000/svg" width="33.85" height="33.847" viewBox="0 0 33.85 33.847">
  <g id="Layer_2" data-name="Layer 2" transform="translate(0.073 0.048)">
    <g id="Search" transform="translate(-0.073 -0.048)">
      <path id="Path_7993" data-name="Path 7993" d="M33.273,30.889l-7.155-7.155a1.877,1.877,0,0,0-2.649,0A11.851,11.851,0,1,1,26.8,12.655a11.993,11.993,0,0,1-.122,5.624,1.7,1.7,0,1,0,3.279.874,15.273,15.273,0,1,0-5.231,8.009L30.874,33.3a1.7,1.7,0,1,0,2.4-2.412Z" transform="translate(0.073 0.048)" fill="#7f90a3"/>
      <path id="Path_7994" data-name="Path 7994" d="M25.026,29.788a1.667,1.667,0,0,0-2.033-.183,5.773,5.773,0,0,1-5.868.115,1.633,1.633,0,0,0-1.945.224l-.1.095a1.633,1.633,0,0,0,.285,2.582,9.181,9.181,0,0,0,9.486-.19,1.633,1.633,0,0,0,.278-2.534Z" transform="translate(-4.649 -9.428)" fill="#00c569"/>
    </g>
  </g>
</svg>
