<svg width="160" height="160" viewBox="0 0 160 160" fill="none" xmlns="http://www.w3.org/2000/svg">
<g filter="url(#filter0_b_3851_18235)">
<rect width="159.202" height="159.986" rx="18.8619" fill="white" fill-opacity="0.9"/>
<path d="M124.282 67.4381H116.635C116.149 47.3601 99.7321 31.2314 79.5593 31.2314C59.3864 31.2314 42.9694 47.3601 42.4835 67.4381H34.8945C35.3512 43.3006 55.2245 23.5772 79.592 23.5772C91.3007 23.5577 102.548 28.1452 110.908 36.3502C119.268 44.5553 124.072 55.7206 124.282 67.4381Z" fill="#18484C"/>
<path d="M76.4587 105.107V112.958C53.6644 111.382 35.5759 92.6868 34.9277 69.6317H42.6071C43.0275 82.0675 49.8032 93.3984 59.9612 99.7401C59.3523 97.8647 58.9203 95.7653 58.9203 93.6972V43.667H66.5916V74.7507H74.2629V82.4332H66.5916V93.6973C66.5916 98.4271 69.5651 102.512 73.5755 104.399C74.4826 104.817 75.4613 105.057 76.4587 105.107" fill="#96CA4C"/>
<path d="M124.307 69.2675C123.975 86.0247 114.445 100.522 100.568 107.921V95.2336C100.568 94.8679 100.542 94.5461 100.542 94.184C100.542 87.6632 95.1641 82.4331 88.6527 82.4331H76.4526V74.7532H86.5153C93.0264 74.7532 98.3246 69.5673 98.3246 63.0505C98.3246 56.5337 93.0264 51.3474 86.5153 51.3474H68.7795V43.667H86.5153C97.2723 43.667 106.027 52.32 106.027 63.0905C106.027 69.037 103.356 74.2924 99.1541 77.8656C103.674 80.755 107.145 84.6277 107.51 92.6736C114.087 85.359 116.645 75.4846 116.645 69.2675H124.307Z" fill="#96CA4C"/>
<path d="M39.4438 123.111H36.3376C36.2882 123.111 36.2401 123.095 36.2006 123.065C36.1612 123.036 36.1324 122.994 36.1188 122.946L35.1317 119.483C35.1221 119.449 35.1205 119.414 35.1269 119.379C35.1334 119.344 35.1478 119.312 35.169 119.284C35.1901 119.256 35.2176 119.233 35.249 119.217C35.2805 119.202 35.3152 119.193 35.3504 119.193H47.2143C47.2641 119.193 47.3126 119.21 47.3522 119.24C47.3918 119.27 47.4204 119.312 47.4336 119.361L48.3867 122.824C48.3961 122.858 48.3975 122.893 48.3908 122.927C48.3842 122.962 48.3697 122.994 48.3485 123.022C48.3273 123.05 48.2999 123.073 48.2685 123.088C48.2372 123.104 48.2026 123.112 48.1676 123.112H44.3666C44.3063 123.112 44.2484 123.136 44.2058 123.178C44.1631 123.221 44.1391 123.279 44.1391 123.339V136.18C44.1391 136.241 44.1151 136.298 44.0725 136.341C44.0299 136.384 43.9721 136.408 43.9119 136.408H39.8988C39.869 136.408 39.8394 136.402 39.8118 136.39C39.7842 136.379 39.7592 136.362 39.7381 136.341C39.717 136.32 39.7002 136.295 39.6888 136.267C39.6774 136.24 39.6715 136.21 39.6716 136.18V123.339C39.6715 123.279 39.6476 123.221 39.6049 123.178C39.5623 123.135 39.5044 123.111 39.4441 123.111" fill="#333333"/>
<path d="M58.0938 133.351H51.0747C51.035 133.351 50.996 133.361 50.9616 133.381C50.9272 133.401 50.8985 133.429 50.8785 133.464L49.2253 136.295C49.2053 136.33 49.1766 136.358 49.1421 136.378C49.1077 136.398 49.0686 136.408 49.0289 136.408H44.9435C44.9036 136.408 44.8644 136.398 44.8299 136.378C44.7953 136.358 44.7666 136.329 44.7466 136.294C44.7267 136.26 44.7161 136.221 44.7161 136.181C44.716 136.141 44.7264 136.102 44.7463 136.067L54.3934 119.294C54.4134 119.259 54.4421 119.23 54.4767 119.21C54.5112 119.19 54.5505 119.18 54.5904 119.18C54.6304 119.18 54.6696 119.19 54.7042 119.21C54.7388 119.23 54.7675 119.259 54.7875 119.294L64.4225 136.067C64.4423 136.102 64.4527 136.141 64.4527 136.181C64.4526 136.221 64.4421 136.26 64.4221 136.295C64.4021 136.329 64.3734 136.358 64.3389 136.378C64.3043 136.398 64.2652 136.408 64.2253 136.408H60.1394C60.0997 136.408 60.0607 136.398 60.0262 136.378C59.9918 136.359 59.9631 136.33 59.9431 136.296L58.2899 133.464C58.2698 133.429 58.2412 133.401 58.2067 133.381C58.1723 133.361 58.1333 133.351 58.0936 133.351H58.0938ZM56.1755 129.83L54.7863 127.45C54.7662 127.416 54.7376 127.387 54.7033 127.368C54.6689 127.348 54.6299 127.337 54.5903 127.337C54.5507 127.337 54.5117 127.348 54.4773 127.367C54.4429 127.387 54.4142 127.415 54.3941 127.45L52.9949 129.829C52.9746 129.864 52.9637 129.903 52.9635 129.943C52.9632 129.983 52.9736 130.023 52.9935 130.058C53.0134 130.092 53.0421 130.121 53.0767 130.141C53.1114 130.162 53.1507 130.172 53.1908 130.172H55.9792C56.0193 130.172 56.0586 130.162 56.0932 130.142C56.1278 130.121 56.1565 130.093 56.1765 130.058C56.1964 130.023 56.2068 129.984 56.2066 129.944C56.2064 129.904 56.1957 129.864 56.1755 129.83Z" fill="#333333"/>
<path d="M75.5405 136.408H65.4594C65.3991 136.408 65.3413 136.384 65.2986 136.341C65.2559 136.298 65.232 136.24 65.2319 136.18V119.432C65.232 119.371 65.2559 119.314 65.2984 119.271C65.3409 119.228 65.3986 119.204 65.4589 119.204L69.4722 119.193C69.5021 119.193 69.5318 119.199 69.5594 119.211C69.5871 119.222 69.6122 119.239 69.6334 119.26C69.6545 119.281 69.6713 119.306 69.6828 119.334C69.6943 119.361 69.7002 119.391 69.7002 119.421V132.249C69.7002 132.31 69.7242 132.368 69.7668 132.41C69.8095 132.453 69.8674 132.477 69.9277 132.477H76.5963C76.6318 132.477 76.6668 132.485 76.6985 132.501C76.7302 132.517 76.7578 132.541 76.7789 132.569C76.8001 132.598 76.8142 132.631 76.8203 132.666C76.8264 132.701 76.8242 132.737 76.8139 132.771L75.7581 136.246C75.7439 136.293 75.7151 136.334 75.6759 136.363C75.6367 136.392 75.5892 136.408 75.5405 136.408Z" fill="#333333"/>
<path d="M78.0816 136.144V119.421C78.0816 119.361 78.1056 119.303 78.1483 119.26C78.1909 119.217 78.2488 119.193 78.3091 119.193H83.1531C84.5915 119.193 85.8627 119.371 86.9669 119.727C88.0534 120.075 88.9051 120.645 89.522 121.438C90.1294 122.231 90.4331 123.254 90.4332 124.507C90.4281 125.447 90.1518 126.365 89.6375 127.152C89.1995 127.875 88.546 128.444 87.7689 128.777C87.7384 128.789 87.7109 128.808 87.6882 128.832C87.6656 128.855 87.6484 128.884 87.6378 128.915C87.6272 128.946 87.6234 128.979 87.6268 129.012C87.6301 129.045 87.6405 129.076 87.6572 129.105L91.8315 136.052C91.8522 136.086 91.8634 136.126 91.864 136.166C91.8645 136.206 91.8543 136.246 91.8345 136.281C91.8147 136.316 91.7859 136.345 91.7511 136.366C91.7164 136.386 91.6768 136.397 91.6366 136.397H86.9473C86.9065 136.397 86.8664 136.386 86.8313 136.365C86.7962 136.344 86.7673 136.314 86.7477 136.278L82.6014 128.68H82.5499V136.144C82.5499 136.205 82.5259 136.263 82.4832 136.305C82.4406 136.348 82.3827 136.372 82.3224 136.372H78.309C78.2487 136.372 78.1909 136.348 78.1482 136.305C78.1055 136.263 78.0816 136.205 78.0815 136.144H78.0816ZM82.5499 127.429C82.5501 127.46 82.5563 127.49 82.5682 127.518C82.5801 127.546 82.5975 127.571 82.6192 127.593C82.641 127.614 82.6668 127.631 82.6951 127.642C82.7234 127.653 82.7537 127.659 82.7841 127.658C83.4338 127.642 83.9806 127.558 84.4245 127.407C84.8837 127.267 85.2849 126.982 85.5675 126.594C85.8324 126.222 85.9651 125.74 85.9656 125.15C85.9656 124.26 85.683 123.654 85.1178 123.33C84.5842 123.029 83.8061 122.868 82.7835 122.847C82.7531 122.847 82.723 122.852 82.6948 122.864C82.6666 122.875 82.641 122.892 82.6193 122.913C82.5976 122.934 82.5804 122.96 82.5685 122.988C82.5567 123.016 82.5505 123.046 82.5503 123.076L82.5499 127.429Z" fill="#333333"/>
<path d="M105.138 120.401C106.437 121.144 107.518 122.217 108.272 123.512C109.04 124.817 109.441 126.306 109.431 127.821C109.444 129.332 109.043 130.819 108.272 132.118C107.513 133.417 106.426 134.494 105.12 135.24C103.815 135.986 102.337 136.376 100.833 136.37C99.329 136.374 97.8498 135.983 96.5429 135.238C95.2359 134.492 94.1469 133.416 93.3841 132.118C92.6125 130.819 92.2115 129.332 92.2247 127.82C92.2147 126.306 92.6155 124.816 93.3843 123.511C94.1444 122.218 95.2284 121.146 96.5291 120.4C97.8408 119.653 99.3242 119.26 100.834 119.26C102.343 119.26 103.826 119.653 105.138 120.4V120.401ZM98.5264 123.673C97.8276 124.117 97.2506 124.73 96.8478 125.454C96.4449 126.178 96.2288 126.992 96.2192 127.82C96.22 128.646 96.4377 129.456 96.8506 130.171C97.2476 130.906 97.8241 131.528 98.5263 131.98C99.2121 132.423 100.011 132.659 100.828 132.659C101.644 132.659 102.443 132.423 103.129 131.98C103.833 131.526 104.413 130.904 104.817 130.171C105.223 129.454 105.436 128.644 105.436 127.82C105.436 126.996 105.223 126.186 104.817 125.47C104.417 124.74 103.841 124.122 103.141 123.673C102.453 123.229 101.652 122.993 100.834 122.993C100.015 122.989 99.2124 123.225 98.5264 123.673" fill="#333333"/>
<path d="M111.219 136.181V119.421C111.219 119.361 111.243 119.303 111.285 119.26C111.328 119.217 111.386 119.193 111.446 119.193H116.663C117.878 119.193 118.914 119.282 119.77 119.46C120.574 119.611 121.342 119.915 122.03 120.358C122.666 120.782 123.173 121.374 123.493 122.069C123.836 122.788 124.007 123.666 124.007 124.701C124.02 125.492 123.844 126.274 123.493 126.982C123.15 127.654 122.664 128.242 122.068 128.704C121.421 129.206 120.685 129.58 119.898 129.808C119.045 130.068 118.158 130.199 117.266 130.197H115.927C115.897 130.197 115.868 130.202 115.84 130.214C115.813 130.225 115.787 130.242 115.766 130.263C115.745 130.285 115.728 130.31 115.717 130.337C115.706 130.365 115.7 130.395 115.7 130.425V136.181C115.7 136.241 115.676 136.299 115.633 136.342C115.591 136.385 115.533 136.409 115.472 136.409H111.446C111.386 136.409 111.328 136.385 111.285 136.342C111.243 136.299 111.219 136.241 111.219 136.181L111.219 136.181ZM115.7 123.072V126.317C115.7 126.378 115.724 126.436 115.767 126.478C115.809 126.521 115.867 126.545 115.927 126.545H116.984C117.806 126.545 118.439 126.383 118.884 126.06C119.321 125.744 119.539 125.283 119.539 124.677C119.539 124.087 119.321 123.634 118.884 123.318C118.439 123.002 117.806 122.845 116.984 122.845H115.927C115.867 122.845 115.809 122.869 115.767 122.911C115.724 122.954 115.7 123.012 115.7 123.072" fill="#333333"/>
</g>
<defs>
<filter id="filter0_b_3851_18235" x="-6" y="-6" width="171.202" height="171.986" filterUnits="userSpaceOnUse" color-interpolation-filters="sRGB">
<feFlood flood-opacity="0" result="BackgroundImageFix"/>
<feGaussianBlur in="BackgroundImageFix" stdDeviation="3"/>
<feComposite in2="SourceAlpha" operator="in" result="effect1_backgroundBlur_3851_18235"/>
<feBlend mode="normal" in="SourceGraphic" in2="effect1_backgroundBlur_3851_18235" result="shape"/>
</filter>
</defs>
</svg>
