<svg width="99" height="97" viewBox="0 0 99 97" fill="none" xmlns="http://www.w3.org/2000/svg">
<path fill-rule="evenodd" clip-rule="evenodd" d="M67.2588 12.0554C51.1707 5.62018 31.6148 9.26769 20.2144 21.8245L20.2136 21.8253C14.6103 27.9938 11.096 35.7729 10.1711 44.055C9.24611 52.337 10.9577 60.6997 15.0621 67.9524C19.1665 75.2051 25.4544 80.978 33.0306 84.4492C40.6068 87.9203 49.085 88.9127 57.258 87.285L57.2592 87.2848C73.7576 84.0038 85.9598 69.1275 89.2136 52.8588C89.6978 50.4375 92.0532 48.8672 94.4746 49.3514C96.8959 49.8357 98.4661 52.1911 97.9819 54.6124C94.1846 73.5987 79.8047 91.9184 59.0033 96.055C48.985 98.0499 38.5927 96.8333 29.306 92.5785C20.019 88.3235 12.3111 81.247 7.27983 72.3565C2.24859 63.466 0.150514 53.2148 1.28433 43.0625C2.41811 32.9106 6.72575 23.3751 13.5939 15.8137M13.5947 15.8129C27.7753 0.194655 51.4132 -3.91364 70.5798 3.75298C72.8724 4.67004 73.9875 7.27202 73.0705 9.56467C72.1534 11.8573 69.5514 12.9725 67.2588 12.0554" fill="url(#paint0_linear_3779_19470)"/>
<path fill-rule="evenodd" clip-rule="evenodd" d="M91.0117 24.5898C92.7578 26.3359 92.7577 29.1668 91.0117 30.9128L54.4484 67.4752C52.7023 69.2212 49.8715 69.2212 48.1255 67.4752L30.498 49.8477C28.752 48.1017 28.752 45.2708 30.498 43.5248C32.244 41.7788 35.0749 41.7788 36.8209 43.5248L51.287 57.9908L84.6888 24.5898C86.4349 22.8437 89.2657 22.8438 91.0117 24.5898Z" fill="url(#paint1_linear_3779_19470)"/>
<defs>
<linearGradient id="paint0_linear_3779_19470" x1="4" y1="-6.5" x2="199" y2="178.5" gradientUnits="userSpaceOnUse">
<stop stop-color="#0FA76F"/>
<stop offset="1" stop-color="#154C4C"/>
</linearGradient>
<linearGradient id="paint1_linear_3779_19470" x1="31.1495" y1="20.2307" x2="119.434" y2="136.321" gradientUnits="userSpaceOnUse">
<stop stop-color="#0FA76F"/>
<stop offset="1" stop-color="#154C4C"/>
</linearGradient>
</defs>
</svg>
